<svg xmlns="http://www.w3.org/2000/svg" xmlns:xlink="http://www.w3.org/1999/xlink" width="1328.278" height="1062.383" viewBox="0 0 1328.278 1062.383">
  <defs>
    <style>
      .cls-1, .cls-12, .cls-15, .cls-23, .cls-24, .cls-28, .cls-29, .cls-36, .cls-37, .cls-43, .cls-45, .cls-47, .cls-48, .cls-49, .cls-50, .cls-51, .cls-52 {
        fill: none;
      }

      .cls-2 {
        fill: #847bb5;
      }

      .cls-3 {
        fill: #f3a68e;
      }

      .cls-4 {
        clip-path: url(#clip-path);
      }

      .cls-5 {
        fill: #f7f7f7;
      }

      .cls-6 {
        fill: #f9f3f0;
      }

      .cls-7 {
        opacity: 0.3;
      }

      .cls-32, .cls-7 {
        mix-blend-mode: multiply;
        isolation: isolate;
      }

      .cls-8 {
        clip-path: url(#clip-path-4);
      }

      .cls-9 {
        fill: #d8dce2;
      }

      .cls-10 {
        fill: #fff;
      }

      .cls-11 {
        fill: #eee;
      }

      .cls-12 {
        stroke: #391f31;
      }

      .cls-12, .cls-15, .cls-23, .cls-24, .cls-36, .cls-37, .cls-43, .cls-45 {
        stroke-miterlimit: 10;
      }

      .cls-12, .cls-36, .cls-47, .cls-48, .cls-49 {
        stroke-width: 0.25px;
      }

      .cls-13 {
        fill: #c8b193;
      }

      .cls-14 {
        fill: #b69b79;
      }

      .cls-15 {
        stroke: #ad8f69;
      }

      .cls-16, .cls-55 {
        fill: #ebce8b;
      }

      .cls-17 {
        fill: #e2b754;
      }

      .cls-18 {
        fill: #39202f;
      }

      .cls-19 {
        fill: #ba865b;
      }

      .cls-20 {
        fill: #a76e47;
      }

      .cls-21 {
        fill: #2d1323;
      }

      .cls-22 {
        fill: #2d2d23;
      }

      .cls-23, .cls-51 {
        stroke: #ebce8b;
      }

      .cls-23 {
        stroke-width: 0.5px;
      }

      .cls-24 {
        stroke: #a76e47;
      }

      .cls-25 {
        opacity: 0.7;
      }

      .cls-26 {
        clip-path: url(#clip-path-5);
      }

      .cls-27 {
        fill: #fffffd;
      }

      .cls-28, .cls-45 {
        stroke: #fffffd;
      }

      .cls-28, .cls-29, .cls-47, .cls-48, .cls-49 {
        stroke-linecap: round;
      }

      .cls-28, .cls-29, .cls-47, .cls-48, .cls-49, .cls-50, .cls-51, .cls-52 {
        stroke-linejoin: round;
      }

      .cls-28, .cls-29, .cls-45 {
        stroke-width: 2px;
      }

      .cls-29 {
        stroke: #d84f4c;
      }

      .cls-30 {
        fill: #d84f4c;
      }

      .cls-31 {
        fill: #cbd0d8;
      }

      .cls-32 {
        opacity: 0.5;
      }

      .cls-33 {
        clip-path: url(#clip-path-6);
      }

      .cls-34 {
        opacity: 0.8;
      }

      .cls-35 {
        clip-path: url(#clip-path-7);
      }

      .cls-36, .cls-47, .cls-48, .cls-49 {
        stroke: #e1e1df;
      }

      .cls-37, .cls-52 {
        stroke: #d88472;
      }

      .cls-38, .cls-39 {
        fill: #391f31;
        font-family: Montserrat-ExtraBold, Montserrat;
      }

      .cls-38 {
        font-size: 8px;
      }

      .cls-38, .cls-39, .cls-53, .cls-54, .cls-55 {
        font-weight: 800;
      }

      .cls-39 {
        font-size: 9px;
      }

      .cls-40 {
        clip-path: url(#clip-path-9);
      }

      .cls-41 {
        clip-path: url(#clip-path-10);
      }

      .cls-42 {
        fill: #154143;
      }

      .cls-43 {
        stroke: #405650;
      }

      .cls-44, .cls-54 {
        fill: #5a7f6c;
      }

      .cls-46 {
        clip-path: url(#clip-path-11);
      }

      .cls-48 {
        stroke-dasharray: 1.921 0.96;
      }

      .cls-49 {
        stroke-dasharray: 2.02 1.01;
      }

      .cls-50 {
        stroke: #5a7f6c;
      }

      .cls-53, .cls-56 {
        fill: #d88472;
      }

      .cls-53, .cls-54, .cls-55 {
        font-size: 10px;
        font-family: Montserrat-ExtraBoldItalic, Montserrat;
        font-style: italic;
      }
    </style>
    <clipPath id="clip-path">
      <rect id="Rectangle_54" data-name="Rectangle 54" class="cls-1" width="948.488" height="617"/>
    </clipPath>
    <clipPath id="clip-path-4">
      <rect id="Rectangle_13" data-name="Rectangle 13" class="cls-1" width="515.496" height="370.979"/>
    </clipPath>
    <clipPath id="clip-path-5">
      <rect id="Rectangle_35" data-name="Rectangle 35" class="cls-1" width="529.92" height="39.797"/>
    </clipPath>
    <clipPath id="clip-path-6">
      <rect id="Rectangle_37" data-name="Rectangle 37" class="cls-1" width="319.633" height="80.912"/>
    </clipPath>
    <clipPath id="clip-path-7">
      <rect id="Rectangle_38" data-name="Rectangle 38" class="cls-1" width="319.637" height="154.918"/>
    </clipPath>
    <clipPath id="clip-path-9">
      <rect id="Rectangle_40" data-name="Rectangle 40" class="cls-1" width="137.299" height="74.734"/>
    </clipPath>
    <clipPath id="clip-path-10">
      <rect id="Rectangle_41" data-name="Rectangle 41" class="cls-1" width="137.3" height="74.734"/>
    </clipPath>
    <clipPath id="clip-path-11">
      <rect id="Rectangle_42" data-name="Rectangle 42" class="cls-1" width="126.244" height="107.888"/>
    </clipPath>
  </defs>
  <g id="bg" transform="translate(-608)">
    <g id="hero_img">
      <path id="Path_1" data-name="Path 1" class="cls-2" d="M825.13,0s510.41,511.6,258.03,721.955,440.235,260.266,702.974,297.8,304.58,121.944,347.983-147.664,0-872.09,0-872.09Z" transform="translate(-217.13)"/>
      <ellipse id="Ellipse_1" data-name="Ellipse 1" class="cls-3" cx="435" cy="459.5" rx="435" ry="459.5" transform="translate(1050)"/>
    </g>
    <g id="illustration" transform="translate(930.435 207)">
      <g id="Group_51" data-name="Group 51" class="cls-4">
        <g id="Group_20" data-name="Group 20">
          <g id="Group_19" data-name="Group 19" class="cls-4">
            <path id="Path_12" data-name="Path 12" class="cls-5" d="M830.2,551.294,348.484,550.24,55.5,549.65C31.586,462.489-6.889,301.941,42.544,177.54,110.126,7.467,304.9-13.181,534.71,5.751c112.934,9.3,263.6,35.826,353.419,171.976,69.8,105.8.317,310.666-57.928,373.566" transform="translate(6.266 0)"/>
            <path id="Path_13" data-name="Path 13" class="cls-6" d="M204.575,407.361c-347.449-2.8-190.751,60.435,17.277,69.849,112.748,7.488,779.888-2.3,723.229-57.622-5.6-5.465-15.31-8.6-25.492-8.74-94.761-1.3-666.294-1.889-715.013-3.488" transform="translate(0 137.587)"/>
          </g>
        </g>
        <g id="Group_34" data-name="Group 34">
          <g id="Group_33" data-name="Group 33" class="cls-4">
            <g id="Group_23" data-name="Group 23" class="cls-7" transform="translate(164.417 188.636)">
              <g id="Group_22" data-name="Group 22">
                <g id="Group_21" data-name="Group 21" class="cls-8">
                  <path id="Path_14" data-name="Path 14" class="cls-9" d="M638.4,493.753a18.18,18.18,0,0,1-18.181,18.228H143.649a20.735,20.735,0,0,1-20.656-18.929H122.9V164.628A23.646,23.646,0,0,1,146.552,141h472.8a18.182,18.182,0,0,1,18.181,18.134Z" transform="translate(-122.899 -141.002)"/>
                </g>
              </g>
            </g>
            <path id="Path_15" data-name="Path 15" class="cls-9" d="M701.789,151.665v335.42H136.049V151.665a24.856,24.856,0,0,1,24.857-24.843H676.932a24.87,24.87,0,0,1,24.857,24.843" transform="translate(45.961 42.844)"/>
            <path id="Path_16" data-name="Path 16" class="cls-10" d="M708.789,151.665v335.42H143.049V151.665a24.856,24.856,0,0,1,24.857-24.843H683.932a24.87,24.87,0,0,1,24.857,24.843" transform="translate(48.326 42.844)"/>
            <path id="Path_17" data-name="Path 17" class="cls-5" d="M686.352,160.616v284.1a21.1,21.1,0,0,1-21.092,21.106H177.54a21.11,21.11,0,0,1-21.106-21.106v-284.1a21.112,21.112,0,0,1,21.106-21.107H665.26a21.1,21.1,0,0,1,21.092,21.107" transform="translate(52.847 47.13)"/>
            <rect id="Rectangle_14" data-name="Rectangle 14" class="cls-5" width="174.897" height="325.021" transform="translate(564.308 189.277)"/>
            <path id="Path_18" data-name="Path 18" class="cls-9" d="M538.54,465.723H531.5a21.1,21.1,0,0,0,21.107-21.091V160.912A21.112,21.112,0,0,0,531.5,139.806h7.041a21.11,21.11,0,0,1,21.106,21.106V444.632a21.1,21.1,0,0,1-21.106,21.091" transform="translate(179.554 47.23)"/>
            <rect id="Rectangle_15" data-name="Rectangle 15" class="cls-11" width="112.109" height="60.252" transform="translate(611.196 197.589)"/>
            <rect id="Rectangle_16" data-name="Rectangle 16" class="cls-11" width="20.374" height="70.3" transform="translate(706.941 416.762)"/>
            <rect id="Rectangle_17" data-name="Rectangle 17" class="cls-11" width="13.545" height="58.542" transform="translate(693.878 428.522)"/>
            <rect id="Rectangle_18" data-name="Rectangle 18" class="cls-11" width="15.281" height="81.347" transform="translate(680.141 405.717)"/>
            <rect id="Rectangle_19" data-name="Rectangle 19" class="cls-11" width="15.279" height="63.976" transform="translate(664.863 423.086)"/>
            <rect id="Rectangle_20" data-name="Rectangle 20" class="cls-11" width="15.281" height="49.146" transform="translate(653.579 437.916)"/>
            <rect id="Rectangle_21" data-name="Rectangle 21" class="cls-11" width="15.279" height="81.347" transform="translate(638.3 405.717)"/>
            <rect id="Rectangle_22" data-name="Rectangle 22" class="cls-11" width="15.281" height="75.332" transform="translate(623.447 411.732)"/>
            <rect id="Rectangle_23" data-name="Rectangle 23" class="cls-11" width="15.279" height="75.738" transform="translate(611.197 411.324)"/>
            <rect id="Rectangle_24" data-name="Rectangle 24" class="cls-11" width="16.138" height="85.789" transform="translate(611.197 290.734)"/>
            <rect id="Rectangle_25" data-name="Rectangle 25" class="cls-11" width="13.358" height="72.326" transform="translate(626.859 304.199)"/>
            <rect id="Rectangle_26" data-name="Rectangle 26" class="cls-11" width="15.068" height="81.345" transform="translate(638.694 295.178)"/>
            <rect id="Rectangle_27" data-name="Rectangle 27" class="cls-11" width="15.069" height="63.975" transform="translate(653.761 312.548)"/>
            <rect id="Rectangle_28" data-name="Rectangle 28" class="cls-11" width="15.069" height="72.326" transform="translate(664.889 304.199)"/>
            <rect id="Rectangle_29" data-name="Rectangle 29" class="cls-11" width="15.068" height="81.345" transform="translate(679.957 295.178)"/>
            <rect id="Rectangle_30" data-name="Rectangle 30" class="cls-11" width="15.069" height="59.836" transform="translate(694.605 316.689)"/>
            <rect id="Rectangle_31" data-name="Rectangle 31" class="cls-11" width="15.068" height="75.737" transform="translate(706.685 300.786)"/>
            <rect id="Rectangle_32" data-name="Rectangle 32" class="cls-10" width="57.23" height="325.021" transform="translate(553.967 189.277)"/>
            <rect id="Rectangle_33" data-name="Rectangle 33" class="cls-10" width="175.305" height="13.75" transform="translate(564.104 258.954)"/>
            <rect id="Rectangle_34" data-name="Rectangle 34" class="cls-10" width="175.305" height="13.75" transform="translate(564.104 376.523)"/>
            <path id="Path_19" data-name="Path 19" class="cls-9" d="M686.352,160.616v7.04A21.1,21.1,0,0,0,665.26,146.55H177.54a21.11,21.11,0,0,0-21.106,21.106v-7.04a21.112,21.112,0,0,1,21.106-21.107H665.26a21.1,21.1,0,0,1,21.092,21.107" transform="translate(52.847 47.13)"/>
            <path id="Path_20" data-name="Path 20" class="cls-12" d="M156.434,167.656v-7.04a21.111,21.111,0,0,1,21.106-21.107H665.26a21.1,21.1,0,0,1,21.092,21.107V260.759" transform="translate(52.847 47.13)"/>
            <path id="Path_21" data-name="Path 21" class="cls-12" d="M686.352,280.232V431.716a21.1,21.1,0,0,1-21.092,21.107H177.54a21.112,21.112,0,0,1-21.106-21.107V177.991" transform="translate(52.847 60.13)"/>
            <path id="Path_22" data-name="Path 22" class="cls-12" d="M271.221,410.882l-114.618.063-.11-199.1a27.338,27.338,0,0,1,27.324-27.353l59.941-.032a27.34,27.34,0,0,1,27.355,27.324Z" transform="translate(52.867 62.314)"/>
            <path id="Path_23" data-name="Path 23" class="cls-13" d="M426.575,421.293H336.5l-9.3-7.941H233.825c-32.682,0-55.27-30.148-49.192-59.959a50.7,50.7,0,0,1,4.658-13.164l20.434-39.6,15.166-29.368h75.415l8.811,29.368,9.164,30.513,58.767,11.852a58.958,58.958,0,0,1,47.009,52.139Z" transform="translate(62.039 91.639)"/>
            <path id="Path_24" data-name="Path 24" class="cls-14" d="M400.2,345.977H184.384a50.639,50.639,0,0,1,4.658-13.164l20.434-39.6h99.391l9.163,30.513L376.8,335.577a58.662,58.662,0,0,1,23.4,10.4" transform="translate(62.29 99.055)"/>
            <path id="Path_25" data-name="Path 25" class="cls-15" d="M368.157,376.44h0A41.04,41.04,0,0,0,335.3,336.224l-17.555-3.571" transform="translate(107.343 112.379)"/>
            <path id="Path_26" data-name="Path 26" class="cls-14" d="M233.849,413.342H327.2l.13,7.969h35.981l-13.222-32.619H256.706c-37.561,0-61.777-39.754-44.54-73.114l22.888-44.325H224.891l-35.614,68.974c-17.206,33.36,7.012,73.114,44.572,73.114" transform="translate(62.036 91.637)"/>
            <path id="Path_27" data-name="Path 27" class="cls-15" d="M357.712,410.118,344.492,377.5H249.31c-37.523,0-61.149-40.417-42.738-73.114" transform="translate(67.629 102.829)"/>
            <line id="Line_7" data-name="Line 7" class="cls-15" y1="35.254" x2="33.023" transform="translate(389.235 469.738)"/>
            <path id="Path_28" data-name="Path 28" class="cls-16" d="M420.739,241.111v.28a25.646,25.646,0,0,1-32.14,24.576l-10.767-2.8-4.282-1.121-51.933-9.626-37.6-6.985-12.849-2.381,13.529-65.061,99.783,33.161,3.6,1.081,14.368,4.3a25.674,25.674,0,0,1,18.292,24.576" transform="translate(91.607 60.13)"/>
            <path id="Path_29" data-name="Path 29" class="cls-17" d="M318.372,247.439l-37.6-6.985,15.093-47.723c16.351,24.335,19.357,37.316,22.51,54.708" transform="translate(94.851 65.11)"/>
            <path id="Path_30" data-name="Path 30" class="cls-16" d="M251.98,231.583l58.464-26.658,1.216,127.491a21.5,21.5,0,0,1-15.394,21.132L248.8,355.9Z" transform="translate(84.051 69.229)"/>
            <path id="Path_31" data-name="Path 31" class="cls-18" d="M282.389,243.4l3.082,94.952-22.418-76.225Z" transform="translate(88.866 82.226)"/>
            <path id="Path_32" data-name="Path 32" class="cls-19" d="M200.767,261.042c14.7,26.136,29.832,59.473,48.756,74.8a132.23,132.23,0,0,0,13.008,9.507l5.825-12.736,25.986-56.831,7.605-16.629,10.443-22.846,8.209-17.959a30.851,30.851,0,0,0-18.38-42.192,25.26,25.26,0,0,0-3.379-.965l-23.451-4.86-45.362,8.451c-.816.12-1.691.332-2.535.512-27.4,6.067-40.533,15.091-45.453,25.835-8.48,18.623,6.052,33.515,18.728,55.909" transform="translate(60.643 57.544)"/>
            <path id="Path_33" data-name="Path 33" class="cls-20" d="M255.349,179.18l15.021,36.259,10.059-2.175Z" transform="translate(86.264 60.532)"/>
            <path id="Path_34" data-name="Path 34" class="cls-16" d="M247.874,166.568l48.225,81.36,11.75-17.958c7.755-16.962-.9-40.533-15.285-48.127-4.174-2.2-44.69-15.275-44.69-15.275" transform="translate(83.738 56.271)"/>
            <path id="Path_35" data-name="Path 35" class="cls-18" d="M197.559,348.1l116.018-5.745-24.7-87.757-84.807-16.542Z" transform="translate(66.74 80.421)"/>
            <path id="Path_36" data-name="Path 36" class="cls-18" d="M300.255,248.3l-3.583,7.825-4.023,8.806-6.483,14.149-19.512,42.686-11.908,3.842s-2.622-.159-6.925-.6c-4.323-3.5-9.206-9.046-14.348-15.81-17.352-22.874-37.624-59.757-48.951-79.931,53.854-23.433,76.067-30.718,114.312-24.954Z" transform="translate(62.336 68.389)"/>
            <path id="Path_37" data-name="Path 37" class="cls-18" d="M292.558,256.454c-3.4,10.887-13.128,19.072-30.139,22.154a70.815,70.815,0,0,1-7.606,1.019l6.545-24.455,13.729-51.332c15.429,18.652,22.074,38.044,17.471,52.614" transform="translate(86.083 68.862)"/>
            <path id="Path_38" data-name="Path 38" class="cls-21" d="M303.944,251.9c-3.4,10.887-13.128,19.072-30.139,22.154l-19.512,42.686-11.908,3.842s-2.622-.159-6.925-.6c-4.322-3.5-9.206-9.046-14.35-15.812l27.978-86.854,3.627,16.522a21.379,21.379,0,0,0,20.029,16.779l11.567.48Z" transform="translate(74.697 73.416)"/>
            <path id="Path_39" data-name="Path 39" class="cls-16" d="M265.489,234.641l-7.365,111.952-47.81,2.86-12.208.741a19.222,19.222,0,0,1-19.152-25.916l24.4-65.242,7.425-19.832,22.914-1.9,31.78-2.662Z" transform="translate(60.038 79.268)"/>
            <path id="Path_40" data-name="Path 40" class="cls-19" d="M266.884,155.864l-1.476,47.2L224.772,193.8l4.367-64.384Z" transform="translate(75.934 43.72)"/>
            <path id="Path_41" data-name="Path 41" class="cls-16" d="M265.553,257.058a64.769,64.769,0,0,1-15.529,38.966c-.661.82-1.381,1.62-2.1,2.422a95.105,95.105,0,0,1-15.469,13.388c-1.841,1.322-3.762,2.582-5.763,3.842,0,0-11.408-14.83-23.255-34.222-7.184-11.786-14.549-25.276-19.572-38.1-4.123-10.486-6.684-20.533-6.364-28.9.9-22.754,33.361-29.6,33.361-29.6l1.781-.961,1.8-.961L241.6,168.283l-.5,7.224c17.531,32.441,25.816,59.2,24.455,81.551" transform="translate(59.954 56.85)"/>
            <path id="Path_42" data-name="Path 42" class="cls-17" d="M210.315,359.532l-12.208.741a19.222,19.222,0,0,1-19.152-25.916l24.4-65.242c-7.184-11.788-14.549-25.277-19.571-38.1l1.5-6.083a22.446,22.446,0,0,1,18.833-19.693c11.446-1.782,16.217,1.951,21.04,12.481,28.205,61.58,10.55,101.661-14.836,141.816" transform="translate(60.038 69.19)"/>
            <path id="Path_43" data-name="Path 43" class="cls-20" d="M261.508,165.161l-.4,12.737c-17.307-8.265-22.161-20.386-22.161-20.386Z" transform="translate(80.723 53.212)"/>
            <path id="Path_44" data-name="Path 44" class="cls-19" d="M233.535,176.13s28.955,10.735,38.92,13.251c10.724,2.709,20.968-4.31,24.608-15,4.915-14.426,5.529-30.179.918-47.306a45.527,45.527,0,0,0-16.669-24.6A44.888,44.888,0,0,0,269.5,96.047l-.043-.02-2.423-.8-.243-.094c-1.216-.363-2.443-.653-3.69-.9a44.712,44.712,0,0,0-9.109-.965,25.747,25.747,0,0,0-25.772,28.913l1.314,10.735Z" transform="translate(77.036 31.508)"/>
            <path id="Path_45" data-name="Path 45" class="cls-22" d="M200.547,130.457c-.17,5.052,4.076,16.778,6.5,20.533l1.821-9.135s-.067,8.451,3.108,14.185c.035,0,19.051,9.67,22.8,23.4,1.74-7.1,7.034-14.228,13.008-33.17l12.8-50c-40-12.39-59.215,8.38-60.034,34.184" transform="translate(67.748 31.28)"/>
            <path id="Path_46" data-name="Path 46" class="cls-22" d="M236.071,154.9c14.94-1.458,22.889-27.248,11.121-46.6,0,0-11.747-22.205-28.144-6.993C183.36,134.416,236.071,154.9,236.071,154.9" transform="translate(69.812 32.424)"/>
            <path id="Path_47" data-name="Path 47" class="cls-19" d="M247.25,144.793c-19.472-48.152-57.791,3.509-9.4,13Z" transform="translate(72.421 42.079)"/>
            <path id="Path_48" data-name="Path 48" class="cls-23" d="M232.587,144.6a10.75,10.75,0,1,1-9.073,2.352" transform="translate(74.229 48.851)"/>
            <path id="Path_49" data-name="Path 49" class="cls-22" d="M256.647,134.135c.417,3.953-.706,7.313-2.51,7.5s-3.6-2.862-4.017-6.814.706-7.314,2.51-7.5,3.6,2.86,4.018,6.814" transform="translate(84.468 43.01)"/>
            <path id="Path_50" data-name="Path 50" class="cls-22" d="M247.872,119.175c7.619-3.723,10,.161,4.6,3.889-5.812,4.009-14.081.741-4.6-3.889" transform="translate(82.281 39.751)"/>
            <path id="Path_51" data-name="Path 51" class="cls-22" d="M278.126,131.617c.3,3.964-.922,7.288-2.731,7.425s-3.514-2.966-3.815-6.929.923-7.288,2.73-7.426,3.516,2.966,3.815,6.93" transform="translate(91.732 42.121)"/>
            <path id="Path_52" data-name="Path 52" class="cls-22" d="M276.885,111.744c8.447-.748,9.283,3.733,2.9,5.279-6.862,1.663-13.414-4.349-2.9-5.279" transform="translate(91.678 37.722)"/>
            <path id="Path_53" data-name="Path 53" class="cls-19" d="M266.535,124.305c2.831,7.107,6.579,11.512,10.012,15.414a8.434,8.434,0,0,1-8.126,13.8l-2.123-.458" transform="translate(89.962 41.993)"/>
            <path id="Path_54" data-name="Path 54" class="cls-24" d="M266.535,124.305c2.831,7.107,6.579,11.512,10.012,15.414a8.434,8.434,0,0,1-8.126,13.8l-2.123-.458" transform="translate(89.962 41.993)"/>
            <path id="Path_55" data-name="Path 55" class="cls-10" d="M273.427,151.026c-11.326-1.655-12.436-1.651-15.021-1.837-3.747-.268,3.108,11.239,9.446,9.349s9.509-6.938,5.575-7.512" transform="translate(86.936 50.398)"/>
            <path id="Path_56" data-name="Path 56" class="cls-22" d="M234.487,95.68c56.3-33.467,84.609,20.941,35.705,28.678l6.339-15.409s-12.973,20.91-37.392,19.649Z" transform="translate(79.216 28.68)"/>
            <path id="Path_57" data-name="Path 57" class="cls-19" d="M216.089,273.636l98.286,49.232s-65.908,19.6-122.241-2.7Z" transform="translate(64.908 92.441)"/>
            <path id="Path_58" data-name="Path 58" class="cls-16" d="M222.974,300.067c-.5,1.821-1.041,3.623-1.621,5.424a135.722,135.722,0,0,1-23.294,43.648,31.917,31.917,0,0,1-13.869-7.545c-.48-.46-.959-.919-1.421-1.441-5.2-5.544-9.366-14.35-7.845-28.1,2.882-25.916,3.543-104.226,3.543-104.226a22.453,22.453,0,0,1,44.068-3.042c7.445,31.3,8.986,64.5.44,95.28" transform="translate(58.986 63.473)"/>
            <path id="Path_59" data-name="Path 59" class="cls-9" d="M280.8,240.92H384.86a9.126,9.126,0,0,1,8.854,11.331l-17.737,71.174a9.127,9.127,0,0,1-8.855,6.918H263.065a9.124,9.124,0,0,1-8.854-11.331l17.737-71.174a9.124,9.124,0,0,1,8.854-6.918" transform="translate(85.786 81.389)"/>
            <path id="Path_60" data-name="Path 60" class="cls-12" d="M286,240.92H390.053a9.124,9.124,0,0,1,8.854,11.331l-17.736,71.174a9.127,9.127,0,0,1-8.855,6.918H268.26a9.124,9.124,0,0,1-8.854-11.331l17.737-71.174A9.124,9.124,0,0,1,286,240.92Z" transform="translate(87.541 81.389)"/>
            <path id="Path_61" data-name="Path 61" class="cls-10" d="M277.387,271.813H374.2l13.354,48.094H290.741Z" transform="translate(93.709 91.825)"/>
            <path id="Path_62" data-name="Path 62" class="cls-12" d="M290.742,319.906l-13.354-48.093H374.2l8.262,29.757" transform="translate(93.709 91.825)"/>
            <path id="Path_63" data-name="Path 63" class="cls-19" d="M348,238.859,384.251,147.3l14.625-.452s5.616,49.608-7.446,105.559A22.809,22.809,0,1,1,348,238.859" transform="translate(117.021 49.609)"/>
            <path id="Path_64" data-name="Path 64" class="cls-19" d="M373.672,156.125l6.613-20.137,25.048,11.6c1.188,20.322-17.045,26.039-17.045,26.039Z" transform="translate(126.236 45.94)"/>
            <path id="Path_65" data-name="Path 65" class="cls-19" d="M380.8,137.139l12.68,7.639,8.166-16.451,10.978-10.5a3.678,3.678,0,0,0-4.784-5.573l-13.654,10.5Z" transform="translate(128.645 37.663)"/>
            <path id="Path_66" data-name="Path 66" class="cls-19" d="M391.324,123.2l10.859.661a4.287,4.287,0,0,1,5.333.051l2.316,1.877a4.286,4.286,0,0,1,1.121,5.272l-.448.883,2.42,5.12a3.559,3.559,0,0,1-1,4.3l.47,2.124a6.782,6.782,0,0,1-1.866,6.293l-3.763,3.7a5.65,5.65,0,0,1-7.056.7l-21.1-13.8Z" transform="translate(127.906 41.537)"/>
            <path id="Path_67" data-name="Path 67" class="cls-20" d="M407.193,137.441a3.527,3.527,0,0,0,1.3-2.871l-15.864,14.161,2.411,1.577a5.488,5.488,0,0,0,.641.344l11.834-11.738Z" transform="translate(132.641 45.461)"/>
            <path id="Path_68" data-name="Path 68" class="cls-20" d="M407.718,132.527l-.88-1.864.448-.882a4.269,4.269,0,0,0,.309-3.044l-18.124,21.873,1.838,1.2Z" transform="translate(131.573 42.815)"/>
            <path id="Path_69" data-name="Path 69" class="cls-20" d="M384.929,127.389l3.441,16.18,9.928-18.134-13.109,1.58Z" transform="translate(130.039 42.375)"/>
            <path id="Path_70" data-name="Path 70" class="cls-20" d="M375.43,160.631l5.441-29.847,14.854-5.037a4,4,0,0,1,3.076,7.325l-7.579,4.24s13.941,17.507-5.916,30.8Z" transform="translate(126.83 42.427)"/>
            <path id="Path_71" data-name="Path 71" class="cls-19" d="M373.672,160.05l6.169-30.478,14.576-4.985a4.009,4.009,0,0,1,3.3,7.263l-9.481,5.484s14.309,19.8-3.155,32.03Z" transform="translate(126.236 42.015)"/>
            <path id="Path_72" data-name="Path 72" class="cls-12" d="M405.368,318.761H387.539l-23.167,86.487h5Z" transform="translate(123.094 107.686)"/>
            <path id="Path_73" data-name="Path 73" class="cls-5" d="M155.221,326.723H489.26V307.762H155.221" transform="translate(52.438 103.97)"/>
            <path id="Path_74" data-name="Path 74" class="cls-12" d="M155.221,326.723H489.26V307.762H155.221" transform="translate(52.438 103.97)"/>
            <g id="Group_26" data-name="Group 26" class="cls-25" transform="translate(209.284 473.152)">
              <g id="Group_25" data-name="Group 25">
                <g id="Group_24" data-name="Group 24" class="cls-26">
                  <path id="Path_75" data-name="Path 75" class="cls-18" d="M665.073,393.47H177.718a21.283,21.283,0,0,1-21.282-21.284V353.672H686.357v18.514a21.284,21.284,0,0,1-21.283,21.284" transform="translate(-156.436 -353.672)"/>
                </g>
              </g>
            </g>
            <path id="Path_76" data-name="Path 76" class="cls-27" d="M187.915,372.4l-13.7,8.732a1.5,1.5,0,0,1-2.309-1.267V362.4a1.5,1.5,0,0,1,2.309-1.267l13.7,8.732a1.5,1.5,0,0,1,0,2.535" transform="translate(58.074 121.919)"/>
            <line id="Line_8" data-name="Line 8" class="cls-28" x2="341.673" transform="translate(375.51 493.05)"/>
            <line id="Line_9" data-name="Line 9" class="cls-29" x2="147.802" transform="translate(258.319 493.05)"/>
            <path id="Path_77" data-name="Path 77" class="cls-30" d="M319.939,371.847a13.071,13.071,0,1,1-13.072-13.072,13.072,13.072,0,0,1,13.072,13.072" transform="translate(99.252 121.204)"/>
            <path id="Path_78" data-name="Path 78" class="cls-27" d="M311.633,370.172a6.439,6.439,0,1,1-6.439-6.439,6.439,6.439,0,0,1,6.439,6.439" transform="translate(100.927 122.878)"/>
            <rect id="Rectangle_36" data-name="Rectangle 36" class="cls-10" width="636.626" height="17.071" transform="translate(146.361 522.646)"/>
            <path id="Path_79" data-name="Path 79" class="cls-31" d="M726.886,393.587v11.271a21.808,21.808,0,0,1-21.809,21.793H131.21A21.808,21.808,0,0,1,109.4,404.858V393.587H340.958v3.375a9.79,9.79,0,0,0,9.79,9.79H485.541a9.79,9.79,0,0,0,9.789-9.79v-3.375Z" transform="translate(36.959 132.964)"/>
            <path id="Path_80" data-name="Path 80" class="cls-9" d="M741.194,393.587v11.271a21.809,21.809,0,0,1-21.809,21.793H145.519a21.808,21.808,0,0,1-21.809-21.793V393.587H355.266v3.375a9.791,9.791,0,0,0,9.79,9.79H499.849a9.79,9.79,0,0,0,9.789-9.79v-3.375Z" transform="translate(41.792 132.964)"/>
            <g id="Group_29" data-name="Group 29" class="cls-32" transform="translate(419.566 169.666)">
              <g id="Group_28" data-name="Group 28">
                <g id="Group_27" data-name="Group 27" class="cls-33">
                  <path id="Path_81" data-name="Path 81" class="cls-9" d="M633.251,128.989v65.553a13.2,13.2,0,0,1-13.2,13.191H326.822a13.2,13.2,0,0,1-13.2-13.191V126.822H623.111a24.663,24.663,0,0,1,10.141,2.167" transform="translate(-313.618 -126.822)"/>
                </g>
              </g>
            </g>
            <g id="Group_32" data-name="Group 32" class="cls-34" transform="translate(437.378 74.75)">
              <g id="Group_31" data-name="Group 31">
                <g id="Group_30" data-name="Group 30" class="cls-35">
                  <path id="Path_82" data-name="Path 82" class="cls-10" d="M633.366,210.792H340.134a13.2,13.2,0,0,1-13.2-13.2V69.076a13.2,13.2,0,0,1,13.2-13.2H633.366a13.2,13.2,0,0,1,13.2,13.2V197.589a13.2,13.2,0,0,1-13.2,13.2" transform="translate(-326.932 -55.874)"/>
                </g>
              </g>
            </g>
            <path id="Path_83" data-name="Path 83" class="cls-12" d="M326.932,130.272V70.945A15.072,15.072,0,0,1,342,55.874H631.5a15.071,15.071,0,0,1,15.071,15.071V195.72A15.072,15.072,0,0,1,631.5,210.792H342a15.072,15.072,0,0,1-15.072-15.072V176.846" transform="translate(110.446 18.876)"/>
            <line id="Line_10" data-name="Line 10" class="cls-36" x2="252.218" transform="translate(471.088 99.064)"/>
            <line id="Line_11" data-name="Line 11" class="cls-36" y2="119.028" transform="translate(506.521 91.697)"/>
            <line id="Line_12" data-name="Line 12" class="cls-36" y2="119.028" transform="translate(535.116 91.697)"/>
            <line id="Line_13" data-name="Line 13" class="cls-36" y2="119.028" transform="translate(563.711 91.697)"/>
            <line id="Line_14" data-name="Line 14" class="cls-36" y2="119.028" transform="translate(592.305 91.697)"/>
            <line id="Line_15" data-name="Line 15" class="cls-36" y2="119.028" transform="translate(620.9 91.697)"/>
            <line id="Line_16" data-name="Line 16" class="cls-36" y2="119.028" transform="translate(649.496 91.697)"/>
            <line id="Line_17" data-name="Line 17" class="cls-36" y2="119.028" transform="translate(678.091 91.697)"/>
            <line id="Line_18" data-name="Line 18" class="cls-36" y2="119.028" transform="translate(706.686 91.697)"/>
            <line id="Line_19" data-name="Line 19" class="cls-36" x2="252.218" transform="translate(471.088 125.029)"/>
            <line id="Line_20" data-name="Line 20" class="cls-36" x2="252.218" transform="translate(471.088 176.96)"/>
            <line id="Line_21" data-name="Line 21" class="cls-36" x2="252.218" transform="translate(471.088 202.926)"/>
            <path id="Path_84" data-name="Path 84" class="cls-37" d="M357.622,125.888c29.733-61.513,55.086-66.758,80.719-22.328,26.147,45.32,78.743,128.726,151.8,22.328" transform="translate(120.814 25.107)"/>
            <line id="Line_22" data-name="Line 22" class="cls-12" x2="253.253" transform="translate(470.052 150.995)"/>
            <line id="Line_23" data-name="Line 23" class="cls-12" y2="119.682" transform="translate(478.436 91.697)"/>
          </g>
        </g>
        <text id="X" class="cls-38" transform="translate(713.362 159.654)"><tspan x="0" y="0">X</tspan></text>
        <text id="Y" class="cls-39" transform="translate(469.616 103.932)"><tspan x="0" y="0">Y</tspan></text>
        <text id="_0" data-name="0" class="cls-39" transform="translate(469.653 160.654)"><tspan x="0" y="0">0</tspan></text>
        <g id="Group_48" data-name="Group 48">
          <g id="Group_47" data-name="Group 47" class="cls-4">
            <path id="Path_85" data-name="Path 85" class="cls-12" d="M355.85,71.7l2.371-3.155,2.372,3.155" transform="translate(120.215 23.155)"/>
            <path id="Path_86" data-name="Path 86" class="cls-12" d="M538.3,111.093l3.155,2.371-3.155,2.372" transform="translate(181.851 37.53)"/>
            <g id="Group_37" data-name="Group 37" class="cls-7" transform="translate(132.722 76.925)">
              <g id="Group_36" data-name="Group 36">
                <g id="Group_35" data-name="Group 35" class="cls-40">
                  <path id="Path_87" data-name="Path 87" class="cls-9" d="M224.544,57.5H111.17A11.963,11.963,0,0,0,99.207,69.463v35.278A11.964,11.964,0,0,0,111.17,116.7h71.4l32.718,15.529L209.154,116.7h15.39a11.964,11.964,0,0,0,11.963-11.963V69.463A11.963,11.963,0,0,0,224.544,57.5" transform="translate(-99.207 -57.5)"/>
                </g>
              </g>
            </g>
            <g id="Group_40" data-name="Group 40" class="cls-34" transform="translate(145.295 64.352)">
              <g id="Group_39" data-name="Group 39">
                <g id="Group_38" data-name="Group 38" class="cls-41">
                  <path id="Path_88" data-name="Path 88" class="cls-10" d="M233.942,48.1H120.568a11.962,11.962,0,0,0-11.963,11.963V95.343a11.962,11.962,0,0,0,11.963,11.963h71.4l32.718,15.529-6.138-15.529h15.39A11.963,11.963,0,0,0,245.9,95.343V60.065A11.963,11.963,0,0,0,233.942,48.1" transform="translate(-108.605 -48.102)"/>
                </g>
              </g>
            </g>
            <path id="Path_89" data-name="Path 89" class="cls-11" d="M147.435,61h-27.9a3,3,0,1,0,0,6.006h27.9a3,3,0,1,0,0-6.006" transform="translate(39.368 20.606)"/>
            <path id="Path_90" data-name="Path 90" class="cls-11" d="M214.8,61H150.608a3,3,0,1,0,0,6.006H214.8a3,3,0,1,0,0-6.006" transform="translate(49.865 20.606)"/>
            <path id="Path_91" data-name="Path 91" class="cls-11" d="M187.584,79.963H202.3a3,3,0,1,0,0-6.005H187.584a3,3,0,1,0,0,6.005" transform="translate(62.356 24.985)"/>
            <path id="Path_92" data-name="Path 92" class="cls-11" d="M119.537,79.963H196.9a3,3,0,0,0,0-6.005H119.537a3,3,0,1,0,0,6.005" transform="translate(39.368 24.985)"/>
            <path id="Path_93" data-name="Path 93" class="cls-42" d="M689.348,273.553a82.067,82.067,0,0,0-8.514-28.066c-48.39,21.377-35.408-.312-5.838-9.62-9.156-12.958-22.292-23.045-38.751-26.893-19.939-4.646-41.918,11.192-55.171,33.08,24.144,7.915,21.6,39.331-5.124,9.652a76.5,76.5,0,0,0-7.168,28.251c-1.038,23.325,11.3,45.149,46.4,52.57,56.535,12.022,78.205-22.945,74.162-58.974m-35.677-9.1c14.647-.709-4.531,17.3-16.082,10.182-7.216-4.459,1.437-9.473,16.082-10.182" transform="translate(192.129 70.322)"/>
            <path id="Path_94" data-name="Path 94" class="cls-43" d="M601.5,471.387c-2.027-194.821,23.7-262.614,23.7-262.614" transform="translate(203.164 70.529)"/>
            <path id="Path_95" data-name="Path 95" class="cls-44" d="M608.338,269.028c-1.026,33.336-13.018,17.328-8.206-5.43-17.324-9.655-40.3-11.875-62.844.055-18.214,9.655-24.587,25.256-22.932,41.058,30.694-7.779,42.306,10.549,1.338,7.406,8.882,34.274,53.153,65.147,93.827,32.3,29.82-24.08,22.138-57.137-1.183-75.391m-36.319,51.564c-15.546,7.751-18.831-4.217-4.791-8.843,9.966-3.286,20.33,1.058,4.791,8.843" transform="translate(173.678 86.318)"/>
            <path id="Path_96" data-name="Path 96" class="cls-43" d="M625.019,423.209C609.064,306.3,531.427,261.592,531.427,261.592" transform="translate(179.53 88.373)"/>
            <path id="Path_97" data-name="Path 97" class="cls-44" d="M694.449,353.176c19.369-18.609,25.072-53.033,14.253-65.242-10.216-11.543-25-15.032-40.03-13.269.28,22.477-19.072,29.367-10.5,2.088-35.909,9.866-67.3,46.805-33.022,72.73,26.1,19.716,47.054,19.067,62.079,9.421-47.739-10.447-21.051-19.713,7.215-5.729M687.3,315.8c13.412,6.309,10.759,10.414-4.987,9.2-15.714-1.205-12.362-17.3,4.987-9.2" transform="translate(206.203 92.643)"/>
            <path id="Path_98" data-name="Path 98" class="cls-43" d="M601.385,428.729C614.5,312.69,711.738,284.486,711.738,284.486" transform="translate(203.164 96.107)"/>
            <path id="Path_99" data-name="Path 99" class="cls-16" d="M650.151,450.684H580.517a20.325,20.325,0,0,1-20.324-20.324V366.24H670.477v64.119a20.325,20.325,0,0,1-20.326,20.324" transform="translate(189.248 123.725)"/>
            <path id="Path_100" data-name="Path 100" class="cls-45" d="M560.193,378.056c9.184,0,9.184,11.618,18.37,11.618s9.19-11.618,18.378-11.618,9.191,11.618,18.382,11.618,9.188-11.618,18.376-11.618,9.193,11.618,18.388,11.618,9.2-11.618,18.391-11.618" transform="translate(189.248 127.717)"/>
            <path id="Path_101" data-name="Path 101" class="cls-16" d="M117.95,277.505,50.64,213.078,108.361,222Z" transform="translate(17.107 71.983)"/>
            <g id="Group_43" data-name="Group 43" class="cls-32" transform="translate(527.811 279.594)">
              <g id="Group_42" data-name="Group 42">
                <g id="Group_41" data-name="Group 41" class="cls-46">
                  <path id="Path_102" data-name="Path 102" class="cls-9" d="M407.731,208.991H507.57a13.2,13.2,0,0,1,13.2,13.2v81.48a13.2,13.2,0,0,1-13.2,13.2H407.731a13.2,13.2,0,0,1-13.2-13.2v-81.48a13.2,13.2,0,0,1,13.2-13.2" transform="translate(-394.529 -208.991)"/>
                </g>
              </g>
            </g>
            <g id="Group_46" data-name="Group 46" class="cls-34" transform="translate(544.258 263.691)">
              <g id="Group_45" data-name="Group 45">
                <g id="Group_44" data-name="Group 44" class="cls-46">
                  <path id="Path_103" data-name="Path 103" class="cls-10" d="M420.025,197.105h99.838a13.2,13.2,0,0,1,13.2,13.2v81.48a13.2,13.2,0,0,1-13.2,13.2H420.025a13.2,13.2,0,0,1-13.2-13.2v-81.48a13.2,13.2,0,0,1,13.2-13.2" transform="translate(-406.823 -197.104)"/>
                </g>
              </g>
            </g>
            <path id="Path_104" data-name="Path 104" class="cls-12" d="M533.066,277.624v12.295a15.072,15.072,0,0,1-15.072,15.072h-96.1a15.072,15.072,0,0,1-15.071-15.072V212.176A15.072,15.072,0,0,1,421.894,197.1h96.1a15.072,15.072,0,0,1,15.072,15.072V231.05" transform="translate(137.435 66.587)"/>
            <line id="Line_24" data-name="Line 24" class="cls-47" y1="1.256" x2="0.456" transform="translate(584.844 325.171)"/>
            <line id="Line_25" data-name="Line 25" class="cls-48" y1="42.872" x2="15.566" transform="translate(585.739 281.091)"/>
            <line id="Line_26" data-name="Line 26" class="cls-47" y1="1.258" x2="0.456" transform="translate(601.524 279.229)"/>
            <path id="Path_105" data-name="Path 105" class="cls-47" d="M423.019,251.793l-1.256-.458,1.211-.566" transform="translate(142.483 84.716)"/>
            <path id="Path_106" data-name="Path 106" class="cls-49" d="M423.584,252.485,441.746,244l45.305,16.45" transform="translate(143.098 82.429)"/>
            <path id="Path_107" data-name="Path 107" class="cls-47" d="M471.5,256.467l1.256.456-1.211.567" transform="translate(159.285 86.641)"/>
            <path id="Path_108" data-name="Path 108" class="cls-49" d="M486.645,259.67l-18.162,8.486-45.306-16.45" transform="translate(142.96 85.033)"/>
            <rect id="Rectangle_44" data-name="Rectangle 44" class="cls-50" width="50.212" height="50.213" transform="translate(564.246 336.051) rotate(-70.044)"/>
            <path id="Path_109" data-name="Path 109" class="cls-51" d="M457.043,278.337l20.578-9.567,17.135-47.2-20.576,9.568Z" transform="translate(154.401 74.852)"/>
            <path id="Path_110" data-name="Path 110" class="cls-52" d="M481.77,235.479l-47.2-17.136,20.6-9.624,47.2,17.136Z" transform="translate(146.81 70.511)"/>
          </g>
        </g>
        <text id="b" class="cls-53" transform="translate(610.492 293.136) rotate(15.448)"><tspan x="0" y="0">b</tspan></text>
        <text id="a" class="cls-54" transform="translate(593.357 320.155) rotate(15.448)"><tspan x="0" y="0">a</tspan></text>
        <text id="c" class="cls-55" transform="translate(626.524 326.293) rotate(8.34)"><tspan x="0" y="0">c</tspan></text>
        <g id="Group_50" data-name="Group 50">
          <g id="Group_49" data-name="Group 49" class="cls-4">
            <path id="Path_111" data-name="Path 111" class="cls-16" d="M662.1,156.845,609.9,80.732l-17.583,44.891Z" transform="translate(200.099 27.273)"/>
            <path id="Path_112" data-name="Path 112" class="cls-56" d="M662.086,181.325l-40.311,13.2a21.208,21.208,0,0,1,40.311-13.2" transform="translate(209.694 56.319)"/>
            <path id="Path_113" data-name="Path 113" class="cls-44" d="M285.309,63.063l22.756-16.047a13.923,13.923,0,1,1-22.756,16.047" transform="translate(96.385 15.883)"/>
            <path id="Path_114" data-name="Path 114" class="cls-44" d="M64.036,314.459a6.7,6.7,0,1,1-6.7-6.7,6.7,6.7,0,0,1,6.7,6.7" transform="translate(17.108 103.97)"/>
            <path id="Path_115" data-name="Path 115" class="cls-17" d="M682.511,375.051a6.7,6.7,0,1,1-6.7-6.7,6.7,6.7,0,0,1,6.7,6.7" transform="translate(226.045 124.439)"/>
            <path id="Path_116" data-name="Path 116" class="cls-56" d="M99.117,143.049a11.66,11.66,0,1,1-11.662-11.658,11.661,11.661,0,0,1,11.662,11.658" transform="translate(25.606 44.387)"/>
            <path id="Path_117" data-name="Path 117" class="cls-10" d="M232.678,32.565a4.37,4.37,0,1,1-4.371-4.371,4.37,4.37,0,0,1,4.371,4.371" transform="translate(75.652 9.525)"/>
            <path id="Path_118" data-name="Path 118" class="cls-10" d="M401.466,29.275a4.417,4.417,0,1,0-4.417,4.417,4.417,4.417,0,0,0,4.417-4.417" transform="translate(132.641 8.398)"/>
            <path id="Path_119" data-name="Path 119" class="cls-10" d="M107.261,349.6a8.227,8.227,0,1,1-8.226-8.228,8.226,8.226,0,0,1,8.226,8.228" transform="translate(30.677 115.325)"/>
            <path id="Path_120" data-name="Path 120" class="cls-10" d="M604.735,157.265A6.632,6.632,0,1,0,598.1,163.9a6.633,6.633,0,0,0,6.633-6.633" transform="translate(199.814 50.887)"/>
            <path id="Path_121" data-name="Path 121" class="cls-10" d="M82.849,186.887a4.1,4.1,0,1,1-4.1-4.1,4.1,4.1,0,0,1,4.1,4.1" transform="translate(25.22 61.751)"/>
            <path id="Path_122" data-name="Path 122" class="cls-10" d="M664.222,213.636a3.2,3.2,0,1,0-3.2,3.2,3.2,3.2,0,0,0,3.2-3.2" transform="translate(222.232 71.092)"/>
            <path id="Path_123" data-name="Path 123" class="cls-10" d="M75.591,266.979a5.365,5.365,0,1,1-5.365-5.365,5.365,5.365,0,0,1,5.365,5.365" transform="translate(21.912 88.38)"/>
            <path id="Path_124" data-name="Path 124" class="cls-10" d="M309.822,105.366a7.016,7.016,0,1,0-7.016,7.016,7.016,7.016,0,0,0,7.016-7.016" transform="translate(99.926 33.225)"/>
            <rect id="Rectangle_46" data-name="Rectangle 46" class="cls-9" width="32.889" height="7.81" transform="translate(113.472 214.906)"/>
            <rect id="Rectangle_47" data-name="Rectangle 47" class="cls-9" width="32.889" height="7.81" transform="translate(113.472 227.551)"/>
            <rect id="Rectangle_48" data-name="Rectangle 48" class="cls-9" width="32.888" height="7.81" transform="translate(320.781 47.284)"/>
            <rect id="Rectangle_49" data-name="Rectangle 49" class="cls-9" width="7.81" height="32.888" transform="translate(333.321 34.745)"/>
            <rect id="Rectangle_50" data-name="Rectangle 50" class="cls-9" width="32.889" height="7.811" transform="matrix(0.707, -0.707, 0.707, 0.707, 776.893, 253.406)"/>
            <rect id="Rectangle_51" data-name="Rectangle 51" class="cls-9" width="7.811" height="32.889" transform="translate(776.893 235.674) rotate(-45)"/>
            <rect id="Rectangle_52" data-name="Rectangle 52" class="cls-9" width="32.888" height="7.81" transform="translate(570.027 46.539) rotate(-45)"/>
            <path id="Path_125" data-name="Path 125" class="cls-9" d="M435.882,22.63a4.573,4.573,0,1,1-4.573-4.573,4.572,4.572,0,0,1,4.573,4.573" transform="translate(144.163 6.1)"/>
            <path id="Path_126" data-name="Path 126" class="cls-9" d="M449.253,36a4.573,4.573,0,1,1-4.573-4.573A4.572,4.572,0,0,1,449.253,36" transform="translate(148.679 10.617)"/>
          </g>
        </g>
      </g>
    </g>
  </g>
</svg>
