<?xml version="1.0" encoding="utf-8"?>
<!-- Generator: Adobe Illustrator 22.1.0, SVG Export Plug-In . SVG Version: 6.00 Build 0)  -->
<svg version="1.1" id="Layer_1" xmlns="http://www.w3.org/2000/svg" xmlns:xlink="http://www.w3.org/1999/xlink" x="0px" y="0px"
	 width="50px" height="50px" viewBox="0 0 50 50" style="enable-background:new 0 0 50 50;" xml:space="preserve">
<style type="text/css">
	.st0{fill:url(#SVGID_1_);}
	.st1{fill:#FFFFFF;}
</style>
<linearGradient id="SVGID_1_" gradientUnits="userSpaceOnUse" x1="3.3289" y1="190.8461" x2="43.6539" y2="231.1711" gradientTransform="matrix(1 0 0 1 0 -188)">
	<stop  offset="0" style="stop-color:#FC466B"/>
	<stop  offset="1" style="stop-color:#00DBDE"/>
</linearGradient>
<path class="st0" d="M50,20.7c0.2,1.2-0.8,2.3-2,2.3H9.1c-0.8,0-1.6-0.5-2-1.3c0-0.1-0.1-0.3-0.1-0.5C6.9,20.5,6.3,20,5.6,20H2
	c-1.2,0-2.2-1.1-2-2.3c0.2-1,1.1-1.7,2.1-1.7h34.7c0.8,0,1.6,0.5,2,1.3c0.1,0.2,0.1,0.4,0.1,0.6c0.1,0.6,0.6,1.1,1.3,1.1h7.6
	C48.9,19,49.8,19.7,50,20.7z M45.8,35h-9.1c0.2-0.3,0.3-0.6,0.3-1s-0.1-0.7-0.3-1h5.1c1,0,2-0.7,2.1-1.7c0.2-1.2-0.8-2.3-2-2.3H28
	c-1,0-1.9-0.6-2.1-1.6c0-0.1,0-0.1-0.1-0.2c-0.3-0.8-1.1-1.3-2-1.3L4.2,26c-1,0-2,0.7-2.1,1.7C1.8,28.9,2.8,30,4,30h7.3
	c-0.2,0.3-0.3,0.6-0.3,1s0.1,0.7,0.3,1H8.2c-1,0-2,0.7-2.1,1.7C5.8,34.9,6.8,36,8,36h7c1,0,1.9,0.6,2.1,1.5c0,0.1,0,0.1,0.1,0.2
	c0.3,0.8,1.1,1.3,2,1.3H46c1.2,0,2.2-1.1,2-2.3C47.8,35.7,46.9,35,45.8,35z M23,11L23,11c0-1.1-0.9-2-2-2H9c-1.1,0-2,0.9-2,2l0,0
	c0,1.1,0.9,2,2,2h12C22.1,13,23,12.1,23,11z M42,44L42,44c0-1.1-0.9-2-2-2h-7c-1.1,0-2,0.9-2,2l0,0c0,1.1,0.9,2,2,2h7
	C41.1,46,42,45.1,42,44z M8,5L8,5c0-1.1-0.9-2-2-2H4C2.9,3,2,3.9,2,5l0,0c0,1.1,0.9,2,2,2h2C7.1,7,8,6.1,8,5z"/>
<path d="M14.1,22.5c0-6.4,5.1-11.5,11.5-11.5s11.5,5.1,11.5,11.5c0,4.6-1.6,5.9-10.3,18.5c-0.6,0.8-1.8,0.8-2.4,0
	C15.7,28.4,14.1,27.1,14.1,22.5z M30.4,22.5c0-2.6-2.1-4.8-4.8-4.8s-4.8,2.1-4.8,4.8s2.1,4.8,4.8,4.8S30.4,25.1,30.4,22.5z"/>
<path class="st1" d="M13.5,21.8c0-6.4,5.1-11.5,11.5-11.5s11.5,5.1,11.5,11.5c0,4.6-1.6,5.9-10.3,18.5c-0.6,0.8-1.8,0.8-2.4,0
	C15.1,27.8,13.5,26.5,13.5,21.8z M29.8,21.8c0-2.6-2.1-4.8-4.8-4.8c-2.6,0-4.8,2.1-4.8,4.8s2.1,4.8,4.8,4.8
	C27.6,26.6,29.8,24.5,29.8,21.8z"/>
</svg>
