<svg xmlns="http://www.w3.org/2000/svg" width="12" height="13" viewBox="0 0 12 13">
  <path fill="#EE4854" d="M54.3216116,12.4510946 C55.2678156,9.05822077 54.9273405,7.34792734 53.2685142,7.0193293 C53.521891,8.17140196 53.8069399,9.35514672 52.5954821,10.1548673 C51.9620401,10.5745226 51.4592455,10.4122031 50.3348859,9.54913833 C49.8162552,10.6141127 49.9904518,11.6751281 50.2319516,12.8113647 C48.6206334,12.5302748 47.3497904,11.8612017 46.7598975,10.3053097 C46.1502096,8.88798323 46.4867257,7.24499301 47.5952492,6.17605962 C47.9832324,5.78015836 48.4028878,5.41988822 48.8502562,5.09524918 C50.6634839,3.73334886 51.0158361,2.41103866 50.057755,0.364229157 C50.0142059,0.24545878 49.9785748,0.126688402 49.9548207,0.00395901258 C51.9699581,0.308802981 53.8782021,1.12040056 55.5013973,2.35561248 C59.0367955,5.24569166 58.6092222,10.4438752 54.7056358,12.3521192 C54.5710293,12.3600373 54.4443409,12.3917094 54.3216116,12.4510946 L54.3216116,12.4510946 Z" transform="translate(-46)"/>
</svg>
