<svg xmlns="http://www.w3.org/2000/svg" width="119.496" height="96.771" viewBox="0 0 119.496 96.771">
  <g id="Group_173" data-name="Group 173" transform="translate(-1768.066 -254.709)">
    <path id="Path_83" data-name="Path 83" d="M1614.942,311.638s11.066-20.12,26.156-11.066,21.126-1.006,24.144-13.078,16.1-12.072,27.163-9.054,26.156,1.006,26.156-15.09" transform="translate(154 -8.641)" fill="none" stroke="#6f0298" stroke-width="2" opacity="0.55"/>
    <path id="Path_84" data-name="Path 84" d="M1614.942,311.638s11.066-20.12,26.156-11.066,21.126-1.006,24.144-13.078,16.1-12.072,27.163-9.054,26.156,1.006,26.156-15.09" transform="translate(164 15.359)" fill="none" stroke="#eba31a" stroke-width="2" opacity="0.55"/>
    <path id="Path_85" data-name="Path 85" d="M1614.942,311.638s11.066-20.12,26.156-11.066,21.126-1.006,24.144-13.078,16.1-12.072,27.163-9.054,26.156,1.006,26.156-15.09" transform="translate(168 39.359)" fill="none" stroke="#0797e6" stroke-width="2" opacity="0.55"/>
  </g>
</svg>
