<svg xmlns="http://www.w3.org/2000/svg" xmlns:xlink="http://www.w3.org/1999/xlink" id="Calque_1" x="0" y="0" version="1.1" viewBox="-180 272 250 250" xml:space="preserve" style="enable-background:new -180 272 250 250"><style type="text/css">.st0{fill:#264de4}.st1{fill:#ebebeb}.st2{fill:#fff}</style><rect width="250" height="250" x="-180" y="272" class="st0"/><g><polygon id="polygon2993" points="-117.4 375.3 -115 402.2 -54.9 402.2 -54.9 375.3" class="st1"/><polygon id="polygon2995" points="-54.9 321 -55 321 -122.2 321 -119.8 347.8 -54.9 347.8" class="st1"/><polygon id="polygon2997" points="-54.9 473 -54.9 445 -55 445.1 -84.9 437 -86.8 415.6 -101.4 415.6 -113.8 415.6 -110 457.7 -55 473" class="st1"/><polygon id="polygon3005" points="-22 402.2 -25.1 437 -55 445.1 -55 473 0 457.7 .4 453.2 6.7 382.5 7.4 375.3 12.2 321 -55 321 -55 347.8 -17.2 347.8 -19.6 375.3 -55 375.3 -55 402.2" class="st2"/></g></svg>