<svg xmlns="http://www.w3.org/2000/svg" xmlns:xlink="http://www.w3.org/1999/xlink" id="Calque_1" x="0" y="0" version="1.1" viewBox="-180 272 250 250" xml:space="preserve" style="enable-background:new -180 272 250 250"><style type="text/css">.st0{fill:#e34f26}.st1{fill:#fafafa}.st2{opacity:.6;fill:#efefef}</style><rect width="250" height="250" x="-180" y="272" class="st0"/><g><path d="M-108.6,456.3l-11.9-133.7H10.6L-1.4,456.3l-53.8,15.1" class="st1"/><path d="M-54.9,459.8l43.3-11.9l10.2-114.5h-53.5" class="st2"/><path d="M-54.9,383h-21.8l-1.5-16.9h23.3v-16.3h-0.3h-41l0.3,4.4l4.1,45.4h36.9V383z M-54.9,425.8h-0.3l-18.3-4.9 l-1.2-13.1h-8.7h-7.6l2,25.9l33.7,9.3h0.3V425.8z" class="st0"/><path d="M-55.1,383v16.6h20.4l-2,21.2l-18.3,4.9v17.2l33.7-9.3l0.3-2.9l3.8-43.3l0.6-4.4h-4.7H-55.1z M-55.1,349.9 v10.2v6.1l0,0h39.8l0,0l0,0l0.3-3.5l0.9-8.4l0.3-4.4H-55.1z" class="st0"/></g></svg>