<svg xmlns="http://www.w3.org/2000/svg" width="497" height="497" viewBox="0 0 497 497">
  <g fill="none">
    <path fill="#2AA8FF" d="M0,248.085 C0,111.063 111.069,0.003 248.075,0.003 C385.088,0.003 496.158,111.064 496.158,248.085 C496.158,385.087 385.088,496.155 248.075,496.155 C111.069,496.155 0,385.087 0,248.085 Z"/>
    <path fill="#FFF" d="M374.116,155.145 C339.317,120.345 282.893,120.345 248.094,155.145 L248.065,155.145 C213.264,120.345 156.841,120.345 122.042,155.145 C87.241,189.945 92.259,241.987 122.042,281.167 C153.583,322.658 211.171,391.111 248.065,391.111 L248.094,391.111 C284.989,391.111 342.575,322.658 374.116,281.167 C403.9,241.988 408.916,189.946 374.116,155.145 Z"/>
  </g>
</svg>
