<svg xmlns="http://www.w3.org/2000/svg" width="1198" height="348" viewBox="0 0 1198 348">
  <g>
    <path d="M0.140350877,64.7461988 L41.8994152,64.7461988 L41.8994152,157.522807 L129.97193,157.522807 L129.97193,64.7461988 L171.784795,64.7461988 L171.784795,292.484211 L129.97193,292.484211 L129.97193,197.759064 L41.8994152,197.759064 L41.8994152,292.484211 L0.140350877,292.484211 L0.140350877,64.7461988 Z M304.077193,218.306433 C304.077193,237.37076 288.545029,252.884211 269.48538,252.884211 C250.418713,252.884211 234.895906,237.37076 234.895906,218.306433 L234.895906,120.25731 L195.293567,120.25731 L195.293567,218.306433 C195.293567,259.211696 228.577778,292.484211 269.48538,292.484211 C310.383626,292.484211 343.665497,259.211696 343.665497,218.306433 L343.665497,120.25731 L304.077193,120.25731 L304.077193,218.306433 Z M454.219883,121.405848 C434.575439,121.405848 420.863158,127.106433 407.621053,140.105263 L407.621053,64.7461988 L367.890058,64.7461988 L367.890058,204.407018 C367.890058,256.683041 405.68655,292.484211 448.149708,292.484211 C495.356725,292.484211 536.718129,256.044444 536.718129,206.947368 C536.718129,158.472515 498.577778,121.405848 454.219883,121.405848 Z M455.207018,255.728655 C428.28538,255.728655 407.698246,233.244444 407.698246,206.947368 C407.698246,180.645614 428.28538,158.154386 455.207018,158.154386 C478.018713,158.154386 498.617544,180.645614 498.617544,206.947368 C498.617544,233.244444 478.018713,255.728655 455.207018,255.728655 Z M603.447953,131.415205 C603.447953,111.443275 616.755556,105.111111 631.323977,105.111111 C643.052632,105.111111 658.573099,113.981287 668.701754,124.755556 L694.673684,94.3438596 C681.693567,76.9216374 655.403509,64.8795322 633.859649,64.8795322 C590.769591,64.8795322 559.721637,89.9087719 559.721637,131.415205 C559.721637,208.397661 654.451462,183.995322 654.451462,227.092398 C654.451462,240.383626 641.466667,252.116959 626.584795,252.116959 C603.132164,252.116959 595.525146,240.711111 584.757895,228.669006 L555.922807,258.444444 C574.308772,280.940351 597.111111,292.350877 624.360234,292.350877 C665.225731,292.350877 698.175439,267.005848 698.175439,227.39883 C698.175439,141.864327 603.447953,168.479532 603.447953,131.415205 Z M802.769591,119.174269 C760.311111,119.174269 722.509942,154.954386 722.509942,207.242105 L722.509942,347.263158 L762.238596,347.263158 L762.238596,271.546199 C775.483041,284.535673 789.188304,290.245614 808.839766,290.245614 C853.195322,290.245614 891.340351,253.183626 891.340351,204.708772 C891.340351,155.604678 849.967251,119.174269 802.769591,119.174269 Z M809.82924,253.501754 C782.909942,253.501754 762.320468,230.987135 762.320468,204.708772 C762.320468,178.407018 782.909942,155.915789 809.82924,155.915789 C832.636257,155.915789 853.237427,178.407018 853.237427,204.708772 C853.237427,230.987135 832.636257,253.501754 809.82924,253.501754 Z M1183.78713,255.728655 C1160.35322,255.728655 1153.70058,245.595322 1153.70058,230.065497 L1153.70058,161.321637 L1190.12632,161.321637 L1190.12632,126.477193 L1153.70058,126.477193 L1153.70058,80.5356725 L1113.47836,98.5894737 L1113.47836,238.619883 C1113.47836,274.423392 1138.18012,292.484211 1172.06316,292.484211 C1177.13216,292.484211 1184.10994,292.156725 1187.91579,291.218713 L1197.73801,255.106433 C1193.30292,255.412865 1188.23626,255.728655 1183.78713,255.728655 Z"/>
    <path d="M1079.01287,163.347368 C1071.39649,150.243275 1060.68304,139.738012 1047.28889,131.82924 C1037.27953,126.002339 1026.90058,122.304094 1015.20468,120.715789 L1015.20468,79.0783626 C1026.90058,74.1122807 1034.15906,63.1204678 1034.15906,50.297076 C1034.15906,32.8187135 1020.14269,18.6549708 1002.67836,18.6549708 C985.2,18.6549708 970.938012,32.8187135 970.938012,50.297076 C970.938012,63.1204678 977.777778,74.1122807 989.473684,79.0783626 L989.473684,120.734503 C980.116959,122.08655 970.414035,125.003509 961.553216,129.48538 C943.454971,115.740351 884.109942,70.6479532 849.394152,44.3111111 C850.217544,41.3426901 850.851462,38.2830409 850.851462,35.0549708 C850.851462,15.6959064 835.174269,0.00467836257 815.808187,0.00467836257 C796.442105,0.00467836257 780.77193,15.6959064 780.77193,35.0549708 C780.77193,54.4116959 796.45848,70.1076023 815.824561,70.1076023 C822.430409,70.1076023 828.540351,68.1754386 833.812865,64.9988304 L841.139181,70.5567251 L941.808187,143.090058 C936.48655,147.976608 931.529825,153.534503 927.564912,159.77076 C919.529825,172.484211 914.619883,186.472515 914.619883,201.730994 L914.619883,204.91462 C914.619883,215.625731 916.654971,225.738012 920.121637,235.237427 C923.174269,243.532164 927.637427,251.073684 933.164912,257.892398 L899.754386,291.384795 C889.865187,287.704035 878.737259,290.144386 871.295906,297.625731 C866.200388,302.696167 863.346416,309.59523 863.37076,316.783626 C863.373099,324.018713 866.191813,330.818713 871.309942,335.934503 C876.377067,341.033794 883.274405,343.892803 890.463158,343.873684 C897.653826,343.892069 904.553072,341.033317 909.623392,335.934503 C914.715582,330.864333 917.570535,323.969496 917.553216,316.783626 C917.553216,313.983626 917.120468,311.251462 916.306433,308.654971 L950.839766,274.116959 C955.574269,277.387135 960.687719,280.140351 966.184795,282.51462 C977.026901,287.202339 988.994152,290.05848 1002.09123,290.05848 L1004.49123,290.05848 C1018.97076,290.05848 1032.62924,286.65731 1045.46901,279.700585 C1058.99883,272.348538 1069.5883,262.294737 1077.5883,249.459649 C1085.63041,236.589474 1090.05848,222.369591 1090.05848,206.725146 L1090.05848,205.94386 C1090.05848,190.554386 1086.49591,176.355556 1079.01287,163.347368 Z M1036.81871,235.79883 C1027.44561,246.215205 1016.67135,252.631579 1004.49123,252.631579 L1002.48421,252.631579 C995.527485,252.631579 988.722807,250.708772 982.060819,247.211696 C974.552047,243.361404 968.844444,237.869006 964.173099,230.91462 C959.345029,224.088889 956.725146,216.636257 956.725146,208.734503 L956.725146,206.334503 C956.725146,198.566082 958.215205,191.2 961.97193,184.243275 C965.988304,176.638596 971.412865,170.725146 978.626901,166.023392 C985.709942,161.354386 993.274854,159.064327 1001.70058,159.064327 L1002.48421,159.064327 C1010.12398,159.064327 1017.35673,160.57076 1024.18246,164.063158 C1031.13684,167.787135 1036.81871,172.874854 1041.22339,179.567251 C1045.50175,186.261988 1048.04678,193.483041 1048.8655,201.349708 C1048.99415,202.984795 1049.05965,204.659649 1049.05965,206.259649 C1049.05965,216.935673 1044.98012,226.823392 1036.81871,235.79883 Z"/>
  </g>
</svg>
