<svg xmlns="http://www.w3.org/2000/svg" width="59" height="72" viewBox="0 0 59 72">
  <path d="M50,25.6 C52.2933448,25.6 54.239992,26.4266584 55.84,28.08 C57.440008,29.7333416 58.2666664,31.6799888 58.32,33.92 L58.32,63.12 C58.32,65.3600112 57.4933416,67.3066584 55.84,68.96 C54.1866584,70.6133416 52.2400112,71.44 50,71.44 L8.32,71.44 C5.9733216,71.44 4.000008,70.6133416 2.4,68.96 C0.799992,67.3066584 0,65.3600112 0,63.12 L0,33.92 C0,31.6266552 0.799992,29.680008 2.4,28.08 C4.000008,26.479992 5.9733216,25.6533336 8.32,25.6 L12.48,25.6 L12.48,17.2 C12.48,12.6133104 14.1333168,8.6933496 17.44,5.44 C20.7466832,2.1866504 24.666644,0.56 29.2,0.56 C33.733356,0.56 37.6533168,2.1866504 40.96,5.44 C44.2666832,8.6933496 45.8933336,12.6133104 45.84,17.2 L45.84,25.6 L50,25.6 Z M29.2,60.08 C30.6933408,60.08 31.973328,59.546672 33.04,58.48 C34.106672,57.413328 34.64,56.1600072 34.64,54.72 C34.64,53.2799928 34.106672,52.0000056 33.04,50.88 C31.973328,49.7599944 30.6933408,49.2266664 29.2,49.28 C27.7066592,49.3333336 26.4533384,49.8666616 25.44,50.88 C24.4266616,51.8933384 23.8933336,53.1733256 23.84,54.72 C23.7866664,56.2666744 24.3199944,57.5199952 25.44,58.48 C26.5600056,59.4400048 27.8133264,59.9733328 29.2,60.08 Z M37.52,29.68 L37.52,17.2 C37.52,14.8533216 36.6933416,12.880008 35.04,11.28 C33.3866584,9.679992 31.4133448,8.88 29.12,8.88 C26.8266552,8.88 24.880008,9.7066584 23.28,11.36 C21.679992,13.0133416 20.8533336,14.9599888 20.8,17.2 L20.8,29.68 L37.52,29.68 Z"/>
</svg>
