<svg xmlns="http://www.w3.org/2000/svg" width="56" height="54" viewBox="0 0 56 54">
  <g fill="#1C9EEC" transform="translate(.3 -.2)">
    <path d="M43.5874764,16.3929469 L43.5751869,41.1972538 C43.5751869,42.35247 42.6166033,43.2987641 41.4490975,43.2987641 L2.52696324,43.2987641 C1.35945752,43.2987641 0.400873872,42.35247 0.400873872,41.1972538 L0.400873872,2.53222656 C0.400873872,1.37701037 1.35945752,0.430716258 2.52696324,0.430716258 L28.5141198,0.430716258 C29.6816255,0.430716258 30.6402091,1.37701037 30.6402091,2.53222656 L30.6402091,8.7571188 C30.6402091,11.0921303 32.4467706,12.9478499 34.8309402,12.9478499 L41.4613871,12.9478499 C42.6288928,12.9478499 43.5874764,13.894144 43.5874764,15.0493602 L43.5874764,16.3929469 Z" opacity=".1"/>
    <path d="M54.2063275,16.4007223 L44.3683122,6.64873384 C43.9996262,6.28004782 43.4957553,6.07112574 42.9795949,6.07112574 L39.1206813,6.07112574 L10.700197,6.07112574 C8.53723904,6.07112574 6.80441475,7.81623956 6.80441475,9.966908 L6.80441475,49.8854677 C6.80441475,52.0361362 8.54952857,53.78125 10.700197,53.78125 L50.8635742,53.78125 C53.0265322,53.78125 54.747067,52.0607152 54.7593565,49.9346259 L54.7962251,17.7894397 C54.7839356,17.2855688 54.5750135,16.7816979 54.2063275,16.4007223 Z M42.7092252,8.67650694 L51.8098683,17.7648606 C52.1908439,18.1458361 51.9204742,18.7848919 51.3920242,18.7848919 L44.0979425,18.7848919 C42.7706728,18.7848919 41.6891938,17.7034129 41.6891938,16.3761433 L41.6891938,9.09435109 C41.6891938,8.5536116 42.3405391,8.29553138 42.7092252,8.67650694 Z M52.3874764,24.3929469 L52.3751869,49.1972538 C52.3751869,50.35247 51.4166033,51.2987641 50.2490975,51.2987641 L11.3269632,51.2987641 C10.1594575,51.2987641 9.20087387,50.35247 9.20087387,49.1972538 L9.20087387,10.5322266 C9.20087387,9.37701037 10.1594575,8.43071626 11.3269632,8.43071626 L37.3141198,8.43071626 C38.4816255,8.43071626 39.4402091,9.37701037 39.4402091,10.5322266 L39.4402091,16.7571188 C39.4402091,19.0921303 41.2467706,20.9478499 43.6309402,20.9478499 L50.2613871,20.9478499 C51.4288928,20.9478499 52.3874764,21.894144 52.3874764,23.0493602 L52.3874764,24.3929469 Z"/>
    <path d="M38.9189009 31.0094078C38.1452026 31.0094078 37.5711685 31.2839459 37.1843193 31.820543 36.7849912 32.3696192 36.5978062 33.1682755 36.5978062 34.2414698 36.5978062 35.3146641 36.7849912 36.1257994 37.1718403 36.6623966 37.5586895 37.2114727 38.1327236 37.4735318 38.9064219 37.4735318 40.4538184 37.4735318 41.2150376 36.4003375 41.2150376 34.2414698 41.2025586 32.0950811 40.4413394 31.0094078 38.9189009 31.0094078zM29.3974209 31.1341978L28.3741426 31.1341978 28.3741426 37.3736998 29.2102358 37.3736998C31.0696074 37.3736998 31.9930537 36.3254634 31.9930537 34.2165118 31.9930537 32.1574761 31.1195234 31.1341978 29.3974209 31.1341978z"/>
    <path d="M24.7926685,27.9146148 C23.9316172,27.9146148 23.232793,28.613439 23.232793,29.4744903 L23.232793,39.2455504 C23.232793,40.1066016 23.9316172,40.8054259 24.7926685,40.8054259 L52.3962251,40.8054259 L52.3962251,27.9146148 L24.7926685,27.9146148 Z M32.7168359,37.7979859 C31.8557847,38.6340792 30.6203633,39.0583653 29.0230508,39.0583653 L26.439897,39.0583653 L26.439897,29.4620113 L29.2975889,29.4620113 C30.7825903,29.4620113 31.9431377,29.8738184 32.766752,30.7099117 C33.5903662,31.546005 34.0021733,32.6940733 34.0021733,34.1665958 C33.9896943,35.7514293 33.5778872,36.9618926 32.7168359,37.7979859 Z M42.1135259,37.9102969 C41.3647856,38.7713482 40.2915913,39.1831553 38.8939429,39.1831553 C37.4962944,39.1831553 36.4231001,38.7588692 35.6743599,37.9102969 C34.9256196,37.0617247 34.5512495,35.8387823 34.5512495,34.2289908 C34.5512495,32.6316783 34.9256196,31.4212149 35.6743599,30.5726426 C36.4231001,29.7365494 37.4962944,29.3122633 38.8939429,29.3122633 C40.2915913,29.3122633 41.3647856,29.7365494 42.1135259,30.5851217 C42.8497871,31.4336939 43.2241572,32.6441573 43.2241572,34.2414698 C43.2366362,35.8387823 42.8622661,37.0492457 42.1135259,37.9102969 Z M48.0784897,37.4984898 C48.7149189,37.4984898 49.4886172,37.3362628 50.3995845,36.9993297 L50.3995845,38.7089532 C49.6508442,39.0334073 48.814751,39.2081134 47.9037837,39.2081134 C46.5810093,39.2081134 45.557731,38.7838272 44.8589067,37.935255 C44.1476035,37.0866827 43.8106704,35.8762193 43.8106704,34.2913858 C43.8106704,33.2930655 43.9853765,32.4195352 44.3347886,31.670795 C44.6842007,30.9220548 45.1708818,30.3480206 45.81979,29.9486925 C46.4686982,29.5493643 47.2174385,29.3497003 48.0909688,29.3497003 C48.976978,29.3497003 49.8629873,29.5743223 50.7614756,30.0235665 L50.1375254,31.683274 C49.7881133,31.5210469 49.4636592,31.3588199 49.1142471,31.2340299 C48.764835,31.1092398 48.4403809,31.0468448 48.1034478,31.0468448 C47.3671865,31.0468448 46.8056313,31.3338619 46.4187822,31.9078961 C46.0194541,32.4819302 45.81979,33.2805865 45.81979,34.3038648 C45.794832,36.4252955 46.5435723,37.4984898 48.0784897,37.4984898 Z"/>
  </g>
</svg>
