<svg xmlns="http://www.w3.org/2000/svg" width="140.63" height="32.478" viewBox="0 0 140.63 32.478">
    <g id="prefix__logo-2" transform="translate(-251.939 -40.767)">
        <path id="prefix__Union_6" d="M-387.715-1233.614a1.193 1.193 0 0 1-.351-.846v-8.265a2.051 2.051 0 0 0 1.14.387 2.083 2.083 0 0 0 1.254-.33v8.208a1.2 1.2 0 0 1-.349.846 1.2 1.2 0 0 1-.848.351 1.2 1.2 0 0 1-.846-.351zm3.726-2.762a1.193 1.193 0 0 1-.348-.842v-8.231a2.017 2.017 0 0 0 1.139.388 1.96 1.96 0 0 0 1.243-.4v8.242a1.2 1.2 0 0 1-.348.842 1.2 1.2 0 0 1-.843.348 1.191 1.191 0 0 1-.843-.347zm3.832-2.755a1.2 1.2 0 0 1-.351-.847v-8.288a2.081 2.081 0 0 0 1.2.388l-.057.022a2.006 2.006 0 0 0 1.254-.4v8.276a1.2 1.2 0 0 1-.35.847 1.2 1.2 0 0 1-.847.35 1.2 1.2 0 0 1-.848-.348zm-10.678-1.326a1.072 1.072 0 0 1-.759-.314 1.071 1.071 0 0 1-.313-.757v-23.154a1.072 1.072 0 0 1 .318-.75 1.071 1.071 0 0 1 .754-.31h.251a1.066 1.066 0 0 1 .752.31 1.069 1.069 0 0 1 .319.75v23.154a1.072 1.072 0 0 1-.314.757 1.068 1.068 0 0 1-.757.314zm14.464-1.525a1.2 1.2 0 0 1-.351-.846v-6.35a1.138 1.138 0 0 1 .092-.45 1.155 1.155 0 0 1 .262-.377 1.154 1.154 0 0 1 .389-.243 1.152 1.152 0 0 1 .454-.07l-.058.023a1.127 1.127 0 0 1 .486.056 1.128 1.128 0 0 1 .418.254 1.15 1.15 0 0 1 .273.405 1.132 1.132 0 0 1 .078.482v6.27a1.2 1.2 0 0 1-.35.846 1.2 1.2 0 0 1-.847.351 1.2 1.2 0 0 1-.846-.35zm88.3-1.3a4.12 4.12 0 0 1-1.694-2.156.314.314 0 0 1-.032-.13.327.327 0 0 1 .027-.131.309.309 0 0 1 .081-.108.3.3 0 0 1 .118-.063l.5-.183a.3.3 0 0 1 .124-.023.316.316 0 0 1 .124.029.311.311 0 0 1 .1.077.325.325 0 0 1 .061.111 3.255 3.255 0 0 0 1.3 1.559 3.26 3.26 0 0 0 1.966.493c2.154 0 3.214-.752 3.214-2.28a1.7 1.7 0 0 0-.346-1.117 1.7 1.7 0 0 0-.986-.627 7.952 7.952 0 0 0-1.813-.319l-1.231-.159a10.821 10.821 0 0 1-1.14-.308 3.006 3.006 0 0 1-1.015-.536 2.784 2.784 0 0 1-.7-.987 2.77 2.77 0 0 1-.214-1.191c.08-1.994 1.573-3.295 4.208-3.295a4.124 4.124 0 0 1 2.532.54 4.125 4.125 0 0 1 1.709 1.946c.091.182 0 .33-.184.422l-.5.228c-.206.08-.285.068-.411-.148a3.1 3.1 0 0 0-1.268-1.448 3.1 3.1 0 0 0-1.877-.421c-1.928 0-2.976.764-2.976 2.132a1.734 1.734 0 0 0 .4 1.148 1.732 1.732 0 0 0 1.052.607 7.711 7.711 0 0 0 1.893.365 7.838 7.838 0 0 1 2.28.467 2.56 2.56 0 0 1 1.368 1.035 2.563 2.563 0 0 1 .41 1.667c0 2.132-1.55 3.42-4.4 3.42a4.124 4.124 0 0 1-.468.027 4.117 4.117 0 0 1-2.21-.643zm12.043-3.559v-7.228c0-.25.08-.33.32-.33h.535c.24 0 .32.08.32.33v7.24a3.163 3.163 0 0 0 .99 2.117 3.168 3.168 0 0 0 2.173.862 3.172 3.172 0 0 0 2.174-.862 3.176 3.176 0 0 0 .991-2.117v-7.24c0-.25.079-.33.329-.33h.526c.25 0 .329.08.329.33v7.228c0 2.588-1.526 4.15-4.342 4.15s-4.343-1.562-4.343-4.149zm-47.914-.068v-3.511c0-2.633 1.665-4.218 4.56-4.218s4.56 1.585 4.56 4.218v3.511c0 2.633-1.676 4.218-4.56 4.218s-4.559-1.584-4.559-4.218zm2.03-3.511v3.533c0 1.494.924 2.281 2.587 2.281s2.578-.821 2.578-2.281v-3.533c0-1.482-.924-2.281-2.578-2.281s-2.586.811-2.586 2.281zm-29.982 3.511v-3.511c0-2.633 1.665-4.218 4.559-4.218s4.56 1.585 4.56 4.218v3.511c0 2.633-1.675 4.218-4.56 4.218s-4.558-1.584-4.558-4.218zm2.04-3.511v3.533c0 1.494.913 2.281 2.577 2.281s2.588-.821 2.588-2.281v-3.533c0-1.482-.923-2.281-2.588-2.281s-2.576.811-2.576 2.281zm16.576 7.683c-2.953 0-4.56-1.585-4.56-4.218v-3.533c0-2.6 1.664-4.2 4.56-4.2 2.28 0 3.762.9 4.389 2.7a.488.488 0 0 1 .054.219.49.49 0 0 1-.049.22.5.5 0 0 1-.142.176.511.511 0 0 1-.205.093l-.89.308c-.387.137-.547.057-.684-.342a2.346 2.346 0 0 0-.982-1.166 2.347 2.347 0 0 0-1.491-.317c-1.676 0-2.587.809-2.587 2.28v3.625c0 1.494.922 2.281 2.587 2.281s2.69-.764 2.69-1.881v-.844h-2.474c-.41 0-.558-.159-.558-.558v-.776c0-.4.148-.547.558-.547h3.866c.444 0 .546.148.546.547v2.166a3.418 3.418 0 0 1-.3 1.482 3.42 3.42 0 0 1-.909 1.208 4.974 4.974 0 0 1-3.1 1.082q-.156.006-.317-.004zm81.19-.193c-.238 0-.319-.08-.319-.331v-6.577a21.28 21.28 0 0 1 .193-2.862h-.068a20.784 20.784 0 0 1-1.243 2.52l-2.452 4.32a.4.4 0 0 1-.148.184.4.4 0 0 1-.227.068h-.319a.434.434 0 0 1-.232-.068.435.435 0 0 1-.156-.184l-2.485-4.366a18.218 18.218 0 0 1-1.14-2.485h-.068a24.9 24.9 0 0 1 .183 2.884v6.566c0 .251-.08.331-.331.331h-.444c-.251 0-.331-.08-.331-.331v-10.807c0-.25.08-.33.331-.33h.41a.456.456 0 0 1 .27.058.458.458 0 0 1 .186.2l3.99 7.091 3.967-7.023c.126-.239.194-.274.445-.274l.466-.057c.251 0 .331.08.331.33v10.807c0 .251-.08.331-.331.331zm-50.068 0c-.24 0-.331-.08-.331-.331v-10.807c0-.25.091-.33.331-.33h4.253a3.58 3.58 0 0 1 2.531 1.048 3.581 3.581 0 0 1 1.048 2.531 3.583 3.583 0 0 1-1.048 2.532 3.58 3.58 0 0 1-2.531 1.049h-3.42v3.978c0 .251-.058.331-.3.331zm.729-5.438h3.42a2.484 2.484 0 0 0 .951-.19 2.464 2.464 0 0 0 .806-.538 2.489 2.489 0 0 0 .539-.806 2.481 2.481 0 0 0 .189-.951 2.485 2.485 0 0 0-.189-.951 2.474 2.474 0 0 0-.539-.805 2.463 2.463 0 0 0-.806-.539 2.481 2.481 0 0 0-.951-.189h-3.42zm-7.7 5.438c-.251 0-.33-.08-.33-.331v-10.807c0-.25.079-.33.33-.33h.525c.25 0 .308.08.308.33v10.807c0 .251 0 .331-.308.331zm-53.477 0c-.4 0-.559-.149-.559-.547v-10.374c0-.4.16-.547.559-.547h.923c.41 0 .547.149.547.547v9.029h4.639c.4 0 .547.148.547.547v.8c0 .4-.149.547-.547.547zm-24.2-.285h-.251a1.074 1.074 0 0 1-.758-.314 1.072 1.072 0 0 1-.314-.758v-17.635a1.07 1.07 0 0 1 .318-.75 1.076 1.076 0 0 1 .754-.31h.251a1.072 1.072 0 0 1 .753.31 1.07 1.07 0 0 1 .318.75v17.659a1.068 1.068 0 0 1-.314.757 1.067 1.067 0 0 1-.757.314zm14.2-1.21a1.191 1.191 0 0 1-.348-.842v-1.436a1.143 1.143 0 0 1 .333-.806 1.144 1.144 0 0 1 .807-.334 1.145 1.145 0 0 1 .481.059 1.152 1.152 0 0 1 .414.255 1.145 1.145 0 0 1 .27.4 1.131 1.131 0 0 1 .077.479v1.38a1.188 1.188 0 0 1-.349.842 1.19 1.19 0 0 1-.842.349 1.194 1.194 0 0 1-.839-.346zm-10.688-1.5a1.061 1.061 0 0 1-.75-.31 1.059 1.059 0 0 1-.31-.75v-12.2a1.049 1.049 0 0 1 .077-.41 1.055 1.055 0 0 1 .229-.347 1.06 1.06 0 0 1 .346-.233 1.063 1.063 0 0 1 .409-.082h.262a1.072 1.072 0 0 1 .751.318 1.07 1.07 0 0 1 .31.754v12.2a1.062 1.062 0 0 1-.31.75 1.061 1.061 0 0 1-.751.31zm4.036-2.793h-.239a1.077 1.077 0 0 1-.754-.31 1.076 1.076 0 0 1-.318-.75v-6.566a1.079 1.079 0 0 1 .061-.431 1.071 1.071 0 0 1 .228-.372 1.089 1.089 0 0 1 .356-.25 1.088 1.088 0 0 1 .427-.087h.251a1.07 1.07 0 0 1 .757.314 1.072 1.072 0 0 1 .314.758v6.612a1.066 1.066 0 0 1-.078.413 1.079 1.079 0 0 1-.23.352 1.092 1.092 0 0 1-.35.235 1.063 1.063 0 0 1-.412.083zm3.784-2.451h-.251a1.071 1.071 0 0 1-.757-.314 1.072 1.072 0 0 1-.314-.758v-1.7a1.07 1.07 0 0 1 .319-.751 1.066 1.066 0 0 1 .752-.31h.251a1.072 1.072 0 0 1 .754.31 1.069 1.069 0 0 1 .318.751v1.7a1.074 1.074 0 0 1-.31.753 1.075 1.075 0 0 1-.751.319z" data-name="Union 6" transform="translate(643.846 1306.508)" style="fill:#394149"/>
    </g>
</svg>
