<svg xmlns="http://www.w3.org/2000/svg" width="144.459" height="33.676" viewBox="0 0 144.459 33.676">
    <g id="prefix__logo-1" transform="translate(-29.093 -40.162)">
        <path id="prefix__Union_5" d="M-391.907-1232.066v-30.028h14.227a11.263 11.263 0 0 1 5.746-3.355 11.271 11.271 0 0 1 6.638.474 11.266 11.266 0 0 1 5.211 4.138 11.269 11.269 0 0 1 1.966 6.359 11.264 11.264 0 0 1-.982 4.589 11.271 11.271 0 0 1-2.769 3.79v14.033zm5.78-5.78h18.479v-5.506a10.877 10.877 0 0 1-1.744.148 11.282 11.282 0 0 1-7.969-3.306 11.282 11.282 0 0 1-3.306-7.969 10.835 10.835 0 0 1 .171-1.836h-5.631zm13.681-21.189a5.5 5.5 0 0 0-2.024 2.468 5.5 5.5 0 0 0-.31 3.176 5.491 5.491 0 0 0 1.507 2.813 5.5 5.5 0 0 0 2.816 1.5 5.494 5.494 0 0 0 3.175-.317 5.5 5.5 0 0 0 2.464-2.03 5.5 5.5 0 0 0 .921-3.056 5.5 5.5 0 0 0-1.614-3.878 5.5 5.5 0 0 0-3.882-1.606 5.5 5.5 0 0 0-3.053.931zm39.568 19.183l-.022-.012h3.534a1.9 1.9 0 0 0 .8.9 1.9 1.9 0 0 0 1.184.236c1.4 0 2.131-.752 2.131-1.869v-2.027a3.5 3.5 0 0 1-1.389 1.5 3.5 3.5 0 0 1-2.02.467c-2.679 0-4.458-2.04-4.458-5.551s1.7-5.7 4.56-5.7a3.5 3.5 0 0 1 2.053.534 3.5 3.5 0 0 1 1.264 1.4v-1.838h3.625v11.1c0 2.679-2.371 4.355-5.86 4.355-3.168-.006-5.197-1.454-5.403-3.495zm3.42-6.349c0 1.778.787 2.827 2.1 2.827s2.12-.968 2.12-2.827c0-1.79-.821-2.919-2.12-2.919s-2.1 1.14-2.1 2.92zm27.623 9.234v-14.82h3.637v2.006h.068a3.52 3.52 0 0 1 1.368-1.623 3.523 3.523 0 0 1 2.052-.543c2.874-.023 4.526 2.086 4.526 5.757l-.068-.012c0 3.659-1.642 5.78-4.435 5.78a3.5 3.5 0 0 1-2.039-.506 3.492 3.492 0 0 1-1.382-1.58h-.068v5.54zm3.624-9.234c-.011 1.789.822 2.919 2.11 2.919s2.189-1.06 2.189-2.907l-.068-.012c0-1.778-.832-2.93-2.12-2.93s-2.1 1.14-2.111 2.931zm-21.933 0h-.022c0-3.671 2.28-5.872 5.7-5.872s5.7 2.2 5.7 5.872-2.212 5.893-5.7 5.893-5.678-2.143-5.678-5.892zm3.683 0c0 2.064.775 3.191 2.029 3.191s2.064-1.128 2.064-3.18l-.023-.012c0-2.018-.8-3.2-2.041-3.2s-2.03 1.137-2.03 3.202zm-29.3 0c0-3.671 2.28-5.872 5.7-5.872s5.7 2.2 5.7 5.872-2.2 5.893-5.7 5.893-5.699-2.143-5.699-5.892zm3.705 0c0 2.064.775 3.191 2.029 3.191s2.064-1.128 2.064-3.18l-.022-.012c0-2.018-.787-3.2-2.041-3.2s-2.029 1.137-2.029 3.202zm52.782 2.086h3.544c.1.833.764 1.322 1.836 1.322s1.573-.342 1.573-.946-.342-.708-1.219-.889l-2.12-.445c-2.2-.467-3.352-1.619-3.352-3.34.068-2.235 1.984-3.66 5.072-3.66l-.068-.011c3.065 0 4.97 1.447 4.993 3.773h-3.341c0-.809-.672-1.31-1.676-1.31s-1.481.388-1.481.969.421.763 1.265.934l2.349.479c2.28.479 3.192 1.391 3.192 3.09 0 2.28-2.11 3.83-5.244 3.83s-5.174-1.505-5.322-3.796zm15.936 3.75a3.916 3.916 0 0 1-1.61-.29 3.927 3.927 0 0 1-1.35-.922 3.931 3.931 0 0 1-.855-1.4 3.926 3.926 0 0 1-.209-1.622v-7.216h3.659v6.43c0 1.322.7 2.04 1.836 2.04a1.877 1.877 0 0 0 .774-.174 1.877 1.877 0 0 0 .632-.48 1.869 1.869 0 0 0 .376-.7 1.879 1.879 0 0 0 .053-.791v-6.327h3.648l-.068 11.218H-270v-2.11h-.068a3.216 3.216 0 0 1-1.226 1.743 3.214 3.214 0 0 1-1.869.6q-.084.006-.173.001zm22.2-.216v-6.692c0-1.139-.536-1.778-1.573-1.778a1.6 1.6 0 0 0-.67.135 1.594 1.594 0 0 0-.552.4 1.615 1.615 0 0 0-.333.595 1.611 1.611 0 0 0-.054.68v6.658h-3.487v-6.727c0-1.139-.56-1.744-1.562-1.744a1.63 1.63 0 0 0-.675.14 1.629 1.629 0 0 0-.557.408 1.626 1.626 0 0 0-.337.6 1.63 1.63 0 0 0-.06.688v6.635h-3.659l-.022-11.241h3.557v2.166h.079a3.262 3.262 0 0 1 1.2-1.733 3.265 3.265 0 0 1 2.006-.639 2.917 2.917 0 0 1 2.021.587 2.915 2.915 0 0 1 1.1 1.8h.16a3.42 3.42 0 0 1 1.3-1.773 3.42 3.42 0 0 1 2.115-.61 3.558 3.558 0 0 1 1.463.255 3.574 3.574 0 0 1 1.232.831 3.56 3.56 0 0 1 .785 1.262 3.562 3.562 0 0 1 .2 1.472v7.627zm-56.088 0l-.058-11.241h3.705v11.241zm-43.651-.046v-14.82h3.659v14.82zm44.765-12.218a1.8 1.8 0 0 1-.6-.382 1.793 1.793 0 0 1-.4-.582 1.8 1.8 0 0 1-.148-.693l-.023-.011a1.869 1.869 0 0 1 .275-1.059 1.861 1.861 0 0 1 .822-.724 1.869 1.869 0 0 1 1.086-.14 1.861 1.861 0 0 1 .977.492 1.871 1.871 0 0 1 .535.955 1.869 1.869 0 0 1-.092 1.091 1.867 1.867 0 0 1-.688.852 1.87 1.87 0 0 1-1.046.322h-.041a1.811 1.811 0 0 1-.658-.12z" data-name="Union 5" transform="translate(421 1305.903)" style="fill:#394149"/>
    </g>
</svg>
