<svg xmlns="http://www.w3.org/2000/svg" width="135.406" height="30.918" viewBox="0 0 135.406 30.918">
    <g id="prefix__logo-7" transform="translate(-863.277 -41.529)">
        <path id="prefix__Union_3" d="M-382.184-1235.964a14.9 14.9 0 0 1-3.649-2.086 15.431 15.431 0 0 1-4.2-4.906 15.44 15.44 0 0 1-1.826-6.2 15.431 15.431 0 0 1 .873-6.4 15.417 15.417 0 0 1 3.419-5.483 15.417 15.417 0 0 1 5.364-3.6 15.415 15.415 0 0 1 6.369-1.087 15.416 15.416 0 0 1 6.256 1.616 15.43 15.43 0 0 1 5.045 4.036 15.13 15.13 0 0 1 2.28 3.671 15.269 15.269 0 0 1 1.277 6.134 15.459 15.459 0 0 1-4.52 10.911 15.455 15.455 0 0 1-10.9 4.536 15.244 15.244 0 0 1-5.788-1.142zm14.729-16.324a3.421 3.421 0 0 0-2.071.984 3.414 3.414 0 0 0-.984 2.071 6.536 6.536 0 0 1-1.851 3.686 6.531 6.531 0 0 1-3.69 1.843 3.423 3.423 0 0 0-2.071.984 3.418 3.418 0 0 0-.984 2.071 6.6 6.6 0 0 1-.73 2.281 12.378 12.378 0 0 0 3.42.479v-.058a12.333 12.333 0 0 0 5.43-1.282 12.32 12.32 0 0 0 4.308-3.543 12.342 12.342 0 0 0 2.308-5.079 12.339 12.339 0 0 0-.166-5.576 6.512 6.512 0 0 1-2.92 1.139zm-4.469-5.769a3.267 3.267 0 0 0-2.086.947 3.327 3.327 0 0 0-.992 2.177 6.535 6.535 0 0 1-1.846 3.683 6.526 6.526 0 0 1-3.684 1.846 3.228 3.228 0 0 0-2.063.981 3.322 3.322 0 0 0-.992 2.074 6.25 6.25 0 0 1-1.847 3.682c-.137.137-.275.251-.41.376a12.42 12.42 0 0 0 3.1 2.611 3.577 3.577 0 0 0 .559-1.562 6.565 6.565 0 0 1 1.865-3.686 6.567 6.567 0 0 1 3.7-1.843 3.424 3.424 0 0 0 2.078-.98 3.425 3.425 0 0 0 .989-2.075 6.5 6.5 0 0 1 1.841-3.687 6.514 6.514 0 0 1 3.687-1.842 3.267 3.267 0 0 0 2.063-1 1 1 0 0 0 .148-.16 11.993 11.993 0 0 0-2.69-3.169 6.247 6.247 0 0 1-3.42 1.627zm-10.421-3.037a12.325 12.325 0 0 0-4.469 4.2 12.317 12.317 0 0 0-1.887 5.835 12.3 12.3 0 0 0 1.159 6.022 3.321 3.321 0 0 0 .9-1.984 6.525 6.525 0 0 1 1.845-3.684 6.537 6.537 0 0 1 3.684-1.846 3.422 3.422 0 0 0 2.082-.96 3.421 3.421 0 0 0 1.007-2.06 6.534 6.534 0 0 1 1.846-3.684 6.535 6.535 0 0 1 3.683-1.846 4.951 4.951 0 0 0 1.231-.353 12.2 12.2 0 0 0-5.152-1.14l.012-.022h-.011a12.307 12.307 0 0 0-5.93 1.522zm46.388 18.575v-.012h3.283a1.77 1.77 0 0 0 .753.82 1.766 1.766 0 0 0 1.093.206c1.3 0 1.985-.706 1.985-1.732v-1.915h-.069a3.24 3.24 0 0 1-1.269 1.412 3.242 3.242 0 0 1-1.843.457c-2.5 0-4.15-1.9-4.15-5.175s1.574-5.335 4.2-5.335a3.278 3.278 0 0 1 1.887.51 3.278 3.278 0 0 1 1.259 1.5v-1.9h3.42v10.373c0 2.5-2.2 4.047-5.449 4.047-3.025-.006-4.906-1.363-5.1-3.255zm3.2-5.917c0 1.676.73 2.622 1.95 2.622s1.972-.923 1.972-2.61v-.012c0-1.664-.764-2.714-1.972-2.714s-1.947 1.039-1.947 2.715zm25.65 8.584v-13.839h3.42v1.869h.069a3.268 3.268 0 0 1 1.265-1.509 3.274 3.274 0 0 1 1.9-.509c2.622.046 4.184 2.006 4.184 5.426l-.046-.023c0 3.42-1.516 5.369-4.116 5.369a3.251 3.251 0 0 1-1.9-.467 3.257 3.257 0 0 1-1.291-1.471h-.069v5.152zm3.443-8.584c-.012 1.653.775 2.714 1.972 2.714s1.961-1.038 1.961-2.691v-.023c0-1.664-.764-2.724-1.961-2.724s-1.958 1.072-1.969 2.725zm-44.256.012c0-3.42 2.1-5.461 5.335-5.461s5.336 2.041 5.336 5.461-2.052 5.472-5.336 5.472-5.332-1.995-5.332-5.471zm3.443 0c0 1.847.718 2.964 1.892 2.964s1.9-1.049 1.9-2.953v-.011c0-1.881-.742-2.987-1.9-2.987s-1.888 1.141-1.888 2.988zm20.349 0v-.012c0-3.42 2.1-5.46 5.335-5.46s5.347 2.04 5.347 5.46-2.052 5.472-5.347 5.472-5.331-1.983-5.331-5.459zm3.5.011c0 1.858.718 2.965 1.881 2.965s1.858-1.06 1.858-2.965v-.023c0-1.881-.741-2.987-1.9-2.987s-1.835 1.153-1.835 3.011zm25.25 1.915h3.294c.1.776.719 1.231 1.723 1.231s1.459-.33 1.459-.878-.32-.661-1.14-.832l-1.972-.421c-2.041-.422-3.112-1.5-3.112-3.1.023-2.052 1.859-3.386 4.685-3.386v-.022c2.839 0 4.56 1.345 4.639 3.5h-3.111c0-.742-.617-1.209-1.562-1.209s-1.368.365-1.368.9.376.707 1.14.866l2.189.445c2.086.445 2.975 1.289 2.975 2.873 0 2.166-1.973 3.557-4.88 3.557s-4.806-1.391-4.955-3.526zm13.331 3.259a3.642 3.642 0 0 1-1.287-.852 3.615 3.615 0 0 1-.818-1.309 3.618 3.618 0 0 1-.2-1.531v-6.76h3.42v5.973c0 1.243.638 1.9 1.7 1.9a1.738 1.738 0 0 0 .721-.154 1.741 1.741 0 0 0 .593-.439 1.743 1.743 0 0 0 .359-.644 1.753 1.753 0 0 0 .06-.735v-5.9h3.42l-.047 10.465h-3.294v-1.949h-.068a2.981 2.981 0 0 1-1.133 1.624 2.973 2.973 0 0 1-1.9.554q-.1.006-.206.006a3.639 3.639 0 0 1-1.316-.248zm22.113.036v-6.213c0-1.14-.513-1.665-1.471-1.665a1.486 1.486 0 0 0-.62.13 1.5 1.5 0 0 0-.511.374 1.5 1.5 0 0 0-.31.553 1.5 1.5 0 0 0-.052.631v6.19h-3.25v-6.259c0-1.048-.512-1.619-1.447-1.619a1.521 1.521 0 0 0-.626.135 1.517 1.517 0 0 0-.517.38 1.55 1.55 0 0 0-.315.557 1.533 1.533 0 0 0-.058.638v6.168h-3.42l.057-10.488h3.307v2.018h.068a3.035 3.035 0 0 1 1.11-1.614 3.039 3.039 0 0 1 1.866-.6 2.728 2.728 0 0 1 1.9.572 2.719 2.719 0 0 1 1.008 1.708h.068a3.212 3.212 0 0 1 1.218-1.69 3.212 3.212 0 0 1 2-.59 3.332 3.332 0 0 1 1.359.242 3.336 3.336 0 0 1 1.143.774 3.331 3.331 0 0 1 .729 1.173 3.354 3.354 0 0 1 .189 1.368v7.125zm-52.213 0v-10.465h3.42v10.465zm-40.549 0v-13.828h3.42v13.828zm41.653-11.368a1.685 1.685 0 0 1-.581-.355 1.678 1.678 0 0 1-.389-.559 1.655 1.655 0 0 1-.133-.668v-.023a1.747 1.747 0 0 1 .269-.977 1.756 1.756 0 0 1 .767-.662 1.75 1.75 0 0 1 1.007-.123 1.749 1.749 0 0 1 .905.457 1.737 1.737 0 0 1 .5.883 1.739 1.739 0 0 1-.078 1.011 1.739 1.739 0 0 1-.625.8 1.747 1.747 0 0 1-.964.314h-.113a1.667 1.667 0 0 1-.561-.097z" data-name="Union 3" transform="translate(1255.184 1307.27)" style="fill:#394149"/>
    </g>
</svg>
