<svg xmlns="http://www.w3.org/2000/svg" xmlns:xlink="http://www.w3.org/1999/xlink" id="Layer_1" x="0" y="0" version="1.1" viewBox="0 0 733 500" xml:space="preserve" style="enable-background:new 0 0 733 500"><style type="text/css">.st0{clip-path:url(#SVGID_2_)}.st1{fill:#92e3a9}.st2{opacity:.7;fill:#fff;enable-background:new}.st3{fill:none}.st3,.st4,.st5{stroke:#1a2e35;stroke-linecap:round;stroke-linejoin:round;stroke-miterlimit:10}.st4{fill:#5ae4a7}.st5{fill:#bfbfbf}.st6{opacity:.2;clip-path:url(#XMLID_2_)}.st7{fill:#1a2e35}.st8{opacity:.4;clip-path:url(#XMLID_3_)}.st9{fill:none;stroke:#fff;stroke-linecap:round;stroke-linejoin:round;stroke-miterlimit:10}.st10{opacity:.2;clip-path:url(#XMLID_4_)}.st11,.st12{opacity:.2;clip-path:url(#XMLID_5_)}.st12{clip-path:url(#XMLID_6_)}.st13{fill:#5ae4a7}.st14{opacity:.6;clip-path:url(#XMLID_7_);fill:#fff}.st15,.st16{stroke-miterlimit:10}.st15{fill:#fff;stroke:#1a2e35;stroke-linecap:round;stroke-linejoin:round}.st16{fill:none;stroke:#fff}.st17{fill:#fff}.st18{opacity:.6;fill:#1a2e35}.st19,.st20{fill:#fff;stroke:#1a2e35;stroke-miterlimit:10}.st20{fill:#bfbfbf}.st21{opacity:.3}.st22{opacity:.4}.st23{opacity:.6;clip-path:url(#XMLID_8_);fill:#fff}.st24{opacity:.3;fill:#fff}.st25{opacity:.4;fill:#1a2e35}.st26,.st27{opacity:.6;clip-path:url(#XMLID_9_);fill:#fff}.st27{clip-path:url(#XMLID_10_)}.st28{opacity:.2;clip-path:url(#XMLID_11_)}.st29{clip-path:url(#SVGID_2_);fill:none}</style><g><defs><rect id="SVGID_1_" width="733" height="500"/></defs><clipPath id="SVGID_2_"><use xlink:href="#SVGID_1_" style="overflow:visible"/></clipPath><g class="st0"><path d="M-128.4,492.7c0,0,43.5,171.6,182.6,222.6s253.6-44.8,366-83.6c58.9-20.3,119.9,3.8,180.1,0 c192.4-11.9,301.8-297.8,246.7-483C799.3-11.6,691.3-111,513.8-163.4s-300.9-97.3-480.9,16.1C-147.2-33.9-176,268.9-128.4,492.7z" class="st1"/><path d="M-128.4,492.7c0,0,43.5,171.6,182.6,222.6s253.6-44.8,366-83.6c58.9-20.3,119.9,3.8,180.1,0 c192.4-11.9,301.8-297.8,246.7-483C799.3-11.6,691.3-111,513.8-163.4s-300.9-97.3-480.9,16.1C-147.2-33.9-176,268.9-128.4,492.7z" class="st2"/></g><g class="st0"><g><ellipse cx="201.1" cy="168.4" class="st3" rx="19.3" ry="19.3" transform="matrix(0.7071 -0.7071 0.7071 0.7071 -60.2113 191.5267)"/><path d="M533.3,113.4c8.3-1.2,18.6,2.7,19.6,12.1c0.9,8.5-4.9,17.2-10.1,23.4c-4.9,5.9-11.6,12.5-19,15 c-8.5,2.9-11.2-5.9-6-11.5c10.4-11.3,34.9-16.9,47.8-7.3c14.5,10.8,4.7,33.5-8.9,40.3c-4.4,2.2-8.3-0.6-5.1-5.3 c2.4-3.5,7-5.2,11-5.9c8-1.5,20.5,0.3,23.5,9.3" class="st3"/><path d="M515.8,120.8c4-2.6,8.3-4.9,12.9-6.3" class="st3"/><path d="M507.6,127.1c1.4-1.2,2.8-2.4,4.2-3.5" class="st3"/><polyline points="373.9 43.1 377.4 39.5 335.3 43.5 359.3 53.8" class="st3"/><polyline points="361.3 54.6 377.4 61.5 368.2 49 372.6 44.5" class="st3"/><path d="M452.4,44.9c0-4.7,0-9.4,0-14.1" class="st3"/><path d="M452.4,55.3c0-2,0-4.1,0-6.1" class="st3"/><line x1="467.3" x2="477.5" y1="57.2" y2="36" class="st3"/><path d="M495.8,57.8c1.6-1.2,3.1-2.4,4.7-3.6" class="st3"/><path d="M479.8,70.1c4-3.1,8.1-6.2,12.1-9.3" class="st3"/><polyline points="154.5 269.3 133 263.7 136.4 293 170.4 273.4 156.4 269.8" class="st3"/><line x1="576.2" x2="600" y1="258.5" y2="266.8" class="st3"/><path d="M563.3,376.6c1.9,2,4.6,3.3,7.6,3.3c5.7,0,10.4-4.7,10.4-10.4c0-3.2-1.5-6.1-3.7-8" class="st3"/><path d="M575.7,360.3c-1.4-0.8-3.1-1.2-4.8-1.2c-5.7,0-10.4,4.7-10.4,10.4c0,2,0.6,3.9,1.6,5.5" class="st3"/><path d="M170.8,337.1c-3.1,8-6.2,15.9-9.2,23.9" class="st3"/><path d="M173.8,329.3c-0.4,1.2-0.9,2.3-1.3,3.5" class="st3"/><line x1="245.7" x2="271.2" y1="193" y2="207.7" class="st3"/><path d="M217.5,104.6c-6.9,4.5-13.8,8.9-20.7,13.4" class="st3"/><path d="M224.8,99.8c-1.1,0.7-2.1,1.4-3.2,2" class="st3"/><polygon points="581.3 113.2 581.3 122.2 588.1 120.4" class="st3"/></g><g><g><path d="M292.4,126c-1.2-3.4,11.7-18.6,11.7-18.6l7,7.4C311.1,114.9,294.7,132.7,292.4,126z" class="st4"/><g><path d="M274.7,104.1c3.8,3.3,6.3,0.8,6.3,0.8s-0.6,2.4,1.9,3.1c1.7,0.5,8.5-2.7,13.1-2.7c0,0,2.3,10.9,2,22.6 c0,0,15.7,1.6,17.8-9.6c0,0-3-7.1-5-13.6c-2.8-8.8-3.1-11.2-4.6-13.1c-2.3-2.9-21.3-8-26.4-8.2c-5.1-0.2-7.9,19.2-14.2,28.2 c0,0,2,1.2,4.6-0.5C271.8,109.9,274.7,104.1,274.7,104.1z" class="st5"/><path d="M274.7,104.1c3.1-7.8,7-11,7-11s1.1-2.8,0-3.6" class="st3"/><path d="M281,104.8c0.2-2.3,8.4-4.8,9.4-6.2c1-1.4,0-7.2,0-7.2" class="st3"/><path d="M296,105.2c3,0,6.1-2.8,6.8-4.9" class="st3"/><path d="M281.8,93c0,0,2.7,1.9,4.9,1.9c0,0,2.7,1.3,2.7,4.5" class="st3"/><path d="M282.8,97.2c0,0-2.1,2.2-1.8,5.3" class="st3"/><path d="M278.5,98.8c0,0,1.9-1.3,2.8,0" class="st3"/></g><g><defs><path id="XMLID_90_" d="M419.1,175.1c0,0-13.2-9.6-24.6-7.9c0,0-60.4,6.8-61.8,6.8c0,0-16.2-61.3-19.3-66.5 c0,0-0.6-4.3-2.3-4.9c0,0-7.1,19.6-18.8,23.5c0,0,1.1,3.7,3.7,3.7c0,0-0.4,66.6,8.9,74.5c9.4,7.9,88.3,14.5,88.3,14.5 L419.1,175.1z"/></defs><use xlink:href="#XMLID_90_" style="overflow:visible;fill:#5ae4a7"/><clipPath id="XMLID_2_"><use xlink:href="#XMLID_90_" style="overflow:visible"/></clipPath><path d="M375.9,212.4l-3.9,4.3c-24.1-2.5-60.7-7.2-66.9-12.4c-9.3-7.9-8.9-74.5-8.9-74.5c-1.7,0-2.7-1.6-3.2-2.7 c8.7-0.4,19.3-9.1,19.3-9.1c1.7,9.3-10.5,20-10.5,20s-0.6,38.2,4.5,57.5S375.9,212.4,375.9,212.4z" class="st6"/><use xlink:href="#XMLID_90_" style="overflow:visible;fill:none;stroke:#1a2e35;stroke-linecap:round;stroke-linejoin:round;stroke-miterlimit:10"/></g><path d="M399.2,178.5c0,0,2.4-8.2,13.3-6.3c10.8,1.9,37.8,2.6,51.4-1.6c0,0-34.8,45.1-55.3,37 C388,199.5,399.2,178.5,399.2,178.5z" class="st5"/><g><path d="M457.3,79.8c0,0-3.1-10.7-11-8.4c-7.8,2.3-6.8,2-11.1-0.3c-4.3-2.3-7-0.3-8.5,3c-1.5,3.3-4.5,2.5-9.1,0.9 c-4.6-1.6-8.6,0.5-8.4,4.9c0.2,4.4-5.7-0.2-9,4.8c-3.3,4.9-1.3,4.6-2,8.6c-0.7,4-7.6,6.3-6.3,9.9c1.3,3.6,6.6,9.9,1.6,12.5 c-4.9,2.6-6.6,10.9-1.8,13.4c4.8,2.5-4,9.9-0.8,16.6c2.9,6.2,10.9,7.6,7.3,13.8c-1.6,2.7-1.1,4.9,0,6.5 c0.9,1.3,2.9,0.7,2.9-0.8c0-0.8,0.2-1.6,0.7-2.4c1.6-2.6,3.9,0,6.6-4.9c0,0-1.7,5.6,3.9,7.6c2.9,1,3.5,2.8,3.3,4.2 c-0.1,1.1,1.2,1.8,2,1.1c0.9-0.9,1.6-2.3,1.3-4.6c0,0,9.2,7.6,15.8,5.9c6.6-1.6,15.2-4,15.5-8.9c0,0,1.7,2.2,1.9,4.8 c0.1,1.4,1.8,2,2.7,0.9c1.1-1.4,2.1-3.2,2.2-5.4c0,0,0.8,2.6,3.2,3.9c1.4,0.8,3.1-0.6,2.7-2.2c-0.3-1.3-0.2-2.8,1.3-3.7 c3.3-2,5.6-5.6,3.6-10.2c0,0,5,3.3,3.3,8.2c-0.7,2.1-0.3,3.6,0.5,4.7c0.8,0.9,2.2,0.1,1.8-1c-0.4-1-0.5-2.2,0.4-3.6 c2.3-3.6,8.3-8,3.6-13.1c-4.6-5.1-1.3-8.3-1.3-8.3s-0.7,3.3,4.9,5.4c5.6,2.1,2.1,5.2,2.7,7.5c0.2,0.9,0.7,1.6,1.2,2.2 c1,1,2.6-0.2,1.9-1.4c-0.6-1.1-0.9-2.3-0.3-3.5c2.8-5.1-4.6-7.4-5.4-11.9c-0.7-4.3,0.3-9.5,0.8-13.8c0.4-3.8,0.7-6.6-1.7-9.9 c-1.6-2.1-3.5-4.1-4.3-6.6c-0.6-1.9-0.4-4-0.2-6c0.2-2,0.3-4.1-0.3-5.9c-1.4-3.8-5.9-3.2-7.9-6.4c-1.9-3-0.3-7-3.9-9.1 C461.9,77.3,459.1,78.1,457.3,79.8z" class="st7"/><path d="M420.4,179.4c5.2-3.3,2.7-14.1,0.6-20.7c-1-3.1-1.9-5.3-1.9-5.3l0.1,0l27.2-14c-3.4,14.5,0,34.2,0,34.2" class="st5"/><path d="M430.6,153.4c0,0-3.4,5.1-9.6,5.3c-1-3.1-1.9-5.3-1.9-5.3l0.1,0H430.6z" class="st7"/><path d="M443,147.7c8.4-5.3,15.5-13.3,17.2-24.9c3.3-21.1,3-40.4-33.2-38c-15.9,1-22,16.7-21.9,21.6 c0.3,11.4-8.8,31.5,2.5,48.1c1.7,2.5,12.6,2.6,24.2-1.4" class="st5"/><path d="M423.7,109.6c0,0,5.7-2.1,9,6.3" class="st3"/><path d="M411.9,108.6c0,0-3.1-2.6-6.7-2.2" class="st3"/><path d="M412.7,120.8c-3,4.9-6.6,2.4-6.4,4.9c0.1,2,4.8,5.5,4.8,5.5" class="st3"/><path d="M428.1,120.9c-0.3,1.3-1.3,2.2-2.2,2c-0.9-0.2-1.4-1.5-1.1-2.8c0.3-1.3,1.3-2.2,2.2-2 C428,118.3,428.5,119.6,428.1,120.9z" class="st7"/><path d="M410.7,117.7c-0.2,1.3-1.1,2.3-2.1,2.2c-0.9-0.1-1.5-1.4-1.3-2.7c0.2-1.3,1.1-2.3,2.1-2.2 C410.3,115.1,410.9,116.3,410.7,117.7z" class="st7"/><g><defs><path id="XMLID_89_" d="M420.7,136c0,0-0.4,1-1.2,2.3c-1.4,2.3-3.8,5.2-6.8,4.3c-0.9-0.3-1.3-1.6-1.5-3 c-0.2-1.9-0.1-3.9-0.1-3.9s1,0.3,4.8,0.5C419.1,136.4,420.7,136,420.7,136z"/></defs><use xlink:href="#XMLID_89_" style="overflow:visible;fill:#fff"/><clipPath id="XMLID_3_"><use xlink:href="#XMLID_89_" style="overflow:visible"/></clipPath><path d="M420.7,136c0,0-0.4,1-1.2,2.3c-2.9-0.5-6.2,0.5-8.3,1.3c-0.2-1.9-0.1-3.9-0.1-3.9L420.7,136z" class="st8"/><use xlink:href="#XMLID_89_" style="overflow:visible;fill:none;stroke:#1a2e35;stroke-linecap:round;stroke-linejoin:round;stroke-miterlimit:10"/></g><path d="M426.8,93.5c0,0,0.9-2,2.7,2c1.8,4-5.7,7.9,0,10.9c5.7,3,6,10,3.2,12.8c-2.8,2.7,4.5,4.1,5.5,6.7 c1,2.6-2,4.8-1.3,8c0.7,3.2,4.8,6.4,4.7,8.1c-0.1,1.7-3.7,4.5-1.2,7.4c2.5,2.9,9.4,1.1,10,7c0,0,20.8-23.1,21.1-44.6 c0.3-21.5-15.2-30.4-31-31.7c-15.8-1.3-40.2,6.3-42.2,33.8c0,0,0.7-1.7,3.6-2.1c2.9-0.4,4.3-4.3,4-8.6 c-0.3-4.3,2.6-1.6,6.6-2.6c4-1,2.7-6.6,5.3-7.6C420.4,91.8,422.4,97.1,426.8,93.5z" class="st7"/><path d="M412.5,84.2c-0.2,2.6-8.2,0.3-12.4,2.6c-4.1,2.3-3.1,6.3-2.8,8.6c0.3,2.3-3.4,5.3-6.5,7.1 c-3.1,1.8-3.1,5.5,0.9,9c4,3.5,0.6,4.5-3.1,7.6c-3.7,3.1-3.5,7,0,9.2" class="st3"/><path d="M423.7,91.7c0,0,6.7,1.3,4.8,5.1c-2,3.8-4.8,8.5,1,12.8c5.8,4.2-2.5,9,1.1,12.8c3.6,3.8,7.3,3.6,4.7,9.9 c-2.7,6.3,2.1,7.8,2.1,7.8" class="st3"/><path d="M409.7,135.3c0,0,6.6,1.7,11.7,0.6" class="st3"/><path d="M455.9,145.6c-0.8,1-0.3,2.2,0.6,3" class="st9"/><path d="M456.5,135.9c2.9,1.5,3.7,4,1.9,6.9" class="st9"/><path d="M438.3,95.2c0.2,5.1,2.3,10.5,7.7,13.7c2.1,2.1,1.1,4.3,0,7.5c0,4.3,6.4,4.3,7.5,7.5 c0,3.2-5.4,6.4-0.1,10.3" class="st9"/><path d="M435.6,86.2c1.4,1.5,2.1,3.5,2.4,5.6" class="st9"/><path d="M470.3,138c-0.2,1.1-0.1,2.3,0.3,3.3" class="st9"/><path d="M463.7,125.6c-1.2,3.1,1.7,2.8,3.7,3.1c3.3,0.4,4.4,2.4,3.6,5.8" class="st9"/><path d="M450.8,96.5c0.6,6.2,10.4,5.4,8.7,12.6c-0.8,3.3-0.7,5.4,2,8.2c1.4,1.5,4.2,2.5,3.2,4.9" class="st9"/><path d="M476,124.1c-0.3,1.1-0.4,2.3-0.2,3.4" class="st9"/><path d="M459.2,88.4c2.2,0.2,1.5,2.9,2.2,4.3c0.9,2,2.6,2.4,4.3,3.5c3.4,2.1,3.1,4.1,2.7,7.7 c-0.5,4.2,0.9,6,4.4,8.1c3.6,2.1,5.6,3.9,4.3,8.4" class="st9"/><path d="M407.2,93.5c-3.1,1.5-8.5,1.9-7.6,6.4c0.9,4.5,4.8,6.7,0.2,10.7c-3.9,3.4-3.5,5.1-0.9,9.1 c2.1,3.3,2.7,6.3,0.1,9.7" class="st9"/><path d="M419.1,86.7c-5.4-4.7-6.5,1.8-8.7,4.7" class="st9"/></g><g><defs><path id="XMLID_91_" d="M404.2,171.3c0,0-9.8,10.8,1.3,19.2c11.1,8.4,51.4-19.9,51.4-19.9s14.5-3.7,22.1,1.2 c7.6,4.9,0.5,63.5-15.1,88.9c-4.6,7.5-10.1,18.8-10.1,18.8s1.6,9.8-7.4,12.8c-17,5.7-60.5,5.4-73.1-1.7 c-14.9-8.3,0.1-5.7,0.9-50.9c0,0-6.5-16.7-4-28.6c0.9-4.4,3.6-10.9,7.4-17.4"/></defs><use xlink:href="#XMLID_91_" style="overflow:visible;fill:#5ae4a7"/><clipPath id="XMLID_4_"><use xlink:href="#XMLID_91_" style="overflow:visible"/></clipPath><path d="M463.9,260.7c-4.6,7.5-10.1,18.8-10.1,18.8s1.6,9.8-7.4,12.8c-17,5.7-60.5,5.4-73.2-1.7 c-14.9-8.3,0.1-5.7,0.9-50.9c0,0-2.3-5.9-3.7-13.2c9.8,5.7,21.2,5.1,21.2,5.1c9.8-20.3,23.8-16.5,23.8-16.5s3.8-3.4,8.2-6.6 c4.4-3.2,18.1-0.8,18.1-0.8l16-3.2c-0.3-6,5.5-5.4,5.5-5.4l2.2,2.1c-1.3-4.9,0-7.9,0-7.9l14.1,17.7 C476.8,228.8,471.3,248.6,463.9,260.7z" class="st10"/><use xlink:href="#XMLID_91_" style="overflow:visible;fill:none;stroke:#1a2e35;stroke-linecap:round;stroke-linejoin:round;stroke-miterlimit:10"/></g><path d="M368.8,201.9c0.4,2,1,4.1,2.2,5.9" class="st3"/><path d="M368.2,193.3c-0.1,1.8,0,3.5,0.1,5.3" class="st3"/><path d="M332.7,174c0,0-7.9,7.9-6.4,13.8" class="st3"/><path d="M327.6,175.6c1.7-1,3.3-2.1,4.7-3.4" class="st3"/><path d="M321.3,178.4c1.1-0.4,2.1-0.8,3.2-1.3" class="st3"/><path d="M296,129.8c0,0,11.4-2.3,16.1-11.7" class="st3"/><path d="M420.2,194.5c1.4-0.3,2.8-0.7,4.2-1.2" class="st3"/><path d="M400.3,170.4c-2.9,4.6-4.8,10.8-3,16.2c2.8,8.1,12,9.7,19.5,8.6" class="st3"/><path d="M400.3,179.4c0,0,8.3,6.5,13.2,8.4" class="st3"/><g><g><defs><path id="XMLID_93_" d="M459.3,217.9c0,0-24.9,1.1-34.7,0.1c-6.3-0.7-8.3,2.5-16.9,4.1c-3.2,0.6-10,10.6-10,10.6l1.1,13.1 c0,0,7.5,5.4,8.5,3.9c1-1.5-2.6-5-2.6-5l6.6,1.1c0,0,0.4-2.6-2-4.6l3.9-4.3c0,0,4.9,1.5,10.4-3.3l37.2,1.4L459.3,217.9z"/></defs><use xlink:href="#XMLID_93_" style="overflow:visible;fill:#bfbfbf"/><clipPath id="XMLID_5_"><use xlink:href="#XMLID_93_" style="overflow:visible"/></clipPath><path d="M460.7,235l-37.2-1.4c-5.4,4.8-10.4,3.3-10.4,3.3l-3.9,4.3c2.5,1.9,2,4.6,2,4.6l-6.6-1.1 c0,0,3.6,3.5,2.6,5c-1,1.5-8.5-3.9-8.5-3.9l-1.1-13.1c0,0,2.4-3.6,5.1-6.6c7,4.3,25.3,1,25.3,1c0.1-3.2,2-6.5,3.6-8.8 c11.4,0.3,27.7-0.5,27.7-0.5L460.7,235z" class="st11"/><use xlink:href="#XMLID_93_" style="overflow:visible;fill:none;stroke:#1a2e35;stroke-linecap:round;stroke-linejoin:round;stroke-miterlimit:10"/></g><path d="M413.1,236.9c0,0-4-0.3-5.8-5.3" class="st3"/><path d="M411.7,236.5c0,0-6.6,5.4-10.3,1.7" class="st3"/><path d="M404.2,239.5c0,0,1,3.6,0.4,5.3" class="st3"/><path d="M409.2,241.2c0,0-2,0.7-3.3,0.5" class="st3"/></g></g><g><g><defs><path id="XMLID_94_" d="M544.3,236.1v230.3c0,1.5-1.2,2.8-2.8,2.8H193.5c-1.5,0-2.8-1.2-2.8-2.8V236.1c0-1.5,1.2-2.8,2.8-2.8 h348.1C543.1,233.3,544.3,234.5,544.3,236.1z"/></defs><use xlink:href="#XMLID_94_" style="overflow:visible;fill:#fff"/><clipPath id="XMLID_6_"><use xlink:href="#XMLID_94_" style="overflow:visible"/></clipPath><path d="M544.3,236.1v10.3c-9.7,3.4-24,6-35.6,5.4c-15.5-0.8-73.6-13.8-94.2-18.6h127 C543.1,233.3,544.3,234.5,544.3,236.1z" class="st12"/><use xlink:href="#XMLID_94_" style="overflow:visible;fill:none;stroke:#1a2e35;stroke-miterlimit:10"/></g><path d="M218.3,233.3v235.8h-24.8c-1.5,0-2.8-1.2-2.8-2.8V236.1c0-1.5,1.2-2.8,2.8-2.8H218.3z" class="st7"/><g><polygon points="204.5 244.2 196.7 248.5 204.5 252.9 212.2 248.5" class="st13"/><polygon points="204.5 254.7 199.1 251.6 196.7 252.9 204.5 257.3 212.2 252.9 209.9 251.6" class="st13"/><polygon points="204.5 259 199.1 256 196.7 257.3 204.5 261.6 212.2 257.3 209.9 256" class="st13"/></g><g><g><g><defs><path id="XMLID_86_" d="M289.3,277.4c0,8.2-3.4,15.6-8.9,20.9c-2.3,2.2-5,4.1-8,5.4c-3.6,1.7-7.7,2.6-12,2.6 c-1.2,0-2.3-0.1-3.4-0.2c-7.7-0.9-14.4-4.8-19-10.5c-4-5-6.4-11.3-6.4-18.2c0-16,12.9-28.9,28.9-28.9 S289.3,261.4,289.3,277.4z"/></defs><use xlink:href="#XMLID_86_" style="overflow:visible;fill:#5ae4a7"/><clipPath id="XMLID_7_"><use xlink:href="#XMLID_86_" style="overflow:visible"/></clipPath><path d="M289.3,277.4c0,8.2-3.4,15.6-8.9,20.9c-2.3,2.2-5,4.1-8,5.4c-3.6,1.7-7.7,2.6-12,2.6 c-1.2,0-2.3-0.1-3.4-0.2c-7.7-0.9-14.4-4.8-19-10.5c-4-5-6.4-11.3-6.4-18.2c0-16,12.9-28.9,28.9-28.9 S289.3,261.4,289.3,277.4z" class="st14"/><use xlink:href="#XMLID_86_" style="overflow:visible;fill:none;stroke:#1a2e35;stroke-linecap:round;stroke-linejoin:round;stroke-miterlimit:10"/></g><g><path d="M272.4,303.7c-3.6,1.7-7.7,2.6-12,2.6c-1.2,0-2.3-0.1-3.4-0.2c-6.4-4.6-12.1-12.1-12.1-12.1 c1.2,0.4,2.6,0.6,4.1,0.8c1,0.1,2,0.2,3.1,0.3c3.2,0.2,6.6,0.2,9.4,0c1.8-0.1,3.3-0.3,4.5-0.5c2.1-0.4,3.5,0.2,4.3,0.9 c0.9,0.8,1.2,1.7,1.2,1.7S272.9,300.5,272.4,303.7z" class="st5"/><g><path d="M247.5,256.9c0,0,1.3-4.4,4.5-3.4c3.2,0.9,2.8,0.8,4.5-0.1c1.8-0.9,2.9-0.1,3.5,1.2 c0.6,1.3,1.8,1,3.7,0.4c1.9-0.6,3.5,0.2,3.5,2c-0.1,1.8,2.3-0.1,3.7,1.9c1.3,2,0.5,1.9,0.8,3.5c0.3,1.6,3.1,2.6,2.6,4 c-0.5,1.5-2.7,4-0.7,5.1c2,1.1,2.7,4.5,0.7,5.5c-2,1,1.6,4,0.3,6.8c-1.2,2.5-4.4,3.1-3,5.7c0.6,1.1,0.4,2,0,2.7 c-0.4,0.5-1.2,0.3-1.2-0.3c0-0.3-0.1-0.7-0.3-1c-0.7-1.1-1.6,0-2.7-2c0,0,0.7,2.3-1.6,3.1c-1.2,0.4-1.4,1.1-1.3,1.7 c0.1,0.5-0.5,0.8-0.8,0.4c-0.4-0.4-0.7-0.9-0.5-1.9c0,0-3.8,3.1-6.5,2.4c-2.7-0.7-6.2-1.6-6.3-3.6c0,0-0.7,0.9-0.8,2 c-0.1,0.6-0.8,0.8-1.1,0.4c-0.5-0.6-0.9-1.3-0.9-2.2c0,0-0.3,1.1-1.3,1.6c-0.6,0.3-1.3-0.3-1.1-0.9c0.1-0.5,0.1-1.1-0.5-1.5 c-1.3-0.8-2.3-2.3-1.5-4.2c0,0-2,1.3-1.4,3.4c0.3,0.9,0.1,1.5-0.2,1.9c-0.3,0.4-0.9,0-0.7-0.4c0.2-0.4,0.2-0.9-0.2-1.5 c-0.9-1.5-3.4-3.3-1.5-5.4c1.9-2.1,0.5-3.4,0.5-3.4s0.3,1.3-2,2.2c-2.3,0.9-0.9,2.1-1.1,3.1c-0.1,0.4-0.3,0.7-0.5,0.9 c-0.4,0.4-1.1-0.1-0.8-0.6c0.2-0.4,0.4-1,0.1-1.4c-1.2-2.1,1.9-3,2.2-4.9c0.3-1.8-0.1-3.9-0.3-5.6c-0.2-1.5-0.3-2.7,0.7-4 c0.6-0.9,1.4-1.7,1.7-2.7c0.2-0.8,0.1-1.6,0.1-2.4c-0.1-0.8-0.1-1.7,0.1-2.4c0.6-1.6,2.4-1.3,3.2-2.6 c0.8-1.2,0.1-2.9,1.6-3.7C245.6,255.9,246.7,256.2,247.5,256.9z" class="st7"/><path d="M262.6,297.7c-2.1-1.3-1.1-5.8-0.3-8.5c0.4-1.3,0.8-2.2,0.8-2.2l0,0l-11.1-5.7c1.4,5.9,0,14,0,14" class="st5"/><path d="M258.4,287c0,0,1.4,2.1,3.9,2.2c0.4-1.3,0.8-2.2,0.8-2.2l0,0H258.4z" class="st7"/><path d="M253.3,284.7c-3.4-2.2-6.3-5.4-7.1-10.2c-1.3-8.6-1.2-16.5,13.6-15.6c6.5,0.4,9,6.8,9,8.8 c-0.1,4.7,3.6,12.9-1,19.7c-0.7,1-5.2,1-9.9-0.6" class="st5"/><path d="M261.2,269.1c0,0-2.3-0.9-3.7,2.6" class="st3"/><path d="M266,268.7c0,0,1.3-1.1,2.8-0.9" class="st3"/><path d="M265.7,273.7c1.2,2,2.7,1,2.6,2c-0.1,0.8-2,2.3-2,2.3" class="st3"/><path d="M259.4,273.7c0.1,0.5,0.5,0.9,0.9,0.8c0.4-0.1,0.6-0.6,0.4-1.1c-0.1-0.5-0.5-0.9-0.9-0.8 C259.5,272.7,259.3,273.2,259.4,273.7z" class="st7"/><path d="M266.5,272.4c0.1,0.5,0.5,0.9,0.8,0.9c0.4-0.1,0.6-0.6,0.5-1.1s-0.5-0.9-0.8-0.9 C266.7,271.3,266.5,271.8,266.5,272.4z" class="st7"/><path d="M262.4,279.9c0,0,1.4,3.3,3.3,2.7c0.9-0.3,0.6-2.8,0.6-2.8" class="st15"/><path d="M259.9,262.5c0,0-0.4-0.8-1.1,0.8c-0.7,1.6,2.3,3.2,0,4.4s-2.4,4.1-1.3,5.2c1.1,1.1-1.8,1.7-2.2,2.7 c-0.4,1.1,0.8,2,0.5,3.3c-0.3,1.3-2,2.6-1.9,3.3c0,0.7,1.5,1.8,0.5,3c-1,1.2-3.8,0.5-4.1,2.9c0,0-8.5-9.4-8.6-18.2 c-0.1-8.8,6.2-12.4,12.7-13s16.5,2.6,17.3,13.8c0,0-0.3-0.7-1.5-0.9c-1.2-0.2-1.8-1.8-1.6-3.5c0.1-1.8-1-0.7-2.7-1.1 c-1.6-0.4-1.1-2.7-2.2-3.1C262.6,261.8,261.8,264,259.9,262.5z" class="st7"/><path d="M265.8,258.7c0.1,1.1,3.4,0.1,5.1,1.1c1.7,0.9,1.3,2.6,1.1,3.5c-0.1,0.9,1.4,2.2,2.7,2.9 c1.3,0.7,1.3,2.3-0.4,3.7c-1.6,1.4-0.2,1.8,1.3,3.1c1.5,1.3,1.5,2.8,0,3.8" class="st3"/><path d="M261.2,261.8c0,0-2.8,0.5-1.9,2.1s1.9,3.5-0.4,5.2c-2.4,1.7,1,3.7-0.5,5.2c-1.5,1.6-3,1.5-1.9,4 c1.1,2.6-0.9,3.2-0.9,3.2" class="st3"/><path d="M267,279.6c0,0-2.7,0.7-4.8,0.2" class="st3"/></g><path d="M280.4,298.3c-2.3,2.2-5,4.1-8,5.4c-3.6,1.7-7.7,2.6-12,2.6c-1.2,0-2.3-0.1-3.4-0.2 c-7.7-0.9-14.4-4.8-19-10.5c0.2-0.5,0.4-0.9,0.7-1.1c3.1-2,9.1-0.5,9.1-0.5s0.4,0.3,1.2,0.8c3.9,2.6,16,10.2,19.8,7.3 c3-2.3,2.2-5,1.4-6.6c-0.4-0.8-0.9-1.3-0.9-1.3S274.4,292.2,280.4,298.3z" class="st4"/></g></g><g><ellipse cx="285.4" cy="296.3" class="st7" rx="10" ry="10" transform="matrix(0.7071 -0.7071 0.7071 0.7071 -125.8877 288.6011)"/><path d="M287.2,301.5h-3.6c-1.9,0-3.5-1.6-3.5-3.5v-3.6c0-1.9,1.6-3.5,3.5-3.5h3.6c1.9,0,3.5,1.6,3.5,3.5v3.6 C290.7,300,289.1,301.5,287.2,301.5z" class="st16"/><path d="M287.4,296.3c0,1.1-0.9,1.9-1.9,1.9c-1.1,0-1.9-0.9-1.9-1.9c0-1.1,0.9-1.9,1.9-1.9 C286.5,294.3,287.4,295.2,287.4,296.3z" class="st16"/><path d="M289,293.7c0,0.4-0.3,0.6-0.6,0.6c-0.4,0-0.6-0.3-0.6-0.6c0-0.4,0.3-0.6,0.6-0.6 C288.7,293,289,293.3,289,293.7z" class="st17"/></g></g><path d="M337.2,273.5h-36.5c-2.1,0-3.9,1.7-3.9,3.9c0,2.1,1.7,3.9,3.9,3.9h36.5c2.1,0,3.9-1.7,3.9-3.9 C341,275.3,339.3,273.5,337.2,273.5z" class="st7"/><path d="M390.2,246.3h-26.3c-1.5,0-2.8,1.2-2.8,2.8c0,1.5,1.2,2.8,2.8,2.8h26.3c1.5,0,2.8-1.2,2.8-2.8 C393,247.5,391.7,246.3,390.2,246.3z" class="st18"/><line x1="351" x2="351" y1="239.5" y2="463.1" class="st19"/><g><circle cx="248.3" cy="343.5" r="13.2" class="st20"/><path d="M266.2,352.1c0,2.6-2.1,4.7-4.7,4.7c-2.6,0-4.7-2.1-4.7-4.7c0-2.6,2.1-4.7,4.7-4.7 C264.1,347.4,266.2,349.5,266.2,352.1z" class="st4"/></g><g><circle cx="248.3" cy="387" r="13.2" class="st20"/><path d="M266.2,395.6c0,2.6-2.1,4.7-4.7,4.7c-2.6,0-4.7-2.1-4.7-4.7c0-2.6,2.1-4.7,4.7-4.7 C264.1,390.9,266.2,393,266.2,395.6z" class="st4"/></g><g><ellipse cx="248.3" cy="430.5" class="st20" rx="13.2" ry="13.2" transform="matrix(0.7071 -0.7071 0.7071 0.7071 -231.7037 301.6831)"/><path d="M266.2,439.1c0,2.6-2.1,4.7-4.7,4.7c-2.6,0-4.7-2.1-4.7-4.7c0-2.6,2.1-4.7,4.7-4.7 C264.1,434.4,266.2,436.5,266.2,439.1z" class="st4"/></g><g class="st21"><g><rect width="171.7" height="51.2" x="364.3" y="260.7" class="st22"/><rect width="171.7" height="51.2" x="364.3" y="396" class="st22"/><rect width="171.7" height="51.2" x="364.3" y="316.5" class="st22"/></g></g><g><g><defs><rect id="XMLID_95_" width="171.7" height="51.2" x="361.1" y="258.5"/></defs><use xlink:href="#XMLID_95_" style="overflow:visible;fill:#5ae4a7"/><clipPath id="XMLID_8_"><use xlink:href="#XMLID_95_" style="overflow:visible"/></clipPath><rect width="171.7" height="51.2" x="361.1" y="258.5" class="st23"/><use xlink:href="#XMLID_95_" style="overflow:visible;fill:none;stroke:#1a2e35;stroke-miterlimit:10"/></g><g><rect width="45.1" height="34.4" x="367.1" y="263.7" class="st7"/><polygon points="412.2 289.8 412.2 298.1 367.1 298.1 367.1 290.4 381.3 279.8 396 290.4 404.3 285.1" class="st24"/><path d="M400.8,273.4c0,2.5-2,4.5-4.5,4.5c-2.5,0-4.5-2-4.5-4.5s2-4.5,4.5-4.5 C398.8,268.9,400.8,270.9,400.8,273.4z" class="st24"/></g><path d="M386.3,301.3h-17.8c-1,0-1.9,0.8-1.9,1.9s0.8,1.9,1.9,1.9h17.8c1,0,1.9-0.8,1.9-1.9 S387.3,301.3,386.3,301.3z" class="st25"/><g><path d="M524.7,264.9H420.9c-1,0-1.9,0.8-1.9,1.9c0,1,0.8,1.9,1.9,1.9h103.7c1,0,1.9-0.8,1.9-1.9 C526.6,265.7,525.7,264.9,524.7,264.9z" class="st25"/><path d="M524.7,275.6H420.9c-1,0-1.9,0.8-1.9,1.9s0.8,1.9,1.9,1.9h103.7c1,0,1.9-0.8,1.9-1.9 S525.7,275.6,524.7,275.6z" class="st25"/><path d="M503.2,286.4h-82.2c-1,0-1.9,0.8-1.9,1.9c0,1,0.8,1.9,1.9,1.9h82.2c1,0,1.9-0.8,1.9-1.9 C505.1,287.2,504.2,286.4,503.2,286.4z" class="st25"/></g></g><path d="M390.2,381.6h-26.3c-1.5,0-2.8,1.2-2.8,2.8c0,1.5,1.2,2.8,2.8,2.8h26.3c1.5,0,2.8-1.2,2.8-2.8 C393,382.9,391.7,381.6,390.2,381.6z" class="st18"/><g><g><defs><rect id="XMLID_105_" width="171.7" height="51.2" x="361.1" y="393.9"/></defs><use xlink:href="#XMLID_105_" style="overflow:visible;fill:#5ae4a7"/><clipPath id="XMLID_9_"><use xlink:href="#XMLID_105_" style="overflow:visible"/></clipPath><rect width="171.7" height="51.2" x="361.1" y="393.9" class="st26"/><use xlink:href="#XMLID_105_" style="overflow:visible;fill:none;stroke:#1a2e35;stroke-miterlimit:10"/></g><g><rect width="45.1" height="34.4" x="367.1" y="399.1" class="st7"/><polygon points="412.2 425.1 412.2 433.5 367.1 433.5 367.1 425.7 381.3 415.2 396 425.7 404.3 420.4" class="st24"/><path d="M400.8,408.8c0,2.5-2,4.5-4.5,4.5c-2.5,0-4.5-2-4.5-4.5c0-2.5,2-4.5,4.5-4.5 C398.8,404.3,400.8,406.3,400.8,408.8z" class="st24"/></g><path d="M386.3,436.7h-17.8c-1,0-1.9,0.8-1.9,1.9s0.8,1.9,1.9,1.9h17.8c1,0,1.9-0.8,1.9-1.9 S387.3,436.7,386.3,436.7z" class="st25"/><g><path d="M524.7,400.2H420.9c-1,0-1.9,0.8-1.9,1.9s0.8,1.9,1.9,1.9h103.7c1,0,1.9-0.8,1.9-1.9 S525.7,400.2,524.7,400.2z" class="st25"/><path d="M524.7,411H420.9c-1,0-1.9,0.8-1.9,1.9s0.8,1.9,1.9,1.9h103.7c1,0,1.9-0.8,1.9-1.9S525.7,411,524.7,411z" class="st25"/><path d="M503.2,421.7h-82.2c-1,0-1.9,0.8-1.9,1.9c0,1,0.8,1.9,1.9,1.9h82.2c1,0,1.9-0.8,1.9-1.9 C505.1,422.6,504.2,421.7,503.2,421.7z" class="st25"/></g></g><g><g><defs><rect id="XMLID_104_" width="171.7" height="51.2" x="361.1" y="314.4"/></defs><use xlink:href="#XMLID_104_" style="overflow:visible;fill:#5ae4a7"/><clipPath id="XMLID_10_"><use xlink:href="#XMLID_104_" style="overflow:visible"/></clipPath><rect width="171.7" height="51.2" x="361.1" y="314.4" class="st27"/><use xlink:href="#XMLID_104_" style="overflow:visible;fill:none;stroke:#1a2e35;stroke-miterlimit:10"/></g><g><rect width="45.1" height="34.4" x="367.1" y="319.6" class="st7"/><polygon points="412.2 345.6 412.2 354 367.1 354 367.1 346.2 381.3 335.7 396 346.2 404.3 340.9" class="st24"/><path d="M400.8,329.3c0,2.5-2,4.5-4.5,4.5c-2.5,0-4.5-2-4.5-4.5c0-2.5,2-4.5,4.5-4.5 C398.8,324.8,400.8,326.8,400.8,329.3z" class="st24"/></g><path d="M386.3,357.2h-17.8c-1,0-1.9,0.8-1.9,1.9s0.8,1.9,1.9,1.9h17.8c1,0,1.9-0.8,1.9-1.9 S387.3,357.2,386.3,357.2z" class="st25"/><g><path d="M524.7,320.7H420.9c-1,0-1.9,0.8-1.9,1.9s0.8,1.9,1.9,1.9h103.7c1,0,1.9-0.8,1.9-1.9 S525.7,320.7,524.7,320.7z" class="st25"/><path d="M524.7,331.5H420.9c-1,0-1.9,0.8-1.9,1.9c0,1,0.8,1.9,1.9,1.9h103.7c1,0,1.9-0.8,1.9-1.9 C526.6,332.3,525.7,331.5,524.7,331.5z" class="st25"/><path d="M503.2,342.2h-82.2c-1,0-1.9,0.8-1.9,1.9s0.8,1.9,1.9,1.9h82.2c1,0,1.9-0.8,1.9-1.9 S504.2,342.2,503.2,342.2z" class="st25"/></g></g><path d="M325.7,341.7h-51.1c-1,0-1.9,0.8-1.9,1.9s0.8,1.9,1.9,1.9h51.1c1,0,1.9-0.8,1.9-1.9 S326.7,341.7,325.7,341.7z" class="st25"/><path d="M325.7,428.7h-51.1c-1,0-1.9,0.8-1.9,1.9s0.8,1.9,1.9,1.9h51.1c1,0,1.9-0.8,1.9-1.9 S326.7,428.7,325.7,428.7z" class="st25"/><path d="M325.7,385.2h-51.1c-1,0-1.9,0.8-1.9,1.9s0.8,1.9,1.9,1.9h51.1c1,0,1.9-0.8,1.9-1.9 S326.7,385.2,325.7,385.2z" class="st25"/></g><g><g><defs><path id="XMLID_92_" d="M475.8,170.4c15.3,5,52.4,24.9,58.8,33.4c6.4,8.5,1.8,26.2-12.3,30.7c-14.2,4.5-80.5,0-80.5,0 s-5.3,3.5-6.9,2c-1.6-1.5-2.2-25.8,3.4-25.6c4.5,0.2,6.3,2.3,6.3,2.3l28.9-5.5c0,0-9.7-11.4-9.7-23"/></defs><use xlink:href="#XMLID_92_" style="overflow:visible;fill:#5ae4a7"/><clipPath id="XMLID_11_"><use xlink:href="#XMLID_92_" style="overflow:visible"/></clipPath><path d="M522.3,234.4c-14.2,4.5-80.5,0-80.5,0s-5.3,3.5-6.9,2c-0.9-0.8-1.5-9-0.8-15.9c0.8,3.6,1.9,7.6,2.6,8.8 c1.4,2.3,6.8,0,6.8,0c-0.9-7.6,1.1-14.2,1.1-14.2l5.6,11.9c0,0,53.2,3.1,72.7-5.1c8.1-3.4,11.6-9.9,12.9-16.3 C540.3,214.6,535.5,230.2,522.3,234.4z" class="st28"/><path d="M489.4,204.3l-15.9,3.2c-0.2-0.3-1.6-2-3.3-4.6v0c0.2-4.2,0.8-9.8,2.6-12c3.1-3.7,2.5,5.9,5.3,11.3 c0,0,10.9-8.8,15.2-6.8C497.7,197.5,492.1,197.9,489.4,204.3z" class="st28"/><use xlink:href="#XMLID_92_" style="overflow:visible;fill:none;stroke:#1a2e35;stroke-linecap:round;stroke-linejoin:round;stroke-miterlimit:10"/></g><path d="M509.9,208c1.5,1.1,2.7,2.6,3.3,4.4" class="st3"/><path d="M473.6,207.6c11.2-1.8,22.1-7.2,33-1.6" class="st3"/><path d="M509.4,200.9c1.1,0.3,2.1,0.7,2.9,1.4" class="st3"/><path d="M488.9,204.2c3.8-4.7,11.4-4.5,16.8-4" class="st3"/><path d="M445.7,212.9c0,0-3.2,4.7-1.9,10.4" class="st3"/><path d="M466,201.5c1.4,1,2.9,1.8,4.6,2" class="st3"/><path d="M460.7,195.5c0.8,1.3,1.7,2.5,2.7,3.6" class="st3"/></g></g></g><rect width="733" height="500" class="st29"/></g></svg>