<svg xmlns="http://www.w3.org/2000/svg" width="168" height="168" viewBox="0 0 168 168">
  <g fill="none">
    <path fill="#4353FF" d="M168,10 L168,158 C168,163.522847 163.522847,168 158,168 L10,168 C4.4771525,168 6.76353751e-16,163.522847 0,158 L0,10 C-6.76353751e-16,4.4771525 4.4771525,1.01453063e-15 10,0 L158,0 C163.522847,-1.01453063e-15 168,4.4771525 168,10 Z"/>
    <path fill="#FFF" d="M113.888311,70.3391103 C113.888311,70.3391103 105.355484,97.1606008 104.72498,99.4378972 C104.472778,97.202773 98.2518014,49 98.2518014,49 C83.7081665,49 75.9739792,59.3743501 71.8546837,70.3391103 C71.8546837,70.3391103 61.4723779,97.2449451 60.6317054,99.4800693 C60.5896717,97.3714616 59.0344275,70.5921433 59.0344275,70.5921433 C58.1517214,57.1392259 45.9199359,49 36,49 L47.93755,122 C63.153723,121.957828 71.3502802,111.62565 75.6377102,100.618718 C75.6377102,100.618718 84.7590072,76.8757943 85.1373098,75.8214905 C85.2213771,76.8336222 91.6945556,122 91.6945556,122 C106.952762,122 115.191353,112.342577 119.604884,101.757366 L141,49 C125.909928,49 117.965572,59.3321779 113.888311,70.3391103 Z"/>
  </g>
</svg>
