<svg xmlns="http://www.w3.org/2000/svg" width="55" height="54" viewBox="0 0 55 54">
  <g fill="#FB6363" transform="translate(.1 -.2)">
    <path d="M43.5874764,16.3929469 L43.5751869,41.1972538 C43.5751869,42.35247 42.6166033,43.2987641 41.4490975,43.2987641 L2.52696324,43.2987641 C1.35945752,43.2987641 0.400873872,42.35247 0.400873872,41.1972538 L0.400873872,2.53222656 C0.400873872,1.37701037 1.35945752,0.430716258 2.52696324,0.430716258 L28.5141198,0.430716258 C29.6816255,0.430716258 30.6402091,1.37701037 30.6402091,2.53222656 L30.6402091,8.7571188 C30.6402091,11.0921303 32.4467706,12.9478499 34.8309402,12.9478499 L41.4613871,12.9478499 C42.6288928,12.9478499 43.5874764,13.894144 43.5874764,15.0493602 L43.5874764,16.3929469 Z" opacity=".1"/>
    <path d="M53.7063275,16.4007223 L43.8683122,6.64873384 C43.4996262,6.28004782 42.9957553,6.07112574 42.4795949,6.07112574 L38.6206813,6.07112574 L10.200197,6.07112574 C8.03723904,6.07112574 6.30441475,7.81623956 6.30441475,9.966908 L6.30441475,49.8854677 C6.30441475,52.0361362 8.04952857,53.78125 10.200197,53.78125 L50.3635742,53.78125 C52.5265322,53.78125 54.247067,52.0607152 54.2593565,49.9346259 L54.2962251,17.7894397 C54.2839356,17.2855688 54.0750135,16.7816979 53.7063275,16.4007223 Z M42.2092252,8.67650694 L51.3098683,17.7648606 C51.6908439,18.1458361 51.4204742,18.7848919 50.8920242,18.7848919 L43.5979425,18.7848919 C42.2706728,18.7848919 41.1891938,17.7034129 41.1891938,16.3761433 L41.1891938,9.09435109 C41.1891938,8.5536116 41.8405391,8.29553138 42.2092252,8.67650694 Z M51.8874764,24.3929469 L51.8751869,49.1972538 C51.8751869,50.35247 50.9166033,51.2987641 49.7490975,51.2987641 L10.8269632,51.2987641 C9.65945752,51.2987641 8.70087387,50.35247 8.70087387,49.1972538 L8.70087387,10.5322266 C8.70087387,9.37701037 9.65945752,8.43071626 10.8269632,8.43071626 L36.8141198,8.43071626 C37.9816255,8.43071626 38.9402091,9.37701037 38.9402091,10.5322266 L38.9402091,16.7571188 C38.9402091,19.0921303 40.7467706,20.9478499 43.1309402,20.9478499 L49.7613871,20.9478499 C50.9288928,20.9478499 51.8874764,21.894144 51.8874764,23.0493602 L51.8874764,24.3929469 Z"/>
    <path d="M35.4832862,33.5010768 C34.6783802,33.0357405 33.8483209,32.5326743 33.1943348,31.9289948 C31.4461796,30.2940295 29.9872875,28.0176548 29.0817683,25.5400535 C29.1446516,25.3010971 29.1949582,25.0998706 29.2452648,24.8860674 C29.2452648,24.8860674 30.226244,19.2894555 29.9747109,17.3903804 C29.9369809,17.1262707 29.9118276,17.0633874 29.8489443,16.8495842 L29.7609077,16.6232044 C29.4967979,16.0069483 28.9685784,15.2900789 28.1385191,15.3152322 L27.6606062,15.2397723 L27.6480295,15.2397723 C26.7299336,15.2397723 25.9753342,15.7679918 25.7866844,16.4848612 C25.1830049,18.685776 25.8118377,22.0060132 26.9185834,26.2820763 L26.641897,26.9989456 C25.8495677,28.9483273 24.8308585,30.9228623 23.9504926,32.6458642 L23.8373027,32.8848207 C22.9066302,34.7084358 22.0514176,36.2553645 21.2968182,37.5633367 L20.5170655,37.9783663 C20.4541823,38.0035197 19.1084801,38.7329657 18.781487,38.9090389 C16.0900826,40.5188509 14.3041975,42.342466 14.0023577,43.8013581 C13.9017445,44.2666944 13.9772044,44.8577972 14.4551173,45.121907 L15.2222933,45.4992066 C15.5492864,45.6752798 15.9014328,45.7507398 16.2661558,45.7507398 C18.1778075,45.7507398 20.4164523,43.3611751 23.4851564,38.0160963 C27.0317734,36.859044 31.0688799,35.9032181 34.6029203,35.3749986 C37.2943247,36.8841973 40.6145619,37.9406364 42.7148634,37.9406364 C43.0795864,37.9406364 43.4065795,37.9029064 43.6706893,37.8274465 C44.0731423,37.7268332 44.412712,37.5004534 44.6139385,37.186037 C45.0163915,36.5697809 45.104428,35.7397216 44.9912381,34.8593557 C44.9535082,34.5952459 44.7522817,34.2808295 44.5384785,34.079603 C43.9222224,33.4633468 42.5387902,33.1489304 40.4510653,33.1237771 C38.9921732,33.1237771 37.281748,33.2495437 35.4832862,33.5010768 Z M15.8385495,44.3295776 C16.1906959,43.3737518 17.574128,41.4746767 19.624123,39.8019815 C19.7624662,39.7013682 20.0643059,39.3995285 20.3661457,39.122842 C18.2155375,42.5311158 16.7817987,43.9019713 15.8385495,44.3295776 Z M27.9750226,16.384248 C28.5912787,16.384248 28.9434251,17.9437533 28.9685784,19.3900688 C28.9937317,20.8489609 28.6667386,21.86767 28.2265557,22.634846 C27.8744093,21.5155236 27.7109128,19.7547918 27.7109128,18.5977394 C27.7109128,18.5977394 27.6857595,16.384248 27.9750226,16.384248 Z M24.3529456,36.2930944 C24.7805519,35.5133418 25.2207349,34.7084358 25.6860712,33.8532232 C26.8053935,31.7529216 27.5096863,30.092803 28.0379058,28.7471008 C29.0817683,30.6335992 30.3771639,32.2434112 31.9115159,33.5513834 C32.1001657,33.71488 32.3013922,33.8657998 32.5151954,34.0292964 C29.383608,34.6329758 26.7047803,35.3875752 24.3529456,36.2930944 Z M42.9789732,35.1486187 C44.0857189,35.4253052 44.0982956,35.9912547 43.9096457,36.1170213 C43.7209959,36.2427878 43.1801997,36.3056711 42.8280533,36.3056711 C41.7087309,36.3056711 40.3127221,35.7900282 38.3759171,34.9599689 C39.1305164,34.8970856 39.8096559,34.8719323 40.425912,34.8719323 C41.5452344,34.8719323 41.8722275,34.8719323 42.9789732,35.1486187 Z"/>
  </g>
</svg>
