<svg version="1.1" id="Layer_1" xmlns="http://www.w3.org/2000/svg" x="0" y="0" viewBox="0 0 396.8 396.8" xml:space="preserve"><style>.st0{fill:none;stroke:#000;stroke-width:13;stroke-miterlimit:10}</style><path class="st0" d="M178 310.7L85.3 218 236.7 66.5c24.8-24.8 56.4-41.8 90.8-48.9l52.1-10.7c4.7-1 8.8 3.1 7.9 7.8l-9.8 52c-6.7 35.6-23.9 68.3-49.5 93.9L178 310.7z"/><circle class="st0" cx="258.7" cy="138.5" r="31.8"/><path class="st0" d="M306 24.8s6.7 54 65.5 65.5M144.2 318.7l-65.6-65.6 27.2-13.8 52.2 52.2zm32.1-193.5l-38.8-12.1-91.4 91.4 38.8 12.1m183.7.9l12 38.8-91.4 91.4-12.1-38.8"/><path d="M34.7 322l-24.5 24.6m44.1-44.2l-6 6M73.7 283l-9.4 9.4M89.1 355l28.3-28.3m-40.6 40.6l2.5-2.5m-25.4 25.4l9.3-9.3m35-76l-71.8 71.7" stroke-linecap="round" stroke-linejoin="round" fill="none" stroke="#000" stroke-width="13" stroke-miterlimit="10"/></svg>