<svg xmlns="http://www.w3.org/2000/svg" xmlns:xlink="http://www.w3.org/1999/xlink" id="OBJECTS" x="0" y="0" version="1.1" viewBox="0 0 430.3 299.1" xml:space="preserve" style="enable-background:new 0 0 430.3 299.1"><style type="text/css">.st0{fill:#7105ff}.st1{fill:#d7d9ff}.st2{fill:#2a284c}.st3{fill:#91616a}.st4{fill:#fff}.st5{fill:#d98e9d}.st6{fill:#dfc0cd}.st7{fill:#444bcc}.st8{fill:#ead18c}.st9{clip-path:url(#SVGID_2_)}.st10{fill:#e37d75}.st11{fill:#f9e898}.st12{clip-path:url(#SVGID_4_)}.st13{fill:#f4d0e0}.st14{clip-path:url(#SVGID_6_)}.st15{fill:#ea9e42}</style><g><g><path d="M59.2,59.3c-1.8-0.7-3.7-0.9-5.6-0.7c-1.7,1.6-4.7,2-7,2.2c-2.3-2.3-5.2-4.4-8.1-5.9c-1.9-1-4.2-2-4.8-4.1 c-1-3.3-6.7-4.7-10.1-3.9c-4.3-1.2-9.2,0.3-12.7,3.2c-1.5,1.2,0.2,4.3,1.5,5.8s3,3.1,2.6,5c-1.6,0.8-3.8,0.9-5.5,0.8 c-1.1,0-2.1-0.3-3.1,0.1C5.5,62,4.7,63.1,5,64c-0.7,1.2-1.5,1.8-0.7,3C4.9,67.9,6,68.6,6,69.7c0,0.9-0.7,1.6-1.5,1.9 c-0.8,0.4-1.6,0.6-2.4,1c-2.3,1.4-2.3,4.7-2,7.4c1.5,1.8,1.7,4.9,1,7.1c-0.3,0.8-0.7,1.7-0.4,2.6c0.3,1,1.5,1.3,2.4,1.6 c2.1,0.5,4.6,1,6.2-0.4c4.4-3.6,11.2-1.8,16.8-0.5c1.9,0.4,3.9,1.1,5.1,2.8c1.5,2.2,0.9,5.2-0.4,7.5c-1.2,2.3-3,4.4-3.8,6.9 c-0.7,2.4-0.5,4.9-0.3,7.3c0.3,3,0.6,6.2,2.3,8.7c1.8,2.6,3,6.5,2.8,9.6c-0.1,2.5-1,5.1-0.8,7.6c0.4,4.6,4.4,8.1,8.5,10.3 c4.3,2.3,7.9,6.3,9.4,10.9c0.7,2.3,1,4.8,1.6,7.1c1.1,4.1,3.6,7.7,6.9,10.4c2.4,1.9,6.3,2.6,9.4,3.1c1.6,0.3,3.3,0.5,4.4,1.6 c0.5,0.5,0.9,1.1,1.5,1.6c2.5,2.5,7.2,1.5,9.7,3.9c0.7,0.6,1.1,1.5,1.7,2.2c1.6,1.9,4.1,3,6.5,2.8c-0.6,1.9,1.7,4.1,1,5.9 c-0.6,1.5-2.2,2.1-3.4,3.2c-2,1.9-2.3,5-1.5,7.6c0.9,2.6,2.7,4.7,4.5,6.8c3.4,3.8,7.5,5.6,11.2,9.1c3.4,3.2,4.2,8.5,3.4,13.1 c-0.8,4.6-2.8,9-4.2,13.5c-2.7,8.4-3.4,17.6-0.8,26s8.7,15.9,16.8,19.2c0.9,0.4,2-0.3,2.7-1s0.8-1.9,0.3-2.7c-1.5-2.7-4.1-5-6-7.4 c-0.6-0.8-1.2-1.6-1.2-2.6c0.1-1.1,1-1.9,1.7-2.7c1-1.3,1.6-2.9,1.6-4.6c0-1.6-0.9-3.1-0.9-4.6c0.1-1.5,0.9-3.2,2.4-3.7 c0.7-0.2,1.4-0.2,2.1-0.5c2.1-0.9,1.8-4.2,3.3-5.9c0.7-0.8,1.8-1.2,2.7-1.7c4.1-2,7.5-5.9,7.9-10.4c0.3-3.6-1-8,1.7-10.4 c2.5-2.2,6.4-0.7,9.7-1.3c1.3-0.2,2.2-1.5,2.9-2.7c0.6-1.2,0.7-2.6,0.5-4c-0.3-1.7-1-3.3-0.8-4.9c0.2-2.3,2.1-4.2,3.5-6 c1.7-2.2,2.9-4.8,3.5-7.5c0.7-3.1-1.3-6.8-4.1-8.3s-6.1-1.6-9.3-1.7c-3.2-0.1-6.6-0.3-9.2-2.2c-2.4-1.7-3.7-4.4-5.6-6.7 c-3.2-3.8-7.8-5.9-12.3-8c-1.7-0.8-3.6-1.6-5.3-1c-0.7,0.2-1.3,0.7-2,0.8c-2,0.4-3.6-1.5-5.3-2.4c-3.7-2-8.9,0.9-9.3,5 c-1.9,0.7-5.4,0.1-6.5-1.6c-0.8-1.2-1.1-2.9-2.4-3.5c-0.7-0.3-1.6-0.2-2.2-0.7c-1-0.8-0.2-2.4,0-3.6c0.3-2-1.2-3.9-3.1-4.8 c-1.8-0.9-4-1-6-1c-2-0.1-4.2-0.2-6-1.1c-3.6-1.8-5-6.6-3.5-10.3c1.6-3.7,5.6-5.9,9.6-5.8c3.9,0.1,8,3,8,6.9c0,1,1.6,1.1,2.5,0.6 s1.3-1.5,1.5-2.4c0.2-1,0.2-2,0.5-2.9c0.7-2.2,2.9-3.8,5.2-3.8c2.4,0,4.1-2.4,5.8-4c1.7-1.7,2.7-4.2,2-6.5 c-0.4-1.2-1.2-2.5-0.8-3.7c0.3-1,1.3-1.5,2.2-1.9c2.6-1.1,5.4-1.6,8.2-1.5c2.4,0.1,3.7-1.4,4.9-3.5c0.9-1.5,1.3-3.4,2.7-4.4 c2.1-1.5,5.1-0.2,7.7-0.4c3.8-0.3,6.8-4.6,5.7-8.2c-0.5-1.8-1.7-3.2-2.7-4.7c-1.4-2.1-2.3-4.5-2.8-6.9c-0.5-2.3-0.6-4.8-2.1-6.5 c-2.3,0.1-5.2,0-7.2,1.1c-0.4-2.4-0.9-4.9-2.3-6.8c-1.5-1.9-4.3-3-6.4-1.8c-2,1.2-2.5,4-2.1,6.3s1.3,4.6,1.3,6.9 c-0.1,2.4-1.7,5-4.1,4.9c-1.2,0-2.3-0.8-3.2-1.7c-1.2-1.2-2.2-2.8-3.8-3.6c-1.2-0.6-2.6-0.6-3.9-0.9c-4.5-1-7.6-6.1-6.3-10.6 c1.2-4.4,6.5-7.2,10.9-5.8c5.3-1.9,7.4-8.6,5.3-13.8c-2.1-5.2-7.8-8.4-13.4-8.7c-1.6-0.1-3.3,0.1-4.9-0.3 c-4.5-1.1-6.9-6.1-10.8-8.6C68,58.8,62.1,60.4,59.2,59.3z" class="st0"/><path d="M130.2,43.2c-1.7,2.6,0.2,6.2,2.7,8.1s5.7,3,7.7,5.5c3.2,3.9,2.3,9.8,0.5,14.5s-4.2,9.6-3.6,14.6 c0.3,2.4,1.3,4.6,2.5,6.7c1.2,2,2.9,3.9,5.2,4.4c2.9,0.7,5.8-1,7.9-3c2.2-2,4.1-4.4,6.7-5.7c3.8-1.9,8.7-1.2,12-3.8 c4.1-3.3,3.5-9.5,4.6-14.7c1.9-8.6,9.4-15,12.3-23.3c0.6-1.6,1-3.3,0.9-5.1c-0.1-5.6-4.8-10.2-10.1-12.1 c-6.5-2.3-13.1-0.9-19.7-1.2c-3.6-0.2-7.6-1.7-11.1-0.2c-5.4,2.3-3.8,7.6-7.4,10.8C138.3,41.6,132.6,39.5,130.2,43.2z" class="st0"/><path d="M276.3,77c-3.1-3-8.2-0.1-11.4,2.8c-3.2,2.9-6.4,5.7-9.6,8.6c-2.4,2.2-5,4.4-8.2,4.9s-7-1.5-7.1-4.7 c2.2-2.1,6.5,1,8.5-1.2c1.8-2-0.8-4.8-3.1-6.1c-4.2-2.4-8.5-4.9-13.4-5.6c-4.8-0.7-10.3,1-12.8,5.1c-2.1,3.6-1.7,8.2-3.9,11.8 c-1.3,2.2-3.5,3.8-5,6c-1.5,2.1-2.1,5.3-0.3,7.2c1.5,1.5,4,1.5,5.5,3c1.1,1.2,1.5,3.1,3,3.7c1.7,0.7,3.6-0.9,4-2.7 c0.4-1.8-0.2-3.7-0.5-5.5c-0.9-5.4,1.9-12.1,7.3-12.9c1.2,0,1.7,1.8,1.1,2.9c-0.6,1.1-1.6,1.9-2.2,3c-1.1,2.1,0.2,5,2.4,5.6 c2.4,0.6,6.3,0.1,6,2.5c-0.3,2.6-5.1,0.9-6.6,3c-0.9,1.2-0.1,3-0.1,4.5c0,3-3.3,4.9-6.3,5.2c-3,0.2-6-0.7-9-0.4 c-3,0.3-6.2,2.4-6.1,5.4c-4.1,1.9-8.4,3.5-12.8,4.7c0.2,3.2,6.3,3.5,6.3,6.8c0,1.9-2.4,3-4.4,2.8c-1.9-0.1-3.9-0.9-5.8-0.4 c-3.3,0.9-4.4,5.4-2.6,8.3c1.8,2.8,5.5,4,8.9,3.7c1.3-0.1,2.8-0.5,3.6-1.5s0.9-2.4,1.2-3.6c0.8-2.8,3.1-5.1,5.9-5.7 c1.6-0.4,3.5-0.4,4.4-1.8c3.6,2,6.2,5.8,6.6,9.9c1.2,1.5,3.8-0.4,3.5-2.3c-0.3-1.9-1.9-3.2-3.2-4.6c-1.3-1.4-2.4-3.5-1.4-5.1 c6.2,1.8,11.2,7.2,12.6,13.5c2.2-0.4,3.4-3.4,2.1-5.2c0.7-1.5,3.1-0.6,3.8,0.8c0.7,1.5,0.6,3.3,1.7,4.6c2.9,3.8,10.8-0.8,13.2,3.3 c1.7,2.9-2.1,6.3-5.5,6.2c-3.3-0.1-6.4-2-9.7-2.3c-3.7-0.4-7.3,1.2-10.9,1.6c-3.7,0.4-8.2-1-9-4.6c-0.2-1-0.1-2-0.6-2.9 c-0.7-1.2-2.4-1.5-3.8-1.3c-6.1,0.7-12.3,7-17.4,3.5c-3.2,6.3-11.1,8.6-15.5,14.2c-4.8,6-4.4,15.3,0.3,21.4c4.6,6.1,12.9,9,20.5,8 c1.7-0.2,3.6-0.6,5.2,0.1c1.6,0.7,2.6,2.2,4,3.3c1.3,1.1,3.6,1.7,4.7,0.3c-1.3,3.2-0.9,6.9,0.9,9.8c2,3.1,5.7,5.5,5.6,9.2 c0,1.9-1.1,3.6-1.7,5.4c-2.4,8.4,7.5,15.2,9.1,23.8c0.4,2.3,0.4,5.1,2.4,6.4c0.9,0.6,2,0.7,3.1,0.8c5.5,0.4,12.5-1.3,13.6-6.7 c0.3-1.5,0.1-3.1,0.1-4.7c0.1-4.7,3-9.2,7.2-11.3c1.1-0.6,2.4-1,3.3-1.9c2-2,1.6-5.3,0.5-7.9c-1-2.6-2.5-5.2-2.2-8 c0.6-4.5,5.4-6.8,9-9.5c5.5-4,9.2-10.3,10.2-17c-5,1.6-11.2,2.9-15-0.7c-1.3-1.3-2.1-2.9-2.9-4.6c-2.4-5-4.7-9.9-7.1-14.9 c-0.3-0.7-0.6-1.4-0.4-2.1c0.7-1.8,3.5-0.3,4.5,1.3c3.8,5.9,7.2,12,10.2,18.4c6.1-1.1,12-3.7,17-7.4c1.6-1.2,3.2-2.6,3.7-4.5 s-0.5-4.4-2.4-4.7c-0.8-0.1-1.5,0.1-2.3,0.1c-4.6,0.5-8.6-3-11.7-6.6c2.1-2.3,5.8-1,8.7,0.3c5.1,2.3,10.4,4,15.9,4.9 c1.4,0.2,2.8,0.4,4,1.1c0.9,0.4,1.6,1.1,2.3,1.7c6.3,5.8,11,13.4,13.4,21.7c2.4,0.5,4.1-2.4,4.3-4.9s-0.1-5.3,1.7-7 c1.4-1.4,3.7-1.5,4.9-3.1c1.5-1.9,0.7-5.1,2.5-6.8c2.3-2.1,5.9,0.5,7.1,3.3s1.6,6.3,4.2,8c1.4-0.2,2.7-0.4,4.1-0.6 c0,6.9,2.4,13.8,6.7,19.3c2.3-1.2,1.3-4.8-0.2-7s-2.9-5.5-0.8-7.1c2.9,0,4.2,4,7,4.7s5.3-2.6,4.8-5.5c-0.5-2.8-2.9-4.9-5.4-6.3 c-2.3-2.5,1-6.4,4.3-7s6.9,0.4,9.9-1.1c3.6-1.8,4.8-6.5,4-10.4s-3.1-7.3-5-10.8c-1.6-3-2.4-7.7,0.7-9c0.8-0.4,1.8-0.3,2.7-0.4 c11.9-0.5,21.8-13.1,19.4-24.8c-0.5-2.2-1.3-4.4-2.9-6c-2.8-2.9-7.6-3.6-9.8-7c-2.6-4.2,0.6-9.8,4.8-12.5c4.1-2.7,9.2-3.9,13.1-7 c1,0,1.6-1,1.8-2.1c0.1-0.6,0-1.3,0-1.9c0-1.8,1.3-3.5,3-4s3.7,0.2,4.7,1.8c1.2,1.9,0.7,4.3-0.2,6.3c-0.9,2-2.1,4-2.3,6.1 c-0.2,2.2,1,4.7,3.2,5c2.7,0.3,4.4-2.9,4.6-5.5c0.2-2.7-0.3-5.6,1.1-7.9c2.2-3.4,8.2-4.2,8.4-8.3c0.1-3.3-4-5.2-4.8-8.4 c-0.3-1.3,0-2.6,0.1-4c0.5-4.9-1.7-10.1-5.6-13.1c-3.9-3.1-9.3-4.1-14.1-2.5c-1.5,0.5-3,1.3-4.6,1.7c-2.3,0.6-4.7,0.4-7.1,0.3 c-4.3-0.3-8.5-0.6-12.8-0.9c-3.8-0.3-7.9-0.5-11.2,1.3c-4.9,2.6-7.7,9.1-13.3,9.7c-3.9,0.5-7.4-2.2-11.1-3.7 c-5.9-2.3-13.1-1.2-18,2.8c-1.9-0.9-1.3-3.7-1.9-5.7c-0.7-2.1-2.9-3.3-5.1-3.5s-4.3,0.5-6.4,1.1c-4.5,1.5-9.6,3.9-10,8.6 c-0.1,1.3,0.2,2.7-0.4,3.9c-0.8,1.7-2.9,2.3-4.2,3.6c-1.6,1.6-1.8,4-1.9,6.3c-0.1,2.2-0.1,4.6-1.4,6.5 C284.7,77.7,277.9,78.6,276.3,77z" class="st0"/><path d="M359.7,206c1,1.5,2.7,2.4,4.4,3.1c2,0.9,4.5,1.5,6.3,0.3c1.2-0.8,5.4-6.6,5.7-7.8c0.6-2.4-0.2-2.3-2.6-2.7 C369.5,198,355.2,199.5,359.7,206z" class="st0"/><path d="M345.6,205.2c5.5,10.1,16.9,16.7,28.4,16.6c0.8-0.8-0.4-2.1-1.4-2.5c-2.9-1.2-6-1.8-9-2.9 c-3-1-5.9-2.6-7.7-5.2c-0.7-1.1-1.2-2.3-1.8-3.5c-1.7-3.4-8.6-11.9-12.9-9.8C342.3,200.1,344.2,202.7,345.6,205.2z" class="st0"/><path d="M375.7,228.7c-1.5,1.7-2.9,3.7-5,4.2c-1.3,0.3-2.6,0-3.9,0.3c-3.8,0.9-4.6,5.9-3.8,9.7 c0.9,3.8,2.6,7.7,1.2,11.3c-0.3,0.7-0.7,1.4-0.7,2.2c0,0.9,0.7,1.7,1.4,2.3c3.4,2.6,8.3,0.7,12.1-1.3c3.8-2,8.3-4.3,12.1-2.2 c4,2.2,4.4,7.8,6.9,11.6c2.2,3.4,7,5.4,10.4,3.3c1.2-0.7,2-1.8,2.8-2.9c1.7-2.2,3.4-4.5,5.1-6.7c2.3-2.9,4.6-6.1,5-9.8 c0.8-7.1-5.5-12.8-11.2-17.2c-0.3-2.3-0.6-4.6-1.8-6.6c-2.3-4-7.1-4.4-5.8,1.2c-3.7,0.1-6.7-5.4-10.9-5.9 C384.8,221.6,378.9,225.1,375.7,228.7z" class="st0"/></g><g><path d="M190,4.3h-31c-1.3,0-2.4,1.1-2.4,2.4s1.1,2.4,2.4,2.4h31c1.3,0,2.4-1.1,2.4-2.4S191.3,4.3,190,4.3z" class="st1"/><path d="M202.3,0h-31c-1.3,0-2.4,1.1-2.4,2.4s1.1,2.4,2.4,2.4h31c1.3,0,2.4-1.1,2.4-2.4C204.6,1.1,203.6,0,202.3,0z" class="st1"/><path d="M211.5,8.9h-31c-1.3,0-2.4,1.1-2.4,2.4s1.1,2.4,2.4,2.4h31c1.3,0,2.4-1.1,2.4-2.4S212.8,8.9,211.5,8.9z" class="st1"/></g><g><path d="M403.2,162.7h25.2c1.1,0,1.9-0.9,1.9-1.9c0-1.1-0.9-1.9-1.9-1.9h-25.2c-1.1,0-1.9,0.9-1.9,1.9 C401.3,161.9,402.1,162.7,403.2,162.7z" class="st1"/><path d="M393.2,166.2h25.2c1.1,0,1.9-0.9,1.9-1.9c0-1.1-0.9-1.9-1.9-1.9h-25.2c-1.1,0-1.9,0.9-1.9,1.9 C391.3,165.4,392.2,166.2,393.2,166.2z" class="st1"/><path d="M385.7,159h25.2c1.1,0,1.9-0.9,1.9-1.9c0-1.1-0.9-1.9-1.9-1.9h-25.2c-1.1,0-1.9,0.9-1.9,1.9 C383.8,158.1,384.6,159,385.7,159z" class="st1"/></g><g><path d="M309.8,268.3h-25.2c-1.1,0-1.9,0.9-1.9,1.9c0,1.1,0.9,1.9,1.9,1.9h25.2c1.1,0,1.9-0.9,1.9-1.9 C311.7,269.2,310.8,268.3,309.8,268.3z" class="st1"/><path d="M319.7,264.8h-25.2c-1.1,0-1.9,0.9-1.9,1.9c0,1.1,0.9,1.9,1.9,1.9h25.2c1.1,0,1.9-0.9,1.9-1.9 C321.6,265.7,320.8,264.8,319.7,264.8z" class="st1"/><path d="M327.3,272.1h-25.2c-1.1,0-1.9,0.9-1.9,1.9c0,1.1,0.9,1.9,1.9,1.9h25.2c1.1,0,1.9-0.9,1.9-1.9 C329.2,272.9,328.3,272.1,327.3,272.1z" class="st1"/></g><g><path d="M108.5,2.9H83.3c-1.1,0-1.9,0.9-1.9,1.9c0,1.1,0.9,1.9,1.9,1.9h25.2c1.1,0,1.9-0.9,1.9-1.9 C110.5,3.8,109.6,2.9,108.5,2.9z" class="st1"/><path d="M101,6.7H75.8c-1.1,0-1.9,0.9-1.9,1.9s0.9,1.9,1.9,1.9H101c1.1,0,1.9-0.9,1.9-1.9S102.1,6.7,101,6.7z" class="st1"/></g><path d="M69.7,274.2H44.5c-1.1,0-1.9,0.9-1.9,1.9c0,1.1,0.9,1.9,1.9,1.9h25.2c1.1,0,1.9-0.9,1.9-1.9 S70.8,274.2,69.7,274.2z" class="st1"/><path d="M29.5,246H11.9c-1.1,0-1.9,0.9-1.9,1.9c0,1.1,0.9,1.9,1.9,1.9h17.6c1.1,0,1.9-0.9,1.9-1.9 C31.4,246.8,30.6,246,29.5,246z" class="st1"/><path d="M38.2,242.2H20.7c-1.1,0-1.9,0.9-1.9,1.9c0,1.1,0.9,1.9,1.9,1.9h17.6c1.1,0,1.9-0.9,1.9-1.9 C40.2,243,39.3,242.2,38.2,242.2z" class="st1"/><path d="M184.4,247.6h-17.6c-1.1,0-1.9,0.9-1.9,1.9c0,1.1,0.9,1.9,1.9,1.9h17.6c1.1,0,1.9-0.9,1.9-1.9 C186.3,248.5,185.5,247.6,184.4,247.6z" class="st1"/><path d="M180.7,251.4h-17.6c-1.1,0-1.9,0.9-1.9,1.9c0,1.1,0.9,1.9,1.9,1.9h17.6c1.1,0,1.9-0.9,1.9-1.9 C182.6,252.3,181.7,251.4,180.7,251.4z" class="st1"/></g><g><g><path d="M55.3,97.8c0,6.9-5.6,12.5-12.5,12.5s-12.5-5.6-12.5-12.5s5.6-12.5,12.5-12.5S55.3,90.9,55.3,97.8z" class="st2"/><path d="M57.4,123.2c-0.6-7.5-6.9-13.4-14.5-13.4l0,0c-7.7,0-13.9,5.9-14.5,13.4H57.4z" class="st2"/><ellipse cx="42.8" cy="100.1" class="st3" rx="8.7" ry="8.7"/><g><path d="M37.7,100.7c0,1.8-1.5,3.3-3.3,3.3s-3.3-1.5-3.3-3.3s1.5-3.3,3.3-3.3C36.2,97.3,37.7,98.8,37.7,100.7z" class="st3"/><path d="M54.7,100.7c0,1.8-1.5,3.3-3.3,3.3s-3.3-1.5-3.3-3.3s1.5-3.3,3.3-3.3C53.2,97.3,54.7,98.8,54.7,100.7z" class="st3"/></g><path d="M42.8,117.8L42.8,117.8c-1.3,0-2.3-1-2.3-2.3v-8.6H45v8.6C45.1,116.7,44.1,117.8,42.8,117.8z" class="st3"/><path d="M38.4,100.8v1.4c0,2.4,2,4.4,4.4,4.4s4.4-2,4.4-4.4v-1.4H38.4z" class="st4"/><path d="M40.7,97.2c0,0.5-0.4,1-1,1c-0.5,0-1-0.4-1-1c0-0.5,0.4-1,1-1C40.2,96.2,40.7,96.7,40.7,97.2z" class="st2"/><path d="M46.5,97.2c0,0.5-0.4,1-1,1c-0.5,0-1-0.4-1-1c0-0.5,0.4-1,1-1S46.5,96.7,46.5,97.2z" class="st2"/></g></g><g><g><path d="M94,196.4c-0.6-7.5-6.9-13.4-14.5-13.4l0,0c-7.7,0-13.9,5.9-14.5,13.4H94z" class="st5"/><path d="M69.8,153.4c-2.7,1-4.1,3.9-3.1,6.6l4,11l9.7-3.5l-4-11C75.5,153.8,72.5,152.5,69.8,153.4z" class="st2"/><path d="M90.2,167.2c0,6-4.8,10.8-10.8,10.8s-10.8-4.8-10.8-10.8s4.8-10.8,10.8-10.8 C85.3,156.3,90.2,161.2,90.2,167.2z" class="st2"/><ellipse cx="79.3" cy="170.1" class="st6" rx="10.8" ry="10.8"/><g><path d="M73,170.8c0,2.3-1.9,4.1-4.1,4.1c-2.3,0-4.1-1.9-4.1-4.1c0-2.3,1.9-4.1,4.1-4.1S73,168.5,73,170.8z" class="st6"/><path d="M94,170.8c0,2.3-1.9,4.1-4.1,4.1c-2.3,0-4.1-1.9-4.1-4.1c0-2.3,1.9-4.1,4.1-4.1S94,168.5,94,170.8z" class="st6"/></g><path d="M79.3,192L79.3,192c-1.5,0-2.8-1.3-2.8-2.8v-10.7h5.6v10.7C82.1,190.7,80.9,192,79.3,192z" class="st6"/><path d="M73.9,171.3v0.4c0,3,2.5,5.5,5.5,5.5s5.5-2.5,5.5-5.5v-0.4H73.9z" class="st4"/><path d="M80.2,173c0,0.5-0.4,0.9-0.9,0.9s-0.9-0.4-0.9-0.9s0.4-0.9,0.9-0.9C79.8,172.1,80.2,172.5,80.2,173z" class="st7"/><g><path d="M77.1,166.4c0,0.6-0.5,1.1-1.1,1.1s-1.1-0.5-1.1-1.1s0.5-1.1,1.1-1.1C76.6,165.3,77.1,165.8,77.1,166.4z" class="st2"/><path d="M83.8,166.4c0,0.6-0.5,1.1-1.1,1.1s-1.1-0.5-1.1-1.1s0.5-1.1,1.1-1.1C83.3,165.3,83.8,165.8,83.8,166.4z" class="st2"/></g><path d="M79.3,176.2L79.3,176.2c-2.1,0-3.8-1.7-3.8-3.8v-0.5h7.6v0.5C83.2,174.5,81.4,176.2,79.3,176.2z" class="st4"/></g></g><g><g><path d="M142.8,246c-0.6-7.5-6.9-13.4-14.5-13.4l0,0c-7.7,0-13.9,5.9-14.5,13.4H142.8z" class="st8"/><path d="M134.3,204.5c0,3.6-2.9,6.4-6.4,6.4c-3.6,0-6.4-2.9-6.4-6.4c0-3.6,2.9-6.4,6.4-6.4 C131.4,198.1,134.3,200.9,134.3,204.5z" class="st2"/><circle cx="127.9" cy="217.3" r="10.8" class="st2"/><circle cx="127.9" cy="219.6" r="10.8" class="st5"/><g><path d="M121.5,220.3c0,2.3-1.9,4.1-4.1,4.1c-2.3,0-4.1-1.9-4.1-4.1c0-2.3,1.9-4.1,4.1-4.1 C119.7,216.2,121.5,218.1,121.5,220.3z" class="st5"/><path d="M142.5,220.3c0,2.3-1.9,4.1-4.1,4.1c-2.3,0-4.1-1.9-4.1-4.1c0-2.3,1.9-4.1,4.1-4.1 C140.7,216.2,142.5,218.1,142.5,220.3z" class="st5"/></g><path d="M127.9,241.5L127.9,241.5c-1.5,0-2.8-1.3-2.8-2.8V228h5.6v10.7C130.7,240.2,129.4,241.5,127.9,241.5z" class="st5"/><g><path d="M122.4,221.5v0.8c0,3,2.5,5.5,5.5,5.5c3,0,5.5-2.5,5.5-5.5v-0.8H122.4z" class="st4"/></g><path d="M125.2,216c0,0.7-0.5,1.2-1.2,1.2s-1.2-0.5-1.2-1.2s0.5-1.2,1.2-1.2C124.7,214.9,125.2,215.4,125.2,216z" class="st2"/><path d="M132.4,216c0,0.7-0.5,1.2-1.2,1.2s-1.2-0.5-1.2-1.2s0.5-1.2,1.2-1.2C131.9,214.9,132.4,215.4,132.4,216z" class="st2"/></g></g><g><g><ellipse cx="366" cy="149.2" class="st6" rx="11" ry="11"/><path d="M380.5,175.3c-0.6-7.5-6.9-13.4-14.5-13.4l0,0c-7.7,0-13.9,5.9-14.5,13.4H380.5z" class="st8"/><g><path d="M359.6,149.9c0,2.3-1.9,4.2-4.2,4.2c-2.3,0-4.2-1.9-4.2-4.2s1.9-4.2,4.2-4.2S359.6,147.6,359.6,149.9z" class="st6"/><path d="M380.9,149.9c0,2.3-1.9,4.2-4.2,4.2c-2.3,0-4.2-1.9-4.2-4.2s1.9-4.2,4.2-4.2S380.9,147.6,380.9,149.9z" class="st6"/></g><path d="M376.7,151.8c0.2-0.8,0.3-1.7,0.3-2.6s-0.1-1.8-0.3-2.6v-0.8c0-5.9-4.8-10.7-10.7-10.7l0,0 c-5.9,0-10.7,4.8-10.7,10.7v0.8c-0.2,0.8-0.3,1.7-0.3,2.6s0.1,1.8,0.3,2.6v1.2h0.4c1.6,4.2,5.6,7.1,10.3,7.1c4.7,0,8.7-3,10.3-7.1 h0.4L376.7,151.8L376.7,151.8z" class="st6"/><g><g><defs><path id="SVGID_1_" d="M376.7,151.8c0.2-0.8,0.3-1.7,0.3-2.6s-0.1-1.8-0.3-2.6v-0.8c0-5.9-4.8-10.7-10.7-10.7l0,0 c-5.9,0-10.7,4.8-10.7,10.7v0.8c-0.2,0.8-0.3,1.7-0.3,2.6s0.1,1.8,0.3,2.6v1.2h0.4c1.6,4.2,5.6,7.1,10.3,7.1 c4.7,0,8.7-3,10.3-7.1h0.4L376.7,151.8L376.7,151.8z"/></defs><clipPath id="SVGID_2_"><use xlink:href="#SVGID_1_" style="overflow:visible"/></clipPath><g class="st9"><path d="M370,134.9c0,6.3-5.1,11.4-11.4,11.4s-11.4-5.1-11.4-11.4c0-6.3,5.1-11.4,11.4-11.4 C364.9,123.5,370,128.6,370,134.9z" class="st2"/><ellipse cx="380.4" cy="134.9" class="st2" rx="11.4" ry="11.4"/></g></g></g><path d="M366,171.4L366,171.4c-1.6,0-2.8-1.3-2.8-2.8v-10.8h5.7v10.8C368.9,170.1,367.6,171.4,366,171.4z" class="st6"/><g><circle cx="362.3" cy="147.7" r="1.2" class="st2"/><circle cx="369.7" cy="147.7" r="1.2" class="st2"/></g><g><path d="M360.7,150.8v1.8c0,3,2.5,5.5,5.5,5.5s5.5-2.5,5.5-5.5v-1.8H360.7z" class="st4"/><path d="M366.1,158c2.2,0,4.2-1.4,5-3.3c-0.9-0.6-1.9-1-3.1-1c-2.3,0-4.2,1.5-4.9,3.5 C364.1,157.7,365.1,158,366.1,158z" class="st10"/></g></g></g><g><g><path d="M391.7,229.2v13.3c0,5.9,4.8,10.7,10.7,10.7l0,0c5.9,0,10.7-4.8,10.7-10.7v-15.3L391.7,229.2z" class="st2"/><path d="M413,228c0,6-4.8,10.8-10.8,10.8s-10.8-4.8-10.8-10.8s4.8-10.8,10.8-10.8S413,222,413,228z" class="st2"/><path d="M416.5,256.2c-0.6-7.5-6.9-13.4-14.5-13.4l0,0c-7.7,0-13.9,5.9-14.5,13.4H416.5z" class="st4"/><ellipse cx="402.2" cy="229.1" class="st6" rx="10.8" ry="10.8" transform="matrix(0.1607 -0.987 0.987 0.1607 111.4176 589.3173)"/><g><path d="M395.8,229.9c0,2.3-1.9,4.1-4.1,4.1c-2.3,0-4.1-1.9-4.1-4.1c0-2.3,1.9-4.1,4.1-4.1 C394,225.7,395.8,227.6,395.8,229.9z" class="st6"/><path d="M416.8,229.9c0,2.3-1.9,4.1-4.1,4.1c-2.3,0-4.1-1.9-4.1-4.1c0-2.3,1.9-4.1,4.1-4.1 C415,225.7,416.8,227.6,416.8,229.9z" class="st6"/></g><path d="M402.2,251L402.2,251c-1.5,0-2.8-1.3-2.8-2.8v-10.7h5.6v10.7C405,249.8,403.7,251,402.2,251z" class="st6"/><path d="M396.7,230.3v0.4c0,3,2.5,5.5,5.5,5.5s5.5-2.5,5.5-5.5v-0.4H396.7z" class="st4"/><path d="M392.6,232c0,0.5-0.4,0.9-0.9,0.9s-0.9-0.4-0.9-0.9s0.4-0.9,0.9-0.9C392.2,231.2,392.6,231.6,392.6,232z" class="st7"/><path d="M413.1,232c0,0.5-0.4,0.9-0.9,0.9s-0.9-0.4-0.9-0.9s0.4-0.9,0.9-0.9C412.7,231.2,413.1,231.6,413.1,232z" class="st7"/><path d="M399.6,225.2c0,0.7-0.6,1.3-1.3,1.3c-0.7,0-1.3-0.6-1.3-1.3s0.6-1.3,1.3-1.3S399.6,224.5,399.6,225.2z" class="st2"/><path d="M407.2,225.2c0,0.7-0.6,1.3-1.3,1.3c-0.7,0-1.3-0.6-1.3-1.3s0.6-1.3,1.3-1.3 C406.7,223.9,407.2,224.5,407.2,225.2z" class="st2"/></g></g><g><g><path d="M192.2,114.1v13.3c0,5.9,4.8,10.7,10.7,10.7l0,0c5.9,0,10.7-4.8,10.7-10.7V112L192.2,114.1z" class="st2"/><path d="M213.6,112.9c0,6-4.8,10.8-10.8,10.8s-10.8-4.8-10.8-10.8s4.8-10.8,10.8-10.8 C208.7,102.1,213.6,107,213.6,112.9z" class="st2"/><ellipse cx="202.7" cy="114.1" class="st6" rx="10.8" ry="10.8"/><g><path d="M196.4,114.8c0,2.3-1.9,4.1-4.1,4.1c-2.3,0-4.1-1.9-4.1-4.1c0-2.3,1.9-4.1,4.1-4.1 C194.5,110.7,196.4,112.5,196.4,114.8z" class="st6"/><path d="M217.4,114.8c0,2.3-1.9,4.1-4.1,4.1c-2.3,0-4.1-1.9-4.1-4.1c0-2.3,1.9-4.1,4.1-4.1 C215.6,110.7,217.4,112.5,217.4,114.8z" class="st6"/></g><path d="M217.9,142.3c-0.6-7.5-6.9-13.4-14.5-13.4l0,0c-7.7,0-13.9,5.9-14.5,13.4H217.9z" class="st5"/><path d="M202.8,136L202.8,136c-1.5,0-2.8-1.3-2.8-2.8v-10.7h5.6v10.7C205.6,134.7,204.3,136,202.8,136z" class="st6"/><path d="M197.2,115.3v0.4c0,3,2.5,5.5,5.5,5.5s5.5-2.5,5.5-5.5v-0.4H197.2z" class="st4"/><path d="M193.1,117c0,0.5-0.4,0.9-0.9,0.9s-0.9-0.4-0.9-0.9s0.4-0.9,0.9-0.9C192.7,116.1,193.1,116.5,193.1,117z" class="st4"/><path d="M213.7,117c0,0.5-0.4,0.9-0.9,0.9s-0.9-0.4-0.9-0.9s0.4-0.9,0.9-0.9S213.7,116.5,213.7,117z" class="st4"/><path d="M200.1,110.1c0,0.7-0.6,1.3-1.3,1.3s-1.3-0.6-1.3-1.3c0-0.7,0.6-1.3,1.3-1.3 C199.6,108.9,200.1,109.5,200.1,110.1z" class="st2"/><circle cx="206.5" cy="110.1" r="1.3" class="st2"/></g></g><g><g><path d="M284.5,126.6v13c0,5.8,4.7,10.5,10.5,10.5l0,0c5.8,0,10.5-4.7,10.5-10.5V127L284.5,126.6z" class="st11"/><path d="M309.7,155.3c-0.6-7.5-6.9-13.4-14.5-13.4l0,0c-7.7,0-13.9,5.9-14.5,13.4H309.7z" class="st2"/><ellipse cx="294.8" cy="125.5" class="st11" rx="10.6" ry="10.6"/><ellipse cx="294.8" cy="128.7" class="st6" rx="10.6" ry="10.6"/><g><path d="M288.5,129.3c0,2.2-1.8,4.1-4.1,4.1c-2.2,0-4.1-1.8-4.1-4.1c0-2.2,1.8-4.1,4.1-4.1 C286.7,125.3,288.5,127.1,288.5,129.3z" class="st6"/><path d="M309.1,129.3c0,2.2-1.8,4.1-4.1,4.1c-2.2,0-4.1-1.8-4.1-4.1c0-2.2,1.8-4.1,4.1-4.1 C307.3,125.3,309.1,127.1,309.1,129.3z" class="st6"/></g><path d="M294.8,150.1L294.8,150.1c-1.5,0-2.7-1.2-2.7-2.7v-10.5h5.5v10.5C297.5,148.8,296.3,150.1,294.8,150.1z" class="st6"/><path d="M289.4,130.8v0.4c0,3,2.4,5.4,5.4,5.4s5.4-2.4,5.4-5.4v-0.4H289.4z" class="st4"/><path d="M285.3,131.5c0,0.5-0.4,0.9-0.9,0.9s-0.9-0.4-0.9-0.9s0.4-0.9,0.9-0.9C285,130.6,285.3,131,285.3,131.5z" class="st7"/><path d="M305.5,131.5c0,0.5-0.4,0.9-0.9,0.9s-0.9-0.4-0.9-0.9s0.4-0.9,0.9-0.9S305.5,131,305.5,131.5z" class="st7"/><path d="M296.1,114.1h-1.2h-0.3h-1.2c-5.1,0-9.3,4.1-9.3,9.3v3.3l6.2-0.4c4.6-0.3,8.3-3.8,8.9-8.3l0,0l5.7,9.1 l0.4-3.6C305.4,118.2,301.2,114.1,296.1,114.1z" class="st11"/><polygon points="291.5 111.4 288.6 115.4 283.7 114.9 286 120.2 288.9 116.2 293.9 116.7" class="st7"/></g></g><g><g><path d="M240.3,237.8c-0.6-8-7.3-14.2-15.4-14.2l0,0c-8.1,0-14.8,6.3-15.4,14.2H240.3z" class="st2"/><circle cx="224.8" cy="212" r="10.5" class="st3"/><g><path d="M219.4,212.8c0,2-1.6,3.6-3.6,3.6s-3.6-1.6-3.6-3.6s1.6-3.6,3.6-3.6C217.8,209.2,219.4,210.8,219.4,212.8z" class="st3"/><path d="M237.4,212.8c0,2-1.6,3.6-3.6,3.6s-3.6-1.6-3.6-3.6s1.6-3.6,3.6-3.6C235.8,209.2,237.4,210.8,237.4,212.8z" class="st3"/></g><path d="M225,232h-0.3c-1.3,0-2.3-1-2.3-2.3v-9.3h4.8v9.3C227.2,231,226.2,232,225,232z" class="st3"/><path d="M220.2,214.4c0.3,2.4,2.2,4.2,4.7,4.2c2.4,0,4.4-1.8,4.7-4.2H220.2z" class="st4"/><path d="M222.5,210.2c0,0.6-0.5,1-1,1s-1-0.5-1-1c0-0.6,0.5-1,1-1S222.5,209.6,222.5,210.2z" class="st2"/><path d="M228.8,210.2c0,0.6-0.5,1-1,1c-0.6,0-1-0.5-1-1c0-0.6,0.5-1,1-1C228.3,209.1,228.8,209.6,228.8,210.2z" class="st2"/></g></g><g><g><circle cx="156.3" cy="75.8" r="10.8" class="st6"/><g><path d="M149.9,76.5c0,2.3-1.9,4.1-4.1,4.1c-2.3,0-4.1-1.9-4.1-4.1c0-2.3,1.9-4.1,4.1-4.1 C148.1,72.3,149.9,74.2,149.9,76.5z" class="st6"/><path d="M170.9,76.5c0,2.3-1.9,4.1-4.1,4.1c-2.3,0-4.1-1.9-4.1-4.1c0-2.3,1.9-4.1,4.1-4.1 C169.1,72.3,170.9,74.2,170.9,76.5z" class="st6"/></g><path d="M171.2,102.2c-0.6-7.5-6.9-13.4-14.5-13.4l0,0c-7.7,0-13.9,5.9-14.5,13.4H171.2z" class="st2"/><path d="M166.8,78.4c0.2-0.8,0.3-1.7,0.3-2.6s-0.1-1.8-0.3-2.6v-0.8c0-5.8-4.7-10.5-10.5-10.5l0,0 c-5.8,0-10.5,4.7-10.5,10.5v0.8c-0.2,0.8-0.3,1.7-0.3,2.6s0.1,1.8,0.3,2.6v1.2h0.4c1.5,4.1,5.5,7,10.2,7s8.6-2.9,10.2-7h0.4v-1.2 H166.8z" class="st6"/><g><g><defs><path id="SVGID_3_" d="M166.8,78.4c0.2-0.8,0.3-1.7,0.3-2.6s-0.1-1.8-0.3-2.6v-0.8c0-5.8-4.7-10.5-10.5-10.5l0,0 c-5.8,0-10.5,4.7-10.5,10.5v0.8c-0.2,0.8-0.3,1.7-0.3,2.6s0.1,1.8,0.3,2.6v1.2h0.4c1.5,4.1,5.5,7,10.2,7s8.6-2.9,10.2-7h0.4 v-1.2H166.8z"/></defs><clipPath id="SVGID_4_"><use xlink:href="#SVGID_3_" style="overflow:visible"/></clipPath><g class="st12"><ellipse cx="149" cy="61.7" class="st2" rx="11.2" ry="11.2"/><ellipse cx="170.5" cy="61.7" class="st2" rx="11.2" ry="11.2"/></g></g></g><path d="M156.3,97.6L156.3,97.6c-1.5,0-2.8-1.3-2.8-2.8V84.1h5.6v10.7C159.1,96.4,157.8,97.6,156.3,97.6z" class="st6"/><g><path d="M153.8,74.2c0,0.7-0.5,1.2-1.2,1.2s-1.2-0.5-1.2-1.2s0.5-1.2,1.2-1.2C153.3,73.1,153.8,73.6,153.8,74.2z" class="st2"/><path d="M161.1,74.2c0,0.7-0.5,1.2-1.2,1.2s-1.2-0.5-1.2-1.2s0.5-1.2,1.2-1.2C160.6,73.1,161.1,73.6,161.1,74.2z" class="st2"/></g><path d="M150.5,63.5c0,3.7-3,6.7-6.7,6.7s-6.7-3-6.7-6.7s3-6.7,6.7-6.7C147.5,56.8,150.5,59.8,150.5,63.5z" class="st2"/><path d="M175.4,63.5c0,3.7-3,6.7-6.7,6.7s-6.7-3-6.7-6.7s3-6.7,6.7-6.7C172.4,56.8,175.4,59.8,175.4,63.5z" class="st2"/><path d="M149.5,76.7c0,0.2,0,0.4,0,0.7c0,3.7,3,6.7,6.7,6.7s6.7-3,6.7-6.7c0-0.2,0-0.5,0-0.7H149.5z" class="st4"/></g></g><g><g><path d="M337.8,41.8c-2.7,1-4.1,3.9-3.1,6.6l4,11l9.7-3.5l-4-11C343.5,42.2,340.5,40.8,337.8,41.8z" class="st11"/><path d="M358.2,55.5c0,6-4.8,10.8-10.8,10.8s-10.8-4.8-10.8-10.8s4.8-10.8,10.8-10.8 C353.3,44.7,358.2,49.5,358.2,55.5z" class="st11"/><ellipse cx="347.3" cy="58.5" class="st6" rx="10.8" ry="10.8" transform="matrix(0.9228 -0.3852 0.3852 0.9228 4.2614 138.3032)"/><path d="M362.4,83.2c-0.6-7.5-6.9-13.4-14.5-13.4l0,0c-7.7,0-13.9,5.9-14.5,13.4H362.4z" class="st5"/><g><path d="M341,59.2c0,2.3-1.9,4.1-4.1,4.1c-2.3,0-4.1-1.9-4.1-4.1c0-2.3,1.9-4.1,4.1-4.1C339.1,55,341,56.9,341,59.2z" class="st6"/><path d="M362,59.2c0,2.3-1.9,4.1-4.1,4.1c-2.3,0-4.1-1.9-4.1-4.1c0-2.3,1.9-4.1,4.1-4.1C360.1,55,362,56.9,362,59.2z" class="st6"/></g><rect width="5.6" height="13.5" x="344.5" y="66.8" class="st6"/><path d="M341.9,59.6V60c0,3,2.5,5.5,5.5,5.5s5.5-2.5,5.5-5.5v-0.4H341.9z" class="st4"/><path d="M348.2,61.3c0,0.5-0.4,0.9-0.9,0.9s-0.9-0.4-0.9-0.9s0.4-0.9,0.9-0.9C347.8,60.5,348.2,60.9,348.2,61.3z" class="st7"/><g><path d="M345.1,54.8c0,0.6-0.5,1.1-1.1,1.1s-1.1-0.5-1.1-1.1s0.5-1.1,1.1-1.1C344.6,53.6,345.1,54.1,345.1,54.8z" class="st2"/><path d="M351.8,54.8c0,0.6-0.5,1.1-1.1,1.1s-1.1-0.5-1.1-1.1s0.5-1.1,1.1-1.1S351.8,54.1,351.8,54.8z" class="st2"/></g><path d="M347.3,64.5L347.3,64.5c-2.1,0-3.8-1.7-3.8-3.8v-0.5h7.6v0.5C351.1,62.8,349.4,64.5,347.3,64.5z" class="st4"/></g></g><g><g><ellipse cx="249.1" cy="93.4" class="st6" rx="11" ry="11"/><g><path d="M242.6,94.2c0,2.3-1.9,4.2-4.2,4.2s-4.2-1.9-4.2-4.2c0-2.3,1.9-4.2,4.2-4.2C240.7,90,242.6,91.8,242.6,94.2 z" class="st13"/><path d="M263.9,94.2c0,2.3-1.9,4.2-4.2,4.2c-2.3,0-4.2-1.9-4.2-4.2c0-2.3,1.9-4.2,4.2-4.2 C262,90,263.9,91.8,263.9,94.2z" class="st13"/></g><path d="M259.7,96.1c0.2-0.8,0.3-1.7,0.3-2.6s-0.1-1.8-0.3-2.6V90c0-5.9-4.8-10.7-10.7-10.7l0,0 c-5.9,0-10.7,4.8-10.7,10.7v0.8c-0.2,0.8-0.3,1.7-0.3,2.6s0.1,1.8,0.3,2.6v1.2h0.4c1.6,4.2,5.6,7.1,10.3,7.1s8.7-3,10.3-7.1h0.4 V96.1z" class="st13"/><path d="M264,120.1c-0.6-7.5-6.9-13.4-14.5-13.4l0,0c-7.7,0-13.9,5.9-14.5,13.4H264z" class="st4"/><g><g><defs><path id="SVGID_5_" d="M259.7,96.1c0.2-0.8,0.3-1.7,0.3-2.6s-0.1-1.8-0.3-2.6V90c0-5.9-4.8-10.7-10.7-10.7l0,0 c-5.9,0-10.7,4.8-10.7,10.7v0.8c-0.2,0.8-0.3,1.7-0.3,2.6s0.1,1.8,0.3,2.6v1.2h0.4c1.6,4.2,5.6,7.1,10.3,7.1s8.7-3,10.3-7.1 h0.4V96.1z"/></defs><clipPath id="SVGID_6_"><use xlink:href="#SVGID_5_" style="overflow:visible"/></clipPath><g class="st14"><path d="M253.1,79.2c0,6.3-5.1,11.4-11.4,11.4c-6.3,0-11.4-5.1-11.4-11.4s5.1-11.4,11.4-11.4 C248,67.8,253.1,72.9,253.1,79.2z" class="st15"/><ellipse cx="263.4" cy="79.2" class="st15" rx="11.4" ry="11.4" transform="matrix(0.973 -0.2309 0.2309 0.973 -11.1686 62.9616)"/></g></g></g><path d="M249.1,115.6L249.1,115.6c-1.6,0-2.8-1.3-2.8-2.8V102h5.7v10.8C251.9,114.3,250.6,115.6,249.1,115.6z" class="st13"/><g><circle cx="245.4" cy="91.9" r="1.2" class="st2"/><circle cx="252.8" cy="91.9" r="1.2" class="st2"/></g><polygon points="254.9 106.6 249 110.1 243 106.6 243 114.7 249 111.2 254.9 114.7" class="st2"/><g><path d="M243.7,95v1.8c0,3,2.5,5.5,5.5,5.5s5.5-2.5,5.5-5.5V95H243.7z" class="st4"/><path d="M249.2,102.3c2.2,0,4.2-1.4,5-3.3c-0.9-0.6-1.9-1-3.1-1c-2.3,0-4.2,1.5-4.9,3.5 C247.1,102,248.1,102.3,249.2,102.3z" class="st10"/></g></g></g></svg>