<svg xmlns="http://www.w3.org/2000/svg" xmlns:xlink="http://www.w3.org/1999/xlink" id="Calque_1" x="0" y="0" version="1.1" viewBox="0 0 800 600" xml:space="preserve" style="enable-background:new 0 0 800 600"><style type="text/css">.st0{fill:#323236;stroke:#797bf2;stroke-width:5;stroke-miterlimit:10}.st1{fill:#585868}.st2,.st3{fill:none;stroke:#797bf2;stroke-width:5;stroke-miterlimit:10}.st3{stroke-linecap:round}</style><path d="M641.7,531.4H146.3c-1.3,0-2.3-1-2.3-2.3V70.9c0-1.3,1-2.3,2.3-2.3h507.4c1.3,0,2.3,1,2.3,2.3v446.2	C656,525.1,649.6,531.4,641.7,531.4z" class="st0"/><rect id="XMLID_5_" width="235.6" height="19.5" x="189" y="174.3" class="st1"/><rect id="XMLID_1_" width="394.1" height="18.2" x="189" y="209.2" class="st1"/><rect id="XMLID_2_" width="304" height="20.3" x="189" y="236.8" class="st1"/><rect id="XMLID_3_" width="358.2" height="19.9" x="189" y="269.1" class="st1"/><line x1="144" x2="656" y1="126" y2="126" class="st2"/><line x1="144" x2="656" y1="340.1" y2="340.1" class="st2"/><line x1="144" x2="656" y1="404.1" y2="404.1" class="st2"/><line x1="144" x2="656" y1="465.3" y2="465.3" class="st2"/><g><line x1="611.5" x2="591.1" y1="374.8" y2="374.8" class="st3"/><line x1="601.3" x2="601.3" y1="385.1" y2="364.7" class="st3"/></g><g><line x1="608.5" x2="594.1" y1="105.2" y2="90.8" class="st3"/><line x1="594.1" x2="608.5" y1="105.2" y2="90.8" class="st3"/></g><g><line x1="611.7" x2="591.3" y1="434.8" y2="434.8" class="st3"/><line x1="601.5" x2="601.5" y1="445.1" y2="424.7" class="st3"/></g><g><line x1="611.5" x2="591.1" y1="495.3" y2="495.3" class="st3"/><line x1="601.3" x2="601.3" y1="505.4" y2="485.1" class="st3"/></g></svg>