<svg xmlns="http://www.w3.org/2000/svg" xmlns:xlink="http://www.w3.org/1999/xlink" id="Calque_1" x="0" y="0" version="1.1" viewBox="0 0 800 600" xml:space="preserve" style="enable-background:new 0 0 800 600"><style type="text/css">.st0{fill:#fff;stroke:#671cc9;stroke-width:5;stroke-miterlimit:10}.st1{fill:#efefef}.st2,.st3{fill:none;stroke:#671cc9;stroke-width:5;stroke-miterlimit:10}.st3{stroke-linecap:round}</style><g><path d="M641.7,432.3H158.3c-7.9,0-14.3-3.7-14.3-8.2V175.9c0-4.5,6.4-8.2,14.3-8.2h483.3c7.9,0,14.3,3.7,14.3,8.2 v248.2C656,428.6,649.6,432.3,641.7,432.3z" class="st0"/><rect id="XMLID_5_" width="235.6" height="26.2" x="183.9" y="273.8" class="st1"/><rect id="XMLID_1_" width="394.1" height="26.2" x="183.9" y="313.2" class="st1"/><line x1="144" x2="656" y1="244" y2="244" class="st2"/><g><line x1="631.7" x2="613.7" y1="196.8" y2="214.8" class="st3"/><line x1="631.7" x2="613.7" y1="214.8" y2="196.8" class="st3"/></g><path d="M631.3,408.8h-78c-0.2,0-0.4-0.2-0.4-0.4v-37.5c0-0.2,0.2-0.4,0.4-0.4h78c0.2,0,0.4,0.2,0.4,0.4v37.5 C631.6,408.6,631.5,408.8,631.3,408.8z" class="st0"/><path d="M534.5,408.8h-78c-0.2,0-0.4-0.2-0.4-0.4v-37.5c0-0.2,0.2-0.4,0.4-0.4h78c0.2,0,0.4,0.2,0.4,0.4v37.5 C534.8,408.6,534.7,408.8,534.5,408.8z" class="st0"/></g></svg>