<svg xmlns="http://www.w3.org/2000/svg" xmlns:xlink="http://www.w3.org/1999/xlink" id="Calque_1" x="0" y="0" version="1.1" viewBox="0 0 800 600" xml:space="preserve" style="enable-background:new 0 0 800 600"><style type="text/css">.st0{fill:#fff;stroke:#671cc9;stroke-width:5;stroke-miterlimit:10}.st1{fill:#efefef}</style><path d="M641.7,392.5H158.3c-7.9,0-14.3-3.1-14.3-7V174.7c0-3.8,6.4-7,14.3-7h483.3c7.9,0,14.3,3.1,14.3,7v210.9	C656,389.4,649.6,392.5,641.7,392.5z" class="st0"/><rect id="XMLID_5_" width="99.5" height="22.9" x="311.7" y="251.6" class="st1"/><rect id="XMLID_1_" width="163.2" height="22.9" x="311.7" y="286.1" class="st1"/><path d="M628.2,299.3h-78c-0.2,0-0.4-0.2-0.4-0.4v-37.5c0-0.2,0.2-0.4,0.4-0.4h78c0.2,0,0.4,0.2,0.4,0.4v37.5	C628.5,299.1,628.4,299.3,628.2,299.3z" class="st0"/><circle cx="227.5" cy="280.1" r="56.1" class="st0"/></svg>