<svg xmlns="http://www.w3.org/2000/svg" xmlns:xlink="http://www.w3.org/1999/xlink" id="Calque_1" x="0" y="0" version="1.1" viewBox="0 0 800 600" xml:space="preserve" style="enable-background:new 0 0 800 600"><style type="text/css">.st0{fill:#fff;stroke:#671cc9;stroke-width:5;stroke-miterlimit:10}.st1{fill:#efefef}</style><path id="XMLID_1_" d="M593.3,540.5H206.8c-9.8,0-17.8-7.9-17.8-17.8V77.3c0-9.8,7.9-17.8,17.8-17.8h386.5	c9.8,0,17.8,7.9,17.8,17.8v445.5C611,532.6,603.1,540.5,593.3,540.5z" class="st0"/><circle id="XMLID_2_" cx="400" cy="154.4" r="54.5" class="st0"/><path id="XMLID_3_" d="M473.5,500h-147c-21.8,0-39.5-17.7-39.5-39.5l0,0c0-21.8,17.7-39.5,39.5-39.5h147	c21.8,0,39.5,17.7,39.5,39.5l0,0C513,482.3,495.3,500,473.5,500z" class="st0"/><rect id="XMLID_5_" width="267" height="33" x="267" y="261.8" class="st1"/><rect id="XMLID_7_" width="195" height="33" x="302.5" y="320.3" class="st1"/></svg>