<svg xmlns="http://www.w3.org/2000/svg" xmlns:xlink="http://www.w3.org/1999/xlink" id="Calque_1" x="0" y="0" version="1.1" viewBox="0 0 800 600" xml:space="preserve" style="enable-background:new 0 0 800 600"><style type="text/css">.st0,.st1{fill:#323236;stroke:#797bf2;stroke-width:5;stroke-miterlimit:10}.st1{fill:none}</style><g><g><path d="M370,202.8H126c-5.7,0-10.3-4.6-10.3-10.3v-89c0-5.7,4.6-10.3,10.3-10.3h244c5.7,0,10.3,4.6,10.3,10.3v89 C380.2,198.2,375.7,202.8,370,202.8z" class="st0"/><circle cx="171.1" cy="147.6" r="27" class="st0"/><line x1="228.7" x2="346.1" y1="147.6" y2="147.6" class="st1"/><path d="M674,202.8H430c-5.7,0-10.3-4.6-10.3-10.3v-89c0-5.7,4.6-10.3,10.3-10.3h244c5.7,0,10.3,4.6,10.3,10.3v89 C684.3,198.2,679.7,202.8,674,202.8z" class="st0"/><circle cx="475.1" cy="147.6" r="27" class="st0"/><line x1="532.8" x2="650.1" y1="147.6" y2="147.6" class="st1"/></g><g><path d="M370,354.8H126c-5.7,0-10.3-4.6-10.3-10.3v-89c0-5.7,4.6-10.3,10.3-10.3h244c5.7,0,10.3,4.6,10.3,10.3v89 C380.2,350.2,375.7,354.8,370,354.8z" class="st0"/><circle cx="171.1" cy="299.6" r="27" class="st0"/><line x1="228.7" x2="346.1" y1="299.6" y2="299.6" class="st1"/><path d="M674,354.8H430c-5.7,0-10.3-4.6-10.3-10.3v-89c0-5.7,4.6-10.3,10.3-10.3h244c5.7,0,10.3,4.6,10.3,10.3v89 C684.3,350.2,679.7,354.8,674,354.8z" class="st0"/><circle cx="475.1" cy="299.6" r="27" class="st0"/><line x1="532.8" x2="650.1" y1="299.6" y2="299.6" class="st1"/></g><g><path d="M370,506.8H126c-5.7,0-10.3-4.6-10.3-10.3v-89c0-5.7,4.6-10.3,10.3-10.3h244c5.7,0,10.3,4.6,10.3,10.3v89 C380.2,502.2,375.7,506.8,370,506.8z" class="st0"/><circle cx="171.1" cy="451.6" r="27" class="st0"/><line x1="228.7" x2="346.1" y1="451.6" y2="451.6" class="st1"/><path d="M674,506.8H430c-5.7,0-10.3-4.6-10.3-10.3v-89c0-5.7,4.6-10.3,10.3-10.3h244c5.7,0,10.3,4.6,10.3,10.3v89 C684.3,502.2,679.7,506.8,674,506.8z" class="st0"/><circle cx="475.1" cy="451.6" r="27" class="st0"/><line x1="532.8" x2="650.1" y1="451.6" y2="451.6" class="st1"/></g></g></svg>