<svg xmlns="http://www.w3.org/2000/svg" xmlns:xlink="http://www.w3.org/1999/xlink" id="Calque_1" x="0" y="0" version="1.1" viewBox="0 0 800 600" xml:space="preserve" style="enable-background:new 0 0 800 600"><style type="text/css">.st0{fill:#fff;stroke:#671cc9;stroke-width:5;stroke-miterlimit:10}</style><path d="M271.5,280.7H105.4c-1.6,0-2.9-1.3-2.9-2.9v-166c0-1.6,1.3-2.9,2.9-2.9h166.1c1.6,0,2.9,1.3,2.9,2.9v166.1	C274.4,279.4,273.1,280.7,271.5,280.7z" class="st0"/><path d="M483,280.7H317c-1.6,0-2.9-1.3-2.9-2.9v-166c0-1.6,1.3-2.9,2.9-2.9h166c1.6,0,2.9,1.3,2.9,2.9v166.1	C485.9,279.4,484.6,280.7,483,280.7z" class="st0"/><path d="M694.6,280.7H528.5c-1.6,0-2.9-1.3-2.9-2.9v-166c0-1.6,1.3-2.9,2.9-2.9h166.1c1.6,0,2.9,1.3,2.9,2.9v166.1	C697.5,279.4,696.2,280.7,694.6,280.7z" class="st0"/><path d="M271.5,491.1H105.4c-1.6,0-2.9-1.3-2.9-2.9v-166c0-1.6,1.3-2.9,2.9-2.9h166.1c1.6,0,2.9,1.3,2.9,2.9v166.1	C274.4,489.8,273.1,491.1,271.5,491.1z" class="st0"/><path d="M483,491.1H317c-1.6,0-2.9-1.3-2.9-2.9v-166c0-1.6,1.3-2.9,2.9-2.9h166c1.6,0,2.9,1.3,2.9,2.9v166.1	C485.9,489.8,484.6,491.1,483,491.1z" class="st0"/><path d="M694.6,491.1H528.5c-1.6,0-2.9-1.3-2.9-2.9v-166c0-1.6,1.3-2.9,2.9-2.9h166.1c1.6,0,2.9,1.3,2.9,2.9v166.1	C697.5,489.8,696.2,491.1,694.6,491.1z" class="st0"/></svg>