<svg xmlns="http://www.w3.org/2000/svg" xmlns:xlink="http://www.w3.org/1999/xlink" id="Calque_1" x="0" y="0" version="1.1" viewBox="0 0 800 600" xml:space="preserve" style="enable-background:new 0 0 800 600"><style type="text/css">.st0{fill:#fff;stroke:#671cc9;stroke-miterlimit:10}.st0,.st1{stroke-width:5}.st1,.st2{stroke:#671cc9;stroke-miterlimit:10}.st1{fill:none}.st2{fill:#fff;stroke-width:3;stroke-linecap:round;stroke-linejoin:round}</style><path d="M626.9,203.5h18.7c4.8,0,8.6,3.9,8.6,8.6v307c0,4.8-3.9,8.6-8.6,8.6H344.7c-4.8,0-8.6-3.9-8.6-8.6v-307	c0-4.8,3.9-8.6,8.6-8.6h233.7h9.2c0.4,0,0.7-0.2,1-0.5l12.3-17.3c0.5-0.7,1.5-0.7,2,0l10.8,16.7c0.2,0.3,0.6,0.5,1,0.5L626.9,203.5z" class="st0"/><rect width="508.5" height="85.5" x="145.7" y="72.3" class="st0"/><circle cx="410" cy="290.2" r="29.2" class="st0"/><circle cx="206.7" cy="115" r="19.2" class="st0"/><circle cx="410" cy="367.9" r="29.2" class="st0"/><circle cx="410" cy="445.5" r="29.2" class="st0"/><line x1="468" x2="600" y1="290.2" y2="290.2" class="st1"/><line x1="270.1" x2="402.1" y1="115" y2="115" class="st1"/><line x1="468" x2="600" y1="367.9" y2="367.9" class="st1"/><line x1="468" x2="600" y1="445.5" y2="445.5" class="st1"/><polyline points="583.5 111.1 590.7 119 597 111.1" class="st2"/></svg>