<svg xmlns="http://www.w3.org/2000/svg" xmlns:xlink="http://www.w3.org/1999/xlink" id="Calque_1" x="0" y="0" version="1.1" viewBox="0 0 800 600" xml:space="preserve" style="enable-background:new 0 0 800 600"><style type="text/css">.st0{fill:#323236;stroke:#797bf2;stroke-width:5;stroke-miterlimit:10}.st1{fill:#585868}.st2{fill:#797bf2}</style><path d="M593.8,550.5H206.4c-5.9,0-10.7-4.8-10.7-10.7V60.2c0-5.9,4.8-10.7,10.7-10.7h387.2c5.9,0,10.7,4.8,10.7,10.7	v479.7C604.4,545.7,599.6,550.5,593.8,550.5z" class="st0"/><path d="M556.4,207.5H243.9c-1.8,0-3.3-1.5-3.3-3.3v-39.5c0-1.8,1.5-3.3,3.3-3.3h312.5c1.8,0,3.3,1.5,3.3,3.3v39.5	C559.6,206,558.1,207.5,556.4,207.5z" class="st0"/><path d="M556.4,293H243.9c-1.8,0-3.3-1.5-3.3-3.3v-39.5c0-1.8,1.5-3.3,3.3-3.3h312.5c1.8,0,3.3,1.5,3.3,3.3v39.5	C559.6,291.5,558.1,293,556.4,293z" class="st0"/><path d="M556.4,380.1H243.9c-1.8,0-3.3-1.5-3.3-3.3v-39.5c0-1.8,1.5-3.3,3.3-3.3h312.5c1.8,0,3.3,1.5,3.3,3.3v39.5	C559.6,378.6,558.1,380.1,556.4,380.1z" class="st0"/><rect id="XMLID_4_" width="159.5" height="15.3" x="240.6" y="95.1" class="st1"/><circle cx="259.8" cy="428.5" r="12.3" class="st0"/><circle cx="259.8" cy="428.5" r="6" class="st2"/><circle cx="373.1" cy="428.5" r="12.3" class="st0"/><circle cx="486.1" cy="428.5" r="12.3" class="st0"/><rect width="108.8" height="40" x="450.8" y="481.5" class="st0"/></svg>