<svg xmlns="http://www.w3.org/2000/svg" xmlns:xlink="http://www.w3.org/1999/xlink" id="Layer_1" x="0" y="0" version="1.1" viewBox="0 0 456 330" xml:space="preserve" style="enable-background:new 0 0 456 330"><style type="text/css">.st0{fill:#fff}.st1,.st2,.st3{fill:none;stroke:#671cc9;stroke-width:4;stroke-miterlimit:10}.st2,.st3{fill:#fff;stroke-linecap:round}.st3{fill:none}</style><g><path d="M32.2,307c-6.8,0-12.3-5.5-12.3-12.3V39.3c0-6.8,5.5-12.3,12.3-12.3h391.6c6.8,0,12.3,5.5,12.3,12.3v255.4 c0,6.8-5.5,12.3-12.3,12.3L32.2,307L32.2,307z" class="st0"/><path d="M423.8,28c6.2,0,11.3,5.1,11.3,11.3v255.4c0,6.2-5.1,11.3-11.3,11.3H32.2c-6.2,0-11.3-5.1-11.3-11.3V39.3 C20.9,33.1,26,28,32.2,28H423.8" class="st1"/></g><g><circle cx="91.5" cy="93.3" r="25" class="st2"/><line x1="133.5" x2="264.5" y1="81.3" y2="81.3" class="st3"/><line x1="134" x2="224" y1="93.9" y2="93.9" class="st3"/><line x1="134" x2="238" y1="106.7" y2="106.7" class="st3"/><line x1="66.5" x2="197.5" y1="170.3" y2="170.3" class="st3"/><line x1="67" x2="157" y1="182.9" y2="182.9" class="st3"/><line x1="67" x2="171" y1="195.7" y2="195.7" class="st3"/><line x1="258.5" x2="389.5" y1="170.3" y2="170.3" class="st3"/><line x1="259" x2="349" y1="182.9" y2="182.9" class="st3"/><line x1="259" x2="363" y1="195.7" y2="195.7" class="st3"/><line x1="66.5" x2="197.5" y1="236.3" y2="236.3" class="st3"/><line x1="67" x2="157" y1="248.9" y2="248.9" class="st3"/><line x1="67" x2="171" y1="261.7" y2="261.7" class="st3"/><line x1="258.5" x2="389.5" y1="236.3" y2="236.3" class="st3"/><line x1="259" x2="349" y1="248.9" y2="248.9" class="st3"/><line x1="259" x2="363" y1="261.7" y2="261.7" class="st3"/></g></svg>