<svg xmlns="http://www.w3.org/2000/svg" xmlns:xlink="http://www.w3.org/1999/xlink" id="Layer_1" x="0" y="0" version="1.1" viewBox="0 0 456 330" xml:space="preserve" style="enable-background:new 0 0 456 330"><style type="text/css">.st0{fill:#fff}.st1,.st2{fill:none;stroke:#671cc9;stroke-width:4;stroke-linecap:round;stroke-miterlimit:10}.st2{fill:#fff}</style><g><path d="M32.2,307c-6.8,0-12.3-5.5-12.3-12.3V39.3c0-6.8,5.5-12.3,12.3-12.3h391.6c6.8,0,12.3,5.5,12.3,12.3v255.4 c0,6.8-5.5,12.3-12.3,12.3L32.2,307L32.2,307z" class="st0"/><path d="M423.8,28c6.2,0,11.3,5.1,11.3,11.3v255.4c0,6.2-5.1,11.3-11.3,11.3H32.2c-6.2,0-11.3-5.1-11.3-11.3V39.3 C20.9,33.1,26,28,32.2,28H423.8" class="st1"/></g><g><circle cx="117.6" cy="87.5" r="25" class="st2"/><line x1="159.6" x2="290.6" y1="75.5" y2="75.5" class="st1"/><line x1="160.1" x2="250.1" y1="88.1" y2="88.1" class="st1"/><line x1="160.1" x2="264.1" y1="100.9" y2="100.9" class="st1"/><line x1="92.6" x2="223.6" y1="164.5" y2="164.5" class="st1"/><line x1="93.1" x2="183.1" y1="177.1" y2="177.1" class="st1"/><line x1="93.1" x2="197.1" y1="189.9" y2="189.9" class="st1"/><line x1="284.6" x2="415.6" y1="164.5" y2="164.5" class="st1"/><line x1="285.1" x2="375.1" y1="177.1" y2="177.1" class="st1"/><line x1="285.1" x2="389.1" y1="189.9" y2="189.9" class="st1"/><line x1="92.6" x2="223.6" y1="230.5" y2="230.5" class="st1"/><line x1="93.1" x2="183.1" y1="243.1" y2="243.1" class="st1"/><line x1="93.1" x2="197.1" y1="255.9" y2="255.9" class="st1"/><line x1="284.6" x2="415.6" y1="230.5" y2="230.5" class="st1"/><line x1="285.1" x2="375.1" y1="243.1" y2="243.1" class="st1"/><line x1="285.1" x2="389.1" y1="255.9" y2="255.9" class="st1"/></g><line x1="75.4" x2="75.4" y1="28" y2="306" class="st1"/><circle cx="47.5" cy="53.5" r="15" class="st2"/><circle cx="47.5" cy="107.5" r="11" class="st2"/><circle cx="47.5" cy="145.5" r="11" class="st2"/><circle cx="47.5" cy="183.5" r="11" class="st2"/><circle cx="47.5" cy="221.5" r="11" class="st2"/></svg>