<svg xmlns="http://www.w3.org/2000/svg" xmlns:xlink="http://www.w3.org/1999/xlink" id="Calque_1" x="0" y="0" version="1.1" viewBox="0 0 800 600" xml:space="preserve" style="enable-background:new 0 0 800 600"><style type="text/css">.st0{fill:#fff;stroke:#671cc9;stroke-width:5;stroke-miterlimit:10}.st1{fill:#efefef}.st2{fill:none;stroke:#671cc9;stroke-width:2;stroke-linecap:round;stroke-linejoin:round;stroke-miterlimit:10}</style><path d="M618.2,193.2H181.8c-2.6,0-4.8-2.1-4.8-4.8V76.6c0-2.6,2.1-4.8,4.8-4.8h436.5c2.6,0,4.8,2.1,4.8,4.8v111.8	C623,191,620.9,193.2,618.2,193.2z" class="st0"/><path d="M618.2,360.7H181.8c-2.6,0-4.8-2.1-4.8-4.8V244.1c0-2.6,2.1-4.8,4.8-4.8h436.5c2.6,0,4.8,2.1,4.8,4.8v111.8	C623,358.5,620.9,360.7,618.2,360.7z" class="st0"/><path d="M618.2,528.2H181.8c-2.6,0-4.8-2.1-4.8-4.8V411.6c0-2.6,2.1-4.8,4.8-4.8h436.5c2.6,0,4.8,2.1,4.8,4.8v111.8	C623,526,620.9,528.2,618.2,528.2z" class="st0"/><rect width="111" height="17" x="207" y="98" class="st1"/><rect width="353" height="17" x="207" y="129.2" class="st1"/><rect width="232.3" height="17" x="207" y="153.8" class="st1"/><rect width="111" height="17" x="207" y="263.6" class="st1"/><rect width="353" height="17" x="207" y="294.8" class="st1"/><rect width="232.3" height="17" x="207" y="319.4" class="st1"/><rect width="111" height="17" x="207" y="429.2" class="st1"/><rect width="353" height="17" x="207" y="460.3" class="st1"/><rect width="232.3" height="17" x="207" y="485" class="st1"/><g><line x1="606.5" x2="597.5" y1="84.7" y2="93.8" class="st2"/><line x1="606.5" x2="597.5" y1="93.8" y2="84.7" class="st2"/></g><g><line x1="606.5" x2="597.5" y1="254.5" y2="263.6" class="st2"/><line x1="606.5" x2="597.5" y1="263.6" y2="254.5" class="st2"/></g><g><line x1="606.5" x2="597.5" y1="424.2" y2="433.4" class="st2"/><line x1="606.5" x2="597.5" y1="433.4" y2="424.2" class="st2"/></g></svg>