<svg xmlns="http://www.w3.org/2000/svg" xmlns:xlink="http://www.w3.org/1999/xlink" id="Calque_1" x="0" y="0" version="1.1" viewBox="0 0 800 600" xml:space="preserve" style="enable-background:new 0 0 800 600"><style type="text/css">.st0{fill:#323236;stroke:#797bf2;stroke-width:5;stroke-miterlimit:10}.st1{fill:#585868}.st2,.st3{fill:none;stroke:#797bf2;stroke-width:5;stroke-miterlimit:10}.st3{stroke-linecap:round}</style><path d="M641.7,531.4H158.3c-7.9,0-14.3-6.4-14.3-14.3V82.9c0-7.9,6.4-14.3,14.3-14.3h483.3c7.9,0,14.3,6.4,14.3,14.3	v434.2C656,525,649.6,531.4,641.7,531.4z" class="st0"/><rect id="XMLID_5_" width="235.6" height="26.2" x="189" y="205.1" class="st1"/><rect id="XMLID_1_" width="394.1" height="26.2" x="189" y="290" class="st1"/><rect id="XMLID_2_" width="304" height="26.2" x="189" y="346.3" class="st1"/><rect id="XMLID_3_" width="358.2" height="26.2" x="189" y="396" class="st1"/><line x1="144" x2="656" y1="144.9" y2="144.9" class="st2"/><g><line x1="610.3" x2="592.3" y1="97.7" y2="115.7" class="st3"/><line x1="610.3" x2="592.3" y1="115.7" y2="97.7" class="st3"/></g><path d="M625.6,503.7h-78c-0.2,0-0.4-0.2-0.4-0.4v-37.5c0-0.2,0.2-0.4,0.4-0.4h78c0.2,0,0.4,0.2,0.4,0.4v37.5	C625.9,503.5,625.8,503.7,625.6,503.7z" class="st0"/></svg>