<svg xmlns="http://www.w3.org/2000/svg" xmlns:xlink="http://www.w3.org/1999/xlink" id="Calque_1" x="0" y="0" version="1.1" viewBox="0 0 800 600" xml:space="preserve" style="enable-background:new 0 0 800 600"><style type="text/css">.st0{fill:#323236;stroke:#797bf2;stroke-width:5;stroke-miterlimit:10}.st1{fill:#585868}</style><path id="XMLID_3_" d="M473.5,479.5h-147c-21.8,0-39.5-17.7-39.5-39.5l0,0c0-21.8,17.7-39.5,39.5-39.5h147	c21.8,0,39.5,17.7,39.5,39.5l0,0C513,461.8,495.3,479.5,473.5,479.5z" class="st0"/><path d="M415.5,321.5H616c3.6,0,6.5-2.9,6.5-6.5V127c0-3.6-2.9-6.5-6.5-6.5H184c-3.6,0-6.5,2.9-6.5,6.5v188	c0,3.6,2.9,6.5,6.5,6.5h202l16,17L415.5,321.5z" class="st0"/><rect width="224.5" height="17" x="215" y="173.5" class="st1"/><rect width="368.5" height="17" x="215" y="215.5" class="st1"/><rect width="308.5" height="17" x="215" y="244.1" class="st1"/></svg>