<svg xmlns="http://www.w3.org/2000/svg" xmlns:xlink="http://www.w3.org/1999/xlink" id="Calque_1" x="0" y="0" version="1.1" viewBox="0 0 800 600" xml:space="preserve" style="enable-background:new 0 0 800 600"><style type="text/css">.st0{fill:#323236;stroke:#797bf2;stroke-width:5;stroke-miterlimit:10}.st1{fill:#585868}.st2{fill:#797bf2}</style><g><path d="M636.7,332H163.3c-17.7,0-32-14.3-32-32v0c0-17.7,14.3-32,32-32h473.4c17.7,0,32,14.3,32,32v0 C668.7,317.7,654.4,332,636.7,332z" class="st0"/><path d="M625.2,311.5H172.5c-6.5,0-11.7-5.3-11.7-11.8l0,0c0-6.5,5.3-11.8,11.7-11.8h452.7c6.5,0,11.8,5.3,11.8,11.8 l0,0C637,306.3,631.7,311.5,625.2,311.5z" class="st1"/><path d="M474.4,311.5H172.5c-6.5,0-11.7-5.3-11.7-11.8l0,0c0-6.5,5.3-11.8,11.7-11.8h301.9c6.5,0,11.7,5.3,11.7,11.8 l0,0C486.2,306.3,480.9,311.5,474.4,311.5z" class="st2"/></g></svg>