<svg xmlns="http://www.w3.org/2000/svg" xmlns:xlink="http://www.w3.org/1999/xlink" id="Calque_1" x="0" y="0" version="1.1" viewBox="0 0 800 600" xml:space="preserve" style="enable-background:new 0 0 800 600"><style type="text/css">.st0{fill:#fff;stroke:#671cc9;stroke-width:5;stroke-miterlimit:10}</style><path d="M698,353.4H130.6c-8.3,0-15-6.7-15-15v-93c0-8.3,6.7-15,15-15H698c8.3,0,15,6.7,15,15v93	C713.1,346.7,706.3,353.4,698,353.4z" class="st0"/><path d="M648.6,305.1H172.4c-7.3,0-13.2-5.9-13.2-13.2v0c0-7.3,5.9-13.2,13.2-13.2h476.2c7.3,0,13.2,5.9,13.2,13.2v0	C661.8,299.2,655.9,305.1,648.6,305.1z" class="st0"/><circle cx="545.3" cy="289.6" r="37.4" class="st0"/></svg>