<svg xmlns="http://www.w3.org/2000/svg" xmlns:xlink="http://www.w3.org/1999/xlink" id="Calque_1" x="0" y="0" version="1.1" viewBox="0 0 800 600" xml:space="preserve" style="enable-background:new 0 0 800 600"><style type="text/css">.st0{fill:#fff;stroke:#671cc9;stroke-width:5;stroke-miterlimit:10}.st1{fill:#efefef}.st2{fill:#f6f6f6}.st3,.st4{fill:none;stroke:#671cc9;stroke-width:5;stroke-miterlimit:10}.st4{stroke:#7f00ff}</style><g><path d="M530.7,464.4H73.2c-6.7,0-12.2-5.5-12.2-12.2v-300c0-6.7,5.5-12.2,12.2-12.2h457.5c6.7,0,12.2,5.5,12.2,12.2 v300C542.9,458.9,537.5,464.4,530.7,464.4z" class="st0"/><rect id="XMLID_32_" width="87.8" height="19" x="87.4" y="217.9" class="st1"/><rect id="XMLID_31_" width="144.1" height="19" x="195.7" y="217.9" class="st2"/><rect id="XMLID_30_" width="144.1" height="19" x="360.2" y="217.9" class="st2"/><line x1="61" x2="542.9" y1="191.5" y2="191.5" class="st3"/><line x1="61" x2="542.9" y1="257.8" y2="257.8" class="st3"/><rect id="XMLID_29_" width="87.8" height="19" x="87.4" y="285" class="st1"/><rect id="XMLID_28_" width="144.1" height="19" x="195.7" y="285" class="st2"/><rect id="XMLID_27_" width="144.1" height="19" x="360.2" y="285" class="st2"/><line x1="61" x2="542.9" y1="324.9" y2="324.9" class="st4"/><rect id="XMLID_26_" width="87.8" height="19" x="87.4" y="352.1" class="st1"/><rect id="XMLID_25_" width="144.1" height="19" x="195.7" y="352.1" class="st2"/><rect id="XMLID_24_" width="144.1" height="19" x="360.2" y="352.1" class="st2"/><line x1="61" x2="542.9" y1="392.1" y2="392.1" class="st3"/><rect id="XMLID_23_" width="87.8" height="19" x="87.4" y="419.2" class="st1"/><rect id="XMLID_22_" width="144.1" height="19" x="195.7" y="419.2" class="st2"/><rect id="XMLID_21_" width="144.1" height="19" x="360.2" y="419.2" class="st2"/></g><g><path d="M726.8,493.2H177.2c-6.7,0-12.2-5.5-12.2-12.2V119c0-6.7,5.5-12.2,12.2-12.2h549.6c6.7,0,12.2,5.5,12.2,12.2 v362C739,487.7,733.5,493.2,726.8,493.2z" class="st0"/><rect id="XMLID_5_" width="104.6" height="22.6" x="196.4" y="199.6" class="st1"/><rect id="XMLID_12_" width="171.6" height="22.6" x="325.4" y="199.6" class="st1"/><rect id="XMLID_13_" width="171.6" height="22.6" x="521.4" y="199.6" class="st1"/><line x1="165" x2="739" y1="168.2" y2="168.2" class="st3"/><line x1="165" x2="739" y1="247.2" y2="247.2" class="st3"/><rect id="XMLID_14_" width="104.6" height="22.6" x="196.4" y="279.6" class="st1"/><rect id="XMLID_2_" width="171.6" height="22.6" x="325.4" y="279.6" class="st1"/><rect id="XMLID_1_" width="171.6" height="22.6" x="521.4" y="279.6" class="st1"/><line x1="165" x2="739" y1="327.2" y2="327.2" class="st3"/><rect id="XMLID_17_" width="104.6" height="22.6" x="196.4" y="359.5" class="st1"/><rect id="XMLID_16_" width="171.6" height="22.6" x="325.4" y="359.5" class="st1"/><rect id="XMLID_15_" width="171.6" height="22.6" x="521.4" y="359.5" class="st1"/><line x1="165" x2="739" y1="407.1" y2="407.1" class="st3"/><rect id="XMLID_20_" width="104.6" height="22.6" x="196.4" y="439.5" class="st1"/><rect id="XMLID_19_" width="171.6" height="22.6" x="325.4" y="439.5" class="st1"/><rect id="XMLID_18_" width="171.6" height="22.6" x="521.4" y="439.5" class="st1"/></g></svg>