<svg xmlns="http://www.w3.org/2000/svg" xmlns:xlink="http://www.w3.org/1999/xlink" id="Calque_1" x="0" y="0" version="1.1" viewBox="0 0 800 600" xml:space="preserve" style="enable-background:new 0 0 800 600"><style type="text/css">.st0{fill:#fff;stroke:#671cc9;stroke-width:5;stroke-miterlimit:10}.st1{fill:#efefef}.st2{fill:none;stroke:#671cc9;stroke-width:5;stroke-miterlimit:10}</style><g><path id="XMLID_1_" d="M683.4,540.5H116.6c-14.4,0-26.1-7.9-26.1-17.8V77.3c0-9.8,11.6-17.8,26.1-17.8h566.8 c14.4,0,26.1,7.9,26.1,17.8v445.5C709.4,532.6,697.8,540.5,683.4,540.5z" class="st0"/><rect id="XMLID_5_" width="483" height="33" x="158" y="238.8" class="st1"/><rect id="XMLID_2_" width="84" height="15.5" x="154" y="107.5" class="st1"/><rect id="XMLID_6_" width="84" height="15.5" x="257.3" y="107.5" class="st1"/><rect id="XMLID_8_" width="84" height="15.5" x="360.7" y="107.5" class="st1"/><rect id="XMLID_7_" width="400" height="33" x="158" y="303.8" class="st1"/><rect id="XMLID_3_" width="292" height="33" x="158" y="367.8" class="st1"/><rect id="XMLID_4_" width="421" height="33" x="158" y="433.8" class="st1"/><line x1="154" x2="238" y1="137.3" y2="137.3" class="st2"/></g></svg>