<svg xmlns="http://www.w3.org/2000/svg" xmlns:xlink="http://www.w3.org/1999/xlink" id="Calque_1" x="0" y="0" version="1.1" viewBox="0 0 800 600" xml:space="preserve" style="enable-background:new 0 0 800 600"><style type="text/css">.st0{fill:#fff;stroke:#671cc9;stroke-width:5;stroke-miterlimit:10}.st1{fill:#671cc9}</style><g><path d="M586.5,281.6h-373c-16.6,0-30.1-13.5-30.1-30.1v-56.7c0-16.6,13.5-30.1,30.1-30.1h373 c16.6,0,30.1,13.5,30.1,30.1v56.7C616.6,268.2,603.1,281.6,586.5,281.6z" class="st0"/><path d="M453.6,202.8H230.2c-2.7,0-4.8-2.2-4.8-4.8v0c0-2.7,2.2-4.8,4.8-4.8h223.4c2.7,0,4.8,2.2,4.8,4.8v0 C458.4,200.7,456.2,202.8,453.6,202.8z" class="st1"/><path d="M375.6,224.4H230.2c-2.7,0-4.8-2.2-4.8-4.8v0c0-2.7,2.2-4.8,4.8-4.8h145.4c2.7,0,4.8,2.2,4.8,4.8v0 C380.4,222.2,378.3,224.4,375.6,224.4z" class="st1"/><path d="M418.9,245.9H230.2c-2.7,0-4.8-2.2-4.8-4.8v0c0-2.7,2.2-4.8,4.8-4.8h188.7c2.7,0,4.8,2.2,4.8,4.8v0 C423.7,243.8,421.5,245.9,418.9,245.9z" class="st1"/><path d="M586.5,435.2h-373c-16.6,0-30.1-13.5-30.1-30.1v-56.7c0-16.6,13.5-30.1,30.1-30.1h373 c16.6,0,30.1,13.5,30.1,30.1v56.7C616.6,421.7,603.1,435.2,586.5,435.2z" class="st0"/><path d="M453.6,356.4H230.2c-2.7,0-4.8-2.2-4.8-4.8v0c0-2.7,2.2-4.8,4.8-4.8h223.4c2.7,0,4.8,2.2,4.8,4.8v0 C458.4,354.2,456.2,356.4,453.6,356.4z" class="st1"/><path d="M375.6,377.9H230.2c-2.7,0-4.8-2.2-4.8-4.8v0c0-2.7,2.2-4.8,4.8-4.8h145.4c2.7,0,4.8,2.2,4.8,4.8v0 C380.4,375.8,378.3,377.9,375.6,377.9z" class="st1"/><path d="M418.9,399.5H230.2c-2.7,0-4.8-2.2-4.8-4.8l0,0c0-2.7,2.2-4.8,4.8-4.8h188.7c2.7,0,4.8,2.2,4.8,4.8l0,0 C423.7,397.3,421.5,399.5,418.9,399.5z" class="st1"/></g></svg>