<svg xmlns="http://www.w3.org/2000/svg" xmlns:xlink="http://www.w3.org/1999/xlink" id="Calque_1" x="0" y="0" version="1.1" viewBox="0 0 800 600" xml:space="preserve" style="enable-background:new 0 0 800 600"><style type="text/css">.st0{fill:#323236;stroke:#797bf2;stroke-width:5;stroke-miterlimit:10}.st1{fill:#585868}</style><g><path id="XMLID_3_" d="M473.5,418.4h-147c-21.8,0-39.5-17.7-39.5-39.5l0,0c0-21.8,17.7-39.5,39.5-39.5h147 c21.8,0,39.5,17.7,39.5,39.5l0,0C513,400.7,495.3,418.4,473.5,418.4z" class="st0"/><path d="M408.1,287.2h105.2c1.9,0,3.4-1.5,3.4-3.4v-98.7c0-1.9-1.5-3.4-3.4-3.4H286.6c-1.9,0-3.4,1.5-3.4,3.4v98.7 c0,1.9,1.5,3.4,3.4,3.4h106l8.4,8.9L408.1,287.2z" class="st0"/><rect width="136.9" height="17" x="302.9" y="211.4" class="st1"/><rect width="176.1" height="17" x="302.9" y="239.8" class="st1"/></g></svg>