<svg xmlns="http://www.w3.org/2000/svg" xmlns:xlink="http://www.w3.org/1999/xlink" id="Calque_1" x="0" y="0" version="1.1" viewBox="0 0 800 600" xml:space="preserve" style="enable-background:new 0 0 800 600"><style type="text/css">.st0{fill:#fff;stroke:#671cc9;stroke-width:2;stroke-miterlimit:10}</style><g><g><path d="M291.3,223.3H166.8c-6.6,0-12-5.4-12-12v-81c0-6.6,5.4-12,12-12h124.5c6.6,0,12,5.4,12,12v81 C303.3,217.9,298,223.3,291.3,223.3z" class="st0"/><circle cx="229.1" cy="170.7" r="26.6" class="st0"/><path d="M242.2,169l-15.5-8.9c-1.3-0.8-2.9,0.2-2.9,1.7v17.9c0,1.5,1.7,2.5,2.9,1.7l15.5-8.9 C243.5,171.7,243.5,169.8,242.2,169z" class="st0"/></g><g><path d="M462.3,223.3H337.7c-6.6,0-12-5.4-12-12v-81c0-6.6,5.4-12,12-12h124.5c6.6,0,12,5.4,12,12v81 C474.3,217.9,468.9,223.3,462.3,223.3z" class="st0"/><circle cx="400" cy="170.7" r="26.6" class="st0"/><path d="M413.1,169l-15.5-8.9c-1.3-0.8-2.9,0.2-2.9,1.7v17.9c0,1.5,1.7,2.5,2.9,1.7l15.5-8.9 C414.4,171.7,414.4,169.8,413.1,169z" class="st0"/></g><g><path d="M633.2,223.3H508.7c-6.6,0-12-5.4-12-12v-81c0-6.6,5.4-12,12-12h124.5c6.6,0,12,5.4,12,12v81 C645.2,217.9,639.8,223.3,633.2,223.3z" class="st0"/><circle cx="570.9" cy="170.7" r="26.6" class="st0"/><path d="M584.1,169l-15.5-8.9c-1.3-0.8-2.9,0.2-2.9,1.7v17.9c0,1.5,1.7,2.5,2.9,1.7l15.5-8.9 C585.4,171.7,585.4,169.8,584.1,169z" class="st0"/></g><g><path d="M291.3,352.5H166.8c-6.6,0-12-5.4-12-12v-81c0-6.6,5.4-12,12-12h124.5c6.6,0,12,5.4,12,12v81 C303.3,347.1,298,352.5,291.3,352.5z" class="st0"/><circle cx="229.1" cy="300" r="26.6" class="st0"/><path d="M242.2,298.3l-15.5-8.9c-1.3-0.8-2.9,0.2-2.9,1.7V309c0,1.5,1.7,2.5,2.9,1.7l15.5-8.9 C243.5,301,243.5,299,242.2,298.3z" class="st0"/></g><g><path d="M462.3,352.5H337.7c-6.6,0-12-5.4-12-12v-81c0-6.6,5.4-12,12-12h124.5c6.6,0,12,5.4,12,12v81 C474.3,347.1,468.9,352.5,462.3,352.5z" class="st0"/><circle cx="400" cy="300" r="26.6" class="st0"/><path d="M413.1,298.3l-15.5-8.9c-1.3-0.8-2.9,0.2-2.9,1.7V309c0,1.5,1.7,2.5,2.9,1.7l15.5-8.9 C414.4,301,414.4,299,413.1,298.3z" class="st0"/></g><g><path d="M633.2,352.5H508.7c-6.6,0-12-5.4-12-12v-81c0-6.6,5.4-12,12-12h124.5c6.6,0,12,5.4,12,12v81 C645.2,347.1,639.8,352.5,633.2,352.5z" class="st0"/><circle cx="570.9" cy="300" r="26.6" class="st0"/><path d="M584.1,298.3l-15.5-8.9c-1.3-0.8-2.9,0.2-2.9,1.7V309c0,1.5,1.7,2.5,2.9,1.7l15.5-8.9 C585.4,301,585.4,299,584.1,298.3z" class="st0"/></g><g><path d="M291.3,481.8H166.8c-6.6,0-12-5.4-12-12v-81c0-6.6,5.4-12,12-12h124.5c6.6,0,12,5.4,12,12v81 C303.3,476.4,298,481.8,291.3,481.8z" class="st0"/><circle cx="229.1" cy="429.3" r="26.6" class="st0"/><path d="M242.2,427.5l-15.5-8.9c-1.3-0.8-2.9,0.2-2.9,1.7v17.9c0,1.5,1.7,2.5,2.9,1.7l15.5-8.9 C243.5,430.2,243.5,428.3,242.2,427.5z" class="st0"/></g><g><path d="M462.3,481.8H337.7c-6.6,0-12-5.4-12-12v-81c0-6.6,5.4-12,12-12h124.5c6.6,0,12,5.4,12,12v81 C474.3,476.4,468.9,481.8,462.3,481.8z" class="st0"/><circle cx="400" cy="429.3" r="26.6" class="st0"/><path d="M413.1,427.5l-15.5-8.9c-1.3-0.8-2.9,0.2-2.9,1.7v17.9c0,1.5,1.7,2.5,2.9,1.7l15.5-8.9 C414.4,430.2,414.4,428.3,413.1,427.5z" class="st0"/></g><g><path d="M633.2,481.8H508.7c-6.6,0-12-5.4-12-12v-81c0-6.6,5.4-12,12-12h124.5c6.6,0,12,5.4,12,12v81 C645.2,476.4,639.8,481.8,633.2,481.8z" class="st0"/><circle cx="570.9" cy="429.3" r="26.6" class="st0"/><path d="M584.1,427.5l-15.5-8.9c-1.3-0.8-2.9,0.2-2.9,1.7v17.9c0,1.5,1.7,2.5,2.9,1.7l15.5-8.9 C585.4,430.2,585.4,428.3,584.1,427.5z" class="st0"/></g></g></svg>