<svg xmlns="http://www.w3.org/2000/svg" xmlns:xlink="http://www.w3.org/1999/xlink" id="Calque_1" x="0" y="0" version="1.1" viewBox="0 0 800 600" xml:space="preserve" style="enable-background:new 0 0 800 600"><style type="text/css">.st0{fill:#fff;stroke:#671cc9;stroke-width:5;stroke-miterlimit:10}</style><g><path d="M603,471.2H197c-21.6,0-39.1-17.5-39.1-39.1V167.9c0-21.6,17.5-39.1,39.1-39.1h406c21.6,0,39.1,17.5,39.1,39.1 v264.2C642.1,453.7,624.6,471.2,603,471.2z" class="st0"/><circle cx="400" cy="300" r="86.7" class="st0"/><path d="M442.8,294.4l-50.5-29.1c-4.3-2.5-9.6,0.6-9.6,5.6v58.4c0,5,5.4,8.1,9.6,5.6l50.5-29.1 C447.1,303.1,447.1,296.9,442.8,294.4z" class="st0"/></g></svg>