<svg xmlns="http://www.w3.org/2000/svg" width="24" height="24" viewBox="0 0 24 24">
  <path fill="#DE374B" fill-rule="evenodd" d="M8.5,10 C7.67157288,10 7,9.32842712 7,8.5 C7,7.67157288 7.67157288,7 8.5,7 C9.32842712,7 10,7.67157288 10,8.5 C10,9.32842712 9.32842712,10 8.5,10 Z M15.5,10 C14.6715729,10 14,9.32842712 14,8.5 C14,7.67157288 14.6715729,7 15.5,7 C16.3284271,7 17,7.67157288 17,8.5 C17,9.32842712 16.3284271,10 15.5,10 Z M12,22 C17.5228475,22 22,17.5228475 22,12 C22,6.4771525 17.5228475,2 12,2 C6.4771525,2 2,6.4771525 2,12 C2,17.5228475 6.4771525,22 12,22 Z M12,24 C5.372583,24 0,18.627417 0,12 C0,5.372583 5.372583,0 12,0 C18.627417,0 24,5.372583 24,12 C24,18.627417 18.627417,24 12,24 Z M4.29379008,14.1357853 C4.10739891,13.6159038 4.37774623,13.0433567 4.89762773,12.8569655 C5.41750923,12.6705743 5.99005636,12.9409216 6.17644753,13.4608031 C7.2878929,16.5608419 9.23091052,18.0267142 12.1654032,18.0267142 C15.0998959,18.0267142 17.0429135,16.5608419 18.1543589,13.4608031 C18.34075,12.9409216 18.9132972,12.6705743 19.4331787,12.8569655 C19.9530602,13.0433567 20.2234075,13.6159038 20.0370163,14.1357853 C18.6490937,18.0069732 15.9719217,20.0267142 12.1654032,20.0267142 C8.35888466,20.0267142 5.68171269,18.0069732 4.29379008,14.1357853 Z"/>
</svg>
