<svg xmlns="http://www.w3.org/2000/svg" xmlns:xlink="http://www.w3.org/1999/xlink" width="1000" height="665" viewBox="0 0 1000 665">
  <defs>
    <path id="logo-a" d="M217.493311,0 L337.617483,269.66367 C361.925964,324.233156 337.371666,388.166185 282.773923,412.462085 C228.176179,436.757986 164.210046,412.216396 139.901564,357.646909 L42.795538,139.656083 L0,240.423873 L0,0 L217.493311,0 Z"/>
    <path id="logo-b" d="M211.512264,0.225913621 L236.366004,56.0194349 C221.354263,50.8069556 205.226337,47.9744202 188.435639,47.9744202 C119.081053,47.9744202 61.0342579,96.3012345 46.2482731,161.059652 L23.795538,110.656083 L1.01358921e-11,166.685844 L9.00968189e-12,0.225913621 L211.512264,0.225913621 Z"/>
    <path id="logo-c" d="M462,234.264805 L462,425.225914 L261.879468,425.225914 L241.134507,378.656083 L221.35655,425.225914 L0,425.225914 L0,392.82337 L138.736073,66.1508204 C156.282798,24.8347206 196.513184,0.0794553977 238.770501,0.226565636 C280.341665,0.0818860868 320.068673,24.0227366 338.063451,64.4187509 L438.437493,289.745863 L462,234.264805 Z"/>
    <path id="logo-d" d="M197.292142,289.419567 L197.437493,289.745863 L292.397104,66.1508204 C309.94383,24.8347196 350.174217,0.079454108 392.431535,0.226565647 C434.002697,0.0818860836 473.729705,24.0227366 491.724482,64.4187509 L607.264923,323.792522 C583.964251,303.681933 553.606584,291.519676 520.407294,291.519676 C462.722656,291.519676 413.616872,328.237496 395.202042,379.568633 L394.795538,378.656083 L301.513521,598.301007 C278.161604,653.286204 214.633744,678.939841 159.620075,655.60001 C154.23761,653.316472 149.136064,650.648552 144.333861,647.641828 C124.159266,636.677727 107.302497,619.234755 97.2405329,596.646909 L0.510491272,379.500121 C15.0717371,383.667601 30.4508475,385.899488 46.3514222,385.899488 C113.259234,385.899488 170.933838,346.381012 197.292142,289.419567 Z"/>
    <path id="logo-e" d="M258.534051,89.0699358 L188.875327,253.090672 C171.887036,260.885 152.956829,265.225914 133,265.225914 C62.9949645,265.225914 5.62232842,211.811725 0.389089522,143.290603 L48.193625,30.7284612 C71.2136808,11.6771896 100.767855,0.225913621 133,0.225913621 C191.01722,0.225913621 240.358009,37.3272287 258.534051,89.0699358 Z"/>
    <path id="logo-f" d="M280.088917,115.210726 L207.85249,285.301007 C184.500573,340.286204 120.972713,365.939841 65.9590438,342.60001 C10.9453745,319.260179 -14.7215469,255.765198 8.63037023,200.780001 L88.8423185,11.9102921 C105.821731,4.3976065 124.601088,0.225913621 144.352041,0.225913621 C212.540077,0.225913621 269.147662,49.9483742 280.088917,115.210726 Z"/>
  </defs>
  <g fill="none" fill-rule="evenodd">
    <g transform="translate(653 239)">
      <use fill="#2AA8FF" xlink:href="#logo-a"/>
    </g>
    <g transform="translate(672 268)">
      <use fill="#393939" fill-opacity=".2" xlink:href="#logo-b"/>
    </g>
    <g transform="translate(60)">
      <use fill="#017ACE" xlink:href="#logo-c"/>
    </g>
    <g transform="translate(301)">
      <use fill="#AEDEFF" xlink:href="#logo-d"/>
    </g>
    <g transform="translate(42 291)">
      <use fill="#000" xlink:href="#logo-e"/>
    </g>
    <g transform="translate(0 313)">
      <use fill="#393939" xlink:href="#logo-f"/>
    </g>
  </g>
</svg>
