<svg id="Group_103" data-name="Group 103" xmlns="http://www.w3.org/2000/svg" width="18" height="13.698" viewBox="0 0 18 13.698">
  <path id="Path_74" data-name="Path 74" d="M15.8,57.75H2.2a2.2,2.2,0,0,0-2.2,2.2v9.3a2.2,2.2,0,0,0,2.2,2.2H15.8a2.2,2.2,0,0,0,2.2-2.2V59.955A2.2,2.2,0,0,0,15.8,57.75Zm1.2,11.5a1.2,1.2,0,0,1-1.2,1.2H2.2a1.2,1.2,0,0,1-1.2-1.2V59.955a1.2,1.2,0,0,1,1.2-1.2H15.8a1.2,1.2,0,0,1,1.2,1.2v9.292Z" transform="translate(0 -57.75)" fill="#747e88"/>
  <path id="Path_75" data-name="Path 75" d="M65.028,113.731l4.4-3.948a.5.5,0,0,0-.674-.749l-6.071,5.449L61.5,113.426s-.007-.007-.007-.011a.745.745,0,0,0-.082-.071l-4.819-4.313a.5.5,0,0,0-.67.752l4.454,3.981-4.436,4.153a.5.5,0,0,0-.022.711.514.514,0,0,0,.369.16.5.5,0,0,0,.343-.134l4.5-4.212,1.222,1.091a.5.5,0,0,0,.67,0l1.255-1.125,4.477,4.253a.5.5,0,0,0,.711-.019.5.5,0,0,0-.019-.711Z" transform="translate(-53.676 -106.997)" fill="#747e88"/>
</svg>
