<svg xmlns="http://www.w3.org/2000/svg" width="465.685" height="1159.194" viewBox="0 0 465.685 1159.194">
  <path id="Subtraction_2" data-name="Subtraction 2" d="M281.4,979.183h0c-13.278-1.365-26.652-3.278-39.75-5.686-15.247-2.8-30.57-6.36-45.543-10.569-15.173-4.264-30.372-9.308-45.174-14.99-16.315-6.262-32.4-13.135-47.795-20.428-15.441-7.313-30.58-15.23-45-23.53-14.482-8.338-28.6-17.272-41.954-26.554-13.432-9.334-26.441-19.26-38.668-29.5C-72.758,805.793-112.1,756.678-139.4,701.942a421.573,421.573,0,0,1-18.574-43.1A424.612,424.612,0,0,1-171.8,613.242a438.533,438.533,0,0,1-8.827-48.011,464.746,464.746,0,0,1-3.586-50.349,504.393,504.393,0,0,1,1.9-52.611c1.579-17.962,4.144-36.4,7.626-54.8,3.536-18.684,8.111-37.83,13.6-56.907,5.575-19.38,12.242-39.21,19.816-58.94,14.64-38.139,33.811-77.887,56.98-118.139A1145.22,1145.22,0,0,1-5.857,55.5,1302.752,1302.752,0,0,1,89.165-56.471,1250.986,1250.986,0,0,1,195.907-156.584c9.614-7.991,19.425-15.873,29.162-23.427H281.4V979.182Z" transform="translate(184.281 180.011)" fill="rgba(30,93,233,0.07)"/>
</svg>
