<svg xmlns="http://www.w3.org/2000/svg" width="134.152" height="26.92" viewBox="0 0 134.152 26.92">
    <g id="prefix__logo-3" transform="translate(-661.017 -43.532)">
        <path id="prefix__Union_4" d="M-387.609-1240.212a3.843 3.843 0 0 0-2.463-.809h-1.834v-3.659h1.892a7.276 7.276 0 0 1 4.423 1.391 4.146 4.146 0 0 0 2.462.81 4.143 4.143 0 0 0 2.462-.81 7.759 7.759 0 0 1 4.43-1.39 7.754 7.754 0 0 1 4.429 1.39 4.144 4.144 0 0 0 2.462.81 4.144 4.144 0 0 0 2.462-.81 7.274 7.274 0 0 1 4.366-1.391h1.836v3.659h-1.836a3.84 3.84 0 0 0-2.462.809 7.755 7.755 0 0 1-4.429 1.39 7.755 7.755 0 0 1-4.429-1.39 3.815 3.815 0 0 0-2.461-.809 3.865 3.865 0 0 0-2.463.809 7.727 7.727 0 0 1-4.423 1.39 7.728 7.728 0 0 1-4.424-1.39zm57.171.364a5.334 5.334 0 0 1-3.09-.855 3.413 3.413 0 0 1-.983-.985 3.408 3.408 0 0 1-.51-1.3c0-.228 0-.33.308-.33h1.915a.419.419 0 0 1 .227.076.41.41 0 0 1 .149.186 1.49 1.49 0 0 0 .7.809 2.667 2.667 0 0 0 1.276.3 2.023 2.023 0 0 0 .788-.114 2.016 2.016 0 0 0 .683-.41 1.951 1.951 0 0 0 .414-.658 1.954 1.954 0 0 0 .122-.767v-.718a3.819 3.819 0 0 1-2.371.741 4.422 4.422 0 0 1-1.746-.291 4.41 4.41 0 0 1-1.492-.952 4.558 4.558 0 0 1-1.281-3.169 4.56 4.56 0 0 1 1.281-3.169 4.449 4.449 0 0 1 1.494-.943 4.452 4.452 0 0 1 1.744-.288 3.829 3.829 0 0 1 2.427.786v-.183a.3.3 0 0 1 .013-.13.29.29 0 0 1 .068-.112.3.3 0 0 1 .11-.071.284.284 0 0 1 .129-.018l1.892-.012a.288.288 0 0 1 .32.33v8.174a3.724 3.724 0 0 1-.3 1.608 3.707 3.707 0 0 1-.963 1.322 4.786 4.786 0 0 1-3.1 1.144c-.086.004-.153.003-.225 0zm.7-6.215a2 2 0 0 0 .706-.51 2.794 2.794 0 0 0 .585-1.71 2.794 2.794 0 0 0-.585-1.71 1.988 1.988 0 0 0-.7-.5 2 2 0 0 0-.848-.159 2.06 2.06 0 0 0-.867.163 2.047 2.047 0 0 0-.718.51 2.419 2.419 0 0 0-.616 1.71 2.465 2.465 0 0 0 .606 1.7 2.063 2.063 0 0 0 .717.509 2.063 2.063 0 0 0 .867.163 2 2 0 0 0 .849-.166zm23.238 5.9a.278.278 0 0 1-.113-.068.268.268 0 0 1-.068-.113.272.272 0 0 1-.008-.131v-9.348a.61.61 0 0 0-.024-.273.581.581 0 0 0-.143-.232.586.586 0 0 0-.233-.144.6.6 0 0 0-.273-.023h-.376c-.251 0-.375-.091-.375-.274v-1.345a.357.357 0 0 1 .065-.234.361.361 0 0 1 .2-.142 3.436 3.436 0 0 1 1.23-.205 2.11 2.11 0 0 1 1.206.255 2.106 2.106 0 0 1 .859.886 3.837 3.837 0 0 1 1.29-.86 3.834 3.834 0 0 1 1.526-.28 4.474 4.474 0 0 1 1.755.284 4.467 4.467 0 0 1 1.5.947 4.677 4.677 0 0 1 1.254 3.186 4.679 4.679 0 0 1-1.254 3.187 4.428 4.428 0 0 1-1.5.955 4.416 4.416 0 0 1-1.757.287 3.919 3.919 0 0 1-2.383-.741v4.116c0 .216-.114.319-.331.319h-1.915a.274.274 0 0 1-.051 0 .266.266 0 0 1-.081-.008zm3.7-10.4a2.189 2.189 0 0 0-.718.5 2.52 2.52 0 0 0-.6 1.744 2.549 2.549 0 0 0 .6 1.744 2.187 2.187 0 0 0 .718.5 2.163 2.163 0 0 0 .855.176 2.174 2.174 0 0 0 .856-.176 2.187 2.187 0 0 0 .718-.5 2.464 2.464 0 0 0 .626-1.744 2.427 2.427 0 0 0-.626-1.744 2.189 2.189 0 0 0-.718-.5 2.189 2.189 0 0 0-.856-.176 2.178 2.178 0 0 0-.855.181zm24.106 6.513a2.52 2.52 0 0 1-1.01-.8 4.123 4.123 0 0 1-2.907.992 3.528 3.528 0 0 1-1.444-.236 3.544 3.544 0 0 1-1.224-.8 3.739 3.739 0 0 1-.788-1.271 3.717 3.717 0 0 1-.227-1.477v-4.458c0-.216.1-.33.319-.33h1.915a.287.287 0 0 1 .32.33v4.116a2.018 2.018 0 0 0 .49 1.4 1.716 1.716 0 0 0 .6.41 1.71 1.71 0 0 0 .713.125 1.872 1.872 0 0 0 .734-.113 1.9 1.9 0 0 0 .634-.388 1.839 1.839 0 0 0 .4-.625 1.828 1.828 0 0 0 .115-.732v-4.2a.287.287 0 0 1 .32-.33h1.939c.216 0 .319.114.319.33v5.369c0 .446.194.661.57.661a1.811 1.811 0 0 0 .525-.057.285.285 0 0 1 .132-.006.294.294 0 0 1 .122.052.3.3 0 0 1 .087.1.287.287 0 0 1 .033.128l.138 1.425a.307.307 0 0 1-.005.121.3.3 0 0 1-.052.111.3.3 0 0 1-.09.081.308.308 0 0 1-.114.041 4.388 4.388 0 0 1-1.289.216 2.533 2.533 0 0 1-.261.014 2.529 2.529 0 0 1-1.02-.194zm-66.15-1.023a4.559 4.559 0 0 1-1.319-3.209 4.558 4.558 0 0 1 1.319-3.208 5.393 5.393 0 0 1 3.42-1.223 5.391 5.391 0 0 1 3.42 1.223 4.625 4.625 0 0 1 1.288 3.2 4.623 4.623 0 0 1-1.288 3.2v.012a5.365 5.365 0 0 1-3.42 1.23 5.37 5.37 0 0 1-3.425-1.22zm1.8-4.856a2.558 2.558 0 0 0-.625 1.676 2.558 2.558 0 0 0 .625 1.676 2.431 2.431 0 0 0 1.632.629 2.428 2.428 0 0 0 1.63-.629 2.554 2.554 0 0 0 .626-1.676 2.554 2.554 0 0 0-.626-1.676 2.432 2.432 0 0 0-1.63-.628 2.434 2.434 0 0 0-1.636.632zm48.269 5.369a2.768 2.768 0 0 1-.891-.858 2.765 2.765 0 0 1-.431-1.16c0-.228.078-.342.329-.342h1.677a.426.426 0 0 1 .222.073.413.413 0 0 1 .153.178c.24.616.868.923 1.87.923a2.13 2.13 0 0 0 1.014-.205.67.67 0 0 0 .272-.226.66.66 0 0 0 .116-.333c0-.3-.182-.5-.547-.638a6.2 6.2 0 0 0-1.334-.285 12.764 12.764 0 0 1-1.6-.284 2.635 2.635 0 0 1-1.335-.764 2.45 2.45 0 0 1-.455-.883 2.44 2.44 0 0 1-.068-.991 2.445 2.445 0 0 1 .334-.935 2.443 2.443 0 0 1 .68-.725 4.7 4.7 0 0 1 2.758-.73 5.042 5.042 0 0 1 2.691.673 2.536 2.536 0 0 1 .829.753 2.533 2.533 0 0 1 .426 1.036c0 .229-.1.342-.309.342h-1.687a.351.351 0 0 1-.2-.049.352.352 0 0 1-.139-.156 1.142 1.142 0 0 0-.593-.6 2 2 0 0 0-.981-.228 1.993 1.993 0 0 0-.969.193.578.578 0 0 0-.262.206.568.568 0 0 0-.1.319.733.733 0 0 0 .162.427.735.735 0 0 0 .385.246 6.189 6.189 0 0 0 1.355.342 14.729 14.729 0 0 1 1.586.3 2.623 2.623 0 0 1 1.334.763 2.131 2.131 0 0 1 .435.725 2.152 2.152 0 0 1 .123.836 2.276 2.276 0 0 1-.268 1.132 2.3 2.3 0 0 1-.792.852 4.982 4.982 0 0 1-2.861.786h-.227a5.49 5.49 0 0 1-2.706-.708zm-55.906.159a1.768 1.768 0 0 1-.544-.658 1.8 1.8 0 0 1-.175-.835v-10.568a.286.286 0 0 1 .014-.132.29.29 0 0 1 .07-.113.288.288 0 0 1 .113-.071.3.3 0 0 1 .133-.013h1.915c.217 0 .319.113.319.33v9.747c0 .434.194.65.593.65a1.638 1.638 0 0 0 .5-.057c.228 0 .353.068.364.274l.171 1.425a.283.283 0 0 1 0 .126.306.306 0 0 1-.054.113.293.293 0 0 1-.1.08.3.3 0 0 1-.121.034 4.292 4.292 0 0 1-1.3.216h-.164a3.016 3.016 0 0 1-1.738-.547zm89.445 0a1.762 1.762 0 0 1-.569-.651 1.789 1.789 0 0 1-.2-.842v-2.679a2.012 2.012 0 0 0-.479-1.4 1.612 1.612 0 0 0-.578-.412 1.618 1.618 0 0 0-.7-.124 1.419 1.419 0 0 0-.627.12 1.441 1.441 0 0 0-.513.382 2.041 2.041 0 0 0-.433 1.345v4.207c0 .217-.1.33-.319.33h-1.927a.289.289 0 0 1-.132-.014.292.292 0 0 1-.114-.071.291.291 0 0 1-.069-.113.28.28 0 0 1-.014-.133v-4.116a2.107 2.107 0 0 0-.445-1.4 1.48 1.48 0 0 0-.51-.4 1.494 1.494 0 0 0-.63-.141 1.661 1.661 0 0 0-.68.117 1.662 1.662 0 0 0-.573.384 1.877 1.877 0 0 0-.467 1.345v4.207a.3.3 0 0 1-.014.133.285.285 0 0 1-.071.113.28.28 0 0 1-.112.071.293.293 0 0 1-.133.014h-1.855c-.218 0-.319-.113-.319-.33v-5.369a.584.584 0 0 0-.024-.273.573.573 0 0 0-.144-.232.586.586 0 0 0-.231-.144.6.6 0 0 0-.274-.023h-.375c-.251 0-.376-.091-.376-.274v-1.345a.367.367 0 0 1 .064-.234.367.367 0 0 1 .2-.142 3.434 3.434 0 0 1 1.231-.205 2.145 2.145 0 0 1 1.165.231 2.143 2.143 0 0 1 .863.817 3.873 3.873 0 0 1 1.339-.826 3.863 3.863 0 0 1 1.557-.222 3.258 3.258 0 0 1 1.495.282 3.27 3.27 0 0 1 1.207.927 3.76 3.76 0 0 1 1.357-.94 3.763 3.763 0 0 1 1.63-.268 3.59 3.59 0 0 1 1.459.236 3.594 3.594 0 0 1 1.242.8 3.725 3.725 0 0 1 .79 1.269 3.725 3.725 0 0 1 .225 1.478v2.2c0 .434.194.65.559.65a1.717 1.717 0 0 0 .524-.057c.236 0 .361.091.376.274l.1 1.425a.279.279 0 0 1 0 .125.3.3 0 0 1-.051.113.282.282 0 0 1-.094.082.3.3 0 0 1-.121.033 4.415 4.415 0 0 1-1.31.216h-.158a3.042 3.042 0 0 1-1.746-.545zm-51.038 0a1.794 1.794 0 0 1-.535-.661 1.8 1.8 0 0 1-.172-.833v-6.2a.3.3 0 0 1 .013-.132.311.311 0 0 1 .071-.113.31.31 0 0 1 .113-.071.3.3 0 0 1 .132-.014h1.915a.287.287 0 0 1 .319.33v5.381q0 .651.581.65a1.764 1.764 0 0 0 .513-.057c.229 0 .354.068.365.274l.171 1.425a.284.284 0 0 1 0 .126.338.338 0 0 1-.054.113.293.293 0 0 1-.1.08.3.3 0 0 1-.121.034 4.3 4.3 0 0 1-1.31.216h-.151a3.06 3.06 0 0 1-1.754-.547zm-10.579-.672a4.639 4.639 0 0 1-1.289-3.209 4.638 4.638 0 0 1 1.289-3.208 5.4 5.4 0 0 1 3.42-1.22 5.4 5.4 0 0 1 3.42 1.22 4.629 4.629 0 0 1 1.288 3.2 4.627 4.627 0 0 1-1.288 3.2v.012a5.392 5.392 0 0 1-3.42 1.223 5.39 5.39 0 0 1-3.424-1.213zm2.548-5.334a2.279 2.279 0 0 0-.758.478 2.583 2.583 0 0 0-.617 1.676 2.583 2.583 0 0 0 .617 1.676 2.265 2.265 0 0 0 .758.478 2.276 2.276 0 0 0 .883.149 2.308 2.308 0 0 0 .878-.151 2.281 2.281 0 0 0 .752-.476 2.588 2.588 0 0 0 .616-1.676 2.588 2.588 0 0 0-.616-1.676 2.3 2.3 0 0 0-.752-.476 2.308 2.308 0 0 0-.878-.151h-.068a2.274 2.274 0 0 0-.819.156zm-67.3 3.647a3.847 3.847 0 0 0-2.463-.809h-1.834v-3.659h1.892a7.276 7.276 0 0 1 4.423 1.391 4.146 4.146 0 0 0 2.462.81 4.143 4.143 0 0 0 2.462-.81 7.759 7.759 0 0 1 4.43-1.39 7.754 7.754 0 0 1 4.429 1.39 4.144 4.144 0 0 0 2.462.81 4.144 4.144 0 0 0 2.462-.81 7.274 7.274 0 0 1 4.366-1.391h1.836v3.659h-1.836a3.845 3.845 0 0 0-2.462.809 7.749 7.749 0 0 1-4.429 1.391 7.749 7.749 0 0 1-4.429-1.391 3.82 3.82 0 0 0-2.461-.809 3.87 3.87 0 0 0-2.463.809 7.728 7.728 0 0 1-4.423 1.391 7.729 7.729 0 0 1-4.428-1.387zm18.126-4.959a3.128 3.128 0 0 1-.342-.216 11.6 11.6 0 0 0-6.47-1.973 11.6 11.6 0 0 0-6.469 1.973 3.217 3.217 0 0 1-.342.216h-.159a3.307 3.307 0 0 1-.342-.216 11.051 11.051 0 0 0-6.465-1.973h-1.368a15.608 15.608 0 0 1 5.534-8.527 15.6 15.6 0 0 1 9.611-3.31 15.606 15.606 0 0 1 9.612 3.31 15.607 15.607 0 0 1 5.533 8.527h-1.368a11.05 11.05 0 0 0-6.464 1.973 3.128 3.128 0 0 1-.342.216zm56.692-2.644a1.37 1.37 0 0 1-.319-.457 1.375 1.375 0 0 1-.113-.546 1.376 1.376 0 0 1 .113-.546 1.373 1.373 0 0 1 .319-.457 1.691 1.691 0 0 1 1.089-.4 1.69 1.69 0 0 1 1.088.4 1.389 1.389 0 0 1 .32.457 1.375 1.375 0 0 1 .113.546 1.374 1.374 0 0 1-.113.546 1.386 1.386 0 0 1-.32.457 1.649 1.649 0 0 1-1.088.409 1.653 1.653 0 0 1-1.093-.405z" data-name="Union 4" transform="translate(1052.924 1309.273)" style="fill:#394149"/>
    </g>
</svg>
