<svg xmlns="http://www.w3.org/2000/svg" width="55" height="54" viewBox="0 0 55 54">
  <g fill="none" transform="translate(.5 -.2)">
    <path fill="#26C184" d="M53.8510709,16.4007223 L44.0130556,6.64873384 C43.6443696,6.28004782 43.1404987,6.07112574 42.6243383,6.07112574 L38.7654246,6.07112574 L10.3449404,6.07112574 C8.18198242,6.07112574 6.44915814,7.81623956 6.44915814,9.966908 L6.44915814,49.8854677 C6.44915814,52.0361362 8.19427196,53.78125 10.3449404,53.78125 L50.5083176,53.78125 C52.6712756,53.78125 54.3918103,52.0607152 54.4040999,49.9346259 L54.4409685,17.7894397 C54.4286789,17.2855688 54.2197569,16.7816979 53.8510709,16.4007223 Z M42.3539685,8.67650694 L51.4546117,17.7648606 C51.8355873,18.1458361 51.5652175,18.7848919 51.0367676,18.7848919 L43.7426859,18.7848919 C42.4154162,18.7848919 41.3339372,17.7034129 41.3339372,16.3761433 L41.3339372,9.09435109 C41.3339372,8.5536116 41.9852825,8.29553138 42.3539685,8.67650694 Z M52.0322198,24.3929469 L52.0199303,36.4908673 L52.0199303,49.1972538 C52.0199303,50.35247 51.0613466,51.2987641 49.8938409,51.2987641 L10.9717066,51.2987641 C9.8042009,51.2987641 8.84561725,50.35247 8.84561725,49.1972538 L8.84561725,10.5322266 C8.84561725,9.37701037 9.8042009,8.43071626 10.9717066,8.43071626 L36.9588631,8.43071626 C38.1263689,8.43071626 39.0849525,9.37701037 39.0849525,10.5322266 L39.0849525,16.7571188 C39.0849525,19.0921303 40.891514,20.9478499 43.2756836,20.9478499 L49.9061305,20.9478499 C51.0736362,20.9478499 52.0322198,21.894144 52.0322198,23.0493602 L52.0322198,24.3929469 Z M24.5066553,28.3095045 C23.6351026,28.3095045 22.9231299,28.9969264 22.9231299,29.8439283 L22.9231299,39.4555592 C22.9231299,40.3025612 23.6228272,40.989983 24.5066553,40.989983 L52.433169,40.989983 L52.433169,28.3095045 L24.5066553,28.3095045 Z M33.074878,39.2714283 L30.8162061,35.6992897 L28.5575342,39.2714283 L26.3725147,39.2714283 L29.588667,34.4103737 L26.5689209,29.8439283 L28.8398682,29.8439283 L30.9266846,33.2319362 L32.9766748,29.8439283 L35.1985205,29.8439283 L32.1542237,34.5208522 L35.431753,39.2714283 L33.074878,39.2714283 Z M36.6470166,39.2714283 L36.6470166,29.831653 L38.6970069,29.831653 L38.6970069,37.6142506 L42.6251319,37.6142506 L42.6374072,39.2714283 L36.6470166,39.2714283 Z M49.1065381,38.6576588 C48.4804932,39.1486744 47.6089405,39.3941823 46.4796045,39.3941823 C45.4484717,39.3941823 44.5278174,39.2100514 43.7421924,38.8295143 L43.7421924,36.9759303 C44.3927881,37.2582643 44.9451807,37.4669459 45.4116455,37.5774244 C45.865835,37.687903 46.2831983,37.7492799 46.65146,37.7492799 C47.1056494,37.7492799 47.4493604,37.6633522 47.6825928,37.5037721 C47.9158252,37.344192 48.0508545,37.0864088 48.0508545,36.7549733 C48.0508545,36.5708424 48.001753,36.4112623 47.8912744,36.2639576 C47.7930713,36.1289283 47.6334912,35.9816237 47.4248096,35.8465944 C47.216128,35.7115651 46.7987647,35.5028834 46.1727197,35.2082741 C45.583501,34.9382155 45.1415869,34.6804323 44.8347022,34.4226491 C44.5400928,34.1771412 44.294585,33.8825319 44.1227295,33.5510963 C43.9385987,33.2196608 43.8649463,32.8268483 43.8649463,32.3849342 C43.8649463,31.5502076 44.1595557,30.8996119 44.736499,30.4208717 C45.3134424,29.9421315 46.1236182,29.6966237 47.1424756,29.6966237 C47.6457666,29.6966237 48.1245069,29.7580006 48.5909717,29.8684791 C49.0574365,29.9789576 49.5239014,30.1508131 50.0271924,30.3594948 L49.3643213,31.906194 C48.8487549,31.6975123 48.4191162,31.562483 48.0876807,31.4765553 C47.7439697,31.3906276 47.4125342,31.3538014 47.0810987,31.3538014 C46.6882862,31.3538014 46.3936768,31.4397291 46.1849951,31.62386 C45.9763135,31.8079908 45.865835,32.0289479 45.865835,32.3235573 C45.865835,32.4954127 45.9026612,32.6549928 45.9885889,32.7900221 C46.0745166,32.9250514 46.2095459,33.0478053 46.3936768,33.1705592 C46.5778076,33.2933131 47.0197217,33.5142701 47.7071436,33.8334303 C48.6155225,34.2507936 49.2415674,34.6804323 49.573003,35.1100709 C49.9167139,35.5274342 50.076294,36.055276 50.076294,36.6690455 C50.0517432,37.4914967 49.7448584,38.1789186 49.1065381,38.6576588 Z"/>
    <path fill="#28C285" d="M44.3874764,16.3929469 L44.3751869,41.1972538 C44.3751869,42.35247 43.4166033,43.2987641 42.2490975,43.2987641 L2.52696324,43.2987641 C1.35945752,43.2987641 0.400873872,42.35247 0.400873872,41.1972538 L0.400873872,2.53222656 C0.400873872,1.37701037 1.35945752,0.430716258 2.52696324,0.430716258 L29.3141198,0.430716258 C30.4816255,0.430716258 31.4402091,1.37701037 31.4402091,2.53222656 L31.4402091,8.7571188 C31.4402091,11.0921303 33.2467706,12.9478499 35.6309402,12.9478499 L42.2613871,12.9478499 C43.4288928,12.9478499 44.3874764,13.894144 44.3874764,15.0493602 L44.3874764,16.3929469 Z" opacity=".1"/>
  </g>
</svg>
