<svg xmlns="http://www.w3.org/2000/svg" width="16" height="16" viewBox="0 0 16 16">
  <path d="M390.585786,904 L384.292893,897.707107 C383.902369,897.316582 383.902369,896.683418 384.292893,896.292893 C384.683418,895.902369 385.316582,895.902369 385.707107,896.292893 L392,902.585786 L398.292893,896.292893 C398.683418,895.902369 399.316582,895.902369 399.707107,896.292893 C400.097631,896.683418 400.097631,897.316582 399.707107,897.707107 L393.414214,904 L399.707107,910.292893 C400.097631,910.683418 400.097631,911.316582 399.707107,911.707107 C399.316582,912.097631 398.683418,912.097631 398.292893,911.707107 L392,905.414214 L385.707107,911.707107 C385.316582,912.097631 384.683418,912.097631 384.292893,911.707107 C383.902369,911.316582 383.902369,910.683418 384.292893,910.292893 L390.585786,904 L390.585786,904 Z" transform="translate(-384 -896)"/>
</svg>
