<?xml version="1.0" encoding="utf-8"?>
<!-- Generator: Adobe Illustrator 25.0.0, SVG Export Plug-In . SVG Version: 6.00 Build 0)  -->
<svg version="1.1" id="Layer_1" xmlns="http://www.w3.org/2000/svg" xmlns:xlink="http://www.w3.org/1999/xlink" x="0px" y="0px"
	 viewBox="0 0 1101 666.1" style="enable-background:new 0 0 1101 666.1;" xml:space="preserve">
<style type="text/css">
	.st0{fill:#D0CDE1;}
	.st1{fill:#2F2E41;}
	.st2{fill:#FFB8B8;}
	.st3{fill:#F3A68E;}
	.st4{fill:#3F3D56;}
	.st5{fill:none;stroke:#D0CDE1;stroke-width:2;stroke-miterlimit:10;}
	.st6{opacity:0.15;enable-background:new    ;}
</style>
<g id="hair2" transform="translate(0 0)">
	<path id="right_x5F_arm" class="st0" d="M669.1,313.8c0,0,200.2,154.3,164.6,193s-173.5,30.1-173.5,30.1l8.3-45.5l79.6-10.4
		l-40.5-39.2l-36.2,4.2L669.1,313.8z"/>
	<circle class="st1" cx="633.9" cy="214" r="36.4"/>
	<path class="st1" d="M644.1,178.6c20.1,0,36.4,16.3,36.4,36.4c0,6-1.5,12-4.4,17.3c12.5-15.7,10-38.6-5.7-51.1
		c-15.7-12.5-38.6-10-51.1,5.7c-1.4,1.7-2.6,3.5-3.6,5.4C622.5,183.7,633,178.6,644.1,178.6z"/>
	<circle class="st1" cx="565.9" cy="107" r="106.9"/>
	<circle class="st2" cx="565" cy="144.2" r="68.9"/>
	<path class="st2" d="M516.1,165.9c0,0,9.1,83.4-5.4,92.4s83.4,21.7,83.4,21.7s-14.5-90.6,21.7-114.2L516.1,165.9z"/>
	<path class="st0" d="M603.1,243.8c0,0,27-12.6-11.9-8.1S518.8,223,518.8,223s-11.8-11.8-13.6,0.9s5.4,36.2-34.4,39.9
		s-76.1-7.2-90.6,19.9s-7.2,145-7.2,145s27.2,97.9,48.9,112.4s212-5.4,212-5.4l54.4-97.9V323.6c0,0-7.2-39.9-58-29
		c0,0-32.6-7.2-30.8-23.6S603.1,243.8,603.1,243.8z"/>
	<path class="st1" d="M429,610.3c1.1-4.9,1.9-7.6,1.9-7.6l-0.6-4l-6-40.5l-2.5-17.1c21.7-9.1,27.2-50.7,27.2-50.7l0.8-0.5l3.7-2.2v0
		l13.3-8l0.3-0.2l5.4,3.6l10.9,7.3c38.2,28.1,77.2,27.6,101.2,23.2c14.7-2.7,23.8-6.9,23.8-6.9l26.4-8.8l0.8-0.3l0.8,0.1L652,500
		l0.3,0l1.3,0.2l-3.6,24.8l-5.2,36c13.7,7.3,25.9,20.9,36.6,37.7c2.4,3.7,4.6,7.6,6.9,11.6c2.9,5.2,5.6,10.6,8.2,16.2
		c0.3,0.7,0.6,1.3,0.9,2c1,2.2,2,4.4,3,6.6H424.2c0.4-2.2,0.7-4.3,1.1-6.3c0-0.1,0-0.1,0-0.2c0.1-0.7,0.2-1.3,0.4-2
		C426.9,619.8,428.1,614.3,429,610.3z"/>
	<path class="st1" d="M418.2,262c0,0,19.9,36.2,12.7,81.5s21.7,157.7,21.7,157.7l21.7-5.4c0,0-14.5-94.2-10.9-116
		S467.2,272.8,449,262S418.2,262,418.2,262z"/>
	<path class="st1" d="M629,299.6l7.6,200.6l14.5,9.1c0,0,20.8-220.2,10-220.2h-22.1c-5.5,0-10,4.5-10,10
		C629,299.3,629,299.5,629,299.6z"/>
	<circle class="st3" cx="462.6" cy="487.6" r="9.1"/>
	<circle class="st3" cx="643.8" cy="496.6" r="9.1"/>
	<path class="st1" d="M506.1,58.1V127h15.9l20.3-21.7l-2.7,21.7h70.5l-4.3-21.7l8.7,21.7h11.2V58.1H506.1z"/>
	<ellipse class="st2" cx="495.2" cy="129.7" rx="5.4" ry="10"/>
	<ellipse class="st2" cx="634.8" cy="129.7" rx="5.4" ry="10"/>
	<path class="st2" d="M671.9,495.7c0,0-82.4-15.4-87.9,11.8s91.5,15.4,91.5,15.4L671.9,495.7z"/>
	<path class="st2" d="M378.4,571.8l25.4,19.9c0,0,18.1,56.2,45.3,39.9c27.2-16.3-25.4-74.3-25.4-74.3l-30.8-10.9L378.4,571.8z"/>
	<path id="right_x5F_arm_1_" class="st0" d="M405.7,272.1l-25.3,7.6c0,0-175.8,130.1-183.1,166.3s34.4,56.2,34.4,56.2l157.7,74.3
		l16.3-43.5L331.4,495c0,0,5.4-10.9-16.3-12.7s-25.4-25.4-25.4-25.4s43.5-67,67-52.5s30.8,25.4,30.8,25.4L405.7,272.1z"/>
	<path class="st4" d="M764.6,616.5v6.1c0,1.7-0.3,3.3-0.9,4.9c-0.3,0.7-0.6,1.4-1,2c-2.4,4.1-6.8,6.6-11.5,6.6H304.6
		c-4.7,0-9.1-2.5-11.5-6.6c-0.4-0.6-0.7-1.3-1-2c-0.6-1.6-0.9-3.2-0.9-4.9v-6.1c0-7.4,6-13.4,13.4-13.4c0,0,0,0,0,0h25.7v-2.8
		c0-0.3,0.2-0.6,0.6-0.6c0,0,0,0,0,0h13.4c0.3,0,0.6,0.2,0.6,0.6c0,0,0,0,0,0v2.8h8.4v-2.8c0-0.3,0.2-0.6,0.6-0.6c0,0,0,0,0,0h13.4
		c0.3,0,0.6,0.2,0.6,0.6c0,0,0,0,0,0v2.8h8.4v-2.8c0-0.3,0.2-0.6,0.6-0.6c0,0,0,0,0,0h13.4c0.3,0,0.6,0.2,0.6,0.6c0,0,0,0,0,0v2.8
		h8.4v-2.8c0-0.3,0.2-0.6,0.6-0.6c0,0,0,0,0,0h13.4c0.3,0,0.6,0.2,0.6,0.6c0,0,0,0,0,0v2.8h8.4v-2.8c0-0.3,0.2-0.6,0.6-0.6
		c0,0,0,0,0,0h13.4c0.3,0,0.6,0.2,0.6,0.6c0,0,0,0,0,0v2.8h8.4v-2.8c0-0.3,0.2-0.6,0.6-0.6c0,0,0,0,0,0h13.4c0.3,0,0.6,0.2,0.6,0.6
		c0,0,0,0,0,0v2.8h8.4v-2.8c0-0.3,0.2-0.6,0.6-0.6c0,0,0,0,0,0h105.2c0.3,0,0.6,0.2,0.6,0.6c0,0,0,0,0,0v2.8h8.4v-2.8
		c0-0.3,0.2-0.6,0.6-0.6c0,0,0,0,0,0h13.4c0.3,0,0.6,0.3,0.6,0.6v2.8h8.4v-2.8c0-0.3,0.2-0.6,0.6-0.6c0,0,0,0,0,0h13.4
		c0.3,0,0.6,0.2,0.6,0.6c0,0,0,0,0,0v2.8h8.4v-2.8c0-0.3,0.2-0.6,0.6-0.6c0,0,0,0,0,0h13.4c0.3,0,0.6,0.2,0.6,0.6c0,0,0,0,0,0v2.8
		h8.4v-2.8c0-0.3,0.2-0.6,0.6-0.6c0,0,0,0,0,0h13.4c0.3,0,0.6,0.3,0.5,0.6v2.8h8.4v-2.8c0-0.3,0.2-0.6,0.6-0.6c0,0,0,0,0,0h13.4
		c0.3,0,0.6,0.2,0.6,0.6c0,0,0,0,0,0v2.8h8.4v-2.8c0-0.3,0.2-0.6,0.6-0.6c0,0,0,0,0,0h13.4c0.3,0,0.6,0.2,0.6,0.6c0,0,0,0,0,0v2.8
		h39.2C758.6,603.1,764.6,609.1,764.6,616.5C764.6,616.5,764.6,616.5,764.6,616.5z"/>
	<rect x="161.4" y="627.4" class="st4" width="733" height="2"/>
	<path class="st4" d="M728.6,360.8H562.2v-3.4h-75.5v3.4H319.6c-6.2,0-11.3,5-11.3,11.3c0,0,0,0,0,0V600c0,6.2,5,11.3,11.3,11.3
		c0,0,0,0,0,0h409c6.2,0,11.3-5,11.3-11.3V372.1C739.9,365.9,734.9,360.8,728.6,360.8L728.6,360.8z"/>
	<circle class="st5" cx="524.4" cy="440.4" r="25"/>
	<circle class="st0" cx="516.4" cy="449.4" r="25"/>
	<rect x="26" y="663.6" class="st4" width="189" height="2.3"/>
	<rect x="851" y="663.6" class="st4" width="189" height="2.3"/>
	<path class="st4" d="M136.1,590.7c-19.9,32.5-13.1,72.9-13.1,72.9s39.1-12.3,59-44.8s13.1-72.9,13.1-72.9S156.1,558.2,136.1,590.7z
		"/>
	<path class="st3" d="M122.3,663.9l-1.1-0.2c-0.4-0.1-41.2-6.8-65.6-36s-23.8-70.5-23.8-70.9l0-1.1l1.1,0.2
		c0.4,0.1,41.2,6.8,65.6,36l0,0c24.4,29.2,23.8,70.5,23.8,70.9L122.3,663.9z"/>
	<path class="st4" d="M123.9,665l-1.1-0.3c-0.4-0.1-39.7-12.8-59.6-45.2S49.9,546.2,50,545.8l0.2-1.1l1.1,0.3
		c0.4,0.1,39.7,12.8,59.6,45.2l0,0c19.9,32.5,13.3,73.2,13.2,73.6L123.9,665z M51.8,547.3c-0.9,6.8-4.5,42.3,13.1,71.1
		s50.9,41.7,57.4,44c0.9-6.8,4.5-42.3-13.1-71.1l0,0C91.6,562.5,58.3,549.6,51.8,547.3L51.8,547.3z"/>
	<circle class="st4" cx="124.3" cy="536.3" r="22"/>
	<path id="line_x5F_left" class="st4" d="M399.8,258.3L273.6,131.1H214v-2h60.4l0.3,0.3l126.5,127.5L399.8,258.3z"/>
	<path id="line_x5F_right" class="st4" d="M696.2,254.3l126.2-127.2H882v-2h-60.4l-0.3,0.3L694.8,252.9L696.2,254.3z"/>
	<rect y="68.3" class="st0" width="146" height="28.9"/>
	<rect y="112.7" class="st0" width="146" height="28.9"/>
	<rect y="157" class="st0" width="146" height="28.9"/>
	<rect id="bar01" y="68.3" class="st6" width="54.4" height="28.9"/>
	<rect y="112.7" class="st6" width="19.6" height="28.9"/>
	<rect y="157" class="st6" width="97.3" height="28.9"/>
	<rect x="954.8" y="74.8" class="st0" width="146.2" height="13"/>
	<rect x="900" y="73.1" class="st3" width="29" height="29"/>
	<rect x="900" y="116.6" class="st3" width="29" height="29"/>
	<rect x="900" y="160" class="st3" width="29" height="29"/>
	<path class="st4" d="M937,96.1h-31v-31h31V96.1z M908,94.1h27v-27h-27V94.1z"/>
	<rect x="954.8" y="118.3" class="st0" width="146.2" height="13"/>
	<path class="st4" d="M937,139.5h-31v-31h31V139.5z M908,137.5h27v-27h-27V137.5z"/>
	<rect x="954.8" y="161.7" class="st0" width="146.2" height="13"/>
	<path class="st4" d="M937,183h-31v-31h31V183z M908,181h27v-27h-27V181z"/>
	<circle class="st3" cx="189" cy="83.1" r="16"/>
	<circle class="st3" cx="189" cy="131.1" r="16"/>
	<circle class="st3" cx="189" cy="174.1" r="16"/>
	<path class="st4" d="M181,96.1c-9.4,0-17-7.6-17-17s7.6-17,17-17s17,7.6,17,17l0,0C198,88.4,190.4,96.1,181,96.1z M181,64.1
		c-8.3,0-15,6.7-15,15s6.7,15,15,15s15-6.7,15-15l0,0C196,70.8,189.3,64.1,181,64.1z"/>
	<path class="st4" d="M181,144.1c-9.4,0-17-7.6-17-17s7.6-17,17-17s17,7.6,17,17l0,0C198,136.4,190.4,144.1,181,144.1z M181,112.1
		c-8.3,0-15,6.7-15,15s6.7,15,15,15s15-6.7,15-15l0,0C196,118.8,189.3,112.1,181,112.1z"/>
	<path class="st4" d="M181,187.1c-9.4,0-17-7.6-17-17s7.6-17,17-17s17,7.6,17,17S190.4,187.1,181,187.1L181,187.1z M181,155.1
		c-8.3,0-15,6.7-15,15s6.7,15,15,15s15-6.7,15-15l0,0C196,161.8,189.3,155.1,181,155.1z"/>
	<path class="st4" d="M989,596.1h-2v-15c0-1.7,1.3-3,3-3h5c0.6,0,1-0.4,1-1v-10c0-0.6-0.4-1-1-1h-5c-1.7,0-3-1.3-3-3v-5
		c0-0.6-0.4-1-1-1h-9c-1.7,0-3-1.3-3-3v-1c0-0.6-0.4-1-1-1h-36c-0.6,0-1,0.4-1,1v1c0,1.7-1.3,3-3,3h-9c-0.6,0-1,0.4-1,1v5
		c0,1.7-1.3,3-3,3h-5c-0.6,0-1,0.4-1,1v10c0,0.6,0.4,1,1,1h6c1.7,0,3,1.3,3,3v15h-2v-15c0-0.6-0.4-1-1-1h-6c-1.7,0-3-1.3-3-3v-10
		c0-1.7,1.3-3,3-3h5c0.6,0,1-0.4,1-1v-5c0-1.7,1.3-3,3-3h9c0.6,0,1-0.4,1-1v-1c0-1.7,1.3-3,3-3h36c1.7,0,3,1.3,3,3v1
		c0,0.6,0.4,1,1,1h9c1.7,0,3,1.3,3,3v5c0,0.6,0.4,1,1,1h5c1.7,0,3,1.3,3,3v10c0,1.7-1.3,3-3,3h-5c-0.6,0-1,0.4-1,1V596.1z"/>
	<path class="st4" d="M986,666.1h-61c-1.7,0-3-1.3-3-3v-43h2v43c0,0.6,0.4,1,1,1h61c0.6,0,1-0.4,1-1v-43h2v43
		C989,664.7,987.7,666.1,986,666.1z"/>
	<path class="st3" d="M924,603.1h75c1.1,0,2,0.9,2,2v20c0,1.1-0.9,2-2,2h-75c-1.1,0-2-0.9-2-2v-20C922,603.9,922.9,603.1,924,603.1z
		"/>
	<path class="st4" d="M992.5,621.1h-75c-1.7,0-3-1.3-3-3v-20c0-1.7,1.3-3,3-3h75c1.7,0,3,1.3,3,3v20
		C995.5,619.7,994.2,621.1,992.5,621.1z M917.5,597.1c-0.6,0-1,0.4-1,1v20c0,0.6,0.4,1,1,1h75c0.6,0,1-0.4,1-1v-20c0-0.6-0.4-1-1-1
		H917.5z"/>
	<path id="smoke02" class="st0" d="M953,543.1L953,543.1c-2.7-17.9-3.4-36.1-2.1-54.1l2.1-29.9l0,0C941.5,482,944.1,512.2,953,543.1
		z"/>
	<path id="smoke03" class="st0" d="M962,548.1L962,548.1c-1.3-10.7-1.6-21.5-1-32.2l1-17.8l0,0C956.4,511.7,957.7,529.7,962,548.1z"
		/>
	<path id="smoke01" class="st0" d="M972.3,447.1L972.3,447.1c1.3,10.7,1.6,21.5,1,32.2l-1,17.8l0,0
		C977.8,483.4,976.6,465.4,972.3,447.1z"/>
	<path id="hair" class="st1" d="M482,40.7c38.3-43.1,103.8-48,148.2-11.2c-0.9-0.8-1.7-1.7-2.6-2.5c-44.1-39.2-111.7-35.3-150.9,8.9
		s-35.3,111.7,8.9,150.9c0.9,0.8,1.8,1.6,2.8,2.3C446.5,149.4,443.7,83.8,482,40.7L482,40.7z"/>
</g>
</svg>
