<svg xmlns="http://www.w3.org/2000/svg" width="968" height="317" viewBox="0 0 968 317">
  <g fill-rule="evenodd">
    <path d="M119.354656.5L127.972566.5C157.891349 1.14907957 187.322325 13.1570517 208.460595 34.4144077 200.655695 42.3656325 192.688193 49.9923175 185.045896 57.9435422 173.175944 47.2337293 158.866961 38.9579647 143.257162 36.0371066 120.167667 31.1690098 95.2895489 35.550297 75.9399017 48.6941583 54.8016317 62.4870993 40.4926489 85.8539639 37.4032094 110.843527 33.9885658 135.508551 40.9804551 161.471734 57.0780607 180.619582 72.5252581 199.280619 96.1025593 210.964052 120.492871 211.775401 143.257162 213.07356 166.997065 206.095955 183.582477 190.193505 196.590643 178.996883 202.60692 161.958544 204.558145 145.407015 177.5662 145.407015 150.574255 145.569285 123.58231 145.407015L123.58231 111.979417 237.241162 111.979417C243.094837 147.841063 234.639529 188.246267 207.32238 213.88491 189.110948 232.059138 163.907626 242.768951 138.216497 244.878459 113.33838 247.312508 87.6472513 242.606681 65.5333688 230.598709 39.0292302 216.481228 17.8909601 192.627554 7.48442714 164.554862-2.2716975 138.753949-2.43429958 109.545368 6.67141676 83.5821854 14.9641227 59.890781 30.8991263 38.9579647 51.386988 24.3536743 71.0618394 9.91165381 94.9643448 1.96042904 119.354656.5zM770 8.5L805 8.5 805 240.459391C793.38785 240.459391 781.61215 240.621827 770 240.296954 770.163551 163.139594 770 85.819797 770 8.5z"/>
    <path fill-rule="nonzero" d="M313.60426 88.9421571C335.012939 84.8777985 358.205674 89.4298801 375.884052 102.273253 391.940561 113.653457 403.131462 131.536635 406.537388 151.045556 410.916436 173.643389 405.402079 198.354689 390.805253 216.237867 375.073118 236.234511 349.285391 246.964418 324.146412 245.338674 301.115864 244.038079 278.734064 232.495301 265.110359 213.636677 249.702598 192.827162 245.972298 164.214077 254.40602 139.827926 262.839742 113.653457 286.681225 93.656813 313.60426 88.9421571zM318.469869 119.831282C309.711773 122.107323 301.602425 127.147127 295.763695 134.300399 280.03156 153.159022 281.004681 183.885573 298.358686 201.443602 308.25209 211.523211 323.173291 216.237867 336.959182 213.474103 349.771952 211.198062 360.962852 202.581622 367.125957 191.201418 377.830296 171.855072 374.748744 145.192879 358.367861 130.073466 347.825709 120.319005 332.417947 116.254647 318.469869 119.831282zM486.600598 88.9547397C511.109063 84.2380785 537.889836 91.0691051 556.230608 108.309315 586.095227 135.145491 589.341381 185.40233 563.85907 216.304593 548.439837 235.821812 523.444449 246.556282 498.773677 245.417777 475.239058 244.767203 452.029055 233.056872 438.070592 213.702297 422.326743 192.396 418.918281 163.120171 427.845206 138.235717 436.77213 112.863333 460.144441 93.5087575 486.600598 88.9547397zM491.46983 119.857003C482.705213 122.134012 474.589827 127.17596 468.74675 134.16963 453.165209 152.710988 453.81444 182.962677 470.532135 200.690818 480.432905 211.262644 495.852138 216.467236 510.135217 213.539653 522.795219 211.100001 534.156759 202.642539 540.324452 191.257495 550.874453 171.740276 547.790607 145.066744 531.23522 129.940899 520.685218 120.18229 505.265985 116.278846 491.46983 119.857003zM695.552283 93.5161944C701.875105 96.2822274 707.063063 101.000754 712.088896 105.719281 712.25102 101.32617 712.088896 96.7703508 712.25102 92.2145319 723.113305 92.3772397 733.975591 92.2145319 745 92.3772397L745 235.885537C744.837876 257.525677 739.325672 280.467479 723.7618 296.250138 706.738815 313.659874 680.636906 319.029232 657.128974 315.44966 631.999807 311.707381 610.113112 293.321397 600.385692 270.054179 610.113112 265.335652 620.326903 261.593372 630.37857 257.200261 636.052898 270.542302 647.563678 281.93185 661.992684 284.535175 676.42169 287.1385 693.120428 283.558928 702.5236 271.518549 712.575267 259.152755 712.575267 242.231142 712.088896 227.099314 704.631208 234.421166 696.038654 240.929479 685.662739 243.370096 663.12755 249.715701 638.322629 241.905726 620.975397 226.611191 603.466042 211.316656 593.090127 187.724022 594.062869 164.294096 594.54924 137.772721 609.464617 112.227594 631.999807 98.397429 650.644028 86.682466 675.448948 83.4283096 695.552283 93.5161944zM665.559405 119.22403C655.669861 120.851108 646.428813 126.383174 640.10599 134.030442 624.866365 152.253717 624.866365 181.378417 640.268113 199.276277 649.022791 209.852285 663.12755 215.709767 676.745938 214.245397 689.553707 212.943734 701.388735 204.808343 707.711557 193.581504 718.411719 174.544689 716.628359 148.674145 702.199353 132.077948 693.282551 121.827355 679.015669 116.783413 665.559405 119.22403zM846.688913 106.777414C866.228954 88.572721 896.353183 82.3961286 921.429569 91.986101 945.203286 100.925906 960.346817 123.51923 968 146.762723 932.665093 161.391494 897.493019 175.857724 862.158112 190.486495 867.043122 199.751384 874.533471 208.203563 884.629159 211.616943 898.795688 216.655742 915.730391 214.867781 927.617249 205.44035 932.339425 201.864428 936.0846 197.150713 939.666941 192.59954 948.622793 198.61359 957.578645 204.465099 966.534497 210.479149 953.83347 229.496552 932.502259 242.824988 909.542711 244.938033 884.140658 248.026329 857.110268 238.273815 840.664067 218.443703 813.633677 187.235657 816.239016 134.897164 846.688913 106.777414zM864.112116 136.847667C858.575771 144.81222 856.296099 154.564734 856.458933 164.154707 880.069816 154.402192 903.680699 144.649678 927.291581 134.734622 923.383573 125.632275 913.93922 120.10585 904.332033 118.642973 888.862834 115.879761 872.742301 124.169398 864.112116 136.847667z"/>
  </g>
</svg>
