<svg xmlns="http://www.w3.org/2000/svg" width="2500" height="326" viewBox="0 0 2500 326">
  <g fill-rule="evenodd">
    <path fill-rule="nonzero" d="M2135.80911,129.171152 L2135.80911,325.618945 L2198.60065,325.618945 L2198.60065,194.65375 L2428.23825,194.65375 L2428.23825,325.618945 L2491.02978,325.618945 L2491.02978,129.171152 L2135.80911,129.171152 M2191.42447,65.4825978 L2433.62038,65.4825978 C2467.70721,59.2034446 2491.9268,28.7047004 2499.10298,0 L2125.94187,0 C2133.11805,28.7047004 2158.23466,58.3064227 2191.42447,65.4825978 M1944.74345,325.618945 C1976.13922,312.163617 1993.18263,288.841048 2000.35881,261.930391 L1717.79691,261.930391 L1717.79691,0.897021887 L1654.10836,0.897021887 L1654.10836,325.618945 L1944.74345,325.618945 M1183.17187,64.5855759 L1407.42734,64.5855759 C1441.51417,54.7183351 1469.32185,28.7047004 1476.49803,0.897021887 L1121.27736,0.897021887 L1121.27736,192.859706 L1411.91245,192.859706 L1411.91245,260.136347 L1184.06889,260.136347 C1148.18802,270.003588 1117.68927,294.223179 1102.4399,325.618945 L1474.70398,325.618945 L1474.70398,129.171152 L1184.06889,129.171152 L1183.17187,64.5855759 M630.606387,65.4825978 L872.802296,65.4825978 C906.889128,59.2034446 932.005741,28.7047004 938.284894,0 L564.226767,0 C571.402942,28.7047004 596.519555,58.3064227 630.606387,65.4825978 M630.606387,193.756728 L872.802296,193.756728 C906.889128,187.477574 932.005741,156.97883 938.284894,128.27413 L564.226767,128.27413 C571.402942,156.97883 596.519555,186.580553 630.606387,193.756728 M630.606387,325.618945 L872.802296,325.618945 C906.889128,319.339792 932.005741,288.841048 938.284894,260.136347 L564.226767,260.136347 C571.402942,288.841048 596.519555,319.339792 630.606387,325.618945"/>
    <path d="M0,0.897021887 C7.1761751,29.6017223 32.2927879,58.3064227 65.4825978,65.4825978 L167.743093,65.4825978 L173.125224,67.2766416 L173.125224,324.721923 L236.813778,324.721923 L236.813778,67.2766416 L242.19591,65.4825978 L344.456405,65.4825978 C378.543236,56.5123789 402.762827,29.6017223 409.939003,0.897021887 L409.939003,0 L0,0.897021887"/>
  </g>
</svg>
