<svg xmlns="http://www.w3.org/2000/svg" xmlns:xlink="http://www.w3.org/1999/xlink" width="1107" height="778" viewBox="0 0 1107 778">
  <defs>
    <path id="testimonial-a" d="M278.616868,27.9820321 C375.40942,-12.8658291 458.14014,-5.54362801 490.849404,27.9820321 C523.558668,61.5076923 555.306568,30.6601174 642.241336,62.9802577 C729.176104,95.300398 828.043993,192.123481 778.610049,245.044277 C729.176104,297.965074 663.994103,346.239278 710.498176,380.360068 C757.00225,414.480858 671.783733,526.006706 603.504473,526.006706 C535.225213,526.006706 289.825151,539.694697 232.349321,621.113067 C174.873491,702.531438 26.7929235,540.190639 58.6552714,453.957819 C90.5176193,367.724999 243.580493,392.785752 206.361975,318.915015 C169.143456,245.044277 -51.0470367,208.199623 11.4111003,148.129636 C73.8692373,88.0596489 181.824317,68.8298934 278.616868,27.9820321 Z M843.444242,262.286902 C875.386481,243.383058 926.248171,260.776135 926.248171,332.601599 C926.248171,404.427064 846.146486,463.28434 846.146486,404.698424 C846.146486,346.112507 783.495969,382.13316 761.6434,348.033094 C739.79083,313.933028 811.502003,281.190747 843.444242,262.286902 Z"/>
  </defs>
  <g fill="none" fill-rule="evenodd" transform="translate(107 76)">
    <use fill="#F3F7FE" xlink:href="#testimonial-a"/>
  </g>
</svg>
