<svg xmlns="http://www.w3.org/2000/svg" width="2500" height="1041" viewBox="0 0 2500 1041">
  <g fill="none">
    <path fill="#010101" d="M418.203119,843.347742 C398.192612,836.481147 384.514354,827.167547 367.814795,809.074693 C332.737729,771.066215 330.810088,759.720103 330.810088,590.9317 C330.810088,428.295766 333.307032,412.979513 365.987032,374.791256 C411.80595,321.266769 517.751272,322.849832 562.995893,377.732655 C593.044114,414.188034 595.486125,430.418168 595.486125,593.428643 C595.486125,722.440733 594.367494,743.944412 586.497128,766.516783 C574.431895,801.084473 538.88041,834.528537 502.809561,845.240426 C468.7912,855.34306 452.036707,854.973512 418.203119,843.342748 L418.203119,843.347742 Z M480.401988,765.113501 C500.826988,757.273098 503.099207,740.1141 503.099207,593.91305 C503.099207,500.617244 501.221505,449.949262 497.456114,441.689372 C484.821578,413.953321 441.474635,413.953321 428.8401,441.689372 C425.074709,449.949262 423.197007,500.617244 423.197007,593.91305 C423.197007,757.038385 425.279458,766.501802 461.490136,767.825182 C467.447844,768.039919 475.957428,766.816417 480.401988,765.113501 Z M702.265427,840.611092 C695.074229,836.705872 684.956613,824.990212 679.792933,814.592938 C671.0786,797.054405 670.289566,779.116362 668.911253,567.210734 L667.428068,338.740382 L762.781356,338.740382 L762.781356,547.869408 C762.781356,726.865317 763.850048,757.897334 770.207266,763.165885 C781.273721,772.349644 799.251716,765.627871 819.581832,744.703483 L837.689668,726.061301 L837.689668,338.745376 L932.57353,338.740382 L932.57353,843.128011 L837.689668,843.128011 L837.689668,792.340176 L813.968702,813.399399 C800.924668,824.980224 783.016588,837.529863 774.177407,841.290261 C753.572627,850.044545 719.029907,849.714949 702.265427,840.611092 Z M123.498837,704.537646 L123.423929,565.957268 L61.7144615,368.698713 L0.00499388748,171.440157 L50.1436242,170.006912 C79.4927009,169.167938 101.545708,170.626154 103.33352,173.522608 C105.01646,176.244277 120.931979,233.624044 138.700231,301.031537 C156.47847,368.439031 172.149289,423.601512 173.542584,423.6115 C174.940872,423.621487 188.034845,378.127172 202.64696,322.505254 C217.264069,266.888329 232.570334,209.58347 236.670316,195.161123 L244.12619,168.943214 L296.741788,168.943214 C339.609318,168.943214 348.867986,170.231636 346.695645,175.884717 C345.232435,179.700047 316.897118,269.495138 283.737705,375.425479 L223.446501,568.024738 L223.446501,843.118024 L123.568752,843.118024 L123.498837,704.537646 Z"/>
    <path fill="#000" d="M1422.62371,1037.64492 C1178.64734,1029.49989 1112.5832,1012.13615 1067.66817,944.319153 C1049.52039,916.922687 1029.15032,855.607736 1022.66326,808.844974 C999.891133,644.715868 1005.48429,302.464783 1032.85578,184.504167 C1057.64544,77.6799198 1115.93909,25.3489729 1222.27893,14.4473165 C1326.74107,3.73542784 1599.05775,-2.09743274 1863.93355,0.699144247 C2149.89353,3.71545229 2284.52374,9.83296445 2333.23412,22.0230438 C2428.51749,45.8588687 2474.74092,116.047957 2490.85619,261.330132 C2493.90246,288.796513 2497.64788,384.68914 2499.17601,474.419311 C2505.33847,836.650939 2478.08682,951.884893 2374.22894,1002.76761 C2335.01195,1021.98409 2309.35835,1026.39869 2198.51901,1033.01559 C2078.13636,1040.1968 1586.86767,1043.12821 1422.62371,1037.64492 Z M1542.6468,840.206587 C1551.06649,835.846923 1567.80601,823.207394 1579.85126,812.091001 L1601.75445,791.915695 L1601.75445,843.123017 L1696.63831,843.123017 L1696.63831,343.729275 L1601.75445,343.734269 L1601.75445,724.588104 L1579.94115,746.396411 C1556.52981,769.812749 1547.0614,772.734173 1534.69653,760.369308 C1527.81495,753.487731 1526.84614,727.27981 1526.84614,548.12909 L1526.84614,343.729275 L1431.96228,343.729275 L1431.96228,560.059487 C1431.96228,798.702388 1433.92488,817.584277 1460.76702,837.619753 C1477.76122,850.299234 1520.51389,851.647583 1542.6468,840.206587 Z M1999.33781,838.593561 C2008.05214,833.280065 2020.12736,818.468195 2026.80419,804.904797 C2038.51985,781.113917 2038.75456,777.837926 2040.39755,615.996021 C2042.19535,438.553211 2039.33885,406.512429 2018.49436,370.546451 C2006.91354,350.560913 1979.29734,333.7415 1958.04835,333.7415 C1937.5834,333.7415 1908.25929,347.509648 1885.90166,367.610045 L1861.4416,389.598132 L1861.4416,173.937101 L1771.55162,173.937101 L1771.55162,843.118024 L1861.4416,843.118024 L1861.4416,797.014454 L1881.9415,815.536783 C1893.2177,825.71932 1909.51276,837.130352 1918.14719,840.885756 C1941.33381,850.983396 1980.85543,849.864766 1999.33781,838.588568 L1999.33781,838.593561 Z M1880.16368,757.133269 L1861.4366,746.276557 L1861.4366,440.001438 L1883.59947,428.245827 C1901.58246,418.707502 1908.40911,417.424073 1919.80516,421.424177 C1944.43002,430.07359 1947.08177,449.15024 1945.37386,605.099358 L1943.83575,744.119198 L1929.8229,756.164455 C1912.66889,770.916398 1904.23921,771.081197 1880.16368,757.133269 Z M2300.8987,837.709643 C2349.15963,815.831422 2370.89303,778.83171 2374.69338,712.073422 L2377.19032,668.336956 L2280.91816,668.336956 L2280.91816,697.980672 C2280.91816,734.286234 2275.29004,750.14682 2258.51058,761.143361 C2239.59873,773.528201 2216.0925,765.657835 2204.77635,743.140396 C2197.93972,729.552028 2196.03705,712.992297 2196.03705,667.08349 L2196.02207,608.405312 L2375.80202,608.405312 L2375.80202,535.080062 C2375.80202,442.793021 2368.58585,413.379024 2337.46894,378.771384 C2309.97259,348.193811 2280.51365,336.018713 2235.97317,336.837711 C2199.05336,337.511885 2174.38355,346.71562 2148.47027,369.467771 C2106.12211,406.657252 2099.69997,439.791695 2102.23187,608.410306 C2103.87985,717.971203 2105.69263,744.663532 2112.80393,763.505469 C2124.94906,795.676092 2146.88721,820.171111 2177.01533,835.18773 C2210.97377,852.097033 2266.65561,853.23564 2300.8987,837.709643 Z M2196.02706,495.878045 C2196.02706,433.764073 2211.96256,412.570014 2252.06347,421.379232 C2272.19383,425.803816 2280.92814,448.336236 2280.92814,495.883039 L2280.92814,533.497 L2196.03206,533.497 L2196.03206,495.883039 L2196.02706,495.878045 Z M1337.07842,555.974487 L1337.07842,268.825957 L1446.94394,268.825957 L1446.94394,173.942095 L1132.32903,173.942095 L1132.32903,268.825957 L1237.20067,268.825957 L1237.20067,843.123017 L1337.07842,843.123017 L1337.07842,555.974487 Z"/>
  </g>
</svg>
