<svg xmlns="http://www.w3.org/2000/svg" xmlns:xlink="http://www.w3.org/1999/xlink" id="Layer_1" x="0" y="0" version="1.1" viewBox="0 0 110 110" xml:space="preserve" style="enable-background:new 0 0 110 110"><style type="text/css">.st0{fill:#f2f4f8}.st1{fill:#e5d7ff}.st2{fill:none;stroke:#62428c;stroke-linecap:round;stroke-linejoin:round;stroke-miterlimit:10}.st3{fill:#baa8e5}.st4{fill:#fff}.st5{opacity:.45;stroke:#62428c;stroke-miterlimit:10;enable-background:new}.st5,.st6,.st7,.st8{fill:none;stroke-linecap:round;stroke-linejoin:round}.st6{stroke:#57ddb0;stroke-miterlimit:10}.st7,.st8{stroke:#62428c}.st8{stroke-dasharray:2.0167,4.0333}.st9{fill:#62428c}</style><path d="M77.2,22.8c5.1,4.3,7.2,12,7.9,19c0.7,7,0,13.3-0.9,20.8c-0.8,7.5-1.7,16.1-6.3,20.5c-4.7,4.3-13.2,4.3-21,3.4	c-7.8-1-14.9-2.9-19.8-7.1c-4.9-4.2-7.6-10.8-10.7-17.9c-3.2-7.1-6.8-14.6-5.2-20.7c1.6-6.1,8.5-10.8,15.3-14.6	c6.7-3.8,13.3-6.7,20.5-7.7C64.2,17.5,72.1,18.5,77.2,22.8z" class="st0"/><g><g><g><g><polygon points="86.7 40.5 71.1 40.5 64.6 40.5 48.9 40.5 48.9 45.8 48.9 73.8 56.5 73.8 64.6 73.8 71.1 73.8 86.7 73.8" class="st1"/><polygon points="98.1 40.5 93.4 40.5 86.7 40.5 86.7 73.8 93.4 73.8 98.1 73.8 104.7 73.8 104.7 40.5" class="st1"/></g><g><line x1="48.9" x2="104.7" y1="45.8" y2="45.8" class="st2"/><rect width="4.7" height="33.3" x="93.4" y="40.5" class="st3"/><rect width="6.5" height="33.3" x="64.6" y="40.5" class="st3"/><polygon points="56.5 73.8 48.9 73.8 48.9 45.8" class="st3"/><rect width="37.8" height="33.3" x="48.9" y="40.5" class="st2"/><rect width="18" height="33.3" x="86.7" y="40.5" class="st2"/><rect width="9.9" height="13.3" x="73.1" y="52.2" class="st4"/><rect width="9.9" height="13.3" x="73.1" y="52.2" class="st2"/><line x1="75.4" x2="77.2" y1="55.2" y2="55.2" class="st5"/><line x1="75.4" x2="79.4" y1="56.8" y2="56.8" class="st5"/><line x1="75.4" x2="80.9" y1="62.5" y2="62.5" class="st6"/></g><g><path d="M42.1,69.2c0.2,2.5-1.7,4.6-4.1,4.6H9.4c-2.5,0-4.5-2.3-4.1-4.8l0.5-3.3l4.9-33l0.6-3.9h26.9l0.4,3.9 l3.3,33L42.1,69.2z" class="st2"/><path d="M46.8,73.8H38c2.5,0,4.4-2.1,4.1-4.6l-0.3-3.5l-3.3-33l-0.4-3.9h5l0.8,3.9l6.4,33l0.6,3.1 C51.4,71.4,49.4,73.8,46.8,73.8z" class="st1"/><path d="M46.8,73.8H38c2.5,0,4.4-2.1,4.1-4.6l-0.3-3.5l-3.3-33l-0.4-3.9h5l0.8,3.9l6.4,33l0.6,3.1 C51.4,71.4,49.4,73.8,46.8,73.8z" class="st2"/><path d="M29.8,31.7v-7.6c0-3.3-2.7-6-6-6l0,0c-3.3,0-6,2.7-6,6v7.6" class="st2"/><path d="M36.3,28.6v-4.5c0-3.3-2.7-6-6-6l0,0c-3.3,0-6,2.7-6,6v4.7" class="st5"/></g></g><g><g><line x1="5.6" x2="6.6" y1="67.1" y2="67.1" class="st7"/><line x1="10.6" x2="38.9" y1="67.1" y2="67.1" class="st8"/><line x1="40.9" x2="41.9" y1="67.1" y2="67.1" class="st7"/></g></g></g><path d="M86.7,27.1l0.3,1.3c0.2,1.3,1.2,2.3,2.5,2.5l1.3,0.3l-1.3,0.3c-1.3,0.2-2.3,1.2-2.5,2.5l-0.3,1.3L86.5,34 c-0.2-1.3-1.2-2.3-2.5-2.5l-1.3-0.3l1.3-0.3c1.3-0.2,2.3-1.2,2.5-2.5L86.7,27.1z" class="st9"/><path d="M41.9,83.8l0.3,1.3c0.2,1.3,1.2,2.3,2.5,2.5l1.3,0.3l-1.3,0.3c-1.3,0.2-2.3,1.2-2.5,2.5L41.9,92l-0.3-1.3 c-0.2-1.3-1.2-2.3-2.5-2.5l-1.3-0.3l1.3-0.3c1.3-0.2,2.3-1.2,2.5-2.5L41.9,83.8z" class="st9"/></g></svg>