<svg xmlns="http://www.w3.org/2000/svg" xmlns:xlink="http://www.w3.org/1999/xlink" style="enable-background:new 0 0 110 110" id="Layer_1" x="0" y="0" version="1.1" viewBox="0 0 110 110" xml:space="preserve"><style type="text/css">.st0{fill:#f2f4f8}.st1{opacity:.67;fill:#62428c}.st2,.st3,.st4{fill:none;stroke:#62428c;stroke-linecap:round;stroke-linejoin:round;stroke-miterlimit:10}.st3{opacity:.25}.st4{opacity:.45}.st5{fill:#e5d7ff}.st6{fill:#fff}.st7{opacity:.45}.st8{fill:#62428c}.st9{fill:#57ddb0}.st10{opacity:.71;fill:none;stroke:#fff;stroke-linecap:round;stroke-linejoin:round;stroke-miterlimit:10}</style><path d="M70.2,20.8c5.1,4.3,7.2,12,7.9,19c0.7,7,0,13.3-0.9,20.8c-0.8,7.5-1.7,16.1-6.3,20.5c-4.7,4.3-13.2,4.3-21,3.4	c-7.8-1-14.9-2.9-19.8-7.1c-4.9-4.2-7.6-10.8-10.7-17.9c-3.2-7.1-6.8-14.6-5.2-20.7c1.6-6.1,8.5-10.8,15.3-14.6	c6.7-3.8,13.3-6.7,20.5-7.7C57.2,15.4,65.1,16.4,70.2,20.8z" class="st0"/><g><g><path d="M97,67.6H74c-1,0-1.8-0.8-1.8-1.8v-4.6c0-1,0.8-1.8,1.8-1.8h23c1,0,1.8,0.8,1.8,1.8v4.6 C98.8,66.8,98,67.6,97,67.6z" class="st1"/><path d="M101.2,74.3H69.5c-1.6,0-3-1.3-3-3V25.9c0-1.6,1.3-3,3-3h31.7c1.6,0,3,1.3,3,3v45.5 C104.1,73,102.8,74.3,101.2,74.3z" class="st2"/><g><line x1="73" x2="98.1" y1="32.2" y2="32.2" class="st3"/><line x1="73" x2="98.1" y1="37" y2="37" class="st3"/><line x1="73" x2="98.1" y1="41.9" y2="41.9" class="st4"/><line x1="78.2" x2="92.9" y1="46.7" y2="46.7" class="st3"/></g><g><path d="M56.1,65c0,0-12.5,9.4-17.1,10.6c-4.5,1.1-24.8,0-24.8,0V59.9h4c0,0,6.6-11.3,8.4-11.9 c1.8-0.6,13.2-1.8,14.2-0.4c1,1.5-1.2,5.4-4.9,6.3c-3.7,0.9,3.9,1,3.9,1l2.9,2.3" class="st5"/><g><path d="M70.4,65H36.6c-1.6,0-2.9-1.3-2.9-2.9V41.7c0-1.6,1.3-2.9,2.9-2.9h33.8c1.6,0,2.9,1.3,2.9,2.9v20.4 C73.3,63.8,72,65,70.4,65z" class="st6"/><path d="M70.4,65H36.6c-1.6,0-2.9-1.3-2.9-2.9V41.7c0-1.6,1.3-2.9,2.9-2.9h33.8c1.6,0,2.9,1.3,2.9,2.9v20.4 C73.3,63.8,72,65,70.4,65z" class="st2"/><line x1="38.3" x2="41.7" y1="43.8" y2="43.8" class="st2"/><line x1="38.3" x2="46.2" y1="45.9" y2="45.9" class="st2"/><g class="st7"><line x1="42.4" x2="48" y1="55.2" y2="55.2" class="st2"/><line x1="50.8" x2="56.3" y1="55.2" y2="55.2" class="st2"/><line x1="59.1" x2="64.7" y1="55.2" y2="55.2" class="st2"/></g><rect width="39.5" height="3.5" x="33.8" y="57.7" class="st8"/><path d="M69.8,45c0,0.9-0.7,1.6-1.6,1.6c-0.9,0-1.6-0.7-1.6-1.6c0-0.9,0.7-1.6,1.6-1.6C69.1,43.4,69.8,44.1,69.8,45 z" class="st9"/></g><path d="M7.3,78.2h5.5c0.8,0,1.4-0.6,1.4-1.4v-5c0-0.8-0.6-1.4-1.4-1.4H7.3c-0.8,0-1.4,0.6-1.4,1.4v5 C5.9,77.6,6.5,78.2,7.3,78.2z" class="st5"/><path d="M8.2,78.2h3.8c1.3,0,2.3-1,2.3-2.3V60.4c0-1.3-1-2.3-2.3-2.3H8.2c-1.3,0-2.3,1-2.3,2.3v15.5 C5.9,77.2,6.9,78.2,8.2,78.2z" class="st2"/><path d="M31.1,47.3c0,0,7.8-0.5,9-0.1c1.2,0.4,1,1.7,0.3,3c-0.7,1.3-3,3.6-5.3,3.9c-2.3,0.4-3.2,0.5-3.2,0.5" class="st5"/><path d="M56.1,65c0,0-12.5,9.4-17.1,10.6c-4.5,1.1-24.8,0-24.8,0V59.9h4c0,0,6.6-11.3,8.4-11.9 c1.8-0.6,13.2-1.8,14.2-0.4c1,1.5-1.2,5.4-4.9,6.3c-3.7,0.9-4.5,1.3-4.5,1.3l-0.7,2.4c0,0,3.8,2.6,1.7,10.5" class="st2"/></g><g><path d="M33.8,45.2L33.8,45.2c-0.5,0-7-3.7-7-7v-7l7-3.2l7,3.2v7C40.8,41.7,34.2,45.2,33.8,45.2z" class="st6"/><path d="M33.8,45.2L33.8,45.2c-0.5,0-7-3.7-7-7v-7l7-3.2l7,3.2v7C40.8,41.7,34.2,45.2,33.8,45.2z" class="st2"/><path d="M33.8,42.6L33.8,42.6c-0.4,0-4.9-2.5-4.9-4.9v-4.9l4.9-2.2l4.9,2.2v4.9C38.6,40.1,34.1,42.6,33.8,42.6z" class="st5"/><path d="M33.8,42.6L33.8,42.6c-0.4,0-4.9-2.5-4.9-4.9v-4.9l4.9-2.2l4.9,2.2v4.9C38.6,40.1,34.1,42.6,33.8,42.6z" class="st2"/></g><line x1="77" x2="94.1" y1="63.5" y2="63.5" class="st10"/></g><path d="M20.4,21.1l0.2,1.3c0.2,1.3,1.2,2.2,2.5,2.5l1.3,0.2l-1.3,0.2c-1.3,0.2-2.2,1.2-2.5,2.5l-0.2,1.3l-0.2-1.3 c-0.2-1.3-1.2-2.2-2.5-2.5l-1.3-0.2l1.3-0.2c1.3-0.2,2.2-1.2,2.5-2.5L20.4,21.1z" class="st8"/><path d="M85.3,80.9l0.2,1.3c0.2,1.3,1.2,2.2,2.5,2.5l1.3,0.2l-1.3,0.2c-1.3,0.2-2.2,1.2-2.5,2.5l-0.2,1.3l-0.2-1.3 c-0.2-1.3-1.2-2.2-2.5-2.5l-1.3-0.2l1.3-0.2c1.3-0.2,2.2-1.2,2.5-2.5L85.3,80.9z" class="st8"/></g></svg>