<svg xmlns="http://www.w3.org/2000/svg" xmlns:xlink="http://www.w3.org/1999/xlink" id="Layer_1" x="0" y="0" version="1.1" viewBox="0 0 110 110" xml:space="preserve" style="enable-background:new 0 0 110 110"><style type="text/css">.st0{fill:#f2f4f8}.st1{fill:#baa8e5}.st2{fill:#57ddb0}.st3{fill:none;stroke:#62428c;stroke-linecap:round;stroke-linejoin:round;stroke-miterlimit:10}.st4{fill:#e5d7ff}.st5{fill:none;stroke:#62428c;stroke-width:2;stroke-linecap:round;stroke-linejoin:round;stroke-miterlimit:10}.st6{fill:#62428c}</style><path d="M77.2,17.8c5.1,4.3,7.2,12,7.9,19c0.7,7,0,13.3-0.9,20.8c-0.8,7.5-1.7,16.1-6.3,20.5c-4.7,4.3-13.2,4.3-21,3.4	c-7.8-1-14.9-2.9-19.8-7.1c-4.9-4.2-7.6-10.8-10.7-17.9c-3.2-7.1-6.8-14.6-5.2-20.7c1.6-6.1,8.5-10.8,15.3-14.6	c6.7-3.8,13.3-6.7,20.5-7.7C64.2,12.4,72.1,13.4,77.2,17.8z" class="st0"/><g><g><path d="M64.2,70.8l-16.4-6.9c-1.2-0.5-1.7-1.9-1.3-3.1l7.7-18.4c0.5-1.2,1.9-1.7,3.1-1.3L73.6,48 c1.2,0.5,1.7,1.9,1.3,3.1l-7.7,18.4C66.7,70.7,65.3,71.3,64.2,70.8z" class="st1"/><g><polygon points="79.4 33.7 81 30.8 89.1 29.3 90.3 34.8 82.6 36.2" class="st2"/><path d="M64.9,45c1.2-3.5,9.2-11.3,15.9-11.4" class="st3"/></g><path d="M60.6,59.8l-16.4,6.7c-1.2,0.5-2.6-0.1-3.1-1.3l-7.5-18.5c-0.5-1.2,0.1-2.6,1.3-3.1L51.3,37 c1.2-0.5,2.6,0.1,3.1,1.3l7.5,18.5C62.4,58,61.7,59.4,60.6,59.8z" class="st4"/><g><polygon points="27.9 30.4 26.4 27.5 18.2 26 17.1 31.5 24.8 32.9" class="st2"/><path d="M42.4,41.7c-1.1-3.5-9.2-11.3-15.8-11.4" class="st3"/></g><path d="M30.8,43c0-13.4,10.9-24.3,24.3-24.3S79.3,29.6,79.3,43" class="st5"/><g><path d="M80.8,49.1H29.3c-1.7,0-3.1-1.4-3.1-3.1l0,0c0-1.7,1.4-3.1,3.1-3.1h51.6c1.7,0,3.1,1.4,3.1,3.1l0,0 C84,47.8,82.6,49.1,80.8,49.1z" class="st4"/><path d="M80.8,49.1H29.3c-1.7,0-3.1-1.4-3.1-3.1l0,0c0-1.7,1.4-3.1,3.1-3.1h51.6c1.7,0,3.1,1.4,3.1,3.1l0,0 C84,47.8,82.6,49.1,80.8,49.1z" class="st3"/><path d="M68.6,76.4H41.5c-3.8,0-7-2.7-7.7-6.4L30,49.1h50.2l-3.8,20.8C75.7,73.7,72.5,76.4,68.6,76.4z" class="st3"/><g><line x1="37.7" x2="42.4" y1="49.1" y2="76.4" class="st3"/><line x1="49.1" x2="51.5" y1="49.1" y2="76.4" class="st3"/></g><g><line x1="72.7" x2="67.9" y1="49.1" y2="76.4" class="st3"/><line x1="61.1" x2="58.9" y1="49.1" y2="76.4" class="st3"/></g><line x1="31.4" x2="78.8" y1="56.8" y2="56.8" class="st3"/><line x1="32.9" x2="77.2" y1="65.5" y2="65.5" class="st3"/><line x1="34.4" x2="75.7" y1="72" y2="72" class="st3"/></g></g><path d="M31.4,11.9l0.2,1.1c0.2,1.1,1,1.9,2.1,2.1l1.1,0.2l-1.1,0.2c-1.1,0.2-1.9,1-2.1,2.1l-0.2,1.1l-0.2-1.1 c-0.2-1.1-1-1.9-2.1-2.1l-1.1-0.2l1.1-0.2c1.1-0.2,1.9-1,2.1-2.1L31.4,11.9z" class="st6"/><path d="M89.6,60.1l0.2,1.1c0.2,1.1,1,1.9,2.1,2.1l1.1,0.2l-1.1,0.2c-1.1,0.2-1.9,1-2.1,2.1L89.6,67l-0.2-1.1 c-0.2-1.1-1-1.9-2.1-2.1l-1.1-0.2l1.1-0.2c1.1-0.2,1.9-1,2.1-2.1L89.6,60.1z" class="st6"/></g></svg>