<svg xmlns="http://www.w3.org/2000/svg" xmlns:xlink="http://www.w3.org/1999/xlink" style="enable-background:new 0 0 195.1 163.6" id="Layer_1" x="0" y="0" version="1.1" viewBox="0 0 195.1 163.6" xml:space="preserve"><style type="text/css">.st0{fill:url(#SVGID_1_)}.st1{fill:none}.st2{fill:url(#SVGID_2_)}.st3{fill:url(#SVGID_3_)}.st4{fill:url(#SVGID_4_)}.st5{fill:url(#SVGID_5_)}.st6{fill:url(#SVGID_6_)}.st7{fill:url(#SVGID_7_)}.st8{fill:url(#SVGID_8_)}.st9{fill:url(#SVGID_9_)}.st10{fill:url(#SVGID_10_)}.st11{fill:url(#SVGID_11_)}.st12{fill:url(#SVGID_12_)}.st13{fill:url(#SVGID_13_);enable-background:new}.st13,.st14{opacity:.45}.st14,.st15,.st16{enable-background:new}.st14{fill:url(#SVGID_14_)}.st15,.st16{opacity:.1;fill:#8bbcff}.st16{opacity:.25}.st17,.st18{fill:none;stroke:url(#SVGID_15_);stroke-linecap:round;stroke-linejoin:round;stroke-miterlimit:10}.st18{stroke:url(#SVGID_16_)}.st19{fill:url(#SVGID_17_)}.st20{fill:url(#SVGID_18_)}.st21{fill:url(#SVGID_19_)}.st22{fill:url(#SVGID_20_)}.st23{fill:url(#SVGID_21_)}.st24{opacity:.25;fill:#fff;enable-background:new}.st25{fill:url(#SVGID_22_)}.st26{fill:url(#SVGID_23_)}.st27{fill:url(#SVGID_24_)}.st28{fill:url(#SVGID_25_)}.st29{fill:url(#SVGID_26_)}.st30{fill:url(#SVGID_27_)}.st31{fill:url(#SVGID_28_)}.st32{fill:url(#SVGID_29_)}.st33{fill:url(#SVGID_30_)}.st34{fill:url(#SVGID_31_)}.st35{fill:url(#SVGID_32_)}.st36{fill:url(#SVGID_33_)}.st37{fill:url(#SVGID_34_)}.st38{stroke:url(#SVGID_35_)}.st38,.st39,.st40,.st41,.st42,.st43{fill:none;stroke-linecap:round;stroke-linejoin:round;stroke-miterlimit:10}.st39{stroke:url(#SVGID_36_)}.st40{stroke:url(#SVGID_37_)}.st40,.st41,.st42,.st43{opacity:.25;enable-background:new}.st41{stroke:url(#SVGID_38_)}.st42{stroke:url(#SVGID_39_)}.st43{stroke:url(#SVGID_40_)}</style><linearGradient id="SVGID_1_" x1="0" x2="195" y1="71.384" y2="71.384" gradientUnits="userSpaceOnUse"><stop style="stop-color:#fff" offset="0"/><stop style="stop-color:#d8e0ff" offset="1"/></linearGradient><path d="M0,0v42.6v1.8v98.3c17.6-10.7,35.8-21,56.6-25c8.8-1.7,18.1-2.3,27.9-1.2c5.2,0.5,10.5,1.5,16,3	c35.9,9.8,58.5,28.5,94.5,11.7V44.5v-1.8V0H0z" class="st0"/><g><path d="M195.1,15.9v116.3c-36.1,16.8-58.7-1.9-94.6-11.7c-5.5-1.5-10.8-2.5-16-3c-9.8-1.1-19.1-0.5-27.9,1.2 c-20.8,4-39.1,14.4-56.7,25.1V15.9c0-4.6,1.9-8.8,5-11.7C7.8,1.4,11.7-0.2,16-0.2h163C187.9-0.2,195.1,7.1,195.1,15.9z" class="st1"/><linearGradient id="SVGID_2_" x1="42.489" x2="90.965" y1="309.589" y2="26.578" gradientTransform="matrix(1 0 0 -1 0 166)" gradientUnits="userSpaceOnUse"><stop style="stop-color:#fff" offset="0"/><stop style="stop-color:#d8e0ff" offset="1"/></linearGradient><path d="M109.2-0.2c0,23-18.7,41.7-41.7,41.7S25.8,22.8,25.8-0.2H16c-4.2,0-8.1,1.7-11,4.5 c2.3,32.5,29.4,58.3,62.5,58.3c34.6,0,62.7-28.1,62.7-62.7L109.2-0.2L109.2-0.2z" class="st2"/><g><linearGradient id="SVGID_3_" x1="57.779" x2="73.105" y1="115.466" y2="19.228" gradientTransform="matrix(1 0 0 -1 0 166)" gradientUnits="userSpaceOnUse"><stop style="stop-color:#ff7570" offset="0"/><stop style="stop-color:#fbb" offset="1"/></linearGradient><path d="M84.6,117.4c-9.8-1.1-19.1-0.5-27.9,1.2c-2.1-5.9-4.9-13.8-6.6-17.3c-0.2-0.5-0.4-0.9-0.6-1.2l2-3.6l5.3-9.6 l3.8,2.6l1.5,1.1l5.4,3.8c0,0,0.4,0.5,1,1.3c1.6,2.1,4.8,6.4,8,10.8C79.8,110.9,83,115.3,84.6,117.4z" class="st3"/><g><linearGradient id="SVGID_4_" x1="87.496" x2="161.991" y1="62.14" y2="251.406" gradientTransform="matrix(1 0 0 -1 0 166)" gradientUnits="userSpaceOnUse"><stop style="stop-color:#fff" offset="0"/><stop style="stop-color:#ddc4ff" offset="1"/></linearGradient><path d="M147.2,44.3v58.1c0,2.3-1.9,4.2-4.2,4.2H55.7c-2.3,0-4.2-1.9-4.2-4.2V44.3H147.2z" class="st4"/><linearGradient id="SVGID_5_" x1="92.605" x2="101.159" y1="99.342" y2="132.847" gradientTransform="matrix(1 0 0 -1 0 166)" gradientUnits="userSpaceOnUse"><stop style="stop-color:#ff227d" offset="0"/><stop style="stop-color:#ff967d" offset="1"/></linearGradient><path d="M147.2,36.7v7.6H51.5v-7.6c0-2.3,1.9-4.2,4.2-4.2H143C145.3,32.5,147.2,34.3,147.2,36.7z" class="st5"/><g><linearGradient id="SVGID_6_" x1="67.33" x2="67.567" y1="156.787" y2="124.47" gradientTransform="matrix(1 0 0 -1 0 166)" gradientUnits="userSpaceOnUse"><stop style="stop-color:#2a1f31" offset="0"/><stop style="stop-color:#6a517f" offset="1"/></linearGradient><path d="M67.5,27.6L67.5,27.6c-1,0-1.8,0.8-1.8,1.8v5.9c0,1,0.8,1.8,1.8,1.8l0,0c1,0,1.8-0.8,1.8-1.8v-5.9 C69.3,28.4,68.5,27.6,67.5,27.6z" class="st6"/><linearGradient id="SVGID_7_" x1="78.029" x2="78.267" y1="156.866" y2="124.549" gradientTransform="matrix(1 0 0 -1 0 166)" gradientUnits="userSpaceOnUse"><stop style="stop-color:#2a1f31" offset="0"/><stop style="stop-color:#6a517f" offset="1"/></linearGradient><path d="M78.2,27.6L78.2,27.6c-1,0-1.8,0.8-1.8,1.8v5.9c0,1,0.8,1.8,1.8,1.8l0,0c1,0,1.8-0.8,1.8-1.8v-5.9 C79.9,28.4,79.1,27.6,78.2,27.6z" class="st7"/><linearGradient id="SVGID_8_" x1="88.629" x2="88.866" y1="156.944" y2="124.627" gradientTransform="matrix(1 0 0 -1 0 166)" gradientUnits="userSpaceOnUse"><stop style="stop-color:#2a1f31" offset="0"/><stop style="stop-color:#6a517f" offset="1"/></linearGradient><path d="M88.8,27.6L88.8,27.6c-1,0-1.8,0.8-1.8,1.8v5.9c0,1,0.8,1.8,1.8,1.8l0,0c1,0,1.8-0.8,1.8-1.8v-5.9 C90.5,28.4,89.7,27.6,88.8,27.6z" class="st8"/><linearGradient id="SVGID_9_" x1="99.228" x2="99.466" y1="157.022" y2="124.705" gradientTransform="matrix(1 0 0 -1 0 166)" gradientUnits="userSpaceOnUse"><stop style="stop-color:#2a1f31" offset="0"/><stop style="stop-color:#6a517f" offset="1"/></linearGradient><path d="M99.4,27.6L99.4,27.6c-1,0-1.8,0.8-1.8,1.8v5.9c0,1,0.8,1.8,1.8,1.8l0,0c1,0,1.8-0.8,1.8-1.8v-5.9 C101.1,28.4,100.3,27.6,99.4,27.6z" class="st9"/><linearGradient id="SVGID_10_" x1="109.828" x2="110.065" y1="157.1" y2="124.783" gradientTransform="matrix(1 0 0 -1 0 166)" gradientUnits="userSpaceOnUse"><stop style="stop-color:#2a1f31" offset="0"/><stop style="stop-color:#6a517f" offset="1"/></linearGradient><path d="M110,27.6L110,27.6c-1,0-1.8,0.8-1.8,1.8v5.9c0,1,0.8,1.8,1.8,1.8l0,0c1,0,1.8-0.8,1.8-1.8v-5.9 C111.7,28.4,110.9,27.6,110,27.6z" class="st10"/><linearGradient id="SVGID_11_" x1="120.427" x2="120.665" y1="157.178" y2="124.861" gradientTransform="matrix(1 0 0 -1 0 166)" gradientUnits="userSpaceOnUse"><stop style="stop-color:#2a1f31" offset="0"/><stop style="stop-color:#6a517f" offset="1"/></linearGradient><path d="M120.6,27.6L120.6,27.6c-1,0-1.8,0.8-1.8,1.8v5.9c0,1,0.8,1.8,1.8,1.8l0,0c1,0,1.8-0.8,1.8-1.8v-5.9 C122.4,28.4,121.6,27.6,120.6,27.6z" class="st11"/><linearGradient id="SVGID_12_" x1="131.026" x2="131.264" y1="157.256" y2="124.939" gradientTransform="matrix(1 0 0 -1 0 166)" gradientUnits="userSpaceOnUse"><stop style="stop-color:#2a1f31" offset="0"/><stop style="stop-color:#6a517f" offset="1"/></linearGradient><path d="M131.2,27.6L131.2,27.6c-1,0-1.8,0.8-1.8,1.8v5.9c0,1,0.8,1.8,1.8,1.8l0,0c1,0,1.8-0.8,1.8-1.8v-5.9 C133,28.4,132.2,27.6,131.2,27.6z" class="st12"/></g><linearGradient id="SVGID_13_" x1="98.076" x2="72.947" y1="139.139" y2="117.753" gradientTransform="matrix(1 0 0 -1 0 166)" gradientUnits="userSpaceOnUse"><stop style="stop-color:#2a1f31" offset="0"/><stop style="stop-color:#6a517f" offset="1"/></linearGradient><path d="M79.2,49.4H61.4c-0.6,0-1.1,0.5-1.1,1.1l0,0c0,0.6,0.5,1.1,1.1,1.1h17.8c0.6,0,1.1-0.5,1.1-1.1l0,0 C80.3,49.9,79.8,49.4,79.2,49.4z" class="st13"/><linearGradient id="SVGID_14_" x1="130.601" x2="129.71" y1="161.614" y2="127.396" gradientTransform="matrix(1 0 0 -1 0 166)" gradientUnits="userSpaceOnUse"><stop style="stop-color:#2a1f31" offset="0"/><stop style="stop-color:#6a517f" offset="1"/></linearGradient><path d="M138.3,49.4h-17.8c-0.6,0-1.1,0.5-1.1,1.1l0,0c0,0.6,0.5,1.1,1.1,1.1h17.8c0.6,0,1.1-0.5,1.1-1.1l0,0 C139.4,49.9,138.9,49.4,138.3,49.4z" class="st14"/><g><path d="M66.8,64.3h-5.5c-1,0-1.8-0.8-1.8-1.8v-4.1c0-1,0.8-1.8,1.8-1.8h5.5c1,0,1.8,0.8,1.8,1.8v4.1 C68.5,63.5,67.7,64.3,66.8,64.3z" class="st15"/><path d="M78.5,64.3H73c-1,0-1.8-0.8-1.8-1.8v-4.1c0-1,0.8-1.8,1.8-1.8h5.5c1,0,1.8,0.8,1.8,1.8v4.1 C80.3,63.5,79.5,64.3,78.5,64.3z" class="st15"/><path d="M90.3,64.3h-5.5c-1,0-1.8-0.8-1.8-1.8v-4.1c0-1,0.8-1.8,1.8-1.8h5.5c1,0,1.8,0.8,1.8,1.8v4.1 C92.1,63.5,91.3,64.3,90.3,64.3z" class="st16"/><path d="M102.1,64.3h-5.5c-1,0-1.8-0.8-1.8-1.8v-4.1c0-1,0.8-1.8,1.8-1.8h5.5c1,0,1.8,0.8,1.8,1.8v4.1 C103.8,63.5,103.1,64.3,102.1,64.3z" class="st16"/><path d="M113.9,64.3h-5.5c-1,0-1.8-0.8-1.8-1.8v-4.1c0-1,0.8-1.8,1.8-1.8h5.5c1,0,1.8,0.8,1.8,1.8v4.1 C115.6,63.5,114.8,64.3,113.9,64.3z" class="st16"/><path d="M125.6,64.3h-5.5c-1,0-1.8-0.8-1.8-1.8v-4.1c0-1,0.8-1.8,1.8-1.8h5.5c1,0,1.8,0.8,1.8,1.8v4.1 C127.4,63.5,126.6,64.3,125.6,64.3z" class="st16"/><path d="M137.4,64.3h-5.5c-1,0-1.8-0.8-1.8-1.8v-4.1c0-1,0.8-1.8,1.8-1.8h5.5c1,0,1.8,0.8,1.8,1.8v4.1 C139.2,63.5,138.4,64.3,137.4,64.3z" class="st16"/></g><g><path d="M66.8,75.6h-5.5c-1,0-1.8-0.8-1.8-1.8v-4.1c0-1,0.8-1.8,1.8-1.8h5.5c1,0,1.8,0.8,1.8,1.8v4.1 C68.5,74.8,67.7,75.6,66.8,75.6z" class="st16"/><path d="M78.5,75.6H73c-1,0-1.8-0.8-1.8-1.8v-4.1c0-1,0.8-1.8,1.8-1.8h5.5c1,0,1.8,0.8,1.8,1.8v4.1 C80.3,74.8,79.5,75.6,78.5,75.6z" class="st16"/><path d="M90.3,75.6h-5.5c-1,0-1.8-0.8-1.8-1.8v-4.1c0-1,0.8-1.8,1.8-1.8h5.5c1,0,1.8,0.8,1.8,1.8v4.1 C92.1,74.8,91.3,75.6,90.3,75.6z" class="st16"/><path d="M102.1,75.6h-5.5c-1,0-1.8-0.8-1.8-1.8v-4.1c0-1,0.8-1.8,1.8-1.8h5.5c1,0,1.8,0.8,1.8,1.8v4.1 C103.8,74.8,103.1,75.6,102.1,75.6z" class="st16"/><path d="M113.9,75.6h-5.5c-1,0-1.8-0.8-1.8-1.8v-4.1c0-1,0.8-1.8,1.8-1.8h5.5c1,0,1.8,0.8,1.8,1.8v4.1 C115.6,74.8,114.8,75.6,113.9,75.6z" class="st16"/><path d="M125.6,75.6h-5.5c-1,0-1.8-0.8-1.8-1.8v-4.1c0-1,0.8-1.8,1.8-1.8h5.5c1,0,1.8,0.8,1.8,1.8v4.1 C127.4,74.8,126.6,75.6,125.6,75.6z" class="st16"/><path d="M137.4,75.6h-5.5c-1,0-1.8-0.8-1.8-1.8v-4.1c0-1,0.8-1.8,1.8-1.8h5.5c1,0,1.8,0.8,1.8,1.8v4.1 C139.2,74.8,138.4,75.6,137.4,75.6z" class="st16"/></g><g><path d="M66.8,86.9h-5.5c-1,0-1.8-0.8-1.8-1.8V81c0-1,0.8-1.8,1.8-1.8h5.5c1,0,1.8,0.8,1.8,1.8v4.1 C68.5,86.2,67.7,86.9,66.8,86.9z" class="st16"/><path d="M78.5,86.9H73c-1,0-1.8-0.8-1.8-1.8V81c0-1,0.8-1.8,1.8-1.8h5.5c1,0,1.8,0.8,1.8,1.8v4.1 C80.3,86.2,79.5,86.9,78.5,86.9z" class="st16"/><path d="M90.3,86.9h-5.5c-1,0-1.8-0.8-1.8-1.8V81c0-1,0.8-1.8,1.8-1.8h5.5c1,0,1.8,0.8,1.8,1.8v4.1 C92.1,86.2,91.3,86.9,90.3,86.9z" class="st16"/><path d="M102.1,86.9h-5.5c-1,0-1.8-0.8-1.8-1.8V81c0-1,0.8-1.8,1.8-1.8h5.5c1,0,1.8,0.8,1.8,1.8v4.1 C103.8,86.2,103.1,86.9,102.1,86.9z" class="st16"/><path d="M113.9,86.9h-5.5c-1,0-1.8-0.8-1.8-1.8V81c0-1,0.8-1.8,1.8-1.8h5.5c1,0,1.8,0.8,1.8,1.8v4.1 C115.6,86.2,114.8,86.9,113.9,86.9z" class="st16"/><path d="M125.6,86.9h-5.5c-1,0-1.8-0.8-1.8-1.8V81c0-1,0.8-1.8,1.8-1.8h5.5c1,0,1.8,0.8,1.8,1.8v4.1 C127.4,86.2,126.6,86.9,125.6,86.9z" class="st16"/><path d="M137.4,86.9h-5.5c-1,0-1.8-0.8-1.8-1.8V81c0-1,0.8-1.8,1.8-1.8h5.5c1,0,1.8,0.8,1.8,1.8v4.1 C139.2,86.2,138.4,86.9,137.4,86.9z" class="st16"/></g><g><path d="M66.8,98.3h-5.5c-1,0-1.8-0.8-1.8-1.8v-4.1c0-1,0.8-1.8,1.8-1.8h5.5c1,0,1.8,0.8,1.8,1.8v4.1 C68.5,97.5,67.7,98.3,66.8,98.3z" class="st16"/><path d="M78.5,98.3H73c-1,0-1.8-0.8-1.8-1.8v-4.1c0-1,0.8-1.8,1.8-1.8h5.5c1,0,1.8,0.8,1.8,1.8v4.1 C80.3,97.5,79.5,98.3,78.5,98.3z" class="st16"/><path d="M90.3,98.3h-5.5c-1,0-1.8-0.8-1.8-1.8v-4.1c0-1,0.8-1.8,1.8-1.8h5.5c1,0,1.8,0.8,1.8,1.8v4.1 C92.1,97.5,91.3,98.3,90.3,98.3z" class="st16"/><path d="M102.1,98.3h-5.5c-1,0-1.8-0.8-1.8-1.8v-4.1c0-1,0.8-1.8,1.8-1.8h5.5c1,0,1.8,0.8,1.8,1.8v4.1 C103.8,97.5,103.1,98.3,102.1,98.3z" class="st16"/><path d="M113.9,98.3h-5.5c-1,0-1.8-0.8-1.8-1.8v-4.1c0-1,0.8-1.8,1.8-1.8h5.5c1,0,1.8,0.8,1.8,1.8v4.1 C115.6,97.5,114.8,98.3,113.9,98.3z" class="st16"/><path d="M125.6,98.3h-5.5c-1,0-1.8-0.8-1.8-1.8v-4.1c0-1,0.8-1.8,1.8-1.8h5.5c1,0,1.8,0.8,1.8,1.8v4.1 C127.4,97.5,126.6,98.3,125.6,98.3z" class="st16"/><path d="M137.4,98.3h-5.5c-1,0-1.8-0.8-1.8-1.8v-4.1c0-1,0.8-1.8,1.8-1.8h5.5c1,0,1.8,0.8,1.8,1.8v4.1 C139.2,97.5,138.4,98.3,137.4,98.3z" class="st15"/></g><g><linearGradient id="SVGID_15_" x1="105.168" x2="117.094" y1="82.9" y2="82.9" gradientTransform="matrix(1 0 0 -1 0 166)" gradientUnits="userSpaceOnUse"><stop style="stop-color:#ff6d79" offset="0"/><stop style="stop-color:#ff8b88" offset="1"/></linearGradient><circle cx="111.1" cy="83.1" r="5.5" class="st17"/><linearGradient id="SVGID_16_" x1="108.049" x2="114.262" y1="83" y2="83" gradientTransform="matrix(1 0 0 -1 0 166)" gradientUnits="userSpaceOnUse"><stop style="stop-color:#ff6d79" offset="0"/><stop style="stop-color:#ff8b88" offset="1"/></linearGradient><polyline points="108.5 82.9 110.3 84.7 113.8 81.3" class="st18"/></g></g><g><linearGradient id="SVGID_17_" x1="4.008" x2="51.764" y1="-11.941" y2="88.916" gradientTransform="matrix(1 0 0 -1 0 166)" gradientUnits="userSpaceOnUse"><stop style="stop-color:#ff7570" offset="0"/><stop style="stop-color:#fbb" offset="1"/></linearGradient><path d="M56.8,92.8c-2.8,2.2-5.9,9.5-8.3,9.3c-2.4-0.2-3.6-3.8-4.3-4.8s-3.8-4.4-4-6.7c-0.3-2.2,0-2.8,0-2.8 s-3.1-1.4-3.5-4c-0.3-2.6,1-4.5,1-4.5s-2-1.5-1.6-3.7s9-7.6,9-7.6c1.6-1.7,5-3.1,8.2-3.7c1.3-0.3,2.6-0.4,3.6-0.4 c0.9,0,1.6,0.2,2.1,0.4c0.3,0.2,0.5,0.4,0.7,0.6c0.7,1.6-2.6,4.5-2.9,4.8h0.1c0.2-0.1,0.6-0.4,1.1-0.6h0.1 c1.1-0.5,2.6-0.9,3.6-0.3l0,0l0,0c0.4,0.2,0.7,0.5,0.9,1c1.2,2.4-2.8,5.7-4.3,6.8l0,0l-0.1,0.1c0.1-0.1,0.3-0.2,0.4-0.3l0,0 c0.1,0,0.2-0.1,0.3-0.2c0.2-0.1,0.5-0.3,0.8-0.5c1.1-0.6,2.5-1.2,3.5-1.1c0.2,0,0.3,0,0.5,0.1c0.4,0.1,0.8,0.4,1,0.9 c0.9,2.7-5.7,8.3-6.5,9c0.1,0,0.1-0.1,0.3-0.2c0,0,0,0,0.1,0c0.4-0.3,1.1-0.7,1.8-1c1.2-0.6,2.7-1.2,3.6-1l0,0 c0.4,0.1,0.7,0.3,0.8,0.7C65.5,85.5,59.7,90.6,56.8,92.8z" class="st19"/><linearGradient id="SVGID_18_" x1="56.162" x2="57.385" y1="94.091" y2="96.673" gradientTransform="matrix(1 0 0 -1 0 166)" gradientUnits="userSpaceOnUse"><stop style="stop-color:#ff7570" offset="0"/><stop style="stop-color:#fbb" offset="1"/></linearGradient><path d="M56.8,69.7c0.2-0.1,0.6-0.4,1.1-0.6L56.8,69.7z" class="st20"/><linearGradient id="SVGID_19_" x1="81.337" x2="41.773" y1="72.483" y2="102.899" gradientTransform="matrix(1 0 0 -1 0 166)" gradientUnits="userSpaceOnUse"><stop style="stop-color:#ff7570" offset="0"/><stop style="stop-color:#fbb" offset="1"/></linearGradient><path d="M56.8,69.8L56.8,69.8c-6.5,3.3-11.9,6.8-12.8,6.9s-1.6-1.4,1.5-2.1c3.1-0.8,11.7-5.4,11.9-8.5 c0.1-1-0.1-1.7-0.4-2.2c0.9,0,1.6,0.2,2.1,0.4C61.5,65.6,57.2,69.4,56.8,69.8z" class="st21"/><linearGradient id="SVGID_20_" x1="83.53" x2="43.934" y1="65.923" y2="96.363" gradientTransform="matrix(1 0 0 -1 0 166)" gradientUnits="userSpaceOnUse"><stop style="stop-color:#ff7570" offset="0"/><stop style="stop-color:#fbb" offset="1"/></linearGradient><path d="M58.3,76.6C58.3,76.6,58.2,76.6,58.3,76.6c-2.2,1.2-7.7,4.4-9.7,6c-2.1,1.7-4.5,2.1-4.3,1.4 c0.2-0.8,1.9-2.4,5.5-3.7c3.6-1.3,10.6-6.3,11.5-7.8c0.6-0.9,0.8-2.6,0.3-3.5c0.4,0.2,0.7,0.5,0.9,1 C63.7,72.2,59.7,75.5,58.3,76.6z" class="st22"/><linearGradient id="SVGID_21_" x1="80.053" x2="48.833" y1="64.851" y2="88.852" gradientTransform="matrix(1 0 0 -1 0 166)" gradientUnits="userSpaceOnUse"><stop style="stop-color:#ff7570" offset="0"/><stop style="stop-color:#fbb" offset="1"/></linearGradient><path d="M58.2,84.7c0.1,0,0.1-0.1,0.3-0.2c-1.7,1.2-3.4,2.3-4.3,2.7c-2,1-3.5,3.5-4.9,3.7s-1.9-0.3-0.5-2 s7.7-4.1,9.6-5.4s4.5-4.2,5.4-5.6c0.7-1.2,0.7-2.3,0.1-3.2c0.4,0.1,0.8,0.4,1,0.9C65.6,78.3,59,83.9,58.2,84.7z" class="st23"/><path d="M59.7,64.9c-0.3,1.9-4.4,2.7-4.8,2.7c-0.5,0-1.4-1.6-1.6-3.4c1.3-0.3,2.6-0.4,3.6-0.4 c0.9,0,1.6,0.2,2.1,0.4C59.4,64.5,59.6,64.7,59.7,64.9z" class="st24"/><path d="M59,73.1c-1.2,0.3-2.1-2-2.2-3.4c0.2-0.1,0.6-0.4,1.1-0.6H58c1.1-0.5,2.6-0.9,3.6-0.3 C62.1,71,60.1,72.8,59,73.1z" class="st24"/><path d="M61.5,78.8c-1.2,0.3-2.1-2.3-2-2.8c0-0.1,0.1-0.2,0.1-0.2c1.1-0.6,2.5-1.2,3.5-1.1 C64.3,76.6,62.7,78.5,61.5,78.8z" class="st24"/><path d="M64.1,84c-0.4,1.3-1.9,1.9-2.3,1.8c-0.4-0.1-1.4-1.8-1.5-2.2c0-0.1,0-0.1,0-0.2c1.2-0.6,2.7-1.2,3.6-1l0,0 C64.2,82.7,64.4,83.2,64.1,84z" class="st24"/></g><g><g><linearGradient id="SVGID_22_" x1="252.851" x2="252.317" y1="180.089" y2="157.901" gradientTransform="matrix(0.8832 0.4689 0.4689 -0.8832 -142.9745 121.7243)" gradientUnits="userSpaceOnUse"><stop style="stop-color:#ffe392" offset="0"/><stop style="stop-color:#ff8b88" offset="1"/></linearGradient><path d="M167.9,87.5l-2.7,5.2l-10.4-5.5l2.7-5.2c1.5-2.9,5.1-3.9,7.9-2.4c0.6,0.3,1.1,0.7,1.6,1.2 C168.7,82.6,169.1,85.2,167.9,87.5z" class="st25"/><linearGradient id="SVGID_23_" x1="240.808" x2="240.273" y1="180.386" y2="158.195" gradientTransform="matrix(0.8832 0.4689 0.4689 -0.8832 -142.9745 121.7243)" gradientUnits="userSpaceOnUse"><stop style="stop-color:#ffe392" offset="0"/><stop style="stop-color:#ff8b88" offset="1"/></linearGradient><path d="M154,84.8l-4,0.5l-3.2,0.4l-0.5-3.6c-0.3-2,1.1-3.8,3.1-4c1.5-0.2,2.9,0.6,3.6,1.8 c0.2,0.4,0.4,0.8,0.4,1.2L154,84.8z" class="st26"/><linearGradient id="SVGID_24_" x1="264.824" x2="264.289" y1="179.809" y2="157.614" gradientTransform="matrix(0.8832 0.4689 0.4689 -0.8832 -142.9745 121.7243)" gradientUnits="userSpaceOnUse"><stop style="stop-color:#ffe392" offset="0"/><stop style="stop-color:#ff8b88" offset="1"/></linearGradient><path d="M174,96.8l-1.2,0.6l-2.1,1l-2-4.1l-1.2-2.3l3.2-1.6l0,0c1.7-0.8,3.8-0.2,4.7,1.5l0.1,0.1 C176.5,93.8,175.8,96,174,96.8z" class="st27"/></g><g><linearGradient id="SVGID_25_" x1="253.107" x2="256.494" y1="190.24" y2="152.931" gradientTransform="matrix(0.8832 0.4689 0.4689 -0.8832 -142.9745 121.7243)" gradientUnits="userSpaceOnUse"><stop style="stop-color:#ffe392" offset="0"/><stop style="stop-color:#ff8b88" offset="1"/></linearGradient><path d="M167.9,87.5l-2.7,5.2l-6.9-3.7l2.7-5.2c1.2-2.3,3.7-3.4,6-3C168.7,82.6,169.1,85.2,167.9,87.5z" class="st28"/><linearGradient id="SVGID_26_" x1="241.16" x2="244.546" y1="189.155" y2="151.847" gradientTransform="matrix(0.8832 0.4689 0.4689 -0.8832 -142.9745 121.7243)" gradientUnits="userSpaceOnUse"><stop style="stop-color:#ffe392" offset="0"/><stop style="stop-color:#ff8b88" offset="1"/></linearGradient><path d="M153.6,81.2l0.5,3.6l-4,0.5l-0.2-1.3c-0.3-2,1.1-3.8,3.1-4c0.1,0,0.1,0,0.2,0 C153.4,80.4,153.5,80.8,153.6,81.2z" class="st29"/><linearGradient id="SVGID_27_" x1="246.201" x2="249.587" y1="189.613" y2="152.305" gradientTransform="matrix(0.8832 0.4689 0.4689 -0.8832 -142.9745 121.7243)" gradientUnits="userSpaceOnUse"><stop style="stop-color:#ffe392" offset="0"/><stop style="stop-color:#ff8b88" offset="1"/></linearGradient><polygon points="157.5 86.6 154.9 87 157 83.1 157 83.1" class="st30"/><linearGradient id="SVGID_28_" x1="264.894" x2="268.28" y1="191.31" y2="154.001" gradientTransform="matrix(0.8832 0.4689 0.4689 -0.8832 -142.9745 121.7243)" gradientUnits="userSpaceOnUse"><stop style="stop-color:#ffe392" offset="0"/><stop style="stop-color:#ff8b88" offset="1"/></linearGradient><path d="M174,96.8l-1.2,0.6l-1.8-3.6l3.2-1.6c0.4-0.2,0.8-0.3,1.3-0.3l0.1,0.1C176.5,93.8,175.8,96,174,96.8z" class="st31"/></g><g><linearGradient id="SVGID_29_" x1="281.45" x2="281.628" y1="263.932" y2="237.378" gradientTransform="matrix(0.5881 0.8088 0.8088 -0.5881 -236.7532 35.1372)" gradientUnits="userSpaceOnUse"><stop style="stop-color:#2a1f31" offset="0"/><stop style="stop-color:#6a517f" offset="1"/></linearGradient><path d="M131.6,115.3L131.6,115.3c-0.5-0.7-0.4-1.6,0.3-2.1l4.5-3.7c0.7-0.6,1.7-0.4,2.2,0.3l0.4,0.6 c0.5,0.7,0.3,1.7-0.4,2.2l-4.9,3.1C132.9,116.2,132,116,131.6,115.3z" class="st32"/><linearGradient id="SVGID_30_" x1="-121.309" x2="-121.131" y1="57.954" y2="31.399" gradientTransform="matrix(-0.9994 -3.400000e-02 3.400000e-02 -0.9994 31.8614 177.5098)" gradientUnits="userSpaceOnUse"><stop style="stop-color:#2a1f31" offset="0"/><stop style="stop-color:#6a517f" offset="1"/></linearGradient><path d="M154.9,127.7L154.9,127.7c0.8,0,1.5-0.6,1.6-1.4l0.6-5.8c0.1-0.9-0.6-1.6-1.5-1.7h-0.7 c-0.9,0-1.6,0.7-1.6,1.6l0.2,5.8C153.4,127,154.1,127.7,154.9,127.7z" class="st33"/></g><linearGradient id="SVGID_31_" x1="259.161" x2="248.824" y1="96.199" y2="192.798" gradientTransform="matrix(0.8832 0.4689 0.4689 -0.8832 -142.9745 121.7243)" gradientUnits="userSpaceOnUse"><stop style="stop-color:#671cc9" offset="0"/><stop style="stop-color:#6766c9" offset="1"/></linearGradient><circle cx="153.6" cy="102" r="19.5" class="st34"/><linearGradient id="SVGID_32_" x1="253.75" x2="251.968" y1="188.704" y2="133.573" gradientTransform="matrix(0.8832 0.4689 0.4689 -0.8832 -142.9745 121.7243)" gradientUnits="userSpaceOnUse"><stop style="stop-color:#fff" offset="0"/><stop style="stop-color:#ddc4ff" offset="1"/></linearGradient><circle cx="153.6" cy="102" r="15.6" class="st35"/><linearGradient id="SVGID_33_" x1="252.552" x2="253.314" y1="170.209" y2="111.271" gradientTransform="matrix(0.8832 0.4689 0.4689 -0.8832 -142.9745 121.7243)" gradientUnits="userSpaceOnUse"><stop style="stop-color:#fff" offset="0"/><stop style="stop-color:#ddc4ff" offset="1"/></linearGradient><path d="M165.4,108.2c-3.4,6.5-11.5,9-18,5.5c-6.5-3.4-9-11.5-5.5-18c3.4-6.5,11.5-9,18-5.5 C166.3,93.7,168.8,101.7,165.4,108.2z" class="st36"/><linearGradient id="SVGID_34_" x1="252.918" x2="252.362" y1="154.376" y2="159.573" gradientTransform="matrix(0.8832 0.4689 0.4689 -0.8832 -142.9745 121.7243)" gradientUnits="userSpaceOnUse"><stop style="stop-color:#2a1f31" offset="0"/><stop style="stop-color:#6a517f" offset="1"/></linearGradient><path d="M155,102.8c-0.4,0.8-1.4,1.1-2.2,0.7s-1.1-1.4-0.7-2.2c0.4-0.8,1.4-1.1,2.2-0.7 C155.2,101,155.5,102,155,102.8z" class="st37"/><linearGradient id="SVGID_35_" x1="253.247" x2="252.115" y1="156.053" y2="166.627" gradientTransform="matrix(0.8832 0.4689 0.4689 -0.8832 -142.9745 121.7243)" gradientUnits="userSpaceOnUse"><stop style="stop-color:#2a1f31" offset="0"/><stop style="stop-color:#6a517f" offset="1"/></linearGradient><line x1="153.6" x2="158.1" y1="102" y2="93.4" class="st38"/><linearGradient id="SVGID_36_" x1="-74.885" x2="-75.555" y1="567.163" y2="573.427" gradientTransform="matrix(-0.9839 0.1788 0.1788 0.9839 -21.8763 -443.0585)" gradientUnits="userSpaceOnUse"><stop style="stop-color:#2a1f31" offset="0"/><stop style="stop-color:#6a517f" offset="1"/></linearGradient><line x1="153.6" x2="154.6" y1="102" y2="107.2" class="st39"/><linearGradient id="SVGID_37_" x1="252.889" x2="252.501" y1="168.049" y2="171.668" gradientTransform="matrix(0.8832 0.4689 0.4689 -0.8832 -142.9745 121.7243)" gradientUnits="userSpaceOnUse"><stop style="stop-color:#2a1f31" offset="0"/><stop style="stop-color:#6a517f" offset="1"/></linearGradient><line x1="160.5" x2="159.2" y1="89" y2="91.4" class="st40"/><linearGradient id="SVGID_38_" x1="-130.492" x2="-130.879" y1="81.356" y2="84.974" gradientTransform="matrix(0.4689 -0.8832 -0.8832 -0.4689 276.5288 19.324)" gradientUnits="userSpaceOnUse"><stop style="stop-color:#2a1f31" offset="0"/><stop style="stop-color:#6a517f" offset="1"/></linearGradient><line x1="140.6" x2="143" y1="95.1" y2="96.4" class="st41"/><linearGradient id="SVGID_39_" x1="-217.179" x2="-217.566" y1="464.725" y2="468.344" gradientTransform="matrix(-0.8832 -0.4689 -0.4689 0.8832 174.1286 -400.1794)" gradientUnits="userSpaceOnUse"><stop style="stop-color:#2a1f31" offset="0"/><stop style="stop-color:#6a517f" offset="1"/></linearGradient><line x1="146.7" x2="148" y1="115" y2="112.6" class="st42"/><linearGradient id="SVGID_40_" x1="166.202" x2="165.815" y1="551.418" y2="555.037" gradientTransform="matrix(-0.4689 0.8832 0.8832 0.4689 -245.3748 -297.779)" gradientUnits="userSpaceOnUse"><stop style="stop-color:#2a1f31" offset="0"/><stop style="stop-color:#6a517f" offset="1"/></linearGradient><line x1="166.6" x2="164.2" y1="108.9" y2="107.6" class="st43"/></g></g></g></svg>