<svg xmlns="http://www.w3.org/2000/svg" xmlns:xlink="http://www.w3.org/1999/xlink" id="Layer_1" x="0" y="0" version="1.1" viewBox="0 0 195.1 163.6" xml:space="preserve" style="enable-background:new 0 0 195.1 163.6"><style type="text/css">.st0{fill:none}.st1{fill:url(#SVGID_1_)}.st2{fill:url(#SVGID_2_)}.st3{fill:#fff}.st4{opacity:.25;fill:#8bbcff;enable-background:new}.st5{fill:url(#SVGID_3_)}.st6{opacity:.45;fill:#fff;enable-background:new}.st7{fill:url(#SVGID_4_)}.st8{fill:url(#SVGID_5_)}.st9{fill:url(#SVGID_6_)}.st10{fill:url(#SVGID_7_)}.st11{fill:url(#SVGID_8_)}.st12{fill:url(#SVGID_9_)}.st13{fill:url(#SVGID_10_)}.st14,.st15{opacity:.3;fill:url(#SVGID_11_)}.st15{fill:url(#SVGID_12_)}.st16{fill:url(#SVGID_13_)}.st17{opacity:.1;fill:#fff;enable-background:new}.st18{fill:url(#SVGID_14_)}.st19{fill:url(#SVGID_15_)}.st20{fill:url(#SVGID_16_)}.st21{fill:url(#SVGID_17_)}</style><path d="M195.1,16.1v132.2c-1.3,2.2-4.5,5.3-11.5,7.5c-0.3,0.1-0.6,0.2-0.9,0.3c-1.7,0.5-3.6,0.9-5.8,1.3	c-6.1,1-14.1,1.5-24.6,0.8c-4.8-0.3-9-0.8-12.9-1.5c-1.8-0.3-3.4-0.7-5-1c-3-0.8-5.8-1.6-8.3-2.6c-0.2-0.1-0.4-0.2-0.7-0.3	c-1.4-0.5-2.8-1.1-4.1-1.7c-1.3-0.6-2.6-1.2-3.8-1.9c-4.5-2.3-8.5-4.8-12.8-7.1c-2.4-1.3-4.9-2.6-7.6-3.8c-0.6-0.3-1.2-0.5-1.8-0.8	l0,0c-4.9-2-11.8-2.9-20-2.6c-13.5,0.5-30.3,4.1-46.7,11.4c-3.3,1.4-6.5,3-9.7,4.7c-6.6,3.5-13,7.7-18.9,12.5V16.1	C0,7.2,7.2,0,16.1,0h163C187.9,0,195.1,7.2,195.1,16.1z" class="st0"/><linearGradient id="SVGID_1_" x1="0" x2="195.1" y1="81.75" y2="81.75" gradientUnits="userSpaceOnUse"><stop offset="0" style="stop-color:#fff"/><stop offset="1" style="stop-color:#d8e0ff"/></linearGradient><path d="M179.1,0h-163H0v16.1v24.3v123.1c5.9-4.8,12.3-9,18.9-12.5c3.2-1.7,6.4-3.3,9.7-4.7	c16.4-7.3,33.2-10.9,46.7-11.4c8.2-0.3,15.1,0.6,20,2.6c0.6,0.3,1.2,0.5,1.8,0.8c2.7,1.2,5.2,2.5,7.6,3.8c4.3,2.3,8.3,4.8,12.8,7.1	c1.2,0.7,2.5,1.3,3.8,1.9c1.3,0.6,2.7,1.2,4.1,1.7c0.3,0.1,0.5,0.2,0.7,0.3c2.5,1,5.3,1.8,8.3,2.6c1.6,0.3,3.2,0.7,5,1	c3.9,0.7,8.1,1.2,12.9,1.5c10.5,0.7,18.5,0.2,24.6-0.8c2.2-0.4,4.1-0.8,5.8-1.3c0.3-0.1,0.6-0.2,0.9-0.3c7-2.2,10.2-5.3,11.5-7.5	V40.4V16.1V0H179.1z" class="st1"/><linearGradient id="SVGID_2_" x1="235.595" x2="136.49" y1="275.942" y2="83.364" gradientTransform="matrix(1 0 0 -1 0 166)" gradientUnits="userSpaceOnUse"><stop offset="0" style="stop-color:#fff"/><stop offset="1" style="stop-color:#d8e0ff"/></linearGradient><path d="M151.9,0h-23.6c0.1,10.1,2.4,19.7,6.4,28.3c0.3,0.6,0.6,1.1,0.8,1.7l0,0c0.1,0.2,0.2,0.4,0.3,0.6	c6.4,12.3,16.5,22.4,28.8,28.9c0.3,0.2,0.6,0.3,0.9,0.5c8.9,4.5,19,7.1,29.6,7.3V43.7C171.4,43.1,152.2,23.8,151.9,0z" class="st2"/><path d="M104.8,41.1v101c-2.4-1.3-4.9-2.6-7.6-3.8c-0.6-0.3-1.2-0.5-1.8-0.8l0,0l0,0c-4.9-2-11.8-2.9-20-2.6	c-13.5,0.5-30.3,4.1-46.7,11.4c-3.3,1.4-6.5,3-9.7,4.7V41c0-3.9,3.2-7.1,7.1-7.1h71.7C101.6,34,104.8,37.2,104.8,41.1z" class="st3"/><g><path d="M96.1,108.2H29.7c-0.6,0-1.1,0.5-1.1,1.1l0,0c0,0.6,0.5,1.1,1.1,1.1h66.4c0.6,0,1.1-0.5,1.1-1.1l0,0 C97.2,108.7,96.7,108.2,96.1,108.2z" class="st4"/><path d="M96.1,114.4H29.7c-0.6,0-1.1,0.5-1.1,1.1l0,0c0,0.6,0.5,1.1,1.1,1.1h66.4c0.6,0,1.1-0.5,1.1-1.1l0,0 C97.2,114.9,96.7,114.4,96.1,114.4z" class="st4"/><path d="M96.1,120.6H29.7c-0.6,0-1.1,0.5-1.1,1.1l0,0c0,0.6,0.5,1.1,1.1,1.1h66.4c0.6,0,1.1-0.5,1.1-1.1l0,0 C97.2,121.1,96.7,120.6,96.1,120.6z" class="st4"/><path d="M97.2,130.6v7.8c-0.6-0.3-1.2-0.5-1.8-0.8l0,0l0,0c-4.9-2-11.8-2.9-20-2.6c-13.5,0.5-30.3,4.1-46.7,11.4v-15.8 c0-2.1,1.7-3.8,3.8-3.8h61.1C95.5,126.8,97.2,128.5,97.2,130.6z" class="st4"/></g><g><linearGradient id="SVGID_3_" x1="34.953" x2="77.508" y1="18.858" y2="121.064" gradientTransform="matrix(1 0 0 -1 0 166)" gradientUnits="userSpaceOnUse"><stop offset="0" style="stop-color:#ff227d"/><stop offset="1" style="stop-color:#ff967d"/></linearGradient><path d="M91.6,63.2v32.2c0,2.7-2.2,4.9-4.9,4.9h-47c-2.7,0-4.9-2.2-4.9-4.9V63.2c0-2.7,2.2-4.9,4.9-4.9h46.9 C89.4,58.3,91.6,60.5,91.6,63.2z" class="st5"/><path d="M89.4,81.3v12c0,2.5-2,4.5-4.5,4.5H41.6c-2.5,0-4.5-2-4.5-4.5V88l9.3-9.3c1.1-1.1,2.9-1.1,4,0l7.9,7.9 c1.1,1.1,2.9,1.1,4,0l14.3-14.3c1.1-1.1,2.9-1.1,4,0L89.4,81.3z" class="st6"/><path d="M71.1,67.6c0,1.5-1.2,2.8-2.8,2.8s-2.8-1.2-2.8-2.8c0-1.5,1.2-2.8,2.8-2.8S71.1,66,71.1,67.6z" class="st6"/></g><g><linearGradient id="SVGID_4_" x1="3.389" x2="22.987" y1="61.868" y2="110.011" gradientTransform="matrix(1 0 0 -1 0 166)" gradientUnits="userSpaceOnUse"><stop offset="0" style="stop-color:#671cc9"/><stop offset="1" style="stop-color:#6766c9"/></linearGradient><path d="M28.6,63.2v32.2c0,2.7-2.2,4.9-4.9,4.9H0v-42h23.7C26.4,58.3,28.6,60.5,28.6,63.2z" class="st7"/><path d="M26.4,81.3v12c0,2.5-2,4.5-4.5,4.5H0V85.7l13.4-13.4c1.1-1.1,2.8-1.1,3.9,0l1.6,1.6L26.4,81.3z" class="st6"/><path d="M8.2,67.6c0,1.5-1.2,2.8-2.8,2.8s-2.8-1.2-2.8-2.8c0-1.5,1.2-2.8,2.8-2.8S8.2,66,8.2,67.6z" class="st6"/></g><g><linearGradient id="SVGID_5_" x1="178.078" x2="191.753" y1="32.657" y2="14.34" gradientTransform="matrix(1 0 0 -1 0 166)" gradientUnits="userSpaceOnUse"><stop offset="0" style="stop-color:#ff7570"/><stop offset="1" style="stop-color:#fbb"/></linearGradient><path d="M195.1,140.9v7.4c-1.3,2.2-4.5,5.3-11.5,7.5c-0.3,0.1-0.6,0.2-0.9,0.3l-3.3-8.3l-0.3-0.6l3.5-2.4l6.2-4.3 l4.6-3.2l1.3,3L195.1,140.9z" class="st8"/><g><linearGradient id="SVGID_6_" x1="158.617" x2="125.176" y1="128.371" y2="71.179" gradientTransform="matrix(1 0 0 -1 0 166)" gradientUnits="userSpaceOnUse"><stop offset="0" style="stop-color:#ff7570"/><stop offset="1" style="stop-color:#fbb"/></linearGradient><path d="M153.6,98.8c0,0-18.7,7.5-18.6,4.8c0.1-2.7-2.6-10.5-2.6-10.5s-7.2,4-11.1-2.4s-8.6-21.1-7.8-28.5 c0,0,2.8,1.6,4.3,1.4c-0.6,3.2,1.5,9.2,2.1,10.1s1-0.1,1-3.7s2-5.2,4.8-4.8c2.8,0.4,3.9,6.1,3,8.7c-0.9,2.6-3.8,1-3.5,2.5 s7.2,10.3,14.2,12.7c0.6,0.2,1.2,0.4,1.7,0.5c4.1,1,6.9-0.2,8.2-1l0,0c0.1-0.1,0.3-0.2,0.4-0.3l0.1-0.1c0.1-0.1,0.2-0.2,0.3-0.2 l0.1-0.1l0.2,0.7L153.6,98.8z" class="st9"/><linearGradient id="SVGID_7_" x1="134.888" x2="149.707" y1="109.049" y2="37.804" gradientTransform="matrix(1 0 0 -1 0 166)" gradientUnits="userSpaceOnUse"><stop offset="0" style="stop-color:#ff7570"/><stop offset="1" style="stop-color:#fbb"/></linearGradient><path d="M153.6,98.8c0,0-18.7,7.5-18.6,4.8c0.1-2.7-2.6-10.5-2.6-10.5c3.2-0.9,5.6-2.5,8.7-3.5 c2.2-0.7,4.7-1.2,8.2-1l0,0c0.4,0,0.7,0,1.1,0.1L153.6,98.8z" class="st10"/><linearGradient id="SVGID_8_" x1="135.411" x2="138.07" y1="67.008" y2="175.871" gradientTransform="matrix(1 0 0 -1 0 166)" gradientUnits="userSpaceOnUse"><stop offset="0" style="stop-color:#2a1f31"/><stop offset="1" style="stop-color:#6a517f"/></linearGradient><path d="M166,57.2c-0.3,2.3-1.1,5.2-2.7,8.7c-6.2,13.4-13.2,22-13.2,22L150,88l-0.3,0.2l-0.1,0.1 c-1.2,0.9-4.7,2.8-10.3,0.8c-7-2.5-13.9-11.3-14.2-12.7c-0.3-1.4,2.6,0.1,3.5-2.5c0.9-2.6-0.2-8.4-3-8.7c-2.8-0.4-4.8,1.2-4.8,4.8 c0,3.6-0.4,4.6-1,3.7s-2.7-6.9-2.1-10.1c-1.5,0.1-4.3-1.4-4.3-1.4c-3.6-2-5.5-7.8-6.1-13.5c-0.4-3.8-0.2-7.5,0.6-10 c1.2,0.8,2.2,2.1,2.3,2.2c-0.1-0.4-1.9-6.9,1.2-13.3c2.5,1.8,25.3,2.9,25.3,2.9s-2-0.9-3.3-2.5c6.4,0.6,31.5-2.9,26.3,19.5 C163.1,48.2,166.8,50.6,166,57.2z" class="st11"/><linearGradient id="SVGID_9_" x1="143.867" x2="147.667" y1="44.92" y2="118.065" gradientTransform="matrix(1 0 0 -1 0 166)" gradientUnits="userSpaceOnUse"><stop offset="0" style="stop-color:#9275ff"/><stop offset="1" style="stop-color:#ffb3ff"/></linearGradient><path d="M131.6,106.4c1.6-3.9,0.1-6.7,5.5-6.6c5.4,0.2,12.2-2.4,15.5-4s3.4,1.6,5,5.3s-4.6,7.6-4.6,7.6L131.6,106.4z" class="st12"/><linearGradient id="SVGID_10_" x1="148.376" x2="140.69" y1="-8.574" y2="84.78" gradientTransform="matrix(1 0 0 -1 0 166)" gradientUnits="userSpaceOnUse"><stop offset="0" style="stop-color:#671cc9"/><stop offset="1" style="stop-color:#6766c9"/></linearGradient><path d="M195.1,134.5v5.4c-0.1,0.1-0.2,0.2-0.3,0.3c-0.9,1-1.9,1.9-3,2.7c-4.2,3-9,4.2-9,4.2l0.3,3.2l0.4,5.4 c-0.3,0.1-0.6,0.2-0.9,0.3c-1.7,0.5-3.6,0.9-5.8,1.3c-6.1,1-14.1,1.5-24.6,0.8c-4.8-0.3-9-0.8-12.9-1.5c-1.8-0.3-3.4-0.7-5-1 c-3-0.8-5.8-1.6-8.3-2.6c-0.2,0.1-0.4,0.2-0.5,0.3c-0.1-0.2-0.1-0.4-0.1-0.5c-1.4-0.5-2.8-1.1-4.1-1.7c-1.3-0.6-2.6-1.2-3.8-1.9 c-4.5-2.3-8.5-4.8-12.8-7.1c-2.4-1.3-4.9-2.6-7.6-3.8c-0.6-0.3-1.2-0.5-1.8-0.8l0,0l0,0l0,0l0,0c0.1-0.2,0.8-1.7,1.8-4 c1.1-2.4,2.6-5.5,4.2-8.9c1.1-2.1,2.2-4.2,3.4-6.3c0.1-0.1,0.1-0.2,0.2-0.3c2.1-3.8,4.4-7.2,6.4-9.4c2.4-2.6,6.2-3.8,10.5-4.3 c2.6-0.3,5.3-0.4,8-0.3c0.8,0,1.6,0,2.4,0.1c4.8,0.2,9.2,0.5,12,0.1c3.6-0.5,6.7-1.4,9.6-2.4c1.2-0.4,2.3-0.9,3.4-1.3l0,0 c1-0.4,2-0.8,2.9-1.2c1.3-0.6,2.6-1.1,3.8-1.6c2.6-1,5-1.8,7.5-1.8c1.4,0,2.8,0.1,4.2,0.5c5.8,1.8,9.7,7.7,13.6,18.4 c1,2.8,2,6,3,9.5C193.2,127.4,194.2,130.8,195.1,134.5z" class="st13"/><linearGradient id="SVGID_11_" x1="123.175" x2="133.113" y1="19.487" y2="44.854" gradientTransform="matrix(1 0 0 -1 0 166)" gradientUnits="userSpaceOnUse"><stop offset="0" style="stop-color:#9275ff"/><stop offset="1" style="stop-color:#ffccd3"/></linearGradient><path d="M125.4,152.8c-1.4-0.5-2.8-1.1-4.1-1.7c-1.3-0.6-2.6-1.2-3.8-1.9c3.1-6.9,5-13.6,6-15.2 c0.8-1.2-0.2,6.1,1.1,14.9C124.9,150.2,125.1,151.5,125.4,152.8z" class="st14"/><linearGradient id="SVGID_12_" x1="187.969" x2="173.72" y1="13.615" y2="91.89" gradientTransform="matrix(1 0 0 -1 0 166)" gradientUnits="userSpaceOnUse"><stop offset="0" style="stop-color:#9275ff"/><stop offset="1" style="stop-color:#ffccd3"/></linearGradient><path d="M191.8,142.9c-4.2,3-9,4.2-9,4.2c-0.6-11.2-4.9-19.6-5.5-22.8c-0.6-3.2,1.1,0.8,5.5,8.7 C184.9,136.8,188.5,140.3,191.8,142.9z" class="st15"/><linearGradient id="SVGID_13_" x1="96.337" x2="70.957" y1="-16.453" y2="76.848" gradientTransform="matrix(1 0 0 -1 0 166)" gradientUnits="userSpaceOnUse"><stop offset="0" style="stop-color:#ff7570"/><stop offset="1" style="stop-color:#fbb"/></linearGradient><path d="M95.4,137.6L95.4,137.6L95.4,137.6c-4.9-2-11.9-2.9-20.1-2.6c-0.5-1.8-1-3.6-1.5-5.3c-0.3-1-0.6-2-0.9-2.9 c-0.4-1.4-0.8-2.8-1.2-4c-0.3-0.8-0.5-1.5-0.7-2.2c-0.5-1.6-1.1-3-1.5-4c-0.3-0.7-0.6-1.2-0.8-1.6c-0.1-0.2-0.2-0.4-0.3-0.6 c-0.8-1.2-1.6-2.5-2.3-4c-0.4-0.7-0.7-1.4-1-2.2c-1-2.4-1.8-5.1-1.8-8v-0.1c0-0.9,0-1.7,0.1-2.4c0.3-3.6,1.5-3.5,2.8-4.2 c1.6-0.8,6-1.2,6.1-3.4c0.1-2.1-1-7.4-0.2-9.3c0.8-2,2.1-2.3,2.7-0.2c0.6,2.1,0.8,11.2,1,11.6s1.9,0.4,2.6,2.7 c0.2,0.7,0.2,1.7,0.1,2.8c-0.1,0.8-0.2,1.7-0.4,2.4c-0.3,1.4-0.6,2.5-0.6,2.5s1.1,2.2,2.8,5.5c0.4,0.7,0.7,1.4,1.1,2.2 c0.6,1.3,1.3,2.6,2,4c0.4,0.7,0.7,1.5,1.1,2.2c0.7,1.3,1.4,2.7,2.1,4c0.4,0.7,0.8,1.5,1.1,2.2c0.6,1.2,1.2,2.4,1.8,3.6 c0.1,0.2,0.2,0.3,0.2,0.4C92.1,131.3,94.1,135.2,95.4,137.6C95.4,137.5,95.4,137.5,95.4,137.6L95.4,137.6z" class="st16"/><path d="M179.9,127.5c2.5-2.2,5.7-3.6,9.3-3.6c1.1,0,2.1,0.1,3.1,0.3c-1-3.5-2-6.7-3-9.5l0,0 c-12.7,0-23,10.3-23,23.1c0,8.2,4.3,15.5,10.8,19.5c2.2-0.4,4.1-0.8,5.8-1.3c0.3-0.1,0.6-0.2,0.9-0.3l-0.4-5.4 c-1.4-0.7-2.6-1.5-3.7-2.6c-2.6-2.5-4.2-6.1-4.2-10c0-3.5,1.3-6.7,3.5-9.2C179.1,128.2,179.5,127.8,179.9,127.5z" class="st17"/><path d="M129.9,104.1c-2.7,0-5.5,0-8,0.3c1.5,1.9,2.4,4.2,2.4,6.8c0,6-4.9,10.9-10.9,10.9c-3.4,0-6.4-1.5-8.4-4 c-0.1,0.1-0.1,0.2-0.2,0.3c-1.2,2.1-2.3,4.2-3.4,6.3c1,0.9,2.2,1.7,3.4,2.4c2.5,1.4,5.5,2.2,8.6,2.2c9.9,0,18-8.1,18-18 C131.4,108.6,130.9,106.2,129.9,104.1z" class="st17"/><path d="M128.8,148.2c-1.4,0-2.8,0.3-4.1,0.8c-1.3,0.5-2.4,1.2-3.3,2.1c1.3,0.6,2.6,1.2,4.1,1.7 c0,0.2,0.1,0.4,0.1,0.5c0.2-0.1,0.3-0.2,0.5-0.3c0.8-0.4,1.8-0.6,2.7-0.6c2.4,0,4.5,1.3,5.6,3.2c1.6,0.4,3.3,0.7,5,1 C138.4,151.8,134,148.2,128.8,148.2z" class="st17"/><path d="M171.5,95.8c-2.4,0.1-4.9,0.8-7.5,1.8c0.2,0,0.3,0,0.5,0c3.6,0,6.6,2.9,6.6,6.6c0,3.6-2.9,6.6-6.6,6.6 s-6.6-3-6.6-6.6c0-2,0.9-3.8,2.3-5c-0.9,0.4-1.9,0.8-2.9,1.2l0,0c-1.1,0.5-2.2,0.9-3.4,1.3c-0.2,0.8-0.3,1.6-0.3,2.4 c0,1.3,0.2,2.5,0.6,3.6c1.5,4.3,5.5,7.3,10.3,7.3c6,0,10.9-4.9,10.9-10.9C175.4,100.9,173.9,97.8,171.5,95.8z" class="st17"/><linearGradient id="SVGID_14_" x1="126.55" x2="118.285" y1="103.215" y2="71.298" gradientTransform="matrix(1 0 0 -1 0 166)" gradientUnits="userSpaceOnUse"><stop offset="0" style="stop-color:#ff7570"/><stop offset="1" style="stop-color:#fbb"/></linearGradient><path d="M124.6,68c-1.6-0.1-1.2,3.8-0.3,4.7C125.3,73.5,127.3,68.1,124.6,68z" class="st18"/><linearGradient id="SVGID_15_" x1="131.054" x2="168.861" y1="95.661" y2="208.513" gradientTransform="matrix(1 0 0 -1 0 166)" gradientUnits="userSpaceOnUse"><stop offset="0" style="stop-color:#2a1f31"/><stop offset="1" style="stop-color:#6a517f"/></linearGradient><path d="M166,57.2c-0.3,2.3-1.1,5.2-2.7,8.7c-6.2,13.4-13.2,22-13.2,22L150,88l-0.3,0.2l-0.1,0.1 c-1.2,0.9-4.7,2.8-10.3,0.8c-7-2.5-13.9-11.3-14.2-12.7c-0.3-1.4,2.6,0.1,3.5-2.5c0.9-2.6-0.2-8.4-3-8.7c-2.8-0.4-4.8,1.2-4.8,4.8 c0,3.6-0.4,4.6-1,3.7s-2.7-6.9-2.1-10.1c-1.5,0.1-4.3-1.4-4.3-1.4c-3.6-2-5.5-7.8-6.1-13.5c4.5,6.2,14.2,7.5,20.9,10.1 c7.6,3,10.5,5.4,14.7,6c-2-1.3-2.9-4-2.9-4s2.4,2.7,12.4,2.5C159.5,63.2,164,62.1,166,57.2z" class="st19"/></g></g><path d="M39.3,43.9h-9.6c-0.6,0-1.1,0.5-1.1,1.1l0,0c0,0.6,0.5,1.1,1.1,1.1h9.6c0.6,0,1.1-0.5,1.1-1.1l0,0	C40.4,44.4,39.9,43.9,39.3,43.9z" class="st4"/><path d="M47.5,47.7H29.7c-0.6,0-1.1,0.5-1.1,1.1l0,0c0,0.6,0.5,1.1,1.1,1.1h17.8c0.6,0,1.1-0.5,1.1-1.1l0,0	C48.6,48.2,48.1,47.7,47.5,47.7z" class="st4"/><linearGradient id="SVGID_16_" x1="84.935" x2="83.179" y1="25.559" y2="61.319" gradientTransform="matrix(1 0 0 -1 0 166)" gradientUnits="userSpaceOnUse"><stop offset="0" style="stop-color:#ff7570"/><stop offset="1" style="stop-color:#fbb"/></linearGradient><path d="M95.4,137.6L95.4,137.6L95.4,137.6c-4.9-2-11.9-2.9-20.1-2.6c-0.5-1.8-1-3.6-1.5-5.3c2-1,4.1-2.1,6.4-2.9	c3-1,6.1-1.5,9.3-0.4c0.1,0.2,0.2,0.3,0.2,0.4C92.1,131.3,94.1,135.2,95.4,137.6C95.4,137.5,95.4,137.5,95.4,137.6L95.4,137.6z" class="st20"/><linearGradient id="SVGID_17_" x1="89.198" x2="91.003" y1="125.028" y2="112.772" gradientTransform="matrix(1 0 0 -1 0 166)" gradientUnits="userSpaceOnUse"><stop offset="0" style="stop-color:#ff227d"/><stop offset="1" style="stop-color:#ff967d"/></linearGradient><path d="M93.1,41.8c-0.9-0.9-2.1-1.4-3.3-1.4c-1.2,0-2.4,0.5-3.3,1.4c-1.8,1.8-1.8,4.7,0,6.5l3.3,3.3l3.3-3.3	c0.9-0.9,1.3-2.1,1.3-3.3C94.5,43.9,94,42.7,93.1,41.8z M89.9,46.8c-0.9,0-1.7-0.8-1.7-1.7c0-1,0.8-1.7,1.7-1.7c1,0,1.7,0.8,1.7,1.7	S90.8,46.8,89.9,46.8z" class="st21"/></svg>