<svg xmlns="http://www.w3.org/2000/svg" xmlns:xlink="http://www.w3.org/1999/xlink" style="enable-background:new 0 0 198 190.3" id="Layer_1" x="0" y="0" version="1.1" viewBox="0 0 198 190.3" xml:space="preserve"><style type="text/css">.st0{opacity:.75;clip-path:url(#SVGID_2_);fill:#671cc9;enable-background:new}.st1{clip-path:url(#SVGID_4_)}.st2{clip-path:url(#SVGID_6_);fill:none;stroke:#671cc9;stroke-width:1.5;stroke-linecap:round;stroke-linejoin:round;stroke-miterlimit:10}.st3{clip-path:url(#SVGID_8_);fill:#fff}.st4{clip-path:url(#SVGID_10_)}.st5,.st6,.st7{stroke:#671cc9;stroke-width:1.5;stroke-miterlimit:10}.st5{fill:#fff;stroke-linejoin:round}.st6{fill:#8041f9}.st7{fill:none;stroke-linecap:round;stroke-linejoin:round}.st8{clip-path:url(#SVGID_12_);fill:#671cc9}.st9{clip-path:url(#SVGID_14_);fill:#fff}.st10{clip-path:url(#SVGID_16_);fill:#2189ff}.st11{clip-path:url(#SVGID_18_);fill:#fff}.st12{clip-path:url(#SVGID_20_);fill:#671cc9}</style><g><g><defs><rect id="SVGID_1_" width="198" height="190.3" y="0"/></defs><clipPath id="SVGID_2_"><use style="overflow:visible" xlink:href="#SVGID_1_"/></clipPath><path d="M198-45.7H0v217.8c69.9-17.9,143.8-44.1,198-55.5V-45.7z" class="st0"/></g><g><defs><rect id="SVGID_3_" width="198" height="190.3" y="0"/></defs><clipPath id="SVGID_4_"><use style="overflow:visible" xlink:href="#SVGID_3_"/></clipPath><g class="st1"><g><defs><path id="SVGID_5_" d="M198-45.7H0v217.8c69.9-17.9,143.8-44.1,198-55.5V-45.7z"/></defs><clipPath id="SVGID_6_"><use style="overflow:visible" xlink:href="#SVGID_5_"/></clipPath><line x1="202.8" x2="-.2" y1="109.9" y2="109.9" class="st2"/></g><g><defs><path id="SVGID_7_" d="M198-45.7H0v217.8c69.9-17.9,143.8-44.1,198-55.5V-45.7z"/></defs><clipPath id="SVGID_8_"><use style="overflow:visible" xlink:href="#SVGID_7_"/></clipPath><path d="M217.4,4.1c-1.6,0-3.1,0.2-4.6,0.5c-3.1-7.2-10.3-12.3-18.6-12.3c-11.2,0-20.3,9.1-20.3,20.3 c0,0.4,0,0.7,0,1.1c-0.1,0-0.3,0-0.4,0c-10.4,0-18.8,8.4-18.8,18.8s8.4,18.8,18.8,18.8c0.1,0,0.2,0,0.4,0l0,0h43.5 c13,0,23.6-10.6,23.6-23.6C241,14.7,230.4,4.1,217.4,4.1z" class="st3"/></g><g><defs><path id="SVGID_9_" d="M198-45.7H0v217.8c69.9-17.9,143.8-44.1,198-55.5V-45.7z"/></defs><clipPath id="SVGID_10_"><use style="overflow:visible" xlink:href="#SVGID_9_"/></clipPath><g class="st4"><path d="M120.1,80.7c9.1-2.3,20.8,9.3,20.8,9.3c-2.4-14.1-10.3-27.1-22.4-35.6C122.8,64.1,121.2,75.5,120.1,80.7z" class="st5"/><path d="M77.9,63.6c3.6,0.8,28.9,6.6,42,17.2c0.1,0,0.1,0,0.2,0c1.1-5.3,2.7-16.6-1.6-26.3 c-3.3-2.3-6.9-4.3-10.8-5.9c-3.2-1.3-6.4-2.3-9.6-2.9C87.8,49.4,80.8,58.9,77.9,63.6z" class="st6"/><path d="M77.5,63.5c0,0,0.1,0,0.4,0.1c2.9-4.6,10-14.2,20.2-18c-15-3.1-30.3,0.4-42.4,8.8 C69.5,56.2,77.5,63.5,77.5,63.5z" class="st5"/><path d="M101.2,70.7c-20.4,49.9-24.3,58.6-24.3,58.6" class="st7"/><line x1="109.3" x2="110.5" y1="49.3" y2="46.4" class="st7"/></g></g><g><defs><path id="SVGID_11_" d="M198-45.7H0v217.8c69.9-17.9,143.8-44.1,198-55.5V-45.7z"/></defs><clipPath id="SVGID_12_"><use style="overflow:visible" xlink:href="#SVGID_11_"/></clipPath><circle cx="152.8" cy="99.3" r="4" class="st8"/></g><g><defs><path id="SVGID_13_" d="M198-45.7H0v217.8c69.9-17.9,143.8-44.1,198-55.5V-45.7z"/></defs><clipPath id="SVGID_14_"><use style="overflow:visible" xlink:href="#SVGID_13_"/></clipPath><circle cx="37.3" cy="99.8" r="1.5" class="st9"/></g><g><defs><path id="SVGID_15_" d="M198-45.7H0v217.8c69.9-17.9,143.8-44.1,198-55.5V-45.7z"/></defs><clipPath id="SVGID_16_"><use style="overflow:visible" xlink:href="#SVGID_15_"/></clipPath><circle cx="153.3" cy="-18.2" r="1.5" class="st10"/></g><g><defs><path id="SVGID_17_" d="M198-45.7H0v217.8c69.9-17.9,143.8-44.1,198-55.5V-45.7z"/></defs><clipPath id="SVGID_18_"><use style="overflow:visible" xlink:href="#SVGID_17_"/></clipPath><circle cx="29.3" cy="-7.2" r="15.5" class="st11"/></g><g><defs><path id="SVGID_19_" d="M198-45.7H0v217.8c69.9-17.9,143.8-44.1,198-55.5V-45.7z"/></defs><clipPath id="SVGID_20_"><use style="overflow:visible" xlink:href="#SVGID_19_"/></clipPath><polygon points="-5.2 122.3 69.8 122.3 -17.2 162.3" class="st12"/></g></g></g></g></svg>