<svg xmlns="http://www.w3.org/2000/svg" xmlns:xlink="http://www.w3.org/1999/xlink" id="Layer_1" x="0" y="0" version="1.1" viewBox="0 0 110 110" xml:space="preserve" style="enable-background:new 0 0 110 110"><style type="text/css">.st0{fill:#797bf2}.st1,.st2{opacity:.59;fill:#121214;enable-background:new}.st2{fill:#3a3a3f}.st3{fill:url(#SVGID_1_)}.st4{fill:url(#SVGID_2_)}.st5{fill:url(#SVGID_3_)}.st6{fill:url(#SVGID_4_)}.st7{opacity:.15;enable-background:new}.st8{fill:url(#SVGID_5_)}.st9{fill:url(#SVGID_6_)}.st10{fill:url(#SVGID_7_)}.st11{opacity:.25}.st12{fill:#fff}.st13{fill:url(#SVGID_8_)}.st14{fill:url(#SVGID_9_)}.st15{fill:url(#SVGID_10_)}.st16{fill:url(#SVGID_11_)}.st17{fill:url(#SVGID_12_)}.st18{fill:url(#SVGID_13_)}.st19{opacity:.45;fill:#fff;enable-background:new}.st20{fill:url(#SVGID_14_)}.st21{fill:url(#SVGID_15_)}.st22{fill:url(#SVGID_16_)}.st23{fill:url(#SVGID_17_)}.st24{fill:url(#SVGID_18_)}.st25{fill:url(#SVGID_19_)}.st26{fill:url(#SVGID_20_)}.st27{fill:url(#SVGID_21_)}.st28{fill:url(#SVGID_22_)}.st29{fill:url(#SVGID_23_)}.st30{fill:url(#SVGID_24_)}.st31{fill:url(#SVGID_25_)}.st32{fill:#fff}.st32,.st33{opacity:.25;enable-background:new}.st34{fill:url(#SVGID_26_)}</style><g><path d="M4.6,16.1c-0.3,0-0.6,0.3-0.6,0.6c0,0.3,0.3,0.6,0.6,0.6c0.3,0,0.6-0.3,0.6-0.6C5.2,16.3,5,16.1,4.6,16.1z" class="st0"/><path d="M9.5,16.1c-0.3,0-0.6,0.3-0.6,0.6c0,0.3,0.3,0.6,0.6,0.6s0.6-0.3,0.6-0.6C10.1,16.3,9.8,16.1,9.5,16.1z" class="st0"/><path d="M14.4,16.1c-0.3,0-0.6,0.3-0.6,0.6c0,0.3,0.3,0.6,0.6,0.6S15,17,15,16.7C14.9,16.3,14.7,16.1,14.4,16.1z" class="st0"/><path d="M19.2,16.1c-0.3,0-0.6,0.3-0.6,0.6c0,0.3,0.3,0.6,0.6,0.6c0.3,0,0.6-0.3,0.6-0.6 C19.8,16.3,19.5,16.1,19.2,16.1z" class="st0"/><path d="M24.1,16.1c-0.3,0-0.6,0.3-0.6,0.6c0,0.3,0.3,0.6,0.6,0.6c0.3,0,0.6-0.3,0.6-0.6 C24.7,16.3,24.4,16.1,24.1,16.1z" class="st0"/><path d="M28.9,16.1c-0.3,0-0.6,0.3-0.6,0.6c0,0.3,0.3,0.6,0.6,0.6c0.3,0,0.6-0.3,0.6-0.6 C29.5,16.3,29.3,16.1,28.9,16.1z" class="st0"/><path d="M33.8,17.2c0.3,0,0.6-0.3,0.6-0.6c0-0.3-0.3-0.6-0.6-0.6s-0.6,0.3-0.6,0.6C33.2,17,33.5,17.2,33.8,17.2z" class="st0"/><path d="M4.6,20.3c-0.3,0-0.6,0.3-0.6,0.6c0,0.3,0.3,0.6,0.6,0.6c0.3,0,0.6-0.3,0.6-0.6C5.2,20.6,5,20.3,4.6,20.3z" class="st0"/><path d="M9.5,20.3c-0.3,0-0.6,0.3-0.6,0.6c0,0.3,0.3,0.6,0.6,0.6s0.6-0.3,0.6-0.6C10.1,20.6,9.8,20.3,9.5,20.3z" class="st0"/><path d="M14.4,20.3c-0.3,0-0.6,0.3-0.6,0.6c0,0.3,0.3,0.6,0.6,0.6s0.6-0.3,0.6-0.6C14.9,20.6,14.7,20.3,14.4,20.3z" class="st0"/><path d="M19.2,20.3c-0.3,0-0.6,0.3-0.6,0.6c0,0.3,0.3,0.6,0.6,0.6c0.3,0,0.6-0.3,0.6-0.6 C19.8,20.6,19.5,20.3,19.2,20.3z" class="st0"/><path d="M24.1,20.3c-0.3,0-0.6,0.3-0.6,0.6c0,0.3,0.3,0.6,0.6,0.6c0.3,0,0.6-0.3,0.6-0.6 C24.7,20.6,24.4,20.3,24.1,20.3z" class="st0"/><path d="M28.9,20.3c-0.3,0-0.6,0.3-0.6,0.6c0,0.3,0.3,0.6,0.6,0.6c0.3,0,0.6-0.3,0.6-0.6 C29.5,20.6,29.3,20.3,28.9,20.3z" class="st0"/><path d="M33.8,20.3c-0.3,0-0.6,0.3-0.6,0.6c0,0.3,0.3,0.6,0.6,0.6s0.6-0.3,0.6-0.6C34.4,20.6,34.1,20.3,33.8,20.3z" class="st0"/><path d="M4.6,24.5c-0.3,0-0.6,0.3-0.6,0.6s0.3,0.6,0.6,0.6c0.3,0,0.6-0.3,0.6-0.6S5,24.5,4.6,24.5z" class="st0"/><circle cx="9.5" cy="25.1" r=".6" class="st0"/><path d="M14.4,24.5c-0.3,0-0.6,0.3-0.6,0.6s0.3,0.6,0.6,0.6s0.6-0.3,0.6-0.6S14.7,24.5,14.4,24.5z" class="st0"/><path d="M19.2,24.5c-0.3,0-0.6,0.3-0.6,0.6s0.3,0.6,0.6,0.6c0.3,0,0.6-0.3,0.6-0.6S19.5,24.5,19.2,24.5z" class="st0"/><path d="M24.1,24.5c-0.3,0-0.6,0.3-0.6,0.6s0.3,0.6,0.6,0.6c0.3,0,0.6-0.3,0.6-0.6S24.4,24.5,24.1,24.5z" class="st0"/><path d="M28.9,24.5c-0.3,0-0.6,0.3-0.6,0.6s0.3,0.6,0.6,0.6c0.3,0,0.6-0.3,0.6-0.6S29.3,24.5,28.9,24.5z" class="st0"/><circle cx="33.8" cy="25.1" r=".6" class="st0"/><path d="M4.6,28.8c-0.3,0-0.6,0.3-0.6,0.6C4,29.7,4.3,30,4.6,30c0.3,0,0.6-0.3,0.6-0.6C5.2,29,5,28.8,4.6,28.8z" class="st0"/><path d="M9.5,28.8c-0.3,0-0.6,0.3-0.6,0.6c0,0.3,0.3,0.6,0.6,0.6s0.6-0.3,0.6-0.6C10.1,29,9.8,28.8,9.5,28.8z" class="st0"/><path d="M14.4,28.8c-0.3,0-0.6,0.3-0.6,0.6c0,0.3,0.3,0.6,0.6,0.6s0.6-0.3,0.6-0.6C14.9,29,14.7,28.8,14.4,28.8z" class="st0"/><path d="M19.2,28.8c-0.3,0-0.6,0.3-0.6,0.6c0,0.3,0.3,0.6,0.6,0.6c0.3,0,0.6-0.3,0.6-0.6C19.8,29,19.5,28.8,19.2,28.8z" class="st0"/><path d="M24.1,28.8c-0.3,0-0.6,0.3-0.6,0.6c0,0.3,0.3,0.6,0.6,0.6c0.3,0,0.6-0.3,0.6-0.6C24.7,29,24.4,28.8,24.1,28.8z" class="st0"/><path d="M28.9,28.8c-0.3,0-0.6,0.3-0.6,0.6c0,0.3,0.3,0.6,0.6,0.6c0.3,0,0.6-0.3,0.6-0.6C29.5,29,29.3,28.8,28.9,28.8z" class="st0"/><path d="M33.8,28.8c-0.3,0-0.6,0.3-0.6,0.6c0,0.3,0.3,0.6,0.6,0.6s0.6-0.3,0.6-0.6C34.4,29,34.1,28.8,33.8,28.8z" class="st0"/><path d="M4.6,33C4.3,33,4,33.3,4,33.6s0.3,0.6,0.6,0.6c0.3,0,0.6-0.3,0.6-0.6S5,33,4.6,33z" class="st0"/><path d="M9.5,33c-0.3,0-0.6,0.3-0.6,0.6s0.3,0.6,0.6,0.6s0.6-0.3,0.6-0.6S9.8,33,9.5,33z" class="st0"/><path d="M14.4,33c-0.3,0-0.6,0.3-0.6,0.6s0.3,0.6,0.6,0.6s0.6-0.3,0.6-0.6C14.9,33.3,14.7,33,14.4,33z" class="st0"/><path d="M19.2,33c-0.3,0-0.6,0.3-0.6,0.6s0.3,0.6,0.6,0.6c0.3,0,0.6-0.3,0.6-0.6C19.8,33.3,19.5,33,19.2,33z" class="st0"/><path d="M24.1,33c-0.3,0-0.6,0.3-0.6,0.6s0.3,0.6,0.6,0.6c0.3,0,0.6-0.3,0.6-0.6S24.4,33,24.1,33z" class="st0"/><path d="M28.9,33c-0.3,0-0.6,0.3-0.6,0.6s0.3,0.6,0.6,0.6c0.3,0,0.6-0.3,0.6-0.6S29.3,33,28.9,33z" class="st0"/><path d="M33.8,33c-0.3,0-0.6,0.3-0.6,0.6s0.3,0.6,0.6,0.6s0.6-0.3,0.6-0.6C34.4,33.3,34.1,33,33.8,33z" class="st0"/><path d="M4.6,37.2c-0.3,0-0.6,0.3-0.6,0.6s0.3,0.6,0.6,0.6c0.3,0,0.6-0.3,0.6-0.6S5,37.2,4.6,37.2z" class="st0"/><path d="M9.5,37.2c-0.3,0-0.6,0.3-0.6,0.6s0.3,0.6,0.6,0.6s0.6-0.3,0.6-0.6S9.8,37.2,9.5,37.2z" class="st0"/><path d="M14.4,37.2c-0.3,0-0.6,0.3-0.6,0.6s0.3,0.6,0.6,0.6s0.6-0.3,0.6-0.6C14.9,37.5,14.7,37.2,14.4,37.2z" class="st0"/><path d="M19.2,37.2c-0.3,0-0.6,0.3-0.6,0.6s0.3,0.6,0.6,0.6c0.3,0,0.6-0.3,0.6-0.6C19.8,37.5,19.5,37.2,19.2,37.2z" class="st0"/><path d="M24.1,37.2c-0.3,0-0.6,0.3-0.6,0.6s0.3,0.6,0.6,0.6c0.3,0,0.6-0.3,0.6-0.6S24.4,37.2,24.1,37.2z" class="st0"/><path d="M28.9,37.2c-0.3,0-0.6,0.3-0.6,0.6s0.3,0.6,0.6,0.6c0.3,0,0.6-0.3,0.6-0.6S29.3,37.2,28.9,37.2z" class="st0"/><path d="M33.8,37.2c-0.3,0-0.6,0.3-0.6,0.6s0.3,0.6,0.6,0.6s0.6-0.3,0.6-0.6C34.4,37.5,34.1,37.2,33.8,37.2z" class="st0"/><path d="M4.6,41.5c-0.3,0-0.6,0.3-0.6,0.6s0.3,0.6,0.6,0.6c0.3,0,0.6-0.3,0.6-0.6C5.2,41.7,5,41.5,4.6,41.5z" class="st0"/><circle cx="9.5" cy="42" r=".6" class="st0"/><path d="M14.4,41.5c-0.3,0-0.6,0.3-0.6,0.6s0.3,0.6,0.6,0.6s0.6-0.3,0.6-0.6C14.9,41.7,14.7,41.5,14.4,41.5z" class="st0"/><path d="M19.2,41.5c-0.3,0-0.6,0.3-0.6,0.6s0.3,0.6,0.6,0.6c0.3,0,0.6-0.3,0.6-0.6C19.8,41.7,19.5,41.5,19.2,41.5z" class="st0"/><path d="M24.1,41.5c-0.3,0-0.6,0.3-0.6,0.6s0.3,0.6,0.6,0.6c0.3,0,0.6-0.3,0.6-0.6C24.7,41.7,24.4,41.5,24.1,41.5z" class="st0"/><path d="M28.9,41.5c-0.3,0-0.6,0.3-0.6,0.6s0.3,0.6,0.6,0.6c0.3,0,0.6-0.3,0.6-0.6C29.5,41.7,29.3,41.5,28.9,41.5z" class="st0"/><circle cx="33.8" cy="42" r=".6" class="st0"/><path d="M4.6,45.7C4.3,45.7,4,46,4,46.3s0.3,0.6,0.6,0.6c0.3,0,0.6-0.3,0.6-0.6S5,45.7,4.6,45.7z" class="st0"/><circle cx="9.5" cy="46.3" r=".6" class="st0"/><path d="M14.4,45.7c-0.3,0-0.6,0.3-0.6,0.6s0.3,0.6,0.6,0.6s0.6-0.3,0.6-0.6C14.9,46,14.7,45.7,14.4,45.7z" class="st0"/><path d="M19.2,45.7c-0.3,0-0.6,0.3-0.6,0.6s0.3,0.6,0.6,0.6c0.3,0,0.6-0.3,0.6-0.6C19.8,46,19.5,45.7,19.2,45.7z" class="st0"/><path d="M24.1,45.7c-0.3,0-0.6,0.3-0.6,0.6s0.3,0.6,0.6,0.6c0.3,0,0.6-0.3,0.6-0.6S24.4,45.7,24.1,45.7z" class="st0"/><path d="M28.9,45.7c-0.3,0-0.6,0.3-0.6,0.6s0.3,0.6,0.6,0.6c0.3,0,0.6-0.3,0.6-0.6S29.3,45.7,28.9,45.7z" class="st0"/><circle cx="33.8" cy="46.3" r=".6" class="st0"/></g><g><path d="M66.5,51.6c-0.3,0-0.6,0.3-0.6,0.6s0.3,0.6,0.6,0.6c0.3,0,0.6-0.3,0.6-0.6C67.1,51.9,66.8,51.6,66.5,51.6z" class="st0"/><path d="M71.4,51.6c-0.3,0-0.6,0.3-0.6,0.6s0.3,0.6,0.6,0.6s0.6-0.3,0.6-0.6C71.9,51.9,71.7,51.6,71.4,51.6z" class="st0"/><path d="M76.2,51.6c-0.3,0-0.6,0.3-0.6,0.6s0.3,0.6,0.6,0.6c0.3,0,0.6-0.3,0.6-0.6C76.8,51.9,76.5,51.6,76.2,51.6z" class="st0"/><path d="M81.1,51.6c-0.3,0-0.6,0.3-0.6,0.6s0.3,0.6,0.6,0.6c0.3,0,0.6-0.3,0.6-0.6C81.7,51.9,81.4,51.6,81.1,51.6z" class="st0"/><path d="M85.9,51.6c-0.3,0-0.6,0.3-0.6,0.6s0.3,0.6,0.6,0.6c0.3,0,0.6-0.3,0.6-0.6C86.5,51.9,86.3,51.6,85.9,51.6z" class="st0"/><path d="M90.8,51.6c-0.3,0-0.6,0.3-0.6,0.6s0.3,0.6,0.6,0.6c0.3,0,0.6-0.3,0.6-0.6C91.4,51.9,91.1,51.6,90.8,51.6z" class="st0"/><path d="M95.7,52.8c0.3,0,0.6-0.3,0.6-0.6s-0.3-0.6-0.6-0.6s-0.6,0.3-0.6,0.6S95.3,52.8,95.7,52.8z" class="st0"/><path d="M66.5,55.8c-0.3,0-0.6,0.3-0.6,0.6s0.3,0.6,0.6,0.6c0.3,0,0.6-0.3,0.6-0.6S66.8,55.8,66.5,55.8z" class="st0"/><path d="M71.4,55.8c-0.3,0-0.6,0.3-0.6,0.6s0.3,0.6,0.6,0.6s0.6-0.3,0.6-0.6C71.9,56.1,71.7,55.8,71.4,55.8z" class="st0"/><path d="M76.2,55.8c-0.3,0-0.6,0.3-0.6,0.6s0.3,0.6,0.6,0.6c0.3,0,0.6-0.3,0.6-0.6C76.8,56.1,76.5,55.8,76.2,55.8z" class="st0"/><path d="M81.1,55.8c-0.3,0-0.6,0.3-0.6,0.6s0.3,0.6,0.6,0.6c0.3,0,0.6-0.3,0.6-0.6S81.4,55.8,81.1,55.8z" class="st0"/><path d="M85.9,55.8c-0.3,0-0.6,0.3-0.6,0.6s0.3,0.6,0.6,0.6c0.3,0,0.6-0.3,0.6-0.6S86.3,55.8,85.9,55.8z" class="st0"/><path d="M90.8,55.8c-0.3,0-0.6,0.3-0.6,0.6s0.3,0.6,0.6,0.6c0.3,0,0.6-0.3,0.6-0.6S91.1,55.8,90.8,55.8z" class="st0"/><path d="M95.7,55.8c-0.3,0-0.6,0.3-0.6,0.6s0.3,0.6,0.6,0.6s0.6-0.3,0.6-0.6C96.2,56.1,96,55.8,95.7,55.8z" class="st0"/><path d="M66.5,60.1c-0.3,0-0.6,0.3-0.6,0.6s0.3,0.6,0.6,0.6c0.3,0,0.6-0.3,0.6-0.6C67.1,60.3,66.8,60.1,66.5,60.1z" class="st0"/><path d="M71.4,60.1c-0.3,0-0.6,0.3-0.6,0.6s0.3,0.6,0.6,0.6S72,61,72,60.7C71.9,60.3,71.7,60.1,71.4,60.1z" class="st0"/><path d="M76.2,60.1c-0.3,0-0.6,0.3-0.6,0.6s0.3,0.6,0.6,0.6c0.3,0,0.6-0.3,0.6-0.6C76.8,60.3,76.5,60.1,76.2,60.1z" class="st0"/><path d="M81.1,60.1c-0.3,0-0.6,0.3-0.6,0.6s0.3,0.6,0.6,0.6c0.3,0,0.6-0.3,0.6-0.6C81.7,60.3,81.4,60.1,81.1,60.1z" class="st0"/><path d="M85.9,60.1c-0.3,0-0.6,0.3-0.6,0.6s0.3,0.6,0.6,0.6c0.3,0,0.6-0.3,0.6-0.6C86.5,60.3,86.3,60.1,85.9,60.1z" class="st0"/><path d="M90.8,60.1c-0.3,0-0.6,0.3-0.6,0.6s0.3,0.6,0.6,0.6c0.3,0,0.6-0.3,0.6-0.6C91.4,60.3,91.1,60.1,90.8,60.1z" class="st0"/><path d="M95.7,60.1c-0.3,0-0.6,0.3-0.6,0.6s0.3,0.6,0.6,0.6s0.6-0.3,0.6-0.6C96.2,60.3,96,60.1,95.7,60.1z" class="st0"/><path d="M66.5,64.3c-0.3,0-0.6,0.3-0.6,0.6c0,0.3,0.3,0.6,0.6,0.6c0.3,0,0.6-0.3,0.6-0.6 C67.1,64.6,66.8,64.3,66.5,64.3z" class="st0"/><path d="M71.4,64.3c-0.3,0-0.6,0.3-0.6,0.6c0,0.3,0.3,0.6,0.6,0.6s0.6-0.3,0.6-0.6C71.9,64.6,71.7,64.3,71.4,64.3z" class="st0"/><path d="M76.2,64.3c-0.3,0-0.6,0.3-0.6,0.6c0,0.3,0.3,0.6,0.6,0.6c0.3,0,0.6-0.3,0.6-0.6 C76.8,64.6,76.5,64.3,76.2,64.3z" class="st0"/><path d="M81.1,64.3c-0.3,0-0.6,0.3-0.6,0.6c0,0.3,0.3,0.6,0.6,0.6c0.3,0,0.6-0.3,0.6-0.6 C81.7,64.6,81.4,64.3,81.1,64.3z" class="st0"/><path d="M85.9,64.3c-0.3,0-0.6,0.3-0.6,0.6c0,0.3,0.3,0.6,0.6,0.6c0.3,0,0.6-0.3,0.6-0.6 C86.5,64.6,86.3,64.3,85.9,64.3z" class="st0"/><path d="M90.8,64.3c-0.3,0-0.6,0.3-0.6,0.6c0,0.3,0.3,0.6,0.6,0.6c0.3,0,0.6-0.3,0.6-0.6 C91.4,64.6,91.1,64.3,90.8,64.3z" class="st0"/><path d="M95.7,64.3c-0.3,0-0.6,0.3-0.6,0.6c0,0.3,0.3,0.6,0.6,0.6s0.6-0.3,0.6-0.6C96.2,64.6,96,64.3,95.7,64.3z" class="st0"/><path d="M66.5,68.5c-0.3,0-0.6,0.3-0.6,0.6c0,0.3,0.3,0.6,0.6,0.6c0.3,0,0.6-0.3,0.6-0.6S66.8,68.5,66.5,68.5z" class="st0"/><path d="M71.4,68.5c-0.3,0-0.6,0.3-0.6,0.6c0,0.3,0.3,0.6,0.6,0.6s0.6-0.3,0.6-0.6C71.9,68.8,71.7,68.5,71.4,68.5z" class="st0"/><path d="M76.2,68.5c-0.3,0-0.6,0.3-0.6,0.6c0,0.3,0.3,0.6,0.6,0.6c0.3,0,0.6-0.3,0.6-0.6 C76.8,68.8,76.5,68.5,76.2,68.5z" class="st0"/><path d="M81.1,68.5c-0.3,0-0.6,0.3-0.6,0.6c0,0.3,0.3,0.6,0.6,0.6c0.3,0,0.6-0.3,0.6-0.6S81.4,68.5,81.1,68.5z" class="st0"/><path d="M85.9,68.5c-0.3,0-0.6,0.3-0.6,0.6c0,0.3,0.3,0.6,0.6,0.6c0.3,0,0.6-0.3,0.6-0.6S86.3,68.5,85.9,68.5z" class="st0"/><path d="M90.8,68.5c-0.3,0-0.6,0.3-0.6,0.6c0,0.3,0.3,0.6,0.6,0.6c0.3,0,0.6-0.3,0.6-0.6S91.1,68.5,90.8,68.5z" class="st0"/><path d="M95.7,68.5c-0.3,0-0.6,0.3-0.6,0.6c0,0.3,0.3,0.6,0.6,0.6s0.6-0.3,0.6-0.6C96.2,68.8,96,68.5,95.7,68.5z" class="st0"/><path d="M66.5,72.8c-0.3,0-0.6,0.3-0.6,0.6c0,0.3,0.3,0.6,0.6,0.6c0.3,0,0.6-0.3,0.6-0.6C67.1,73,66.8,72.8,66.5,72.8z" class="st0"/><circle cx="71.4" cy="73.4" r=".6" class="st0"/><path d="M76.2,72.8c-0.3,0-0.6,0.3-0.6,0.6c0,0.3,0.3,0.6,0.6,0.6c0.3,0,0.6-0.3,0.6-0.6C76.8,73,76.5,72.8,76.2,72.8z" class="st0"/><path d="M81.1,72.8c-0.3,0-0.6,0.3-0.6,0.6c0,0.3,0.3,0.6,0.6,0.6c0.3,0,0.6-0.3,0.6-0.6C81.7,73,81.4,72.8,81.1,72.8z" class="st0"/><path d="M85.9,72.8c-0.3,0-0.6,0.3-0.6,0.6c0,0.3,0.3,0.6,0.6,0.6c0.3,0,0.6-0.3,0.6-0.6C86.5,73,86.3,72.8,85.9,72.8z" class="st0"/><path d="M90.8,72.8c-0.3,0-0.6,0.3-0.6,0.6c0,0.3,0.3,0.6,0.6,0.6c0.3,0,0.6-0.3,0.6-0.6C91.4,73,91.1,72.8,90.8,72.8z" class="st0"/><circle cx="95.7" cy="73.4" r=".6" class="st0"/><path d="M66.5,77c-0.3,0-0.6,0.3-0.6,0.6s0.3,0.6,0.6,0.6c0.3,0,0.6-0.3,0.6-0.6S66.8,77,66.5,77z" class="st0"/><circle cx="71.4" cy="77.6" r=".6" class="st0"/><path d="M76.2,77c-0.3,0-0.6,0.3-0.6,0.6s0.3,0.6,0.6,0.6c0.3,0,0.6-0.3,0.6-0.6S76.5,77,76.2,77z" class="st0"/><path d="M81.1,77c-0.3,0-0.6,0.3-0.6,0.6s0.3,0.6,0.6,0.6c0.3,0,0.6-0.3,0.6-0.6S81.4,77,81.1,77z" class="st0"/><path d="M85.9,77c-0.3,0-0.6,0.3-0.6,0.6s0.3,0.6,0.6,0.6c0.3,0,0.6-0.3,0.6-0.6S86.3,77,85.9,77z" class="st0"/><path d="M90.8,77c-0.3,0-0.6,0.3-0.6,0.6s0.3,0.6,0.6,0.6c0.3,0,0.6-0.3,0.6-0.6S91.1,77,90.8,77z" class="st0"/><circle cx="95.7" cy="77.6" r=".6" class="st0"/><path d="M66.5,81.2c-0.3,0-0.6,0.3-0.6,0.6s0.3,0.6,0.6,0.6c0.3,0,0.6-0.3,0.6-0.6S66.8,81.2,66.5,81.2z" class="st0"/><circle cx="71.4" cy="81.8" r=".6" class="st0"/><path d="M76.2,81.2c-0.3,0-0.6,0.3-0.6,0.6s0.3,0.6,0.6,0.6c0.3,0,0.6-0.3,0.6-0.6S76.5,81.2,76.2,81.2z" class="st0"/><path d="M81.1,81.2c-0.3,0-0.6,0.3-0.6,0.6s0.3,0.6,0.6,0.6c0.3,0,0.6-0.3,0.6-0.6S81.4,81.2,81.1,81.2z" class="st0"/><path d="M85.9,81.2c-0.3,0-0.6,0.3-0.6,0.6s0.3,0.6,0.6,0.6c0.3,0,0.6-0.3,0.6-0.6S86.3,81.2,85.9,81.2z" class="st0"/><path d="M90.8,81.2c-0.3,0-0.6,0.3-0.6,0.6s0.3,0.6,0.6,0.6c0.3,0,0.6-0.3,0.6-0.6S91.1,81.2,90.8,81.2z" class="st0"/><circle cx="95.7" cy="81.8" r=".6" class="st0"/></g><g><path d="M96.5,48.3c0,9.4-3.2,18-8.6,24.9c-0.3,0.4-0.6,0.8-0.9,1.1c-0.8,0.9-1.6,1.8-2.4,2.6 c-0.9,0.9-1.9,1.8-2.9,2.6c-0.9,0.7-1.9,1.5-2.8,2.1c-0.3,0.2-0.5,0.4-0.8,0.5c-1.2,0.7-2.3,1.4-3.6,2.1c-0.1,0-0.1,0.1-0.2,0.1 c-0.9,0.4-1.7,0.8-2.6,1.2c-2.3,1-4.6,1.7-7.1,2.2l-1.2,0.2c-2.1,0.4-4.3,0.6-6.6,0.7c-0.3,0-0.5,0-0.8,0c-0.8,0-1.5,0-2.3-0.1 c-4.4-0.2-8.6-1.2-12.5-2.7c-2.1-0.8-4.2-1.8-6.1-3c-0.7-0.4-1.4-0.8-2-1.3c-0.2-0.1-0.3-0.2-0.5-0.3c-0.6-0.4-1.2-0.9-1.8-1.3 c-0.6-0.5-1.2-1-1.8-1.5c-1.2-1.1-2.3-2.2-3.4-3.4c-4.5-5.2-7.8-11.5-9.2-18.5c-0.6-2.7-0.8-5.4-0.8-8.3c0-8.1,2.4-15.6,6.5-22 C29.2,15.2,41.8,7.8,56,7.8c16.1,0,29.9,9.3,36.5,22.9C95.1,36,96.5,42,96.5,48.3z" class="st1"/><path d="M60,65.9c-3,8.4-16,13.2-26.9,15.8c-0.2-0.1-0.3-0.2-0.5-0.3c-0.6-0.4-1.2-0.9-1.8-1.3c-0.6-0.5-1.2-1-1.8-1.5 c-1.2-1.1-2.3-2.2-3.4-3.4c-4.5-5.2-7.8-11.5-9.2-18.5c-0.6-2.7-0.8-5.4-0.8-8.3c0-8.1,2.4-15.6,6.5-22c2.8,0.1,5.2,2.1,5.6,5.8 c3.8-4.1,18-1.2,15.9,10.9C49,40.9,65.4,51,60,65.9z" class="st2"/><path d="M96.5,48.3c0,9.4-3.2,18-8.6,24.9c-0.3,0.4-0.6,0.8-0.9,1.1c-0.8,0.9-1.6,1.8-2.4,2.6 c-0.9,0.9-1.9,1.8-2.9,2.6c-0.9,0.7-1.9,1.5-2.8,2.1c-0.3,0.2-0.5,0.4-0.8,0.5c-1.2,0.7-2.3,1.4-3.6,2.1c-0.1,0-0.1,0.1-0.2,0.1 c-0.9,0.4-1.7,0.8-2.6,1.2c-2.3,1-4.6,1.7-7.1,2.2l-1.2,0.2c-2.1,0.4-4.3,0.6-6.6,0.7c-0.3,0-0.5,0-0.8,0c-0.8,0-1.5,0-2.3-0.1 c-4.4-0.2-8.6-1.2-12.5-2.7c-2.1-0.8-4.2-1.8-6.1-3c-0.9-0.5-1.7-1.1-2.5-1.6c-0.6-0.4-1.2-0.9-1.8-1.3c-0.6-0.5-1.2-1-1.8-1.5 c-1.2-1.1-2.3-2.2-3.4-3.4c-4.5-5.2-7.8-11.5-9.2-18.5c2.6-4.1,8.3-2.5,8.7,3.7c0-11.9,18.3-18.4,22.2-7.1c0.6-6.9,10.3-7.9,10.9,2 c0.7-8.3,14-15.3,19.4-6.6c-0.8-10,8.7-10.4,10.7-5c-1.1-5.5,0.6-10.6,4.2-12.9C95.1,36,96.5,42,96.5,48.3z" class="st2"/><g><linearGradient id="SVGID_1_" x1="33.4" x2="33.4" y1="17.304" y2="49.581" gradientTransform="matrix(1 0 0 -1 0 112)" gradientUnits="userSpaceOnUse"><stop offset="0" style="stop-color:#797bf2"/><stop offset="1" style="stop-color:#7961f2"/></linearGradient><path d="M41.2,49.3V86c-1.9-0.8-3.8-1.7-5.6-2.7c-0.2-0.1-0.3-0.2-0.5-0.3c-0.7-0.4-1.5-0.9-2.2-1.4 c-0.1-0.1-0.2-0.1-0.3-0.2c-0.4-0.3-0.9-0.6-1.3-1c-0.2-0.1-0.3-0.3-0.5-0.4c-0.5-0.4-1.1-0.9-1.6-1.3c-0.1-0.1-0.2-0.1-0.2-0.2 c-0.4-0.3-0.7-0.6-1-1c-0.6-0.6-1.1-1.1-1.7-1.7c-0.2-0.2-0.4-0.5-0.7-0.7V49.3H41.2z" class="st3"/><linearGradient id="SVGID_2_" x1="43.313" x2="106.258" y1="49.542" y2="-6.396" gradientTransform="matrix(1 0 0 -1 0 112)" gradientUnits="userSpaceOnUse"><stop offset="0" style="stop-color:#797bf2"/><stop offset="1" style="stop-color:#7961f2"/></linearGradient><path d="M56.9,49.3v39.4c-0.3,0-0.5,0-0.8,0c-0.8,0-1.5,0-2.3-0.1c-4.4-0.2-8.6-1.2-12.5-2.7V49.3H56.9z" class="st4"/><linearGradient id="SVGID_3_" x1="32.059" x2="36.969" y1="68.624" y2="44.425" gradientTransform="matrix(1 0 0 -1 0 112)" gradientUnits="userSpaceOnUse"><stop offset="0" style="stop-color:#797bf2"/><stop offset="1" style="stop-color:#7961f2"/></linearGradient><rect width="16.1" height="4.9" x="25.1" y="46.3" class="st5"/><linearGradient id="SVGID_4_" x1="48.257" x2="53.167" y1="68.636" y2="44.437" gradientTransform="matrix(1 0 0 -1 0 112)" gradientUnits="userSpaceOnUse"><stop offset="0" style="stop-color:#797bf2"/><stop offset="1" style="stop-color:#7961f2"/></linearGradient><rect width="16.1" height="4.9" x="41.3" y="46.3" class="st6"/><rect width="32.3" height="1.1" x="25.1" y="50.1" class="st7"/><linearGradient id="SVGID_5_" x1="48.509" x2=".439" y1="76.315" y2="47.8" gradientTransform="matrix(1 0 0 -1 0 112)" gradientUnits="userSpaceOnUse"><stop offset="0" style="stop-color:#797bf2"/><stop offset="1" style="stop-color:#7961f2"/></linearGradient><rect width="12.1" height="5.3" x="29.2" y="40.9" class="st8"/><linearGradient id="SVGID_6_" x1="45.589" x2="48.346" y1="86.609" y2="58.181" gradientTransform="matrix(1 0 0 -1 0 112)" gradientUnits="userSpaceOnUse"><stop offset="0" style="stop-color:#797bf2"/><stop offset="1" style="stop-color:#7961f2"/></linearGradient><rect width="12.1" height="5.3" x="41.3" y="40.9" class="st9"/><linearGradient id="SVGID_7_" x1="42.434" x2="40.711" y1="78.305" y2="68.197" gradientTransform="matrix(1 0 0 -1 0 112)" gradientUnits="userSpaceOnUse"><stop offset="0" style="stop-color:#797bf2"/><stop offset="1" style="stop-color:#7961f2"/></linearGradient><rect width="23" height="1.1" x="29.8" y="39.8" class="st10"/><g class="st11"><rect width="14.4" height="1.7" x="26.2" y="52.6" class="st12"/><rect width="14.4" height="1.7" x="26.2" y="55.5" class="st12"/><rect width="14.4" height="1.7" x="26.2" y="58.4" class="st12"/><rect width="14.4" height="1.7" x="26.2" y="61.3" class="st12"/><rect width="14.4" height="1.7" x="26.2" y="64.2" class="st12"/><rect width="14.4" height="1.7" x="26.2" y="67.1" class="st12"/><rect width="14.4" height="1.7" x="26.2" y="70" class="st12"/><rect width="14.4" height="1.7" x="26.2" y="72.9" class="st12"/><path d="M40.6,75.8v1.7H28c-0.6-0.6-1.1-1.1-1.7-1.7H40.6z" class="st12"/><path d="M40.6,78.7v1.7h-9.3c-0.2-0.1-0.3-0.3-0.5-0.4c-0.5-0.4-1.1-0.9-1.6-1.3C29.2,78.7,40.6,78.7,40.6,78.7z" class="st12"/><path d="M40.6,81.6v1.7h-5c-0.2-0.1-0.3-0.2-0.5-0.3c-0.7-0.4-1.5-0.9-2.2-1.4C32.9,81.6,40.6,81.6,40.6,81.6z" class="st12"/></g><g class="st11"><rect width="14.4" height="1.7" x="41.9" y="52.6" class="st12"/><rect width="14.4" height="1.7" x="41.9" y="55.5" class="st12"/><rect width="14.4" height="1.7" x="41.9" y="58.4" class="st12"/><rect width="14.4" height="1.7" x="41.9" y="61.3" class="st12"/><rect width="14.4" height="1.7" x="41.9" y="64.2" class="st12"/><rect width="14.4" height="1.7" x="41.9" y="67.1" class="st12"/><rect width="14.4" height="1.7" x="41.9" y="70" class="st12"/><rect width="14.4" height="1.7" x="41.9" y="72.9" class="st12"/><rect width="14.4" height="1.7" x="41.9" y="75.8" class="st12"/><rect width="14.4" height="1.7" x="41.9" y="78.7" class="st12"/><rect width="14.4" height="1.7" x="41.9" y="81.6" class="st12"/></g></g><g><g><linearGradient id="SVGID_8_" x1="78.519" x2="72.659" y1="69.387" y2="27.226" gradientTransform="matrix(1 0 0 -1 0 112)" gradientUnits="userSpaceOnUse"><stop offset="0" style="stop-color:#ff227d"/><stop offset="1" style="stop-color:#ff967d"/></linearGradient><path d="M78.9,62.7v19.1c-0.3,0.2-0.5,0.4-0.8,0.5c-0.1,0.1-0.2,0.1-0.3,0.2c-0.4,0.3-0.8,0.5-1.2,0.7 c-0.2,0.1-0.5,0.3-0.7,0.4c-0.1,0.1-0.3,0.2-0.4,0.2c-0.3,0.2-0.6,0.3-0.9,0.5h-4.7V62.7H78.9z" class="st13"/><linearGradient id="SVGID_9_" x1="83.566" x2="83.21" y1="53.222" y2="24.863" gradientTransform="matrix(1 0 0 -1 0 112)" gradientUnits="userSpaceOnUse"><stop offset="0" style="stop-color:#ff227d"/><stop offset="1" style="stop-color:#ff967d"/></linearGradient><path d="M88,62.7v10.6c-0.3,0.4-0.6,0.8-0.9,1.1c-0.1,0.1-0.2,0.2-0.3,0.4c-0.3,0.4-0.7,0.8-1.1,1.2 c-0.2,0.2-0.5,0.5-0.7,0.7c-0.1,0.1-0.2,0.2-0.4,0.4l-0.1,0.1c-0.5,0.5-0.9,0.9-1.4,1.3c-0.4,0.4-0.8,0.7-1.2,1 c-0.1,0-0.1,0.1-0.2,0.1c-0.2,0.1-0.4,0.3-0.5,0.4c-0.2,0.1-0.4,0.3-0.5,0.4c-0.6,0.4-1.2,0.9-1.8,1.3v-19H88z" class="st14"/><linearGradient id="SVGID_10_" x1="75.594" x2="73.929" y1="65.9" y2="46.488" gradientTransform="matrix(1 0 0 -1 0 112)" gradientUnits="userSpaceOnUse"><stop offset="0" style="stop-color:#ff227d"/><stop offset="1" style="stop-color:#ff967d"/></linearGradient><rect width="9.4" height="2.9" x="69.5" y="60.9" class="st15"/><linearGradient id="SVGID_11_" x1="83.523" x2="83.695" y1="56.151" y2="41.62" gradientTransform="matrix(1 0 0 -1 0 112)" gradientUnits="userSpaceOnUse"><stop offset="0" style="stop-color:#ff227d"/><stop offset="1" style="stop-color:#ff967d"/></linearGradient><rect width="9.4" height="2.9" x="78.9" y="60.9" class="st16"/><linearGradient id="SVGID_12_" x1="75.363" x2="75.234" y1="60.065" y2="44.903" gradientTransform="matrix(1 0 0 -1 0 112)" gradientUnits="userSpaceOnUse"><stop offset="0" style="stop-color:#ff227d"/><stop offset="1" style="stop-color:#ff967d"/></linearGradient><rect width="7" height="3.1" x="71.8" y="57.8" class="st17"/><linearGradient id="SVGID_13_" x1="82.318" x2="82.447" y1="63.565" y2="46.378" gradientTransform="matrix(1 0 0 -1 0 112)" gradientUnits="userSpaceOnUse"><stop offset="0" style="stop-color:#ff227d"/><stop offset="1" style="stop-color:#ff967d"/></linearGradient><rect width="7" height="3.1" x="78.9" y="57.8" class="st18"/><g><g><path d="M72,67h-1.2v-2c0-0.3,0.3-0.6,0.6-0.6l0,0c0.3,0,0.6,0.3,0.6,0.6V67z" class="st19"/><path d="M74,67h-1.2v-2c0-0.3,0.3-0.6,0.6-0.6l0,0c0.3,0,0.6,0.3,0.6,0.6V67z" class="st19"/><path d="M75.9,67h-1.2v-2c0-0.3,0.3-0.6,0.6-0.6l0,0c0.3,0,0.6,0.3,0.6,0.6V67z" class="st19"/><path d="M77.8,67h-1.2v-2c0-0.3,0.3-0.6,0.6-0.6l0,0c0.3,0,0.6,0.3,0.6,0.6V67z" class="st19"/></g><g><path d="M72,70.4h-1.2v-2c0-0.3,0.3-0.6,0.6-0.6l0,0c0.3,0,0.6,0.3,0.6,0.6V70.4z" class="st19"/><path d="M74,70.4h-1.2v-2c0-0.3,0.3-0.6,0.6-0.6l0,0c0.3,0,0.6,0.3,0.6,0.6V70.4z" class="st19"/><path d="M75.9,70.4h-1.2v-2c0-0.3,0.3-0.6,0.6-0.6l0,0c0.3,0,0.6,0.3,0.6,0.6V70.4z" class="st19"/><path d="M77.8,70.4h-1.2v-2c0-0.3,0.3-0.6,0.6-0.6l0,0c0.3,0,0.6,0.3,0.6,0.6V70.4z" class="st19"/></g><g><path d="M72,73.7h-1.2v-2c0-0.3,0.3-0.6,0.6-0.6l0,0c0.3,0,0.6,0.3,0.6,0.6V73.7z" class="st19"/><path d="M74,73.7h-1.2v-2c0-0.3,0.3-0.6,0.6-0.6l0,0c0.3,0,0.6,0.3,0.6,0.6V73.7z" class="st19"/><path d="M75.9,73.7h-1.2v-2c0-0.3,0.3-0.6,0.6-0.6l0,0c0.3,0,0.6,0.3,0.6,0.6V73.7z" class="st19"/><path d="M77.8,73.7h-1.2v-2c0-0.3,0.3-0.6,0.6-0.6l0,0c0.3,0,0.6,0.3,0.6,0.6V73.7z" class="st19"/></g><g><path d="M72,77.1h-1.2v-2c0-0.3,0.3-0.6,0.6-0.6l0,0c0.3,0,0.6,0.3,0.6,0.6V77.1z" class="st19"/><path d="M74,77.1h-1.2v-2c0-0.3,0.3-0.6,0.6-0.6l0,0c0.3,0,0.6,0.3,0.6,0.6V77.1z" class="st19"/><path d="M75.9,77.1h-1.2v-2c0-0.3,0.3-0.6,0.6-0.6l0,0c0.3,0,0.6,0.3,0.6,0.6V77.1z" class="st19"/><path d="M77.8,77.1h-1.2v-2c0-0.3,0.3-0.6,0.6-0.6l0,0c0.3,0,0.6,0.3,0.6,0.6V77.1z" class="st19"/></g><g><path d="M72,80.5h-1.2v-2c0-0.3,0.3-0.6,0.6-0.6l0,0c0.3,0,0.6,0.3,0.6,0.6V80.5z" class="st19"/><path d="M74,80.5h-1.2v-2c0-0.3,0.3-0.6,0.6-0.6l0,0c0.3,0,0.6,0.3,0.6,0.6V80.5z" class="st19"/><path d="M75.9,80.5h-1.2v-2c0-0.3,0.3-0.6,0.6-0.6l0,0c0.3,0,0.6,0.3,0.6,0.6V80.5z" class="st19"/><path d="M77.8,80.5h-1.2v-2c0-0.3,0.3-0.6,0.6-0.6l0,0c0.3,0,0.6,0.3,0.6,0.6V80.5z" class="st19"/></g><g><path d="M72,83.8h-1.2v-2c0-0.3,0.3-0.6,0.6-0.6l0,0c0.3,0,0.6,0.3,0.6,0.6V83.8z" class="st19"/><path d="M74,83.8h-1.2v-2c0-0.3,0.3-0.6,0.6-0.6l0,0c0.3,0,0.6,0.3,0.6,0.6V83.8z" class="st19"/><path d="M75.9,81.8v1.8c-0.1,0.1-0.3,0.2-0.4,0.2h-0.8v-2c0-0.3,0.3-0.6,0.6-0.6C75.6,81.2,75.9,81.5,75.9,81.8z" class="st19"/><path d="M77.8,81.8v0.7c-0.4,0.3-0.8,0.5-1.2,0.7v-1.4c0-0.3,0.3-0.6,0.6-0.6S77.8,81.5,77.8,81.8z" class="st19"/></g></g><g><g><path d="M81.2,67H80v-2c0-0.3,0.3-0.6,0.6-0.6l0,0c0.3,0,0.6,0.3,0.6,0.6V67z" class="st19"/><path d="M83.1,67h-1.2v-2c0-0.3,0.3-0.6,0.6-0.6l0,0c0.3,0,0.6,0.3,0.6,0.6V67z" class="st19"/><path d="M85,67h-1.2v-2c0-0.3,0.3-0.6,0.6-0.6l0,0c0.3,0,0.6,0.3,0.6,0.6V67z" class="st19"/><path d="M86.9,67h-1.2v-2.2c0-0.2,0.2-0.4,0.4-0.4h0.3c0.2,0,0.4,0.2,0.4,0.4L86.9,67L86.9,67z" class="st19"/></g><g><path d="M81.2,70.4H80v-2c0-0.3,0.3-0.6,0.6-0.6l0,0c0.3,0,0.6,0.3,0.6,0.6V70.4z" class="st19"/><path d="M83.1,70.4h-1.2v-2c0-0.3,0.3-0.6,0.6-0.6l0,0c0.3,0,0.6,0.3,0.6,0.6V70.4z" class="st19"/><path d="M85,70.4h-1.2v-2c0-0.3,0.3-0.6,0.6-0.6l0,0c0.3,0,0.6,0.3,0.6,0.6V70.4z" class="st19"/><path d="M86.9,70.4h-1.2v-2.2c0-0.2,0.2-0.4,0.4-0.4h0.3c0.2,0,0.4,0.2,0.4,0.4L86.9,70.4L86.9,70.4z" class="st19"/></g><g><path d="M81.2,73.7H80v-2c0-0.3,0.3-0.6,0.6-0.6l0,0c0.3,0,0.6,0.3,0.6,0.6V73.7z" class="st19"/><path d="M83.1,73.7h-1.2v-2c0-0.3,0.3-0.6,0.6-0.6l0,0c0.3,0,0.6,0.3,0.6,0.6V73.7z" class="st19"/><path d="M85,73.7h-1.2v-2c0-0.3,0.3-0.6,0.6-0.6l0,0c0.3,0,0.6,0.3,0.6,0.6V73.7z" class="st19"/><path d="M86.9,73.7h-1.2v-2.2c0-0.2,0.2-0.4,0.4-0.4h0.3c0.2,0,0.4,0.2,0.4,0.4L86.9,73.7L86.9,73.7z" class="st19"/></g><g><path d="M81.2,77.1H80v-2c0-0.3,0.3-0.6,0.6-0.6l0,0c0.3,0,0.6,0.3,0.6,0.6V77.1z" class="st19"/><path d="M83.1,77.1h-1.2v-2c0-0.3,0.3-0.6,0.6-0.6l0,0c0.3,0,0.6,0.3,0.6,0.6V77.1z" class="st19"/><path d="M85,75.1v1.6c-0.1,0.1-0.2,0.2-0.4,0.4l-0.1,0.1h-0.7v-2c0-0.3,0.3-0.6,0.6-0.6 C84.7,74.5,85,74.7,85,75.1z" class="st19"/><path d="M86.7,74.7c-0.3,0.4-0.7,0.8-1.1,1.2v-0.8c0-0.3,0.3-0.6,0.6-0.6C86.5,74.5,86.6,74.6,86.7,74.7z" class="st19"/></g><g><path d="M81.2,78.4V80c-0.2,0.1-0.4,0.3-0.5,0.4H80v-2c0-0.3,0.3-0.6,0.6-0.6C80.9,77.8,81.2,78.1,81.2,78.4z" class="st19"/><path d="M83.1,78.4L83.1,78.4c-0.4,0.4-0.8,0.7-1.2,1.1v-1.1c0-0.3,0.3-0.6,0.6-0.6 C82.8,77.8,83.1,78.1,83.1,78.4z" class="st19"/></g></g></g><g><linearGradient id="SVGID_14_" x1="77.64" x2="76.434" y1="73.789" y2="53.932" gradientTransform="matrix(1 0 0 -1 0 112)" gradientUnits="userSpaceOnUse"><stop offset="0" style="stop-color:#ff696f"/><stop offset="1" style="stop-color:#ffa1c1"/></linearGradient><polygon points="78.9 40.2 78.9 57.8 74 57.8 74.1 57.3 74.7 55.2 75 54.2 75.3 53.2 75.6 52.2 75.8 51.2 76.1 50.1 76.4 49.1 76.7 48.1 77 47.1 77.2 46 77.5 45 78.1 43 78.4 42" class="st20"/><linearGradient id="SVGID_15_" x1="76.211" x2="83.62" y1="73.99" y2="45.26" gradientTransform="matrix(1 0 0 -1 0 112)" gradientUnits="userSpaceOnUse"><stop offset="0" style="stop-color:#ff696f"/><stop offset="1" style="stop-color:#ffa1c1"/></linearGradient><polygon points="83.7 57.8 78.9 57.8 78.9 40.2 79.4 42 79.6 43 80.2 45 80.5 46 80.8 47.1 81.1 48.1 81.3 49.1 81.6 50.1 81.9 51.2 82.2 52.2 82.5 53.2 82.7 54.2 83 55.2 83.3 56.3 83.6 57.3" class="st21"/><linearGradient id="SVGID_16_" x1="78.093" x2="79.638" y1="69.5" y2="69.5" gradientTransform="matrix(1 0 0 -1 0 112)" gradientUnits="userSpaceOnUse"><stop offset="0" style="stop-color:#ff227d"/><stop offset="1" style="stop-color:#ff967d"/></linearGradient><polygon points="79.6 43 78.1 43 78.4 42 79.4 42" class="st22"/><linearGradient id="SVGID_17_" x1="77.527" x2="80.203" y1="67.5" y2="67.5" gradientTransform="matrix(1 0 0 -1 0 112)" gradientUnits="userSpaceOnUse"><stop offset="0" style="stop-color:#ff227d"/><stop offset="1" style="stop-color:#ff967d"/></linearGradient><polygon points="80.2 45 77.5 45 77.8 44 79.9 44" class="st23"/><linearGradient id="SVGID_18_" x1="76.962" x2="80.769" y1="65.45" y2="65.45" gradientTransform="matrix(1 0 0 -1 0 112)" gradientUnits="userSpaceOnUse"><stop offset="0" style="stop-color:#ff227d"/><stop offset="1" style="stop-color:#ff967d"/></linearGradient><polygon points="80.8 47.1 77 47.1 77.2 46 80.5 46" class="st24"/><linearGradient id="SVGID_19_" x1="76.4" x2="81.338" y1="63.4" y2="63.4" gradientTransform="matrix(1 0 0 -1 0 112)" gradientUnits="userSpaceOnUse"><stop offset="0" style="stop-color:#ff227d"/><stop offset="1" style="stop-color:#ff967d"/></linearGradient><polygon points="81.3 49.1 76.4 49.1 76.7 48.1 81.1 48.1" class="st25"/><linearGradient id="SVGID_20_" x1="75.831" x2="81.899" y1="61.35" y2="61.35" gradientTransform="matrix(1 0 0 -1 0 112)" gradientUnits="userSpaceOnUse"><stop offset="0" style="stop-color:#ff227d"/><stop offset="1" style="stop-color:#ff967d"/></linearGradient><polygon points="81.9 51.2 75.8 51.2 76.1 50.1 81.6 50.1" class="st26"/><linearGradient id="SVGID_21_" x1="75.268" x2="82.468" y1="59.3" y2="59.3" gradientTransform="matrix(1 0 0 -1 0 112)" gradientUnits="userSpaceOnUse"><stop offset="0" style="stop-color:#ff227d"/><stop offset="1" style="stop-color:#ff967d"/></linearGradient><polygon points="82.5 53.2 75.3 53.2 75.6 52.2 82.2 52.2" class="st27"/><linearGradient id="SVGID_22_" x1="74.7" x2="83.025" y1="57.3" y2="57.3" gradientTransform="matrix(1 0 0 -1 0 112)" gradientUnits="userSpaceOnUse"><stop offset="0" style="stop-color:#ff227d"/><stop offset="1" style="stop-color:#ff967d"/></linearGradient><polygon points="83 55.2 74.7 55.2 75 54.2 82.7 54.2" class="st28"/><linearGradient id="SVGID_23_" x1="74.137" x2="83.593" y1="55.2" y2="55.2" gradientTransform="matrix(1 0 0 -1 0 112)" gradientUnits="userSpaceOnUse"><stop offset="0" style="stop-color:#ff227d"/><stop offset="1" style="stop-color:#ff967d"/></linearGradient><polygon points="83.6 57.3 74.1 57.3 74.4 56.3 83.3 56.3" class="st29"/></g></g><g><linearGradient id="SVGID_24_" x1="58.162" x2="59.368" y1="83.594" y2="31.389" gradientTransform="matrix(1 0 0 -1 0 112)" gradientUnits="userSpaceOnUse"><stop offset="0" style="stop-color:#c7ffab"/><stop offset="1" style="stop-color:#83cfd3"/></linearGradient><path d="M64.6,87.9v-2.2v-2.5v-2.5v-2.5v-2.5v-2.5v-2.5v-2.5v-2.5v-2.5V61v-2.5V56v-2.5v-4.3l-1.2,4.3L62.7,56 L62,58.5L61.4,61l-0.7,2.5L60,65.9l-0.7,2.5l-0.7,2.5L58,73.3l-0.7,2.5l-0.4,1.6l-0.2,0.9l-0.1,0.2L56,80.7L55.3,83l-0.1,0.2 l-0.7,2.5l-0.7,2.5l-0.2,0.6c0.8,0,1.5,0.1,2.3,0.1c0.3,0,0.5,0,0.8,0c2.2,0,4.5-0.3,6.6-0.7L64.6,87.9z" class="st30"/><linearGradient id="SVGID_25_" x1="70.466" x2="66.771" y1="9.989" y2="67.874" gradientTransform="matrix(1 0 0 -1 0 112)" gradientUnits="userSpaceOnUse"><stop offset="0" style="stop-color:#c7ffab"/><stop offset="1" style="stop-color:#83cfd3"/></linearGradient><path d="M74.3,84.4c-0.9,0.4-1.7,0.8-2.6,1.2c-2.3,1-4.6,1.7-7.1,2.2V49.3l1.2,4.3l0.7,2.5l1.4,4.9l0.7,2.5l0.7,2.5 l0.5,2l0.1,0.5l0.2,0.7l0.5,1.8l0.2,0.8l0.5,1.6l0.3,1l0.4,1.4l0.3,1.2l0.3,1.3l0.4,1.4l0.3,1.1l0.4,1.6l0.2,0.9L74.3,84.4 L74.3,84.4z" class="st31"/><polygon points="66.5 56.1 62.8 56.1 63.4 53.6 65.8 53.6" class="st32"/><polygon points="67.8 61 61.4 61 62.1 58.5 67.2 58.5" class="st32"/><polygon points="69.2 65.9 60 65.9 60.7 63.5 68.5 63.5" class="st32"/><polygon points="70.6 70.9 58.7 70.9 59.4 68.4 69.9 68.4" class="st32"/><polygon points="71.9 75.8 57.3 75.8 58 73.3 71.3 73.3" class="st32"/><polygon points="73.3 80.7 56 80.7 56.6 78.2 72.6 78.2" class="st32"/><path d="M74.3,84.4c-0.9,0.4-1.7,0.8-2.6,1.2H54.6l0.7-2.5H74L74.3,84.4L74.3,84.4z" class="st32"/><path d="M63.5,88.1c-2.1,0.4-4.3,0.6-6.6,0.7c-0.3,0-0.5,0-0.8,0c-0.8,0-1.5,0-2.3-0.1l0.2-0.6H63.5z" class="st33"/></g></g><linearGradient id="SVGID_26_" x1="21.671" x2="22.819" y1="99.239" y2="59.037" gradientTransform="matrix(1 0 0 -1 0 112)" gradientUnits="userSpaceOnUse"><stop offset="0" style="stop-color:#ff227d"/><stop offset="1" style="stop-color:#ff967d"/></linearGradient><path d="M22,16c-5,0-8.8,3.2-8.1,9.8s6.1,8.1,8.1,12c2-3.9,7.4-5.5,8.1-12C30.8,19.2,27,16,22,16z M22,28.1	c-1.5,0-2.7-1.2-2.7-2.7s1.2-2.7,2.7-2.7s2.7,1.2,2.7,2.7C24.7,26.8,23.5,28.1,22,28.1z" class="st34"/></svg>