<svg xmlns="http://www.w3.org/2000/svg" xmlns:xlink="http://www.w3.org/1999/xlink" id="Layer_1" x="0" y="0" version="1.1" viewBox="0 0 110 110" xml:space="preserve" style="enable-background:new 0 0 110 110"><style type="text/css">.st0{fill:#797bf2}.st1,.st2{opacity:.59;fill:#121214;enable-background:new}.st2{fill:#3a3a3f}.st3{fill:url(#SVGID_1_)}.st4{fill:url(#SVGID_2_)}.st5{fill:url(#SVGID_3_)}.st6{opacity:.15;fill:#fff}.st7{fill:url(#SVGID_4_)}.st8{fill:url(#SVGID_5_)}.st9{opacity:.15}.st10{fill:url(#SVGID_6_)}.st11{fill:url(#SVGID_7_)}.st12{fill:url(#SVGID_8_)}.st13{fill:url(#SVGID_9_)}.st14{fill:url(#SVGID_10_)}.st15{fill:url(#SVGID_11_)}.st16{fill:url(#SVGID_12_)}.st17{fill:url(#SVGID_13_)}.st18{fill:url(#SVGID_14_)}.st19{fill:url(#SVGID_15_)}.st20{fill:url(#SVGID_16_)}.st21{fill:url(#SVGID_17_)}.st22{fill:url(#SVGID_18_)}.st23{opacity:.15;fill:none;stroke:#000;stroke-linecap:round;stroke-linejoin:round;stroke-miterlimit:10}.st24{fill:#fefec6}</style><g><path d="M14.8,7.1c-0.3,0-0.6,0.3-0.6,0.6c0,0.3,0.3,0.6,0.6,0.6c0.3,0,0.6-0.3,0.6-0.6C15.4,7.4,15.2,7.1,14.8,7.1z" class="st0"/><circle cx="19.7" cy="7.7" r=".6" class="st0"/><path d="M24.5,7.1c-0.3,0-0.6,0.3-0.6,0.6c0,0.3,0.3,0.6,0.6,0.6c0.3,0,0.6-0.3,0.6-0.6C25.1,7.4,24.8,7.1,24.5,7.1z" class="st0"/><path d="M29.3,7.1c-0.3,0-0.6,0.3-0.6,0.6c0,0.3,0.3,0.6,0.6,0.6c0.3,0,0.6-0.3,0.6-0.6C29.9,7.4,29.7,7.1,29.3,7.1z" class="st0"/><path d="M34.2,7.1c-0.3,0-0.6,0.3-0.6,0.6c0,0.3,0.3,0.6,0.6,0.6c0.3,0,0.6-0.3,0.6-0.6C34.8,7.4,34.5,7.1,34.2,7.1z" class="st0"/><path d="M39,7.1c-0.3,0-0.6,0.3-0.6,0.6c0,0.3,0.3,0.6,0.6,0.6c0.3,0,0.6-0.3,0.6-0.6C39.6,7.4,39.3,7.1,39,7.1z" class="st0"/><path d="M43.8,8.3c0.3,0,0.6-0.3,0.6-0.6c0-0.3-0.3-0.6-0.6-0.6c-0.3,0-0.6,0.3-0.6,0.6C43.3,8,43.5,8.3,43.8,8.3z" class="st0"/><path d="M14.8,11.3c-0.3,0-0.6,0.3-0.6,0.6c0,0.3,0.3,0.6,0.6,0.6c0.3,0,0.6-0.3,0.6-0.6 C15.4,11.6,15.2,11.3,14.8,11.3z" class="st0"/><path d="M19.7,11.3c-0.3,0-0.6,0.3-0.6,0.6c0,0.3,0.3,0.6,0.6,0.6c0.3,0,0.6-0.3,0.6-0.6C20.3,11.6,20,11.3,19.7,11.3z" class="st0"/><path d="M24.5,11.3c-0.3,0-0.6,0.3-0.6,0.6c0,0.3,0.3,0.6,0.6,0.6c0.3,0,0.6-0.3,0.6-0.6 C25.1,11.6,24.8,11.3,24.5,11.3z" class="st0"/><path d="M29.3,11.3c-0.3,0-0.6,0.3-0.6,0.6c0,0.3,0.3,0.6,0.6,0.6c0.3,0,0.6-0.3,0.6-0.6 C29.9,11.6,29.7,11.3,29.3,11.3z" class="st0"/><path d="M34.2,11.3c-0.3,0-0.6,0.3-0.6,0.6c0,0.3,0.3,0.6,0.6,0.6c0.3,0,0.6-0.3,0.6-0.6 C34.8,11.6,34.5,11.3,34.2,11.3z" class="st0"/><path d="M39,11.3c-0.3,0-0.6,0.3-0.6,0.6c0,0.3,0.3,0.6,0.6,0.6c0.3,0,0.6-0.3,0.6-0.6C39.6,11.6,39.3,11.3,39,11.3z" class="st0"/><path d="M43.8,11.3c-0.3,0-0.6,0.3-0.6,0.6c0,0.3,0.3,0.6,0.6,0.6c0.3,0,0.6-0.3,0.6-0.6 C44.4,11.6,44.2,11.3,43.8,11.3z" class="st0"/><path d="M14.8,15.5c-0.3,0-0.6,0.3-0.6,0.6c0,0.3,0.3,0.6,0.6,0.6c0.3,0,0.6-0.3,0.6-0.6 C15.4,15.8,15.2,15.5,14.8,15.5z" class="st0"/><path d="M19.7,15.5c-0.3,0-0.6,0.3-0.6,0.6c0,0.3,0.3,0.6,0.6,0.6c0.3,0,0.6-0.3,0.6-0.6C20.3,15.8,20,15.5,19.7,15.5z" class="st0"/><path d="M24.5,15.5c-0.3,0-0.6,0.3-0.6,0.6c0,0.3,0.3,0.6,0.6,0.6c0.3,0,0.6-0.3,0.6-0.6 C25.1,15.8,24.8,15.5,24.5,15.5z" class="st0"/><path d="M29.3,15.5c-0.3,0-0.6,0.3-0.6,0.6c0,0.3,0.3,0.6,0.6,0.6c0.3,0,0.6-0.3,0.6-0.6 C29.9,15.8,29.7,15.5,29.3,15.5z" class="st0"/><path d="M34.2,15.5c-0.3,0-0.6,0.3-0.6,0.6c0,0.3,0.3,0.6,0.6,0.6c0.3,0,0.6-0.3,0.6-0.6 C34.8,15.8,34.5,15.5,34.2,15.5z" class="st0"/><path d="M39,15.5c-0.3,0-0.6,0.3-0.6,0.6c0,0.3,0.3,0.6,0.6,0.6c0.3,0,0.6-0.3,0.6-0.6C39.6,15.8,39.3,15.5,39,15.5z" class="st0"/><path d="M43.8,15.5c-0.3,0-0.6,0.3-0.6,0.6c0,0.3,0.3,0.6,0.6,0.6c0.3,0,0.6-0.3,0.6-0.6 C44.4,15.8,44.2,15.5,43.8,15.5z" class="st0"/><path d="M14.8,19.7c-0.3,0-0.6,0.3-0.6,0.6c0,0.3,0.3,0.6,0.6,0.6c0.3,0,0.6-0.3,0.6-0.6C15.4,20,15.2,19.7,14.8,19.7z" class="st0"/><path d="M19.7,19.7c-0.3,0-0.6,0.3-0.6,0.6c0,0.3,0.3,0.6,0.6,0.6c0.3,0,0.6-0.3,0.6-0.6C20.3,20,20,19.7,19.7,19.7z" class="st0"/><path d="M24.5,19.7c-0.3,0-0.6,0.3-0.6,0.6c0,0.3,0.3,0.6,0.6,0.6c0.3,0,0.6-0.3,0.6-0.6C25.1,20,24.8,19.7,24.5,19.7z" class="st0"/><path d="M29.3,19.7c-0.3,0-0.6,0.3-0.6,0.6c0,0.3,0.3,0.6,0.6,0.6c0.3,0,0.6-0.3,0.6-0.6C29.9,20,29.7,19.7,29.3,19.7z" class="st0"/><path d="M34.2,19.7c-0.3,0-0.6,0.3-0.6,0.6c0,0.3,0.3,0.6,0.6,0.6c0.3,0,0.6-0.3,0.6-0.6C34.8,20,34.5,19.7,34.2,19.7z" class="st0"/><path d="M39,19.7c-0.3,0-0.6,0.3-0.6,0.6c0,0.3,0.3,0.6,0.6,0.6c0.3,0,0.6-0.3,0.6-0.6C39.6,20,39.3,19.7,39,19.7z" class="st0"/><path d="M43.8,19.7c-0.3,0-0.6,0.3-0.6,0.6c0,0.3,0.3,0.6,0.6,0.6c0.3,0,0.6-0.3,0.6-0.6C44.4,20,44.2,19.7,43.8,19.7z" class="st0"/><path d="M14.8,23.9c-0.3,0-0.6,0.3-0.6,0.6c0,0.3,0.3,0.6,0.6,0.6c0.3,0,0.6-0.3,0.6-0.6 C15.4,24.2,15.2,23.9,14.8,23.9z" class="st0"/><path d="M19.7,23.9c-0.3,0-0.6,0.3-0.6,0.6c0,0.3,0.3,0.6,0.6,0.6c0.3,0,0.6-0.3,0.6-0.6C20.3,24.2,20,23.9,19.7,23.9z" class="st0"/><path d="M24.5,23.9c-0.3,0-0.6,0.3-0.6,0.6c0,0.3,0.3,0.6,0.6,0.6c0.3,0,0.6-0.3,0.6-0.6 C25.1,24.2,24.8,23.9,24.5,23.9z" class="st0"/><path d="M29.3,23.9c-0.3,0-0.6,0.3-0.6,0.6c0,0.3,0.3,0.6,0.6,0.6c0.3,0,0.6-0.3,0.6-0.6 C29.9,24.2,29.7,23.9,29.3,23.9z" class="st0"/><path d="M34.2,23.9c-0.3,0-0.6,0.3-0.6,0.6c0,0.3,0.3,0.6,0.6,0.6c0.3,0,0.6-0.3,0.6-0.6 C34.8,24.2,34.5,23.9,34.2,23.9z" class="st0"/><path d="M39,23.9c-0.3,0-0.6,0.3-0.6,0.6c0,0.3,0.3,0.6,0.6,0.6c0.3,0,0.6-0.3,0.6-0.6C39.6,24.2,39.3,23.9,39,23.9z" class="st0"/><path d="M43.8,23.9c-0.3,0-0.6,0.3-0.6,0.6c0,0.3,0.3,0.6,0.6,0.6c0.3,0,0.6-0.3,0.6-0.6 C44.4,24.2,44.2,23.9,43.8,23.9z" class="st0"/><path d="M14.8,28.2c-0.3,0-0.6,0.3-0.6,0.6c0,0.3,0.3,0.6,0.6,0.6c0.3,0,0.6-0.3,0.6-0.6 C15.4,28.4,15.2,28.2,14.8,28.2z" class="st0"/><circle cx="19.7" cy="28.7" r=".6" class="st0"/><path d="M24.5,28.2c-0.3,0-0.6,0.3-0.6,0.6c0,0.3,0.3,0.6,0.6,0.6c0.3,0,0.6-0.3,0.6-0.6 C25.1,28.4,24.8,28.2,24.5,28.2z" class="st0"/><path d="M29.3,28.2c-0.3,0-0.6,0.3-0.6,0.6c0,0.3,0.3,0.6,0.6,0.6c0.3,0,0.6-0.3,0.6-0.6 C29.9,28.4,29.7,28.2,29.3,28.2z" class="st0"/><path d="M34.2,28.2c-0.3,0-0.6,0.3-0.6,0.6c0,0.3,0.3,0.6,0.6,0.6c0.3,0,0.6-0.3,0.6-0.6 C34.8,28.4,34.5,28.2,34.2,28.2z" class="st0"/><path d="M39,28.2c-0.3,0-0.6,0.3-0.6,0.6c0,0.3,0.3,0.6,0.6,0.6c0.3,0,0.6-0.3,0.6-0.6C39.6,28.4,39.3,28.2,39,28.2z" class="st0"/><path d="M43.8,28.2c-0.3,0-0.6,0.3-0.6,0.6c0,0.3,0.3,0.6,0.6,0.6c0.3,0,0.6-0.3,0.6-0.6 C44.4,28.4,44.2,28.2,43.8,28.2z" class="st0"/><path d="M14.8,32.4c-0.3,0-0.6,0.3-0.6,0.6s0.3,0.6,0.6,0.6c0.3,0,0.6-0.3,0.6-0.6S15.2,32.4,14.8,32.4z" class="st0"/><circle cx="19.7" cy="33" r=".6" class="st0"/><path d="M24.5,32.4c-0.3,0-0.6,0.3-0.6,0.6s0.3,0.6,0.6,0.6c0.3,0,0.6-0.3,0.6-0.6S24.8,32.4,24.5,32.4z" class="st0"/><path d="M29.3,32.4c-0.3,0-0.6,0.3-0.6,0.6s0.3,0.6,0.6,0.6c0.3,0,0.6-0.3,0.6-0.6S29.7,32.4,29.3,32.4z" class="st0"/><path d="M34.2,32.4c-0.3,0-0.6,0.3-0.6,0.6s0.3,0.6,0.6,0.6c0.3,0,0.6-0.3,0.6-0.6S34.5,32.4,34.2,32.4z" class="st0"/><path d="M39,32.4c-0.3,0-0.6,0.3-0.6,0.6s0.3,0.6,0.6,0.6c0.3,0,0.6-0.3,0.6-0.6S39.3,32.4,39,32.4z" class="st0"/><path d="M43.8,32.4c-0.3,0-0.6,0.3-0.6,0.6s0.3,0.6,0.6,0.6c0.3,0,0.6-0.3,0.6-0.6S44.2,32.4,43.8,32.4z" class="st0"/><path d="M14.8,36.6c-0.3,0-0.6,0.3-0.6,0.6s0.3,0.6,0.6,0.6c0.3,0,0.6-0.3,0.6-0.6S15.2,36.6,14.8,36.6z" class="st0"/><circle cx="19.7" cy="37.2" r=".6" class="st0"/><path d="M24.5,36.6c-0.3,0-0.6,0.3-0.6,0.6s0.3,0.6,0.6,0.6c0.3,0,0.6-0.3,0.6-0.6S24.8,36.6,24.5,36.6z" class="st0"/><path d="M29.3,36.6c-0.3,0-0.6,0.3-0.6,0.6s0.3,0.6,0.6,0.6c0.3,0,0.6-0.3,0.6-0.6S29.7,36.6,29.3,36.6z" class="st0"/><path d="M34.2,36.6c-0.3,0-0.6,0.3-0.6,0.6s0.3,0.6,0.6,0.6c0.3,0,0.6-0.3,0.6-0.6S34.5,36.6,34.2,36.6z" class="st0"/><path d="M39,36.6c-0.3,0-0.6,0.3-0.6,0.6s0.3,0.6,0.6,0.6c0.3,0,0.6-0.3,0.6-0.6S39.3,36.6,39,36.6z" class="st0"/><path d="M43.8,36.6c-0.3,0-0.6,0.3-0.6,0.6s0.3,0.6,0.6,0.6c0.3,0,0.6-0.3,0.6-0.6S44.2,36.6,43.8,36.6z" class="st0"/></g><g><path d="M70.5,58.8c-0.3,0-0.6,0.3-0.6,0.6c0,0.3,0.3,0.6,0.6,0.6c0.3,0,0.6-0.3,0.6-0.6C71.1,59,70.8,58.8,70.5,58.8z" class="st0"/><path d="M75.3,58.8c-0.3,0-0.6,0.3-0.6,0.6c0,0.3,0.3,0.6,0.6,0.6c0.3,0,0.6-0.3,0.6-0.6C75.9,59,75.7,58.8,75.3,58.8z" class="st0"/><path d="M80.2,58.8c-0.3,0-0.6,0.3-0.6,0.6c0,0.3,0.3,0.6,0.6,0.6c0.3,0,0.6-0.3,0.6-0.6C80.8,59,80.5,58.8,80.2,58.8z" class="st0"/><path d="M85,58.8c-0.3,0-0.6,0.3-0.6,0.6c0,0.3,0.3,0.6,0.6,0.6c0.3,0,0.6-0.3,0.6-0.6C85.6,59,85.3,58.8,85,58.8z" class="st0"/><path d="M89.8,58.8c-0.3,0-0.6,0.3-0.6,0.6c0,0.3,0.3,0.6,0.6,0.6c0.3,0,0.6-0.3,0.6-0.6C90.4,59,90.2,58.8,89.8,58.8z" class="st0"/><path d="M94.7,58.8c-0.3,0-0.6,0.3-0.6,0.6c0,0.3,0.3,0.6,0.6,0.6c0.3,0,0.6-0.3,0.6-0.6C95.3,59,95,58.8,94.7,58.8z" class="st0"/><path d="M99.5,59.9c0.3,0,0.6-0.3,0.6-0.6c0-0.3-0.3-0.6-0.6-0.6s-0.6,0.3-0.6,0.6C98.9,59.6,99.2,59.9,99.5,59.9z" class="st0"/><path d="M70.5,63c-0.3,0-0.6,0.3-0.6,0.6c0,0.3,0.3,0.6,0.6,0.6c0.3,0,0.6-0.3,0.6-0.6C71.1,63.2,70.8,63,70.5,63z" class="st0"/><path d="M75.3,63c-0.3,0-0.6,0.3-0.6,0.6c0,0.3,0.3,0.6,0.6,0.6c0.3,0,0.6-0.3,0.6-0.6C75.9,63.2,75.7,63,75.3,63z" class="st0"/><path d="M80.2,63c-0.3,0-0.6,0.3-0.6,0.6c0,0.3,0.3,0.6,0.6,0.6c0.3,0,0.6-0.3,0.6-0.6C80.8,63.2,80.5,63,80.2,63z" class="st0"/><path d="M85,63c-0.3,0-0.6,0.3-0.6,0.6c0,0.3,0.3,0.6,0.6,0.6c0.3,0,0.6-0.3,0.6-0.6C85.6,63.2,85.3,63,85,63z" class="st0"/><path d="M89.8,63c-0.3,0-0.6,0.3-0.6,0.6c0,0.3,0.3,0.6,0.6,0.6c0.3,0,0.6-0.3,0.6-0.6C90.4,63.2,90.2,63,89.8,63z" class="st0"/><path d="M94.7,63c-0.3,0-0.6,0.3-0.6,0.6c0,0.3,0.3,0.6,0.6,0.6c0.3,0,0.6-0.3,0.6-0.6C95.3,63.2,95,63,94.7,63z" class="st0"/><path d="M99.5,63c-0.3,0-0.6,0.3-0.6,0.6c0,0.3,0.3,0.6,0.6,0.6s0.6-0.3,0.6-0.6C100.1,63.2,99.8,63,99.5,63z" class="st0"/><path d="M70.5,67.2c-0.3,0-0.6,0.3-0.6,0.6c0,0.3,0.3,0.6,0.6,0.6c0.3,0,0.6-0.3,0.6-0.6 C71.1,67.4,70.8,67.2,70.5,67.2z" class="st0"/><path d="M75.3,67.2c-0.3,0-0.6,0.3-0.6,0.6c0,0.3,0.3,0.6,0.6,0.6c0.3,0,0.6-0.3,0.6-0.6 C75.9,67.4,75.7,67.2,75.3,67.2z" class="st0"/><path d="M80.2,67.2c-0.3,0-0.6,0.3-0.6,0.6c0,0.3,0.3,0.6,0.6,0.6c0.3,0,0.6-0.3,0.6-0.6 C80.8,67.4,80.5,67.2,80.2,67.2z" class="st0"/><path d="M85,67.2c-0.3,0-0.6,0.3-0.6,0.6c0,0.3,0.3,0.6,0.6,0.6c0.3,0,0.6-0.3,0.6-0.6C85.6,67.4,85.3,67.2,85,67.2z" class="st0"/><path d="M89.8,67.2c-0.3,0-0.6,0.3-0.6,0.6c0,0.3,0.3,0.6,0.6,0.6c0.3,0,0.6-0.3,0.6-0.6 C90.4,67.4,90.2,67.2,89.8,67.2z" class="st0"/><path d="M94.7,67.2c-0.3,0-0.6,0.3-0.6,0.6c0,0.3,0.3,0.6,0.6,0.6c0.3,0,0.6-0.3,0.6-0.6C95.3,67.4,95,67.2,94.7,67.2z" class="st0"/><path d="M99.5,67.2c-0.3,0-0.6,0.3-0.6,0.6c0,0.3,0.3,0.6,0.6,0.6s0.6-0.3,0.6-0.6C100.1,67.4,99.8,67.2,99.5,67.2z" class="st0"/><path d="M70.5,71.4c-0.3,0-0.6,0.3-0.6,0.6c0,0.3,0.3,0.6,0.6,0.6c0.3,0,0.6-0.3,0.6-0.6 C71.1,71.6,70.8,71.4,70.5,71.4z" class="st0"/><path d="M75.3,71.4c-0.3,0-0.6,0.3-0.6,0.6c0,0.3,0.3,0.6,0.6,0.6c0.3,0,0.6-0.3,0.6-0.6 C75.9,71.6,75.7,71.4,75.3,71.4z" class="st0"/><path d="M80.2,71.4c-0.3,0-0.6,0.3-0.6,0.6c0,0.3,0.3,0.6,0.6,0.6c0.3,0,0.6-0.3,0.6-0.6 C80.8,71.6,80.5,71.4,80.2,71.4z" class="st0"/><path d="M85,71.4c-0.3,0-0.6,0.3-0.6,0.6c0,0.3,0.3,0.6,0.6,0.6c0.3,0,0.6-0.3,0.6-0.6C85.6,71.6,85.3,71.4,85,71.4z" class="st0"/><path d="M89.8,71.4c-0.3,0-0.6,0.3-0.6,0.6c0,0.3,0.3,0.6,0.6,0.6c0.3,0,0.6-0.3,0.6-0.6 C90.4,71.6,90.2,71.4,89.8,71.4z" class="st0"/><path d="M94.7,71.4c-0.3,0-0.6,0.3-0.6,0.6c0,0.3,0.3,0.6,0.6,0.6c0.3,0,0.6-0.3,0.6-0.6C95.3,71.6,95,71.4,94.7,71.4z" class="st0"/><path d="M99.5,71.4c-0.3,0-0.6,0.3-0.6,0.6c0,0.3,0.3,0.6,0.6,0.6s0.6-0.3,0.6-0.6C100.1,71.6,99.8,71.4,99.5,71.4z" class="st0"/><path d="M70.5,75.6c-0.3,0-0.6,0.3-0.6,0.6c0,0.3,0.3,0.6,0.6,0.6c0.3,0,0.6-0.3,0.6-0.6 C71.1,75.9,70.8,75.6,70.5,75.6z" class="st0"/><path d="M75.3,75.6c-0.3,0-0.6,0.3-0.6,0.6c0,0.3,0.3,0.6,0.6,0.6c0.3,0,0.6-0.3,0.6-0.6 C75.9,75.9,75.7,75.6,75.3,75.6z" class="st0"/><path d="M80.2,75.6c-0.3,0-0.6,0.3-0.6,0.6c0,0.3,0.3,0.6,0.6,0.6c0.3,0,0.6-0.3,0.6-0.6 C80.8,75.9,80.5,75.6,80.2,75.6z" class="st0"/><path d="M85,75.6c-0.3,0-0.6,0.3-0.6,0.6c0,0.3,0.3,0.6,0.6,0.6c0.3,0,0.6-0.3,0.6-0.6C85.6,75.9,85.3,75.6,85,75.6z" class="st0"/><path d="M89.8,75.6c-0.3,0-0.6,0.3-0.6,0.6c0,0.3,0.3,0.6,0.6,0.6c0.3,0,0.6-0.3,0.6-0.6 C90.4,75.9,90.2,75.6,89.8,75.6z" class="st0"/><path d="M94.7,75.6c-0.3,0-0.6,0.3-0.6,0.6c0,0.3,0.3,0.6,0.6,0.6c0.3,0,0.6-0.3,0.6-0.6C95.3,75.9,95,75.6,94.7,75.6z" class="st0"/><path d="M99.5,75.6c-0.3,0-0.6,0.3-0.6,0.6c0,0.3,0.3,0.6,0.6,0.6s0.6-0.3,0.6-0.6C100.1,75.9,99.8,75.6,99.5,75.6z" class="st0"/><path d="M70.5,79.8c-0.3,0-0.6,0.3-0.6,0.6c0,0.3,0.3,0.6,0.6,0.6c0.3,0,0.6-0.3,0.6-0.6 C71.1,80.1,70.8,79.8,70.5,79.8z" class="st0"/><path d="M75.3,79.8c-0.3,0-0.6,0.3-0.6,0.6c0,0.3,0.3,0.6,0.6,0.6c0.3,0,0.6-0.3,0.6-0.6 C75.9,80.1,75.7,79.8,75.3,79.8z" class="st0"/><path d="M80.2,79.8c-0.3,0-0.6,0.3-0.6,0.6c0,0.3,0.3,0.6,0.6,0.6c0.3,0,0.6-0.3,0.6-0.6 C80.8,80.1,80.5,79.8,80.2,79.8z" class="st0"/><path d="M85,79.8c-0.3,0-0.6,0.3-0.6,0.6c0,0.3,0.3,0.6,0.6,0.6c0.3,0,0.6-0.3,0.6-0.6C85.6,80.1,85.3,79.8,85,79.8z" class="st0"/><path d="M89.8,79.8c-0.3,0-0.6,0.3-0.6,0.6c0,0.3,0.3,0.6,0.6,0.6c0.3,0,0.6-0.3,0.6-0.6 C90.4,80.1,90.2,79.8,89.8,79.8z" class="st0"/><path d="M94.7,79.8c-0.3,0-0.6,0.3-0.6,0.6c0,0.3,0.3,0.6,0.6,0.6c0.3,0,0.6-0.3,0.6-0.6C95.3,80.1,95,79.8,94.7,79.8z" class="st0"/><path d="M99.5,79.8c-0.3,0-0.6,0.3-0.6,0.6c0,0.3,0.3,0.6,0.6,0.6s0.6-0.3,0.6-0.6C100.1,80.1,99.8,79.8,99.5,79.8z" class="st0"/><path d="M70.5,84c-0.3,0-0.6,0.3-0.6,0.6c0,0.3,0.3,0.6,0.6,0.6c0.3,0,0.6-0.3,0.6-0.6C71.1,84.3,70.8,84,70.5,84z" class="st0"/><path d="M75.3,84c-0.3,0-0.6,0.3-0.6,0.6c0,0.3,0.3,0.6,0.6,0.6c0.3,0,0.6-0.3,0.6-0.6C75.9,84.3,75.7,84,75.3,84z" class="st0"/><path d="M80.2,84c-0.3,0-0.6,0.3-0.6,0.6c0,0.3,0.3,0.6,0.6,0.6c0.3,0,0.6-0.3,0.6-0.6C80.8,84.3,80.5,84,80.2,84z" class="st0"/><path d="M85,84c-0.3,0-0.6,0.3-0.6,0.6c0,0.3,0.3,0.6,0.6,0.6c0.3,0,0.6-0.3,0.6-0.6C85.6,84.3,85.3,84,85,84z" class="st0"/><path d="M89.8,84c-0.3,0-0.6,0.3-0.6,0.6c0,0.3,0.3,0.6,0.6,0.6c0.3,0,0.6-0.3,0.6-0.6C90.4,84.3,90.2,84,89.8,84z" class="st0"/><path d="M94.7,84c-0.3,0-0.6,0.3-0.6,0.6c0,0.3,0.3,0.6,0.6,0.6c0.3,0,0.6-0.3,0.6-0.6C95.3,84.3,95,84,94.7,84z" class="st0"/><path d="M99.5,84c-0.3,0-0.6,0.3-0.6,0.6c0,0.3,0.3,0.6,0.6,0.6s0.6-0.3,0.6-0.6C100.1,84.3,99.8,84,99.5,84z" class="st0"/><path d="M70.5,88.2c-0.3,0-0.6,0.3-0.6,0.6c0,0.3,0.3,0.6,0.6,0.6c0.3,0,0.6-0.3,0.6-0.6 C71.1,88.5,70.8,88.2,70.5,88.2z" class="st0"/><path d="M75.3,88.2c-0.3,0-0.6,0.3-0.6,0.6c0,0.3,0.3,0.6,0.6,0.6c0.3,0,0.6-0.3,0.6-0.6 C75.9,88.5,75.7,88.2,75.3,88.2z" class="st0"/><path d="M80.2,88.2c-0.3,0-0.6,0.3-0.6,0.6c0,0.3,0.3,0.6,0.6,0.6c0.3,0,0.6-0.3,0.6-0.6 C80.8,88.5,80.5,88.2,80.2,88.2z" class="st0"/><path d="M85,88.2c-0.3,0-0.6,0.3-0.6,0.6c0,0.3,0.3,0.6,0.6,0.6c0.3,0,0.6-0.3,0.6-0.6C85.6,88.5,85.3,88.2,85,88.2z" class="st0"/><path d="M89.8,88.2c-0.3,0-0.6,0.3-0.6,0.6c0,0.3,0.3,0.6,0.6,0.6c0.3,0,0.6-0.3,0.6-0.6 C90.4,88.5,90.2,88.2,89.8,88.2z" class="st0"/><path d="M94.7,88.2c-0.3,0-0.6,0.3-0.6,0.6c0,0.3,0.3,0.6,0.6,0.6c0.3,0,0.6-0.3,0.6-0.6C95.3,88.5,95,88.2,94.7,88.2z" class="st0"/><path d="M99.5,88.2c-0.3,0-0.6,0.3-0.6,0.6c0,0.3,0.3,0.6,0.6,0.6s0.6-0.3,0.6-0.6C100.1,88.5,99.8,88.2,99.5,88.2z" class="st0"/></g><g><path d="M96.9,48.2c0,3-0.3,5.9-1,8.8c-0.1,0.5-0.2,1-0.4,1.5c-0.1,0.4-0.2,0.8-0.3,1.1c-0.1,0.4-0.3,0.9-0.4,1.3 c0,0,0,0.1,0,0.1c-0.1,0.3-0.2,0.7-0.3,1c-0.1,0.2-0.2,0.5-0.3,0.7c-0.1,0.2-0.1,0.3-0.2,0.5c-0.1,0.2-0.2,0.4-0.2,0.6 c-0.1,0.4-0.3,0.7-0.5,1.1c-0.5,1.2-1.1,2.3-1.7,3.4c0,0,0,0,0,0c-0.9,1.6-2,3.2-3.2,4.7c-0.1,0.1-0.2,0.3-0.3,0.4 c-0.2,0.2-0.4,0.5-0.6,0.7c-0.8,0.9-1.6,1.8-2.4,2.6c-0.9,0.9-1.9,1.8-2.9,2.6c-0.8,0.6-1.5,1.2-2.3,1.8c0,0,0,0-0.1,0h0 c-0.1,0.1-0.3,0.2-0.4,0.3c-0.1,0.1-0.3,0.2-0.4,0.3c-0.1,0.1-0.3,0.2-0.4,0.3c-1.1,0.7-2.3,1.4-3.5,2c0,0,0,0,0,0 c-0.1,0-0.1,0.1-0.2,0.1c-0.9,0.4-1.7,0.8-2.6,1.2c-0.9,0.4-1.8,0.7-2.8,1c-1,0.3-2,0.6-3,0.9c-0.4,0.1-0.8,0.2-1.2,0.3l-1.2,0.2 c-0.8,0.2-1.7,0.3-2.5,0.4c-1.3,0.2-2.7,0.2-4,0.3c-0.1,0-0.2,0-0.3,0c-0.2,0-0.3,0-0.5,0c-0.5,0-1,0-1.5,0c-0.3,0-0.6,0-0.8,0 c-0.2,0-0.5,0-0.7-0.1h0c-0.1,0-0.2,0-0.4,0c-0.2,0-0.3,0-0.5,0c-0.1,0-0.3,0-0.4,0c-0.1,0-0.1,0-0.2,0c0,0-0.1,0-0.1,0 c-0.3,0-0.6-0.1-0.9-0.1c-0.3,0-0.6-0.1-0.9-0.1c0,0,0,0,0,0c-0.3,0-0.5-0.1-0.8-0.1c-0.1,0-0.2,0-0.3-0.1 c-0.4-0.1-0.7-0.1-1.1-0.2c-0.1,0-0.1,0-0.2,0c-0.3-0.1-0.5-0.1-0.8-0.2c-0.1,0-0.1,0-0.2,0c-0.2-0.1-0.4-0.1-0.6-0.2 C46.2,87.1,46,87,45.8,87c0,0,0,0-0.1,0c-0.1,0-0.2-0.1-0.3-0.1c-0.2,0-0.3-0.1-0.5-0.1c-0.4-0.1-0.8-0.2-1.2-0.4 c-0.1,0-0.3-0.1-0.4-0.1c-0.2-0.1-0.3-0.1-0.5-0.2c-0.3-0.1-0.6-0.2-0.9-0.3c-0.9-0.4-1.8-0.8-2.7-1.2c-0.5-0.2-0.9-0.4-1.4-0.7 c-0.1-0.1-0.2-0.1-0.3-0.2c-0.1,0-0.1-0.1-0.2-0.1c-0.2-0.1-0.5-0.3-0.7-0.4c-0.2-0.1-0.3-0.2-0.5-0.3c-0.1-0.1-0.2-0.1-0.3-0.2 c-0.7-0.4-1.4-0.8-2-1.3c-0.2-0.1-0.3-0.2-0.5-0.3c-0.6-0.4-1.2-0.9-1.8-1.3c-0.6-0.5-1.2-1-1.8-1.5c-0.2-0.1-0.3-0.3-0.5-0.4 c-0.7-0.6-1.3-1.2-1.9-1.9c-0.3-0.3-0.5-0.5-0.7-0.8c-0.1-0.1-0.2-0.2-0.3-0.3c-0.3-0.4-0.7-0.8-1-1.2v0c-0.5-0.6-1-1.2-1.4-1.9 c-0.2-0.2-0.3-0.5-0.5-0.7c-0.1-0.2-0.2-0.3-0.3-0.5c-0.2-0.2-0.3-0.5-0.5-0.7c-0.1-0.2-0.3-0.4-0.4-0.6c-0.1-0.2-0.3-0.4-0.4-0.7 c-0.2-0.3-0.3-0.5-0.4-0.8c-0.5-0.8-0.9-1.7-1.3-2.6C19,62.6,18,59.8,17.4,57c0-0.2-0.1-0.4-0.1-0.6c-0.1-0.2-0.1-0.5-0.1-0.8 c-0.3-1.4-0.4-2.8-0.6-4.2c0-0.2,0-0.4,0-0.6c-0.1-0.9-0.1-1.8-0.1-2.7c0-3.2,0.4-6.3,1.1-9.2c0.7-3,1.7-5.9,3.1-8.6 c0.7-1.4,1.5-2.8,2.3-4.1C30,15.3,42.5,7.9,56.7,7.9c10.8,0,20.7,4.3,27.9,11.2c3.4,3.3,6.3,7.2,8.4,11.5c0.3,0.6,0.5,1.1,0.8,1.7 C95.8,37.3,96.9,42.6,96.9,48.2z" class="st1"/><path d="M95.3,59.6c-0.1,0.4-0.3,0.9-0.4,1.3c0,0,0,0.1,0,0.1c-0.1,0.3-0.2,0.7-0.3,1c-0.1,0.2-0.2,0.5-0.3,0.7 c-0.1,0.2-0.1,0.3-0.2,0.5c-0.1,0.2-0.2,0.4-0.2,0.6c-0.1,0.4-0.3,0.7-0.5,1.1c-0.5,1.2-1.1,2.3-1.7,3.4c0,0,0,0,0,0 c-0.9,1.6-2,3.2-3.2,4.7c-0.1,0.1-0.2,0.3-0.3,0.4c-0.2,0.2-0.4,0.5-0.6,0.7c-0.8,0.9-1.6,1.8-2.4,2.6c-0.9,0.9-1.9,1.8-2.9,2.6 c-0.8,0.6-1.5,1.2-2.3,1.8c0,0,0,0-0.1,0h0c-0.1,0.1-0.3,0.2-0.4,0.3c-0.1,0.1-0.3,0.2-0.4,0.3c-0.1,0.1-0.3,0.2-0.4,0.3 c-1.1,0.7-2.3,1.4-3.5,2c0,0,0,0,0,0c-0.1,0-0.1,0.1-0.2,0.1c-0.9,0.4-1.7,0.8-2.6,1.2c-0.9,0.4-1.8,0.7-2.8,1c-1,0.3-2,0.6-3,0.9 c-0.4,0.1-0.8,0.2-1.2,0.3l-1.2,0.2c-0.8,0.2-1.7,0.3-2.5,0.4c-1.3,0.2-2.7,0.2-4,0.3c-0.1,0-0.2,0-0.3,0c-0.2,0-0.3,0-0.5,0 c-0.5,0-1,0-1.5,0c-0.3,0-0.6,0-0.8,0c-0.2,0-0.5,0-0.7-0.1h0c-0.1,0-0.2,0-0.4,0c-0.2,0-0.3,0-0.5,0c-0.1,0-0.3,0-0.4,0 c-0.1,0-0.1,0-0.2,0c0,0-0.1,0-0.1,0c-0.3,0-0.6-0.1-0.9-0.1c-0.3,0-0.6-0.1-0.9-0.1c0,0,0,0,0,0c-0.3,0-0.5-0.1-0.8-0.1 c-0.1,0-0.2,0-0.3-0.1c-0.4-0.1-0.7-0.1-1.1-0.2c-0.1,0-0.1,0-0.2,0c-0.3-0.1-0.5-0.1-0.8-0.2c-0.1,0-0.1,0-0.2,0 c-0.2-0.1-0.4-0.1-0.6-0.2C46.2,87.1,46,87,45.8,87l0,0l-5.6-4.8l-0.9-0.8l-1.2-1L37.5,80L34,77h0l-7.2-6.1L24,68.6l-0.1,0 c3-2,5.6-3.9,8-5.5c9.9-6.7,15.7-9.4,23.2-4.1c0.9,0.7,2,1.2,3,1.7c1.2,0.5,2.4,0.9,3.7,1.2c0.8,0.2,1.6,0.3,2.5,0.5h0 c0.4,0.1,0.7,0.1,1.1,0.1c3.3,0.4,6.8,0.3,10.1,0c0.7-0.1,1.4-0.1,2-0.2c1.2-0.2,2.4-0.3,3.6-0.5c3.4-0.6,6.4-1.2,8.6-1.7 c0.9-0.2,1.9-0.3,2.9-0.4C93.6,59.5,94.5,59.5,95.3,59.6z" class="st2"/><linearGradient id="SVGID_1_" x1="58.392" x2="64.732" y1="62.594" y2="93.093" gradientUnits="userSpaceOnUse"><stop offset="0" style="stop-color:#c7ffab"/><stop offset="1" style="stop-color:#83cfd3"/></linearGradient><path d="M96,57c-0.1,0.5-0.2,1-0.4,1.5c-0.1,0.4-0.2,0.8-0.3,1.1c-0.1,0.4-0.3,0.9-0.4,1.3c0,0,0,0.1,0,0.1 c-0.1,0.3-0.2,0.7-0.3,1c-0.1,0.2-0.2,0.5-0.3,0.7c-0.1,0.2-0.1,0.3-0.2,0.5c-0.1,0.2-0.2,0.4-0.2,0.6c-0.1,0.4-0.3,0.7-0.5,1.1 c-0.5,1.2-1.1,2.3-1.7,3.4c0,0,0,0,0,0c-0.9,1.6-2,3.2-3.2,4.7c-0.1,0.1-0.2,0.3-0.3,0.4c-0.2,0.2-0.4,0.5-0.6,0.7 c-0.8,0.9-1.6,1.8-2.4,2.6c-0.9,0.9-1.9,1.8-2.9,2.6c-0.8,0.6-1.5,1.2-2.3,1.8c0,0,0,0-0.1,0h0c-0.1,0.1-0.3,0.2-0.4,0.3 c-0.1,0.1-0.3,0.2-0.4,0.3c-0.1,0.1-0.3,0.2-0.4,0.3c-1.1,0.7-2.3,1.4-3.5,2c0,0,0,0,0,0c-0.1,0-0.1,0.1-0.2,0.1 c-0.9,0.4-1.7,0.8-2.6,1.2c-0.9,0.4-1.8,0.7-2.8,1c-1,0.3-2,0.6-3,0.9c-0.4,0.1-0.8,0.2-1.2,0.3l-1.2,0.2c-0.8,0.2-1.7,0.3-2.5,0.4 c-1.3,0.2-2.7,0.2-4,0.3c-0.1,0-0.2,0-0.3,0c-0.2,0-0.3,0-0.5,0c-0.5,0-1,0-1.5,0c-0.3,0-0.6,0-0.8,0c-0.2,0-0.5,0-0.8,0 c-0.1,0-0.2,0-0.4,0c-0.2,0-0.3,0-0.5,0c-0.1,0-0.3,0-0.4,0c-0.1,0-0.1,0-0.2,0c0,0-0.1,0-0.1,0c-0.3,0-0.6-0.1-0.9-0.1 c-0.3,0-0.6-0.1-0.9-0.1c0,0,0,0,0,0c-0.3,0-0.5-0.1-0.8-0.1c-0.1,0-0.2,0-0.3-0.1c-0.4-0.1-0.7-0.1-1.1-0.2c-0.1,0-0.1,0-0.2,0 c-0.3-0.1-0.5-0.1-0.8-0.2c-0.1,0-0.1,0-0.2,0c-0.2-0.1-0.4-0.1-0.6-0.2C46.2,87.1,46,87,45.8,87l0,0c0,0,0,0-0.1,0 c-0.1,0-0.2-0.1-0.3-0.1c-0.2,0-0.3-0.1-0.5-0.1c-0.4-0.1-0.8-0.2-1.2-0.4c-0.1,0-0.3-0.1-0.4-0.1c-0.2-0.1-0.3-0.1-0.5-0.2 c-0.3-0.1-0.6-0.2-0.9-0.3c-0.9-0.4-1.8-0.8-2.7-1.2c-0.5-0.2-0.9-0.4-1.4-0.7c-0.1-0.1-0.2-0.1-0.3-0.2c-0.1,0-0.1-0.1-0.2-0.1 c-0.2-0.1-0.5-0.3-0.7-0.4c-0.2-0.1-0.3-0.2-0.5-0.3c-0.1-0.1-0.2-0.1-0.3-0.2c-0.7-0.4-1.4-0.8-2-1.3c-0.2-0.1-0.3-0.2-0.5-0.3 c-0.6-0.4-1.2-0.9-1.8-1.3c-0.6-0.5-1.2-1-1.8-1.5c-0.2-0.1-0.3-0.3-0.5-0.4c-0.7-0.6-1.3-1.2-1.9-1.9c-0.3-0.3-0.5-0.5-0.7-0.8 c-0.1-0.1-0.2-0.2-0.3-0.3c-0.3-0.4-0.7-0.8-1-1.2v0c-0.5-0.6-1-1.2-1.4-1.9c-0.2-0.2-0.3-0.5-0.5-0.7c-0.1-0.2-0.2-0.3-0.3-0.5 c-0.2-0.2-0.3-0.5-0.5-0.7c-0.1-0.2-0.3-0.4-0.4-0.6c-0.1-0.2-0.3-0.4-0.4-0.7c-0.2-0.3-0.3-0.5-0.4-0.8c-0.5-0.8-0.9-1.7-1.3-2.6 c4.3-2,8-2.8,11.9-2.2c3.9,0.6,8,2.6,13,6.2c4.4,3.1,8.7,4.8,12.7,5.1h0c1,0.1,1.9,0.1,2.9,0c0,0,0,0,0,0c0.3,0,0.5,0,0.8-0.1 c4.4-0.5,8.3-2.7,11.7-6.1c0.1-0.1,0.3-0.3,0.4-0.4c0.1-0.1,0.2-0.2,0.3-0.3c0.4-0.4,0.8-0.9,1.1-1.3c0.2-0.2,0.4-0.4,0.5-0.7 c0.7-1,1.5-2.1,2.1-3.2c0.2-0.3,0.4-0.7,0.6-1.1C83.7,51.2,89.7,51.5,96,57z" class="st3"/><linearGradient id="SVGID_2_" x1="56.686" x2="63.083" y1="50.798" y2="98.661" gradientUnits="userSpaceOnUse"><stop offset="0" style="stop-color:#c7ffab"/><stop offset="1" style="stop-color:#83cfd3"/></linearGradient><path d="M94.9,61c-0.1,0.3-0.2,0.7-0.3,1c-0.1,0.2-0.2,0.5-0.3,0.7c-0.1,0.2-0.1,0.3-0.2,0.5c-0.1,0.2-0.2,0.4-0.2,0.6 c-0.1,0.4-0.3,0.7-0.5,1.1c-0.5,1.2-1.1,2.3-1.7,3.4c0,0,0,0,0,0c-0.9,1.6-2,3.2-3.2,4.7c-0.1,0.1-0.2,0.3-0.3,0.4 c-0.2,0.2-0.4,0.5-0.6,0.7c-0.8,0.9-1.6,1.8-2.4,2.6c-0.9,0.9-1.9,1.8-2.9,2.6c-0.8,0.6-1.5,1.2-2.3,1.8c0,0,0,0-0.1,0h0 c-0.1,0.1-0.3,0.2-0.4,0.3c-0.1,0.1-0.3,0.2-0.4,0.3c-0.1,0.1-0.3,0.2-0.4,0.3c-1.1,0.7-2.3,1.4-3.5,2c0,0,0,0,0,0 c-0.1,0-0.1,0.1-0.2,0.1c-0.9,0.4-1.7,0.8-2.6,1.2c-0.9,0.4-1.8,0.7-2.8,1c-1,0.3-2,0.6-3,0.9c-0.4,0.1-0.8,0.2-1.2,0.3l-1.2,0.2 c-0.8,0.2-1.7,0.3-2.5,0.4c-1.3,0.2-2.7,0.2-4,0.3c-0.1,0-0.2,0-0.3,0c-0.2,0-0.3,0-0.5,0c-0.5,0-1,0-1.5,0c-0.3,0-0.6,0-0.8,0 c-0.2,0-0.5,0-0.8,0c-0.1,0-0.2,0-0.4,0c-0.2,0-0.3,0-0.5,0c-0.1,0-0.3,0-0.4,0c-0.1,0-0.1,0-0.2,0c0,0-0.1,0-0.1,0 c-0.3,0-0.6-0.1-0.9-0.1c-0.3,0-0.6-0.1-0.9-0.1c0,0,0,0,0,0c-0.3,0-0.5-0.1-0.8-0.1c-0.1,0-0.2,0-0.3-0.1 c-0.4-0.1-0.7-0.1-1.1-0.2c-0.1,0-0.1,0-0.2,0c-0.3-0.1-0.5-0.1-0.8-0.2c-0.1,0-0.1,0-0.2,0c-0.2-0.1-0.4-0.1-0.6-0.2 C46.2,87.1,46,87,45.8,87l0,0c0,0,0,0-0.1,0c-0.1,0-0.2-0.1-0.3-0.1c-0.2,0-0.3-0.1-0.5-0.1c-0.4-0.1-0.8-0.2-1.2-0.4 c-0.1,0-0.3-0.1-0.4-0.1c-0.2-0.1-0.3-0.1-0.5-0.2c-0.3-0.1-0.6-0.2-0.9-0.3c-0.9-0.4-1.8-0.8-2.7-1.2c-0.5-0.2-0.9-0.4-1.4-0.7 c-0.1-0.1-0.2-0.1-0.3-0.2c-0.1,0-0.1-0.1-0.2-0.1c-0.2-0.1-0.5-0.3-0.7-0.4c-0.2-0.1-0.3-0.2-0.5-0.3c-0.1-0.1-0.2-0.1-0.3-0.2 c-0.7-0.4-1.4-0.8-2-1.3c-0.2-0.1-0.3-0.2-0.5-0.3c-0.6-0.4-1.2-0.9-1.8-1.3c-0.6-0.5-1.2-1-1.8-1.5c-0.2-0.1-0.3-0.3-0.5-0.4 c-0.7-0.6-1.3-1.2-1.9-1.9c-0.3-0.3-0.5-0.5-0.7-0.8c-0.1-0.1-0.2-0.2-0.3-0.3c-0.3-0.4-0.7-0.8-1-1.2v0c-0.5-0.6-1-1.2-1.4-1.9 c-0.2-0.2-0.3-0.5-0.5-0.7c-0.1-0.2-0.2-0.3-0.3-0.5c-0.2-0.2-0.3-0.5-0.5-0.7c-0.1-0.2-0.3-0.4-0.4-0.6c0.6-0.2,1.2-0.4,1.7-0.6 c6.7-2.1,12.5-0.5,21,5.5c1.9,1.3,3.8,2.4,5.6,3.2c1,0.4,1.9,0.8,2.9,1.1h0c2.2,0.7,4.3,0.9,6.3,0.9c0.7,0,1.4-0.1,2.1-0.2 c2.2-0.3,4.2-1,6.1-2.1c0,0,0,0,0,0c0.2-0.1,0.5-0.3,0.7-0.4c1.1-0.7,2.2-1.5,3.3-2.5c1-0.9,1.9-1.9,2.8-3c1.1-1.4,2.2-2.9,3.1-4.6 c0.1-0.2,0.2-0.3,0.3-0.5c0.1-0.3,0.3-0.5,0.4-0.8c0.8-1.4,1.7-2.6,2.5-3.6c3.6-4.1,7.5-4.3,11.5-2.1C93.5,59.9,94.2,60.4,94.9,61z" class="st4"/><linearGradient id="SVGID_3_" x1="55.362" x2="58.78" y1="25.649" y2="87.853" gradientUnits="userSpaceOnUse"><stop offset="0" style="stop-color:#c7ffab"/><stop offset="1" style="stop-color:#83cfd3"/></linearGradient><path d="M91.6,68.2C91.6,68.3,91.6,68.3,91.6,68.2c-1,1.7-2,3.2-3.2,4.7c-0.1,0.1-0.2,0.3-0.3,0.4 c-0.2,0.2-0.4,0.5-0.6,0.7c-0.8,0.9-1.6,1.8-2.4,2.6c-0.9,0.9-1.9,1.8-2.9,2.6c-0.8,0.6-1.5,1.2-2.3,1.8c0,0,0,0-0.1,0h0 c-0.1,0.1-0.3,0.2-0.4,0.3c-0.1,0.1-0.3,0.2-0.4,0.3c-0.1,0.1-0.3,0.2-0.4,0.3c-1.1,0.7-2.3,1.4-3.5,2c0,0,0,0,0,0 c-0.1,0-0.1,0.1-0.2,0.1c-0.9,0.4-1.7,0.8-2.6,1.2c-0.9,0.4-1.8,0.7-2.8,1c-1,0.3-2,0.6-3,0.9c-0.4,0.1-0.8,0.2-1.2,0.3l-1.2,0.2 c-0.8,0.2-1.7,0.3-2.5,0.4c-1.3,0.2-2.7,0.2-4,0.3c-0.1,0-0.2,0-0.3,0c-0.2,0-0.3,0-0.5,0c-0.5,0-1,0-1.5,0c-0.3,0-0.6,0-0.8,0 c-0.2,0-0.5,0-0.8,0c-0.1,0-0.2,0-0.4,0c-0.2,0-0.3,0-0.5,0c-0.1,0-0.3,0-0.4,0c-0.1,0-0.2,0-0.3,0c-0.3,0-0.6-0.1-0.9-0.1 c-0.3,0-0.6-0.1-0.9-0.1c0,0,0,0,0,0c-0.4-0.1-0.7-0.1-1.1-0.2c-0.4-0.1-0.7-0.1-1.1-0.2c-0.3-0.1-0.7-0.1-1-0.2 c-0.1,0-0.1,0-0.2,0c-0.2-0.1-0.4-0.1-0.6-0.2C46.2,87.1,46,87,45.8,87l0,0c0,0,0,0-0.1,0c-0.1,0-0.2-0.1-0.3-0.1 c-0.2,0-0.3-0.1-0.5-0.1c-0.4-0.1-0.8-0.2-1.2-0.4c-0.1,0-0.3-0.1-0.4-0.1c-0.2-0.1-0.3-0.1-0.5-0.2c-0.3-0.1-0.6-0.2-0.9-0.3 c-0.9-0.4-1.8-0.8-2.7-1.2c-0.5-0.2-0.9-0.4-1.4-0.7c-0.1-0.1-0.2-0.1-0.3-0.2c-0.1,0-0.1-0.1-0.2-0.1c-0.2-0.1-0.5-0.3-0.7-0.4 c-0.2-0.1-0.3-0.2-0.5-0.3c-0.1-0.1-0.2-0.1-0.3-0.2c-0.7-0.4-1.4-0.8-2-1.3c-0.2-0.1-0.3-0.2-0.5-0.3c-0.6-0.4-1.2-0.9-1.8-1.3 c-0.6-0.5-1.2-1-1.8-1.5c-0.2-0.1-0.3-0.3-0.5-0.4c-0.7-0.6-1.3-1.2-1.9-1.9c-0.3-0.3-0.5-0.5-0.7-0.8c-0.1-0.1-0.2-0.2-0.3-0.3 c-0.3-0.4-0.7-0.8-1-1.2v0c-0.5-0.6-1-1.2-1.4-1.9c1-0.4,1.9-0.7,2.8-0.8c1.8-0.3,3.4-0.2,5.1,0.2c3.5,0.9,7,3.1,11.4,5.7 c0.2,0.1,0.3,0.2,0.5,0.3c0.4,0.2,0.9,0.4,1.4,0.5c0.1,0,0.1,0,0.2,0.1c1.3,0.3,2.6,0.3,4,0c0.1,0,0.3-0.1,0.4-0.1 c0.1,0,0.3-0.1,0.4-0.1c0.1,0,0.3-0.1,0.4-0.1c0.3-0.1,0.6-0.2,0.8-0.2c0.1,0,0.2-0.1,0.3-0.1c0.2-0.1,0.4-0.1,0.6-0.2 c0.3-0.1,0.6-0.2,0.9-0.3c0.3-0.1,0.6-0.2,0.8-0.3c0.1,0,0.1,0,0.2-0.1c0.2-0.1,0.5-0.2,0.7-0.3c0.6-0.3,1.2-0.6,1.9-0.9 c0.3-0.2,0.6-0.3,0.9-0.5h0c0.5-0.3,1-0.6,1.6-0.8c0.3-0.2,0.7-0.3,1-0.5c0.3-0.1,0.5-0.3,0.8-0.4c0.4-0.2,0.8-0.4,1.1-0.6 c0.9-0.5,1.9-1,2.8-1.5c0.2-0.1,0.4-0.2,0.7-0.4c0.1-0.1,0.2-0.1,0.3-0.1c0.2-0.1,0.5-0.2,0.7-0.4c0.7-0.4,1.5-0.7,2.2-1.1 c0.3-0.1,0.5-0.2,0.8-0.3c0.1,0,0.1-0.1,0.2-0.1c0,0,0,0,0,0c0.2-0.1,0.5-0.2,0.7-0.3c0.3-0.1,0.5-0.2,0.8-0.3 c0.1,0,0.2-0.1,0.3-0.1c0.3-0.1,0.6-0.2,0.9-0.3c0.1,0,0.2-0.1,0.2-0.1c0.3-0.1,0.6-0.2,0.9-0.3c0.4-0.1,0.8-0.3,1.2-0.4 c0.2,0,0.4-0.1,0.5-0.1c0.8-0.2,1.6-0.4,2.4-0.5c0.3,0,0.5-0.1,0.8-0.1c0.2,0,0.5-0.1,0.7-0.1c0.2,0,0.5,0,0.7-0.1 c0.2,0,0.5,0,0.7,0c0.2,0,0.4,0,0.7,0c2.3,0,4.5,0.4,6.8,1.4C89.3,66.9,90.5,67.5,91.6,68.2z" class="st5"/><path d="M88.2,66.4c-0.2,0.2-0.7,0.2-1.3,0.1c-4.8-1.2-10.7-0.1-17.9,2.9c-7.2,3.1-12.7,9.3-18.9,9.8 c-6.2,0.5-8.3-1.6-12.8-4.8c-2.4-1.7-4-2.8-5.4-3.3c3.5,0.9,7,3.1,11.4,5.7C53.9,83,71.3,59.2,88.2,66.4z" class="st6"/><linearGradient id="SVGID_4_" x1="67.386" x2="58.019" y1="97.974" y2="73.757" gradientUnits="userSpaceOnUse"><stop offset="0" style="stop-color:#5399a5"/><stop offset="1" style="stop-color:#83cfd3"/></linearGradient><path d="M88.1,73.4c-0.2,0.2-0.4,0.5-0.6,0.7c-0.8,0.9-1.6,1.8-2.4,2.6c-0.9,0.9-1.9,1.8-2.9,2.6 c-0.8,0.6-1.5,1.2-2.3,1.8c0,0,0,0-0.1,0h0c-0.1,0.1-0.3,0.2-0.4,0.3c-0.1,0.1-0.3,0.2-0.4,0.3c-0.1,0.1-0.3,0.2-0.4,0.3 c-1.1,0.7-2.3,1.4-3.5,2c0,0,0,0,0,0c-0.1,0-0.1,0.1-0.2,0.1c-0.9,0.4-1.7,0.8-2.6,1.2c-0.9,0.4-1.8,0.7-2.8,1c-1,0.3-2,0.6-3,0.9 c-0.4,0.1-0.8,0.2-1.2,0.3l-1.2,0.2c-0.8,0.2-1.7,0.3-2.5,0.4c-1.3,0.2-2.7,0.2-4,0.3c-0.1,0-0.2,0-0.3,0c-0.2,0-0.3,0-0.5,0 c-0.5,0-1,0-1.5,0c-0.3,0-0.6,0-0.8,0c-0.2,0-0.5,0-0.8,0c-0.1,0-0.2,0-0.4,0c-0.2,0-0.3,0-0.5,0c-0.1,0-0.3,0-0.4,0 c-0.1,0-0.2,0-0.3,0c-0.3,0-0.6-0.1-0.9-0.1c-0.3,0-0.6-0.1-0.9-0.1c0,0,0,0,0,0c-0.4-0.1-0.7-0.1-1.1-0.2 c-0.4-0.1-0.7-0.1-1.1-0.2c-0.3-0.1-0.7-0.1-1-0.2c-0.1,0-0.1,0-0.2,0c-0.2-0.1-0.4-0.1-0.6-0.2C46.2,87.1,46,87,45.8,87l0,0 c0,0,0,0-0.1,0c-0.1,0-0.2-0.1-0.3-0.1c-0.2,0-0.3-0.1-0.5-0.1c-0.4-0.1-0.8-0.2-1.2-0.4c-0.1,0-0.3-0.1-0.4-0.1 c-0.2-0.1-0.3-0.1-0.5-0.2c-0.3-0.1-0.6-0.2-0.9-0.3c-0.9-0.4-1.8-0.8-2.7-1.2c-0.5-0.2-0.9-0.4-1.4-0.7c-0.1-0.1-0.2-0.1-0.3-0.2 c-0.1,0-0.1-0.1-0.2-0.1c-0.2-0.1-0.5-0.3-0.7-0.4c-0.2-0.1-0.3-0.2-0.5-0.3c-0.1-0.1-0.2-0.1-0.3-0.2c-0.7-0.4-1.4-0.8-2-1.3 c-0.2-0.1-0.3-0.2-0.5-0.3c-0.6-0.4-1.2-0.9-1.8-1.3c-0.6-0.5-1.2-1-1.8-1.5c-0.2-0.1-0.3-0.3-0.5-0.4c1.9,0.1,3.7,0.6,5.5,1.4 c0.9,0.4,1.8,0.8,2.7,1.4c0.1,0.1,0.3,0.2,0.4,0.2c0.4,0.2,0.8,0.5,1.2,0.7c0.3,0.2,0.6,0.4,1,0.6c1,0.6,2,1.2,3,1.8 c2.1,1.2,4.4,1.3,6.9,0.7c0.9-0.2,1.7-0.5,2.6-0.8c0.4-0.2,0.9-0.4,1.4-0.6c1.3-0.6,2.6-1.2,4-1.9c0.5-0.2,0.9-0.5,1.4-0.8 c0.8-0.4,1.6-0.9,2.5-1.4c3.2-1.8,6.6-3.7,10.1-5c0.9-0.4,1.9-0.7,2.8-1c2.6-0.7,5.2-1.1,7.8-1c0.5,0,1.1,0.1,1.6,0.2h0 c0.3,0,0.6,0.1,0.9,0.2C86.2,72.7,87.1,73,88.1,73.4z" class="st7"/><g><linearGradient id="SVGID_5_" x1="66.088" x2="66.249" y1="93.67" y2="64.908" gradientUnits="userSpaceOnUse"><stop offset="0" style="stop-color:#8b69c5"/><stop offset="1" style="stop-color:#47457d"/></linearGradient><path d="M75.1,84C75.1,84,75,84,75.1,84c-0.1,0.1-0.2,0.1-0.2,0.1c-0.9,0.4-1.7,0.8-2.6,1.2c-0.1,0-0.2,0.1-0.2,0.1 c-0.8,0.3-1.7,0.7-2.5,0.9c-0.2-2.5-0.6-6.7-0.7-9.9c0-0.2,0-0.5,0-0.7c-0.1,0.2-0.4,0.6-0.7,1.1c0,0,0,0,0,0 c-1.5,2.5-4.9,8.3-6.6,11.2c-1.3,0.2-2.7,0.2-4,0.3c-0.1,0-0.2,0-0.3,0c0.3-0.9,1.2-4.3,2.3-8.1c0.1-0.4,0.2-0.8,0.3-1.2 c0.5-1.7,1.1-3.4,1.6-5c0.1-0.2,0.1-0.4,0.2-0.6v0c0.2-0.6,0.4-1.2,0.6-1.8c0.4-1,0.7-1.8,1-2.5c0.2-0.4,0.3-0.7,0.5-0.9 c0,0,0,0,0-0.1c0.1-0.1,0.1-0.2,0.2-0.3l6.7-0.5l3.2-0.2l0.8-0.1c0,0,0,0,0,0c0,0.2,0.1,0.5,0.1,1c0,0.5,0.1,1.2,0.1,2 c0,0.2,0,0.5,0,0.8c0,0.6,0,1.3,0,2C75,76.6,75.1,81,75.1,84z" class="st8"/><path d="M74.9,70.3c-2.8-1.9-7.4-1.1-11.6-1c0.2-0.4,0.3-0.7,0.5-0.9c0,0,0,0,0-0.1c0.1-0.1,0.1-0.2,0.2-0.3l6.7-0.5 l3.2-0.2l0.8-0.1c0,0,0,0,0,0c0,0.2,0.1,0.5,0.1,1C74.8,68.9,74.8,69.5,74.9,70.3z" class="st9"/><path d="M72,85.4c-0.8,0.3-1.7,0.7-2.5,0.9c-0.2-2.5-0.6-6.7-0.7-9.9c0-0.2,0-0.5,0-0.7c2-3.8,3-4.4,3.1-2.3 C72,75.3,71.4,81.4,72,85.4z" class="st9"/><g><linearGradient id="SVGID_6_" x1="71.328" x2="69.615" y1="27.866" y2="38.061" gradientUnits="userSpaceOnUse"><stop offset="0" style="stop-color:#8b69c5"/><stop offset="1" style="stop-color:#47457d"/></linearGradient><path d="M74.4,40.1c-0.2,1.6-1.1,3.4-2.6,3.3c-2.6-0.2-3.4-1.9-3.4-1.9L66.7,39c-0.6-0.1-1-0.4-1.3-0.7 c-0.9-1-0.8-2.6,0-3.8c0.2,0.4,0.9,0.7,1,0.8c-0.1,0-0.4-0.3-0.2-1.1c0.8,1,7.8-0.2,7.4,3.7C74.3,37.8,74.5,38.9,74.4,40.1z" class="st10"/><path d="M74.4,40.1c-0.2,1.6-1.1,3.4-2.6,3.3c-2.6-0.2-3.4-1.9-3.4-1.9L66.7,39c-0.6-0.1-1-0.4-1.3-0.7 c1.7,0.8,4.4,0.1,5.5,1C72.1,40.1,72.8,41.5,74.4,40.1z" class="st9"/><linearGradient id="SVGID_7_" x1="67.275" x2="74.017" y1="43.936" y2="39.132" gradientUnits="userSpaceOnUse"><stop offset=".004" style="stop-color:#ffc7d7"/><stop offset="1" style="stop-color:#ff97ab"/></linearGradient><path d="M72.3,45.7c-0.8-0.2-2.7,0.1-2.7,0.1l-0.2-1.8c0,0-1.7,0.7-2.3,0.2c-0.5-0.6-0.9-3.2-0.3-5.3 c0.9,0.8,2.1,0.2,2.3,0.3c0.1,0.1,0.2,1.1,0.5,1c0.3-0.1,0.2-0.7,0.5-0.8c0.3,0,0.9,0.4,0.8,0.9c0,0.5-0.4,1.1-0.7,0.9 c-0.3-0.2-0.5-0.3-0.5,0c0.3,1.2,1.4,1.8,1.9,1.9c0.2,0.1,0.3,0.1,0.3,0.1S72,44.1,72.3,45.7z" class="st11"/><linearGradient id="SVGID_8_" x1="71.053" x2="70.497" y1="48.151" y2="41.789" gradientUnits="userSpaceOnUse"><stop offset=".004" style="stop-color:#ffc7d7"/><stop offset="1" style="stop-color:#ff97ab"/></linearGradient><path d="M72.3,45.7c-0.8-0.2-2.7,0.1-2.7,0.1l-0.2-1.8c0.9-0.2,1.6-0.8,2.3-0.8c0.2,0.1,0.3,0.1,0.3,0.1 S72,44.1,72.3,45.7z" class="st12"/></g><linearGradient id="SVGID_9_" x1="70.307" x2="71.592" y1="41.787" y2="49.441" gradientUnits="userSpaceOnUse"><stop offset="0" style="stop-color:#8b69c5"/><stop offset="1" style="stop-color:#cbb3ff"/></linearGradient><path d="M69,46.1c0.2-0.5,0.1-0.9,0.8-1.1c0.7-0.2,2.2-0.3,2.6,0.1c0.5,0.4,0.8,1.6,0.8,1.6L69,46.1z" class="st13"/><linearGradient id="SVGID_10_" x1="73.601" x2="67.26" y1="88.564" y2="42.122" gradientUnits="userSpaceOnUse"><stop offset="0" style="stop-color:#797bf2"/><stop offset="1" style="stop-color:#7961f2"/></linearGradient><path d="M75.9,57.5c0,0.6-0.1,1.2-0.1,1.8c0,0.3,0,0.6,0,0.9c0,0.6-0.1,1.2-0.1,1.8c0,0.4,0,0.8-0.1,1.1 c0,0.7-0.1,1.3-0.1,1.8c0,0.6,0,1.1,0,1.4c0.1,2,0.1,2.4-2.5,1.7c-2.6-0.7-7.6,0.7-8.9,0.5c-0.1,0-0.2,0-0.3-0.1h0 c-1-0.4-1.3-1.5-0.4-3.3c0-0.1,0.1-0.2,0.1-0.2c0.2-0.3,0.4-0.9,0.6-1.5c0.1-0.4,0.2-0.8,0.4-1.2c0.2-0.6,0.3-1.1,0.5-1.8 c0.1-0.3,0.2-0.6,0.2-1c0.1-0.6,0.3-1.2,0.4-1.8c0.4-1.8,0.8-3.4,0.9-4l-0.1-1.9l-0.3-4c0.9-1.1,3.1-2.7,6-2.3 c2.8,0.4,3.8,1.4,4,4.5C76.2,51.4,76.1,54.4,75.9,57.5z" class="st14"/><path d="M75.6,63.1c0,0.7-0.1,1.3-0.1,1.8c-4.3-0.8-8.7,0-12.2,0.2c0-0.1,0.1-0.2,0.1-0.2c0.2-0.3,0.4-0.9,0.6-1.5 C68.7,62.5,73.4,62.8,75.6,63.1z" class="st6"/><path d="M75.8,60.2c0,0.6-0.1,1.2-0.1,1.8c-4-0.7-7.9-0.1-11.2,0.2c0.2-0.6,0.3-1.1,0.5-1.8 C69.3,59.6,73.6,59.9,75.8,60.2z" class="st6"/><path d="M75.9,57.5c0,0.6-0.1,1.2-0.1,1.8c-3.7-0.7-7.5-0.2-10.6,0.2c0.1-0.6,0.3-1.2,0.4-1.8 C69.8,57,73.8,57.3,75.9,57.5z" class="st6"/><path d="M65.2,62.9c-1.7,2.4-1.8,4.3-1.3,5.5c-1.1-0.4-1.3-1.6-0.3-3.5c1.1-2,2.6-9.7,3-11.2l-0.1-1.9l2.4-1.4 C69.1,55.8,67.2,60.1,65.2,62.9z" class="st9"/><linearGradient id="SVGID_11_" x1="49.985" x2="63.866" y1="67.978" y2="59.362" gradientUnits="userSpaceOnUse"><stop offset=".004" style="stop-color:#ffc7d7"/><stop offset="1" style="stop-color:#ff97ab"/></linearGradient><path d="M55.3,63.7c-0.9-0.2-1.9,0.1-2.1,0.4s0.5,0.2,0.7,0.5c0.3,0.3-0.7,1.3-1.6,1.3s-0.8,0.2-0.3,0.5 c0.5,0.2,1.2,0,1.2,0s-0.5,0.2-1,0.3c-0.5,0,0.4,0.6,1.5,0.6c1.2,0,1.6-1.1,2.3-2L55.3,63.7z" class="st15"/><linearGradient id="SVGID_12_" x1="66.476" x2="60.136" y1="89.532" y2="43.098" gradientUnits="userSpaceOnUse"><stop offset="0" style="stop-color:#797bf2"/><stop offset="1" style="stop-color:#7961f2"/></linearGradient><path d="M66.7,47.5c1.7-0.2,2.2,0.9,2,3.4c-0.3,2.5-2.9,7.7-4,8.8c-1.1,1.1-7.8,5.8-8.7,5.9 c-0.9,0.1-0.9-1.6-0.6-2.3s6.4-5.7,6.4-5.7S65.1,47.6,66.7,47.5z" class="st16"/></g><linearGradient id="SVGID_13_" x1="79.737" x2="91.346" y1="69.533" y2="80.971" gradientUnits="userSpaceOnUse"><stop offset="0" style="stop-color:#c7ffab"/><stop offset="1" style="stop-color:#83cfd3"/></linearGradient><path d="M91.6,68.3c-0.9,1.6-2,3.2-3.2,4.7c-0.3,0.4-0.6,0.8-0.9,1.1c-0.8,0.9-1.6,1.8-2.4,2.6 c-0.9,0.9-1.9,1.8-2.9,2.6c-0.8,0.6-1.5,1.2-2.3,1.8c0,0,0,0-0.1,0h0c-0.1,0.1-0.3,0.2-0.4,0.3c-0.1,0.1-0.3,0.2-0.4,0.3 c-0.2-3.9,2-3.6,2-3.6s-2.1-3,0.2-5.1c2.2-2,4-0.1,4.2,0.1c-0.1-0.2-0.7-1.7,0.4-2.5c1.2-0.8,2.3,0.3,2.3,0.3S89.4,68.7,91.6,68.3z" class="st17"/><g><linearGradient id="SVGID_14_" x1="34.851" x2="37.079" y1="74.755" y2="84.094" gradientUnits="userSpaceOnUse"><stop offset="0" style="stop-color:#c7ffab"/><stop offset="1" style="stop-color:#83cfd3"/></linearGradient><path d="M37.8,83.8c-0.1-0.1-0.2-0.1-0.3-0.2c-0.4-0.2-0.9-0.5-1.3-0.8c-0.8-3.3-3.3-6.8-2.3-8.1 c1.1-1.5,2.9,0.9,3.6,5.2c0.1,0.9,0.2,1.6,0.3,2.2c0,0,0,0,0,0C37.8,82.9,37.8,83.4,37.8,83.8z" class="st18"/><linearGradient id="SVGID_15_" x1="35.068" x2="46.257" y1="76.528" y2="87.553" gradientUnits="userSpaceOnUse"><stop offset="0" style="stop-color:#c7ffab"/><stop offset="1" style="stop-color:#83cfd3"/></linearGradient><path d="M39.7,83.3c-0.2,0.4-0.3,0.8-0.5,1.2c-0.5-0.2-0.9-0.4-1.4-0.7c-0.1-0.1-0.2-0.1-0.3-0.2 c0.1-0.4,0.2-0.9,0.2-1.4c0,0,0,0,0,0c0.4-2.5,0.5-4.9,1.6-5.3C41.1,76.3,41.4,79.3,39.7,83.3z" class="st19"/></g><g><linearGradient id="SVGID_16_" x1="51.954" x2="59.986" y1="81.312" y2="89.225" gradientUnits="userSpaceOnUse"><stop offset="0" style="stop-color:#c7ffab"/><stop offset="1" style="stop-color:#83cfd3"/></linearGradient><path d="M53.6,88.4c-0.4,0-0.8-0.1-1.3-0.1c-0.1,0-0.2,0-0.3,0c0.1-0.4,0.2-0.8,0.4-1.2c0.2-0.6,0.5-1.3,0.8-2.1 c1.7-4,4-5.9,4.7-4.2C58.7,82.2,55,85.2,53.6,88.4z" class="st20"/><linearGradient id="SVGID_17_" x1="51.936" x2="50.994" y1="81.221" y2="87.903" gradientUnits="userSpaceOnUse"><stop offset="0" style="stop-color:#c7ffab"/><stop offset="1" style="stop-color:#83cfd3"/></linearGradient><path d="M52.4,87c0,0.4-0.1,0.8-0.1,1.3c-0.1,0-0.2,0-0.3,0c-0.6-0.1-1.1-0.1-1.7-0.2c0-0.2,0-0.3-0.1-0.5 c-0.6-4.3,0.4-7.1,1.9-6.1C53.1,82.1,52.7,84.5,52.4,87z" class="st21"/></g><linearGradient id="SVGID_18_" x1="68.816" x2="68.816" y1="75.797" y2="75.797" gradientUnits="userSpaceOnUse"><stop offset="0" style="stop-color:#c7ffab"/><stop offset="1" style="stop-color:#83cfd3"/></linearGradient><path d="M68.8,75.8" class="st22"/><path d="M43.6,50.8c-4.4,0.1-16.7,0.1-27.1,0c-0.1-0.9-0.1-1.8-0.1-2.7c0-3.2,0.4-6.3,1.1-9.2c0.7-3,1.7-5.9,3.1-8.6 c2.7,0.1,5.4,2.1,5.4,4.8c2.4-2.3,8.2-5.1,11.7-0.8c3.6,4.4,0.6,8.8,0.6,8.8s3.5-2.9,5.4-1.2c1.9,1.7,0.9,4,0.9,4.1 c0.2-0.2,4.1-4,7-0.3C54.6,49.8,51.8,50.7,43.6,50.8z" class="st2"/><path d="M93.7,32.4c-6.4,0-12.9,0-15.6,0c-5.9-0.1-7.9-0.7-5.8-3.4c2.1-2.7,4.9,0,5,0.2c0-0.1-0.7-1.8,0.6-3 c1.4-1.3,3.9,0.8,3.9,0.8s-2.1-3.2,0.5-6.3c0.7-0.8,1.4-1.3,2.2-1.5c3.4,3.3,6.3,7.2,8.4,11.5C93.2,31.3,93.5,31.8,93.7,32.4z" class="st2"/><path d="M31,29.7c0.1-2.2,2.3-0.2,2.3-0.2s-0.6-2.6,2.1-1.8" class="st23"/><path d="M44.7,35.4c1.7-1.5,1.8,1.5,1.8,1.5s1.4-2.3,2.7,0.2" class="st23"/><path d="M28.5,39.7c0.6-2.1,2.3,0.3,2.3,0.3s0-2.6,2.4-1.3" class="st23"/><circle cx="60" cy="22.7" r="5.1" class="st24"/></g></svg>