<svg xmlns="http://www.w3.org/2000/svg" xmlns:xlink="http://www.w3.org/1999/xlink" style="enable-background:new 0 0 110 110" id="Layer_1" x="0" y="0" version="1.1" viewBox="0 0 110 110" xml:space="preserve"><style type="text/css">.st0{fill:#797bf2}.st1,.st2{opacity:.59;fill:#121214;enable-background:new}.st2{fill:#3a3a3f}.st3{fill:url(#SVGID_1_)}.st4{fill:url(#SVGID_2_)}.st5,.st6{opacity:.15;enable-background:new}.st6{opacity:.48}.st7{fill:url(#SVGID_3_)}.st8{fill:url(#SVGID_4_)}.st9{fill:url(#SVGID_5_)}.st10{fill:url(#SVGID_6_)}.st11{fill:url(#SVGID_7_)}.st11,.st12,.st13,.st14,.st15{opacity:.25;enable-background:new}.st12{fill:url(#SVGID_8_)}.st13{fill:url(#SVGID_9_)}.st14{fill:url(#SVGID_10_)}.st15{fill:url(#SVGID_11_)}.st16{fill:url(#SVGID_12_)}.st17,.st18{opacity:.25;fill:url(#SVGID_13_);enable-background:new}.st18{fill:url(#SVGID_14_)}.st19{fill:none;stroke:#fff;stroke-miterlimit:10}.st20{opacity:.45;enable-background:new}.st21{fill:url(#SVGID_15_)}.st22{fill:url(#SVGID_16_)}.st23{fill:url(#SVGID_17_)}.st24{fill:url(#SVGID_18_)}.st25{opacity:.15;fill:none;stroke:#000;stroke-miterlimit:10;enable-background:new}.st26{fill:url(#SVGID_19_)}.st27{opacity:.25;fill:#fff;enable-background:new}</style><g><path d="M74.7,15.5c-0.3,0-0.6,0.3-0.6,0.6c0,0.3,0.3,0.6,0.6,0.6c0.3,0,0.6-0.3,0.6-0.6C75.3,15.8,75,15.5,74.7,15.5z" class="st0"/><path d="M79.5,15.5c-0.3,0-0.6,0.3-0.6,0.6c0,0.3,0.3,0.6,0.6,0.6c0.3,0,0.6-0.3,0.6-0.6 C80.1,15.8,79.8,15.5,79.5,15.5z" class="st0"/><path d="M84.4,15.5c-0.3,0-0.6,0.3-0.6,0.6c0,0.3,0.3,0.6,0.6,0.6c0.3,0,0.6-0.3,0.6-0.6 C84.9,15.8,84.7,15.5,84.4,15.5z" class="st0"/><path d="M89.2,15.5c-0.3,0-0.6,0.3-0.6,0.6c0,0.3,0.3,0.6,0.6,0.6c0.3,0,0.6-0.3,0.6-0.6 C89.8,15.8,89.5,15.5,89.2,15.5z" class="st0"/><path d="M94.1,15.5c-0.3,0-0.6,0.3-0.6,0.6c0,0.3,0.3,0.6,0.6,0.6c0.3,0,0.6-0.3,0.6-0.6 C94.6,15.8,94.4,15.5,94.1,15.5z" class="st0"/><path d="M98.9,15.5c-0.3,0-0.6,0.3-0.6,0.6c0,0.3,0.3,0.6,0.6,0.6c0.3,0,0.6-0.3,0.6-0.6 C99.5,15.8,99.2,15.5,98.9,15.5z" class="st0"/><path d="M103.7,16.7c0.3,0,0.6-0.3,0.6-0.6c0-0.3-0.3-0.6-0.6-0.6c-0.3,0-0.6,0.3-0.6,0.6 C103.2,16.4,103.4,16.7,103.7,16.7z" class="st0"/><path d="M74.7,19.8c-0.3,0-0.6,0.3-0.6,0.6s0.3,0.6,0.6,0.6c0.3,0,0.6-0.3,0.6-0.6S75,19.8,74.7,19.8z" class="st0"/><path d="M79.5,19.8c-0.3,0-0.6,0.3-0.6,0.6s0.3,0.6,0.6,0.6c0.3,0,0.6-0.3,0.6-0.6S79.8,19.8,79.5,19.8z" class="st0"/><circle cx="84.4" cy="20.3" r=".6" class="st0"/><circle cx="89.2" cy="20.3" r=".6" class="st0"/><path d="M94.1,19.8c-0.3,0-0.6,0.3-0.6,0.6s0.3,0.6,0.6,0.6c0.3,0,0.6-0.3,0.6-0.6S94.4,19.8,94.1,19.8z" class="st0"/><path d="M98.9,19.8c-0.3,0-0.6,0.3-0.6,0.6s0.3,0.6,0.6,0.6c0.3,0,0.6-0.3,0.6-0.6S99.2,19.8,98.9,19.8z" class="st0"/><path d="M103.7,19.8c-0.3,0-0.6,0.3-0.6,0.6s0.3,0.6,0.6,0.6c0.3,0,0.6-0.3,0.6-0.6S104.1,19.8,103.7,19.8z" class="st0"/><path d="M74.7,24c-0.3,0-0.6,0.3-0.6,0.6c0,0.3,0.3,0.6,0.6,0.6c0.3,0,0.6-0.3,0.6-0.6C75.3,24.2,75,24,74.7,24z" class="st0"/><path d="M79.5,24c-0.3,0-0.6,0.3-0.6,0.6c0,0.3,0.3,0.6,0.6,0.6c0.3,0,0.6-0.3,0.6-0.6C80.1,24.2,79.8,24,79.5,24z" class="st0"/><path d="M84.4,24c-0.3,0-0.6,0.3-0.6,0.6c0,0.3,0.3,0.6,0.6,0.6c0.3,0,0.6-0.3,0.6-0.6C84.9,24.2,84.7,24,84.4,24z" class="st0"/><path d="M89.2,24c-0.3,0-0.6,0.3-0.6,0.6c0,0.3,0.3,0.6,0.6,0.6c0.3,0,0.6-0.3,0.6-0.6C89.8,24.2,89.5,24,89.2,24z" class="st0"/><path d="M94.1,24c-0.3,0-0.6,0.3-0.6,0.6c0,0.3,0.3,0.6,0.6,0.6c0.3,0,0.6-0.3,0.6-0.6C94.6,24.2,94.4,24,94.1,24z" class="st0"/><path d="M98.9,24c-0.3,0-0.6,0.3-0.6,0.6c0,0.3,0.3,0.6,0.6,0.6c0.3,0,0.6-0.3,0.6-0.6C99.5,24.2,99.2,24,98.9,24z" class="st0"/><path d="M103.7,24c-0.3,0-0.6,0.3-0.6,0.6c0,0.3,0.3,0.6,0.6,0.6c0.3,0,0.6-0.3,0.6-0.6C104.3,24.2,104.1,24,103.7,24z" class="st0"/><path d="M74.7,28.2c-0.3,0-0.6,0.3-0.6,0.6c0,0.3,0.3,0.6,0.6,0.6c0.3,0,0.6-0.3,0.6-0.6C75.3,28.5,75,28.2,74.7,28.2z" class="st0"/><path d="M79.5,28.2c-0.3,0-0.6,0.3-0.6,0.6c0,0.3,0.3,0.6,0.6,0.6c0.3,0,0.6-0.3,0.6-0.6S79.8,28.2,79.5,28.2z" class="st0"/><path d="M84.4,28.2c-0.3,0-0.6,0.3-0.6,0.6c0,0.3,0.3,0.6,0.6,0.6c0.3,0,0.6-0.3,0.6-0.6 C84.9,28.5,84.7,28.2,84.4,28.2z" class="st0"/><path d="M89.2,28.2c-0.3,0-0.6,0.3-0.6,0.6c0,0.3,0.3,0.6,0.6,0.6c0.3,0,0.6-0.3,0.6-0.6 C89.8,28.5,89.5,28.2,89.2,28.2z" class="st0"/><path d="M94.1,28.2c-0.3,0-0.6,0.3-0.6,0.6c0,0.3,0.3,0.6,0.6,0.6c0.3,0,0.6-0.3,0.6-0.6 C94.6,28.5,94.4,28.2,94.1,28.2z" class="st0"/><path d="M98.9,28.2c-0.3,0-0.6,0.3-0.6,0.6c0,0.3,0.3,0.6,0.6,0.6c0.3,0,0.6-0.3,0.6-0.6S99.2,28.2,98.9,28.2z" class="st0"/><path d="M103.7,28.2c-0.3,0-0.6,0.3-0.6,0.6c0,0.3,0.3,0.6,0.6,0.6c0.3,0,0.6-0.3,0.6-0.6 C104.3,28.5,104.1,28.2,103.7,28.2z" class="st0"/><path d="M74.7,32.4c-0.3,0-0.6,0.3-0.6,0.6s0.3,0.6,0.6,0.6c0.3,0,0.6-0.3,0.6-0.6C75.3,32.7,75,32.4,74.7,32.4z" class="st0"/><path d="M79.5,32.4c-0.3,0-0.6,0.3-0.6,0.6s0.3,0.6,0.6,0.6c0.3,0,0.6-0.3,0.6-0.6S79.8,32.4,79.5,32.4z" class="st0"/><path d="M84.4,32.4c-0.3,0-0.6,0.3-0.6,0.6s0.3,0.6,0.6,0.6c0.3,0,0.6-0.3,0.6-0.6C84.9,32.7,84.7,32.4,84.4,32.4z" class="st0"/><path d="M89.2,32.4c-0.3,0-0.6,0.3-0.6,0.6s0.3,0.6,0.6,0.6c0.3,0,0.6-0.3,0.6-0.6C89.8,32.7,89.5,32.4,89.2,32.4z" class="st0"/><path d="M94.1,32.4c-0.3,0-0.6,0.3-0.6,0.6s0.3,0.6,0.6,0.6c0.3,0,0.6-0.3,0.6-0.6C94.6,32.7,94.4,32.4,94.1,32.4z" class="st0"/><path d="M98.9,32.4c-0.3,0-0.6,0.3-0.6,0.6s0.3,0.6,0.6,0.6c0.3,0,0.6-0.3,0.6-0.6S99.2,32.4,98.9,32.4z" class="st0"/><path d="M103.7,32.4c-0.3,0-0.6,0.3-0.6,0.6s0.3,0.6,0.6,0.6c0.3,0,0.6-0.3,0.6-0.6C104.3,32.7,104.1,32.4,103.7,32.4z" class="st0"/><path d="M74.7,36.6c-0.3,0-0.6,0.3-0.6,0.6s0.3,0.6,0.6,0.6c0.3,0,0.6-0.3,0.6-0.6C75.3,36.9,75,36.6,74.7,36.6z" class="st0"/><path d="M79.5,36.6c-0.3,0-0.6,0.3-0.6,0.6s0.3,0.6,0.6,0.6c0.3,0,0.6-0.3,0.6-0.6C80.1,36.9,79.8,36.6,79.5,36.6z" class="st0"/><path d="M84.4,36.6c-0.3,0-0.6,0.3-0.6,0.6s0.3,0.6,0.6,0.6c0.3,0,0.6-0.3,0.6-0.6C84.9,36.9,84.7,36.6,84.4,36.6z" class="st0"/><path d="M89.2,36.6c-0.3,0-0.6,0.3-0.6,0.6s0.3,0.6,0.6,0.6c0.3,0,0.6-0.3,0.6-0.6C89.8,36.9,89.5,36.6,89.2,36.6z" class="st0"/><path d="M94.1,36.6c-0.3,0-0.6,0.3-0.6,0.6s0.3,0.6,0.6,0.6c0.3,0,0.6-0.3,0.6-0.6C94.6,36.9,94.4,36.6,94.1,36.6z" class="st0"/><path d="M98.9,36.6c-0.3,0-0.6,0.3-0.6,0.6s0.3,0.6,0.6,0.6c0.3,0,0.6-0.3,0.6-0.6C99.5,36.9,99.2,36.6,98.9,36.6z" class="st0"/><path d="M103.7,36.6c-0.3,0-0.6,0.3-0.6,0.6s0.3,0.6,0.6,0.6c0.3,0,0.6-0.3,0.6-0.6C104.3,36.9,104.1,36.6,103.7,36.6z" class="st0"/><path d="M74.7,40.9c-0.3,0-0.6,0.3-0.6,0.6s0.3,0.6,0.6,0.6c0.3,0,0.6-0.3,0.6-0.6S75,40.9,74.7,40.9z" class="st0"/><path d="M79.5,40.9c-0.3,0-0.6,0.3-0.6,0.6s0.3,0.6,0.6,0.6c0.3,0,0.6-0.3,0.6-0.6S79.8,40.9,79.5,40.9z" class="st0"/><circle cx="84.4" cy="41.4" r=".6" class="st0"/><circle cx="89.2" cy="41.4" r=".6" class="st0"/><path d="M94.1,40.9c-0.3,0-0.6,0.3-0.6,0.6s0.3,0.6,0.6,0.6c0.3,0,0.6-0.3,0.6-0.6S94.4,40.9,94.1,40.9z" class="st0"/><path d="M98.9,40.9c-0.3,0-0.6,0.3-0.6,0.6s0.3,0.6,0.6,0.6c0.3,0,0.6-0.3,0.6-0.6S99.2,40.9,98.9,40.9z" class="st0"/><path d="M103.7,40.9c-0.3,0-0.6,0.3-0.6,0.6s0.3,0.6,0.6,0.6c0.3,0,0.6-0.3,0.6-0.6S104.1,40.9,103.7,40.9z" class="st0"/><path d="M74.7,45.1c-0.3,0-0.6,0.3-0.6,0.6s0.3,0.6,0.6,0.6c0.3,0,0.6-0.3,0.6-0.6S75,45.1,74.7,45.1z" class="st0"/><path d="M79.5,45.1c-0.3,0-0.6,0.3-0.6,0.6s0.3,0.6,0.6,0.6c0.3,0,0.6-0.3,0.6-0.6S79.8,45.1,79.5,45.1z" class="st0"/><circle cx="84.4" cy="45.7" r=".6" class="st0"/><circle cx="89.2" cy="45.7" r=".6" class="st0"/><path d="M94.1,45.1c-0.3,0-0.6,0.3-0.6,0.6s0.3,0.6,0.6,0.6c0.3,0,0.6-0.3,0.6-0.6S94.4,45.1,94.1,45.1z" class="st0"/><path d="M98.9,45.1c-0.3,0-0.6,0.3-0.6,0.6s0.3,0.6,0.6,0.6c0.3,0,0.6-0.3,0.6-0.6S99.2,45.1,98.9,45.1z" class="st0"/><path d="M103.7,45.1c-0.3,0-0.6,0.3-0.6,0.6s0.3,0.6,0.6,0.6c0.3,0,0.6-0.3,0.6-0.6S104.1,45.1,103.7,45.1z" class="st0"/></g><g><path d="M21.8,61.3c-0.3,0-0.6,0.3-0.6,0.6s0.3,0.6,0.6,0.6c0.3,0,0.6-0.3,0.6-0.6C22.3,61.6,22.1,61.3,21.8,61.3z" class="st0"/><path d="M26.6,61.3c-0.3,0-0.6,0.3-0.6,0.6s0.3,0.6,0.6,0.6s0.6-0.3,0.6-0.6S26.9,61.3,26.6,61.3z" class="st0"/><path d="M31.4,61.3c-0.3,0-0.6,0.3-0.6,0.6s0.3,0.6,0.6,0.6c0.3,0,0.6-0.3,0.6-0.6S31.8,61.3,31.4,61.3z" class="st0"/><path d="M36.3,61.3c-0.3,0-0.6,0.3-0.6,0.6s0.3,0.6,0.6,0.6s0.6-0.3,0.6-0.6C36.9,61.6,36.6,61.3,36.3,61.3z" class="st0"/><path d="M41.1,61.3c-0.3,0-0.6,0.3-0.6,0.6s0.3,0.6,0.6,0.6s0.6-0.3,0.6-0.6C41.7,61.6,41.4,61.3,41.1,61.3z" class="st0"/><path d="M46,61.3c-0.3,0-0.6,0.3-0.6,0.6s0.3,0.6,0.6,0.6s0.6-0.3,0.6-0.6C46.5,61.6,46.3,61.3,46,61.3z" class="st0"/><path d="M50.8,62.5c0.3,0,0.6-0.3,0.6-0.6s-0.3-0.6-0.6-0.6s-0.6,0.3-0.6,0.6S50.5,62.5,50.8,62.5z" class="st0"/><path d="M21.8,65.5c-0.3,0-0.6,0.3-0.6,0.6c0,0.3,0.3,0.6,0.6,0.6c0.3,0,0.6-0.3,0.6-0.6 C22.3,65.8,22.1,65.5,21.8,65.5z" class="st0"/><path d="M26.6,65.5c-0.3,0-0.6,0.3-0.6,0.6c0,0.3,0.3,0.6,0.6,0.6s0.6-0.3,0.6-0.6S26.9,65.5,26.6,65.5z" class="st0"/><path d="M31.4,65.5c-0.3,0-0.6,0.3-0.6,0.6c0,0.3,0.3,0.6,0.6,0.6c0.3,0,0.6-0.3,0.6-0.6S31.8,65.5,31.4,65.5z" class="st0"/><path d="M36.3,65.5c-0.3,0-0.6,0.3-0.6,0.6c0,0.3,0.3,0.6,0.6,0.6s0.6-0.3,0.6-0.6C36.9,65.8,36.6,65.5,36.3,65.5z" class="st0"/><path d="M41.1,65.5c-0.3,0-0.6,0.3-0.6,0.6c0,0.3,0.3,0.6,0.6,0.6s0.6-0.3,0.6-0.6C41.7,65.8,41.4,65.5,41.1,65.5z" class="st0"/><path d="M46,65.5c-0.3,0-0.6,0.3-0.6,0.6c0,0.3,0.3,0.6,0.6,0.6s0.6-0.3,0.6-0.6C46.5,65.8,46.3,65.5,46,65.5z" class="st0"/><path d="M50.8,65.5c-0.3,0-0.6,0.3-0.6,0.6c0,0.3,0.3,0.6,0.6,0.6s0.6-0.3,0.6-0.6C51.4,65.8,51.1,65.5,50.8,65.5z" class="st0"/><path d="M21.8,69.8c-0.3,0-0.6,0.3-0.6,0.6c0,0.3,0.3,0.6,0.6,0.6c0.3,0,0.6-0.3,0.6-0.6C22.3,70,22.1,69.8,21.8,69.8z" class="st0"/><path d="M26.6,69.8c-0.3,0-0.6,0.3-0.6,0.6c0,0.3,0.3,0.6,0.6,0.6s0.6-0.3,0.6-0.6C27.2,70,26.9,69.8,26.6,69.8z" class="st0"/><path d="M31.4,69.8c-0.3,0-0.6,0.3-0.6,0.6c0,0.3,0.3,0.6,0.6,0.6c0.3,0,0.6-0.3,0.6-0.6C32,70,31.8,69.8,31.4,69.8z" class="st0"/><path d="M36.3,69.8c-0.3,0-0.6,0.3-0.6,0.6c0,0.3,0.3,0.6,0.6,0.6s0.6-0.3,0.6-0.6C36.9,70,36.6,69.8,36.3,69.8z" class="st0"/><path d="M41.1,69.8c-0.3,0-0.6,0.3-0.6,0.6c0,0.3,0.3,0.6,0.6,0.6s0.6-0.3,0.6-0.6C41.7,70,41.4,69.8,41.1,69.8z" class="st0"/><path d="M46,69.8c-0.3,0-0.6,0.3-0.6,0.6c0,0.3,0.3,0.6,0.6,0.6s0.6-0.3,0.6-0.6C46.5,70,46.3,69.8,46,69.8z" class="st0"/><path d="M50.8,69.8c-0.3,0-0.6,0.3-0.6,0.6c0,0.3,0.3,0.6,0.6,0.6s0.6-0.3,0.6-0.6C51.4,70,51.1,69.8,50.8,69.8z" class="st0"/><path d="M21.8,74c-0.3,0-0.6,0.3-0.6,0.6c0,0.3,0.3,0.6,0.6,0.6c0.3,0,0.6-0.3,0.6-0.6C22.3,74.2,22.1,74,21.8,74z" class="st0"/><path d="M26.6,74c-0.3,0-0.6,0.3-0.6,0.6c0,0.3,0.3,0.6,0.6,0.6s0.6-0.3,0.6-0.6C27.2,74.2,26.9,74,26.6,74z" class="st0"/><path d="M31.4,74c-0.3,0-0.6,0.3-0.6,0.6c0,0.3,0.3,0.6,0.6,0.6c0.3,0,0.6-0.3,0.6-0.6C32,74.2,31.8,74,31.4,74z" class="st0"/><path d="M36.3,74c-0.3,0-0.6,0.3-0.6,0.6c0,0.3,0.3,0.6,0.6,0.6s0.6-0.3,0.6-0.6C36.9,74.2,36.6,74,36.3,74z" class="st0"/><path d="M41.1,74c-0.3,0-0.6,0.3-0.6,0.6c0,0.3,0.3,0.6,0.6,0.6s0.6-0.3,0.6-0.6C41.7,74.2,41.4,74,41.1,74z" class="st0"/><path d="M46,74c-0.3,0-0.6,0.3-0.6,0.6c0,0.3,0.3,0.6,0.6,0.6s0.6-0.3,0.6-0.6C46.5,74.2,46.3,74,46,74z" class="st0"/><path d="M50.8,74c-0.3,0-0.6,0.3-0.6,0.6c0,0.3,0.3,0.6,0.6,0.6s0.6-0.3,0.6-0.6C51.4,74.2,51.1,74,50.8,74z" class="st0"/><path d="M21.8,78.2c-0.3,0-0.6,0.3-0.6,0.6c0,0.3,0.3,0.6,0.6,0.6c0.3,0,0.6-0.3,0.6-0.6 C22.3,78.5,22.1,78.2,21.8,78.2z" class="st0"/><path d="M26.6,78.2c-0.3,0-0.6,0.3-0.6,0.6c0,0.3,0.3,0.6,0.6,0.6s0.6-0.3,0.6-0.6S26.9,78.2,26.6,78.2z" class="st0"/><path d="M31.4,78.2c-0.3,0-0.6,0.3-0.6,0.6c0,0.3,0.3,0.6,0.6,0.6c0.3,0,0.6-0.3,0.6-0.6S31.8,78.2,31.4,78.2z" class="st0"/><path d="M36.3,78.2c-0.3,0-0.6,0.3-0.6,0.6c0,0.3,0.3,0.6,0.6,0.6s0.6-0.3,0.6-0.6C36.9,78.5,36.6,78.2,36.3,78.2z" class="st0"/><path d="M41.1,78.2c-0.3,0-0.6,0.3-0.6,0.6c0,0.3,0.3,0.6,0.6,0.6s0.6-0.3,0.6-0.6C41.7,78.5,41.4,78.2,41.1,78.2z" class="st0"/><path d="M46,78.2c-0.3,0-0.6,0.3-0.6,0.6c0,0.3,0.3,0.6,0.6,0.6s0.6-0.3,0.6-0.6C46.5,78.5,46.3,78.2,46,78.2z" class="st0"/><path d="M50.8,78.2c-0.3,0-0.6,0.3-0.6,0.6c0,0.3,0.3,0.6,0.6,0.6s0.6-0.3,0.6-0.6C51.4,78.5,51.1,78.2,50.8,78.2z" class="st0"/><path d="M21.8,82.4c-0.3,0-0.6,0.3-0.6,0.6c0,0.3,0.3,0.6,0.6,0.6c0.3,0,0.6-0.3,0.6-0.6 C22.3,82.7,22.1,82.4,21.8,82.4z" class="st0"/><circle cx="26.6" cy="83" r=".6" class="st0"/><path d="M31.4,82.4c-0.3,0-0.6,0.3-0.6,0.6c0,0.3,0.3,0.6,0.6,0.6c0.3,0,0.6-0.3,0.6-0.6C32,82.7,31.8,82.4,31.4,82.4z" class="st0"/><path d="M36.3,82.4c-0.3,0-0.6,0.3-0.6,0.6c0,0.3,0.3,0.6,0.6,0.6s0.6-0.3,0.6-0.6C36.9,82.7,36.6,82.4,36.3,82.4z" class="st0"/><path d="M41.1,82.4c-0.3,0-0.6,0.3-0.6,0.6c0,0.3,0.3,0.6,0.6,0.6s0.6-0.3,0.6-0.6C41.7,82.7,41.4,82.4,41.1,82.4z" class="st0"/><path d="M46,82.4c-0.3,0-0.6,0.3-0.6,0.6c0,0.3,0.3,0.6,0.6,0.6s0.6-0.3,0.6-0.6C46.5,82.7,46.3,82.4,46,82.4z" class="st0"/><circle cx="50.8" cy="83" r=".6" class="st0"/><path d="M21.8,86.6c-0.3,0-0.6,0.3-0.6,0.6s0.3,0.6,0.6,0.6c0.3,0,0.6-0.3,0.6-0.6S22.1,86.6,21.8,86.6z" class="st0"/><circle cx="26.6" cy="87.2" r=".6" class="st0"/><path d="M31.4,86.6c-0.3,0-0.6,0.3-0.6,0.6s0.3,0.6,0.6,0.6c0.3,0,0.6-0.3,0.6-0.6S31.8,86.6,31.4,86.6z" class="st0"/><path d="M36.3,86.6c-0.3,0-0.6,0.3-0.6,0.6s0.3,0.6,0.6,0.6s0.6-0.3,0.6-0.6S36.6,86.6,36.3,86.6z" class="st0"/><path d="M41.1,86.6c-0.3,0-0.6,0.3-0.6,0.6s0.3,0.6,0.6,0.6s0.6-0.3,0.6-0.6S41.4,86.6,41.1,86.6z" class="st0"/><path d="M46,86.6c-0.3,0-0.6,0.3-0.6,0.6s0.3,0.6,0.6,0.6s0.6-0.3,0.6-0.6S46.3,86.6,46,86.6z" class="st0"/><circle cx="50.8" cy="87.2" r=".6" class="st0"/><path d="M21.8,90.9c-0.3,0-0.6,0.3-0.6,0.6c0,0.3,0.3,0.6,0.6,0.6c0.3,0,0.6-0.3,0.6-0.6 C22.3,91.1,22.1,90.9,21.8,90.9z" class="st0"/><circle cx="26.6" cy="91.4" r=".6" class="st0"/><path d="M31.4,90.9c-0.3,0-0.6,0.3-0.6,0.6c0,0.3,0.3,0.6,0.6,0.6c0.3,0,0.6-0.3,0.6-0.6C32,91.1,31.8,90.9,31.4,90.9z" class="st0"/><path d="M36.3,90.9c-0.3,0-0.6,0.3-0.6,0.6c0,0.3,0.3,0.6,0.6,0.6s0.6-0.3,0.6-0.6C36.9,91.1,36.6,90.9,36.3,90.9z" class="st0"/><path d="M41.1,90.9c-0.3,0-0.6,0.3-0.6,0.6c0,0.3,0.3,0.6,0.6,0.6s0.6-0.3,0.6-0.6C41.7,91.1,41.4,90.9,41.1,90.9z" class="st0"/><path d="M46,90.9c-0.3,0-0.6,0.3-0.6,0.6c0,0.3,0.3,0.6,0.6,0.6s0.6-0.3,0.6-0.6C46.5,91.1,46.3,90.9,46,90.9z" class="st0"/><circle cx="50.8" cy="91.4" r=".6" class="st0"/></g><path d="M96.9,48.2c0,6-1.3,11.6-3.6,16.7c-1.3,2.9-3,5.6-4.9,8.1c-0.3,0.4-0.6,0.8-0.9,1.1c-0.8,0.9-1.6,1.8-2.4,2.6	c-0.9,0.9-1.9,1.8-2.9,2.6c-0.8,0.6-1.5,1.2-2.3,1.8c0,0,0,0-0.1,0l0,0c-0.1,0.1-0.3,0.2-0.4,0.3c-0.3,0.2-0.5,0.4-0.8,0.5	c-1.1,0.7-2.3,1.4-3.6,2.1c-0.1,0-0.1,0.1-0.2,0.1c-0.9,0.4-1.7,0.8-2.6,1.2c-1.9,0.8-3.8,1.4-5.8,1.9c-0.4,0.1-0.8,0.2-1.3,0.3	L64,87.9c-2.1,0.4-4.3,0.6-6.6,0.7c-0.3,0-0.5,0-0.8,0c-0.5,0-1,0-1.5,0c-0.3,0-0.6,0-0.8,0c-4.4-0.2-8.6-1.2-12.4-2.7	c-2.1-0.8-4.1-1.8-6.1-3c-0.7-0.4-1.4-0.8-2-1.3c-0.2-0.1-0.3-0.2-0.5-0.3c-0.6-0.4-1.2-0.9-1.8-1.3c-0.6-0.5-1.2-1-1.8-1.5	c-1.1-1-2.1-2-3.1-3.1c-0.1-0.1-0.2-0.2-0.3-0.3c-0.3-0.4-0.7-0.8-1-1.2l0,0c-1.5-1.8-2.8-3.8-4-5.8c-1.9-3.3-3.2-7-4.1-10.8	c0-0.2-0.1-0.4-0.1-0.6c-0.1-0.5-0.1-0.7-0.2-1c-0.3-1.4-0.4-2.8-0.6-4.2c-0.1-1.1-0.1-2.2-0.1-3.3c0-3.2,0.4-6.3,1.1-9.2	c1.1-4.6,2.9-8.8,5.4-12.7c7.2-11,19.7-18.4,33.9-18.4c16,0,29.8,9.3,36.3,22.8C95.5,36,96.9,42,96.9,48.2z" class="st1"/><path d="M93.3,64.9c-1.3,2.9-3,5.6-4.9,8.1c-0.3,0.4-0.6,0.8-0.9,1.1c-0.8,0.9-1.6,1.8-2.4,2.6	c-0.9,0.9-1.9,1.8-2.9,2.6c-0.8,0.6-1.5,1.2-2.3,1.8c0,0,0,0-0.1,0l0,0c-0.1,0.1-0.3,0.2-0.4,0.3c-0.3,0.2-0.5,0.4-0.8,0.5	c-1.1,0.7-2.3,1.4-3.6,2.1c-0.1,0-0.1,0.1-0.2,0.1c-0.9,0.4-1.7,0.8-2.6,1.2c-1.9,0.8-3.8,1.4-5.8,1.9c-0.4,0.1-0.8,0.2-1.3,0.3	L64,87.9c-2.1,0.4-4.3,0.6-6.6,0.7c-0.3,0-0.5,0-0.8,0c-0.5,0-1,0-1.5,0c-0.3,0-0.6,0-0.8,0c-4.4-0.2-8.6-1.2-12.4-2.7	c-2.1-0.8-4.1-1.8-6.1-3c-0.7-0.4-1.4-0.8-2-1.3c-0.2-0.1-0.3-0.2-0.5-0.3c-0.6-0.4-1.2-0.9-1.8-1.3c-0.6-0.5-1.2-1-1.8-1.5	c-1.2-1.1-2.3-2.2-3.4-3.4c-4.5-5.1-7.8-11.4-9.2-18.4c-0.3-1.6-0.6-3.3-0.7-5c4.7-2.2,11.3,0.2,12.9,9.3c6.8-5.8,24.9-6.6,25.5,8.3	c7.1-6.7,24.4-0.4,25.6,5.2C82.8,69.1,88.1,65.4,93.3,64.9z" class="st2"/><g><g><linearGradient id="SVGID_1_" x1="29.966" x2="75.282" y1="95.369" y2="70.422" gradientTransform="matrix(1 0 0 -1 0 112)" gradientUnits="userSpaceOnUse"><stop style="stop-color:#797bf2" offset="0"/><stop style="stop-color:#7961f2" offset="1"/></linearGradient><path d="M99.1,37.9L83.2,64.1c-0.8,1.2-2.4,1.6-3.6,0.9l-2.8-1.7l-16.1-9.7c-1.2-0.8-1.6-2.4-0.9-3.6l7.1-11.7 l8.9-14.6c0.8-1.2,2.4-1.6,3.6-0.9l18.9,11.5C99.5,35,99.9,36.6,99.1,37.9z" class="st3"/><linearGradient id="SVGID_2_" x1="60.837" x2="88.468" y1="60.162" y2="99.211" gradientTransform="matrix(1 0 0 -1 0 112)" gradientUnits="userSpaceOnUse"><stop style="stop-color:#797bf2" offset="0"/><stop style="stop-color:#7961f2" offset="1"/></linearGradient><path d="M62,54.4l-2-1.2c-0.9-0.5-1.1-1.7-0.6-2.5L76.2,23c0.5-0.9,1.7-1.1,2.5-0.6l2,1.2c0.9,0.5,1.1,1.7,0.6,2.5 L64.5,53.8C64,54.6,62.9,54.9,62,54.4z" class="st4"/><path d="M76.7,63.3l-16.1-9.7c-1.2-0.8-1.6-2.4-0.9-3.6l7.1-11.7l0.9-0.3c1.4-0.4,2.9,0.4,3.3,1.8L77.1,61 C77.4,61.9,77.2,62.7,76.7,63.3z" class="st5"/></g><path d="M80.1,53.5l-6.4-3.9c-0.5-0.3-0.6-0.9-0.3-1.3l0,0c0.3-0.5,0.9-0.6,1.3-0.3l6.4,3.9c0.5,0.3,0.6,0.9,0.3,1.3 l0,0C81.1,53.6,80.5,53.8,80.1,53.5z" class="st6"/><path d="M90,37.1l-6.4-3.9c-0.5-0.3-0.6-0.9-0.3-1.3l0,0c0.3-0.5,0.9-0.6,1.3-0.3l6.4,3.9c0.5,0.3,0.6,0.9,0.3,1.3l0,0 C91.1,37.2,90.5,37.4,90,37.1z" class="st6"/><path d="M76.8,55.4l-3.3-2c-0.5-0.3-0.6-0.9-0.3-1.3l0,0c0.3-0.5,0.9-0.6,1.3-0.3l3.3,2c0.5,0.3,0.6,0.9,0.3,1.3l0,0 C77.8,55.5,77.2,55.7,76.8,55.4z" class="st6"/></g><g><linearGradient id="SVGID_3_" x1="56.553" x2="79.772" y1="39.845" y2="10.489" gradientTransform="matrix(1 0 0 -1 0 112)" gradientUnits="userSpaceOnUse"><stop style="stop-color:#ffc7d7" offset=".004"/><stop style="stop-color:#ff97ab" offset="1"/></linearGradient><path d="M79.8,81.3c-0.1,0.1-0.3,0.2-0.4,0.3c-0.3,0.2-0.5,0.4-0.8,0.5c-1.1,0.7-2.3,1.4-3.6,2.1 c-0.1,0-0.1,0.1-0.2,0.1c-0.9,0.4-1.7,0.8-2.6,1.2c-1.9,0.8-3.8,1.4-5.8,1.9c-0.4,0.1-0.8,0.2-1.3,0.3L64,87.9 c-2.1,0.4-4.3,0.6-6.6,0.7c-0.3,0-0.5,0-0.8,0c-0.5,0-1,0-1.5,0c-1.5-1.2-3.8-3.2-5.6-5.2c-0.9-1-1.6-1.9-2-2.7 c-0.1-0.2-0.2-0.5-0.3-0.7l14.7-4.1c0.1,0,2.6,0.1,5,0.1c0.1,0,0.2,0,0.3,0c0.3,0,0.5,0,0.8,0h0.1c0.4,0,0.8,0,1.2,0 c1.2,0,2,0.1,2,0.1l7.3,4.4L79.8,81.3L79.8,81.3z" class="st7"/><linearGradient id="SVGID_4_" x1="55.996" x2="58.069" y1="8.267" y2="37.182" gradientTransform="matrix(1 0 0 -1 0 112)" gradientUnits="userSpaceOnUse"><stop style="stop-color:#ffc7d7" offset=".004"/><stop style="stop-color:#ff97ab" offset="1"/></linearGradient><path d="M68.2,79.9c-0.3,2.7-1.4,5.1-1.8,7.5c-0.4,0.1-0.8,0.2-1.3,0.3L64,87.9c-2.1,0.4-4.3,0.6-6.6,0.7 c-0.3,0-0.5,0-0.8,0c-0.5,0-1,0-1.5,0c-1.5-1.2-3.8-3.2-5.6-5.2c-0.9-1-1.6-1.9-2-2.7c-0.1-0.2-0.2-0.5-0.3-0.7l14.7-4.1 c0.1,0,2.6,0.1,5,0.1c0.1,0,0.2,0,0.3,0l0.9,0.2C68.3,77.5,68.3,78.7,68.2,79.9z" class="st8"/><g><g><linearGradient id="SVGID_5_" x1="38.647" x2="11.557" y1="-15.432" y2="99.934" gradientTransform="matrix(0.9945 -0.1043 -0.1043 -0.9945 28.8098 96.5426)" gradientUnits="userSpaceOnUse"><stop style="stop-color:#ff227d" offset="0"/><stop style="stop-color:#ff967d" offset="1"/></linearGradient><path d="M64.1,81.8L43.8,84c-2.6,0.3-4.9-1.6-5.1-4.2l-4.3-41.4c-0.3-2.6,1.6-4.9,4.2-5.1l20.3-2.1 c2.6-0.3,4.9,1.6,5.1,4.2l4.3,41.4C68.5,79.3,66.7,81.6,64.1,81.8z" class="st9"/><linearGradient id="SVGID_6_" x1="11.997" x2="95.386" y1="51.276" y2="-35.019" gradientTransform="matrix(0.9945 -0.1043 -0.1043 -0.9945 28.8098 96.5426)" gradientUnits="userSpaceOnUse"><stop style="stop-color:#fff" offset="0"/><stop style="stop-color:#cbb3ff" offset="1"/></linearGradient><path d="M63,79l-18.8,2c-2.3,0.2-4.4-1.4-4.6-3.7l-3.8-36.5c-0.2-2.3,1.4-4.4,3.7-4.6l18.8-2 c2.3-0.2,4.4,1.4,4.6,3.7l3.8,36.5C67,76.7,65.3,78.7,63,79z" class="st10"/><g><linearGradient id="SVGID_7_" x1="21.195" x2="19.773" y1="49.863" y2="55.921" gradientTransform="matrix(0.9945 -0.1043 -0.1043 -0.9945 28.8098 96.5426)" gradientUnits="userSpaceOnUse"><stop style="stop-color:#8b69c5" offset="0"/><stop style="stop-color:#cbb3ff" offset="1"/></linearGradient><path d="M47.1,42.4l-6.5,0.7c-0.4,0-0.7-0.2-0.8-0.6l0,0c0-0.4,0.2-0.7,0.6-0.8l6.5-0.7c0.4,0,0.7,0.2,0.8,0.6l0,0 C47.7,42.1,47.5,42.4,47.1,42.4z" class="st11"/><linearGradient id="SVGID_8_" x1="23.971" x2="21.964" y1="46.454" y2="55.002" gradientTransform="matrix(0.9945 -0.1043 -0.1043 -0.9945 28.8098 96.5426)" gradientUnits="userSpaceOnUse"><stop style="stop-color:#8b69c5" offset="0"/><stop style="stop-color:#cbb3ff" offset="1"/></linearGradient><path d="M52.4,44.2l-11.6,1.2c-0.4,0-0.7-0.2-0.8-0.6l0,0c0-0.4,0.2-0.7,0.6-0.8l11.6-1.2c0.4,0,0.7,0.2,0.8,0.6 l0,0C53.1,43.8,52.8,44.1,52.4,44.2z" class="st12"/></g><g><linearGradient id="SVGID_9_" x1="22.742" x2="18.874" y1="35.23" y2="51.704" gradientTransform="matrix(0.9945 -0.1043 -0.1043 -0.9945 28.8098 96.5426)" gradientUnits="userSpaceOnUse"><stop style="stop-color:#8b69c5" offset="0"/><stop style="stop-color:#cbb3ff" offset="1"/></linearGradient><path d="M47,55.4l-2.7,0.3c-1.2,0.1-2.4-0.8-2.5-2L41.5,51c-0.1-1.2,0.8-2.4,2-2.5l2.7-0.3c1.2-0.1,2.4,0.8,2.5,2 l0.3,2.7C49.1,54.2,48.2,55.3,47,55.4z" class="st13"/><linearGradient id="SVGID_10_" x1="34.112" x2="30.244" y1="35.22" y2="51.693" gradientTransform="matrix(0.9945 -0.1043 -0.1043 -0.9945 28.8098 96.5426)" gradientUnits="userSpaceOnUse"><stop style="stop-color:#8b69c5" offset="0"/><stop style="stop-color:#cbb3ff" offset="1"/></linearGradient><path d="M58.3,54.2l-2.7,0.3c-1.2,0.1-2.4-0.8-2.5-2l-0.3-2.7c-0.1-1.2,0.8-2.4,2-2.5l2.7-0.3 c1.2-0.1,2.4,0.8,2.5,2l0.3,2.7C60.5,53,59.6,54.1,58.3,54.2z" class="st14"/></g><g><linearGradient id="SVGID_11_" x1="22.754" x2="18.886" y1="25.784" y2="42.257" gradientTransform="matrix(0.9945 -0.1043 -0.1043 -0.9945 28.8098 96.5426)" gradientUnits="userSpaceOnUse"><stop style="stop-color:#8b69c5" offset="0"/><stop style="stop-color:#cbb3ff" offset="1"/></linearGradient><path d="M48,64.8l-2.7,0.3c-1.2,0.1-2.4-0.8-2.5-2l-0.3-2.7c-0.1-1.2,0.8-2.4,2-2.5l2.7-0.3c1.2-0.1,2.4,0.8,2.5,2 l0.3,2.7C50.1,63.6,49.2,64.7,48,64.8z" class="st15"/><linearGradient id="SVGID_12_" x1="30.776" x2="33.843" y1="40.744" y2="26.323" gradientTransform="matrix(0.9945 -0.1043 -0.1043 -0.9945 28.8098 96.5426)" gradientUnits="userSpaceOnUse"><stop style="stop-color:#c7ffab" offset="0"/><stop style="stop-color:#83cfd3" offset="1"/></linearGradient><path d="M59.3,63.6l-2.7,0.3c-1.2,0.1-2.4-0.8-2.5-2l-0.3-2.7c-0.1-1.2,0.8-2.4,2-2.5l2.7-0.3 c1.2-0.1,2.4,0.8,2.5,2l0.3,2.7C61.5,62.4,60.6,63.5,59.3,63.6z" class="st16"/></g><g><linearGradient id="SVGID_13_" x1="22.675" x2="18.806" y1="16.315" y2="32.789" gradientTransform="matrix(0.9945 -0.1043 -0.1043 -0.9945 28.8098 96.5426)" gradientUnits="userSpaceOnUse"><stop style="stop-color:#8b69c5" offset="0"/><stop style="stop-color:#cbb3ff" offset="1"/></linearGradient><path d="M48.9,74.2l-2.7,0.3c-1.2,0.1-2.4-0.8-2.5-2l-0.3-2.7c-0.1-1.2,0.8-2.4,2-2.5l2.7-0.3 c1.2-0.1,2.4,0.8,2.5,2l0.3,2.7C51.1,73,50.2,74.1,48.9,74.2z" class="st17"/><linearGradient id="SVGID_14_" x1="34.137" x2="30.268" y1="16.327" y2="32.8" gradientTransform="matrix(0.9945 -0.1043 -0.1043 -0.9945 28.8098 96.5426)" gradientUnits="userSpaceOnUse"><stop style="stop-color:#8b69c5" offset="0"/><stop style="stop-color:#cbb3ff" offset="1"/></linearGradient><path d="M60.3,73l-2.7,0.3c-1.2,0.1-2.4-0.8-2.5-2l-0.3-2.7c-0.1-1.2,0.8-2.4,2-2.5l2.7-0.3c1.2-0.1,2.4,0.8,2.5,2 l0.3,2.7C62.4,71.8,61.5,72.9,60.3,73z" class="st18"/></g><polyline points="56.3 60.1 57.6 61.1 59.2 59.1" class="st19"/></g><rect width="7" height=".6" x="45.3" y="33.2" class="st20" transform="matrix(0.9945 -0.1043 0.1043 0.9945 -3.228 5.2719)"/></g><linearGradient id="SVGID_15_" x1="65.449" x2="95.177" y1="47.046" y2="9.459" gradientTransform="matrix(1 0 0 -1 0 112)" gradientUnits="userSpaceOnUse"><stop style="stop-color:#ffc7d7" offset=".004"/><stop style="stop-color:#ff97ab" offset="1"/></linearGradient><path d="M79.8,81.2C79.8,81.2,79.8,81.3,79.8,81.2L79.8,81.2L79.8,81.2l-10.2-4l-1.4-0.5l0,0c0,0-0.1-0.3-0.2-0.7 c-0.4-1.5-1.4-4.6-1.4-4.6s-0.1,0-0.2-0.1c-0.7-0.3-2.6-1.3-4.3-2.6c-1.1-0.8-2.2-1.8-2.9-2.8c-0.1-0.1-0.1-0.2-0.2-0.2 c-0.1-0.1-0.2-0.3-0.2-0.4c-0.3-0.5-0.5-1-0.6-1.5c-0.3-1-0.5-2.1-0.4-2.9c0.1-1,0.4-1.8,1-1.9c0.2,0,0.5,0,0.9,0.2 c0.3,0.2,0.9,0.4,1.5,0.7c0.7,0.3,1.6,0.7,2.6,1c0.5,0.2,1.1,0.4,1.6,0.7c0.4,0.2,0.9,0.4,1.3,0.5c2.9,1.2,5.6,2.5,6.3,3.5 C74.4,67.6,76.4,77.3,79.8,81.2z" class="st21"/><linearGradient id="SVGID_16_" x1="60.873" x2="61.419" y1="45.397" y2="53.007" gradientTransform="matrix(1 0 0 -1 0 112)" gradientUnits="userSpaceOnUse"><stop style="stop-color:#ffc7d7" offset=".004"/><stop style="stop-color:#ff97ab" offset="1"/></linearGradient><path d="M63.8,60.9l-1.1,1.9c0,0-3.5-1.6-3.8-3.8c0.2,0,0.5,0,0.9,0.2C60.5,59.5,62,60.2,63.8,60.9z" class="st22"/><linearGradient id="SVGID_17_" x1="64.971" x2="63.512" y1="30.44" y2="51.296" gradientTransform="matrix(1 0 0 -1 0 112)" gradientUnits="userSpaceOnUse"><stop style="stop-color:#ffc7d7" offset=".004"/><stop style="stop-color:#ff97ab" offset="1"/></linearGradient><path d="M69.6,77.3l-1.4-0.6c0-0.2-1.5-5.3-1.5-5.3s-5.7-2.6-7.6-5.8c-0.1-0.1-0.2-0.3-0.2-0.4C61.5,68,66,69,67,70.1 C68.1,71.3,69.4,75.3,69.6,77.3z" class="st23"/></g><linearGradient id="SVGID_18_" x1="-3.977" x2="18.51" y1="57.547" y2="48.278" gradientTransform="matrix(1 0 0 -1 0 112)" gradientUnits="userSpaceOnUse"><stop style="stop-color:#c7ffab" offset="0"/><stop style="stop-color:#83cfd3" offset="1"/></linearGradient><path d="M26.8,73.3c0,0.8-0.1,1.4-0.2,1.9c-0.1-0.1-0.2-0.2-0.3-0.3c-0.3-0.4-0.7-0.8-1-1.2l0,0	c-1.5-1.8-2.8-3.8-4-5.8c-1.6-2.3-4.3-3.7-7.2-4.8c-1.1-0.4-2.3-0.8-3.4-1.2c-4.1-1.4-8.1-2.7-9.9-5.2c-3.3-4.9,3.9-7.2,11.4-3.7	c0.9,0.4,1.9,0.9,2.8,1.5c0.2,0.1,0.5,0.3,0.7,0.5c0.4,0.3,0.8,0.6,1.2,0.9c6.2,4.7,9.1,9.6,9.7,14.8C26.8,71.4,26.8,72.3,26.8,73.3	z" class="st24"/><path d="M26.8,73.3c0,0.8-0.1,1.4-0.2,1.9c-0.1-0.1-0.2-0.2-0.3-0.3c-0.3-0.4-0.7-0.8-1-1.2l0,0c-1.5-1.8-2.8-3.8-4-5.8	c-1.6-2.3-4.3-3.7-7.2-4.8c2.3-2.8,1.7-7.4-1.9-10.2c0.9,0.4,1.9,0.9,2.8,1.5c0.2,0.1,0.5,0.3,0.7,0.5c0.4,0.3,0.8,0.6,1.2,0.9	c6.2,4.7,9.1,9.6,9.7,14.8C26.8,71.4,26.8,72.3,26.8,73.3z" class="st5"/><path d="M5.2,55c0,0,13.2,1.7,16.3,8.7" class="st25"/><linearGradient id="SVGID_19_" x1="16.906" x2="11.928" y1="66.968" y2="16.845" gradientTransform="matrix(1 0 0 -1 0 112)" gradientUnits="userSpaceOnUse"><stop style="stop-color:#c7ffab" offset="0"/><stop style="stop-color:#83cfd3" offset="1"/></linearGradient><path d="M27.9,64.4c-0.1,2.1-0.5,4.2-1.2,6.1c-0.4,1.1-0.9,2.1-1.4,3.2c-1.5-1.8-2.8-3.8-4-5.8	c0.3-3.9-1.5-7.4-4.1-10.8c-0.7-0.9-1.4-1.8-2.2-2.7c-3.2-3.7-6.9-7.3-8.9-10.8c-0.7-1.3-1.3-2.6-1.4-3.9C3.8,33.2,11,33.4,17.3,39	c2.1,1.8,4,4.2,5.6,7.1c2.3,4.2,3.7,8.1,4.5,11.6c0.3,1.4,0.5,2.8,0.5,4.1C28,62.7,28,63.6,27.9,64.4z" class="st26"/><path d="M11.6,39.6c4.8,4.9,16.5,15.6,11.8,31.6" class="st25"/><path d="M27.4,57.7c0.1,1,0.1,1.9,0.2,2.8c-2.5-9.8-9.3-20-14.3-22.6c-4.9-2.6-8.5,0.7-7.1,5.7	c-0.7-1.3-1.3-2.6-1.4-3.9c-1-6.5,6.2-6.3,12.5-0.7c2.1,1.8,4,4.2,5.6,7.1C25.2,50.4,26.7,54.2,27.4,57.7z" class="st27"/></svg>