<svg xmlns="http://www.w3.org/2000/svg" xmlns:xlink="http://www.w3.org/1999/xlink" id="Layer_1" x="0" y="0" version="1.1" viewBox="0 0 178 199" xml:space="preserve" style="enable-background:new 0 0 178 199"><style type="text/css">.st0{clip-path:url(#SVGID_2_)}.st1{fill:#babef7}.st2{fill:#dcdffb}.st3,.st4{fill:#fff}.st4{stroke:#671cc9;stroke-width:.5;stroke-linecap:round;stroke-linejoin:round;stroke-miterlimit:10}.st5{fill:#fefefe}.st10,.st6{stroke-width:.5;stroke-linecap:round;stroke-linejoin:round;stroke-miterlimit:10}.st6{fill:none}.st6,.st7,.st8{stroke:#671cc9}.st7,.st8,.st9{stroke-width:.5;stroke-linecap:round;stroke-linejoin:round;stroke-miterlimit:10}.st7{fill:#844bdd}.st8{fill:#fefefe}.st10,.st9{fill:#dcdffb}.st9{stroke:#3f02a8}.st10{stroke:#671cc9}.st11{fill:#ff227d}.st12{fill:none;stroke:#ff227d;stroke-width:10;stroke-linecap:round;stroke-linejoin:round;stroke-miterlimit:10}.st13{fill:#671cc9}.st14{fill:#faf3e1}.st15,.st16{clip-path:url(#SVGID_2_)}.st15{fill:#dcdffb;stroke:#671cc9;stroke-width:.5;stroke-linecap:round;stroke-linejoin:round;stroke-miterlimit:10}.st16,.st17{fill:none}.st17{stroke:#ff57a4;stroke-width:.5;stroke-miterlimit:10}</style><g><defs><rect id="SVGID_1_" width="178" height="199" x="0" y="0"/></defs><clipPath id="SVGID_2_"><use xlink:href="#SVGID_1_" style="overflow:visible"/></clipPath><g class="st0"><g><image style="overflow:visible;opacity:.2" width="939" height="320" transform="matrix(1 0 0 1 -407.0579 -32.4236)" xlink:href="331B3DCC.html"/><g><g><path d="M409.6,96.7c-6.1,0-11.9,0.7-17.5,1.9c-7.2-38.9-52.8-68.9-107.9-68.8c-50.8,0.1-93.4,25.6-105.3,60.1 c-5.7-1-11.8-1.6-18-1.6c-21.1,0-40.1,6.5-53.5,16.9C89.4,91.7,64.2,83.3,36.4,83.3c-8.5,0-16.7,0.8-24.5,2.3 c-6.7-11.8-22.6-20-41.2-20c-24.6,0-44.5,14.6-44.5,32.7c0,0.6,0,1.3,0.1,1.9c-6.4-1.8-13.2-3-20.3-3.6 c-12.4-27.1-47.5-46.7-88.7-46.6c-51.6,0.1-93.3,30.7-93.3,68.5c0,0.6,0,1.2,0,1.8c-6-1.8-12.5-2.7-19.4-2.7 c-28.5,0-51.5,16.9-51.5,37.8c0,20.8,23.2,37.7,51.6,37.6c22.3,0,41.3-10.4,48.4-24.9c16.8,11.6,39.4,18.7,64.3,18.7 c1.5,0,2.9,0,4.3-0.1c14.1,19.6,42.3,32.9,74.6,32.8c24.1,0,45.7-7.4,61.1-19.3c18.2,17.4,46.9,28.7,79.2,28.6 c38.4,0,71.6-16,88.1-39.3c10.8,4.5,23.2,7,36.5,7c24.6,0,46.4-8.9,59.8-22.4c17.9,9.4,39.9,14.9,63.6,14.9 c28.7,0,54.8-8.2,74.2-21.6c11.1,11.9,29.8,19.7,51,19.6c34.1,0,61.6-20.3,61.6-45.2C471.3,116.8,443.7,96.7,409.6,96.7z" class="st1"/></g></g></g><g><image style="overflow:visible;opacity:.2" width="851" height="245" transform="matrix(1 0 0 1 -341.0579 36.5764)" xlink:href="331B3DC3.html"/><g><g><path d="M-202.7,102.8c19.2-0.3,37,4.4,51,12.4c5.9-4.9,14.5-8,24.1-8.2c18-0.3,32.9,9.9,33.9,22.9 c12.5-17.8,37.6-30.1,66.8-30.6c36.2-0.6,67.2,17.2,76.1,41.8c11.8,0.5,22.5,4,30.8,9.5c4.6-1.2,9.5-1.9,14.6-2 c0.2,0,0.3,0,0.5,0c10.7-19.5,36.4-33.4,66.9-33.9c28.5-0.5,53.7,11,66.4,28.2c2.5-0.7,5.1-1.2,7.8-1.5c0-0.4-0.1-0.8-0.1-1.2 c-0.5-17.9,18.9-32.8,43.4-33.2c11.9-0.2,22.8,3.1,31,8.5c14.4-9.6,33.3-15.5,54.3-15.9c46-0.7,84.1,25.9,85.1,59.6 c1,33.7-35.5,61.6-81.5,62.3c-32.7,0.5-61.5-12.8-75.7-32.7c-6.5,14.2-24.6,24.6-46.3,25c-11.4,0.2-22-2.5-30.6-7 c-13,9.5-30.8,15.5-50.6,15.9c-17.4,0.3-33.5-3.9-46.3-11c-6.6,2.8-14.2,4.5-22.3,4.6c-9.7,0.2-18.8-1.9-26.4-5.5 c-6.9,2.8-14.8,4.4-23.1,4.5c-13.7,0.2-26.3-3.6-35.7-9.9c-10.4,4.1-22.3,6.5-34.9,6.8c-34.2,0.6-63.7-15.3-74.4-37.7 c-4.2,1.5-8.9,2.4-13.9,2.5c-4.1,0.1-8-0.4-11.6-1.3c-8.5,24.9-39,43.7-75.8,44.3c-44.2,0.7-80.8-24.9-81.7-57.2 C-281.9,130.3-246.9,103.5-202.7,102.8z" class="st2"/></g></g></g><g><image style="overflow:visible;opacity:.2" width="873" height="298" transform="matrix(1 0 0 1 -363.0579 62.5764)" xlink:href="331B3DC4.html"/><g><g><path d="M-247.8,189.6c5.6-0.1,11,0.3,16.1,1.3c4.8-35.9,45.3-64.5,95.9-65.8c46.6-1.2,86.9,21.2,99.4,52.6 c5.2-1.1,10.7-1.8,16.4-1.9c19.4-0.5,37.1,5,49.9,14.2c16-12.8,38.7-21.1,64.3-21.8c7.8-0.2,15.3,0.3,22.6,1.5 c5.6-11,19.9-18.9,36.9-19.4c22.6-0.6,41.5,12.4,42.3,28.9c0,0.6,0,1.2,0,1.7c5.8-1.8,12-3.1,18.5-3.8 c10.2-25.2,41.4-44,79.3-45c47.4-1.2,87.1,25.9,88.7,60.6c0,0.6,0,1.1,0,1.7c5.4-1.8,11.4-2.8,17.7-3c26.1-0.7,48,14.3,49,33.4 c0.9,19.1-19.5,35.2-45.7,35.8c-20.5,0.5-38.4-8.6-45.6-21.7c-14.9,11.1-35.3,18.1-58.2,18.7c-1.3,0-2.7,0-4,0 c-12.1,18.3-37.3,31.2-67,32c-22.1,0.6-42.3-5.7-56.9-16.2c-15.9,16.4-41.7,27.5-71.3,28.2c-35.2,0.9-66.4-12.9-82.6-33.9 c-9.7,4.4-21,7-33.2,7.3c-22.6,0.6-43-7-55.9-19.1c-16,9.1-35.9,14.7-57.7,15.2c-26.4,0.7-50.7-6.2-69.1-18 c-9.7,11.2-26.5,18.8-45.9,19.3c-31.3,0.8-57.5-17.1-58.6-40C-303.5,209.6-279,190.4-247.8,189.6z" class="st3"/></g></g></g></g><g class="st0"><g><path d="M144.9,172.7h-112c-2.2,0-4-1.8-4-4v-112c0-2.2,1.8-4,4-4h112c2.2,0,4,1.8,4,4v112 C148.9,170.9,147.2,172.7,144.9,172.7z" class="st4"/><path d="M144.9,168.7h-112c-2.2,0-4-1.8-4-4v-108c0-2.2,1.8-4,4-4h112c2.2,0,4,1.8,4,4v108 C148.9,166.9,147.2,168.7,144.9,168.7z" class="st4"/></g><g><g><image style="overflow:visible;opacity:.4" width="182" height="173" transform="matrix(1 0 0 1 0 26.3)" xlink:href="331B3DC7.html"/><g><path d="M148.9,143.3l-21.3,21.3H32.9c-2.2,0-4-1.8-4-4v-104c0-2.2,1.8-4,4-4h112c2.2,0,4,1.8,4,4V143.3z" class="st5"/><path d="M148.9,143.3l-21.3,21.3H32.9c-2.2,0-4-1.8-4-4v-104c0-2.2,1.8-4,4-4h112c2.2,0,4,1.8,4,4V143.3z" class="st6"/></g></g></g><path d="M148.9,66.7h-120v-10c0-2.2,1.8-4,4-4h112c2.2,0,4,1.8,4,4V66.7z" class="st7"/><g><circle cx="50.9" cy="59.7" r="2" class="st8"/><g><line x1="50.9" x2="50.9" y1="49.3" y2="59.3" class="st9"/><path d="M50.9,59.8c-0.3,0-0.5-0.2-0.5-0.5v-10c0-0.3,0.2-0.5,0.5-0.5c0.3,0,0.5,0.2,0.5,0.5v10 C51.4,59.5,51.2,59.8,50.9,59.8z" class="st10"/></g></g><g><circle cx="126.9" cy="59.7" r="2" class="st8"/><g><line x1="126.9" x2="126.9" y1="49.3" y2="59.3" class="st9"/><path d="M126.9,59.8c-0.3,0-0.5-0.2-0.5-0.5v-10c0-0.3,0.2-0.5,0.5-0.5c0.3,0,0.5,0.2,0.5,0.5v10 C127.4,59.5,127.2,59.8,126.9,59.8z" class="st10"/></g></g></g><g class="st0"><path d="M72.3,83.2c-0.4-0.2-0.8-0.3-1-0.6l0.3-0.5c0.2,0.2,0.5,0.4,0.9,0.6c0.4,0.1,0.8,0.2,1.2,0.2 c0.6,0,1-0.1,1.3-0.3c0.3-0.2,0.4-0.5,0.4-0.8c0-0.3-0.1-0.5-0.2-0.6c-0.2-0.1-0.3-0.3-0.6-0.3s-0.5-0.2-0.9-0.3 c-0.5-0.1-0.9-0.2-1.1-0.3c-0.3-0.1-0.5-0.3-0.7-0.5c-0.2-0.2-0.3-0.5-0.3-0.9c0-0.3,0.1-0.6,0.3-0.9c0.2-0.3,0.4-0.5,0.8-0.6 c0.3-0.2,0.8-0.2,1.3-0.2c0.4,0,0.7,0,1.1,0.1c0.3,0.1,0.6,0.2,0.9,0.4l-0.2,0.5c-0.3-0.2-0.5-0.3-0.8-0.4 c-0.3-0.1-0.6-0.1-0.9-0.1c-0.6,0-1,0.1-1.2,0.3s-0.4,0.5-0.4,0.8c0,0.3,0.1,0.5,0.2,0.6c0.2,0.2,0.3,0.3,0.6,0.4 c0.2,0.1,0.5,0.2,0.9,0.3c0.5,0.1,0.8,0.2,1.1,0.3c0.3,0.1,0.5,0.3,0.7,0.5c0.2,0.2,0.3,0.5,0.3,0.9c0,0.3-0.1,0.6-0.3,0.9 c-0.2,0.3-0.4,0.5-0.8,0.6c-0.4,0.2-0.8,0.2-1.3,0.2C73.2,83.4,72.7,83.3,72.3,83.2z" class="st11"/><path d="M90.9,82.8v0.6h-4.5V77h4.3v0.6h-3.7v2.2h3.3v0.6h-3.3v2.3H90.9z" class="st11"/><path d="M105.7,77.6c0.5,0.4,0.7,0.9,0.7,1.6s-0.2,1.2-0.7,1.6c-0.5,0.4-1.1,0.6-1.9,0.6h-1.7v2h-0.7V77h2.4 C104.6,77,105.2,77.2,105.7,77.6z M105.2,80.4c0.3-0.3,0.5-0.7,0.5-1.2c0-0.5-0.2-0.9-0.5-1.2s-0.8-0.4-1.4-0.4h-1.7v3.1h1.7 C104.4,80.8,104.9,80.6,105.2,80.4z" class="st11"/></g><g class="st0"><line x1="78.5" x2="41.7" y1="148" y2="148" class="st12"/><line x1="135.3" x2="41.7" y1="135.6" y2="135.6" class="st12"/><line x1="135.3" x2="56.9" y1="123.1" y2="123.1" class="st12"/><g><g><path d="M92.3,98.5c0.3,0.3,0.4,0.6,0.4,1c0,0.3-0.1,0.5-0.2,0.7c-0.1,0.2-0.3,0.4-0.6,0.5s-0.6,0.2-1,0.2 c-0.4,0-0.7-0.1-1-0.2c-0.3-0.1-0.6-0.3-0.8-0.5l0.2-0.4c0.2,0.2,0.4,0.3,0.7,0.4c0.3,0.1,0.6,0.2,0.9,0.2 c0.4,0,0.7-0.1,0.9-0.3c0.2-0.2,0.3-0.4,0.3-0.7c0-0.3-0.1-0.5-0.3-0.7c-0.2-0.2-0.6-0.3-1-0.3h-0.3v-0.4l1.4-1.7h-2.5V96h3.1 v0.4l-1.4,1.7C91.6,98.1,92,98.2,92.3,98.5z" class="st13"/></g><g><path d="M87.1,108.4v4.9h-0.5v-4.5h-1.2v-0.4H87.1z" class="st13"/><path d="M89.2,113.1c-0.3-0.2-0.5-0.5-0.7-0.9c-0.2-0.4-0.2-0.8-0.2-1.3s0.1-1,0.2-1.3c0.2-0.4,0.4-0.7,0.7-0.9 c0.3-0.2,0.6-0.3,1-0.3c0.4,0,0.7,0.1,1,0.3c0.3,0.2,0.5,0.5,0.7,0.9c0.2,0.4,0.3,0.8,0.3,1.3s-0.1,1-0.3,1.3 c-0.2,0.4-0.4,0.7-0.7,0.9c-0.3,0.2-0.6,0.3-1,0.3C89.9,113.4,89.5,113.3,89.2,113.1z M91,112.7c0.2-0.2,0.4-0.4,0.5-0.7 c0.1-0.3,0.2-0.7,0.2-1.1s-0.1-0.8-0.2-1.1c-0.1-0.3-0.3-0.5-0.5-0.7s-0.5-0.2-0.8-0.2c-0.3,0-0.5,0.1-0.8,0.2 c-0.2,0.2-0.4,0.4-0.5,0.7c-0.1,0.3-0.2,0.7-0.2,1.1s0.1,0.8,0.2,1.1c0.1,0.3,0.3,0.5,0.5,0.7c0.2,0.2,0.5,0.2,0.8,0.2 C90.5,112.9,90.8,112.8,91,112.7z" class="st13"/></g><g><path d="M87.4,120.9v4.9h-0.5v-4.5h-1.2v-0.4H87.4z" class="st14"/><path d="M92,120.9v0.4l-2.1,4.5h-0.5l2-4.5h-2.5v0.9h-0.5v-1.4H92z" class="st14"/></g><g><path d="M88.5,137.8v0.4H85v-0.4l2-2c0.3-0.3,0.4-0.5,0.5-0.7s0.1-0.4,0.1-0.6c0-0.3-0.1-0.5-0.3-0.7 c-0.2-0.2-0.5-0.2-0.9-0.2c-0.6,0-1,0.2-1.3,0.5l-0.4-0.3c0.2-0.2,0.4-0.4,0.7-0.5c0.3-0.1,0.6-0.2,1-0.2c0.5,0,0.9,0.1,1.2,0.4 c0.3,0.2,0.4,0.6,0.4,1c0,0.3-0.1,0.5-0.2,0.7c-0.1,0.2-0.3,0.5-0.6,0.8l-1.7,1.6H88.5z" class="st14"/><path d="M93.1,136.9h-1v1.3h-0.5v-1.3h-2.8v-0.4l2.6-3.2H92l-2.5,3.2h2.1v-1.1h0.5v1.1h1V136.9z" class="st14"/></g><g><path d="M105.7,99.6h-1v1.3h-0.5v-1.3h-2.8v-0.4l2.6-3.2h0.6l-2.5,3.2h2.1V98h0.5v1.1h1V99.6z" class="st13"/></g><g><path d="M102.5,108.2v5.1H102v-4.6h-1.2v-0.5H102.5z" class="st13"/><path d="M105.1,108.2v5.1h-0.5v-4.6h-1.2v-0.5H105.1z" class="st13"/></g><g><path d="M101.6,120.9v4.9h-0.5v-4.5h-1.2v-0.4H101.6z" class="st14"/><path d="M106.3,123.7c0.2,0.2,0.2,0.5,0.2,0.7c0,0.3-0.1,0.5-0.2,0.7c-0.2,0.2-0.4,0.4-0.7,0.5s-0.6,0.2-1,0.2 c-0.6,0-1-0.1-1.4-0.4s-0.5-0.6-0.5-1c0-0.3,0.1-0.5,0.2-0.7c0.2-0.2,0.4-0.4,0.7-0.5c-0.3-0.1-0.4-0.2-0.6-0.4 c-0.1-0.2-0.2-0.4-0.2-0.7c0-0.4,0.2-0.7,0.5-0.9s0.7-0.4,1.2-0.4c0.3,0,0.6,0.1,0.9,0.2c0.3,0.1,0.5,0.3,0.6,0.5 c0.1,0.2,0.2,0.4,0.2,0.7c0,0.3-0.1,0.5-0.2,0.7c-0.1,0.2-0.3,0.3-0.6,0.4C105.9,123.3,106.1,123.5,106.3,123.7z M105.6,125.1 c0.2-0.2,0.4-0.4,0.4-0.7s-0.1-0.5-0.4-0.7s-0.6-0.3-1-0.3c-0.4,0-0.8,0.1-1,0.3s-0.4,0.4-0.4,0.7c0,0.3,0.1,0.5,0.4,0.7 s0.6,0.3,1,0.3C105,125.4,105.4,125.3,105.6,125.1z M103.7,122.8c0.2,0.2,0.5,0.2,0.9,0.2s0.7-0.1,0.9-0.2 c0.2-0.2,0.3-0.4,0.3-0.6c0-0.3-0.1-0.5-0.3-0.7c-0.2-0.2-0.5-0.2-0.9-0.2c-0.4,0-0.7,0.1-0.9,0.2c-0.2,0.2-0.3,0.4-0.3,0.6 C103.4,122.4,103.5,122.6,103.7,122.8z" class="st14"/></g><g><path d="M103.1,137.8v0.5h-3.6v-0.4l2.1-2.1c0.3-0.3,0.4-0.5,0.5-0.7s0.1-0.4,0.1-0.6c0-0.3-0.1-0.5-0.3-0.7 c-0.2-0.2-0.5-0.3-0.9-0.3c-0.6,0-1.1,0.2-1.4,0.6l-0.4-0.3c0.2-0.2,0.5-0.4,0.8-0.5c0.3-0.1,0.7-0.2,1-0.2 c0.5,0,0.9,0.1,1.2,0.4c0.3,0.2,0.5,0.6,0.5,1c0,0.3-0.1,0.5-0.2,0.8c-0.1,0.2-0.3,0.5-0.7,0.8l-1.7,1.7H103.1z" class="st14"/><path d="M106.7,135.6c0.3,0.3,0.5,0.6,0.5,1.1c0,0.3-0.1,0.6-0.2,0.8c-0.1,0.2-0.3,0.4-0.6,0.5 c-0.3,0.1-0.6,0.2-1,0.2c-0.4,0-0.7-0.1-1-0.2c-0.3-0.1-0.6-0.3-0.8-0.5l0.3-0.4c0.2,0.2,0.4,0.3,0.7,0.4 c0.3,0.1,0.6,0.2,0.9,0.2c0.4,0,0.7-0.1,1-0.3s0.3-0.4,0.3-0.8c0-0.3-0.1-0.6-0.4-0.8c-0.3-0.2-0.7-0.3-1.3-0.3h-1.1l0.3-2.6 h2.8v0.5h-2.3l-0.2,1.6h0.7C105.8,135.2,106.3,135.3,106.7,135.6z" class="st14"/></g><g><path d="M121,98.4c0.3,0.3,0.5,0.6,0.5,1.1c0,0.3-0.1,0.5-0.2,0.8c-0.1,0.2-0.3,0.4-0.6,0.5 c-0.3,0.1-0.6,0.2-1,0.2c-0.4,0-0.7-0.1-1-0.2c-0.3-0.1-0.6-0.3-0.8-0.5l0.2-0.4c0.2,0.2,0.4,0.3,0.6,0.4 c0.3,0.1,0.6,0.2,0.9,0.2c0.4,0,0.7-0.1,0.9-0.3s0.3-0.4,0.3-0.7c0-0.3-0.1-0.6-0.4-0.8c-0.3-0.2-0.7-0.3-1.3-0.3h-1l0.3-2.5 h2.7v0.4H119l-0.2,1.6h0.6C120.1,98,120.6,98.1,121,98.4z" class="st13"/></g><g><path d="M116.2,108.4v4.9h-0.5v-4.5h-1.2v-0.4H116.2z" class="st13"/><path d="M120.7,112.9v0.4h-3.4V113l2-2c0.3-0.3,0.4-0.5,0.5-0.7c0.1-0.2,0.1-0.4,0.1-0.6c0-0.3-0.1-0.5-0.3-0.7 c-0.2-0.2-0.5-0.2-0.9-0.2c-0.6,0-1,0.2-1.3,0.5l-0.4-0.3c0.2-0.2,0.4-0.4,0.7-0.5c0.3-0.1,0.6-0.2,1-0.2c0.5,0,0.9,0.1,1.2,0.4 c0.3,0.2,0.4,0.6,0.4,1c0,0.3-0.1,0.5-0.2,0.7c-0.1,0.2-0.3,0.5-0.6,0.8l-1.7,1.6H120.7z" class="st13"/></g><g><path d="M116,120.9v4.9h-0.5v-4.5h-1.2v-0.4H116z" class="st14"/><path d="M120.2,121.5c0.3,0.4,0.5,1,0.5,1.8c0,0.5-0.1,1-0.3,1.4s-0.4,0.7-0.8,0.9c-0.3,0.2-0.7,0.3-1.2,0.3 c-0.5,0-0.9-0.1-1.2-0.3l0.2-0.4c0.2,0.2,0.6,0.2,1,0.2c0.5,0,1-0.2,1.3-0.5c0.3-0.3,0.5-0.8,0.5-1.5c0-0.1,0-0.3,0-0.4 c-0.1,0.3-0.3,0.5-0.6,0.6c-0.3,0.1-0.6,0.2-0.9,0.2c-0.3,0-0.6-0.1-0.9-0.2c-0.3-0.1-0.4-0.3-0.6-0.5c-0.1-0.2-0.2-0.5-0.2-0.8 c0-0.3,0.1-0.6,0.2-0.8s0.3-0.4,0.6-0.5c0.3-0.1,0.5-0.2,0.9-0.2C119.4,120.8,119.9,121,120.2,121.5z M119.4,123.2 c0.2-0.1,0.3-0.2,0.4-0.4c0.1-0.2,0.2-0.3,0.2-0.5c0-0.2,0-0.4-0.2-0.5c-0.1-0.2-0.2-0.3-0.4-0.4c-0.2-0.1-0.4-0.1-0.7-0.1 c-0.4,0-0.6,0.1-0.9,0.3s-0.3,0.5-0.3,0.8s0.1,0.6,0.3,0.8c0.2,0.2,0.5,0.3,0.9,0.3C119,123.4,119.3,123.3,119.4,123.2z" class="st14"/></g><g><path d="M117.3,137.8v0.4h-3.4v-0.4l2-2c0.3-0.3,0.4-0.5,0.5-0.7c0.1-0.2,0.1-0.4,0.1-0.6c0-0.3-0.1-0.5-0.3-0.7 c-0.2-0.2-0.5-0.2-0.9-0.2c-0.6,0-1,0.2-1.3,0.5l-0.4-0.3c0.2-0.2,0.4-0.4,0.7-0.5c0.3-0.1,0.6-0.2,1-0.2c0.5,0,0.9,0.1,1.2,0.4 c0.3,0.2,0.4,0.6,0.4,1c0,0.3-0.1,0.5-0.2,0.7c-0.1,0.2-0.3,0.5-0.6,0.8l-1.7,1.6H117.3z" class="st14"/><path d="M120.8,135.5c0.2,0.1,0.4,0.3,0.6,0.5s0.2,0.5,0.2,0.8c0,0.3-0.1,0.6-0.2,0.8s-0.3,0.4-0.6,0.5 c-0.3,0.1-0.5,0.2-0.9,0.2c-0.6,0-1.1-0.2-1.5-0.6s-0.5-1-0.5-1.8c0-0.5,0.1-1,0.3-1.4c0.2-0.4,0.4-0.7,0.8-0.9 c0.3-0.2,0.7-0.3,1.2-0.3c0.5,0,0.9,0.1,1.2,0.3l-0.2,0.4c-0.2-0.2-0.6-0.2-1-0.2c-0.5,0-1,0.2-1.3,0.5 c-0.3,0.3-0.5,0.8-0.5,1.5c0,0.1,0,0.3,0,0.4c0.1-0.3,0.3-0.5,0.6-0.6c0.3-0.1,0.6-0.2,0.9-0.2 C120.3,135.3,120.6,135.3,120.8,135.5z M120.8,137.5c0.2-0.2,0.3-0.5,0.3-0.8s-0.1-0.6-0.3-0.8c-0.2-0.2-0.5-0.3-0.9-0.3 c-0.2,0-0.5,0-0.7,0.1c-0.2,0.1-0.3,0.2-0.4,0.4c-0.1,0.2-0.2,0.3-0.2,0.5c0,0.2,0.1,0.4,0.2,0.5c0.1,0.2,0.2,0.3,0.4,0.4 c0.2,0.1,0.4,0.1,0.7,0.1C120.3,137.8,120.5,137.7,120.8,137.5z" class="st14"/></g><g><path d="M135.2,98.1c0.2,0.1,0.4,0.3,0.6,0.5s0.2,0.5,0.2,0.8c0,0.3-0.1,0.6-0.2,0.8s-0.3,0.4-0.6,0.5 c-0.3,0.1-0.5,0.2-0.9,0.2c-0.6,0-1.1-0.2-1.5-0.6s-0.5-1-0.5-1.8c0-0.5,0.1-1,0.3-1.4c0.2-0.4,0.4-0.7,0.8-0.9 c0.3-0.2,0.7-0.3,1.2-0.3c0.5,0,0.9,0.1,1.2,0.3l-0.2,0.4c-0.2-0.2-0.6-0.2-1-0.2c-0.5,0-1,0.2-1.3,0.5 c-0.3,0.3-0.5,0.8-0.5,1.5c0,0.1,0,0.3,0,0.4c0.1-0.3,0.3-0.5,0.6-0.6c0.3-0.1,0.6-0.2,0.9-0.2C134.7,97.9,135,98,135.2,98.1z M135.2,100.2c0.2-0.2,0.3-0.5,0.3-0.8s-0.1-0.6-0.3-0.8c-0.2-0.2-0.5-0.3-0.9-0.3c-0.2,0-0.5,0-0.7,0.1 c-0.2,0.1-0.3,0.2-0.4,0.4c-0.1,0.2-0.2,0.3-0.2,0.5c0,0.2,0.1,0.4,0.2,0.5c0.1,0.2,0.2,0.3,0.4,0.4c0.2,0.1,0.4,0.1,0.7,0.1 C134.7,100.5,135,100.4,135.2,100.2z" class="st13"/></g><g><path d="M130.6,108.4v4.9h-0.5v-4.5h-1.2v-0.4H130.6z" class="st13"/><path d="M134.6,110.9c0.3,0.3,0.4,0.6,0.4,1c0,0.3-0.1,0.5-0.2,0.7c-0.1,0.2-0.3,0.4-0.6,0.5 c-0.3,0.1-0.6,0.2-1,0.2c-0.4,0-0.7-0.1-1-0.2c-0.3-0.1-0.6-0.3-0.8-0.5l0.2-0.4c0.2,0.2,0.4,0.3,0.7,0.4 c0.3,0.1,0.6,0.2,0.9,0.2c0.4,0,0.7-0.1,0.9-0.3c0.2-0.2,0.3-0.4,0.3-0.7c0-0.3-0.1-0.5-0.3-0.7c-0.2-0.2-0.6-0.3-1-0.3h-0.3 v-0.4l1.4-1.7h-2.5v-0.4h3.2v0.4l-1.4,1.7C133.9,110.5,134.3,110.7,134.6,110.9z" class="st13"/></g><g><path d="M131.5,125.3v0.4h-3.4v-0.4l2-2c0.3-0.3,0.4-0.5,0.5-0.7c0.1-0.2,0.1-0.4,0.1-0.6c0-0.3-0.1-0.5-0.3-0.7 c-0.2-0.2-0.5-0.2-0.9-0.2c-0.6,0-1,0.2-1.3,0.5l-0.4-0.3c0.2-0.2,0.4-0.4,0.7-0.5c0.3-0.1,0.6-0.2,1-0.2c0.5,0,0.9,0.1,1.2,0.4 c0.3,0.2,0.4,0.6,0.4,1c0,0.3-0.1,0.5-0.2,0.7c-0.1,0.2-0.3,0.5-0.6,0.8l-1.7,1.6H131.5z" class="st14"/><path d="M133,125.5c-0.3-0.2-0.5-0.5-0.7-0.9c-0.2-0.4-0.2-0.8-0.2-1.3s0.1-1,0.2-1.3c0.2-0.4,0.4-0.7,0.7-0.9 c0.3-0.2,0.6-0.3,1-0.3s0.7,0.1,1,0.3c0.3,0.2,0.5,0.5,0.7,0.9c0.2,0.4,0.3,0.8,0.3,1.3s-0.1,1-0.3,1.3 c-0.2,0.4-0.4,0.7-0.7,0.9c-0.3,0.2-0.6,0.3-1,0.3S133.3,125.7,133,125.5z M134.8,125.1c0.2-0.2,0.4-0.4,0.5-0.7 c0.1-0.3,0.2-0.7,0.2-1.1s-0.1-0.8-0.2-1.1c-0.1-0.3-0.3-0.5-0.5-0.7s-0.5-0.2-0.8-0.2c-0.3,0-0.5,0.1-0.8,0.2s-0.4,0.4-0.5,0.7 c-0.1,0.3-0.2,0.7-0.2,1.1s0.1,0.8,0.2,1.1c0.1,0.3,0.3,0.5,0.5,0.7s0.5,0.2,0.8,0.2C134.3,125.4,134.6,125.3,134.8,125.1z" class="st14"/></g><g><path d="M131.7,137.8v0.4h-3.4v-0.4l2-2c0.3-0.3,0.4-0.5,0.5-0.7c0.1-0.2,0.1-0.4,0.1-0.6c0-0.3-0.1-0.5-0.3-0.7 c-0.2-0.2-0.5-0.2-0.9-0.2c-0.6,0-1,0.2-1.3,0.5l-0.4-0.3c0.2-0.2,0.4-0.4,0.7-0.5c0.3-0.1,0.6-0.2,1-0.2c0.5,0,0.9,0.1,1.2,0.4 c0.3,0.2,0.4,0.6,0.4,1c0,0.3-0.1,0.5-0.2,0.7c-0.1,0.2-0.3,0.5-0.6,0.8l-1.7,1.6H131.7z" class="st14"/><path d="M135.8,133.3v0.4l-2.1,4.5h-0.5l2-4.5h-2.5v0.9h-0.5v-1.4H135.8z" class="st14"/></g><g><path d="M49.7,108.4v0.4l-2.1,4.5h-0.5l2-4.5h-2.5v0.9h-0.5v-1.4H49.7z" class="st13"/></g><g><path d="M44,120.9v4.9h-0.5v-4.5h-1.2v-0.4H44z" class="st13"/><path d="M49.4,124.5h-1v1.3h-0.5v-1.3h-2.8v-0.4l2.6-3.2h0.6l-2.5,3.2h2.1v-1.1h0.5v1.1h1V124.5z" class="st13"/></g><g><path d="M46.3,137.8v0.4h-3.4v-0.4l2-2c0.3-0.3,0.4-0.5,0.5-0.7s0.1-0.4,0.1-0.6c0-0.3-0.1-0.5-0.3-0.7 c-0.2-0.2-0.5-0.2-0.9-0.2c-0.6,0-1,0.2-1.3,0.5l-0.4-0.3c0.2-0.2,0.4-0.4,0.7-0.5c0.3-0.1,0.6-0.2,1-0.2c0.5,0,0.9,0.1,1.2,0.4 c0.3,0.2,0.4,0.6,0.4,1c0,0.3-0.1,0.5-0.2,0.7c-0.1,0.2-0.3,0.5-0.6,0.8l-1.7,1.6H46.3z" class="st14"/><path d="M48.3,133.3v4.9h-0.5v-4.5h-1.2v-0.4H48.3z" class="st14"/></g><g><path d="M45.4,150.2v0.4h-3.4v-0.4l2-2c0.3-0.3,0.4-0.5,0.5-0.7s0.1-0.4,0.1-0.6c0-0.3-0.1-0.5-0.3-0.7 c-0.2-0.2-0.5-0.2-0.9-0.2c-0.6,0-1,0.2-1.3,0.5l-0.4-0.3c0.2-0.2,0.4-0.4,0.7-0.5c0.3-0.1,0.6-0.2,1-0.2c0.5,0,0.9,0.1,1.2,0.4 c0.3,0.2,0.4,0.6,0.4,1c0,0.3-0.1,0.5-0.2,0.7c-0.1,0.2-0.3,0.5-0.6,0.8l-1.7,1.6H45.4z" class="st14"/><path d="M49.5,148.6c0.2,0.2,0.2,0.5,0.2,0.7c0,0.3-0.1,0.5-0.2,0.7c-0.2,0.2-0.4,0.4-0.7,0.5 c-0.3,0.1-0.6,0.2-1,0.2c-0.6,0-1.1-0.1-1.4-0.4s-0.5-0.6-0.5-1c0-0.3,0.1-0.5,0.2-0.7c0.2-0.2,0.4-0.4,0.7-0.5 c-0.3-0.1-0.4-0.2-0.6-0.4c-0.1-0.2-0.2-0.4-0.2-0.7c0-0.4,0.2-0.7,0.5-0.9c0.3-0.2,0.7-0.4,1.2-0.4c0.3,0,0.6,0.1,0.9,0.2 c0.3,0.1,0.5,0.3,0.6,0.5c0.1,0.2,0.2,0.4,0.2,0.7c0,0.3-0.1,0.5-0.2,0.7c-0.1,0.2-0.3,0.3-0.6,0.4 C49.1,148.2,49.4,148.4,49.5,148.6z M48.9,150c0.2-0.2,0.4-0.4,0.4-0.7s-0.1-0.5-0.4-0.7c-0.2-0.2-0.6-0.3-1-0.3 c-0.4,0-0.8,0.1-1,0.3c-0.2,0.2-0.4,0.4-0.4,0.7c0,0.3,0.1,0.5,0.4,0.7s0.6,0.3,1,0.3S48.6,150.2,48.9,150z M47,147.7 c0.2,0.2,0.5,0.2,0.9,0.2s0.7-0.1,0.9-0.2c0.2-0.2,0.3-0.4,0.3-0.6c0-0.3-0.1-0.5-0.3-0.7c-0.2-0.2-0.5-0.2-0.9-0.2 c-0.4,0-0.7,0.1-0.9,0.2c-0.2,0.2-0.3,0.4-0.3,0.6C46.7,147.3,46.8,147.5,47,147.7z" class="st14"/></g><g><path d="M62.8,96v4.9h-0.5v-4.5h-1.2V96H62.8z" class="st13"/></g><g><path d="M63.9,111.2c0.2,0.2,0.2,0.5,0.2,0.7c0,0.3-0.1,0.5-0.2,0.7c-0.2,0.2-0.4,0.4-0.7,0.5 c-0.3,0.1-0.6,0.2-1,0.2c-0.6,0-1.1-0.1-1.4-0.4s-0.5-0.6-0.5-1c0-0.3,0.1-0.5,0.2-0.7c0.2-0.2,0.4-0.4,0.7-0.5 c-0.3-0.1-0.4-0.2-0.6-0.4c-0.1-0.2-0.2-0.4-0.2-0.7c0-0.4,0.2-0.7,0.5-0.9c0.3-0.2,0.7-0.4,1.2-0.4c0.3,0,0.6,0.1,0.9,0.2 c0.3,0.1,0.5,0.3,0.6,0.5c0.1,0.2,0.2,0.4,0.2,0.7c0,0.3-0.1,0.5-0.2,0.7c-0.1,0.2-0.3,0.3-0.6,0.4 C63.5,110.9,63.8,111,63.9,111.2z M63.3,112.7c0.2-0.2,0.4-0.4,0.4-0.7s-0.1-0.5-0.4-0.7c-0.2-0.2-0.6-0.3-1-0.3 c-0.4,0-0.8,0.1-1,0.3c-0.2,0.2-0.4,0.4-0.4,0.7c0,0.3,0.1,0.5,0.4,0.7s0.6,0.3,1,0.3S63.1,112.8,63.3,112.7z M61.4,110.3 c0.2,0.2,0.5,0.2,0.9,0.2s0.7-0.1,0.9-0.2c0.2-0.2,0.3-0.4,0.3-0.6c0-0.3-0.1-0.5-0.3-0.7c-0.2-0.2-0.5-0.2-0.9-0.2 c-0.4,0-0.7,0.1-0.9,0.2c-0.2,0.2-0.3,0.4-0.3,0.6C61.1,110,61.2,110.2,61.4,110.3z" class="st13"/></g><g><path d="M58.7,120.9v4.9h-0.5v-4.5h-1.2v-0.4H58.7z" class="st14"/><path d="M62.7,123.3c0.3,0.3,0.5,0.6,0.5,1.1c0,0.3-0.1,0.5-0.2,0.8c-0.1,0.2-0.3,0.4-0.6,0.5 c-0.3,0.1-0.6,0.2-1,0.2c-0.4,0-0.7-0.1-1-0.2s-0.6-0.3-0.8-0.5l0.2-0.4c0.2,0.2,0.4,0.3,0.6,0.4c0.3,0.1,0.6,0.2,0.9,0.2 c0.4,0,0.7-0.1,0.9-0.3c0.2-0.2,0.3-0.4,0.3-0.7c0-0.3-0.1-0.6-0.4-0.8c-0.3-0.2-0.7-0.3-1.3-0.3h-1l0.3-2.5H63v0.4h-2.2 l-0.2,1.6h0.6C61.9,122.9,62.4,123,62.7,123.3z" class="st14"/></g><g><path d="M60,137.8v0.4h-3.4v-0.4l2-2c0.3-0.3,0.4-0.5,0.5-0.7s0.1-0.4,0.1-0.6c0-0.3-0.1-0.5-0.3-0.7 c-0.2-0.2-0.5-0.2-0.9-0.2c-0.6,0-1,0.2-1.3,0.5l-0.4-0.3c0.2-0.2,0.4-0.4,0.7-0.5c0.3-0.1,0.6-0.2,1-0.2c0.5,0,0.9,0.1,1.2,0.4 c0.3,0.2,0.4,0.6,0.4,1c0,0.3-0.1,0.5-0.2,0.7c-0.1,0.2-0.3,0.5-0.6,0.8l-1.7,1.6H60z" class="st14"/><path d="M64,137.8v0.4h-3.4v-0.4l2-2c0.3-0.3,0.4-0.5,0.5-0.7s0.1-0.4,0.1-0.6c0-0.3-0.1-0.5-0.3-0.7 c-0.2-0.2-0.5-0.2-0.9-0.2c-0.6,0-1,0.2-1.3,0.5l-0.4-0.3c0.2-0.2,0.4-0.4,0.7-0.5c0.3-0.1,0.6-0.2,1-0.2c0.5,0,0.9,0.1,1.2,0.4 c0.3,0.2,0.4,0.6,0.4,1c0,0.3-0.1,0.5-0.2,0.7c-0.1,0.2-0.3,0.5-0.6,0.8l-1.7,1.6H64z" class="st14"/></g><g><path d="M59.8,150.2v0.4h-3.4v-0.4l2-2c0.3-0.3,0.4-0.5,0.5-0.7s0.1-0.4,0.1-0.6c0-0.3-0.1-0.5-0.3-0.7 c-0.2-0.2-0.5-0.2-0.9-0.2c-0.6,0-1,0.2-1.3,0.5l-0.4-0.3c0.2-0.2,0.4-0.4,0.7-0.5c0.3-0.1,0.6-0.2,1-0.2c0.5,0,0.9,0.1,1.2,0.4 c0.3,0.2,0.4,0.6,0.4,1c0,0.3-0.1,0.5-0.2,0.7c-0.1,0.2-0.3,0.5-0.6,0.8l-1.7,1.6H59.8z" class="st14"/><path d="M63.5,146.4c0.3,0.4,0.5,1,0.5,1.8c0,0.5-0.1,1-0.3,1.4c-0.2,0.4-0.4,0.7-0.8,0.9 c-0.3,0.2-0.7,0.3-1.2,0.3c-0.5,0-0.9-0.1-1.2-0.3l0.2-0.4c0.2,0.2,0.6,0.2,1,0.2c0.5,0,1-0.2,1.3-0.5c0.3-0.3,0.5-0.8,0.5-1.5 c0-0.1,0-0.3,0-0.4c-0.1,0.3-0.3,0.5-0.6,0.6c-0.3,0.1-0.6,0.2-0.9,0.2c-0.3,0-0.6-0.1-0.9-0.2c-0.3-0.1-0.4-0.3-0.6-0.5 c-0.1-0.2-0.2-0.5-0.2-0.8c0-0.3,0.1-0.6,0.2-0.8c0.1-0.2,0.3-0.4,0.6-0.5c0.3-0.1,0.5-0.2,0.9-0.2 C62.6,145.7,63.1,145.9,63.5,146.4z M62.7,148.1c0.2-0.1,0.3-0.2,0.4-0.4c0.1-0.2,0.2-0.3,0.2-0.5c0-0.2-0.1-0.4-0.2-0.5 c-0.1-0.2-0.2-0.3-0.4-0.4c-0.2-0.1-0.4-0.1-0.7-0.1c-0.4,0-0.6,0.1-0.9,0.3s-0.3,0.5-0.3,0.8s0.1,0.6,0.3,0.8 c0.2,0.2,0.5,0.3,0.9,0.3C62.3,148.3,62.5,148.2,62.7,148.1z" class="st14"/></g><g><path d="M78.4,100.4v0.4h-3.4v-0.4l2-2c0.3-0.3,0.4-0.5,0.5-0.7s0.1-0.4,0.1-0.6c0-0.3-0.1-0.5-0.3-0.7 c-0.2-0.2-0.5-0.2-0.9-0.2c-0.6,0-1,0.2-1.3,0.5l-0.4-0.3c0.2-0.2,0.4-0.4,0.7-0.5c0.3-0.1,0.6-0.2,1-0.2c0.5,0,0.9,0.1,1.2,0.4 c0.3,0.2,0.4,0.6,0.4,1c0,0.3-0.1,0.5-0.2,0.7c-0.1,0.2-0.3,0.5-0.6,0.8l-1.7,1.6H78.4z" class="st13"/></g><g><path d="M77.9,109c0.3,0.4,0.5,1,0.5,1.8c0,0.5-0.1,1-0.3,1.4c-0.2,0.4-0.4,0.7-0.8,0.9c-0.3,0.2-0.7,0.3-1.2,0.3 c-0.5,0-0.9-0.1-1.2-0.3l0.2-0.4c0.2,0.2,0.6,0.2,1,0.2c0.5,0,1-0.2,1.3-0.5c0.3-0.3,0.5-0.8,0.5-1.5c0-0.1,0-0.3,0-0.4 c-0.1,0.3-0.3,0.5-0.6,0.6c-0.3,0.1-0.6,0.2-0.9,0.2c-0.3,0-0.6-0.1-0.9-0.2c-0.3-0.1-0.4-0.3-0.6-0.5c-0.1-0.2-0.2-0.5-0.2-0.8 c0-0.3,0.1-0.6,0.2-0.8c0.1-0.2,0.3-0.4,0.6-0.5c0.3-0.1,0.5-0.2,0.9-0.2C77.1,108.4,77.6,108.6,77.9,109z M77.1,110.8 c0.2-0.1,0.3-0.2,0.4-0.4c0.1-0.2,0.2-0.3,0.2-0.5c0-0.2-0.1-0.4-0.2-0.5c-0.1-0.2-0.2-0.3-0.4-0.4c-0.2-0.1-0.4-0.1-0.7-0.1 c-0.4,0-0.6,0.1-0.9,0.3s-0.3,0.5-0.3,0.8s0.1,0.6,0.3,0.8c0.2,0.2,0.5,0.3,0.9,0.3C76.7,110.9,76.9,110.9,77.1,110.8z" class="st13"/></g><g><path d="M72.9,120.9v4.9h-0.5v-4.5h-1.2v-0.4H72.9z" class="st14"/><path d="M77,123c0.2,0.1,0.4,0.3,0.6,0.5s0.2,0.5,0.2,0.8c0,0.3-0.1,0.6-0.2,0.8c-0.1,0.2-0.3,0.4-0.6,0.5 c-0.3,0.1-0.5,0.2-0.9,0.2c-0.6,0-1.1-0.2-1.5-0.6c-0.3-0.4-0.5-1-0.5-1.8c0-0.5,0.1-1,0.3-1.4s0.4-0.7,0.8-0.9 c0.3-0.2,0.7-0.3,1.2-0.3c0.5,0,0.9,0.1,1.2,0.3l-0.2,0.4c-0.2-0.2-0.6-0.2-1-0.2c-0.5,0-1,0.2-1.3,0.5 c-0.3,0.3-0.5,0.8-0.5,1.5c0,0.1,0,0.3,0,0.4c0.1-0.3,0.3-0.5,0.6-0.6c0.3-0.1,0.6-0.2,0.9-0.2C76.5,122.8,76.7,122.9,77,123z M77,125.1c0.2-0.2,0.3-0.5,0.3-0.8s-0.1-0.6-0.3-0.8c-0.2-0.2-0.5-0.3-0.9-0.3c-0.2,0-0.5,0-0.7,0.1s-0.3,0.2-0.4,0.4 c-0.1,0.2-0.2,0.3-0.2,0.5c0,0.2,0,0.4,0.2,0.5c0.1,0.2,0.2,0.3,0.4,0.4c0.2,0.1,0.4,0.1,0.7,0.1 C76.5,125.4,76.7,125.3,77,125.1z" class="st14"/></g><g><path d="M74.4,137.8v0.4h-3.4v-0.4l2-2c0.3-0.3,0.4-0.5,0.5-0.7s0.1-0.4,0.1-0.6c0-0.3-0.1-0.5-0.3-0.7 c-0.2-0.2-0.5-0.2-0.9-0.2c-0.6,0-1,0.2-1.3,0.5l-0.4-0.3c0.2-0.2,0.4-0.4,0.7-0.5c0.3-0.1,0.6-0.2,1-0.2c0.5,0,0.9,0.1,1.2,0.4 c0.3,0.2,0.4,0.6,0.4,1c0,0.3-0.1,0.5-0.2,0.7c-0.1,0.2-0.3,0.5-0.6,0.8l-1.7,1.6H74.4z" class="st14"/><path d="M77.8,135.8c0.3,0.3,0.4,0.6,0.4,1c0,0.3-0.1,0.5-0.2,0.7c-0.1,0.2-0.3,0.4-0.6,0.5 c-0.3,0.1-0.6,0.2-1,0.2c-0.4,0-0.7-0.1-1-0.2c-0.3-0.1-0.6-0.3-0.8-0.5l0.2-0.4c0.2,0.2,0.4,0.3,0.7,0.4 c0.3,0.1,0.6,0.2,0.9,0.2c0.4,0,0.7-0.1,0.9-0.3c0.2-0.2,0.3-0.4,0.3-0.7c0-0.3-0.1-0.5-0.3-0.7c-0.2-0.2-0.6-0.3-1-0.3H76v-0.4 l1.4-1.7h-2.5v-0.4H78v0.4l-1.4,1.7C77.2,135.4,77.6,135.6,77.8,135.8z" class="st14"/></g><g><path d="M73.5,148.3c0.3,0.3,0.4,0.6,0.4,1c0,0.3-0.1,0.5-0.2,0.7c-0.1,0.2-0.3,0.4-0.6,0.5 c-0.3,0.1-0.6,0.2-1,0.2c-0.4,0-0.7-0.1-1-0.2c-0.3-0.1-0.6-0.3-0.8-0.5l0.2-0.4c0.2,0.2,0.4,0.3,0.7,0.4 c0.3,0.1,0.6,0.2,0.9,0.2c0.4,0,0.7-0.1,0.9-0.3c0.2-0.2,0.3-0.4,0.3-0.7c0-0.3-0.1-0.5-0.3-0.7c-0.2-0.2-0.6-0.3-1-0.3h-0.4 v-0.4l1.4-1.7h-2.5v-0.4h3.1v0.4l-1.4,1.7C72.9,147.9,73.3,148,73.5,148.3z" class="st14"/><path d="M75.6,150.4c-0.3-0.2-0.5-0.5-0.7-0.9c-0.2-0.4-0.2-0.8-0.2-1.3s0.1-1,0.2-1.3c0.2-0.4,0.4-0.7,0.7-0.9 c0.3-0.2,0.6-0.3,1-0.3s0.7,0.1,1,0.3c0.3,0.2,0.5,0.5,0.7,0.9c0.2,0.4,0.3,0.8,0.3,1.3s-0.1,1-0.3,1.3 c-0.2,0.4-0.4,0.7-0.7,0.9c-0.3,0.2-0.6,0.3-1,0.3S75.9,150.6,75.6,150.4z M77.3,150c0.2-0.2,0.4-0.4,0.5-0.7 c0.1-0.3,0.2-0.7,0.2-1.1s-0.1-0.8-0.2-1.1c-0.1-0.3-0.3-0.5-0.5-0.7c-0.2-0.2-0.5-0.2-0.8-0.2s-0.5,0.1-0.8,0.2 c-0.2,0.2-0.4,0.4-0.5,0.7c-0.1,0.3-0.2,0.7-0.2,1.1s0.1,0.8,0.2,1.1c0.1,0.3,0.3,0.5,0.5,0.7c0.2,0.2,0.5,0.2,0.8,0.2 S77.1,150.2,77.3,150z" class="st14"/></g></g></g><path d="M148.9,143.3h-17.3c-2.2,0-4,1.8-4,4v17.3L148.9,143.3z" class="st15"/><rect id="XMLID_7_" width="178" height="190" x="0" y="0" class="st16"/><g class="st0"><rect width="10" height="10" x="12.2" y="177.6" class="st17" transform="matrix(-0.4678 -0.8838 0.8838 -0.4678 -136.1071 283.3123)"/><circle cx="161.2" cy="87.9" r="4.1" class="st17"/><polygon points="43.6 24.7 63.9 30.4 50.3 13.5" class="st17"/></g><rect width="178" height="199" x="0" y="0" class="st16"/></g></svg>