<svg xmlns="http://www.w3.org/2000/svg" xmlns:xlink="http://www.w3.org/1999/xlink" id="Layer_1" x="0" y="0" version="1.1" viewBox="0 0 178 199" xml:space="preserve" style="enable-background:new 0 0 178 199"><style type="text/css">.st0{clip-path:url(#SVGID_2_)}.st1{fill:none}.st2{fill:#babef7}.st2,.st3,.st4{opacity:.1}.st3{fill:#dcdffb}.st4{fill:#fff}.st5{fill:#7cbfd9;stroke:#3f02a8;stroke-width:.5;stroke-miterlimit:10}.st6{opacity:.3;fill:#525dea;enable-background:new}.st7,.st8{fill:#bbbac5;stroke:#3f02a8;stroke-width:.5;stroke-miterlimit:10}.st8{fill:#fefefe;stroke:#5b60c1;stroke-linecap:round;stroke-linejoin:round}.st9{opacity:.4}.st10{fill:#525dea}.st11{fill:#dcdffb;stroke-width:.5;stroke-linecap:round;stroke-linejoin:round;stroke-miterlimit:10}.st11,.st12,.st13{stroke:#3f02a8}.st12,.st13,.st14,.st15,.st16{stroke-width:.5;stroke-linecap:round;stroke-linejoin:round;stroke-miterlimit:10}.st12{fill:#525dea}.st13{fill:none}.st14{fill:#ff227d;stroke:#671cc9}.st15{fill:#c59852;stroke:#3f02a8}.st16{fill:none;stroke:#671cc9}.st17{fill:#3f02a8}.st18{fill:#dcdffb;stroke:#5b60c1;stroke-width:.5;stroke-miterlimit:10}.st18,.st19,.st20{stroke-linecap:round;stroke-linejoin:round}.st19{fill:none;stroke:#5b60c1;stroke-width:.5;stroke-miterlimit:10}.st20{fill:#dcdffb;stroke:#671cc9}.st20,.st21,.st22{stroke-width:.5;stroke-miterlimit:10}.st21{fill:#797bf2;stroke:#5b60c1;stroke-linecap:round;stroke-linejoin:round}.st22{fill:#525dea;stroke:#3f02a8}.st23{fill:#844bdd}.st24{opacity:.3;clip-path:url(#SVGID_4_);fill:#525dea;enable-background:new}.st25{fill:#525dea;stroke:#5b60c1;stroke-width:.5;stroke-linecap:round;stroke-linejoin:round;stroke-miterlimit:10}.st26{opacity:.1}.st27{opacity:.3}.st28,.st29{fill:#ff227d;stroke:#5b60c1;stroke-width:.5;stroke-linecap:round;stroke-linejoin:round;stroke-miterlimit:10}.st29{fill:#ff57a4;stroke:#3f02a8}.st30{opacity:.1;fill:#4d4c4d;enable-background:new}.st31,.st32{fill:#fff;stroke:#ff57a4;stroke-width:.5;stroke-miterlimit:10}.st32{fill:#4b28c4;stroke:#3f02a8}.st33{clip-path:url(#SVGID_6_)}.st33,.st34,.st35,.st36{opacity:.3;fill:#525dea;enable-background:new}.st34{clip-path:url(#SVGID_8_)}.st35{clip-path:url(#SVGID_10_)}.st36{clip-path:url(#SVGID_12_)}.st37{fill:none;stroke:#ff57a4;stroke-width:.5;stroke-miterlimit:10}</style><g><defs><rect id="SVGID_1_" width="178" height="198.5"/></defs><clipPath id="SVGID_2_"><use xlink:href="#SVGID_1_" style="overflow:visible"/></clipPath><g class="st0"><rect width="178" height="198.5" class="st1"/><g><g><g><image style="overflow:visible;opacity:.1;enable-background:new" width="940" height="320" transform="matrix(1 0 0 1 -207 -32.7)" xlink:href="790CE984.html"/><g><g><path d="M610.3,96.7c-6.1,0-11.9,0.7-17.5,1.9c-7.2-38.9-52.8-68.9-107.9-68.8c-50.8,0.1-93.4,25.6-105.3,60.1 c-5.7-1-11.8-1.6-18-1.6c-21.1,0-40.1,6.5-53.5,16.9C290,91.7,264.8,83.3,237,83.3c-8.5,0-16.7,0.8-24.5,2.3 c-6.7-11.8-22.6-20-41.2-20c-24.6,0-44.5,14.6-44.5,32.7c0,0.6,0,1.3,0.1,1.9c-6.4-1.8-13.2-3-20.3-3.6 C94.2,69.4,59.1,39.9,17.9,39.9c-51.6,0.1-93.3,40.7-93.3,78.4c0,0.6,0,1.2,0,1.8c-6-1.8-12.5-2.7-19.4-2.7 c-28.5,0-51.5,16.9-51.5,37.8c0,20.8,23.2,37.7,51.6,37.6c22.3,0,41.3-10.4,48.4-24.9c16.8,11.6,39.4,18.7,64.3,18.7 c1.5,0,2.9,0,4.3-0.1c14.1,19.6,42.3,32.9,74.6,32.8c24.1,0,45.7-7.4,61.1-19.3c18.2,17.4,46.9,28.7,79.2,28.6 c38.4,0,71.6-16,88.1-39.3c10.8,4.5,23.2,7,36.5,7c24.6,0,46.4-8.9,59.8-22.4c17.9,9.4,39.9,14.9,63.6,14.9 c28.7,0,54.8-8.2,74.2-21.6c11.1,11.9,29.8,19.7,51,19.6c34.1,0,61.6-20.3,61.6-45.2C672,116.8,644.3,96.7,610.3,96.7z" class="st2"/></g></g></g><g><image style="overflow:visible;opacity:.1;enable-background:new" width="852" height="246" transform="matrix(0.9986 0 0 0.9986 -140.3277 36.2481)" xlink:href="790CE98A.html"/><g><g><path d="M-2.1,102.8c19.2-0.3,37,4.4,51,12.4c5.9-4.9,14.5-8,24.1-8.2c18-0.2,33,10,34,23 c12.5-17.8,37.6-30.1,66.8-30.6c36.2-0.6,67.2,17.2,76.1,41.8c11.8,0.5,22.5,4,30.8,9.5c4.6-1.2,9.5-1.9,14.6-2 c0.2,0,0.3,0,0.5,0c10.7-19.5,36.4-33.4,66.9-33.9c28.5-0.5,53.7,11,66.4,28.2c2.5-0.7,5.1-1.2,7.8-1.5 c0-0.4-0.1-0.8-0.1-1.2c-0.5-17.9,18.9-32.8,43.4-33.2c11.9-0.2,22.8,3.1,31,8.5c14.4-9.6,33.3-15.5,54.3-15.9 c46-0.7,84.1,25.9,85.1,59.6s-35.5,61.6-81.5,62.3c-32.7,0.5-61.5-12.8-75.7-32.7c-6.5,14.2-24.6,24.6-46.3,25 c-11.4,0.2-22-2.5-30.6-7c-13,9.5-30.8,15.5-50.6,15.9c-17.4,0.3-33.5-3.9-46.3-11c-6.6,2.8-14.2,4.5-22.3,4.6 c-9.7,0.2-18.8-1.9-26.4-5.5c-6.9,2.8-14.8,4.4-23.1,4.5c-13.7,0.2-26.3-3.6-35.7-9.9c-10.4,4.1-22.3,6.5-34.9,6.8 c-34.2,0.6-63.7-15.3-74.4-37.7c-4.2,1.5-8.9,2.4-13.9,2.5c-4.1,0.1-8-0.4-11.6-1.3c-8.5,24.9-39,43.7-75.8,44.3 c-44.2,0.7-80.8-24.9-81.7-57.2C-81.2,130.3-46.2,103.5-2.1,102.8z" class="st3"/></g></g></g><g><image style="overflow:visible;opacity:.1;enable-background:new" width="874" height="299" transform="matrix(0.9986 0 0 0.9986 -162.6996 63.4158)" xlink:href="790CE98B.html"/><g><g><path d="M-47.5,190.7c5.6-0.1,11,0.3,16.1,1.3c4.8-35.9,45.3-64.5,95.9-65.8c46.6-1.2,86.9,21.2,99.4,52.6 c5.2-1.1,10.7-1.8,16.4-1.9c19.4-0.5,37.1,5,49.9,14.2c16-12.8,38.7-21.1,64.3-21.8c7.8-0.2,15.3,0.3,22.6,1.5 c5.6-11,19.9-18.9,36.9-19.4c22.6-0.6,41.5,12.4,42.3,28.9c0,0.6,0,1.2,0,1.7c5.8-1.8,12-3.1,18.5-3.8 c10.2-25.2,41.4-44,79.3-45c47.4-1.2,87.1,25.9,88.7,60.6c0,0.6,0,1.1,0,1.7c5.4-1.8,11.4-2.8,17.7-3 c26.1-0.7,48,14.3,49,33.4c0.9,19.1-19.5,35.2-45.7,35.8c-20.5,0.5-38.4-8.6-45.6-21.7c-14.9,11.1-35.3,18.1-58.2,18.7 c-1.3,0-2.7,0-4,0c-12.1,18.3-37.3,31.2-67,32c-22.1,0.6-42.3-5.7-56.9-16.2c-15.9,16.4-41.7,27.5-71.3,28.2 c-35.2,0.9-66.4-12.9-82.6-33.9c-9.7,4.4-21,7-33.2,7.3c-22.6,0.6-43-7-55.9-19.1c-16,9.1-35.9,14.7-57.7,15.2 c-26.4,0.7-50.7-6.2-69.1-18c-9.7,11.2-26.5,18.8-45.9,19.3c-31.3,0.8-57.5-17.1-58.6-40C-103.3,210.7-78.8,191.5-47.5,190.7 z" class="st4"/></g></g></g><g><g><g><path d="M27.5,141.9c-1.4,0-1.4,1-2.8,1s-1.4-1-2.8-1s-1.4,1-2.8,1s-1.4-1-2.8-1s-1.4,1-2.8,1s-1.4-1-2.8-1 s-1.4,1-2.8,1s-1.4-1-2.8-1v2.5h22.5c0.7,0,1.3-0.6,1.3-1.3C28.8,142.4,28.2,141.9,27.5,141.9z" class="st5"/></g><path d="M4.7,143.2h22.8c0.7,0,1.3,0.2,1.3,0.6c0,0.4-0.6,0.8-1.3,0.8H4.7V143.2z" class="st6"/><path d="M5,141.9h-62.5c-0.7,0-1.3,0.6-1.3,1.3s0.6,1.3,1.3,1.3H5v-1.3V141.9z" class="st7"/><path d="M5.3,143.2h-62.8c-0.7,0-1.3,0.3-1.3,0.7c0,0,0.4,0.7,1.3,0.7H5.3V143.2z" class="st6"/><g><path d="M31,163h-92c-2.2,0-4-1.8-4-4V67c0-2.2,1.8-4,4-4h92c2.2,0,4,1.8,4,4v92C35,161.2,33.2,163,31,163z" class="st8"/><g class="st9"><polygon points="7.8 114.4 1.4 114.4 1.4 111 .3 111 .3 108.7 -.7 108.7 -.7 106.3 -2.1 106.3 -2.1 104 -2.4 104 -2.4 106.3 -3.9 106.3 -3.9 108.7 -4.9 108.7 -4.9 111 -6 111 -6 119.3 -15.9 119.3 -15.9 114.7 -16.9 114.7 -16.9 108.5 -18.2 108.5 -18.2 106.9 -18.9 106.9 -18.9 106 -25 106 -25 106.9 -25.7 106.9 -25.7 108.5 -27 108.5 -27 114.7 -28.2 114.7 -28.2 128.9 -29.1 128.9 -29.1 141.9 15 141.7 15 115.4 7.8 115.4" class="st10"/><polygon points="27.5 125.1 27.5 123.2 26.6 123.2 26.6 119.9 25.7 119.9 25.7 118.4 25.2 118.4 25.2 114.3 25.1 114.3 25.1 118.4 24.6 118.4 24.6 119.9 23.7 119.9 23.7 121.7 17.5 121.7 17.5 141.9 28.6 141.9 28.6 125.1" class="st10"/><polygon points="-32.5 109.1 -38 109.1 -38 111.9 -40.4 111.9 -40.4 114.4 -43.4 114.4 -43.4 124.5 -48 124.5 -48 116.8 -54.8 120.6 -54.8 128.3 -57.3 129.5 -57.3 141.7 -57.3 141.7 -30.3 141.9 -30.3 111.9 -32.5 111.9" class="st10"/></g><g><polygon points="-23.8 135.4 -38.1 135.4 -36.1 90.4 -25.8 90.4" class="st11"/><rect width="14.3" height="6.3" x="-38.1" y="135.4" class="st11"/><path d="M-27.4,90.4h-7.1v-1.3c0-0.7,0.8-1.3,1.8-1.3l0,0h3.6c1,0,1.8,0.6,1.8,1.3L-27.4,90.4L-27.4,90.4z" class="st12"/><rect width="4.3" height="2.5" x="-34.5" y="139.1" class="st12"/><line x1="-30.9" x2="-30.9" y1="75.4" y2="87.9" class="st13"/><path d="M-31.9,79.5L-31.9,79.5c0,0.3,0.3,0.5,0.7,0.5h0.5c0.4,0,0.7-0.2,0.7-0.5l0,0c0-0.3-0.3-0.5-0.7-0.5 h-0.5C-31.6,79-31.9,79.3-31.9,79.5z" class="st11"/><polygon points="-31.8 90.4 -26.7 135.4 -38.1 135.4" class="st11"/><rect width="2.9" height="6.3" x="-26.6" y="135.4" class="st11"/><polygon points="-25.8 90.4 -26.7 135.4 -23.8 135.4" class="st11"/><polygon points="-31.8 90.4 -36.1 90.4 -38.1 135.4" class="st11"/><polygon points="-26.7 135.4 -31.8 90.4 -25.8 90.4" class="st11"/><path d="M-23.4,135.4L-23.4,135.4l-2-45l0,0l0,0l0,0l0,0l0,0l0,0l0,0l0,0l0,0l0,0l0,0l0,0l0,0h-0.1l0,0H-27v-1 c0-0.8-1-1.5-2.1-1.5h-1.8c-0.2,0-0.4,0.1-0.4,0.3v2.3h-0.5c-0.1,0-0.2,0-0.3,0.1s-0.1,0.1-0.1,0.2l5.1,45v6.2 c0,0.1,0.2,0.3,0.4,0.3h2.9c0.2,0,0.4-0.1,0.4-0.3L-23.4,135.4L-23.4,135.4z" class="st6"/></g><g><path d="M-14.3,93.8H-16v-8c0-0.4,0.3-0.8,0.7-0.8h0.3c0.4,0,0.8,0.3,0.8,0.8v8H-14.3z" class="st14"/><path d="M-16.9,88.1V90h3.5v-1.9c0-0.9-0.8-1.5-1.8-1.5l0,0C-16.1,86.6-16.9,87.3-16.9,88.1z" class="st14"/><path d="M-17.3,89.9v2.4h4.4v-2.4c0-1.1-1-1.9-2.2-1.9l0,0C-16.4,88-17.3,88.8-17.3,89.9z" class="st14"/><path d="M-17.8,91.6v2.8h5.3v-2.8c0-1.3-1.2-2.3-2.6-2.3l0,0C-16.6,89.3-17.8,90.3-17.8,91.6z" class="st14"/><path d="M-18.4,93.6V97h6.5v-3.5c0-1.6-1.4-2.8-3.2-2.8l0,0C-16.9,90.8-18.4,91.9-18.4,93.6z" class="st14"/><polygon points="-19.6 141.7 -10.7 141.7 -10.7 102.4 -10.1 101.2 -20.1 101.2 -19.6 102.4" class="st14"/><polygon points="-12.2 134.2 -12.2 137.9 -18.1 137.9 -18.1 134.2 -22.5 134.2 -22.5 141.7 -7.8 141.7 -7.8 134.2" class="st14"/><path d="M-19,95.7v4.3h7.6v-4.3c0-1.8-1.7-3.3-3.8-3.3l0,0C-17.3,92.4-19,93.9-19,95.7z" class="st14"/><g><path d="M-16.6,99.9v-4.3c0-0.7,0.7-1.3,1.5-1.3s1.5,0.6,1.5,1.3v4.3H-16.6z" class="st13"/></g><rect width="3.7" height="3.8" x="-12.2" y="130.4" class="st14"/><rect width="3.7" height="3.8" x="-21.8" y="130.4" class="st14"/><polygon points="-12.2 130.4 -9.3 130.4 -9.3 129.2 -10 129.2 -12.2 129.2" class="st14"/><polygon points="-19.6 101.2 -10.7 101.2 -10.7 99.9 -12.9 99.9 -19.6 99.9" class="st14"/><polygon points="-18.1 129.2 -20.3 129.2 -21 129.2 -21 130.4 -18.1 130.4" class="st14"/><polyline points="-18.1 126.2 -20.9 126.2 -20.3 126.7 -20.3 129.2 -18.1 129.2" class="st14"/><polyline points="-12.2 129.2 -10 129.2 -10 126.7 -9.4 126.2 -12.2 126.2" class="st14"/><line x1="-22.5" x2="-7.8" y1="140.4" y2="140.4" class="st13"/><rect width="4.4" height="3.8" x="-17.3" y="137.9" class="st14"/><path d="M-14.4,141.7h-1.5v-1.9c0-0.3,0.3-0.6,0.6-0.6h0.2c0.3,0,0.6,0.3,0.6,0.6L-14.4,141.7L-14.4,141.7z" class="st15"/><line x1="-15.1" x2="-15.1" y1="80" y2="85" class="st16"/><g><g><line x1="-19.3" x2="-19.3" y1="133.2" y2="132.7" class="st13"/><line x1="-20.5" x2="-20.5" y1="133.2" y2="132.7" class="st13"/></g><g><line x1="-19.3" x2="-19.3" y1="131.9" y2="131.4" class="st13"/><line x1="-20.5" x2="-20.5" y1="131.9" y2="131.4" class="st13"/></g><g><line x1="-9.7" x2="-9.7" y1="133.2" y2="132.7" class="st13"/><line x1="-11" x2="-11" y1="133.2" y2="132.7" class="st13"/></g><g><line x1="-9.7" x2="-9.7" y1="131.9" y2="131.4" class="st13"/><line x1="-11" x2="-11" y1="131.9" y2="131.4" class="st13"/></g><g><line x1="-8.9" x2="-8.9" y1="135.7" y2="135.2" class="st13"/><line x1="-10" x2="-10" y1="135.7" y2="135.2" class="st13"/><line x1="-11.1" x2="-11.1" y1="135.7" y2="135.2" class="st13"/></g><g><line x1="-8.9" x2="-8.9" y1="137.5" y2="137" class="st13"/><line x1="-10" x2="-10" y1="137.5" y2="137" class="st13"/><line x1="-11.1" x2="-11.1" y1="137.5" y2="137" class="st13"/></g><g><line x1="-8.9" x2="-8.9" y1="139.4" y2="138.9" class="st13"/><line x1="-10" x2="-10" y1="139.4" y2="138.9" class="st13"/><line x1="-11.1" x2="-11.1" y1="139.4" y2="138.9" class="st13"/></g><g><line x1="-13.7" x2="-13.7" y1="136.9" y2="136.4" class="st13"/><line x1="-15.1" x2="-15.1" y1="136.9" y2="136.4" class="st13"/><line x1="-16.6" x2="-16.6" y1="136.9" y2="136.4" class="st13"/></g><g><line x1="-13.7" x2="-13.7" y1="133.9" y2="133.4" class="st13"/><line x1="-15.1" x2="-15.1" y1="133.9" y2="133.4" class="st13"/><line x1="-16.6" x2="-16.6" y1="133.9" y2="133.4" class="st13"/></g><g><line x1="-13.7" x2="-13.7" y1="135.4" y2="134.9" class="st13"/><line x1="-15.1" x2="-15.1" y1="135.4" y2="134.9" class="st13"/><line x1="-16.6" x2="-16.6" y1="135.4" y2="134.9" class="st13"/></g><g><line x1="-13.7" x2="-13.7" y1="132.4" y2="131.9" class="st13"/><line x1="-15.1" x2="-15.1" y1="132.4" y2="131.9" class="st13"/><line x1="-16.6" x2="-16.6" y1="132.4" y2="131.9" class="st13"/></g><g><line x1="-13.7" x2="-13.7" y1="130.9" y2="130.4" class="st13"/><line x1="-15.1" x2="-15.1" y1="130.9" y2="130.4" class="st13"/><line x1="-16.6" x2="-16.6" y1="130.9" y2="130.4" class="st13"/></g><g><line x1="-13.7" x2="-13.7" y1="129.5" y2="129" class="st13"/><line x1="-15.1" x2="-15.1" y1="129.5" y2="129" class="st13"/><line x1="-16.6" x2="-16.6" y1="129.5" y2="129" class="st13"/></g><g><line x1="-13.7" x2="-13.7" y1="128" y2="127.5" class="st13"/><line x1="-15.1" x2="-15.1" y1="128" y2="127.5" class="st13"/><line x1="-12.2" x2="-12.2" y1="128" y2="127.5" class="st13"/><line x1="-16.6" x2="-16.6" y1="128" y2="127.5" class="st13"/><line x1="-18.1" x2="-18.1" y1="128" y2="127.5" class="st13"/></g><g><line x1="-13.7" x2="-13.7" y1="125" y2="124.5" class="st13"/><line x1="-15.1" x2="-15.1" y1="125" y2="124.5" class="st13"/><line x1="-12.2" x2="-12.2" y1="125" y2="124.5" class="st13"/><line x1="-16.6" x2="-16.6" y1="125" y2="124.5" class="st13"/><line x1="-18.1" x2="-18.1" y1="125" y2="124.5" class="st13"/></g><g><line x1="-13.7" x2="-13.7" y1="126.5" y2="126" class="st13"/><line x1="-15.1" x2="-15.1" y1="126.5" y2="126" class="st13"/><line x1="-16.6" x2="-16.6" y1="126.5" y2="126" class="st13"/></g><g><line x1="-13.7" x2="-13.7" y1="123.5" y2="123" class="st13"/><line x1="-15.1" x2="-15.1" y1="123.5" y2="123" class="st13"/><line x1="-12.2" x2="-12.2" y1="123.5" y2="123" class="st13"/><line x1="-16.6" x2="-16.6" y1="123.5" y2="123" class="st13"/><line x1="-18.1" x2="-18.1" y1="123.5" y2="123" class="st13"/></g><g><line x1="-13.7" x2="-13.7" y1="122" y2="121.5" class="st13"/><line x1="-15.1" x2="-15.1" y1="122" y2="121.5" class="st13"/><line x1="-12.2" x2="-12.2" y1="122" y2="121.5" class="st13"/><line x1="-16.6" x2="-16.6" y1="122" y2="121.5" class="st13"/><line x1="-18.1" x2="-18.1" y1="122" y2="121.5" class="st13"/></g><g><line x1="-13.7" x2="-13.7" y1="120.5" y2="120" class="st13"/><line x1="-15.1" x2="-15.1" y1="120.5" y2="120" class="st13"/><line x1="-12.2" x2="-12.2" y1="120.5" y2="120" class="st13"/><line x1="-16.6" x2="-16.6" y1="120.5" y2="120" class="st13"/><line x1="-18.1" x2="-18.1" y1="120.5" y2="120" class="st13"/></g><g><line x1="-13.7" x2="-13.7" y1="119" y2="118.5" class="st13"/><line x1="-15.1" x2="-15.1" y1="119" y2="118.5" class="st13"/><line x1="-12.2" x2="-12.2" y1="119" y2="118.5" class="st13"/><line x1="-16.6" x2="-16.6" y1="119" y2="118.5" class="st13"/><line x1="-18.1" x2="-18.1" y1="119" y2="118.5" class="st13"/></g><g><line x1="-13.7" x2="-13.7" y1="116" y2="115.5" class="st13"/><line x1="-15.1" x2="-15.1" y1="116" y2="115.5" class="st13"/><line x1="-12.2" x2="-12.2" y1="116" y2="115.5" class="st13"/><line x1="-16.6" x2="-16.6" y1="116" y2="115.5" class="st13"/><line x1="-18.1" x2="-18.1" y1="116" y2="115.5" class="st13"/></g><g><line x1="-13.7" x2="-13.7" y1="117.5" y2="117" class="st13"/><line x1="-15.1" x2="-15.1" y1="117.5" y2="117" class="st13"/><line x1="-12.2" x2="-12.2" y1="117.5" y2="117" class="st13"/><line x1="-16.6" x2="-16.6" y1="117.5" y2="117" class="st13"/><line x1="-18.1" x2="-18.1" y1="117.5" y2="117" class="st13"/></g><g><line x1="-13.7" x2="-13.7" y1="114.6" y2="114.1" class="st13"/><line x1="-15.1" x2="-15.1" y1="114.6" y2="114.1" class="st13"/><line x1="-12.2" x2="-12.2" y1="114.6" y2="114.1" class="st13"/><line x1="-16.6" x2="-16.6" y1="114.6" y2="114.1" class="st13"/><line x1="-18.1" x2="-18.1" y1="114.6" y2="114.1" class="st13"/></g><g><line x1="-13.7" x2="-13.7" y1="113.1" y2="112.6" class="st13"/><line x1="-15.1" x2="-15.1" y1="113.1" y2="112.6" class="st13"/><line x1="-12.2" x2="-12.2" y1="113.1" y2="112.6" class="st13"/><line x1="-16.6" x2="-16.6" y1="113.1" y2="112.6" class="st13"/><line x1="-18.1" x2="-18.1" y1="113.1" y2="112.6" class="st13"/></g><g><line x1="-13.7" x2="-13.7" y1="110.1" y2="109.6" class="st13"/><line x1="-15.1" x2="-15.1" y1="110.1" y2="109.6" class="st13"/><line x1="-12.2" x2="-12.2" y1="110.1" y2="109.6" class="st13"/><line x1="-16.6" x2="-16.6" y1="110.1" y2="109.6" class="st13"/><line x1="-18.1" x2="-18.1" y1="110.1" y2="109.6" class="st13"/></g><g><line x1="-13.7" x2="-13.7" y1="111.6" y2="111.1" class="st13"/><line x1="-15.1" x2="-15.1" y1="111.6" y2="111.1" class="st13"/><line x1="-12.2" x2="-12.2" y1="111.6" y2="111.1" class="st13"/><line x1="-16.6" x2="-16.6" y1="111.6" y2="111.1" class="st13"/><line x1="-18.1" x2="-18.1" y1="111.6" y2="111.1" class="st13"/></g><g><line x1="-13.7" x2="-13.7" y1="108.6" y2="108.1" class="st13"/><line x1="-15.1" x2="-15.1" y1="108.6" y2="108.1" class="st13"/><line x1="-12.2" x2="-12.2" y1="108.6" y2="108.1" class="st13"/><line x1="-16.6" x2="-16.6" y1="108.6" y2="108.1" class="st13"/><line x1="-18.1" x2="-18.1" y1="108.6" y2="108.1" class="st13"/></g><g><line x1="-13.7" x2="-13.7" y1="107.1" y2="106.6" class="st13"/><line x1="-15.1" x2="-15.1" y1="107.1" y2="106.6" class="st13"/><line x1="-12.2" x2="-12.2" y1="107.1" y2="106.6" class="st13"/><line x1="-16.6" x2="-16.6" y1="107.1" y2="106.6" class="st13"/><line x1="-18.1" x2="-18.1" y1="107.1" y2="106.6" class="st13"/></g><g><line x1="-13.7" x2="-13.7" y1="105.6" y2="105.1" class="st13"/><line x1="-15.1" x2="-15.1" y1="105.6" y2="105.1" class="st13"/><line x1="-12.2" x2="-12.2" y1="105.6" y2="105.1" class="st13"/><line x1="-16.6" x2="-16.6" y1="105.6" y2="105.1" class="st13"/><line x1="-18.1" x2="-18.1" y1="105.6" y2="105.1" class="st13"/></g><g><line x1="-13.7" x2="-13.7" y1="104.1" y2="103.6" class="st13"/><line x1="-15.1" x2="-15.1" y1="104.1" y2="103.6" class="st13"/><line x1="-12.2" x2="-12.2" y1="104.1" y2="103.6" class="st13"/><line x1="-16.6" x2="-16.6" y1="104.1" y2="103.6" class="st13"/><line x1="-18.1" x2="-18.1" y1="104.1" y2="103.6" class="st13"/></g><g><line x1="-13.7" x2="-13.7" y1="102.6" y2="102.1" class="st13"/><line x1="-15.1" x2="-15.1" y1="102.6" y2="102.1" class="st13"/><line x1="-12.2" x2="-12.2" y1="102.6" y2="102.1" class="st13"/><line x1="-16.6" x2="-16.6" y1="102.6" y2="102.1" class="st13"/><line x1="-18.1" x2="-18.1" y1="102.6" y2="102.1" class="st13"/></g><g><line x1="-19.1" x2="-19.1" y1="135.7" y2="135.2" class="st13"/><line x1="-20.2" x2="-20.2" y1="135.7" y2="135.2" class="st13"/><line x1="-21.3" x2="-21.3" y1="135.7" y2="135.2" class="st13"/></g><g><line x1="-19.1" x2="-19.1" y1="137.5" y2="137" class="st13"/><line x1="-20.2" x2="-20.2" y1="137.5" y2="137" class="st13"/><line x1="-21.3" x2="-21.3" y1="137.5" y2="137" class="st13"/></g><g><line x1="-19.1" x2="-19.1" y1="139.4" y2="138.9" class="st13"/><line x1="-20.2" x2="-20.2" y1="139.4" y2="138.9" class="st13"/><line x1="-21.3" x2="-21.3" y1="139.4" y2="138.9" class="st13"/></g></g><g><polygon points="-15.1 93.2 -15.7 94.5 -14.6 94.5" class="st17"/><polygon points="-12.4 94.6 -14 94.5 -14 95.5" class="st17"/><polygon points="-13.4 93.7 -15 94.3 -14.1 95" class="st17"/><polygon points="-17.9 94.6 -16.3 94.5 -16.3 95.5" class="st17"/><polygon points="-16.9 93.7 -15.3 94.3 -16.2 95" class="st17"/></g><g><path d="M-14.7,92.2l-0.4-0.9l-0.4,0.9c0.1,0,0.3,0,0.4,0S-14.9,92.2-14.7,92.2z" class="st17"/><path d="M-13.4,91.8l-1.2,0.5c0.3,0.1,0.6,0.1,0.8,0.3L-13.4,91.8z" class="st17"/><path d="M-16.9,91.8l0.4,0.7c0.2-0.1,0.5-0.2,0.8-0.3L-16.9,91.8z" class="st17"/></g><g><path d="M-14.8,90.8l-0.4-0.8l-0.4,0.8c0.1,0,0.2,0,0.4,0S-14.9,90.8-14.8,90.8z" class="st17"/><path d="M-13.7,90.4l-1,0.4c0.3,0,0.5,0.1,0.7,0.2L-13.7,90.4z" class="st17"/><path d="M-16.6,90.4l0.3,0.6c0.2-0.1,0.4-0.2,0.7-0.2L-16.6,90.4z" class="st17"/></g><g><path d="M-14.9,89.2l-0.3-0.6l-0.3,0.6c0.1,0,0.2,0,0.3,0C-15.1,89.1-15,89.1-14.9,89.2z" class="st17"/><path d="M-14.1,88.9l-0.7,0.3c0.2,0,0.4,0.1,0.5,0.2L-14.1,88.9z" class="st17"/><path d="M-16.2,88.9l0.2,0.5c0.1-0.1,0.3-0.1,0.5-0.2L-16.2,88.9z" class="st17"/></g><g><path d="M-14.9,87.7l-0.2-0.5l-0.2,0.5c0.1,0,0.1,0.1,0.2,0.1C-15.1,87.9-15,87.7-14.9,87.7z" class="st17"/><path d="M-14.2,87.5l-0.7,0.3c0.2,0,0.3,0.1,0.4,0.1L-14.2,87.5z" class="st17"/><path d="M-16.1,87.5l0.2,0.4c0.1-0.1,0.3-0.1,0.4-0.1L-16.1,87.5z" class="st17"/></g><g><line x1="-17.8" x2="-17.8" y1="98.9" y2="98.4" class="st13"/><line x1="-17.8" x2="-17.8" y1="97.4" y2="96.9" class="st13"/><line x1="-12.5" x2="-12.5" y1="98.9" y2="98.4" class="st13"/><line x1="-12.5" x2="-12.5" y1="97.4" y2="96.9" class="st13"/><line x1="-15.1" x2="-15.1" y1="98.9" y2="98.4" class="st13"/><line x1="-15.1" x2="-15.1" y1="97.4" y2="96.9" class="st13"/></g><path d="M-7.8,133.9h-0.4v-3.5c0-0.1-0.1-0.3-0.3-0.3H-9v-1c0-0.1-0.1-0.3-0.3-0.3h-0.4v-2.1l0.5-0.4 c0.1-0.1,0.1-0.2,0.1-0.3c0-0.1-0.2-0.2-0.3-0.2h-1v-23.5l0.6-1.2c0-0.1,0-0.2,0-0.2c-0.1-0.1-0.1-0.1-0.2-0.1h-0.3v-1 c0-0.1-0.1-0.3-0.3-0.3H-11v-4c0-0.7-0.2-1.3-0.6-1.8v-0.3c0-0.6-0.2-1.2-0.6-1.7v-0.2c0-0.5-0.2-1-0.4-1.4v-0.4 c0-0.5-0.2-0.9-0.4-1.2V88c0-0.6-0.3-1.2-0.9-1.5v-0.9c0-0.5-0.4-0.9-0.9-1V80c0-0.1-0.1-0.3-0.3-0.3v62.1h7.4 c0.2,0,0.3-0.1,0.3-0.3V134C-7.5,134-7.6,133.9-7.8,133.9z" class="st6"/></g><g><g><g><g><polygon points="17.4 109.9 15.8 109.8 15.8 111" class="st18"/><polygon points="16.5 108.6 15.1 109.3 15.9 110.1" class="st18"/></g></g><g><polygon points="14.7 107.6 13.9 109.6 15.4 109.6" class="st11"/><g><polygon points="11.9 109.9 13.6 109.8 13.6 111" class="st11"/><polygon points="12.8 108.6 14.2 109.3 13.4 110.1" class="st11"/></g></g><g><polygon points="14.7 107.6 13.9 109.6 15.4 109.6" class="st18"/><g><polygon points="11.9 109.9 13.6 109.8 13.6 111" class="st18"/><polygon points="12.8 108.6 14.2 109.3 13.4 110.1" class="st18"/></g></g><g><path d="M14.7,112.1c-1.4,0-1.7-0.8-1.8-0.9v-0.1V111c0-1,0.8-1.8,1.8-1.8s1.8,0.8,1.8,1.8l0,0l0,0 C16.4,111.3,16.2,112.1,14.7,112.1z" class="st17"/><path d="M14.7,112.1c-1.4,0-1.7-0.8-1.8-0.9v-0.1V111c0-1,0.8-1.8,1.8-1.8s1.8,0.8,1.8,1.8l0,0l0,0 C16.4,111.3,16.2,112.1,14.7,112.1z" class="st19"/></g><polygon points="10.5 112.3 8.8 114 8.8 106.9 10.1 106.9" class="st18"/><polygon points="12.5 114.4 10.5 112.3 8.8 114 11.9 118.7" class="st18"/><rect width="3.7" height="2.5" x="17.2" y="118.7" class="st20" transform="matrix(0.7071 -0.7071 0.7071 0.7071 -79.2598 48.6134)"/><path d="M19.5,120.4L19.5,120.4c0.2-0.2,0.6-0.2,0.9,0l0.4,0.4l-0.9,0.9l-0.4-0.4 C19.2,121,19.2,120.6,19.5,120.4z" class="st21"/><rect width="10" height="7.5" x="9.7" y="135.6" class="st18"/><line x1="12.2" x2="12.2" y1="137.9" y2="143.1" class="st13"/><line x1="17.2" x2="17.2" y1="137.9" y2="143.1" class="st19"/><line x1="14.7" x2="14.7" y1="137.9" y2="143.1" class="st19"/><rect width="11" height="1.2" x="9.2" y="134.4" class="st21"/><rect width="10" height="1.3" x="9.7" y="133.1" class="st18"/><rect width="11" height="1.2" x="9.2" y="131.9" class="st21"/><polygon points="18.5 131.9 11 131.9 11.9 118.7 12.5 114.4 17.2 114.4" class="st18"/><path d="M14.7,113.6L14.7,113.6c-0.7,0-1.3-0.6-1.3-1.2v-1.3c0-0.7,0.6-1.3,1.3-1.3l0,0 c0.7,0,1.3,0.6,1.3,1.3v1.3C15.9,113,15.4,113.6,14.7,113.6z" class="st18"/><path d="M14.7,114.8L14.7,114.8c-0.3,0-0.5-0.2-0.5-0.5v-0.8h1v0.8C15.2,114.6,15,114.8,14.7,114.8z" class="st21"/><line x1="11.9" x2="17.2" y1="119.7" y2="114.4" class="st19"/><line x1="17.6" x2="11.4" y1="119.5" y2="125.7" class="st19"/><line x1="17.9" x2="11" y1="124.8" y2="131.7" class="st19"/><line x1="16.3" x2="16.3" y1="126.4" y2="131.9" class="st19"/><polygon points="17.2 114.4 19 118.2 17.6 119.6" class="st21"/><rect width="3.8" height=".8" x="7.6" y="103.9" class="st18"/><line x1="9.5" x2="9.5" y1="104.9" y2="108.1" class="st19"/><path d="M10.7,106.2L10.7,106.2c0,0.3-0.3,0.6-0.6,0.6H8.8v-1.3h1.3C10.4,105.6,10.7,105.9,10.7,106.2z" class="st21"/><line x1="8.6" x2="10.3" y1="104.9" y2="104.9" class="st19"/><path d="M8.8,103.9c0,0-1.1-0.7-0.3-1.8c0.6-0.8,0.4-1.7,0.3-2c0,0,1.6,0.3,2,1.9c0.3,1.4-0.6,1.8-0.6,1.8 L8.8,103.9L8.8,103.9z" class="st18"/><path d="M21.4,119.3l-1.8-1.8c-0.1-0.1-0.3-0.1-0.4,0l-0.2,0.2l-1.6-3.5c0-0.1-0.1-0.1-0.2-0.1h-1.8v-0.5 c0.4-0.3,0.7-0.8,0.7-1.3V112c0.4-0.3,0.5-0.7,0.5-0.8l0,0l0,0l0,0c0-0.1,0-0.2,0-0.4l0.9-0.6c0.1-0.1,0.1-0.2,0.1-0.3 c0-0.1-0.1-0.2-0.2-0.2l-1.1-0.1l0.4-0.8c0-0.1,0-0.2-0.1-0.3c-0.1-0.1-0.2-0.1-0.3-0.1l-1.1,0.5l-0.5-1.3 c0-0.1-0.2-0.2-0.3-0.2s0,36,0,36h5.1c0.1,0,0.3-0.1,0.3-0.3v-7.3H20c0.1,0,0.2-0.1,0.2-0.3v-1.2c0-0.1-0.1-0.2-0.3-0.2 l0,0h-0.2v-0.8H20c0.1,0,0.2-0.1,0.2-0.3v-1.2c0-0.1,0-0.1-0.1-0.2c0,0-0.1-0.1-0.2-0.1l0,0h-1.5L18,122l0.4,0.4 c0.1,0.1,0.3,0.1,0.4,0l0.7-0.7l0.3,0.3c0.1,0.1,0.3,0.1,0.4,0l0.9-0.9c0.1-0.1,0.1-0.3,0-0.4l-0.3-0.3l0.7-0.7 C21.5,119.6,21.5,119.4,21.4,119.3z" class="st6"/></g></g><g><g><polygon points="-35.6 153.7 -31.9 153.7 -31.9 151.2 -32.2 145 -35.2 145 -35.6 151.2" class="st22"/><polygon points="-35.6 151.2 -31.9 151.2 -31.9 150 -35.5 150" class="st12"/></g><g><g><rect id="XMLID_6_" width="82.5" height="1.3" x="-56.2" y="143.7" class="st23"/></g><g><defs><rect id="SVGID_3_" width="82.5" height="1.3" x="-56.2" y="143.7"/></defs><clipPath id="SVGID_4_"><use xlink:href="#SVGID_3_" style="overflow:visible"/></clipPath><rect width="82.5" height=".6" x="-56.2" y="144.3" class="st24"/></g><g><rect width="82.5" height="1.3" x="-56.2" y="143.7" class="st21"/></g></g><g><path d="M-35,128.2c0,0-7.8,11.8-18.8,15.5" class="st13"/><line x1="-41.4" x2="-41.4" y1="143.7" y2="135.7" class="st13"/><line x1="-37.1" x2="-37.1" y1="143.7" y2="131" class="st13"/><line x1="-49.9" x2="-49.9" y1="143.7" y2="142" class="st13"/><line x1="-45.7" x2="-45.7" y1="143.7" y2="139.3" class="st13"/></g><g><path d="M-32.3,128.2c0,0,7.3,11.8,17.5,15.5" class="st13"/><line x1="-26.4" x2="-26.4" y1="143.7" y2="135.7" class="st13"/><line x1="-30.3" x2="-30.3" y1="143.7" y2="131" class="st13"/><line x1="-18.4" x2="-18.4" y1="143.7" y2="142" class="st13"/><line x1="-22.4" x2="-22.4" y1="143.7" y2="139.3" class="st13"/></g><g><path d="M3.4,128.2c0,0-7.3,11.8-17.5,15.5" class="st19"/><line x1="-2.6" x2="-2.6" y1="143.7" y2="135.7" class="st16"/><line x1="1.4" x2="1.4" y1="143.7" y2="131" class="st19"/><line x1="-10.5" x2="-10.5" y1="143.7" y2="142" class="st13"/><line x1="-6.6" x2="-6.6" y1="143.7" y2="139.3" class="st13"/></g><g><rect width="2.5" height="19.4" x="-35" y="125.6" class="st11"/><rect width="3" height="1.3" x="-35.3" y="125.5" class="st12"/></g><polygon points="6.4 153.7 2.6 153.7 2.6 151.2 3 145 6 145 6.4 151.2" class="st21"/><polygon points="6.4 151.2 2.6 151.2 2.7 150 6.3 150" class="st21"/><g><path d="M5.7,128.2c0,0,7.8,11.8,18.8,15.5" class="st19"/><line x1="12.1" x2="12.1" y1="143.7" y2="135.7" class="st19"/><line x1="7.9" x2="7.9" y1="143.7" y2="131" class="st19"/><line x1="20.7" x2="20.7" y1="143.7" y2="142" class="st19"/><line x1="16.4" x2="16.4" y1="143.7" y2="139.3" class="st19"/></g><rect width="2.5" height="19.4" x="3.2" y="125.6" class="st18"/><rect width="3" height="1.3" x="3" y="125.6" class="st21"/><path d="M6.6,151.2v-0.5L6.2,145c0-0.1-0.1-0.2-0.2-0.2v-17.7c0.1,0,0.3-0.1,0.3-0.3v-1.3 c0-0.1-0.1-0.3-0.3-0.3H4.5V154h1.9c0.1,0,0.3-0.1,0.3-0.3L6.6,151.2L6.6,151.2L6.6,151.2z" class="st6"/><path d="M-32.1,151.2v-0.5l-0.3-5.7c0-0.1-0.1-0.2-0.2-0.2v-17.7c0.1,0,0.3-0.1,0.3-0.3v-1.3 c0-0.1-0.1-0.3-0.3-0.3h-1.5V154h1.9c0.1,0,0.3-0.1,0.3-0.3L-32.1,151.2C-32,151.2-32,151.2-32.1,151.2 C-32,151.2-32,151.2-32.1,151.2z" class="st6"/></g></g></g><g><path d="M229,163h-92c-2.2,0-4-1.8-4-4V67c0-2.2,1.8-4,4-4h92c2.2,0,4,1.8,4,4v92C233,161.2,231.2,163,229,163z" class="st8"/><g><g><g><polygon points="149.8 141.6 154.8 141.6 158.6 129.1 154.2 129.1" class="st12"/><polygon points="158.2 130.4 153.7 130.4 154.2 129.1 158.6 129.1" class="st12"/><polygon points="162.3 90.4 159.8 90.4 157.3 112.9 155.1 126.6 159.1 126.6 160.6 112.9" class="st21"/><polyline points="154.8 141.6 151.2 137.8 155.9 137.8 152.5 134 156.9 134 153.7 130.4" class="st13"/><line x1="149.8" x2="155.9" y1="141.6" y2="137.8" class="st13"/><line x1="151.2" x2="156.9" y1="137.8" y2="134" class="st13"/><line x1="152.5" x2="158.2" y1="134" y2="130.4" class="st13"/><polyline points="159.1 126.6 155.7 122.7 159.5 122.7 156.3 118.9 159.8 118.9 156.9 115.4" class="st19"/><line x1="154.9" x2="159.5" y1="126.6" y2="122.7" class="st19"/><line x1="155.7" x2="159.8" y1="122.7" y2="118.9" class="st19"/><line x1="156.3" x2="160.3" y1="118.9" y2="115.4" class="st19"/><polyline points="160.5 112.9 158 107 161 107 158.6 101.4 161.4 101.4 159.2 95.9 161.9 95.9 159.8 90.4" class="st19"/><line x1="157.3" x2="161" y1="112.9" y2="107" class="st19"/><line x1="158" x2="161.4" y1="107" y2="101.4" class="st19"/><line x1="158.6" x2="161.9" y1="101.4" y2="95.9" class="st19"/><line x1="159.2" x2="162.3" y1="95.9" y2="90.4" class="st19"/></g><g><polygon points="174.8 141.6 169.8 141.6 166.1 129.1 170.5 129.1" class="st12"/><polygon points="166.5 130.4 170.9 130.4 170.5 129.1 166.1 129.1" class="st12"/><polygon points="162.4 90.4 164.9 90.4 167.3 112.9 169.6 126.6 165.6 126.6 164.1 112.9" class="st21"/><polyline points="169.8 141.6 173.5 137.8 168.8 137.8 172.2 134 167.7 134 170.9 130.4" class="st13"/><line x1="174.8" x2="168.8" y1="141.6" y2="137.8" class="st13"/><line x1="173.5" x2="167.7" y1="137.8" y2="134" class="st13"/><line x1="172.2" x2="166.5" y1="134" y2="130.4" class="st13"/><polyline points="165.6 126.6 168.9 122.7 165.2 122.7 168.3 118.9 164.8 118.9 167.8 115.4" class="st19"/><line x1="169.8" x2="165.2" y1="126.6" y2="122.7" class="st19"/><line x1="168.9" x2="164.8" y1="122.7" y2="118.9" class="st19"/><line x1="168.3" x2="164.4" y1="118.9" y2="115.4" class="st19"/><polyline points="164.1 112.9 166.7 107 163.7 107 166.1 101.4 163.2 101.4 165.5 95.9 162.8 95.9 164.9 90.4" class="st19"/><line x1="167.3" x2="163.7" y1="112.9" y2="107" class="st19"/><line x1="166.7" x2="163.2" y1="107" y2="101.4" class="st19"/><line x1="166.1" x2="162.8" y1="101.4" y2="95.9" class="st19"/><line x1="165.5" x2="162.4" y1="95.9" y2="90.4" class="st19"/></g><polygon points="166.5 130.4 158.2 130.4 158.6 129.1 166.1 129.1" class="st12"/><rect width="5" height="2.5" x="159.8" y="87.9" class="st21"/><polygon points="166.5 130.4 170.9 130.4 170.5 129.1 166.1 129.1" class="st12"/><rect width="16.3" height="2.5" x="154.2" y="126.6" class="st12"/><rect width="10.8" height="2.5" x="156.9" y="112.9" class="st21"/><rect width="1.5" height="7.5" x="161.6" y="80.4" class="st21"/><path d="M162.3,80.4L162.3,80.4c-0.1,0-0.3-0.1-0.3-0.3v-4.5c0-0.1,0.1-0.3,0.3-0.3l0,0c0.1,0,0.3,0.1,0.3,0.3 v4.5C162.6,80.3,162.4,80.4,162.3,80.4z" class="st25"/><line x1="156.9" x2="167.8" y1="114.1" y2="114.1" class="st19"/><path d="M167.2,132.9c0,0-1.4-1.3-4.9-1.3s-4.9,1.3-4.9,1.3l0.8-2.5h8.3L167.2,132.9z" class="st12"/></g><g class="st26"><path d="M169.7,141.9L167,133c-0.3-0.2-1.7-1.1-4.7-1.1v-5.5h2.9l-1.1-10.8h-1.8v-3h1.5l-1.5-22V75.1l0,0 c0.3,0,0.5,0.2,0.5,0.5v4.5h0.5v7.5h1.8v2.5l0,0l2.5,22.5h0.4v2.7l1.8,11h0.9v2.7l4.4,12.8L169.7,141.9L169.7,141.9z" class="st6"/></g></g><g><rect width="10" height="28.5" x="182.8" y="115.9" class="st11"/><rect width="6.3" height="2.5" x="184.7" y="140.6" class="st12"/><path d="M210.3,117.1h-17.5v5.3c0,0,1.9-3.9,8.7-3.9s8.8,3.9,8.8,3.9V117.1z" class="st11"/><rect width="10" height="28.5" x="210.3" y="115.9" class="st11"/><path d="M189.7,140.6h-3.8V135c0-1,0.8-1.9,1.9-1.9l0,0c1,0,1.9,0.8,1.9,1.9L189.7,140.6z" class="st12"/><path d="M213.5,140.6h3.8V135c0-1-0.8-1.9-1.9-1.9l0,0c-1,0-1.9,0.8-1.9,1.9L213.5,140.6z" class="st12"/><rect width="6.3" height="2.5" x="212.2" y="140.6" class="st12"/><rect width="10.5" height="1.3" x="182.3" y="129.3" class="st11"/><rect width="10.5" height="1.3" x="210.4" y="129.3" class="st11"/><rect width="5" height="3.8" x="185.3" y="121.1" class="st11"/><rect width="5" height="3.8" x="212.9" y="121.1" class="st11"/><rect width="37.5" height="1.3" x="182.8" y="115.9" class="st11"/><rect width="38.5" height="1.3" x="182.3" y="112.1" class="st11"/><rect width="38.5" height="1.3" x="182.3" y="107.1" class="st11"/><rect width="37.5" height="2.5" x="182.8" y="113.4" class="st11"/><rect width="37.5" height="3.8" x="182.8" y="108.4" class="st11"/><line x1="186.2" x2="186.2" y1="110.8" y2="109.7" class="st13"/><line x1="189.6" x2="189.6" y1="110.8" y2="109.7" class="st13"/><line x1="193" x2="193" y1="110.8" y2="109.7" class="st13"/><line x1="196.5" x2="196.5" y1="110.8" y2="109.7" class="st13"/><line x1="199.9" x2="199.9" y1="110.8" y2="109.7" class="st13"/><line x1="203.3" x2="203.3" y1="110.8" y2="109.7" class="st13"/><line x1="206.7" x2="206.7" y1="110.8" y2="109.7" class="st13"/><line x1="210.1" x2="210.1" y1="110.8" y2="109.7" class="st13"/><line x1="213.5" x2="213.5" y1="110.8" y2="109.7" class="st13"/><line x1="216.9" x2="216.9" y1="110.8" y2="109.7" class="st13"/><g class="st27"><path d="M210.1,144.4v-22c-0.1-0.2-0.6-1-1.7-1.8c-1.2-0.9-3.3-1.9-6.8-1.9c-0.1,0-0.2,0-0.3,0v-11.8h19.8v1.8 h-0.5v3.3h0.5v1.8h-0.5v15.5h0.5v1.8h-0.5v13.6h-10.5V144.4z" class="st10"/></g></g><path d="M225.5,141.9h-85c-0.7,0-1.2,0.6-1.2,1.3s0.6,1.3,1.2,1.3h85c0.7,0,1.3-0.6,1.3-1.3 C226.7,142.4,226.1,141.9,225.5,141.9z" class="st21"/><path d="M225.5,143.2h-85c-0.7,0-1.2,0.3-1.2,0.7s0.6,0.7,1.2,0.7h85c0.7,0,1.3-0.3,1.3-0.7 C226.7,143.5,226.1,143.2,225.5,143.2z" class="st6"/><g><g><rect width="21.6" height="2.5" x="151.3" y="130.6" class="st11"/><g><polygon points="200.8 129.3 158.8 129.4 156.9 125.9 202.8 125.8" class="st28"/><polygon points="145.1 129.4 148.5 123.1 155.4 123.1 158.8 129.4" class="st28"/><path d="M149.7,125.9l0.5-0.5c0.5-0.5,1.1-0.7,1.7-0.7l0,0c0.6,0,1.3,0.3,1.7,0.7l0.5,0.5H149.7z" class="st28"/><rect width="13.7" height="5" x="145.1" y="136.9" class="st18"/><rect width="13.7" height="3.8" x="145.1" y="133.1" class="st18"/><rect width="13.8" height="2.5" x="145.1" y="130.6" class="st18"/><g><line x1="148.5" x2="148.5" y1="133.1" y2="132.1" class="st13"/><line x1="152" x2="152" y1="133.1" y2="132.1" class="st19"/><line x1="155.4" x2="155.4" y1="133.1" y2="132.1" class="st19"/></g><g><path d="M149.3,136.9h-1.5v-1.8c0-0.4,0.3-0.8,0.7-0.8l0,0c0.4,0,0.8,0.3,0.8,0.7V136.9z" class="st18"/><line x1="148.5" x2="148.6" y1="134.4" y2="136.9" class="st13"/><line x1="147.8" x2="149.3" y1="135.6" y2="135.6" class="st13"/></g><g><path d="M154.2,141.9h-4.5v-1.3c0-1.2,1-2.3,2.2-2.3l0,0c1.2,0,2.3,1,2.3,2.2V141.9z" class="st18"/><line x1="152" x2="152" y1="139.4" y2="141.9" class="st19"/></g><g><rect width="4.5" height="3.5" x="149.7" y="125.9" class="st18"/></g><g><path d="M152.7,136.9h-1.5v-1.8c0-0.4,0.3-0.8,0.7-0.8l0,0c0.4,0,0.8,0.3,0.8,0.7V136.9z" class="st18"/><line x1="152" x2="152" y1="134.4" y2="136.9" class="st19"/><line x1="151.2" x2="152.7" y1="135.6" y2="135.6" class="st19"/></g><g><path d="M156.1,136.9h-1.5v-1.8c0-0.4,0.3-0.8,0.7-0.8l0,0c0.4,0,0.8,0.3,0.8,0.7V136.9z" class="st18"/><line x1="155.4" x2="155.4" y1="134.4" y2="136.9" class="st19"/><line x1="154.6" x2="156.1" y1="135.6" y2="135.6" class="st19"/></g><g><path d="M152.7,129.4h-1.5v-1.8c0-0.4,0.3-0.8,0.7-0.8l0,0c0.4,0,0.8,0.3,0.8,0.7V129.4z" class="st18"/><line x1="152" x2="152" y1="126.9" y2="129.4" class="st19"/><line x1="151.2" x2="152.7" y1="128.1" y2="128.1" class="st19"/></g><line x1="145.1" x2="145.1" y1="129.4" y2="128.1" class="st13"/><line x1="158.8" x2="158.8" y1="130.6" y2="128.1" class="st19"/><line x1="200.8" x2="200.8" y1="129.3" y2="128.1" class="st13"/><rect width="14.1" height="5" x="158.8" y="136.9" class="st18" transform="matrix(1 -1.125662e-03 1.125662e-03 1 -0.1568 0.1868)"/><rect width="14.1" height="3.8" x="158.8" y="133.1" class="st18" transform="matrix(1 -1.125662e-03 1.125662e-03 1 -0.1519 0.1868)"/><g><line x1="162.5" x2="162.5" y1="133.1" y2="132.1" class="st19"/><line x1="165.9" x2="165.9" y1="133.1" y2="132.1" class="st19"/><line x1="169.3" x2="169.3" y1="133.1" y2="132.1" class="st19"/></g><g><path d="M164.7,141.9h-4.5v-1.3c0-1.2,1-2.3,2.2-2.3l0,0c1.2,0,2.3,1,2.3,2.2V141.9z" class="st18"/><line x1="162.5" x2="162.5" y1="139.4" y2="141.9" class="st19"/></g><g><path d="M171.6,141.9h-4.5v-1.3c0-1.2,1-2.3,2.2-2.3l0,0c1.2,0,2.3,1,2.3,2.2V141.9z" class="st18"/><line x1="169.3" x2="169.3" y1="139.4" y2="141.9" class="st19"/></g><g><path d="M163.2,136.9h-1.5v-1.8c0-0.4,0.3-0.8,0.7-0.8l0,0c0.4,0,0.8,0.3,0.8,0.7V136.9z" class="st18"/><line x1="162.5" x2="162.5" y1="134.4" y2="136.9" class="st19"/><line x1="161.7" x2="163.2" y1="135.6" y2="135.6" class="st19"/></g><g><path d="M166.6,136.9h-1.5v-1.8c0-0.4,0.3-0.8,0.7-0.8l0,0c0.4,0,0.8,0.3,0.8,0.7V136.9z" class="st18"/><line x1="165.9" x2="165.9" y1="134.4" y2="136.9" class="st19"/><line x1="165.1" x2="166.6" y1="135.6" y2="135.6" class="st19"/></g><g><path d="M170.1,136.9h-1.5v-1.8c0-0.4,0.3-0.8,0.7-0.8l0,0c0.4,0,0.8,0.3,0.8,0.7V136.9z" class="st18"/><line x1="169.3" x2="169.3" y1="134.4" y2="136.9" class="st19"/><line x1="168.6" x2="170.1" y1="135.6" y2="135.6" class="st19"/></g><rect width="14.1" height="5" x="186.7" y="136.8" class="st11" transform="matrix(1 -1.125662e-03 1.125662e-03 1 -0.1567 0.2182)"/><rect width="14.1" height="3.8" x="186.7" y="133.1" class="st11" transform="matrix(1 -1.125662e-03 1.125662e-03 1 -0.1518 0.2182)"/><rect width="14.9" height="2.6" x="185.9" y="130.5" class="st11" transform="matrix(1 -1.124150e-03 1.124150e-03 1 -0.148 0.2174)"/><g><line x1="193.7" x2="193.7" y1="133.1" y2="132.1" class="st13"/><line x1="197.1" x2="197.1" y1="133.1" y2="132.1" class="st13"/></g><g><path d="M194.5,136.8H193V135c0-0.4,0.3-0.8,0.7-0.8l0,0c0.4,0,0.8,0.3,0.8,0.7V136.8z" class="st11"/><line x1="193.7" x2="193.7" y1="134.3" y2="136.8" class="st13"/><line x1="193" x2="194.5" y1="135.6" y2="135.6" class="st13"/></g><g><path d="M199.4,141.8h-4.5v-1.3c0-1.2,1-2.3,2.2-2.3l0,0c1.2,0,2.3,1,2.3,2.2V141.8z" class="st11"/><line x1="197.1" x2="197.1" y1="139.3" y2="141.8" class="st13"/></g><g><path d="M192.6,141.8h-4.5v-1.3c0-1.2,1-2.3,2.2-2.3l0,0c1.2,0,2.3,1,2.3,2.2V141.8z" class="st11"/><line x1="190.3" x2="190.3" y1="139.3" y2="141.8" class="st13"/></g><g><path d="M197.9,136.8h-1.5V135c0-0.4,0.3-0.8,0.7-0.8l0,0c0.4,0,0.8,0.3,0.8,0.7V136.8z" class="st11"/><line x1="197.1" x2="197.1" y1="134.3" y2="136.8" class="st13"/><line x1="196.4" x2="197.9" y1="135.6" y2="135.6" class="st13"/></g><rect width="13.8" height="5" x="173" y="136.8" class="st11"/><rect width="13.8" height="3.8" x="173" y="133.1" class="st18"/><rect width="13.8" height="2.5" x="173" y="130.6" class="st18"/><g><line x1="176.4" x2="176.4" y1="133.1" y2="132.1" class="st19"/><line x1="179.8" x2="179.8" y1="133.1" y2="132.1" class="st13"/><line x1="183.2" x2="183.2" y1="133.1" y2="132.1" class="st13"/></g><g><path d="M177.2,136.8h-1.5V135c0-0.4,0.3-0.8,0.7-0.8l0,0c0.4,0,0.8,0.3,0.8,0.7V136.8z" class="st11"/><line x1="176.4" x2="176.4" y1="134.4" y2="136.9" class="st13"/><line x1="175.7" x2="177.2" y1="135.6" y2="135.6" class="st13"/></g><g><path d="M182.1,141.8h-4.5v-1.3c0-1.2,1-2.3,2.2-2.3l0,0c1.2,0,2.3,1,2.3,2.2V141.8z" class="st11"/><line x1="179.8" x2="179.8" y1="139.3" y2="141.8" class="st13"/></g><g><path d="M180.6,136.8h-1.5V135c0-0.4,0.3-0.8,0.7-0.8l0,0c0.4,0,0.8,0.3,0.8,0.7V136.8z" class="st11"/><line x1="179.8" x2="179.8" y1="134.3" y2="136.8" class="st13"/><line x1="179.1" x2="180.6" y1="135.6" y2="135.6" class="st13"/></g><g><path d="M184,136.8h-1.5V135c0-0.4,0.3-0.8,0.7-0.8l0,0c0.4,0,0.8,0.3,0.8,0.7V136.8z" class="st11"/><line x1="183.2" x2="183.2" y1="134.3" y2="136.8" class="st13"/><line x1="182.5" x2="184" y1="135.6" y2="135.6" class="st13"/></g><g><path d="M175.5,128.1L175.5,128.1v-4c0-1.3,0.6-2.6,1.6-3.1l0,0c1.7-1,3.9-1,5.6,0l0,0 c1,0.5,1.6,1.8,1.6,3.1v4l0,0H175.5z" class="st28"/><polygon points="175.1 124.6 179.8 122.1 184.6 124.6" class="st28"/><g><rect width="9.5" height="3.5" x="175.1" y="124.6" class="st18"/></g><g><path d="M180.6,128.1h-1.5v-1.8c0-0.4,0.3-0.8,0.7-0.8l0,0c0.4,0,0.8,0.3,0.8,0.7V128.1z" class="st11"/><line x1="179.8" x2="179.8" y1="125.6" y2="128.1" class="st13"/><line x1="179.1" x2="180.6" y1="126.9" y2="126.9" class="st13"/></g><g><path d="M177.8,128.1h-1.5v-1.8c0-0.4,0.3-0.8,0.7-0.8l0,0c0.4,0,0.8,0.3,0.8,0.7V128.1z" class="st18"/><line x1="177.1" x2="177.1" y1="125.6" y2="128.1" class="st19"/><line x1="176.3" x2="177.8" y1="126.9" y2="126.9" class="st19"/></g><g><path d="M183.3,128.1h-1.5v-1.8c0-0.4,0.3-0.8,0.7-0.8l0,0c0.4,0,0.8,0.3,0.8,0.7V128.1z" class="st11"/><line x1="182.6" x2="182.6" y1="125.6" y2="128.1" class="st13"/><line x1="181.8" x2="183.3" y1="126.9" y2="126.9" class="st13"/></g><line x1="175.5" x2="175.4" y1="124.6" y2="121.8" class="st19"/><line x1="184.2" x2="184.2" y1="124.6" y2="121.8" class="st13"/><line x1="179.8" x2="179.8" y1="120.2" y2="117.4" class="st13"/></g><polygon points="200.8 129.3 204.3 123.1 211.1 123.1 214.6 129.3" class="st29"/><path d="M205.5,125.8l0.5-0.5c0.5-0.5,1.1-0.7,1.7-0.7l0,0c0.6,0,1.3,0.3,1.7,0.7l0.5,0.5H205.5z" class="st29"/><rect width="13.8" height="5" x="200.8" y="136.8" class="st11"/><rect width="13.8" height="3.8" x="200.8" y="133.1" class="st11"/><rect width="13.8" height="2.5" x="200.8" y="130.6" class="st11"/><rect width="70" height="1.3" x="144.8" y="129.3" class="st18"/><g><line x1="204.3" x2="204.3" y1="133.1" y2="132.1" class="st13"/><line x1="207.7" x2="207.7" y1="133.1" y2="132.1" class="st13"/><line x1="211.1" x2="211.1" y1="133.1" y2="132.1" class="st13"/></g><g><path d="M205.1,136.8h-1.5V135c0-0.4,0.3-0.8,0.7-0.8l0,0c0.4,0,0.8,0.3,0.8,0.7V136.8z" class="st11"/><line x1="204.3" x2="204.3" y1="134.3" y2="136.8" class="st13"/><line x1="203.6" x2="205.1" y1="135.6" y2="135.6" class="st13"/></g><g><path d="M210,141.8h-4.5v-1.3c0-1.2,1-2.3,2.2-2.3l0,0c1.2,0,2.3,1,2.3,2.2V141.8z" class="st11"/><line x1="207.7" x2="207.7" y1="139.3" y2="141.8" class="st13"/></g><g><rect width="4.5" height="3.5" x="205.5" y="125.8" class="st11"/></g><g><path d="M208.5,136.8H207V135c0-0.4,0.3-0.8,0.7-0.8l0,0c0.4,0,0.8,0.3,0.8,0.7V136.8z" class="st11"/><line x1="207.7" x2="207.7" y1="134.3" y2="136.8" class="st13"/><line x1="207" x2="208.5" y1="135.6" y2="135.6" class="st13"/></g><g><path d="M211.9,136.8h-1.5V135c0-0.4,0.3-0.8,0.7-0.8l0,0c0.4,0,0.8,0.3,0.8,0.7V136.8z" class="st11"/><line x1="211.1" x2="211.1" y1="134.3" y2="136.8" class="st13"/><line x1="210.4" x2="211.9" y1="135.6" y2="135.6" class="st13"/></g><g><path d="M208.5,129.3H207v-1.8c0-0.4,0.3-0.8,0.7-0.8l0,0c0.4,0,0.8,0.3,0.8,0.7V129.3z" class="st11"/><line x1="207.7" x2="207.7" y1="126.8" y2="129.3" class="st13"/><line x1="207" x2="208.5" y1="128.1" y2="128.1" class="st13"/></g><line x1="214.6" x2="214.6" y1="129.3" y2="128.1" class="st13"/><rect width="13.8" height="1.3" x="173" y="128.1" class="st18"/><g><line x1="190.3" x2="190.3" y1="133.1" y2="132.1" class="st13"/></g><g><path d="M191.1,136.8h-1.5V135c0-0.4,0.3-0.8,0.7-0.8l0,0c0.4,0,0.8,0.3,0.8,0.7V136.8z" class="st11"/><line x1="190.3" x2="190.3" y1="134.3" y2="136.8" class="st13"/><line x1="189.6" x2="191.1" y1="135.6" y2="135.6" class="st13"/></g><path d="M214.8,129.1v-1c0-0.1-0.1-0.2-0.3-0.2c-0.1,0-0.2,0.1-0.2,0.3v0.3l-3-5.4c0-0.1-0.1-0.1-0.2-0.1 h-3.4v19.3h2.3h4.6c0.1,0,0.2-0.1,0.2-0.3v-11c0.1,0,0.2-0.1,0.2-0.3v-1.3C215.1,129.2,215,129.1,214.8,129.1z" class="st30"/><line x1="158.8" x2="158.8" y1="131.1" y2="129.4" class="st19"/><line x1="186.7" x2="186.7" y1="130.9" y2="129.3" class="st13"/><line x1="200.8" x2="200.8" y1="130.9" y2="129.2" class="st13"/><path d="M187,128.1c0-0.1-0.1-0.2-0.3-0.2h-1.9v-3.2l0,0l0,0l0,0l0,0l0,0c0,0,0,0,0-0.1l0,0l0,0l0,0l0,0 l-0.2-0.1v-0.2V122c0-0.1-0.1-0.2-0.3-0.2c-0.1,0-0.2,0.1-0.2,0.3v0.2c-0.3-0.5-0.7-1-1.2-1.3c-0.8-0.5-1.7-0.7-2.7-0.8 v-2.6c0-0.1-0.1-0.2-0.3-0.2v25h7.1L187,128.1z" class="st30"/><path d="M172.7,142.1h-6.8v-16.5h8.9v2.3h-1.9c-0.1,0-0.2,0.1-0.2,0.2V142.1z" class="st30"/><path d="M187,142.1h6.8v-16.5h-8.9v2.3h1.9c0.1,0,0.3,0.1,0.3,0.2L187,142.1z" class="st30"/><line x1="173" x2="173" y1="131" y2="129.3" class="st19"/></g><path d="M159.1,129.1v-1c0-0.1-0.1-0.2-0.3-0.2c-0.1,0-0.2,0.1-0.2,0.3v0.3l-3-5.4c0-0.1-0.1-0.1-0.2-0.1H152 v19.3h2.3h4.6c0.1,0,0.3-0.1,0.2-0.3v-11c0.1,0,0.3-0.1,0.2-0.3v-1.3C159.3,129.2,159.2,129.1,159.1,129.1z" class="st30"/></g><g><polygon points="181.2 129.9 162.5 146.1 181.2 148.6 200 146.1" class="st18"/><g><g><polygon points="181.2 149.8 181.2 134.8 168.7 147.5" class="st18"/><polygon points="181.2 149.8 181.2 134.8 193.7 147.5" class="st18"/></g><line x1="172.7" x2="181.2" y1="148.2" y2="139.8" class="st13"/><line x1="177" x2="181.2" y1="148.9" y2="144.8" class="st13"/><line x1="172.7" x2="181.2" y1="148.2" y2="139.8" class="st19"/><line x1="177" x2="181.2" y1="148.9" y2="144.8" class="st19"/><line x1="176.9" x2="177" y1="139.2" y2="148.9" class="st19"/><line x1="172.5" x2="172.7" y1="143.7" y2="148.2" class="st19"/><line x1="189.7" x2="181.2" y1="148.2" y2="139.8" class="st19"/><line x1="185.4" x2="181.2" y1="148.9" y2="144.8" class="st19"/><line x1="185.6" x2="185.4" y1="139.2" y2="148.9" class="st19"/><line x1="189.9" x2="189.7" y1="143.7" y2="148.2" class="st19"/></g></g></g></g><g><image style="overflow:visible;opacity:.4;enable-background:new" width="182" height="182" transform="matrix(1 0 0 1 0 24.3)" xlink:href="790CE98D.html"/><g><g><path d="M145,173.3H33c-2.2,0-4-1.8-4-4v-112c0-2.2,1.8-4,4-4h112c2.2,0,4,1.8,4,4v112 C149,171.5,147.2,173.3,145,173.3z" class="st31"/><g><g><g><path d="M51.5,105.5c0,20.7,16.8,37.5,37.5,37.5s37.5-16.8,37.5-37.5S109.7,68,89,68S51.5,84.8,51.5,105.5z M56.5,105.5C56.5,87.6,71,73,89,73s32.5,14.6,32.5,32.5c0,18-14.6,32.5-32.5,32.5S56.5,123.5,56.5,105.5z" class="st19"/><g><polygon points="51.5 105.5 56.8 100.9 53 95 59.4 92 57.4 85.3 64.4 84.3 64.4 77.2 71.4 78.2 73.4 71.4 79.8 74.3 83.6 68.4 89 73 94.3 68.4 98.1 74.3 104.6 71.4 106.6 78.2 113.5 77.2 113.6 84.3 120.5 85.3 118.6 92 125 95 121.2 100.9 126.5 105.5 121.2 110.2 125 116.1 118.6 119.1 120.5 125.8 113.6 126.8 113.5 133.9 106.6 132.9 104.6 139.7 98.1 136.7 94.3 142.7 89 138.1 83.6 142.7 79.8 136.7 73.4 139.7 71.4 132.9 64.4 133.9 64.4 126.8 57.4 125.8 59.4 119.1 53 116.1 56.8 110.2" class="st19"/></g><g><line x1="89" x2="89" y1="73" y2="138" class="st16"/><line x1="121.4" x2="56.5" y1="105.5" y2="105.5" class="st19"/><line x1="111.9" x2="66" y1="82.5" y2="128.4" class="st19"/><line x1="111.9" x2="66" y1="128.4" y2="82.5" class="st19"/></g><g><line x1="101.3" x2="76.6" y1="75.5" y2="135.5" class="st19"/><line x1="119" x2="59" y1="117.8" y2="93.1" class="st19"/><line x1="118.9" x2="59" y1="93" y2="118" class="st19"/><line x1="101.5" x2="76.5" y1="135.5" y2="75.5" class="st19"/></g><g><path d="M82.4,69.3h2.5c0.7,0,1.3-0.6,1.3-1.3l0,0c0-0.7-0.6-1.3-1.3-1.3h-2.5c-0.7,0-1.3,0.6-1.3,1.3l0,0 C81.2,68.7,81.7,69.3,82.4,69.3z" class="st32"/><path d="M71.6,73h2.5c0.7,0,1.3-0.6,1.3-1.3l0,0c0-0.7-0.6-1.3-1.3-1.3h-2.5c-0.7,0-1.3,0.6-1.3,1.3l0,0 C70.3,72.5,70.9,73,71.6,73z" class="st32"/><path d="M63.1,78.5h2.5c0.7,0,1.3-0.6,1.3-1.3l0,0c0-0.7-0.6-1.3-1.3-1.3h-2.5c-0.7,0-1.3,0.6-1.3,1.3l0,0 C61.9,77.9,62.4,78.5,63.1,78.5z" class="st32"/><path d="M56.1,86.7h2.5c0.7,0,1.3-0.6,1.3-1.3l0,0c0-0.7-0.6-1.3-1.3-1.3h-2.5c-0.7,0-1.3,0.6-1.3,1.3l0,0 C54.8,86.1,55.4,86.7,56.1,86.7z" class="st32"/><path d="M51,96.5h3.8c0.3,0,0.6-0.3,0.6-0.6v-1.3c0-0.3-0.3-0.6-0.6-0.6H51c-0.3,0-0.6,0.3-0.6,0.6v1.3 C50.4,96.2,50.7,96.5,51,96.5z" class="st32"/><path d="M50.2,106.8h2.5c0.7,0,1.3-0.6,1.3-1.3l0,0c0-0.7-0.6-1.3-1.3-1.3h-2.5c-0.7,0-1.3,0.6-1.3,1.3 l0,0C49,106.2,49.5,106.8,50.2,106.8z" class="st32"/><path d="M51.7,117h2.5c0.7,0,1.3-0.6,1.3-1.3l0,0c0-0.7-0.6-1.3-1.3-1.3h-2.5c-0.7,0-1.3,0.6-1.3,1.3l0,0 C50.5,116.5,51,117,51.7,117z" class="st32"/><path d="M56,126.7h2.5c0.7,0,1.3-0.6,1.3-1.3l0,0c0-0.7-0.6-1.3-1.3-1.3H56c-0.7,0-1.3,0.6-1.3,1.3l0,0 C54.7,126.2,55.3,126.7,56,126.7z" class="st32"/><path d="M62.8,135.1h2.5c0.7,0,1.3-0.6,1.3-1.3l0,0c0-0.7-0.6-1.3-1.3-1.3h-2.5c-0.7,0-1.3,0.6-1.3,1.3 l0,0C61.5,134.5,62.1,135.1,62.8,135.1z" class="st32"/><path d="M71.8,140.8h2.5c0.7,0,1.3-0.6,1.3-1.3l0,0c0-0.7-0.6-1.3-1.3-1.3h-2.5c-0.7,0-1.3,0.6-1.3,1.3 l0,0C70.6,140.2,71.1,140.8,71.8,140.8z" class="st32"/><path d="M82.3,143.9h2.5c0.7,0,1.3-0.6,1.3-1.3l0,0c0-0.7-0.6-1.3-1.3-1.3h-2.5c-0.7,0-1.3,0.6-1.3,1.3 l0,0C81,143.3,81.6,143.9,82.3,143.9z" class="st32"/></g><g><path d="M82.4,69.3h2.5c0.7,0,1.3-0.6,1.3-1.3l0,0c0-0.7-0.6-1.3-1.3-1.3h-2.5c-0.7,0-1.3,0.6-1.3,1.3l0,0 C81.2,68.7,81.7,69.3,82.4,69.3z" class="st21"/><path d="M71.6,73h2.5c0.7,0,1.3-0.6,1.3-1.3l0,0c0-0.7-0.6-1.3-1.3-1.3h-2.5c-0.7,0-1.3,0.6-1.3,1.3l0,0 C70.3,72.5,70.9,73,71.6,73z" class="st21"/><path d="M63.1,78.5h2.5c0.7,0,1.3-0.6,1.3-1.3l0,0c0-0.7-0.6-1.3-1.3-1.3h-2.5c-0.7,0-1.3,0.6-1.3,1.3l0,0 C61.9,77.9,62.4,78.5,63.1,78.5z" class="st21"/><path d="M56.1,86.7h2.5c0.7,0,1.3-0.6,1.3-1.3l0,0c0-0.7-0.6-1.3-1.3-1.3h-2.5c-0.7,0-1.3,0.6-1.3,1.3l0,0 C54.8,86.1,55.4,86.7,56.1,86.7z" class="st21"/><path d="M51,96.5h3.8c0.3,0,0.6-0.3,0.6-0.6v-1.3c0-0.3-0.3-0.6-0.6-0.6H51c-0.3,0-0.6,0.3-0.6,0.6v1.3 C50.4,96.2,50.7,96.5,51,96.5z" class="st21"/><path d="M50.2,106.8h2.5c0.7,0,1.3-0.6,1.3-1.3l0,0c0-0.7-0.6-1.3-1.3-1.3h-2.5c-0.7,0-1.3,0.6-1.3,1.3 l0,0C49,106.2,49.5,106.8,50.2,106.8z" class="st21"/><path d="M51.7,117h2.5c0.7,0,1.3-0.6,1.3-1.3l0,0c0-0.7-0.6-1.3-1.3-1.3h-2.5c-0.7,0-1.3,0.6-1.3,1.3l0,0 C50.5,116.5,51,117,51.7,117z" class="st21"/><path d="M56,126.7h2.5c0.7,0,1.3-0.6,1.3-1.3l0,0c0-0.7-0.6-1.3-1.3-1.3H56c-0.7,0-1.3,0.6-1.3,1.3l0,0 C54.7,126.2,55.3,126.7,56,126.7z" class="st21"/><path d="M62.8,135.1h2.5c0.7,0,1.3-0.6,1.3-1.3l0,0c0-0.7-0.6-1.3-1.3-1.3h-2.5c-0.7,0-1.3,0.6-1.3,1.3 l0,0C61.5,134.5,62.1,135.1,62.8,135.1z" class="st21"/><path d="M71.8,140.8h2.5c0.7,0,1.3-0.6,1.3-1.3l0,0c0-0.7-0.6-1.3-1.3-1.3h-2.5c-0.7,0-1.3,0.6-1.3,1.3 l0,0C70.6,140.2,71.1,140.8,71.8,140.8z" class="st32"/><path d="M82.3,143.9h2.5c0.7,0,1.3-0.6,1.3-1.3l0,0c0-0.7-0.6-1.3-1.3-1.3h-2.5c-0.7,0-1.3,0.6-1.3,1.3 l0,0C81,143.3,81.6,143.9,82.3,143.9z" class="st21"/></g><g><path d="M95.5,69.3H93c-0.7,0-1.3-0.6-1.3-1.3l0,0c0-0.7,0.6-1.3,1.3-1.3h2.5c0.7,0,1.3,0.6,1.3,1.3l0,0 C96.8,68.7,96.2,69.3,95.5,69.3z" class="st21"/><path d="M106.4,73h-2.5c-0.7,0-1.3-0.6-1.3-1.3l0,0c0-0.7,0.6-1.3,1.3-1.3h2.5c0.7,0,1.3,0.6,1.3,1.3l0,0 C107.6,72.5,107.1,73,106.4,73z" class="st21"/><path d="M114.8,78.5h-2.5c-0.7,0-1.3-0.6-1.3-1.3l0,0c0-0.7,0.6-1.3,1.3-1.3h2.5c0.7,0,1.3,0.6,1.3,1.3 l0,0C116.1,77.9,115.5,78.5,114.8,78.5z" class="st21"/><path d="M121.9,86.7h-2.5c-0.7,0-1.3-0.6-1.3-1.3l0,0c0-0.7,0.6-1.3,1.3-1.3h2.5c0.7,0,1.3,0.6,1.3,1.3 l0,0C123.1,86.1,122.6,86.7,121.9,86.7z" class="st21"/><path d="M126.9,96.5h-3.8c-0.3,0-0.6-0.3-0.6-0.6v-1.3c0-0.3,0.3-0.6,0.6-0.6h3.8c0.3,0,0.6,0.3,0.6,0.6 v1.3C127.5,96.2,127.3,96.5,126.9,96.5z" class="st21"/><path d="M127.7,106.8h-2.5c-0.7,0-1.3-0.6-1.3-1.3l0,0c0-0.7,0.6-1.3,1.3-1.3h2.5c0.7,0,1.3,0.6,1.3,1.3 l0,0C129,106.2,128.4,106.8,127.7,106.8z" class="st21"/><path d="M126.2,117h-2.5c-0.7,0-1.3-0.6-1.3-1.3l0,0c0-0.7,0.6-1.3,1.3-1.3h2.5c0.7,0,1.3,0.6,1.3,1.3l0,0 C127.5,116.5,126.9,117,126.2,117z" class="st21"/><path d="M122,126.7h-2.5c-0.7,0-1.3-0.6-1.3-1.3l0,0c0-0.7,0.6-1.3,1.3-1.3h2.5c0.7,0,1.3,0.6,1.3,1.3l0,0 C123.3,126.2,122.7,126.7,122,126.7z" class="st21"/><path d="M115.2,135.1h-2.5c-0.7,0-1.3-0.6-1.3-1.3l0,0c0-0.7,0.6-1.3,1.3-1.3h2.5c0.7,0,1.3,0.6,1.3,1.3 l0,0C116.5,134.5,115.9,135.1,115.2,135.1z" class="st21"/><path d="M106.2,140.8h-2.5c-0.7,0-1.3-0.6-1.3-1.3l0,0c0-0.7,0.6-1.3,1.3-1.3h2.5c0.7,0,1.3,0.6,1.3,1.3 l0,0C107.4,140.2,106.8,140.8,106.2,140.8z" class="st32"/><path d="M95.7,143.9h-2.5c-0.7,0-1.3-0.6-1.3-1.3l0,0c0-0.7,0.6-1.3,1.3-1.3h2.5c0.7,0,1.3,0.6,1.3,1.3 l0,0C96.9,143.3,96.4,143.9,95.7,143.9z" class="st21"/></g></g></g><g><g><g><rect width="13.6" height="55.5" x="82.2" y="97.4" class="st28"/><line x1="93.5" x2="93.5" y1="152.9" y2="107.8" class="st19"/><line x1="91.3" x2="91.3" y1="152.9" y2="107.8" class="st19"/><line x1="89" x2="89" y1="152.9" y2="107.8" class="st19"/><line x1="86.7" x2="86.7" y1="152.9" y2="107.8" class="st19"/><line x1="84.4" x2="84.4" y1="152.9" y2="107.8" class="st19"/><rect width="15.6" height="10.2" x="81.2" y="102.7" class="st28"/><rect width="10.2" height="3.4" x="83.9" y="88.7" class="st14"/><rect width="11.6" height="10.2" x="83.2" y="102.7" class="st28"/><rect width="13.6" height="1.7" x="82.2" y="119" class="st28"/><rect width="13.6" height="1.7" x="82.2" y="127.5" class="st28"/><rect width="13.6" height="1.7" x="82.2" y="135.2" class="st28"/><rect width="13.6" height="1.7" x="82.2" y="143.7" class="st28"/><path d="M84.9,107.8c0,2.3,1.8,4.1,4.1,4.1c2.3,0,4.1-1.8,4.1-4.1c0-2.3-1.8-4.1-4.1-4.1 C86.7,103.8,84.9,105.6,84.9,107.8z" class="st18"/><polyline points="89 105.1 89 107.8 87.6 107.8" class="st19"/><line x1="91.5" x2="91.5" y1="91.1" y2="89.7" class="st16"/><line x1="89" x2="89" y1="91.1" y2="89.7" class="st16"/><line x1="86.4" x2="86.4" y1="91.1" y2="89.7" class="st16"/></g><line x1="95.8" x2="95.8" y1="97.4" y2="95.9" class="st19"/><line x1="82.2" x2="82.2" y1="97.4" y2="95.9" class="st19"/><line x1="81.2" x2="81.2" y1="102.7" y2="101.2" class="st19"/><line x1="96.8" x2="96.8" y1="102.7" y2="101.2" class="st19"/><line x1="83.9" x2="83.9" y1="88.7" y2="87.2" class="st16"/><line x1="94.1" x2="94.1" y1="88.7" y2="87.2" class="st16"/><line x1="89" x2="89" y1="75.1" y2="73.6" class="st19"/><g><line x1="91.5" x2="91.5" y1="101" y2="99.6" class="st19"/><line x1="89" x2="89" y1="101" y2="99.6" class="st19"/><line x1="94.1" x2="94.1" y1="101" y2="99.6" class="st19"/><line x1="86.4" x2="86.4" y1="101" y2="99.6" class="st19"/><line x1="83.9" x2="83.9" y1="101" y2="99.6" class="st19"/></g></g><path d="M82.2,97.4h13.6c0,0-1.7-2.7-1.7-5.3H83.9C83.9,94.8,82.2,97.4,82.2,97.4z" class="st21"/><path d="M83.9,88.7h10.2C91.3,84,89,75.1,89,75.1S86.7,84,83.9,88.7z" class="st21"/><g class="st27"><path d="M89,153.2v-80c0,0,0.3,0.1,0.3,0.3V75c0.8,2.7,2.7,9.3,4.5,12.6v-0.4c0,0,0.1-0.3,0.3-0.3 c0.2,0,0.3,0.3,0.3,0.3v5.3c0,0,0.1,2,1.1,3.8V96c0,0,0-0.3,0.3-0.3s0.3,0.3,0.3,0.3v6.5h1v10.8h-1v40H89V153.2z" class="st6"/></g></g><g><path d="M140,150.3H38c-0.8,0-1.5,0.7-1.5,1.5s0.7,1.5,1.5,1.5h102c0.8,0,1.5-0.7,1.5-1.5 S140.8,150.3,140,150.3z" class="st21"/><path d="M140,152H38c-0.8,0-1.5,0.4-1.5,0.8c0,0.5,0.7,0.8,1.5,0.8h102c0.8,0,1.5-0.4,1.5-0.8 C141.5,152.3,140.8,152,140,152z" class="st6"/><rect width="27" height="3" x="75.5" y="131.9" class="st21"/><rect width="27" height="1.8" x="75.5" y="133.4" class="st6"/><g><g><g><polygon id="XMLID_54_" points="101 152.2 91.9 140.9 92.9 139.9 102.5 149.4" class="st21"/></g><g><defs><polygon id="SVGID_5_" points="101 152.2 91.9 140.9 92.9 139.9 102.5 149.4"/></defs><clipPath id="SVGID_6_"><use xlink:href="#SVGID_5_" style="overflow:visible"/></clipPath><polygon points="91.9 140.4 91.5 140.8 101.4 152.8 102 151.5" class="st33"/></g><g><polygon points="101 152.2 91.9 140.9 92.9 139.9 102.5 149.4" class="st19"/></g></g><rect width="9" height="18.8" x="102.5" y="130.2" class="st28"/><rect width="12" height="10.5" x="101" y="149" class="st18"/><g class="st27"><path d="M107,159.8v-38.9c0,0,0.2,0,0.3,0.2l2.1,4.3l0.3-1.2c0,0,0.1-0.2,0.3-0.2c0.1,0,0.2,0.2,0.2,0.2 l1.5,6v18.5h1.5v11.1L107,159.8L107,159.8z" class="st6"/></g><rect width="9" height="1.7" x="102.5" y="139.6" class="st19"/><rect width="9" height="1.7" x="102.5" y="134.7" class="st19"/><rect width="9" height="1.7" x="102.5" y="144.3" class="st19"/><g><line x1="104.4" x2="104.4" y1="148.2" y2="146.8" class="st19"/><line x1="107" x2="107" y1="148.2" y2="146.8" class="st19"/><line x1="109.5" x2="109.5" y1="148.2" y2="146.8" class="st19"/></g><g><line x1="104.4" x2="104.4" y1="143.5" y2="142.1" class="st19"/><line x1="107" x2="107" y1="143.5" y2="142.1" class="st19"/><line x1="109.5" x2="109.5" y1="143.5" y2="142.1" class="st19"/></g><g><line x1="104.4" x2="104.4" y1="138.7" y2="137.3" class="st19"/><line x1="107" x2="107" y1="138.7" y2="137.3" class="st19"/><line x1="109.5" x2="109.5" y1="138.7" y2="137.3" class="st19"/></g><g><line x1="104.4" x2="104.4" y1="133.8" y2="132.4" class="st19"/><line x1="107" x2="107" y1="133.8" y2="132.4" class="st19"/><line x1="109.5" x2="109.5" y1="133.8" y2="132.4" class="st19"/></g><g><g><g><rect id="XMLID_53_" width="21" height="1.5" x="113" y="150.5" class="st21"/></g><g><defs><rect id="SVGID_7_" width="21" height="1.5" x="113" y="150.5"/></defs><clipPath id="SVGID_8_"><use xlink:href="#SVGID_7_" style="overflow:visible"/></clipPath><rect width="21" height=".8" x="113" y="151.2" class="st34"/></g><g><rect width="21" height="1.5" x="113" y="150.5" class="st19"/></g></g><rect width="6" height="10.5" x="134" y="149" class="st18"/><g class="st27"><rect width="3.3" height="11.1" x="137" y="148.7" class="st6"/></g><g><path d="M111.5,131.9c0,0,9.4,14.1,22.5,18.6" class="st19"/><line x1="119.1" x2="119.1" y1="150.5" y2="140.8" class="st19"/><line x1="116.6" x2="116.6" y1="150.5" y2="138.2" class="st19"/><line x1="121.7" x2="121.7" y1="150.5" y2="143.1" class="st13"/><line x1="114" x2="114" y1="150.5" y2="135.3" class="st19"/><line x1="129.4" x2="129.4" y1="150.5" y2="148.4" class="st19"/><line x1="126.8" x2="126.8" y1="150.5" y2="146.9" class="st19"/><line x1="131.9" x2="131.9" y1="150.5" y2="149.7" class="st19"/><line x1="124.3" x2="124.3" y1="150.5" y2="145.2" class="st19"/><line x1="121.7" x2="121.7" y1="150.5" y2="143.1" class="st19"/></g></g><polygon points="111.5 130.2 102.5 130.2 107 121.2" class="st21"/><polygon points="105.5 130.2 102.5 130.2 104 124.2" class="st21"/><polygon points="111.5 130.2 108.5 130.2 110 124.2" class="st21"/></g><g><g><g><polygon id="XMLID_52_" points="76.9 152.2 86.1 140.9 85 139.9 75.5 149.4" class="st21"/></g><g><defs><polygon id="SVGID_9_" points="76.9 152.2 86.1 140.9 85 139.9 75.5 149.4"/></defs><clipPath id="SVGID_10_"><use xlink:href="#SVGID_9_" style="overflow:visible"/></clipPath><polygon points="86.1 140.4 86.5 140.8 76.6 152.8 75.9 151.5" class="st35"/></g><g><polygon points="76.9 152.2 86.1 140.9 85 139.9 75.5 149.4" class="st19"/></g></g><rect width="9" height="18.8" x="66.5" y="130.2" class="st28"/><rect width="12" height="10.5" x="65" y="149" class="st18"/><rect width="9" height="1.7" x="66.5" y="139.6" class="st28"/><rect width="9" height="1.7" x="66.5" y="134.7" class="st28"/><rect width="9" height="1.7" x="66.5" y="144.3" class="st28"/><g><line x1="68.4" x2="68.4" y1="148.2" y2="146.8" class="st19"/><line x1="71" x2="71" y1="148.2" y2="146.8" class="st19"/><line x1="73.5" x2="73.5" y1="148.2" y2="146.8" class="st19"/></g><g><line x1="68.4" x2="68.4" y1="143.5" y2="142.1" class="st19"/><line x1="71" x2="71" y1="143.5" y2="142.1" class="st19"/><line x1="73.5" x2="73.5" y1="143.5" y2="142.1" class="st19"/></g><g><line x1="68.4" x2="68.4" y1="138.7" y2="137.3" class="st19"/><line x1="71" x2="71" y1="138.7" y2="137.3" class="st19"/><line x1="73.5" x2="73.5" y1="138.7" y2="137.3" class="st19"/></g><g><line x1="68.4" x2="68.4" y1="133.8" y2="132.4" class="st19"/><line x1="71" x2="71" y1="133.8" y2="132.4" class="st19"/><line x1="73.5" x2="73.5" y1="133.8" y2="132.4" class="st19"/></g><g><g><g><rect id="XMLID_51_" width="21" height="1.5" x="44" y="150.5" class="st21"/></g><g><defs><rect id="SVGID_11_" width="21" height="1.5" x="44" y="150.5"/></defs><clipPath id="SVGID_12_"><use xlink:href="#SVGID_11_" style="overflow:visible"/></clipPath><rect width="21" height=".8" x="44" y="151.2" class="st36"/></g><g><rect width="21" height="1.5" x="44" y="150.5" class="st19"/></g></g><rect width="6" height="10.5" x="38" y="149" class="st18"/><g class="st27"><rect width="3.3" height="11.1" x="41" y="148.7" class="st6"/></g><g><path d="M66.5,131.9c0,0-9.4,14.1-22.5,18.6" class="st19"/><line x1="58.8" x2="58.8" y1="150.5" y2="140.8" class="st19"/><line x1="61.4" x2="61.4" y1="150.5" y2="138.2" class="st19"/><line x1="56.3" x2="56.3" y1="150.5" y2="143.1" class="st13"/><line x1="63.9" x2="63.9" y1="150.5" y2="135.3" class="st19"/><line x1="48.6" x2="48.6" y1="150.5" y2="148.4" class="st19"/><line x1="51.1" x2="51.1" y1="150.5" y2="146.9" class="st19"/><line x1="46" x2="46" y1="150.5" y2="149.7" class="st16"/><line x1="53.7" x2="53.7" y1="150.5" y2="145.2" class="st19"/><line x1="56.3" x2="56.3" y1="150.5" y2="143.1" class="st19"/></g></g><polygon points="75.5 130.2 66.5 130.2 71 121.2" class="st21"/><polygon points="69.5 130.2 66.5 130.2 68 124.2" class="st21"/><polygon points="75.5 130.2 72.5 130.2 74 124.2" class="st21"/><g class="st27"><path d="M71,159.8v-38.9c0,0,0.2,0,0.3,0.2l2.1,4.3l0.3-1.2c0,0,0.1-0.2,0.3-0.2c0.1,0,0.2,0.2,0.2,0.2 l1.5,6v18.5h1.5v11.1L71,159.8L71,159.8z" class="st6"/></g></g></g></g></g></g></g></g></g><rect id="XMLID_1_" width="178" height="190" class="st1"/><g><rect width="10" height="10" x="28.5" y="16.9" class="st37" transform="matrix(0.866 -0.5 0.5 0.866 -6.466 19.6771)"/><polygon points="80.4 198.5 84.5 184.4 71.3 189.2" class="st37"/><path d="M130.3,41c0,1.9-1.5,3.4-3.4,3.4s-3.4-1.5-3.4-3.4s1.5-3.4,3.4-3.4S130.3,39.1,130.3,41z" class="st37"/></g></g></g></g></svg>