<?xml version="1.0" encoding="utf-8"?>
<!-- Generator: Adobe Illustrator 22.1.0, SVG Export Plug-In . SVG Version: 6.00 Build 0)  -->
<svg version="1.1" id="Layer_1" xmlns="http://www.w3.org/2000/svg" xmlns:xlink="http://www.w3.org/1999/xlink" x="0px" y="0px"
	 width="153px" height="60px" viewBox="0 0 153 60" style="enable-background:new 0 0 153 60;" xml:space="preserve">
<style type="text/css">
	.st0{fill:#FFFFFF;}
</style>
<path class="st0" d="M58.3,58.7c0.2,0.7-0.4,1.3-0.9,1.3c-1.9,0.2-6-2.2-6.3-6c-0.4-3.7,6.3-20.5,12.9-34.3
	C52.7,36,37.2,57.4,32.4,57.9c-3.7,0.4-6.9-1.7-7.3-5.2c-0.7-6.9,16.6-34.6,16-40c0-0.6-0.2-0.9-1.1-0.9C34.2,12.5,4.6,29.3,5.4,36
	c0.2,1.1-0.2,1.5-0.9,1.5c-1.3,0.2-3.9-1.9-4.3-4.8C-0.8,24,28.3,9,37,8c4.3-0.6,8.6,3,8.9,6.7c0.6,5.4-14.5,33.9-14,38.2
	c0,0.4,0.2,0.6,0.6,0.6c2.8-0.4,32-41.4,41-52.7C73.9,0.4,74.5,0,75,0c1.9-0.2,4.5,1.7,4.7,2.6c0,0.2,0,0.2,0,0.4
	C70.9,14,57.3,49.4,58.3,58.7z M117.5,15.5c0.6,0,1.1-0.4,1.1-0.9c-0.2-1.7,4.3-8,6.3-8.2c0.7,0,0.9-0.6,0.9-1.1
	c-0.2-1.9-3.5-5.4-6.3-5c-0.7,0-1.5,0.4-2,1.1c-1.7,2-3.7,8.8-3.5,11.9C114.1,14.7,116.2,15.7,117.5,15.5z M152.9,29.4
	c0.2,2.2-7.5,5.6-14,7.1c-2.8,5.6-7.5,11.5-12.7,12.1c-5.4,0.6-7.8-2.2-8-5.6c-0.2-1.1,0.6-3.4,1.3-5.6c-4.1,4.5-10.1,10.2-13,10.6
	c-2.6,0.2-5.2-2-5.6-5c0-0.6,0-1.5,0.4-2.6c-3.9,4.1-8.8,8.6-11.5,8.9c-2.8,0.2-5.2-2-5.6-5c-0.2-2.4,1.1-8.2,2.6-12.5
	c-6,5.8-15.1,17.9-14.9,20.5c0,0.9-0.4,1.3-0.9,1.5c-1.5,0.2-4.5-2-4.7-5.6c-0.2-2.4,5.2-19.4,9.1-19.7c1.9-0.2,4.1,1.9,4.3,2.8
	c0,0,0,0.2-0.2,0.4c-2.2,2.8-5,7.5-6.5,12.3c5.2-7.8,15.1-17.7,17.1-17.9c1.9-0.2,4.3,1.9,4.3,2.8c0,0,0,0.2-0.2,0.4
	c-1.7,2-4.1,11.4-3.7,14.7c0,0.7,0.4,1.3,0.7,1.3c1.7-0.2,8.8-7.5,12.1-11.2c2-5,4.7-10.1,6.1-11.7c0.4-0.4,0.9-0.7,1.5-0.7
	c2-0.2,4.8,1.9,4.8,2.6c0,0.2,0,0.2,0,0.4c-1.9,2.2-8.6,16-8.2,18.8c0,0.4,0.2,0.6,0.6,0.6c1.7-0.2,9.1-8,12.3-11.5c0,0,0,0,0-0.2
	c-0.4-4.7,7.3-11.5,12.3-11.9c5-0.6,8.6,3.9,8.9,7.5c0.2,1.1-0.4,3-1.1,5.2c4.5-0.9,8.4-2.6,10.1-4.7c0.2-0.2,0.2-0.2,0.4-0.2
	C151.9,27.8,152.9,28.7,152.9,29.4z M131.8,37.6c-2.4,0.2-4.5,0-6.3-0.6c-0.9,2-1.5,5-1.3,6.9c0,0.9,0.4,1.5,0.9,1.3
	C126.6,45.3,129.4,41.7,131.8,37.6z M136.9,24.4c0-0.9-0.6-1.5-1.3-1.3c-5.4,0.6-11,6.3-10.8,8.2c0.2,1.9,4.3,2.6,9.3,2.4
	C135.7,29.8,137,26.3,136.9,24.4z"/>
</svg>
