<svg xmlns="http://www.w3.org/2000/svg" id="ba9aa534-a335-424f-8f2e-8246f5cf478e" width="865" height="779.064" data-name="Layer 1" viewBox="0 0 865 779.064"><title>traveling</title><rect width="459" height="594" x="406" y="27.5" fill="#f2f2f2" rx="38.142"/><rect width="459" height="594" x="384" y=".5" fill="none" stroke="#3f3d56" stroke-miterlimit="10" rx="38.142"/><rect width="408" height="471.059" x="407.5" y="61.971" fill="none" stroke="#3f3d56" stroke-miterlimit="10"/><circle cx="613.5" cy="31" r="10" fill="none" stroke="#3f3d56" stroke-miterlimit="10"/><circle cx="613.5" cy="563.5" r="22" fill="none" stroke="#3f3d56" stroke-miterlimit="10"/><path fill="#671cc9" d="M768.49028,174.035a67.00973,67.00973,0,0,0-67.00974,67.00974c0,37.00844,70.20068,173.50735,70.20068,173.50735S835.5,278.05313,835.5,241.04469A67.00973,67.00973,0,0,0,768.49028,174.035Zm0,111.6829a35.10034,35.10034,0,1,1,35.10033-35.10034A35.10034,35.10034,0,0,1,768.49028,285.71785Z" transform="translate(-167.49999 -60.46789)"/><ellipse cx="601" cy="400.5" fill="#671cc9" rx="67" ry="22"/><path fill="none" stroke="#3f3d56" stroke-miterlimit="10" d="M529.38066,156.42527a22.982,22.982,0,0,0-19.80994,13.851c-4.9535,11.97382,1.4245,26.03886,10.999,34.77028s21.87359,13.72225,33.04832,20.28234c15.00951,8.81129,28.4968,21.04282,36.0069,36.74386s8.30889,35.15009-.51891,50.14991c-8.1937,13.9224-23.09255,22.2549-37.30219,29.9397" transform="translate(-167.49999 -60.46789)"/><ellipse cx="374.5" cy="97" fill="#57b894" rx="17.5" ry="8.5"/><ellipse cx="388.5" cy="153" fill="#57b894" rx="17.5" ry="8.5"/><ellipse cx="356.5" cy="162" fill="#57b894" rx="17.5" ry="8.5"/><ellipse cx="406.5" cy="209" fill="#57b894" rx="17.5" ry="8.5"/><ellipse cx="441.5" cy="209" fill="#57b894" rx="17.5" ry="8.5"/><line x1="47.491" x2="406" y1="778.564" y2="778.564" fill="none" stroke="#3f3d56" stroke-miterlimit="10"/><path fill="none" stroke="#3f3d56" stroke-miterlimit="10" d="M201.843,665.79059a21.4007,21.4007,0,0,0-18.44687,12.89791c-4.61266,11.14993,1.32648,24.24719,10.24221,32.37783s20.36852,12.77806,30.77434,18.88677c13.97676,8.205,26.536,19.59491,33.52937,34.21561s7.73717,32.73151-.4832,46.69923c-7.62992,12.96444-21.50362,20.7236-34.73553,27.87963" transform="translate(-167.49999 -60.46789)"/><ellipse cx="46.094" cy="606.294" fill="#57b894" rx="16.296" ry="7.915"/><ellipse cx="59.131" cy="658.44" fill="#57b894" rx="16.296" ry="7.915"/><ellipse cx="29.333" cy="666.821" fill="#57b894" rx="16.296" ry="7.915"/><ellipse cx="75.892" cy="710.587" fill="#57b894" rx="16.296" ry="7.915"/><ellipse cx="108.484" cy="710.587" fill="#57b894" rx="16.296" ry="7.915"/><path fill="none" stroke="#3f3d56" stroke-miterlimit="10" d="M241.35677,697.76985a17.47726,17.47726,0,0,1,15.06495,10.53331c3.767,9.10578-1.08329,19.80188-8.36448,26.4419s-16.6343,10.43542-25.13239,15.4242c-11.41436,6.70076-21.67109,16.00253-27.38233,27.94277s-6.3187,26.73074.39462,38.13772c6.2311,10.58763,17.56129,16.92428,28.36736,22.76838" transform="translate(-167.49999 -60.46789)"/><ellipse cx="64.26" cy="638.095" fill="#57b894" rx="13.308" ry="6.464"/><ellipse cx="53.613" cy="680.681" fill="#57b894" rx="13.308" ry="6.464"/><ellipse cx="77.949" cy="687.526" fill="#57b894" rx="13.308" ry="6.464"/><ellipse cx="39.925" cy="723.268" fill="#57b894" rx="13.308" ry="6.464"/><ellipse cx="13.308" cy="723.268" fill="#57b894" rx="13.308" ry="6.464"/><path fill="#3f3d56" d="M297.34552,797.97233s9.31192,4.656,15.83027,5.58716,10.18471-5.66194,8.81713-7.95253,4.21957-.4282,7.94434,7.95253c0,0,15.83028,18.62385,25.1422,19.55505s9.38464,13.538,4.656,13.96789c-5.12156.46559-13.96789,3.72477-25.14221,0s-21.41743-13.96789-26.07339-13.96789-20.48624-7.44955-15.83028-11.17432S297.34552,797.97233,297.34552,797.97233Z" transform="translate(-167.49999 -60.46789)"/><path fill="#3f3d56" d="M389.12386,819.01147a51.71333,51.71333,0,0,0,14.20836-.872c6.39831-1.55486,7.35545-9.03787,5.23533-10.65719s3.75918-1.96386,10.32867,4.43555c0,0,21.61226,11.41733,30.60457,8.82553s13.73932,9.08737,9.508,11.24176a53.94948,53.94948,0,0,1-23.32533,6.58138c-11.75859.6891-25.0927-2.269-29.416-.5408s-21.78784.6869-18.84709-4.5S389.12386,819.01147,389.12386,819.01147Z" transform="translate(-167.49999 -60.46789)"/><circle cx="205.794" cy="278.048" r="36.317" fill="#ffc1c7"/><path fill="#ffc1c7" d="M344.89221,352.94954s5.58716,39.11009-7.44954,44.69725,66.11468,3.72477,66.11468,3.72477-11.17431-35.38532-8.38073-44.69725S344.89221,352.94954,344.89221,352.94954Z" transform="translate(-167.49999 -60.46789)"/><path fill="#2f2e41" d="M331.85552,575.50459s-2.79358,70.77064-5.58716,78.22018-5.58716,57.73395-5.58716,57.73395l-24.211,91.25688,22.34863,7.44954S349.54818,756.156,353.273,749.63761s33.52293-110.81192,33.52293-110.81192-2.79357,64.25229-2.79357,85.66972,5.58715,99.63762,5.58715,99.63762l17.69266-1.86239,23.27982-98.70642s33.52293-133.16055,11.17431-148.05963S331.85552,575.50459,331.85552,575.50459Z" transform="translate(-167.49999 -60.46789)"/><path fill="#ffc1c7" d="M467.80964,597.85321s.9312,54.00918-10.24311,45.62844,0-50.2844,0-50.2844Z" transform="translate(-167.49999 -60.46789)"/><path fill="#ffc1c7" d="M313.23166,579.22936s.9312,54.00917-10.24312,45.62844,0-50.28441,0-50.28441Z" transform="translate(-167.49999 -60.46789)"/><path fill="#671cc9" d="M450.117,421.8578s-18.62385-21.41743-34.45412-18.62386-102.4312,1.86239-102.4312,1.86239-28.867,36.31651-21.41743,43.766,31.66055,139.6789,31.66055,139.6789,64.2523-8.38073,86.60092-8.38073,31.66055-3.72477,31.66055-3.72477-29.79817-59.59633-15.83028-86.60092S460.3601,433.9633,460.3601,433.9633Z" transform="translate(-167.49999 -60.46789)"/><path fill="#671cc9" d="M444.52983,428.37615l15.83027,5.58715S469.672,466.555,469.672,492.62844s.93119,39.11009,4.656,48.422,15.83028,53.078,9.31193,62.38991a62.09627,62.09627,0,0,1-13.0367,13.96789l-21.41743-1.86239s-.93119-30.72936-6.51835-33.52293-13.03669-20.48624-13.03669-20.48624-17.69267-56.80276-6.51835-75.42661S444.52983,428.37615,444.52983,428.37615Z" transform="translate(-167.49999 -60.46789)"/><path fill="#3f3d56" d="M384.9335,462.83027s9.31192-40.97247-8.38074-39.11009-41.90367,2.79358-48.422,2.79358-43.76606-4.656-49.35322,19.555-13.03669,54.00917,2.79358,72.633c0,0,5.58716,81.945,27.00459,87.53211s78.22018,12.10551,98.70642-14.89908,12.10551-56.80275,12.10551-56.80275H410.0757Z" transform="translate(-167.49999 -60.46789)"/><polygon fill="#3f3d56" points="248.163 475.927 255.612 425.642 251.888 477.789 248.163 475.927"/><path d="M290.883,525.22018s15.83027,7.44954,48.422,2.79358v13.96789l-48.422-3.72477Z" opacity=".1" transform="translate(-167.49999 -60.46789)"/><polygon fill="#3f3d56" points="208.587 362.787 232.798 349.75 212.312 367.443 208.587 362.787"/><path fill="#671cc9" d="M427.76836,409.75229s18.62385,6.51835,18.62385,0-16.76146-12.1055-27.00458-15.83027-58.66514-9.31193-66.11468-12.10551-42.83487-7.44954-45.62844,3.72477-3.72477,34.45413,10.24312,37.24771,50.2844-4.656,68.90825-2.79358S427.76836,409.75229,427.76836,409.75229Z" transform="translate(-167.49999 -60.46789)"/><path d="M427.76836,409.75229s18.62385,6.51835,18.62385,0-16.76146-12.1055-27.00458-15.83027-58.66514-9.31193-66.11468-12.10551-42.83487-7.44954-45.62844,3.72477-3.72477,34.45413,10.24312,37.24771,50.2844-4.656,68.90825-2.79358S427.76836,409.75229,427.76836,409.75229Z" opacity=".1" transform="translate(-167.49999 -60.46789)"/><polygon fill="#3f3d56" points="130.367 370.236 136.696 356.942 137.817 373.03 130.367 370.236"/><ellipse cx="199.5" cy="276.032" fill="#2f2e41" rx="34" ry="39.5"/><ellipse cx="205.5" cy="255.032" fill="#2f2e41" rx="34" ry="21.5"/><ellipse cx="232" cy="287.532" fill="#ffc1c7" rx="3.5" ry="6"/><path fill="#2f2e41" d="M394.61838,310.08647c3.57661-1.95762,6.63213-5.49691,8.91976-10.332a10.901,10.901,0,0,1,.17861,3.27042,12.38365,12.38365,0,0,0,4.25791-1.28372l-.31909,3.48552a35.95487,35.95487,0,0,0,7.0287-5.62774,27.67423,27.67423,0,0,1-2.462,14.8584c-1.85521,3.66314-4.37648,6.04583-6.87143,8.39277" transform="translate(-167.49999 -60.46789)"/></svg>