<svg xmlns="http://www.w3.org/2000/svg" xmlns:xlink="http://www.w3.org/1999/xlink" id="d0a49112-1639-4682-9529-9d2abcda4fd6" x="0" y="0" version="1.1" viewBox="0 0 907 730" xml:space="preserve" style="enable-background:new 0 0 907 730"><style type="text/css">.st0{fill:none;stroke:#64ffda;stroke-width:4;stroke-miterlimit:10;stroke-dasharray:12.07,15.09}.st1{opacity:.1;fill:#000010}.st2{fill:url(#SVGID_1_)}.st3{fill:#fff}.st4{fill:url(#SVGID_2_)}.st5{fill:#671cc9}.st6{fill:#e0e0e0}.st7{fill:#f5f5f5}.st8{opacity:.2;enable-background:new}.st8,.st9{fill:#69f0ae}.st10{opacity:.2;fill:#ff6e40;enable-background:new}.st11{fill:url(#SVGID_3_)}.st12{opacity:.3;enable-background:new}.st12,.st13{fill:#ff6e40}.st14{fill:url(#SVGID_4_)}.st15{fill:url(#SVGID_5_)}.st16{opacity:.2}.st17{opacity:.6;fill:#000010}</style><title>setup</title><circle cx="423.1" cy="365" r="363" class="st0"/><rect width="382" height="243" x="76.2" y="109.9" class="st1"/><linearGradient id="SVGID_1_" x1="219.025" x2="219.025" y1="406.23" y2="655.04" gradientTransform="matrix(1 0 0 -1 0 730)" gradientUnits="userSpaceOnUse"><stop offset="0" style="stop-color:gray;stop-opacity:.25"/><stop offset=".54" style="stop-color:gray;stop-opacity:.12"/><stop offset="1" style="stop-color:gray;stop-opacity:.1"/></linearGradient><rect width="438" height="248.8" y="75" class="st2"/><rect width="427.5" height="206.8" x="4.7" y="111.2" class="st3"/><linearGradient id="SVGID_2_" x1="33.88" x2="182.23" y1="523.035" y2="523.035" gradientTransform="matrix(1 0 0 -1 0 730)" gradientUnits="userSpaceOnUse"><stop offset="0" style="stop-color:gray;stop-opacity:.25"/><stop offset=".54" style="stop-color:gray;stop-opacity:.12"/><stop offset="1" style="stop-color:gray;stop-opacity:.1"/></linearGradient><rect width="148.4" height="156.5" x="33.9" y="128.7" class="st4"/><rect width="140.2" height="149.5" x="38.5" y="132.2" class="st5"/><path d="M147.8,191.2c-1.1-8.9-2.6-17.8-6-26.1s-8.9-15.9-16.5-20.7c-2.7-1.8-5.8-2.9-9.1-3.1c-6-0.2-11.4,3.8-14.5,8.9	c-1,1.8-1.9,3.6-2.7,5.5c-5.8,1-10.2,5.8-10.6,11.8c-16.6,7.1-24.4,26.3-17.3,42.9c4,9.3,12.1,16.3,21.9,18.9v5.6	c-14.4,3.8-24.5,16.8-24.5,31.7v15.2h65.4v-15.2c0-14.9-10.1-27.9-24.5-31.7v-5.6c14.4-3.7,24.5-16.8,24.5-31.7c0-0.1,0-0.1,0-0.2	l3.7,8.2c3.5,7.8,7.1,16.2,5.7,24.6C150,218.7,149.4,204.5,147.8,191.2z" class="st3"/><rect width="427.5" height="31.5" x="4.7" y="79.6" class="st5"/><rect width="162.4" height="10.5" x="236" y="176" class="st6"/><rect width="162.4" height="10.5" x="236" y="220.4" class="st7"/><rect width="95.8" height="10.5" x="234.8" y="198.2" class="st1"/><rect width="65.4" height="10.5" x="234.8" y="242.6" class="st8"/><rect width="65.4" height="10.5" x="311.9" y="242.6" class="st9"/><rect width="215.5" height="100.5" x="667.4" y="136.7" class="st10"/><linearGradient id="SVGID_3_" x1="749.04" x2="749.04" y1="508.17" y2="617.36" gradientTransform="matrix(1 0 0 -1 0 730)" gradientUnits="userSpaceOnUse"><stop offset="0" style="stop-color:gray;stop-opacity:.25"/><stop offset=".54" style="stop-color:gray;stop-opacity:.12"/><stop offset="1" style="stop-color:gray;stop-opacity:.1"/></linearGradient><rect width="231.1" height="109.2" x="633.5" y="112.6" class="st11"/><rect width="215.5" height="100.5" x="642" y="115.2" class="st3"/><rect width="125.7" height="11.9" x="674.6" y="137.2" class="st12"/><rect width="65.2" height="11.9" x="674.6" y="164.5" class="st13"/><rect width="502.8" height="135.3" x="404.2" y="557.4" class="st1"/><linearGradient id="SVGID_4_" x1="628.365" x2="628.365" y1="58.06" y2="202.07" gradientTransform="matrix(1 0 0 -1 0 730)" gradientUnits="userSpaceOnUse"><stop offset="0" style="stop-color:gray;stop-opacity:.25"/><stop offset=".54" style="stop-color:gray;stop-opacity:.12"/><stop offset="1" style="stop-color:gray;stop-opacity:.1"/></linearGradient><rect width="510.1" height="144" x="373.3" y="527.9" class="st14"/><rect width="502.8" height="134.3" x="377" y="532.8" class="st3"/><linearGradient id="SVGID_5_" x1="499.83" x2="499.83" y1="79.76" y2="180.36" gradientTransform="matrix(1 0 0 -1 0 730)" gradientUnits="userSpaceOnUse"><stop offset="0" style="stop-color:gray;stop-opacity:.25"/><stop offset=".54" style="stop-color:gray;stop-opacity:.12"/><stop offset="1" style="stop-color:gray;stop-opacity:.1"/></linearGradient><circle cx="499.8" cy="599.9" r="50.3" class="st15"/><circle cx="499.8" cy="599.9" r="44.7" class="st5"/><g class="st16"><rect width="79.6" height="14" x="587.8" y="566.4" class="st17"/><rect width="219.3" height="14" x="587.8" y="593" class="st17"/><rect width="219.3" height="14" x="587.8" y="619.5" class="st17"/></g><polygon points="529.2 582 519.3 574.5 493.5 608.4 479 597.4 471.5 607.2 490.9 622 491 621.9 495.9 625.7" class="st3"/></svg>