<svg xmlns="http://www.w3.org/2000/svg" xmlns:xlink="http://www.w3.org/1999/xlink" id="a0abe8dc-3e6b-48ed-b282-1465f1104096" x="0" y="0" version="1.1" viewBox="0 0 886.1 718.4" xml:space="preserve" style="enable-background:new 0 0 886.1 718.4"><style type="text/css">.st0{fill:#e6e6e6}.st1{fill:#fff}.st2{fill:#e2e2e2}.st3{fill:#671cc9}.st4{fill:#a0616a}.st5{fill:#2f2e41}.st6{fill:#575a89}.st7{opacity:.2;enable-background:new}</style><title>select_option</title><ellipse cx="638.5" cy="698.4" class="st0" rx="94.6" ry="20"/><polygon points="191.2 0 63.7 0 0 110.4 63.7 220.8 191.2 220.8 254.9 110.4" class="st0"/><path d="M70.9,208.4H184l56.6-98l-56.6-98H70.9l-56.6,98L70.9,208.4z" class="st1"/><circle cx="69.5" cy="81.1" r="5.2" class="st2"/><circle cx="69.5" cy="110.4" r="5.2" class="st2"/><circle cx="69.5" cy="139.6" r="5.2" class="st2"/><rect width="99.2" height="8.4" x="91.4" y="77" class="st2"/><rect width="99.2" height="8.4" x="91.4" y="106.2" class="st2"/><rect width="99.2" height="8.4" x="91.4" y="135.4" class="st2"/><polygon points="822.4 0 694.9 0 631.2 110.4 694.9 220.8 822.4 220.8 886.1 110.4" class="st0"/><path d="M702.1,208.4h113.2l56.6-98l-56.6-98H702.1l-56.6,98L702.1,208.4z" class="st1"/><circle cx="700.7" cy="81.1" r="5.2" class="st2"/><circle cx="700.7" cy="110.4" r="5.2" class="st2"/><circle cx="700.7" cy="139.6" r="5.2" class="st2"/><rect width="99.2" height="8.4" x="722.6" y="77" class="st2"/><rect width="99.2" height="8.4" x="722.6" y="106.2" class="st2"/><rect width="99.2" height="8.4" x="722.6" y="135.4" class="st2"/><polygon points="503.7 1.1 377.5 1.1 314.4 110.4 377.5 219.7 503.7 219.7 566.8 110.4" class="st0"/><path d="M384.6,207.4h112.1l56-97l-56-97H384.6l-56,97L384.6,207.4z" class="st1"/><circle cx="383.2" cy="81.4" r="5.2" class="st3"/><circle cx="383.2" cy="110.4" r="5.2" class="st3"/><circle cx="383.2" cy="139.3" r="5.2" class="st3"/><rect width="98.2" height="8.3" x="405" y="77.3" class="st3"/><rect width="98.2" height="8.3" x="405" y="106.2" class="st3"/><rect width="98.2" height="8.3" x="405" y="135.2" class="st3"/><path d="M618.4,192.3c0,0,10.3,38.6,19.1,41.1S590.7,244,590.7,244l-1.2-34.6L618.4,192.3z" class="st4"/><polygon points="573 432.9 583.3 454.9 595 443.2 587.7 425.5" class="st4"/><polygon points="700.9 419.7 698 440.2 689.1 434.4 689.1 412.3" class="st4"/><polygon points="574.5 641.6 570.1 676.9 593.6 678.4 590.6 641.6" class="st4"/><polygon points="703.8 641.6 708.2 676.9 684.7 678.4 687.7 641.6" class="st4"/><path d="M584.8,421.1c0,0-10.3,27.9-8.8,39.7s-11.8,72-7.4,77.9c4.4,5.9,4.4,13.2,1.5,17.6c-2.9,4.4-4.4-1.5-2.9,5.9	c1.5,7.4-1.5,44.1,0,50s-4.4,7.4-1.5,13.2c2.9,5.9,7.4,23.5,7.4,23.5l19.1-1.5l2.9-16.2c0,0,8.8-1.5,7.4-10.3s7.4-67.6,7.4-67.6	l25-82.3l35.3,75c0,0,1.5,52.9,5.9,58.8c4.4,5.9-4.4,22.1,0,27.9c4.4,5.9,8.8,16.2,8.8,16.2h22.1v-11.8c0,0,13.2-7.4,0-29.4	l-2.9-126.4l-8.8-60.3H584.8z" class="st5"/><path d="M596.5,672.5c0,0-10.3-4.4-14.7-1.5c-4.4,2.9-7.4-1.5-7.4-1.5s-5.9-2.9-7.4,1.5c-1.1,3.1-2.6,6.1-4.4,8.8	c0,0-8.8,16.2-2.9,20.6c5.9,4.4,10.3,7.4,10.3,10.3s27.9,4.4,27.9,0S596.5,672.5,596.5,672.5z" class="st5"/><path d="M681.8,672.5c0,0,10.3-4.4,14.7-1.5c4.4,2.9,7.4-1.5,7.4-1.5s5.9-2.9,7.4,1.5c1.1,3.1,2.6,6.1,4.4,8.8	c0,0,8.8,16.2,2.9,20.6c-5.9,4.4-10.3,7.4-10.3,10.3s-27.9,4.4-27.9,0S681.8,672.5,681.8,672.5z" class="st5"/><path d="M672.2,241c0,0-41.2-16.2-63.2-10.3c-22.1,5.9-58.8,32.3-57.3,38.2s15.4,74.2,15.4,74.2s0,41.2,7.4,54.4	c7.4,13.2,8.8,23.5,8.8,23.5l-1.5,14.7c0,0,38.2,2.9,58.8-5.9S695,427,695,427s-17.6-73.5-26.5-85.3C659.7,330,672.2,241,672.2,241z" class="st6"/><path d="M564.2,265.3l-13.2,4.4c0,0-11.8,17.6-11.8,29.4s-1.5,85.3,4.4,95.6c5.9,10.3,11.8,30.9,20.6,32.3l10.3,13.2	l17.6-11.8l-5.9-13.2L564.2,265.3z" class="st6"/><path d="M652.4,243.2l14.6-4.1l6,2.6c0,0,22.1,22.1,29.4,44.1c7.4,22.1,8.8,107.3,8.8,107.3s1.5,4.4,0,5.9	c-1.5,1.5-2.9,2.9-2.9,5.9c0,2.9-2.9,8.8-2.9,8.8l-1.5,11.8l-14.7-1.5c0,0-27.9-82.3-27.9-101.4S652.4,243.2,652.4,243.2z" class="st6"/><path d="M648.3,233.5c0,0,0.4-7.2-4-8.7c-4.4-1.5-10.3-8.8-22.1-5.9s-42.6,7.4-44.1,10.3s-5.9,4.4-4.4,7.4	s4.4,0,1.5,2.9c-2.9,2.9-4.4,1.5-2.9,2.9c1.5,1.5,1.5,8.8,1.5,8.8s22.1,14.7,27.9,13.2c5.9-1.5,41-32.3,41-32.3L648.3,233.5z" class="st6"/><polygon points="573.7 329.7 572.2 379.8 583.9 415.1" class="st7"/><polygon points="675.1 307.9 688.4 356.2 685.3 393.2" class="st7"/><circle cx="602.8" cy="189.6" r="31.2" class="st4"/><path d="M576.2,187.4c2.2,5.6,4.4,11.3,6.6,16.9c2.7,6.9,5.8,14.3,12.2,18.2c7.8,4.8,18.3,2.4,25.9-2.7	c13.5-9.2,20.4-27.2,16.5-43.1s-18.4-28.6-34.7-30.4l-0.3,5.6l-6.9-5.8c-1.8,3.7-7.7,4.5-10.5,1.5c1.8,3.8-0.3,8.4-3.3,11.3	c-3.7,3.6-14.4,7.8-13.9,14.2C568,177.2,574.5,183,576.2,187.4z" class="st5"/></svg>