<svg xmlns="http://www.w3.org/2000/svg" xmlns:xlink="http://www.w3.org/1999/xlink" id="e8345542-4160-463b-841e-d6381701a249" x="0" y="0" version="1.1" viewBox="0 0 1014.9 616.5" xml:space="preserve" style="enable-background:new 0 0 1014.9 616.5"><style type="text/css">.st0{opacity:.1}.st1{fill:url(#SVGID_1_)}.st2{fill:#65657c}.st3{fill:#671cc9}.st4{fill:#797bf2}.st5{fill:#4e4e63}.st6{opacity:.5}.st7,.st8{opacity:.1;fill:url(#SVGID_2_)}.st8{fill:url(#SVGID_3_)}.st9{fill:#69f0ae}</style><title>windows</title><g class="st0"><linearGradient id="SVGID_1_" x1="223" x2="223" y1="249.67" y2="616" gradientTransform="matrix(1 0 0 -1 0 616)" gradientUnits="userSpaceOnUse"><stop offset="0" style="stop-color:gray;stop-opacity:.25"/><stop offset=".54" style="stop-color:gray;stop-opacity:.12"/><stop offset="1" style="stop-color:gray;stop-opacity:.1"/></linearGradient><rect width="446" height="366.3" class="st1"/></g><rect width="434.7" height="353.3" x="5.2" y="6.9" class="st2"/><rect width="434.7" height="78.8" x="5.2" y="6.9" class="st3"/><rect width="434.7" height="78.8" x="5.2" y="6.9" class="st4"/><rect width="365.5" height="45.9" x="39.8" y="114.3" class="st5"/><rect width="266.7" height="15.6" x="39.8" y="194.9" class="st5"/><rect width="173.2" height="15.6" x="39.8" y="221.7" class="st5"/><rect width="228.6" height="15.6" x="39.8" y="248.6" class="st5"/><rect width="266.7" height="15.6" x="39.8" y="275.4" class="st5"/><rect width="89.2" height="15.6" x="39.8" y="302.2" class="st5"/><g class="st6"><linearGradient id="SVGID_2_" x1="829" x2="829" y1="134.25" y2="500.58" gradientTransform="matrix(-1 0 0 -1 1620.92 500.58)" gradientUnits="userSpaceOnUse"><stop offset="0" style="stop-color:gray;stop-opacity:.25"/><stop offset=".54" style="stop-color:gray;stop-opacity:.12"/><stop offset="1" style="stop-color:gray;stop-opacity:.1"/></linearGradient><rect width="446" height="366.3" x="568.9" class="st7"/></g><rect width="434.7" height="353.3" x="575" y="6.9" class="st2"/><rect width="434.7" height="78.8" x="575" y="6.9" class="st3"/><rect width="434.7" height="78.8" x="575" y="6.9" class="st4"/><rect width="365.5" height="45.9" x="609.6" y="114.3" class="st5"/><rect width="266.7" height="15.6" x="708.4" y="194.9" class="st5"/><rect width="173.2" height="15.6" x="801.9" y="221.7" class="st5"/><rect width="228.6" height="15.6" x="746.5" y="248.5" class="st5"/><rect width="266.7" height="15.6" x="708.4" y="275.4" class="st5"/><rect width="89.2" height="15.6" x="885.9" y="302.2" class="st5"/><g class="st6"><linearGradient id="SVGID_3_" x1="508" x2="508" y1="-.51" y2="456.17" gradientTransform="matrix(1 0 0 -1 0 616)" gradientUnits="userSpaceOnUse"><stop offset="0" style="stop-color:gray;stop-opacity:.25"/><stop offset=".54" style="stop-color:gray;stop-opacity:.12"/><stop offset="1" style="stop-color:gray;stop-opacity:.1"/></linearGradient><rect width="556" height="456.7" x="230" y="159.8" class="st8"/></g><rect width="542" height="440.5" x="236.5" y="168.5" class="st2"/><rect width="542" height="98.2" x="236.5" y="168.5" class="st4"/><rect width="455.6" height="57.2" x="279.7" y="302.3" class="st5"/><rect width="332.5" height="19.4" x="279.7" y="402.7" class="st5"/><rect width="215.9" height="19.4" x="279.7" y="436.2" class="st5"/><rect width="285" height="19.4" x="279.7" y="469.7" class="st5"/><rect width="332.5" height="19.4" x="279.7" y="503.1" class="st5"/><rect width="111.2" height="19.4" x="279.7" y="536.6" class="st5"/><rect width="129.6" height="17.3" x="303.4" y="321.8" class="st9"/></svg>