<svg xmlns="http://www.w3.org/2000/svg" xmlns:xlink="http://www.w3.org/1999/xlink" id="e8345542-4160-463b-841e-d6381701a249" width="1014.92" height="616.5" data-name="Layer 1" viewBox="0 0 1014.92 616.5"><defs><linearGradient id="b96c1e95-21f7-460f-8fe8-281b03b6a731" x1="223" x2="223" y1="366.33" gradientUnits="userSpaceOnUse"><stop offset="0" stop-color="gray" stop-opacity=".25"/><stop offset=".54" stop-color="gray" stop-opacity=".12"/><stop offset="1" stop-color="gray" stop-opacity=".1"/></linearGradient><linearGradient id="fdf2261c-aea2-449f-acb5-ed46fbfe76ac" x1="315" x2="315" y1="481.74" y2="115.42" gradientTransform="matrix(-1, 0, 0, 1, 1106.92, -115.42)" xlink:href="#b96c1e95-21f7-460f-8fe8-281b03b6a731"/><linearGradient id="bdb7606e-5185-43e5-b133-41bac9927d37" x1="508" x2="508" y1="616.5" y2="159.83" xlink:href="#b96c1e95-21f7-460f-8fe8-281b03b6a731"/></defs><title>windows</title><g opacity=".5"><rect width="446" height="366.33" fill="url(#b96c1e95-21f7-460f-8fe8-281b03b6a731)"/></g><rect width="434.74" height="353.34" x="5.2" y="6.93" fill="#f2f2f2"/><rect width="434.74" height="78.81" x="5.2" y="6.93" fill="#671cc9"/><rect width="434.74" height="78.81" x="5.2" y="6.93" opacity=".1"/><rect width="365.46" height="45.9" x="39.84" y="114.31" fill="#e0e0e0"/><rect width="266.73" height="15.59" x="39.84" y="194.85" fill="#e0e0e0"/><rect width="173.2" height="15.59" x="39.84" y="221.7" fill="#e0e0e0"/><rect width="228.63" height="15.59" x="39.84" y="248.55" fill="#e0e0e0"/><rect width="266.73" height="15.59" x="39.84" y="275.39" fill="#e0e0e0"/><rect width="89.2" height="15.59" x="39.84" y="302.24" fill="#e0e0e0"/><g opacity=".5"><rect width="446" height="366.33" x="568.92" fill="url(#fdf2261c-aea2-449f-acb5-ed46fbfe76ac)"/></g><rect width="434.74" height="353.34" x="666.98" y="122.35" fill="#f2f2f2" transform="translate(1676.71 482.61) rotate(-180)"/><rect width="434.74" height="78.81" x="666.98" y="122.35" fill="#671cc9" transform="translate(1676.71 208.08) rotate(-180)"/><rect width="434.74" height="78.81" x="666.98" y="122.35" opacity=".1" transform="translate(1676.71 208.08) rotate(-180)"/><rect width="365.46" height="45.9" x="701.62" y="229.73" fill="#e0e0e0" transform="translate(1676.71 389.95) rotate(-180)"/><rect width="266.73" height="15.59" x="800.35" y="310.27" fill="#e0e0e0" transform="translate(1775.43 520.72) rotate(-180)"/><rect width="173.2" height="15.59" x="893.88" y="337.12" fill="#e0e0e0" transform="translate(1868.96 574.41) rotate(-180)"/><rect width="228.63" height="15.59" x="838.45" y="363.97" fill="#e0e0e0" transform="translate(1813.54 628.1) rotate(-180)"/><rect width="266.73" height="15.59" x="800.35" y="390.81" fill="#e0e0e0" transform="translate(1775.43 681.79) rotate(-180)"/><rect width="89.2" height="15.59" x="977.88" y="417.66" fill="#e0e0e0" transform="translate(1952.97 735.49) rotate(-180)"/><g opacity=".5"><rect width="556" height="456.68" x="230" y="159.83" fill="url(#bdb7606e-5185-43e5-b133-41bac9927d37)"/></g><rect width="541.97" height="440.48" x="236.48" y="168.46" fill="#fff"/><rect width="541.97" height="98.24" x="236.48" y="168.46" fill="#671cc9"/><rect width="455.6" height="57.22" x="279.66" y="302.33" fill="#f5f5f5"/><rect width="332.52" height="19.43" x="279.66" y="402.74" fill="#e0e0e0"/><rect width="215.92" height="19.43" x="279.66" y="436.21" fill="#e0e0e0"/><rect width="285.02" height="19.43" x="279.66" y="469.67" fill="#e0e0e0"/><rect width="332.52" height="19.43" x="279.66" y="503.14" fill="#e0e0e0"/><rect width="111.2" height="19.43" x="279.66" y="536.61" fill="#e0e0e0"/><rect width="129.55" height="17.27" x="303.41" y="321.77" fill="#69f0ae"/></svg>