<svg width="1797" height="1060" viewBox="0 0 1797 1060" fill="none" xmlns="http://www.w3.org/2000/svg">
<path d="M1711 929.736H1724.83" stroke="#A2BADD" stroke-width="2" stroke-linecap="round" stroke-linejoin="round"/>
<path d="M1717.91 922.821V936.655" stroke="#A2BADD" stroke-width="2" stroke-linecap="round" stroke-linejoin="round"/>
<path d="M1711 899.827H1724.83" stroke="#A2BADD" stroke-width="2" stroke-linecap="round" stroke-linejoin="round"/>
<path d="M1717.91 892.909V906.743" stroke="#A2BADD" stroke-width="2" stroke-linecap="round" stroke-linejoin="round"/>
<path d="M1711 869.916H1724.83" stroke="#A2BADD" stroke-width="2" stroke-linecap="round" stroke-linejoin="round"/>
<path d="M1717.91 863V876.834" stroke="#A2BADD" stroke-width="2" stroke-linecap="round" stroke-linejoin="round"/>
<path d="M1029.35 234.577V248.411" stroke="#A2BADD" stroke-width="2" stroke-linecap="round" stroke-linejoin="round"/>
<path d="M1036.27 241.493H1022.44" stroke="#A2BADD" stroke-width="2" stroke-linecap="round" stroke-linejoin="round"/>
<path d="M582.827 492.617V506.451" stroke="#EAF1FD" stroke-width="2" stroke-linecap="round" stroke-linejoin="round"/>
<path d="M589.743 499.533H575.913" stroke="#EAF1FD" stroke-width="2" stroke-linecap="round" stroke-linejoin="round"/>
<path d="M481.582 762.202V776.036" stroke="#00BCD4" stroke-width="2" stroke-linecap="round" stroke-linejoin="round"/>
<path d="M488.498 769.12H474.668" stroke="#00BCD4" stroke-width="2" stroke-linecap="round" stroke-linejoin="round"/>
<path d="M901.359 602.111V615.946" stroke="#00BCD4" stroke-width="2" stroke-linecap="round" stroke-linejoin="round"/>
<path d="M908.275 609.027H894.445" stroke="#00BCD4" stroke-width="2" stroke-linecap="round" stroke-linejoin="round"/>
<path d="M1179.69 435.465V449.3" stroke="#00BCD4" stroke-width="2" stroke-linecap="round" stroke-linejoin="round"/>
<path d="M1186.61 442.381H1172.78" stroke="#00BCD4" stroke-width="2" stroke-linecap="round" stroke-linejoin="round"/>
<path d="M1549.77 156.11V169.945" stroke="#00BCD4" stroke-width="2" stroke-linecap="round" stroke-linejoin="round"/>
<path d="M1556.68 163.026H1542.85" stroke="#00BCD4" stroke-width="2" stroke-linecap="round" stroke-linejoin="round"/>
<path d="M708.52 1017.66V1031.49" stroke="#00BCD4" stroke-width="2" stroke-linecap="round" stroke-linejoin="round"/>
<path d="M715.436 1024.57H701.606" stroke="#00BCD4" stroke-width="2" stroke-linecap="round" stroke-linejoin="round"/>
<path d="M360.119 398.774V412.609" stroke="#00BCD4" stroke-width="2" stroke-linecap="round" stroke-linejoin="round"/>
<path d="M367.035 405.69H353.205" stroke="#00BCD4" stroke-width="2" stroke-linecap="round" stroke-linejoin="round"/>
<path d="M575.913 190.582V204.416" stroke="#BDD7FE" stroke-width="2" stroke-linecap="round" stroke-linejoin="round"/>
<path d="M582.827 197.498H568.997" stroke="#BDD7FE" stroke-width="2" stroke-linecap="round" stroke-linejoin="round"/>
<path d="M1044.56 812.51V826.344" stroke="#17103C" stroke-width="2" stroke-linecap="round" stroke-linejoin="round"/>
<path d="M1051.48 819.425H1037.65" stroke="#17103C" stroke-width="2" stroke-linecap="round" stroke-linejoin="round"/>
<path d="M1074.46 812.51V826.344" stroke="#17103C" stroke-width="2" stroke-linecap="round" stroke-linejoin="round"/>
<path d="M1081.38 819.425H1067.55" stroke="#17103C" stroke-width="2" stroke-linecap="round" stroke-linejoin="round"/>
<path d="M1104.36 812.51V826.344" stroke="#17103C" stroke-width="2" stroke-linecap="round" stroke-linejoin="round"/>
<path d="M1111.28 819.425H1097.45" stroke="#17103C" stroke-width="2" stroke-linecap="round" stroke-linejoin="round"/>
<path d="M165.209 354.177V368.011" stroke="#00BCD4" stroke-width="2" stroke-linecap="round" stroke-linejoin="round"/>
<path d="M172.125 361.093H158.295" stroke="#00BCD4" stroke-width="2" stroke-linecap="round" stroke-linejoin="round"/>
<path d="M34.8299 293.916H21" stroke="#EAF1FD" stroke-width="2" stroke-linecap="round" stroke-linejoin="round"/>
<path d="M27.9161 300.834V287" stroke="#EAF1FD" stroke-width="2" stroke-linecap="round" stroke-linejoin="round"/>
<path d="M34.8299 323.828H21" stroke="#EAF1FD" stroke-width="2" stroke-linecap="round" stroke-linejoin="round"/>
<path d="M27.9161 330.744V316.909" stroke="#EAF1FD" stroke-width="2" stroke-linecap="round" stroke-linejoin="round"/>
<path d="M34.8299 353.737H21" stroke="#EAF1FD" stroke-width="2" stroke-linecap="round" stroke-linejoin="round"/>
<path d="M27.9161 360.655V346.821" stroke="#EAF1FD" stroke-width="2" stroke-linecap="round" stroke-linejoin="round"/>
<path d="M194.69 837.346C194.69 837.81 194.553 838.263 194.295 838.649C194.037 839.035 193.671 839.336 193.242 839.513C192.814 839.691 192.342 839.737 191.887 839.646C191.432 839.556 191.014 839.332 190.686 839.004C190.359 838.676 190.135 838.258 190.045 837.803C189.955 837.348 190.001 836.876 190.179 836.447C190.357 836.019 190.657 835.652 191.043 835.395C191.429 835.137 191.882 835 192.346 835C192.654 835 192.959 835.061 193.243 835.179C193.528 835.296 193.786 835.469 194.004 835.687C194.222 835.905 194.394 836.164 194.512 836.448C194.63 836.733 194.69 837.038 194.69 837.346Z" fill="#A2BADD"/>
<path d="M210.61 837.346C210.61 837.81 210.472 838.263 210.215 838.649C209.957 839.035 209.591 839.336 209.162 839.513C208.734 839.691 208.262 839.737 207.807 839.646C207.352 839.556 206.934 839.332 206.606 839.004C206.278 838.676 206.055 838.258 205.965 837.803C205.874 837.348 205.921 836.876 206.099 836.447C206.276 836.019 206.577 835.652 206.963 835.395C207.349 835.137 207.802 835 208.266 835C208.574 835 208.879 835.061 209.163 835.179C209.448 835.296 209.706 835.469 209.924 835.687C210.142 835.905 210.314 836.164 210.432 836.448C210.55 836.733 210.61 837.038 210.61 837.346Z" fill="#A2BADD"/>
<path d="M226.536 837.346C226.536 837.81 226.398 838.263 226.141 838.649C225.883 839.035 225.517 839.336 225.088 839.513C224.66 839.691 224.188 839.737 223.733 839.647C223.278 839.556 222.861 839.333 222.533 839.005C222.205 838.676 221.981 838.259 221.891 837.803C221.8 837.348 221.847 836.877 222.024 836.448C222.202 836.019 222.502 835.653 222.888 835.395C223.274 835.138 223.727 835 224.191 835C224.499 835 224.804 835.06 225.088 835.178C225.373 835.296 225.632 835.469 225.849 835.687C226.067 835.905 226.24 836.163 226.358 836.448C226.475 836.733 226.536 837.038 226.536 837.346Z" fill="#A2BADD"/>
<path d="M194.69 853.27C194.69 853.734 194.553 854.187 194.295 854.573C194.038 854.959 193.672 855.26 193.243 855.438C192.814 855.616 192.343 855.662 191.888 855.572C191.433 855.481 191.015 855.258 190.687 854.93C190.359 854.601 190.135 854.183 190.045 853.728C189.955 853.273 190.001 852.801 190.179 852.373C190.356 851.944 190.657 851.578 191.043 851.32C191.429 851.062 191.882 850.925 192.346 850.925C192.968 850.925 193.564 851.172 194.004 851.612C194.443 852.051 194.69 852.648 194.69 853.27Z" fill="#A2BADD"/>
<path d="M210.61 853.27C210.61 853.734 210.473 854.187 210.215 854.573C209.958 854.959 209.591 855.26 209.163 855.438C208.734 855.616 208.263 855.662 207.808 855.572C207.353 855.481 206.935 855.258 206.607 854.93C206.279 854.601 206.055 854.183 205.965 853.728C205.874 853.273 205.921 852.801 206.099 852.373C206.276 851.944 206.577 851.578 206.963 851.32C207.349 851.062 207.802 850.925 208.266 850.925C208.888 850.925 209.484 851.172 209.924 851.612C210.363 852.051 210.61 852.648 210.61 853.27Z" fill="#A2BADD"/>
<path d="M226.536 853.27C226.536 853.734 226.399 854.187 226.141 854.573C225.884 854.959 225.518 855.26 225.089 855.438C224.661 855.616 224.189 855.662 223.734 855.572C223.279 855.481 222.861 855.258 222.533 854.93C222.205 854.602 221.981 854.184 221.891 853.729C221.8 853.274 221.847 852.802 222.024 852.373C222.202 851.945 222.502 851.578 222.888 851.32C223.274 851.063 223.727 850.925 224.191 850.925C224.499 850.925 224.804 850.985 225.088 851.103C225.373 851.221 225.631 851.394 225.849 851.611C226.067 851.829 226.239 852.088 226.357 852.372C226.475 852.657 226.536 852.962 226.536 853.27Z" fill="#A2BADD"/>
<path d="M194.69 869.195C194.69 869.659 194.553 870.113 194.295 870.498C194.038 870.884 193.672 871.185 193.243 871.363C192.814 871.541 192.343 871.587 191.888 871.497C191.433 871.406 191.015 871.183 190.687 870.855C190.359 870.527 190.135 870.108 190.045 869.653C189.955 869.198 190.001 868.726 190.179 868.298C190.356 867.869 190.657 867.503 191.043 867.245C191.429 866.987 191.882 866.85 192.346 866.85C192.968 866.85 193.564 867.097 194.004 867.537C194.443 867.977 194.69 868.573 194.69 869.195Z" fill="#A2BADD"/>
<path d="M210.61 869.195C210.61 869.659 210.473 870.113 210.215 870.498C209.958 870.884 209.591 871.185 209.163 871.363C208.734 871.541 208.263 871.587 207.808 871.497C207.353 871.406 206.935 871.183 206.607 870.855C206.279 870.527 206.055 870.108 205.965 869.653C205.874 869.198 205.921 868.726 206.099 868.298C206.276 867.869 206.577 867.503 206.963 867.245C207.349 866.987 207.802 866.85 208.266 866.85C208.888 866.85 209.484 867.097 209.924 867.537C210.363 867.977 210.61 868.573 210.61 869.195Z" fill="#A2BADD"/>
<path d="M226.536 869.195C226.536 869.659 226.399 870.112 226.141 870.498C225.884 870.884 225.518 871.185 225.089 871.363C224.661 871.541 224.189 871.587 223.734 871.497C223.279 871.406 222.861 871.183 222.533 870.855C222.205 870.527 221.981 870.109 221.891 869.654C221.8 869.199 221.847 868.727 222.024 868.298C222.202 867.87 222.502 867.503 222.888 867.246C223.274 866.988 223.727 866.85 224.191 866.85C224.499 866.85 224.804 866.911 225.088 867.028C225.373 867.146 225.631 867.319 225.849 867.536C226.067 867.754 226.239 868.013 226.357 868.297C226.475 868.582 226.536 868.887 226.536 869.195Z" fill="#A2BADD"/>
<path d="M193.65 422.327C193.65 422.787 193.513 423.236 193.258 423.619C193.002 424.001 192.639 424.299 192.214 424.475C191.789 424.651 191.322 424.696 190.871 424.607C190.42 424.517 190.006 424.295 189.681 423.97C189.356 423.645 189.134 423.231 189.045 422.78C188.955 422.329 189.001 421.861 189.177 421.436C189.353 421.011 189.65 420.648 190.033 420.392C190.415 420.137 190.864 420 191.324 420C191.629 420 191.932 420.06 192.214 420.177C192.496 420.294 192.753 420.465 192.969 420.681C193.185 420.897 193.356 421.154 193.473 421.436C193.59 421.719 193.65 422.021 193.65 422.327Z" fill="#A2BADD"/>
<path d="M207.115 424.654C208.4 424.654 209.442 423.612 209.442 422.327C209.442 421.042 208.4 420 207.115 420C205.831 420 204.789 421.042 204.789 422.327C204.789 423.612 205.831 424.654 207.115 424.654Z" fill="#A2BADD"/>
<path d="M225.231 422.327C225.231 422.787 225.094 423.237 224.839 423.62C224.583 424.002 224.22 424.301 223.795 424.477C223.37 424.653 222.902 424.699 222.451 424.609C222 424.519 221.585 424.298 221.26 423.972C220.934 423.647 220.713 423.232 220.623 422.781C220.533 422.329 220.58 421.862 220.756 421.436C220.932 421.011 221.23 420.648 221.612 420.392C221.995 420.136 222.445 420 222.905 420C223.522 420 224.113 420.245 224.549 420.682C224.986 421.118 225.231 421.71 225.231 422.327Z" fill="#A2BADD"/>
<path d="M241.025 422.327C241.025 422.787 240.888 423.237 240.633 423.62C240.377 424.002 240.014 424.301 239.589 424.477C239.164 424.653 238.696 424.699 238.245 424.609C237.794 424.519 237.379 424.298 237.054 423.972C236.728 423.647 236.507 423.232 236.417 422.781C236.327 422.329 236.373 421.862 236.55 421.436C236.726 421.011 237.024 420.648 237.406 420.392C237.789 420.136 238.239 420 238.699 420C239.004 420 239.307 420.06 239.589 420.177C239.871 420.294 240.127 420.465 240.343 420.682C240.559 420.898 240.731 421.154 240.848 421.436C240.965 421.719 241.025 422.021 241.025 422.327Z" fill="#A2BADD"/>
<path d="M254.49 424.654C255.775 424.654 256.816 423.612 256.816 422.327C256.816 421.042 255.775 420 254.49 420C253.205 420 252.164 421.042 252.164 422.327C252.164 423.612 253.205 424.654 254.49 424.654Z" fill="#A2BADD"/>
<path d="M272.607 422.327C272.607 422.787 272.47 423.237 272.215 423.62C271.959 424.002 271.596 424.301 271.171 424.477C270.746 424.653 270.278 424.699 269.827 424.609C269.375 424.519 268.961 424.298 268.636 423.972C268.31 423.647 268.089 423.232 267.999 422.781C267.909 422.329 267.955 421.862 268.131 421.436C268.307 421.011 268.606 420.648 268.988 420.392C269.371 420.136 269.82 420 270.28 420C270.586 420 270.889 420.06 271.171 420.177C271.453 420.294 271.71 420.465 271.926 420.681C272.142 420.897 272.313 421.154 272.43 421.436C272.547 421.719 272.607 422.021 272.607 422.327Z" fill="#A2BADD"/>
<path d="M288.397 422.327C288.397 422.787 288.261 423.237 288.005 423.62C287.749 424.002 287.386 424.301 286.961 424.477C286.536 424.653 286.068 424.699 285.617 424.609C285.166 424.519 284.751 424.298 284.426 423.972C284.101 423.647 283.879 423.232 283.79 422.781C283.7 422.329 283.746 421.862 283.922 421.436C284.098 421.011 284.396 420.648 284.779 420.392C285.161 420.136 285.611 420 286.071 420C286.376 420 286.679 420.06 286.961 420.177C287.244 420.294 287.5 420.465 287.716 420.681C287.932 420.897 288.103 421.154 288.22 421.436C288.337 421.719 288.397 422.021 288.397 422.327Z" fill="#A2BADD"/>
<path d="M193.65 438.124C193.65 438.583 193.513 439.033 193.258 439.415C193.002 439.797 192.639 440.095 192.214 440.271C191.789 440.447 191.322 440.493 190.871 440.403C190.42 440.314 190.006 440.092 189.681 439.767C189.356 439.442 189.134 439.027 189.045 438.576C188.955 438.125 189.001 437.658 189.177 437.233C189.353 436.808 189.65 436.445 190.033 436.189C190.415 435.933 190.864 435.797 191.324 435.797C191.941 435.797 192.532 436.042 192.969 436.478C193.405 436.915 193.65 437.506 193.65 438.124Z" fill="#A2BADD"/>
<path d="M209.442 438.124C209.442 438.584 209.305 439.034 209.05 439.416C208.794 439.799 208.431 440.097 208.006 440.273C207.581 440.449 207.113 440.495 206.662 440.406C206.21 440.316 205.796 440.094 205.471 439.769C205.145 439.443 204.924 439.029 204.834 438.577C204.744 438.126 204.79 437.658 204.966 437.233C205.142 436.808 205.441 436.444 205.823 436.189C206.206 435.933 206.655 435.797 207.115 435.797C207.732 435.797 208.324 436.042 208.76 436.479C209.196 436.915 209.441 437.506 209.442 438.124Z" fill="#A2BADD"/>
<path d="M225.231 438.124C225.231 438.584 225.094 439.034 224.839 439.416C224.583 439.799 224.22 440.097 223.795 440.273C223.37 440.449 222.902 440.495 222.451 440.406C222 440.316 221.585 440.094 221.26 439.769C220.934 439.443 220.713 439.029 220.623 438.577C220.533 438.126 220.58 437.658 220.756 437.233C220.932 436.808 221.23 436.444 221.612 436.189C221.995 435.933 222.445 435.797 222.905 435.797C223.521 435.797 224.113 436.042 224.549 436.479C224.985 436.915 225.23 437.506 225.231 438.124Z" fill="#A2BADD"/>
<path d="M241.025 438.124C241.025 438.584 240.888 439.034 240.633 439.416C240.377 439.799 240.014 440.097 239.589 440.273C239.164 440.449 238.696 440.495 238.245 440.406C237.794 440.316 237.379 440.094 237.054 439.769C236.728 439.443 236.507 439.029 236.417 438.577C236.327 438.126 236.373 437.658 236.55 437.233C236.726 436.808 237.024 436.444 237.406 436.189C237.789 435.933 238.239 435.797 238.699 435.797C239.315 435.797 239.907 436.042 240.343 436.479C240.779 436.915 241.024 437.506 241.025 438.124Z" fill="#A2BADD"/>
<path d="M256.815 438.124C256.815 438.584 256.679 439.034 256.423 439.416C256.167 439.799 255.804 440.097 255.379 440.273C254.954 440.449 254.486 440.495 254.035 440.406C253.583 440.316 253.169 440.094 252.844 439.768C252.518 439.443 252.297 439.028 252.207 438.577C252.118 438.125 252.164 437.657 252.34 437.232C252.516 436.807 252.815 436.444 253.197 436.188C253.58 435.933 254.03 435.796 254.49 435.797C255.107 435.797 255.698 436.042 256.134 436.479C256.57 436.915 256.815 437.507 256.815 438.124Z" fill="#A2BADD"/>
<path d="M272.607 438.124C272.607 438.584 272.47 439.034 272.215 439.416C271.959 439.799 271.596 440.097 271.171 440.273C270.746 440.449 270.278 440.495 269.827 440.406C269.375 440.316 268.961 440.094 268.636 439.769C268.31 439.443 268.089 439.029 267.999 438.577C267.909 438.126 267.955 437.658 268.131 437.233C268.307 436.808 268.606 436.444 268.988 436.189C269.371 435.933 269.82 435.797 270.28 435.797C270.897 435.797 271.489 436.042 271.925 436.478C272.362 436.915 272.607 437.506 272.607 438.124Z" fill="#A2BADD"/>
<path d="M288.397 438.124C288.397 438.584 288.261 439.034 288.005 439.416C287.749 439.799 287.386 440.097 286.961 440.273C286.536 440.449 286.068 440.495 285.617 440.406C285.166 440.316 284.751 440.094 284.426 439.769C284.101 439.443 283.879 439.029 283.79 438.577C283.7 438.126 283.746 437.658 283.922 437.233C284.098 436.808 284.396 436.444 284.779 436.189C285.161 435.933 285.611 435.797 286.071 435.797C286.688 435.797 287.28 436.042 287.716 436.478C288.152 436.915 288.397 437.506 288.397 438.124Z" fill="#A2BADD"/>
<path d="M193.65 453.92C193.649 454.38 193.512 454.829 193.255 455.211C192.999 455.592 192.636 455.889 192.211 456.065C191.786 456.24 191.319 456.285 190.868 456.195C190.418 456.104 190.004 455.883 189.679 455.557C189.355 455.232 189.134 454.818 189.044 454.367C188.955 453.916 189.001 453.448 189.177 453.024C189.353 452.599 189.651 452.236 190.033 451.981C190.415 451.725 190.864 451.589 191.324 451.589C191.63 451.589 191.933 451.649 192.215 451.766C192.498 451.883 192.754 452.055 192.97 452.272C193.186 452.488 193.358 452.745 193.474 453.028C193.591 453.311 193.651 453.614 193.65 453.92Z" fill="#A2BADD"/>
<path d="M209.442 453.92C209.441 454.38 209.303 454.83 209.047 455.212C208.791 455.594 208.428 455.891 208.002 456.067C207.577 456.242 207.11 456.287 206.659 456.197C206.208 456.107 205.794 455.885 205.469 455.559C205.144 455.234 204.923 454.819 204.834 454.368C204.744 453.917 204.791 453.449 204.967 453.024C205.143 452.599 205.441 452.236 205.824 451.98C206.206 451.725 206.656 451.589 207.115 451.589C207.421 451.589 207.724 451.649 208.007 451.766C208.289 451.884 208.546 452.056 208.762 452.272C208.978 452.489 209.149 452.746 209.266 453.028C209.382 453.311 209.442 453.614 209.442 453.92Z" fill="#A2BADD"/>
<path d="M225.231 453.92C225.23 454.38 225.093 454.83 224.836 455.212C224.58 455.594 224.216 455.891 223.791 456.067C223.366 456.242 222.898 456.287 222.447 456.197C221.996 456.106 221.582 455.884 221.257 455.558C220.933 455.233 220.712 454.818 220.623 454.366C220.533 453.915 220.58 453.447 220.757 453.022C220.933 452.597 221.232 452.235 221.614 451.979C221.997 451.724 222.447 451.588 222.907 451.589C223.213 451.589 223.515 451.65 223.797 451.767C224.079 451.885 224.336 452.056 224.552 452.273C224.767 452.489 224.938 452.746 225.055 453.029C225.171 453.312 225.231 453.614 225.231 453.92Z" fill="#A2BADD"/>
<path d="M241.025 453.92C241.024 454.38 240.887 454.83 240.63 455.212C240.374 455.594 240.011 455.891 239.586 456.067C239.16 456.242 238.693 456.287 238.242 456.197C237.791 456.107 237.377 455.885 237.052 455.559C236.727 455.234 236.506 454.819 236.417 454.368C236.327 453.917 236.374 453.449 236.55 453.024C236.726 452.599 237.024 452.236 237.407 451.98C237.789 451.725 238.239 451.589 238.699 451.589C239.004 451.589 239.307 451.649 239.59 451.766C239.872 451.884 240.129 452.056 240.345 452.272C240.561 452.489 240.732 452.746 240.849 453.028C240.965 453.311 241.025 453.614 241.025 453.92Z" fill="#A2BADD"/>
<path d="M256.815 453.92C256.814 454.38 256.677 454.83 256.421 455.212C256.164 455.594 255.801 455.891 255.376 456.067C254.95 456.242 254.483 456.287 254.032 456.197C253.581 456.107 253.167 455.885 252.842 455.559C252.517 455.233 252.296 454.818 252.207 454.367C252.118 453.916 252.164 453.448 252.341 453.023C252.517 452.598 252.815 452.235 253.198 451.98C253.58 451.725 254.03 451.588 254.49 451.589C254.796 451.589 255.099 451.649 255.381 451.767C255.663 451.884 255.92 452.056 256.136 452.272C256.352 452.489 256.523 452.746 256.639 453.029C256.756 453.311 256.816 453.614 256.815 453.92Z" fill="#A2BADD"/>
<path d="M272.607 453.92C272.607 454.38 272.47 454.83 272.215 455.213C271.959 455.596 271.596 455.894 271.171 456.07C270.746 456.246 270.278 456.292 269.827 456.202C269.375 456.113 268.961 455.891 268.636 455.566C268.31 455.24 268.089 454.825 267.999 454.374C267.909 453.923 267.955 453.455 268.131 453.03C268.307 452.605 268.606 452.241 268.988 451.985C269.371 451.73 269.82 451.593 270.28 451.593C270.897 451.593 271.489 451.838 271.925 452.275C272.362 452.711 272.607 453.303 272.607 453.92Z" fill="#A2BADD"/>
<path d="M288.397 453.92C288.397 454.38 288.261 454.83 288.005 455.213C287.749 455.596 287.386 455.894 286.961 456.07C286.536 456.246 286.068 456.292 285.617 456.202C285.166 456.113 284.751 455.891 284.426 455.566C284.101 455.24 283.879 454.825 283.79 454.374C283.7 453.923 283.746 453.455 283.922 453.03C284.098 452.605 284.396 452.241 284.779 451.985C285.161 451.73 285.611 451.593 286.071 451.593C286.688 451.593 287.28 451.838 287.716 452.275C288.152 452.711 288.397 453.303 288.397 453.92Z" fill="#A2BADD"/>
<path d="M193.65 469.717C193.65 470.177 193.513 470.626 193.258 471.008C193.002 471.391 192.639 471.689 192.214 471.865C191.789 472.04 191.322 472.086 190.871 471.997C190.42 471.907 190.006 471.685 189.681 471.36C189.356 471.035 189.134 470.621 189.045 470.17C188.955 469.719 189.001 469.251 189.177 468.826C189.353 468.401 189.65 468.038 190.033 467.782C190.415 467.527 190.864 467.39 191.324 467.39C191.629 467.39 191.932 467.45 192.214 467.567C192.496 467.684 192.753 467.855 192.969 468.071C193.185 468.287 193.356 468.544 193.473 468.826C193.59 469.109 193.65 469.411 193.65 469.717Z" fill="#A2BADD"/>
<path d="M209.442 469.717C209.442 470.177 209.305 470.627 209.05 471.01C208.794 471.392 208.431 471.69 208.006 471.867C207.581 472.043 207.113 472.089 206.662 471.999C206.21 471.909 205.796 471.688 205.471 471.362C205.145 471.037 204.924 470.622 204.834 470.171C204.744 469.719 204.79 469.251 204.966 468.826C205.142 468.401 205.441 468.038 205.823 467.782C206.206 467.526 206.655 467.39 207.115 467.39C207.732 467.39 208.324 467.635 208.76 468.071C209.197 468.508 209.442 469.1 209.442 469.717Z" fill="#A2BADD"/>
<path d="M225.231 469.717C225.231 470.177 225.094 470.627 224.839 471.01C224.583 471.392 224.22 471.69 223.795 471.867C223.37 472.043 222.902 472.089 222.451 471.999C222 471.909 221.585 471.688 221.26 471.362C220.934 471.037 220.713 470.622 220.623 470.171C220.533 469.719 220.58 469.251 220.756 468.826C220.932 468.401 221.23 468.038 221.612 467.782C221.995 467.526 222.445 467.39 222.905 467.39C223.522 467.39 224.113 467.635 224.549 468.071C224.986 468.508 225.231 469.1 225.231 469.717Z" fill="#A2BADD"/>
<path d="M241.025 469.717C241.025 470.177 240.888 470.627 240.633 471.01C240.377 471.392 240.014 471.69 239.589 471.867C239.164 472.043 238.696 472.089 238.245 471.999C237.794 471.909 237.379 471.688 237.054 471.362C236.728 471.037 236.507 470.622 236.417 470.171C236.327 469.719 236.373 469.251 236.55 468.826C236.726 468.401 237.024 468.038 237.406 467.782C237.789 467.526 238.239 467.39 238.699 467.39C239.004 467.39 239.307 467.45 239.589 467.567C239.871 467.684 240.127 467.855 240.343 468.071C240.559 468.287 240.731 468.544 240.848 468.826C240.965 469.109 241.025 469.411 241.025 469.717Z" fill="#A2BADD"/>
<path d="M256.815 469.717C256.815 470.177 256.679 470.627 256.423 471.01C256.167 471.392 255.804 471.691 255.379 471.867C254.954 472.043 254.486 472.089 254.035 471.999C253.583 471.909 253.169 471.687 252.844 471.362C252.518 471.036 252.297 470.621 252.207 470.17C252.118 469.719 252.164 469.251 252.34 468.826C252.516 468.4 252.815 468.037 253.197 467.781C253.58 467.526 254.03 467.39 254.49 467.39C254.796 467.39 255.098 467.45 255.38 467.567C255.662 467.684 255.919 467.855 256.135 468.071C256.35 468.288 256.522 468.544 256.638 468.826C256.755 469.109 256.815 469.411 256.815 469.717Z" fill="#A2BADD"/>
<path d="M272.607 469.717C272.607 470.177 272.47 470.627 272.215 471.01C271.959 471.392 271.596 471.69 271.171 471.867C270.746 472.043 270.278 472.089 269.827 471.999C269.375 471.909 268.961 471.688 268.636 471.362C268.31 471.037 268.089 470.622 267.999 470.171C267.909 469.719 267.955 469.251 268.131 468.826C268.307 468.401 268.606 468.038 268.988 467.782C269.371 467.526 269.82 467.39 270.28 467.39C270.586 467.39 270.889 467.45 271.171 467.567C271.453 467.684 271.71 467.855 271.926 468.071C272.142 468.287 272.313 468.544 272.43 468.826C272.547 469.109 272.607 469.411 272.607 469.717Z" fill="#A2BADD"/>
<path d="M288.397 469.717C288.397 470.177 288.261 470.627 288.005 471.01C287.749 471.392 287.386 471.69 286.961 471.867C286.536 472.043 286.068 472.089 285.617 471.999C285.166 471.909 284.751 471.688 284.426 471.362C284.101 471.037 283.879 470.622 283.79 470.171C283.7 469.719 283.746 469.251 283.922 468.826C284.098 468.401 284.396 468.038 284.779 467.782C285.161 467.526 285.611 467.39 286.071 467.39C286.376 467.39 286.679 467.45 286.961 467.567C287.244 467.684 287.5 467.855 287.716 468.071C287.932 468.287 288.103 468.544 288.22 468.826C288.337 469.109 288.397 469.411 288.397 469.717Z" fill="#A2BADD"/>
<path d="M193.65 485.512C193.65 485.972 193.514 486.422 193.258 486.804C193.003 487.187 192.64 487.485 192.215 487.661C191.79 487.837 191.323 487.883 190.872 487.793C190.421 487.704 190.007 487.482 189.681 487.157C189.356 486.832 189.135 486.418 189.045 485.967C188.955 485.516 189.001 485.048 189.177 484.623C189.352 484.198 189.65 483.835 190.032 483.579C190.415 483.323 190.864 483.187 191.324 483.187C191.629 483.186 191.932 483.246 192.214 483.363C192.496 483.48 192.753 483.651 192.969 483.867C193.185 484.083 193.356 484.34 193.473 484.622C193.59 484.904 193.65 485.207 193.65 485.512Z" fill="#A2BADD"/>
<path d="M207.115 487.84C208.4 487.84 209.442 486.799 209.442 485.513C209.442 484.228 208.4 483.187 207.115 483.187C205.831 483.187 204.789 484.228 204.789 485.513C204.789 486.799 205.831 487.84 207.115 487.84Z" fill="#A2BADD"/>
<path d="M225.231 485.512C225.231 485.973 225.095 486.423 224.839 486.805C224.584 487.188 224.221 487.487 223.796 487.663C223.371 487.839 222.903 487.885 222.452 487.796C222 487.706 221.586 487.485 221.26 487.159C220.935 486.834 220.713 486.419 220.623 485.968C220.533 485.516 220.579 485.048 220.755 484.623C220.931 484.198 221.23 483.834 221.612 483.579C221.995 483.323 222.445 483.187 222.905 483.187C223.521 483.187 224.113 483.432 224.549 483.868C224.985 484.304 225.23 484.895 225.231 485.512Z" fill="#A2BADD"/>
<path d="M241.025 485.512C241.025 485.973 240.889 486.423 240.633 486.805C240.378 487.188 240.015 487.487 239.59 487.663C239.165 487.839 238.697 487.885 238.245 487.796C237.794 487.706 237.38 487.485 237.054 487.159C236.729 486.834 236.507 486.419 236.417 485.968C236.327 485.516 236.373 485.048 236.549 484.623C236.725 484.198 237.024 483.834 237.406 483.579C237.789 483.323 238.238 483.187 238.699 483.187C239.315 483.187 239.907 483.432 240.343 483.868C240.779 484.304 241.024 484.895 241.025 485.512Z" fill="#A2BADD"/>
<path d="M254.49 487.84C255.775 487.84 256.816 486.799 256.816 485.513C256.816 484.228 255.775 483.187 254.49 483.187C253.205 483.187 252.164 484.228 252.164 485.513C252.164 486.799 253.205 487.84 254.49 487.84Z" fill="#A2BADD"/>
<path d="M272.607 485.512C272.607 485.973 272.471 486.423 272.215 486.805C271.96 487.188 271.597 487.487 271.172 487.663C270.747 487.839 270.279 487.885 269.828 487.796C269.376 487.706 268.962 487.485 268.636 487.159C268.311 486.834 268.089 486.419 267.999 485.968C267.909 485.516 267.955 485.048 268.131 484.623C268.307 484.198 268.606 483.834 268.988 483.579C269.371 483.323 269.82 483.187 270.281 483.187C270.586 483.186 270.888 483.246 271.171 483.363C271.453 483.48 271.709 483.651 271.925 483.867C272.141 484.083 272.313 484.34 272.43 484.622C272.547 484.904 272.607 485.207 272.607 485.512Z" fill="#A2BADD"/>
<path d="M288.397 485.512C288.397 485.973 288.261 486.423 288.006 486.805C287.75 487.188 287.387 487.487 286.962 487.663C286.537 487.839 286.069 487.885 285.618 487.796C285.167 487.706 284.752 487.485 284.427 487.159C284.101 486.834 283.879 486.419 283.79 485.968C283.7 485.516 283.746 485.048 283.922 484.623C284.098 484.198 284.396 483.834 284.778 483.579C285.161 483.323 285.611 483.187 286.071 483.187C286.376 483.186 286.679 483.246 286.961 483.363C287.243 483.48 287.5 483.651 287.716 483.867C287.932 484.083 288.103 484.34 288.22 484.622C288.337 484.904 288.397 485.207 288.397 485.512Z" fill="#A2BADD"/>
<path d="M1654.16 130.082C1654.16 130.494 1654.04 130.897 1653.81 131.239C1653.58 131.581 1653.26 131.848 1652.88 132.006C1652.5 132.163 1652.08 132.205 1651.68 132.124C1651.27 132.044 1650.9 131.846 1650.61 131.554C1650.32 131.263 1650.12 130.892 1650.04 130.488C1649.96 130.084 1650 129.666 1650.16 129.285C1650.32 128.905 1650.58 128.58 1650.93 128.351C1651.27 128.122 1651.67 128 1652.08 128C1652.63 128 1653.16 128.219 1653.55 128.61C1653.94 129 1654.16 129.53 1654.16 130.082Z" fill="#A2BADD"/>
<path d="M1666.21 132.164C1667.36 132.164 1668.29 131.232 1668.29 130.082C1668.29 128.932 1667.36 128 1666.21 128C1665.06 128 1664.13 128.932 1664.13 130.082C1664.13 131.232 1665.06 132.164 1666.21 132.164Z" fill="#A2BADD"/>
<path d="M1682.42 130.082C1682.42 130.494 1682.3 130.897 1682.07 131.239C1681.84 131.582 1681.52 131.848 1681.14 132.006C1680.76 132.164 1680.34 132.205 1679.94 132.124C1679.53 132.044 1679.16 131.845 1678.87 131.554C1678.58 131.263 1678.38 130.892 1678.3 130.488C1678.22 130.084 1678.26 129.665 1678.42 129.285C1678.58 128.904 1678.84 128.579 1679.19 128.35C1679.53 128.122 1679.93 128 1680.34 128C1680.62 128 1680.89 128.054 1681.14 128.159C1681.39 128.263 1681.62 128.417 1681.81 128.61C1682.01 128.803 1682.16 129.033 1682.27 129.285C1682.37 129.538 1682.42 129.809 1682.42 130.082Z" fill="#A2BADD"/>
<path d="M1696.55 130.082C1696.55 130.494 1696.43 130.897 1696.2 131.239C1695.97 131.581 1695.65 131.848 1695.27 132.006C1694.89 132.163 1694.47 132.205 1694.07 132.124C1693.66 132.044 1693.29 131.846 1693 131.554C1692.71 131.263 1692.51 130.892 1692.43 130.488C1692.35 130.084 1692.39 129.666 1692.55 129.285C1692.71 128.905 1692.97 128.58 1693.32 128.351C1693.66 128.122 1694.06 128 1694.47 128C1694.75 128 1695.02 128.054 1695.27 128.158C1695.52 128.263 1695.75 128.416 1695.95 128.61C1696.14 128.803 1696.29 129.033 1696.4 129.285C1696.5 129.538 1696.55 129.809 1696.55 130.082Z" fill="#A2BADD"/>
<path d="M1708.6 132.164C1709.75 132.164 1710.69 131.232 1710.69 130.082C1710.69 128.932 1709.75 128 1708.6 128C1707.45 128 1706.52 128.932 1706.52 130.082C1706.52 131.232 1707.45 132.164 1708.6 132.164Z" fill="#A2BADD"/>
<path d="M1724.82 130.082C1724.82 130.494 1724.69 130.897 1724.47 131.239C1724.24 131.581 1723.91 131.848 1723.53 132.006C1723.15 132.163 1722.73 132.205 1722.33 132.124C1721.92 132.044 1721.55 131.846 1721.26 131.554C1720.97 131.263 1720.77 130.892 1720.69 130.488C1720.61 130.084 1720.65 129.666 1720.81 129.285C1720.97 128.905 1721.24 128.58 1721.58 128.351C1721.92 128.122 1722.32 128 1722.73 128C1723.29 128 1723.82 128.219 1724.21 128.61C1724.6 129 1724.82 129.53 1724.82 130.082Z" fill="#A2BADD"/>
<path d="M1738.95 130.082C1738.95 130.494 1738.83 130.897 1738.6 131.239C1738.37 131.581 1738.04 131.848 1737.66 132.006C1737.28 132.163 1736.86 132.205 1736.46 132.124C1736.06 132.044 1735.68 131.846 1735.39 131.554C1735.1 131.263 1734.9 130.892 1734.82 130.488C1734.74 130.084 1734.78 129.666 1734.94 129.285C1735.1 128.905 1735.37 128.58 1735.71 128.351C1736.05 128.122 1736.45 128 1736.87 128C1737.42 128 1737.95 128.219 1738.34 128.61C1738.73 129 1738.95 129.53 1738.95 130.082Z" fill="#A2BADD"/>
<path d="M1668.29 144.218C1668.29 144.629 1668.17 145.032 1667.94 145.374C1667.71 145.717 1667.39 145.984 1667.01 146.141C1666.63 146.299 1666.21 146.34 1665.81 146.26C1665.4 146.18 1665.03 145.981 1664.74 145.69C1664.45 145.399 1664.25 145.028 1664.17 144.624C1664.09 144.22 1664.13 143.801 1664.29 143.421C1664.45 143.04 1664.71 142.715 1665.06 142.486C1665.4 142.258 1665.8 142.135 1666.21 142.135C1666.76 142.136 1667.29 142.355 1667.68 142.746C1668.07 143.136 1668.29 143.666 1668.29 144.218Z" fill="#A2BADD"/>
<path d="M1682.42 144.218C1682.42 144.63 1682.3 145.032 1682.07 145.375C1681.84 145.717 1681.52 145.984 1681.14 146.141C1680.76 146.299 1680.34 146.34 1679.94 146.26C1679.53 146.179 1679.16 145.981 1678.87 145.69C1678.58 145.398 1678.38 145.027 1678.3 144.623C1678.22 144.219 1678.26 143.801 1678.42 143.42C1678.58 143.04 1678.84 142.715 1679.19 142.486C1679.53 142.257 1679.93 142.135 1680.34 142.135C1680.9 142.136 1681.42 142.355 1681.81 142.746C1682.2 143.136 1682.42 143.666 1682.42 144.218Z" fill="#A2BADD"/>
<path d="M1696.55 144.218C1696.55 144.629 1696.43 145.032 1696.2 145.374C1695.97 145.717 1695.65 145.984 1695.27 146.141C1694.89 146.299 1694.47 146.34 1694.07 146.26C1693.66 146.18 1693.29 145.981 1693 145.69C1692.71 145.399 1692.51 145.028 1692.43 144.624C1692.35 144.22 1692.39 143.801 1692.55 143.421C1692.71 143.04 1692.97 142.715 1693.32 142.486C1693.66 142.258 1694.06 142.135 1694.47 142.135C1695.03 142.135 1695.55 142.355 1695.94 142.745C1696.34 143.136 1696.55 143.665 1696.55 144.218Z" fill="#A2BADD"/>
<path d="M1710.69 144.218C1710.69 144.629 1710.56 145.032 1710.33 145.374C1710.11 145.717 1709.78 145.984 1709.4 146.141C1709.02 146.299 1708.6 146.34 1708.2 146.26C1707.79 146.18 1707.42 145.981 1707.13 145.69C1706.84 145.399 1706.64 145.028 1706.56 144.624C1706.48 144.22 1706.52 143.801 1706.68 143.421C1706.84 143.04 1707.11 142.715 1707.45 142.486C1707.79 142.258 1708.19 142.135 1708.6 142.135C1709.16 142.135 1709.69 142.355 1710.08 142.745C1710.47 143.136 1710.69 143.665 1710.69 144.218Z" fill="#A2BADD"/>
<path d="M1724.82 144.218C1724.82 144.629 1724.69 145.032 1724.47 145.374C1724.24 145.717 1723.91 145.984 1723.53 146.141C1723.15 146.299 1722.73 146.34 1722.33 146.26C1721.92 146.18 1721.55 145.981 1721.26 145.69C1720.97 145.399 1720.77 145.028 1720.69 144.624C1720.61 144.22 1720.65 143.801 1720.81 143.421C1720.97 143.04 1721.24 142.715 1721.58 142.486C1721.92 142.258 1722.32 142.135 1722.73 142.135C1723.29 142.136 1723.82 142.355 1724.21 142.746C1724.6 143.136 1724.82 143.666 1724.82 144.218Z" fill="#A2BADD"/>
<path d="M1738.95 144.218C1738.95 144.629 1738.83 145.032 1738.6 145.374C1738.37 145.717 1738.04 145.984 1737.66 146.141C1737.28 146.299 1736.86 146.34 1736.46 146.26C1736.06 146.18 1735.68 145.981 1735.39 145.69C1735.1 145.399 1734.9 145.028 1734.82 144.624C1734.74 144.22 1734.78 143.801 1734.94 143.421C1735.1 143.04 1735.37 142.715 1735.71 142.486C1736.05 142.258 1736.45 142.135 1736.87 142.135C1737.42 142.136 1737.95 142.355 1738.34 142.746C1738.73 143.136 1738.95 143.666 1738.95 144.218Z" fill="#A2BADD"/>
<path d="M1753.08 144.218C1753.08 144.63 1752.95 145.032 1752.73 145.375C1752.5 145.717 1752.17 145.984 1751.79 146.141C1751.41 146.299 1750.99 146.34 1750.59 146.26C1750.19 146.179 1749.81 145.981 1749.52 145.69C1749.23 145.398 1749.03 145.027 1748.95 144.623C1748.87 144.219 1748.91 143.801 1749.07 143.42C1749.23 143.04 1749.5 142.715 1749.84 142.486C1750.18 142.257 1750.58 142.135 1751 142.135C1751.55 142.136 1752.08 142.355 1752.47 142.746C1752.86 143.136 1753.08 143.666 1753.08 144.218Z" fill="#A2BADD"/>
<path d="M1253.55 869.226C1253.55 870.377 1253.21 871.503 1252.57 872.46C1251.93 873.417 1251.02 874.162 1249.95 874.603C1248.89 875.043 1247.72 875.158 1246.59 874.933C1245.46 874.708 1244.43 874.153 1243.61 873.339C1242.8 872.525 1242.25 871.488 1242.02 870.359C1241.8 869.229 1241.91 868.059 1242.35 866.996C1242.79 865.932 1243.54 865.023 1244.5 864.383C1245.45 863.744 1246.58 863.403 1247.73 863.403C1248.49 863.403 1249.25 863.553 1249.96 863.846C1250.66 864.139 1251.3 864.568 1251.84 865.108C1252.38 865.649 1252.81 866.291 1253.11 866.998C1253.4 867.704 1253.55 868.461 1253.55 869.226V869.226Z" stroke="#EAF1FD" stroke-miterlimit="10"/>
<path d="M1293.07 869.226C1293.07 870.378 1292.72 871.504 1292.09 872.462C1291.45 873.419 1290.54 874.166 1289.47 874.606C1288.41 875.047 1287.24 875.162 1286.11 874.938C1284.98 874.713 1283.94 874.158 1283.13 873.344C1282.31 872.53 1281.76 871.492 1281.53 870.362C1281.31 869.233 1281.43 868.062 1281.87 866.998C1282.31 865.933 1283.05 865.024 1284.01 864.384C1284.97 863.744 1286.09 863.403 1287.24 863.403C1288.79 863.403 1290.27 864.016 1291.36 865.108C1292.45 866.2 1293.07 867.682 1293.07 869.226Z" stroke="#EAF1FD" stroke-miterlimit="10"/>
<path d="M1332.58 869.226C1332.58 870.378 1332.24 871.504 1331.6 872.462C1330.96 873.419 1330.05 874.166 1328.99 874.606C1327.92 875.047 1326.75 875.162 1325.62 874.938C1324.5 874.713 1323.46 874.158 1322.64 873.344C1321.83 872.53 1321.28 871.492 1321.05 870.362C1320.83 869.233 1320.94 868.062 1321.38 866.998C1321.82 865.933 1322.57 865.024 1323.53 864.384C1324.48 863.744 1325.61 863.403 1326.76 863.403C1327.53 863.402 1328.28 863.553 1328.99 863.845C1329.7 864.138 1330.34 864.567 1330.88 865.108C1331.42 865.648 1331.85 866.291 1332.14 866.997C1332.43 867.704 1332.58 868.461 1332.58 869.226V869.226Z" stroke="#EAF1FD" stroke-miterlimit="10"/>
<path d="M1253.55 908.755C1253.55 909.906 1253.21 911.031 1252.57 911.988C1251.93 912.945 1251.02 913.691 1249.95 914.131C1248.89 914.572 1247.72 914.687 1246.59 914.462C1245.46 914.237 1244.43 913.682 1243.61 912.868C1242.8 912.054 1242.25 911.017 1242.02 909.887C1241.8 908.758 1241.91 907.588 1242.35 906.524C1242.79 905.461 1243.54 904.552 1244.5 903.912C1245.45 903.273 1246.58 902.931 1247.73 902.931C1248.49 902.931 1249.25 903.082 1249.96 903.375C1250.66 903.667 1251.3 904.096 1251.84 904.637C1252.38 905.178 1252.81 905.82 1253.11 906.526C1253.4 907.233 1253.55 907.99 1253.55 908.755V908.755Z" stroke="#EAF1FD" stroke-miterlimit="10"/>
<path d="M1293.07 908.755C1293.07 909.907 1292.72 911.033 1292.09 911.99C1291.45 912.948 1290.54 913.694 1289.47 914.135C1288.41 914.576 1287.24 914.691 1286.11 914.467C1284.98 914.242 1283.94 913.687 1283.13 912.873C1282.31 912.058 1281.76 911.021 1281.53 909.891C1281.31 908.761 1281.43 907.59 1281.87 906.526C1282.31 905.462 1283.05 904.553 1284.01 903.913C1284.97 903.273 1286.09 902.931 1287.24 902.931C1288.79 902.931 1290.27 903.545 1291.36 904.637C1292.45 905.729 1293.07 907.21 1293.07 908.755Z" stroke="#EAF1FD" stroke-miterlimit="10"/>
<path d="M1332.58 908.755C1332.58 909.907 1332.24 911.033 1331.6 911.99C1330.96 912.948 1330.05 913.694 1328.99 914.135C1327.92 914.576 1326.75 914.691 1325.62 914.467C1324.5 914.242 1323.46 913.687 1322.64 912.873C1321.83 912.058 1321.28 911.021 1321.05 909.891C1320.83 908.761 1320.94 907.59 1321.38 906.526C1321.82 905.462 1322.57 904.553 1323.53 903.913C1324.48 903.273 1325.61 902.931 1326.76 902.931C1327.53 902.931 1328.28 903.082 1328.99 903.374C1329.7 903.667 1330.34 904.096 1330.88 904.636C1331.42 905.177 1331.85 905.819 1332.14 906.526C1332.43 907.233 1332.58 907.99 1332.58 908.755V908.755Z" stroke="#EAF1FD" stroke-miterlimit="10"/>
</svg>
