<svg width="1920" height="938" viewBox="0 0 1920 938" fill="none" xmlns="http://www.w3.org/2000/svg">
<g id="feature-bg" clip-path="url(#clip0)">
<g id="Group">
<path id="Vector" d="M1773 868.736H1786.83" stroke="#A2BADD" stroke-width="2" stroke-linecap="round" stroke-linejoin="round"/>
<path id="Vector_2" d="M1779.91 861.821V875.655" stroke="#A2BADD" stroke-width="2" stroke-linecap="round" stroke-linejoin="round"/>
<path id="Vector_3" d="M1773 838.827H1786.83" stroke="#A2BADD" stroke-width="2" stroke-linecap="round" stroke-linejoin="round"/>
<path id="Vector_4" d="M1779.91 831.909V845.743" stroke="#A2BADD" stroke-width="2" stroke-linecap="round" stroke-linejoin="round"/>
<path id="Vector_5" d="M1773 808.916H1786.83" stroke="#A2BADD" stroke-width="2" stroke-linecap="round" stroke-linejoin="round"/>
<path id="Vector_6" d="M1779.91 802V815.834" stroke="#A2BADD" stroke-width="2" stroke-linecap="round" stroke-linejoin="round"/>
<path id="Vector_7" d="M1091.35 173.577V187.411" stroke="#A2BADD" stroke-width="2" stroke-linecap="round" stroke-linejoin="round"/>
<path id="Vector_8" d="M1098.27 180.493H1084.44" stroke="#A2BADD" stroke-width="2" stroke-linecap="round" stroke-linejoin="round"/>
<path id="Vector_9" d="M644.827 431.617V445.452" stroke="#EAF1FD" stroke-width="2" stroke-linecap="round" stroke-linejoin="round"/>
<path id="Vector_10" d="M651.743 438.533H637.913" stroke="#EAF1FD" stroke-width="2" stroke-linecap="round" stroke-linejoin="round"/>
<path id="Vector_11" d="M543.582 701.202V715.037" stroke="#00BCD4" stroke-width="2" stroke-linecap="round" stroke-linejoin="round"/>
<path id="Vector_12" d="M550.498 708.12H536.668" stroke="#00BCD4" stroke-width="2" stroke-linecap="round" stroke-linejoin="round"/>
<path id="Vector_13" d="M963.359 541.111V554.946" stroke="#00BCD4" stroke-width="2" stroke-linecap="round" stroke-linejoin="round"/>
<path id="Vector_14" d="M970.275 548.027H956.445" stroke="#00BCD4" stroke-width="2" stroke-linecap="round" stroke-linejoin="round"/>
<path id="Vector_15" d="M1241.69 374.465V388.3" stroke="#00BCD4" stroke-width="2" stroke-linecap="round" stroke-linejoin="round"/>
<path id="Vector_16" d="M1248.61 381.381H1234.78" stroke="#00BCD4" stroke-width="2" stroke-linecap="round" stroke-linejoin="round"/>
<path id="Vector_17" d="M1611.77 95.1101V108.945" stroke="#00BCD4" stroke-width="2" stroke-linecap="round" stroke-linejoin="round"/>
<path id="Vector_18" d="M1618.68 102.026H1604.85" stroke="#00BCD4" stroke-width="2" stroke-linecap="round" stroke-linejoin="round"/>
<path id="Vector_19" d="M422.119 337.774V351.609" stroke="#00BCD4" stroke-width="2" stroke-linecap="round" stroke-linejoin="round"/>
<path id="Vector_20" d="M429.035 344.69H415.205" stroke="#00BCD4" stroke-width="2" stroke-linecap="round" stroke-linejoin="round"/>
<path id="Vector_21" d="M637.913 129.582V143.416" stroke="#BDD7FE" stroke-width="2" stroke-linecap="round" stroke-linejoin="round"/>
<path id="Vector_22" d="M644.827 136.498H630.997" stroke="#BDD7FE" stroke-width="2" stroke-linecap="round" stroke-linejoin="round"/>
<path id="Vector_23" d="M1033.91 914V927.834" stroke="#FAFAFA" stroke-opacity="0.28" stroke-width="2" stroke-linecap="round" stroke-linejoin="round"/>
<path id="Vector_24" d="M1040.83 920.916H1027" stroke="#FAFAFA" stroke-opacity="0.28" stroke-width="2" stroke-linecap="round" stroke-linejoin="round"/>
<path id="Vector_25" d="M1063.82 914V927.834" stroke="#FAFAFA" stroke-opacity="0.28" stroke-width="2" stroke-linecap="round" stroke-linejoin="round"/>
<path id="Vector_26" d="M1070.73 920.916H1056.9" stroke="#FAFAFA" stroke-opacity="0.28" stroke-width="2" stroke-linecap="round" stroke-linejoin="round"/>
<path id="Vector_27" d="M1093.72 914V927.834" stroke="#FAFAFA" stroke-opacity="0.28" stroke-width="2" stroke-linecap="round" stroke-linejoin="round"/>
<path id="Vector_28" d="M1100.63 920.916H1086.8" stroke="#FAFAFA" stroke-opacity="0.28" stroke-width="2" stroke-linecap="round" stroke-linejoin="round"/>
<path id="Vector_29" d="M227.209 293.177V307.011" stroke="#00BCD4" stroke-width="2" stroke-linecap="round" stroke-linejoin="round"/>
<path id="Vector_30" d="M234.125 300.093H220.295" stroke="#00BCD4" stroke-width="2" stroke-linecap="round" stroke-linejoin="round"/>
<path id="Vector_31" d="M96.8299 232.916H83" stroke="#EAF1FD" stroke-width="2" stroke-linecap="round" stroke-linejoin="round"/>
<path id="Vector_32" d="M89.9161 239.834V226" stroke="#EAF1FD" stroke-width="2" stroke-linecap="round" stroke-linejoin="round"/>
<path id="Vector_33" d="M96.8299 262.828H83" stroke="#EAF1FD" stroke-width="2" stroke-linecap="round" stroke-linejoin="round"/>
<path id="Vector_34" d="M89.9161 269.744V255.909" stroke="#EAF1FD" stroke-width="2" stroke-linecap="round" stroke-linejoin="round"/>
<path id="Vector_35" d="M96.8299 292.737H83" stroke="#EAF1FD" stroke-width="2" stroke-linecap="round" stroke-linejoin="round"/>
<path id="Vector_36" d="M89.9161 299.655V285.821" stroke="#EAF1FD" stroke-width="2" stroke-linecap="round" stroke-linejoin="round"/>
<path id="Vector_37" d="M408.69 539.346C408.69 539.81 408.553 540.263 408.295 540.649C408.037 541.035 407.671 541.336 407.242 541.513C406.814 541.691 406.342 541.737 405.887 541.646C405.432 541.556 405.014 541.332 404.686 541.004C404.359 540.676 404.135 540.258 404.045 539.803C403.955 539.348 404.001 538.876 404.179 538.447C404.357 538.019 404.657 537.652 405.043 537.395C405.429 537.137 405.882 537 406.346 537C406.654 537 406.959 537.061 407.243 537.179C407.528 537.296 407.786 537.469 408.004 537.687C408.222 537.905 408.394 538.164 408.512 538.448C408.63 538.733 408.69 539.038 408.69 539.346Z" fill="#A2BADD"/>
<path id="Vector_38" d="M424.61 539.346C424.61 539.81 424.472 540.263 424.215 540.649C423.957 541.035 423.591 541.336 423.162 541.513C422.734 541.691 422.262 541.737 421.807 541.646C421.352 541.556 420.934 541.332 420.606 541.004C420.278 540.676 420.055 540.258 419.965 539.803C419.874 539.348 419.921 538.876 420.099 538.447C420.276 538.019 420.577 537.652 420.963 537.395C421.349 537.137 421.802 537 422.266 537C422.574 537 422.879 537.061 423.163 537.179C423.448 537.296 423.706 537.469 423.924 537.687C424.142 537.905 424.314 538.164 424.432 538.448C424.55 538.733 424.61 539.038 424.61 539.346Z" fill="#A2BADD"/>
<path id="Vector_39" d="M440.536 539.346C440.536 539.81 440.398 540.263 440.141 540.649C439.883 541.035 439.517 541.336 439.088 541.513C438.66 541.691 438.188 541.737 437.733 541.647C437.278 541.556 436.861 541.333 436.533 541.005C436.205 540.676 435.981 540.259 435.891 539.803C435.8 539.348 435.847 538.877 436.024 538.448C436.202 538.019 436.502 537.653 436.888 537.395C437.274 537.138 437.727 537 438.191 537C438.499 537 438.804 537.06 439.088 537.178C439.373 537.296 439.632 537.469 439.849 537.687C440.067 537.905 440.24 538.163 440.358 538.448C440.475 538.733 440.536 539.038 440.536 539.346Z" fill="#A2BADD"/>
<path id="Vector_40" d="M408.69 555.27C408.69 555.734 408.553 556.187 408.295 556.573C408.038 556.959 407.672 557.26 407.243 557.438C406.814 557.616 406.343 557.662 405.888 557.572C405.433 557.481 405.015 557.258 404.687 556.93C404.359 556.601 404.135 556.183 404.045 555.728C403.955 555.273 404.001 554.801 404.179 554.373C404.356 553.944 404.657 553.578 405.043 553.32C405.429 553.062 405.882 552.925 406.346 552.925C406.968 552.925 407.564 553.172 408.004 553.612C408.443 554.051 408.69 554.648 408.69 555.27Z" fill="#A2BADD"/>
<path id="Vector_41" d="M424.61 555.27C424.61 555.734 424.473 556.187 424.215 556.573C423.958 556.959 423.591 557.26 423.163 557.438C422.734 557.616 422.263 557.662 421.808 557.572C421.353 557.481 420.935 557.258 420.607 556.93C420.279 556.601 420.055 556.183 419.965 555.728C419.874 555.273 419.921 554.801 420.099 554.373C420.276 553.944 420.577 553.578 420.963 553.32C421.349 553.062 421.802 552.925 422.266 552.925C422.888 552.925 423.484 553.172 423.924 553.612C424.363 554.051 424.61 554.648 424.61 555.27Z" fill="#A2BADD"/>
<path id="Vector_42" d="M440.536 555.27C440.536 555.734 440.399 556.187 440.141 556.573C439.884 556.959 439.517 557.26 439.089 557.438C438.661 557.616 438.189 557.662 437.734 557.572C437.279 557.481 436.861 557.258 436.533 556.93C436.205 556.602 435.981 556.184 435.891 555.729C435.8 555.274 435.847 554.802 436.024 554.373C436.202 553.945 436.502 553.578 436.888 553.32C437.273 553.063 437.727 552.925 438.191 552.925C438.499 552.925 438.804 552.985 439.088 553.103C439.373 553.221 439.631 553.394 439.849 553.611C440.067 553.829 440.239 554.088 440.357 554.372C440.475 554.657 440.536 554.962 440.536 555.27Z" fill="#A2BADD"/>
<path id="Vector_43" d="M408.69 571.195C408.69 571.659 408.553 572.113 408.295 572.498C408.038 572.884 407.672 573.185 407.243 573.363C406.814 573.541 406.343 573.587 405.888 573.497C405.433 573.406 405.015 573.183 404.687 572.855C404.359 572.527 404.135 572.108 404.045 571.653C403.955 571.198 404.001 570.726 404.179 570.298C404.356 569.869 404.657 569.503 405.043 569.245C405.429 568.987 405.882 568.85 406.346 568.85C406.968 568.85 407.564 569.097 408.004 569.537C408.443 569.977 408.69 570.573 408.69 571.195Z" fill="#A2BADD"/>
<path id="Vector_44" d="M424.61 571.195C424.61 571.659 424.473 572.113 424.215 572.498C423.958 572.884 423.591 573.185 423.163 573.363C422.734 573.541 422.263 573.587 421.808 573.497C421.353 573.406 420.935 573.183 420.607 572.855C420.279 572.527 420.055 572.108 419.965 571.653C419.874 571.198 419.921 570.726 420.099 570.298C420.276 569.869 420.577 569.503 420.963 569.245C421.349 568.987 421.802 568.85 422.266 568.85C422.888 568.85 423.484 569.097 423.924 569.537C424.363 569.977 424.61 570.573 424.61 571.195Z" fill="#A2BADD"/>
<path id="Vector_45" d="M440.536 571.195C440.536 571.659 440.399 572.112 440.141 572.498C439.884 572.884 439.517 573.185 439.089 573.363C438.661 573.541 438.189 573.587 437.734 573.497C437.279 573.406 436.861 573.183 436.533 572.855C436.205 572.527 435.981 572.109 435.891 571.654C435.8 571.199 435.847 570.727 436.024 570.298C436.202 569.87 436.502 569.503 436.888 569.246C437.273 568.988 437.727 568.85 438.191 568.85C438.499 568.85 438.804 568.911 439.088 569.028C439.373 569.146 439.631 569.319 439.849 569.536C440.067 569.754 440.239 570.013 440.357 570.297C440.475 570.582 440.536 570.887 440.536 571.195Z" fill="#A2BADD"/>
<path id="Vector_46" d="M94.65 45.3269C94.6497 45.7868 94.5132 46.2363 94.2577 46.6186C94.0021 47.0008 93.639 47.2988 93.2142 47.4746C92.7894 47.6505 92.322 47.6965 91.8711 47.6067C91.4202 47.5169 91.0061 47.2955 90.681 46.9703C90.3559 46.6451 90.1345 46.2308 90.0447 45.7797C89.955 45.3287 90.0009 44.8612 90.1768 44.4362C90.3526 44.0113 90.6504 43.6481 91.0326 43.3924C91.4147 43.1368 91.8641 43.0002 92.3238 43C92.6293 42.9998 92.9319 43.0599 93.2142 43.1768C93.4965 43.2937 93.753 43.4651 93.969 43.6812C94.185 43.8973 94.3564 44.1539 94.4732 44.4362C94.5901 44.7186 94.6501 45.0213 94.65 45.3269Z" fill="#A2BADD"/>
<path id="Vector_47" d="M108.115 47.6538C109.4 47.6538 110.442 46.612 110.442 45.3269C110.442 44.0418 109.4 43 108.115 43C106.831 43 105.789 44.0418 105.789 45.3269C105.789 46.612 106.831 47.6538 108.115 47.6538Z" fill="#A2BADD"/>
<path id="Vector_48" d="M126.231 45.3269C126.231 45.7871 126.094 46.237 125.839 46.6196C125.583 47.0023 125.22 47.3005 124.795 47.4766C124.37 47.6528 123.902 47.6988 123.451 47.6091C123 47.5193 122.585 47.2977 122.26 46.9722C121.934 46.6468 121.713 46.2322 121.623 45.7808C121.533 45.3295 121.58 44.8616 121.756 44.4364C121.932 44.0112 122.23 43.6478 122.612 43.3922C122.995 43.1365 123.445 43 123.905 43C124.522 43 125.113 43.2452 125.549 43.6815C125.986 44.1179 126.231 44.7098 126.231 45.3269Z" fill="#A2BADD"/>
<path id="Vector_49" d="M142.025 45.3269C142.025 45.7871 141.888 46.237 141.633 46.6196C141.377 47.0023 141.014 47.3005 140.589 47.4766C140.164 47.6528 139.696 47.6988 139.245 47.6091C138.794 47.5193 138.379 47.2977 138.054 46.9722C137.728 46.6468 137.507 46.2322 137.417 45.7808C137.327 45.3295 137.373 44.8616 137.55 44.4364C137.726 44.0112 138.024 43.6478 138.406 43.3922C138.789 43.1365 139.239 43 139.699 43C140.004 43 140.307 43.0602 140.589 43.1771C140.871 43.2941 141.127 43.4655 141.343 43.6815C141.559 43.8976 141.731 44.1541 141.848 44.4364C141.965 44.7187 142.025 45.0213 142.025 45.3269Z" fill="#A2BADD"/>
<path id="Vector_50" d="M155.49 47.6538C156.775 47.6538 157.816 46.612 157.816 45.3269C157.816 44.0418 156.775 43 155.49 43C154.206 43 153.164 44.0418 153.164 45.3269C153.164 46.612 154.206 47.6538 155.49 47.6538Z" fill="#A2BADD"/>
<path id="Vector_51" d="M173.607 45.3269C173.607 45.7871 173.47 46.237 173.215 46.6196C172.959 47.0023 172.596 47.3005 172.171 47.4766C171.746 47.6528 171.278 47.6988 170.827 47.6091C170.375 47.5193 169.961 47.2977 169.636 46.9722C169.31 46.6468 169.089 46.2322 168.999 45.7808C168.909 45.3295 168.955 44.8616 169.131 44.4364C169.307 44.0112 169.606 43.6478 169.988 43.3922C170.371 43.1365 170.82 43 171.28 43C171.586 42.9998 171.889 43.0599 172.171 43.1768C172.453 43.2937 172.71 43.4651 172.926 43.6812C173.142 43.8973 173.313 44.1539 173.43 44.4362C173.547 44.7186 173.607 45.0213 173.607 45.3269Z" fill="#A2BADD"/>
<path id="Vector_52" d="M189.397 45.3269C189.397 45.7871 189.261 46.237 189.005 46.6196C188.75 47.0023 188.386 47.3005 187.961 47.4766C187.536 47.6528 187.068 47.6988 186.617 47.6091C186.166 47.5193 185.752 47.2977 185.426 46.9722C185.101 46.6468 184.879 46.2322 184.79 45.7808C184.7 45.3295 184.746 44.8616 184.922 44.4364C185.098 44.0112 185.396 43.6478 185.779 43.3922C186.161 43.1365 186.611 43 187.071 43C187.377 42.9998 187.679 43.0599 187.961 43.1768C188.244 43.2937 188.5 43.4651 188.716 43.6812C188.932 43.8973 189.104 44.1539 189.22 44.4362C189.337 44.7186 189.397 45.0213 189.397 45.3269Z" fill="#A2BADD"/>
<path id="Vector_53" d="M94.65 61.1235C94.6497 61.5834 94.5132 62.0329 94.2577 62.4152C94.0021 62.7975 93.639 63.0954 93.2142 63.2713C92.7894 63.4472 92.322 63.4931 91.8711 63.4033C91.4202 63.3136 91.0061 63.0921 90.681 62.7669C90.3559 62.4417 90.1345 62.0274 90.0447 61.5764C89.955 61.1253 90.0009 60.6578 90.1768 60.2329C90.3526 59.808 90.6504 59.4447 91.0326 59.1891C91.4147 58.9334 91.8641 58.7969 92.3238 58.7966C92.9408 58.7966 93.5324 59.0418 93.9687 59.4782C94.4049 59.9145 94.65 60.5064 94.65 61.1235Z" fill="#A2BADD"/>
<path id="Vector_54" d="M110.442 61.1235C110.442 61.5837 110.305 62.0336 110.05 62.4163C109.794 62.7989 109.431 63.0972 109.006 63.2733C108.581 63.4494 108.113 63.4955 107.662 63.4057C107.21 63.3159 106.796 63.0943 106.471 62.7689C106.145 62.4435 105.924 62.0288 105.834 61.5775C105.744 61.1261 105.79 60.6582 105.966 60.2331C106.142 59.8079 106.441 59.4445 106.823 59.1888C107.206 58.9331 107.655 58.7966 108.115 58.7966C108.732 58.7969 109.324 59.0422 109.76 59.4785C110.196 59.9148 110.441 60.5065 110.442 61.1235Z" fill="#A2BADD"/>
<path id="Vector_55" d="M126.231 61.1235C126.231 61.5837 126.094 62.0336 125.839 62.4163C125.583 62.7989 125.22 63.0972 124.795 63.2733C124.37 63.4494 123.902 63.4955 123.451 63.4057C123 63.3159 122.585 63.0943 122.26 62.7689C121.934 62.4435 121.713 62.0288 121.623 61.5775C121.533 61.1261 121.58 60.6582 121.756 60.2331C121.932 59.8079 122.23 59.4445 122.612 59.1888C122.995 58.9331 123.445 58.7966 123.905 58.7966C124.521 58.7969 125.113 59.0422 125.549 59.4785C125.985 59.9148 126.23 60.5065 126.231 61.1235Z" fill="#A2BADD"/>
<path id="Vector_56" d="M142.025 61.1235C142.025 61.5837 141.888 62.0336 141.633 62.4163C141.377 62.7989 141.014 63.0972 140.589 63.2733C140.164 63.4494 139.696 63.4955 139.245 63.4057C138.794 63.3159 138.379 63.0943 138.054 62.7689C137.728 62.4435 137.507 62.0288 137.417 61.5775C137.327 61.1261 137.373 60.6582 137.55 60.2331C137.726 59.8079 138.024 59.4445 138.406 59.1888C138.789 58.9331 139.239 58.7966 139.699 58.7966C140.315 58.7969 140.907 59.0422 141.343 59.4785C141.779 59.9148 142.024 60.5065 142.025 61.1235Z" fill="#A2BADD"/>
<path id="Vector_57" d="M157.815 61.1235C157.815 61.5838 157.679 62.0337 157.423 62.4164C157.167 62.7991 156.804 63.0973 156.379 63.2734C155.954 63.4495 155.486 63.4955 155.035 63.4056C154.583 63.3157 154.169 63.094 153.844 62.7685C153.518 62.4429 153.297 62.0282 153.207 61.5768C153.118 61.1253 153.164 60.6574 153.34 60.2323C153.516 59.8071 153.815 59.4438 154.197 59.1882C154.58 58.9327 155.03 58.7964 155.49 58.7966C156.107 58.7969 156.698 59.0422 157.134 59.4786C157.57 59.9149 157.815 60.5066 157.815 61.1235Z" fill="#A2BADD"/>
<path id="Vector_58" d="M173.607 61.1235C173.607 61.5837 173.47 62.0336 173.215 62.4163C172.959 62.7989 172.596 63.0972 172.171 63.2733C171.746 63.4494 171.278 63.4955 170.827 63.4057C170.375 63.3159 169.961 63.0943 169.636 62.7689C169.31 62.4435 169.089 62.0288 168.999 61.5775C168.909 61.1261 168.955 60.6582 169.131 60.2331C169.307 59.8079 169.606 59.4445 169.988 59.1888C170.371 58.9331 170.82 58.7966 171.28 58.7966C171.897 58.7966 172.489 59.0418 172.925 59.4782C173.362 59.9145 173.607 60.5064 173.607 61.1235Z" fill="#A2BADD"/>
<path id="Vector_59" d="M189.397 61.1235C189.397 61.5837 189.261 62.0336 189.005 62.4163C188.75 62.7989 188.386 63.0972 187.961 63.2733C187.536 63.4494 187.068 63.4955 186.617 63.4057C186.166 63.3159 185.752 63.0943 185.426 62.7689C185.101 62.4435 184.879 62.0288 184.79 61.5775C184.7 61.1261 184.746 60.6582 184.922 60.2331C185.098 59.8079 185.396 59.4445 185.779 59.1888C186.161 58.9331 186.611 58.7966 187.071 58.7966C187.688 58.7966 188.28 59.0418 188.716 59.4782C189.152 59.9145 189.397 60.5064 189.397 61.1235Z" fill="#A2BADD"/>
<path id="Vector_60" d="M94.65 76.9201C94.6488 77.3798 94.5115 77.8289 94.2554 78.2105C93.9993 78.5922 93.6358 78.8894 93.211 79.0646C92.7861 79.2398 92.3189 79.2851 91.8683 79.1948C91.4177 79.1045 91.004 78.8826 90.6793 78.5572C90.3547 78.2319 90.1338 77.8176 90.0444 77.3667C89.955 76.9157 90.0012 76.4485 90.1772 76.0238C90.3532 75.5991 90.651 75.2362 91.033 74.9807C91.4151 74.7253 91.8643 74.5889 92.3238 74.5886C92.6297 74.5886 92.9325 74.649 93.2151 74.7662C93.4976 74.8834 93.7542 75.0552 93.9703 75.2718C94.1864 75.4884 94.3576 75.7454 94.4742 76.0283C94.5909 76.3111 94.6506 76.6142 94.65 76.9201Z" fill="#A2BADD"/>
<path id="Vector_61" d="M110.442 76.9201C110.441 77.3802 110.303 77.8296 110.047 78.2116C109.791 78.5937 109.428 78.8912 109.002 79.0666C108.577 79.242 108.11 79.2874 107.659 79.1971C107.208 79.1068 106.794 78.8848 106.469 78.5592C106.144 78.2336 105.923 77.819 105.834 77.3678C105.744 76.9165 105.791 76.4489 105.967 76.024C106.143 75.5991 106.441 75.2359 106.824 74.9805C107.206 74.725 107.656 74.5886 108.115 74.5886C108.421 74.5888 108.724 74.6492 109.007 74.7665C109.289 74.8838 109.546 75.0556 109.762 75.2721C109.978 75.4887 110.149 75.7457 110.266 76.0284C110.382 76.3112 110.442 76.6142 110.442 76.9201Z" fill="#A2BADD"/>
<path id="Vector_62" d="M126.231 76.9201C126.23 77.3803 126.093 77.8298 125.836 78.2119C125.58 78.594 125.216 78.8915 124.791 79.0668C124.366 79.2422 123.898 79.2874 123.447 79.1969C122.996 79.1065 122.582 78.8842 122.257 78.5584C121.933 78.2326 121.712 77.8177 121.623 77.3663C121.533 76.9149 121.58 76.4472 121.757 76.0224C121.933 75.5975 122.232 75.2345 122.614 74.9793C122.997 74.7241 123.447 74.5882 123.907 74.5886C124.213 74.5891 124.515 74.6497 124.797 74.7672C125.079 74.8846 125.336 75.0564 125.552 75.2729C125.767 75.4895 125.938 75.7463 126.055 76.029C126.171 76.3116 126.231 76.6144 126.231 76.9201Z" fill="#A2BADD"/>
<path id="Vector_63" d="M142.025 76.9201C142.024 77.3802 141.887 77.8296 141.63 78.2116C141.374 78.5937 141.011 78.8912 140.586 79.0666C140.16 79.242 139.693 79.2874 139.242 79.1971C138.791 79.1068 138.377 78.8848 138.052 78.5592C137.727 78.2336 137.506 77.819 137.417 77.3678C137.327 76.9165 137.374 76.4489 137.55 76.024C137.726 75.5991 138.024 75.2359 138.407 74.9805C138.789 74.725 139.239 74.5886 139.699 74.5886C140.004 74.5888 140.307 74.6492 140.59 74.7665C140.872 74.8838 141.129 75.0556 141.345 75.2721C141.561 75.4887 141.732 75.7457 141.849 76.0284C141.965 76.3112 142.025 76.6142 142.025 76.9201Z" fill="#A2BADD"/>
<path id="Vector_64" d="M157.815 76.9201C157.814 77.3802 157.677 77.8297 157.421 78.2117C157.164 78.5938 156.801 78.8913 156.376 79.0667C155.95 79.2421 155.483 79.2874 155.032 79.197C154.581 79.1066 154.167 78.8845 153.842 78.5588C153.517 78.2331 153.296 77.8184 153.207 77.367C153.118 76.9157 153.164 76.4481 153.341 76.0232C153.517 75.5983 153.815 75.2352 154.198 74.9799C154.58 74.7246 155.03 74.5884 155.49 74.5886C155.796 74.5888 156.099 74.6492 156.381 74.7665C156.663 74.8838 156.92 75.0557 157.136 75.2722C157.352 75.4887 157.523 75.7458 157.639 76.0285C157.756 76.3113 157.816 76.6143 157.815 76.9201Z" fill="#A2BADD"/>
<path id="Vector_65" d="M173.607 76.9201C173.607 77.3804 173.47 77.8302 173.215 78.2129C172.959 78.5955 172.596 78.8938 172.171 79.0699C171.746 79.246 171.278 79.2921 170.827 79.2023C170.375 79.1125 169.961 78.8909 169.636 78.5655C169.31 78.2401 169.089 77.8255 168.999 77.3741C168.909 76.9227 168.955 76.4549 169.131 76.0297C169.307 75.6045 169.606 75.2411 169.988 74.9854C170.371 74.7297 170.82 74.5933 171.28 74.5933C171.897 74.5933 172.489 74.8384 172.925 75.2748C173.362 75.7112 173.607 76.303 173.607 76.9201Z" fill="#A2BADD"/>
<path id="Vector_66" d="M189.397 76.9201C189.397 77.3804 189.261 77.8302 189.005 78.2129C188.75 78.5955 188.386 78.8938 187.961 79.0699C187.536 79.246 187.068 79.2921 186.617 79.2023C186.166 79.1125 185.752 78.8909 185.426 78.5655C185.101 78.2401 184.879 77.8255 184.79 77.3741C184.7 76.9227 184.746 76.4549 184.922 76.0297C185.098 75.6045 185.396 75.2411 185.779 74.9854C186.161 74.7297 186.611 74.5933 187.071 74.5933C187.688 74.5933 188.28 74.8384 188.716 75.2748C189.152 75.7112 189.397 76.303 189.397 76.9201Z" fill="#A2BADD"/>
<path id="Vector_67" d="M94.65 92.7168C94.6497 93.1767 94.5132 93.6262 94.2577 94.008C94.0021 94.391 93.639 94.689 93.2142 94.865C92.7894 95.04 92.322 95.086 91.8711 94.997C91.4202 94.907 91.0061 94.685 90.681 94.36C90.3559 94.035 90.1345 93.6207 90.0447 93.1696C89.955 92.7186 90.0009 92.2511 90.1768 91.8261C90.3526 91.4012 90.6504 91.038 91.0326 90.7823C91.4147 90.5267 91.8641 90.3901 92.3238 90.3899C92.6293 90.3897 92.9319 90.4498 93.2142 90.5667C93.4965 90.6836 93.753 90.855 93.969 91.0711C94.185 91.2872 94.3564 91.5438 94.4732 91.8261C94.5901 92.1085 94.6501 92.4112 94.65 92.7168Z" fill="#A2BADD"/>
<path id="Vector_68" d="M110.442 92.7168C110.442 93.177 110.305 93.6269 110.05 94.01C109.794 94.392 109.431 94.69 109.006 94.867C108.581 95.043 108.113 95.089 107.662 94.999C107.21 94.909 106.796 94.688 106.471 94.362C106.145 94.037 105.924 93.6221 105.834 93.1707C105.744 92.7194 105.79 92.2515 105.966 91.8263C106.142 91.4011 106.441 91.0377 106.823 90.782C107.206 90.5264 107.655 90.3899 108.115 90.3899C108.732 90.3899 109.324 90.635 109.76 91.0714C110.197 91.5078 110.442 92.0997 110.442 92.7168Z" fill="#A2BADD"/>
<path id="Vector_69" d="M126.231 92.7168C126.231 93.177 126.094 93.6269 125.839 94.01C125.583 94.392 125.22 94.69 124.795 94.867C124.37 95.043 123.902 95.089 123.451 94.999C123 94.909 122.585 94.688 122.26 94.362C121.934 94.037 121.713 93.6221 121.623 93.1707C121.533 92.7194 121.58 92.2515 121.756 91.8263C121.932 91.4011 122.23 91.0377 122.612 90.782C122.995 90.5264 123.445 90.3899 123.905 90.3899C124.522 90.3899 125.113 90.635 125.549 91.0714C125.986 91.5078 126.231 92.0997 126.231 92.7168Z" fill="#A2BADD"/>
<path id="Vector_70" d="M142.025 92.7168C142.025 93.177 141.888 93.6269 141.633 94.01C141.377 94.392 141.014 94.69 140.589 94.867C140.164 95.043 139.696 95.089 139.245 94.999C138.794 94.909 138.379 94.688 138.054 94.362C137.728 94.037 137.507 93.6221 137.417 93.1707C137.327 92.7194 137.373 92.2515 137.55 91.8263C137.726 91.4011 138.024 91.0377 138.406 90.782C138.789 90.5264 139.239 90.3899 139.699 90.3899C140.004 90.3899 140.307 90.4501 140.589 90.567C140.871 90.684 141.127 90.8554 141.343 91.0714C141.559 91.2875 141.731 91.544 141.848 91.8263C141.965 92.1086 142.025 92.4112 142.025 92.7168Z" fill="#A2BADD"/>
<path id="Vector_71" d="M157.815 92.7168C157.815 93.177 157.679 93.627 157.423 94.01C157.167 94.392 156.804 94.691 156.379 94.867C155.954 95.043 155.486 95.089 155.035 94.999C154.583 94.909 154.169 94.687 153.844 94.362C153.518 94.036 153.297 93.6215 153.207 93.17C153.118 92.7186 153.164 92.2507 153.34 91.8255C153.516 91.4003 153.815 91.037 154.197 90.7815C154.58 90.5259 155.03 90.3897 155.49 90.3899C155.795 90.3899 156.098 90.4501 156.38 90.567C156.662 90.684 156.919 90.8554 157.134 91.0715C157.35 91.2876 157.522 91.5441 157.638 91.8264C157.755 92.1087 157.815 92.4113 157.815 92.7168Z" fill="#A2BADD"/>
<path id="Vector_72" d="M173.607 92.7168C173.607 93.177 173.47 93.6269 173.215 94.01C172.959 94.392 172.596 94.69 172.171 94.867C171.746 95.043 171.278 95.089 170.827 94.999C170.375 94.909 169.961 94.688 169.636 94.362C169.31 94.037 169.089 93.6221 168.999 93.1707C168.909 92.7194 168.955 92.2515 169.131 91.8263C169.307 91.4011 169.606 91.0377 169.988 90.782C170.371 90.5264 170.82 90.3899 171.28 90.3899C171.586 90.3897 171.889 90.4498 172.171 90.5667C172.453 90.6836 172.71 90.855 172.926 91.0711C173.142 91.2872 173.313 91.5438 173.43 91.8261C173.547 92.1085 173.607 92.4112 173.607 92.7168Z" fill="#A2BADD"/>
<path id="Vector_73" d="M189.397 92.7168C189.397 93.177 189.261 93.6269 189.005 94.01C188.75 94.392 188.386 94.69 187.961 94.867C187.536 95.043 187.068 95.089 186.617 94.999C186.166 94.909 185.752 94.688 185.426 94.362C185.101 94.037 184.879 93.6221 184.79 93.1707C184.7 92.7194 184.746 92.2515 184.922 91.8263C185.098 91.4011 185.396 91.0377 185.779 90.782C186.161 90.5264 186.611 90.3899 187.071 90.3899C187.377 90.3897 187.679 90.4498 187.961 90.5667C188.244 90.6836 188.5 90.855 188.716 91.0711C188.932 91.2872 189.104 91.5438 189.22 91.8261C189.337 92.1085 189.397 92.4112 189.397 92.7168Z" fill="#A2BADD"/>
<path id="Vector_74" d="M94.65 108.512C94.65 108.972 94.5136 109.422 94.2582 109.804C94.0028 110.187 93.6398 110.485 93.215 110.661C92.7902 110.837 92.3228 110.883 91.8718 110.793C91.4209 110.704 91.0066 110.482 90.6814 110.157C90.3562 109.832 90.1347 109.418 90.0448 108.967C89.955 108.516 90.0009 108.048 90.1766 107.623C90.3524 107.198 90.6503 106.835 91.0324 106.579C91.4146 106.323 91.864 106.187 92.3238 106.187C92.6292 106.186 92.9317 106.246 93.2139 106.363C93.4961 106.48 93.7526 106.651 93.9686 106.867C94.1846 107.083 94.356 107.34 94.4729 107.622C94.5898 107.904 94.65 108.207 94.65 108.512Z" fill="#A2BADD"/>
<path id="Vector_75" d="M108.115 110.84C109.4 110.84 110.442 109.799 110.442 108.513C110.442 107.228 109.4 106.187 108.115 106.187C106.831 106.187 105.789 107.228 105.789 108.513C105.789 109.799 106.831 110.84 108.115 110.84Z" fill="#A2BADD"/>
<path id="Vector_76" d="M126.231 108.512C126.231 108.973 126.095 109.423 125.839 109.805C125.584 110.188 125.221 110.487 124.796 110.663C124.371 110.839 123.903 110.885 123.452 110.796C123 110.706 122.586 110.485 122.26 110.159C121.935 109.834 121.713 109.419 121.623 108.968C121.533 108.516 121.579 108.048 121.755 107.623C121.931 107.198 122.23 106.834 122.612 106.579C122.995 106.323 123.445 106.187 123.905 106.187C124.521 106.187 125.113 106.432 125.549 106.868C125.985 107.304 126.23 107.895 126.231 108.512Z" fill="#A2BADD"/>
<path id="Vector_77" d="M142.025 108.512C142.025 108.973 141.889 109.423 141.633 109.805C141.378 110.188 141.015 110.487 140.59 110.663C140.165 110.839 139.697 110.885 139.245 110.796C138.794 110.706 138.38 110.485 138.054 110.159C137.729 109.834 137.507 109.419 137.417 108.968C137.327 108.516 137.373 108.048 137.549 107.623C137.725 107.198 138.024 106.834 138.406 106.579C138.789 106.323 139.238 106.187 139.699 106.187C140.315 106.187 140.907 106.432 141.343 106.868C141.779 107.304 142.024 107.895 142.025 108.512Z" fill="#A2BADD"/>
<path id="Vector_78" d="M155.49 110.84C156.775 110.84 157.816 109.799 157.816 108.513C157.816 107.228 156.775 106.187 155.49 106.187C154.206 106.187 153.164 107.228 153.164 108.513C153.164 109.799 154.206 110.84 155.49 110.84Z" fill="#A2BADD"/>
<path id="Vector_79" d="M173.607 108.512C173.607 108.973 173.471 109.423 173.215 109.805C172.96 110.188 172.597 110.487 172.172 110.663C171.747 110.839 171.279 110.885 170.828 110.796C170.376 110.706 169.962 110.485 169.636 110.159C169.311 109.834 169.089 109.419 168.999 108.968C168.909 108.516 168.955 108.048 169.131 107.623C169.307 107.198 169.606 106.834 169.988 106.579C170.371 106.323 170.82 106.187 171.281 106.187C171.586 106.186 171.888 106.246 172.171 106.363C172.453 106.48 172.709 106.651 172.925 106.867C173.141 107.083 173.313 107.34 173.43 107.622C173.547 107.904 173.607 108.207 173.607 108.512Z" fill="#A2BADD"/>
<path id="Vector_80" d="M189.397 108.512C189.397 108.973 189.261 109.423 189.006 109.805C188.75 110.188 188.387 110.487 187.962 110.663C187.537 110.839 187.069 110.885 186.618 110.796C186.167 110.706 185.752 110.485 185.427 110.159C185.101 109.834 184.88 109.419 184.79 108.968C184.7 108.516 184.746 108.048 184.922 107.623C185.098 107.198 185.396 106.834 185.779 106.579C186.161 106.323 186.611 106.187 187.071 106.187C187.376 106.186 187.679 106.246 187.961 106.363C188.243 106.48 188.5 106.651 188.716 106.867C188.932 107.083 189.103 107.34 189.22 107.622C189.337 107.904 189.397 108.207 189.397 108.512Z" fill="#A2BADD"/>
<path id="Vector_81" d="M1349.16 310.082C1349.16 310.494 1349.04 310.897 1348.81 311.239C1348.58 311.581 1348.26 311.848 1347.88 312.006C1347.5 312.163 1347.08 312.205 1346.68 312.124C1346.27 312.044 1345.9 311.846 1345.61 311.554C1345.32 311.263 1345.12 310.892 1345.04 310.488C1344.96 310.084 1345 309.666 1345.16 309.285C1345.32 308.905 1345.58 308.58 1345.93 308.351C1346.27 308.122 1346.67 308 1347.08 308C1347.63 308 1348.16 308.219 1348.55 308.61C1348.94 309 1349.16 309.53 1349.16 310.082Z" fill="#A2BADD"/>
<path id="Vector_82" d="M1361.21 312.164C1362.36 312.164 1363.29 311.232 1363.29 310.082C1363.29 308.932 1362.36 308 1361.21 308C1360.06 308 1359.13 308.932 1359.13 310.082C1359.13 311.232 1360.06 312.164 1361.21 312.164Z" fill="#A2BADD"/>
<path id="Vector_83" d="M1377.42 310.082C1377.42 310.494 1377.3 310.897 1377.07 311.239C1376.84 311.582 1376.52 311.848 1376.14 312.006C1375.76 312.164 1375.34 312.205 1374.94 312.124C1374.53 312.044 1374.16 311.845 1373.87 311.554C1373.58 311.263 1373.38 310.892 1373.3 310.488C1373.22 310.084 1373.26 309.665 1373.42 309.285C1373.58 308.904 1373.84 308.579 1374.19 308.35C1374.53 308.122 1374.93 308 1375.34 308C1375.62 308 1375.89 308.054 1376.14 308.159C1376.39 308.263 1376.62 308.417 1376.81 308.61C1377.01 308.803 1377.16 309.033 1377.27 309.285C1377.37 309.538 1377.42 309.809 1377.42 310.082Z" fill="#A2BADD"/>
<path id="Vector_84" d="M1391.55 310.082C1391.55 310.494 1391.43 310.897 1391.2 311.239C1390.97 311.581 1390.65 311.848 1390.27 312.006C1389.89 312.163 1389.47 312.205 1389.07 312.124C1388.66 312.044 1388.29 311.846 1388 311.554C1387.71 311.263 1387.51 310.892 1387.43 310.488C1387.35 310.084 1387.39 309.666 1387.55 309.285C1387.71 308.905 1387.97 308.58 1388.32 308.351C1388.66 308.122 1389.06 308 1389.47 308C1389.75 308 1390.02 308.054 1390.27 308.158C1390.52 308.263 1390.75 308.416 1390.95 308.61C1391.14 308.803 1391.29 309.033 1391.4 309.285C1391.5 309.538 1391.55 309.809 1391.55 310.082Z" fill="#A2BADD"/>
<path id="Vector_85" d="M1403.6 312.164C1404.75 312.164 1405.69 311.232 1405.69 310.082C1405.69 308.932 1404.75 308 1403.6 308C1402.45 308 1401.52 308.932 1401.52 310.082C1401.52 311.232 1402.45 312.164 1403.6 312.164Z" fill="#A2BADD"/>
<path id="Vector_86" d="M1419.82 310.082C1419.82 310.494 1419.69 310.897 1419.47 311.239C1419.24 311.581 1418.91 311.848 1418.53 312.006C1418.15 312.163 1417.73 312.205 1417.33 312.124C1416.92 312.044 1416.55 311.846 1416.26 311.554C1415.97 311.263 1415.77 310.892 1415.69 310.488C1415.61 310.084 1415.65 309.666 1415.81 309.285C1415.97 308.905 1416.24 308.58 1416.58 308.351C1416.92 308.122 1417.32 308 1417.73 308C1418.29 308 1418.82 308.219 1419.21 308.61C1419.6 309 1419.82 309.53 1419.82 310.082Z" fill="#A2BADD"/>
<path id="Vector_87" d="M1433.95 310.082C1433.95 310.494 1433.82 310.897 1433.6 311.239C1433.37 311.581 1433.04 311.848 1432.66 312.006C1432.28 312.163 1431.86 312.205 1431.46 312.124C1431.06 312.044 1430.68 311.846 1430.39 311.554C1430.1 311.263 1429.9 310.892 1429.82 310.488C1429.74 310.084 1429.78 309.666 1429.94 309.285C1430.1 308.905 1430.37 308.58 1430.71 308.351C1431.05 308.122 1431.45 308 1431.87 308C1432.42 308 1432.95 308.219 1433.34 308.61C1433.73 309 1433.95 309.53 1433.95 310.082Z" fill="#A2BADD"/>
<path id="Vector_88" d="M1363.29 324.218C1363.29 324.629 1363.17 325.032 1362.94 325.374C1362.71 325.717 1362.39 325.984 1362.01 326.141C1361.63 326.299 1361.21 326.34 1360.81 326.26C1360.4 326.18 1360.03 325.981 1359.74 325.69C1359.45 325.399 1359.25 325.028 1359.17 324.624C1359.09 324.22 1359.13 323.801 1359.29 323.421C1359.45 323.04 1359.71 322.715 1360.06 322.486C1360.4 322.258 1360.8 322.135 1361.21 322.135C1361.76 322.136 1362.29 322.355 1362.68 322.746C1363.07 323.136 1363.29 323.666 1363.29 324.218Z" fill="#A2BADD"/>
<path id="Vector_89" d="M1377.42 324.218C1377.42 324.63 1377.3 325.032 1377.07 325.375C1376.84 325.717 1376.52 325.984 1376.14 326.141C1375.76 326.299 1375.34 326.34 1374.94 326.26C1374.53 326.179 1374.16 325.981 1373.87 325.69C1373.58 325.398 1373.38 325.027 1373.3 324.623C1373.22 324.219 1373.26 323.801 1373.42 323.42C1373.58 323.04 1373.84 322.715 1374.19 322.486C1374.53 322.257 1374.93 322.135 1375.34 322.135C1375.9 322.136 1376.42 322.355 1376.81 322.746C1377.2 323.136 1377.42 323.666 1377.42 324.218Z" fill="#A2BADD"/>
<path id="Vector_90" d="M1391.55 324.218C1391.55 324.629 1391.43 325.032 1391.2 325.374C1390.97 325.717 1390.65 325.984 1390.27 326.141C1389.89 326.299 1389.47 326.34 1389.07 326.26C1388.66 326.18 1388.29 325.981 1388 325.69C1387.71 325.399 1387.51 325.028 1387.43 324.624C1387.35 324.22 1387.39 323.801 1387.55 323.421C1387.71 323.04 1387.97 322.715 1388.32 322.486C1388.66 322.258 1389.06 322.135 1389.47 322.135C1390.02 322.135 1390.55 322.355 1390.94 322.745C1391.34 323.136 1391.55 323.665 1391.55 324.218Z" fill="#A2BADD"/>
<path id="Vector_91" d="M1405.69 324.218C1405.69 324.629 1405.56 325.032 1405.33 325.374C1405.11 325.717 1404.78 325.984 1404.4 326.141C1404.02 326.299 1403.6 326.34 1403.2 326.26C1402.79 326.18 1402.42 325.981 1402.13 325.69C1401.84 325.399 1401.64 325.028 1401.56 324.624C1401.48 324.22 1401.52 323.801 1401.68 323.421C1401.84 323.04 1402.11 322.715 1402.45 322.486C1402.79 322.258 1403.19 322.135 1403.6 322.135C1404.16 322.135 1404.69 322.355 1405.08 322.745C1405.47 323.136 1405.69 323.665 1405.69 324.218Z" fill="#A2BADD"/>
<path id="Vector_92" d="M1419.82 324.218C1419.82 324.629 1419.69 325.032 1419.47 325.374C1419.24 325.717 1418.91 325.984 1418.53 326.141C1418.15 326.299 1417.73 326.34 1417.33 326.26C1416.92 326.18 1416.55 325.981 1416.26 325.69C1415.97 325.399 1415.77 325.028 1415.69 324.624C1415.61 324.22 1415.65 323.801 1415.81 323.421C1415.97 323.04 1416.24 322.715 1416.58 322.486C1416.92 322.258 1417.32 322.135 1417.73 322.135C1418.29 322.136 1418.82 322.355 1419.21 322.746C1419.6 323.136 1419.82 323.666 1419.82 324.218Z" fill="#A2BADD"/>
<path id="Vector_93" d="M1433.95 324.218C1433.95 324.629 1433.82 325.032 1433.6 325.374C1433.37 325.717 1433.04 325.984 1432.66 326.141C1432.28 326.299 1431.86 326.34 1431.46 326.26C1431.06 326.18 1430.68 325.981 1430.39 325.69C1430.1 325.399 1429.9 325.028 1429.82 324.624C1429.74 324.22 1429.78 323.801 1429.94 323.421C1430.1 323.04 1430.37 322.715 1430.71 322.486C1431.05 322.258 1431.45 322.135 1431.87 322.135C1432.42 322.136 1432.95 322.355 1433.34 322.746C1433.73 323.136 1433.95 323.666 1433.95 324.218Z" fill="#A2BADD"/>
<path id="Vector_94" d="M1448.08 324.218C1448.08 324.63 1447.95 325.032 1447.73 325.375C1447.5 325.717 1447.17 325.984 1446.79 326.141C1446.41 326.299 1445.99 326.34 1445.59 326.26C1445.19 326.179 1444.81 325.981 1444.52 325.69C1444.23 325.398 1444.03 325.027 1443.95 324.623C1443.87 324.219 1443.92 323.801 1444.07 323.42C1444.23 323.04 1444.5 322.715 1444.84 322.486C1445.18 322.257 1445.58 322.135 1446 322.135C1446.55 322.136 1447.08 322.355 1447.47 322.746C1447.86 323.136 1448.08 323.666 1448.08 324.218Z" fill="#A2BADD"/>
<path id="Vector_95" d="M1451.64 872.824C1451.64 873.975 1451.3 875.1 1450.66 876.057C1450.02 877.014 1449.11 877.76 1448.04 878.2C1446.98 878.64 1445.81 878.755 1444.68 878.53C1443.55 878.305 1442.52 877.751 1441.7 876.937C1440.89 876.122 1440.34 875.085 1440.11 873.956C1439.89 872.827 1440 871.657 1440.44 870.593C1440.88 869.529 1441.63 868.62 1442.59 867.981C1443.54 867.341 1444.67 867 1445.82 867C1446.58 867 1447.34 867.151 1448.05 867.443C1448.75 867.736 1449.39 868.165 1449.93 868.706C1450.48 869.247 1450.9 869.889 1451.2 870.595C1451.49 871.302 1451.64 872.059 1451.64 872.824Z" stroke="#DFEAFC" stroke-miterlimit="10"/>
<path id="Vector_96" d="M1491.16 872.824C1491.16 873.975 1490.82 875.101 1490.18 876.059C1489.54 877.017 1488.63 877.763 1487.56 878.204C1486.5 878.645 1485.33 878.76 1484.2 878.535C1483.07 878.31 1482.03 877.756 1481.22 876.941C1480.4 876.127 1479.85 875.089 1479.63 873.96C1479.4 872.83 1479.52 871.659 1479.96 870.595C1480.4 869.531 1481.14 868.621 1482.1 867.981C1483.06 867.342 1484.18 867 1485.34 867C1486.88 867 1488.36 867.614 1489.45 868.706C1490.54 869.798 1491.16 871.279 1491.16 872.824Z" stroke="#DFEAFC" stroke-miterlimit="10"/>
<path id="Vector_97" d="M1530.67 872.824C1530.67 873.975 1530.33 875.101 1529.69 876.059C1529.05 877.017 1528.14 877.763 1527.08 878.204C1526.02 878.645 1524.84 878.76 1523.72 878.535C1522.59 878.31 1521.55 877.756 1520.73 876.941C1519.92 876.127 1519.37 875.089 1519.14 873.96C1518.92 872.83 1519.03 871.659 1519.47 870.595C1519.91 869.531 1520.66 868.621 1521.62 867.981C1522.57 867.342 1523.7 867 1524.85 867C1525.62 867 1526.37 867.15 1527.08 867.443C1527.79 867.735 1528.43 868.164 1528.97 868.705C1529.51 869.246 1529.94 869.888 1530.23 870.595C1530.52 871.301 1530.67 872.059 1530.67 872.824Z" stroke="#DFEAFC" stroke-miterlimit="10"/>
<path id="Vector_98" d="M1451.64 912.352C1451.64 913.504 1451.3 914.629 1450.66 915.586C1450.02 916.543 1449.11 917.289 1448.04 917.729C1446.98 918.169 1445.81 918.284 1444.68 918.059C1443.55 917.834 1442.52 917.28 1441.7 916.465C1440.89 915.651 1440.34 914.614 1440.11 913.485C1439.89 912.356 1440 911.185 1440.44 910.122C1440.88 909.058 1441.63 908.149 1442.59 907.51C1443.54 906.87 1444.67 906.529 1445.82 906.529C1446.58 906.529 1447.34 906.679 1448.05 906.972C1448.75 907.265 1449.39 907.694 1449.93 908.235C1450.48 908.775 1450.9 909.417 1451.2 910.124C1451.49 910.83 1451.64 911.588 1451.64 912.352Z" stroke="#DFEAFC" stroke-miterlimit="10"/>
<path id="Vector_99" d="M1491.16 912.352C1491.16 913.504 1490.82 914.63 1490.18 915.588C1489.54 916.545 1488.63 917.292 1487.56 917.733C1486.5 918.173 1485.33 918.289 1484.2 918.064C1483.07 917.839 1482.03 917.285 1481.22 916.47C1480.4 915.656 1479.85 914.618 1479.63 913.488C1479.4 912.359 1479.52 911.188 1479.96 910.124C1480.4 909.06 1481.14 908.15 1482.1 907.51C1483.06 906.87 1484.18 906.529 1485.34 906.529C1486.88 906.529 1488.36 907.142 1489.45 908.234C1490.54 909.327 1491.16 910.808 1491.16 912.352Z" stroke="#DFEAFC" stroke-miterlimit="10"/>
<path id="Vector_100" d="M1530.67 912.352C1530.67 913.504 1530.33 914.63 1529.69 915.588C1529.05 916.545 1528.14 917.292 1527.08 917.733C1526.02 918.173 1524.84 918.289 1523.72 918.064C1522.59 917.839 1521.55 917.285 1520.73 916.47C1519.92 915.656 1519.37 914.618 1519.14 913.488C1518.92 912.359 1519.03 911.188 1519.47 910.124C1519.91 909.06 1520.66 908.15 1521.62 907.51C1522.57 906.87 1523.7 906.529 1524.85 906.529C1525.62 906.529 1526.37 906.679 1527.08 906.971C1527.79 907.264 1528.43 907.693 1528.97 908.234C1529.51 908.775 1529.94 909.417 1530.23 910.123C1530.52 910.83 1530.67 911.587 1530.67 912.352Z" stroke="#DFEAFC" stroke-miterlimit="10"/>
<path id="Vector_101" d="M8.89156 766.882C9.68687 766.882 10.3316 766.236 10.3316 765.441C10.3316 764.645 9.68687 764 8.89156 764C8.09626 764 7.45154 764.645 7.45154 765.441C7.45154 766.236 8.09626 766.882 8.89156 766.882Z" fill="#4181E0"/>
<path id="Vector_102" d="M27.6747 766.882C28.47 766.882 29.1147 766.236 29.1147 765.441C29.1147 764.645 28.47 764 27.6747 764C26.8794 764 26.2346 764.645 26.2346 765.441C26.2346 766.236 26.8794 766.882 27.6747 766.882Z" fill="#4181E0"/>
<path id="Vector_103" d="M8.89156 785.511C9.68687 785.511 10.3316 784.865 10.3316 784.07C10.3316 783.274 9.68687 782.629 8.89156 782.629C8.09626 782.629 7.45154 783.274 7.45154 784.07C7.45154 784.865 8.09626 785.511 8.89156 785.511Z" fill="#4181E0"/>
<path id="Vector_104" d="M27.6747 785.511C28.47 785.511 29.1147 784.865 29.1147 784.07C29.1147 783.274 28.47 782.629 27.6747 782.629C26.8794 782.629 26.2346 783.274 26.2346 784.07C26.2346 784.865 26.8794 785.511 27.6747 785.511Z" fill="#4181E0"/>
<path id="Vector_105" d="M10.3316 802.699C10.3316 802.984 10.2471 803.262 10.0889 803.499C9.93067 803.736 9.70577 803.921 9.44264 804.03C9.17951 804.139 8.88996 804.167 8.61062 804.112C8.33129 804.056 8.07471 803.919 7.87331 803.718C7.67192 803.516 7.53477 803.259 7.47921 802.98C7.42364 802.7 7.45216 802.411 7.56115 802.147C7.67014 801.884 7.85471 801.659 8.09152 801.501C8.32833 801.342 8.60675 801.258 8.89156 801.258C9.27348 801.258 9.63976 801.41 9.90981 801.68C10.1799 801.95 10.3316 802.317 10.3316 802.699Z" fill="#4181E0"/>
<path id="Vector_106" d="M29.114 802.699C29.114 802.984 29.0295 803.262 28.8713 803.499C28.7131 803.736 28.4882 803.921 28.225 804.03C27.9619 804.139 27.6724 804.167 27.393 804.112C27.1137 804.056 26.8571 803.919 26.6557 803.718C26.4543 803.516 26.3172 803.259 26.2616 802.98C26.2061 802.7 26.2346 802.411 26.3436 802.147C26.4526 801.884 26.6371 801.659 26.8739 801.501C27.1108 801.342 27.3892 801.258 27.674 801.258C27.8631 801.258 28.0503 801.295 28.225 801.368C28.3998 801.44 28.5585 801.546 28.6922 801.68C28.8259 801.814 28.932 801.973 29.0044 802.147C29.0768 802.322 29.114 802.51 29.114 802.699Z" fill="#4181E0"/>
<path id="Vector_107" d="M10.3316 821.329C10.3314 821.614 10.2469 821.892 10.0886 822.129C9.93025 822.366 9.7053 822.551 9.44216 822.66C9.17902 822.769 8.8895 822.797 8.61021 822.741C8.33091 822.686 8.0744 822.548 7.87307 822.347C7.67175 822.145 7.53466 821.889 7.47916 821.609C7.42365 821.33 7.45221 821.04 7.56122 820.777C7.67023 820.514 7.8548 820.289 8.0916 820.13C8.32839 819.972 8.60678 819.888 8.89156 819.888C9.27354 819.888 9.63982 820.04 9.90985 820.31C10.1799 820.58 10.3316 820.947 10.3316 821.329Z" fill="#4181E0"/>
<path id="Vector_108" d="M29.114 821.329C29.1139 821.614 29.0293 821.892 28.871 822.129C28.7127 822.366 28.4877 822.551 28.2246 822.66C27.9614 822.769 27.6719 822.797 27.3926 822.741C27.1133 822.686 26.8568 822.548 26.6555 822.347C26.4542 822.145 26.3171 821.889 26.2616 821.609C26.2061 821.33 26.2346 821.04 26.3436 820.777C26.4526 820.514 26.6372 820.289 26.874 820.13C27.1108 819.972 27.3892 819.888 27.674 819.888C27.8631 819.888 28.0504 819.925 28.2252 819.997C28.4 820.07 28.5587 820.176 28.6925 820.31C28.8262 820.444 28.9323 820.603 29.0046 820.777C29.0769 820.952 29.1141 821.14 29.114 821.329Z" fill="#4181E0"/>
<path id="Vector_109" d="M44.2107 766.882C45.006 766.882 45.6507 766.236 45.6507 765.441C45.6507 764.645 45.006 764 44.2107 764C43.4154 764 42.7706 764.645 42.7706 765.441C42.7706 766.236 43.4154 766.882 44.2107 766.882Z" fill="#4181E0"/>
<path id="Vector_110" d="M62.9938 766.882C63.7891 766.882 64.4338 766.236 64.4338 765.441C64.4338 764.645 63.7891 764 62.9938 764C62.1985 764 61.5537 764.645 61.5537 765.441C61.5537 766.236 62.1985 766.882 62.9938 766.882Z" fill="#4181E0"/>
<path id="Vector_111" d="M81.7769 766.882C82.5722 766.882 83.2169 766.236 83.2169 765.441C83.2169 764.645 82.5722 764 81.7769 764C80.9816 764 80.3368 764.645 80.3368 765.441C80.3368 766.236 80.9816 766.882 81.7769 766.882Z" fill="#4181E0"/>
<path id="Vector_112" d="M100.56 766.882C101.355 766.882 102 766.236 102 765.441C102 764.645 101.355 764 100.56 764C99.7647 764 99.1199 764.645 99.1199 765.441C99.1199 766.236 99.7647 766.882 100.56 766.882Z" fill="#4181E0"/>
<path id="Vector_113" d="M44.2107 785.511C45.006 785.511 45.6507 784.865 45.6507 784.07C45.6507 783.274 45.006 782.629 44.2107 782.629C43.4154 782.629 42.7706 783.274 42.7706 784.07C42.7706 784.865 43.4154 785.511 44.2107 785.511Z" fill="#4181E0"/>
<path id="Vector_114" d="M62.9938 785.511C63.7891 785.511 64.4338 784.865 64.4338 784.07C64.4338 783.274 63.7891 782.629 62.9938 782.629C62.1985 782.629 61.5537 783.274 61.5537 784.07C61.5537 784.865 62.1985 785.511 62.9938 785.511Z" fill="#4181E0"/>
<path id="Vector_115" d="M81.7769 785.511C82.5722 785.511 83.2169 784.865 83.2169 784.07C83.2169 783.274 82.5722 782.629 81.7769 782.629C80.9816 782.629 80.3368 783.274 80.3368 784.07C80.3368 784.865 80.9816 785.511 81.7769 785.511Z" fill="#4181E0"/>
<path id="Vector_116" d="M100.56 785.511C101.355 785.511 102 784.865 102 784.07C102 783.274 101.355 782.629 100.56 782.629C99.7647 782.629 99.1199 783.274 99.1199 784.07C99.1199 784.865 99.7647 785.511 100.56 785.511Z" fill="#4181E0"/>
<path id="Vector_117" d="M45.6507 802.699C45.6507 802.984 45.5662 803.262 45.408 803.499C45.2498 803.736 45.0249 803.921 44.7617 804.03C44.4986 804.139 44.2091 804.167 43.9297 804.112C43.6504 804.056 43.3938 803.919 43.1924 803.718C42.991 803.516 42.8539 803.259 42.7983 802.98C42.7428 802.7 42.7713 802.411 42.8803 802.147C42.9893 801.884 43.1738 801.659 43.4106 801.501C43.6474 801.342 43.9259 801.258 44.2107 801.258C44.5926 801.258 44.9589 801.41 45.2289 801.68C45.499 801.95 45.6507 802.317 45.6507 802.699Z" fill="#4181E0"/>
<path id="Vector_118" d="M64.4337 802.699C64.4337 802.984 64.3492 803.262 64.191 803.499C64.0328 803.736 63.8079 803.921 63.5447 804.03C63.2816 804.139 62.9921 804.167 62.7127 804.112C62.4334 804.056 62.1768 803.919 61.9754 803.718C61.774 803.516 61.6369 803.259 61.5813 802.98C61.5258 802.7 61.5543 802.411 61.6633 802.147C61.7723 801.884 61.9568 801.659 62.1936 801.501C62.4304 801.342 62.7089 801.258 62.9937 801.258C63.3756 801.258 63.7419 801.41 64.0119 801.68C64.282 801.95 64.4337 802.317 64.4337 802.699Z" fill="#4181E0"/>
<path id="Vector_119" d="M83.2169 802.699C83.2169 802.984 83.1324 803.262 82.9742 803.499C82.816 803.736 82.5911 803.921 82.328 804.03C82.0648 804.139 81.7753 804.167 81.4959 804.112C81.2166 804.056 80.96 803.919 80.7586 803.718C80.5572 803.516 80.4201 803.259 80.3645 802.98C80.309 802.7 80.3375 802.411 80.4465 802.147C80.5555 801.884 80.74 801.659 80.9768 801.501C81.2137 801.342 81.4921 801.258 81.7769 801.258C82.1588 801.258 82.5251 801.41 82.7951 801.68C83.0652 801.95 83.2169 802.317 83.2169 802.699Z" fill="#4181E0"/>
<path id="Vector_120" d="M101.999 802.699C101.999 802.984 101.915 803.262 101.757 803.499C101.598 803.736 101.374 803.921 101.11 804.03C100.847 804.139 100.558 804.167 100.278 804.112C99.999 804.056 99.7424 803.919 99.541 803.718C99.3397 803.516 99.2025 803.259 99.147 802.98C99.0914 802.7 99.1199 802.411 99.2289 802.147C99.3379 801.884 99.5224 801.659 99.7593 801.501C99.9961 801.342 100.274 801.258 100.559 801.258C100.748 801.258 100.936 801.295 101.11 801.368C101.285 801.44 101.444 801.546 101.578 801.68C101.711 801.814 101.817 801.973 101.89 802.147C101.962 802.322 101.999 802.51 101.999 802.699Z" fill="#4181E0"/>
<path id="Vector_121" d="M45.6507 821.329C45.6506 821.614 45.566 821.892 45.4077 822.129C45.2494 822.366 45.0244 822.551 44.7613 822.66C44.4981 822.769 44.2086 822.797 43.9293 822.741C43.65 822.686 43.3935 822.548 43.1922 822.347C42.9909 822.145 42.8538 821.889 42.7983 821.609C42.7428 821.33 42.7713 821.04 42.8803 820.777C42.9893 820.514 43.1739 820.289 43.4107 820.13C43.6475 819.972 43.9259 819.888 44.2107 819.888C44.3998 819.888 44.5871 819.925 44.7619 819.997C44.9367 820.07 45.0954 820.176 45.2292 820.31C45.3629 820.444 45.4689 820.603 45.5413 820.777C45.6136 820.952 45.6508 821.14 45.6507 821.329Z" fill="#4181E0"/>
<path id="Vector_122" d="M64.4337 821.329C64.4336 821.614 64.349 821.892 64.1907 822.129C64.0324 822.366 63.8074 822.551 63.5443 822.66C63.2811 822.769 62.9916 822.797 62.7123 822.741C62.433 822.686 62.1765 822.548 61.9752 822.347C61.7739 822.145 61.6368 821.889 61.5813 821.609C61.5258 821.33 61.5543 821.04 61.6633 820.777C61.7723 820.514 61.9569 820.289 62.1937 820.13C62.4305 819.972 62.7089 819.888 62.9937 819.888C63.1828 819.888 63.3701 819.925 63.5449 819.997C63.7197 820.07 63.8784 820.176 64.0122 820.31C64.1459 820.444 64.2519 820.603 64.3243 820.777C64.3966 820.952 64.4338 821.14 64.4337 821.329Z" fill="#4181E0"/>
<path id="Vector_123" d="M83.2169 821.329C83.2168 821.614 83.1322 821.892 82.9739 822.129C82.8156 822.366 82.5906 822.551 82.3275 822.66C82.0643 822.769 81.7748 822.797 81.4955 822.741C81.2162 822.686 80.9597 822.548 80.7584 822.347C80.5571 822.145 80.42 821.889 80.3645 821.609C80.309 821.33 80.3375 821.04 80.4465 820.777C80.5555 820.514 80.7401 820.289 80.9769 820.13C81.2137 819.972 81.4921 819.888 81.7769 819.888C82.1589 819.888 82.5251 820.04 82.7952 820.31C83.0652 820.58 83.2169 820.947 83.2169 821.329Z" fill="#4181E0"/>
<path id="Vector_124" d="M101.999 821.329C101.999 821.614 101.915 821.892 101.756 822.129C101.598 822.366 101.373 822.551 101.11 822.66C100.847 822.769 100.557 822.797 100.278 822.741C99.9986 822.686 99.7421 822.548 99.5408 822.347C99.3395 822.145 99.2024 821.889 99.1469 821.609C99.0914 821.33 99.1199 821.04 99.2289 820.777C99.338 820.514 99.5225 820.289 99.7593 820.13C99.9961 819.972 100.275 819.888 100.559 819.888C100.748 819.888 100.936 819.925 101.111 819.997C101.285 820.07 101.444 820.176 101.578 820.31C101.712 820.444 101.818 820.603 101.89 820.777C101.962 820.952 101.999 821.14 101.999 821.329Z" fill="#4181E0"/>
<path id="Vector_125" d="M44.2107 839.997C45.006 839.997 45.6507 839.352 45.6507 838.556C45.6507 837.76 45.006 837.115 44.2107 837.115C43.4154 837.115 42.7706 837.76 42.7706 838.556C42.7706 839.352 43.4154 839.997 44.2107 839.997Z" fill="#4181E0"/>
<path id="Vector_126" d="M62.9938 839.997C63.7891 839.997 64.4338 839.352 64.4338 838.556C64.4338 837.76 63.7891 837.115 62.9938 837.115C62.1985 837.115 61.5537 837.76 61.5537 838.556C61.5537 839.352 62.1985 839.997 62.9938 839.997Z" fill="#4181E0"/>
<path id="Vector_127" d="M81.7769 839.997C82.5722 839.997 83.2169 839.352 83.2169 838.556C83.2169 837.76 82.5722 837.115 81.7769 837.115C80.9816 837.115 80.3368 837.76 80.3368 838.556C80.3368 839.352 80.9816 839.997 81.7769 839.997Z" fill="#4181E0"/>
<path id="Vector_128" d="M100.56 839.997C101.355 839.997 102 839.352 102 838.556C102 837.76 101.355 837.115 100.56 837.115C99.7647 837.115 99.1199 837.76 99.1199 838.556C99.1199 839.352 99.7647 839.997 100.56 839.997Z" fill="#4181E0"/>
<path id="Vector_129" d="M44.2107 858.626C45.006 858.626 45.6507 857.981 45.6507 857.185C45.6507 856.389 45.006 855.744 44.2107 855.744C43.4154 855.744 42.7706 856.389 42.7706 857.185C42.7706 857.981 43.4154 858.626 44.2107 858.626Z" fill="#4181E0"/>
<path id="Vector_130" d="M62.9938 858.626C63.7891 858.626 64.4338 857.981 64.4338 857.185C64.4338 856.389 63.7891 855.744 62.9938 855.744C62.1985 855.744 61.5537 856.389 61.5537 857.185C61.5537 857.981 62.1985 858.626 62.9938 858.626Z" fill="#4181E0"/>
<path id="Vector_131" d="M81.7769 858.626C82.5722 858.626 83.2169 857.981 83.2169 857.185C83.2169 856.389 82.5722 855.744 81.7769 855.744C80.9816 855.744 80.3368 856.389 80.3368 857.185C80.3368 857.981 80.9816 858.626 81.7769 858.626Z" fill="#4181E0"/>
<path id="Vector_132" d="M100.56 858.626C101.355 858.626 102 857.981 102 857.185C102 856.389 101.355 855.744 100.56 855.744C99.7647 855.744 99.1199 856.389 99.1199 857.185C99.1199 857.981 99.7647 858.626 100.56 858.626Z" fill="#4181E0"/>
<path id="Vector_133" d="M45.6507 875.814C45.6507 876.099 45.5662 876.378 45.408 876.615C45.2498 876.852 45.0249 877.036 44.7617 877.145C44.4986 877.254 44.2091 877.283 43.9297 877.227C43.6504 877.172 43.3938 877.034 43.1924 876.833C42.991 876.631 42.8539 876.375 42.7983 876.095C42.7427 875.816 42.7713 875.526 42.8802 875.263C42.9892 875 43.1738 874.775 43.4106 874.616C43.6474 874.458 43.9259 874.373 44.2107 874.373C44.5926 874.373 44.9589 874.525 45.2289 874.795C45.499 875.066 45.6507 875.432 45.6507 875.814Z" fill="#4181E0"/>
<path id="Vector_134" d="M64.4338 875.814C64.4338 876.099 64.3493 876.378 64.1911 876.615C64.0329 876.852 63.808 877.036 63.5448 877.145C63.2817 877.254 62.9922 877.283 62.7128 877.227C62.4335 877.172 62.1769 877.034 61.9755 876.833C61.7741 876.631 61.637 876.375 61.5814 876.095C61.5258 875.816 61.5544 875.526 61.6634 875.263C61.7723 875 61.9569 874.775 62.1937 874.616C62.4305 874.458 62.7089 874.373 62.9938 874.373C63.3757 874.373 63.7419 874.525 64.012 874.795C64.2821 875.066 64.4338 875.432 64.4338 875.814Z" fill="#4181E0"/>
<path id="Vector_135" d="M83.2169 875.814C83.2169 876.099 83.1324 876.378 82.9742 876.615C82.816 876.852 82.5911 877.036 82.3279 877.145C82.0648 877.254 81.7753 877.283 81.4959 877.227C81.2166 877.172 80.96 877.034 80.7586 876.833C80.5572 876.631 80.4201 876.375 80.3645 876.095C80.309 875.816 80.3375 875.526 80.4464 875.263C80.5554 875 80.74 874.775 80.9768 874.616C81.2136 874.458 81.4921 874.373 81.7769 874.373C82.1588 874.373 82.5251 874.525 82.7951 874.795C83.0652 875.066 83.2169 875.432 83.2169 875.814Z" fill="#4181E0"/>
<path id="Vector_136" d="M101.999 875.814C101.999 876.099 101.915 876.378 101.757 876.615C101.598 876.852 101.373 877.036 101.11 877.145C100.847 877.254 100.558 877.283 100.278 877.227C99.999 877.172 99.7424 877.034 99.541 876.833C99.3396 876.631 99.2025 876.375 99.1469 876.095C99.0914 875.816 99.1199 875.526 99.2289 875.263C99.3379 875 99.5224 874.775 99.7593 874.616C99.9961 874.458 100.274 874.373 100.559 874.373C100.748 874.373 100.936 874.411 101.11 874.483C101.285 874.555 101.444 874.662 101.578 874.795C101.711 874.929 101.817 875.088 101.89 875.263C101.962 875.438 101.999 875.625 101.999 875.814Z" fill="#4181E0"/>
<path id="Vector_137" d="M45.6507 894.444C45.6505 894.729 45.566 895.008 45.4077 895.245C45.2493 895.482 45.0244 895.666 44.7613 895.775C44.4981 895.884 44.2086 895.912 43.9293 895.857C43.65 895.801 43.3935 895.664 43.1922 895.462C42.9908 895.261 42.8538 895.004 42.7983 894.725C42.7427 894.445 42.7713 894.156 42.8803 893.892C42.9893 893.629 43.1739 893.404 43.4107 893.246C43.6475 893.088 43.9259 893.003 44.2107 893.003C44.3998 893.003 44.5871 893.04 44.7619 893.113C44.9366 893.185 45.0954 893.291 45.2291 893.425C45.3629 893.559 45.4689 893.718 45.5413 893.893C45.6136 894.068 45.6508 894.255 45.6507 894.444Z" fill="#4181E0"/>
<path id="Vector_138" d="M64.4338 894.444C64.4336 894.729 64.3491 895.008 64.1908 895.245C64.0324 895.482 63.8075 895.666 63.5444 895.775C63.2812 895.884 62.9917 895.912 62.7124 895.857C62.4331 895.801 62.1766 895.664 61.9753 895.462C61.7739 895.261 61.6369 895.004 61.5814 894.725C61.5258 894.445 61.5544 894.156 61.6634 893.892C61.7724 893.629 61.957 893.404 62.1938 893.246C62.4306 893.088 62.709 893.003 62.9938 893.003C63.1829 893.003 63.3702 893.04 63.545 893.113C63.7197 893.185 63.8785 893.291 64.0123 893.425C64.146 893.559 64.252 893.718 64.3244 893.893C64.3967 894.068 64.4339 894.255 64.4338 894.444Z" fill="#4181E0"/>
<path id="Vector_139" d="M83.2169 894.444C83.2167 894.729 83.1322 895.008 82.9739 895.245C82.8156 895.482 82.5906 895.666 82.3275 895.775C82.0643 895.884 81.7748 895.912 81.4955 895.857C81.2162 895.801 80.9597 895.664 80.7584 895.462C80.5571 895.261 80.42 895.004 80.3645 894.725C80.3089 894.445 80.3375 894.156 80.4465 893.892C80.5555 893.629 80.7401 893.404 80.9769 893.246C81.2137 893.088 81.4921 893.003 81.7769 893.003C82.1589 893.003 82.5251 893.155 82.7951 893.425C83.0652 893.696 83.2169 894.062 83.2169 894.444Z" fill="#4181E0"/>
<path id="Vector_140" d="M101.999 894.444C101.999 894.729 101.915 895.008 101.756 895.245C101.598 895.482 101.373 895.666 101.11 895.775C100.847 895.884 100.557 895.912 100.278 895.857C99.9986 895.801 99.7421 895.664 99.5408 895.462C99.3395 895.261 99.2024 895.004 99.1469 894.725C99.0914 894.445 99.1199 894.156 99.2289 893.892C99.338 893.629 99.5225 893.404 99.7593 893.246C99.9961 893.088 100.275 893.003 100.559 893.003C100.748 893.003 100.936 893.04 101.111 893.113C101.285 893.185 101.444 893.291 101.578 893.425C101.712 893.559 101.818 893.718 101.89 893.893C101.962 894.068 101.999 894.255 101.999 894.444Z" fill="#4181E0"/>
<path id="Vector_141" d="M8.89156 839.997C9.68687 839.997 10.3316 839.352 10.3316 838.556C10.3316 837.76 9.68687 837.115 8.89156 837.115C8.09626 837.115 7.45154 837.76 7.45154 838.556C7.45154 839.352 8.09626 839.997 8.89156 839.997Z" fill="#4181E0"/>
<path id="Vector_142" d="M27.6747 839.997C28.47 839.997 29.1147 839.352 29.1147 838.556C29.1147 837.76 28.47 837.115 27.6747 837.115C26.8794 837.115 26.2346 837.76 26.2346 838.556C26.2346 839.352 26.8794 839.997 27.6747 839.997Z" fill="#4181E0"/>
<path id="Vector_143" d="M8.89156 858.626C9.68687 858.626 10.3316 857.981 10.3316 857.185C10.3316 856.389 9.68687 855.744 8.89156 855.744C8.09626 855.744 7.45154 856.389 7.45154 857.185C7.45154 857.981 8.09626 858.626 8.89156 858.626Z" fill="#4181E0"/>
<path id="Vector_144" d="M27.6747 858.626C28.47 858.626 29.1147 857.981 29.1147 857.185C29.1147 856.389 28.47 855.744 27.6747 855.744C26.8794 855.744 26.2346 856.389 26.2346 857.185C26.2346 857.981 26.8794 858.626 27.6747 858.626Z" fill="#4181E0"/>
<path id="Vector_145" d="M10.3316 875.814C10.3316 876.099 10.2471 876.378 10.0889 876.615C9.93067 876.852 9.70577 877.036 9.44264 877.145C9.17951 877.254 8.88996 877.283 8.61062 877.227C8.33129 877.172 8.07471 877.034 7.87331 876.833C7.67192 876.631 7.53477 876.375 7.47921 876.095C7.42364 875.816 7.45216 875.526 7.56115 875.263C7.67014 875 7.85471 874.775 8.09152 874.616C8.32833 874.458 8.60675 874.373 8.89156 874.373C9.27348 874.373 9.63976 874.525 9.90981 874.795C10.1799 875.066 10.3316 875.432 10.3316 875.814Z" fill="#4181E0"/>
<path id="Vector_146" d="M29.114 875.814C29.114 876.099 29.0295 876.378 28.8713 876.615C28.7131 876.852 28.4882 877.036 28.225 877.145C27.9619 877.254 27.6724 877.283 27.393 877.227C27.1137 877.172 26.8571 877.034 26.6557 876.833C26.4543 876.631 26.3172 876.375 26.2616 876.095C26.2061 875.816 26.2346 875.526 26.3436 875.263C26.4526 875 26.6371 874.775 26.8739 874.616C27.1108 874.458 27.3892 874.373 27.674 874.373C27.8631 874.373 28.0503 874.411 28.225 874.483C28.3998 874.555 28.5585 874.662 28.6922 874.795C28.8259 874.929 28.932 875.088 29.0044 875.263C29.0768 875.438 29.114 875.625 29.114 875.814Z" fill="#4181E0"/>
<path id="Vector_147" d="M10.3316 894.444C10.3314 894.729 10.2469 895.008 10.0886 895.245C9.93025 895.482 9.7053 895.666 9.44216 895.775C9.17902 895.884 8.8895 895.912 8.61021 895.857C8.33091 895.801 8.0744 895.664 7.87307 895.462C7.67175 895.261 7.53466 895.004 7.47916 894.725C7.42365 894.445 7.45221 894.156 7.56122 893.892C7.67023 893.629 7.8548 893.404 8.0916 893.246C8.32839 893.088 8.60678 893.003 8.89156 893.003C9.27354 893.003 9.63982 893.155 9.90985 893.425C10.1799 893.696 10.3316 894.062 10.3316 894.444Z" fill="#4181E0"/>
<path id="Vector_148" d="M29.114 894.444C29.1139 894.729 29.0293 895.008 28.871 895.245C28.7127 895.482 28.4877 895.666 28.2246 895.775C27.9614 895.884 27.6719 895.912 27.3926 895.857C27.1133 895.801 26.8568 895.664 26.6555 895.462C26.4542 895.261 26.3171 895.004 26.2616 894.725C26.2061 894.445 26.2346 894.156 26.3436 893.892C26.4526 893.629 26.6372 893.404 26.874 893.246C27.1108 893.088 27.3892 893.003 27.674 893.003C27.8631 893.003 28.0504 893.04 28.2252 893.113C28.4 893.185 28.5587 893.291 28.6925 893.425C28.8262 893.559 28.9323 893.718 29.0046 893.893C29.0769 894.068 29.1141 894.255 29.114 894.444Z" fill="#4181E0"/>
<path id="Vector_149" d="M8.89156 913.112C9.68687 913.112 10.3316 912.467 10.3316 911.672C10.3316 910.876 9.68687 910.231 8.89156 910.231C8.09626 910.231 7.45154 910.876 7.45154 911.672C7.45154 912.467 8.09626 913.112 8.89156 913.112Z" fill="#4181E0"/>
<path id="Vector_150" d="M27.6747 913.112C28.47 913.112 29.1147 912.467 29.1147 911.672C29.1147 910.876 28.47 910.231 27.6747 910.231C26.8794 910.231 26.2346 910.876 26.2346 911.672C26.2346 912.467 26.8794 913.112 27.6747 913.112Z" fill="#4181E0"/>
<path id="Vector_151" d="M8.89156 931.741C9.68687 931.741 10.3316 931.096 10.3316 930.301C10.3316 929.505 9.68687 928.86 8.89156 928.86C8.09626 928.86 7.45154 929.505 7.45154 930.301C7.45154 931.096 8.09626 931.741 8.89156 931.741Z" fill="#4181E0"/>
<path id="Vector_152" d="M27.6747 931.741C28.47 931.741 29.1147 931.096 29.1147 930.301C29.1147 929.505 28.47 928.86 27.6747 928.86C26.8794 928.86 26.2346 929.505 26.2346 930.301C26.2346 931.096 26.8794 931.741 27.6747 931.741Z" fill="#4181E0"/>
<path id="Vector_153" d="M44.2107 913.112C45.006 913.112 45.6507 912.467 45.6507 911.672C45.6507 910.876 45.006 910.231 44.2107 910.231C43.4154 910.231 42.7706 910.876 42.7706 911.672C42.7706 912.467 43.4154 913.112 44.2107 913.112Z" fill="#4181E0"/>
<path id="Vector_154" d="M62.9938 913.112C63.7891 913.112 64.4338 912.467 64.4338 911.672C64.4338 910.876 63.7891 910.231 62.9938 910.231C62.1985 910.231 61.5537 910.876 61.5537 911.672C61.5537 912.467 62.1985 913.112 62.9938 913.112Z" fill="#4181E0"/>
<path id="Vector_155" d="M81.7769 913.112C82.5722 913.112 83.2169 912.467 83.2169 911.672C83.2169 910.876 82.5722 910.231 81.7769 910.231C80.9816 910.231 80.3368 910.876 80.3368 911.672C80.3368 912.467 80.9816 913.112 81.7769 913.112Z" fill="#4181E0"/>
<path id="Vector_156" d="M100.56 913.112C101.355 913.112 102 912.467 102 911.672C102 910.876 101.355 910.231 100.56 910.231C99.7647 910.231 99.1199 910.876 99.1199 911.672C99.1199 912.467 99.7647 913.112 100.56 913.112Z" fill="#4181E0"/>
<path id="Vector_157" d="M44.2107 931.741C45.006 931.741 45.6507 931.096 45.6507 930.301C45.6507 929.505 45.006 928.86 44.2107 928.86C43.4154 928.86 42.7706 929.505 42.7706 930.301C42.7706 931.096 43.4154 931.741 44.2107 931.741Z" fill="#4181E0"/>
<path id="Vector_158" d="M62.9938 931.741C63.7891 931.741 64.4338 931.096 64.4338 930.301C64.4338 929.505 63.7891 928.86 62.9938 928.86C62.1985 928.86 61.5537 929.505 61.5537 930.301C61.5537 931.096 62.1985 931.741 62.9938 931.741Z" fill="#4181E0"/>
<path id="Vector_159" d="M81.7769 931.741C82.5722 931.741 83.2169 931.096 83.2169 930.301C83.2169 929.505 82.5722 928.86 81.7769 928.86C80.9816 928.86 80.3368 929.505 80.3368 930.301C80.3368 931.096 80.9816 931.741 81.7769 931.741Z" fill="#4181E0"/>
<path id="Vector_160" d="M100.56 931.741C101.355 931.741 102 931.096 102 930.301C102 929.505 101.355 928.86 100.56 928.86C99.7647 928.86 99.1199 929.505 99.1199 930.301C99.1199 931.096 99.7647 931.741 100.56 931.741Z" fill="#4181E0"/>
<path id="Vector_161" d="M1846.85 312.218C1848.02 312.218 1848.96 311.274 1848.96 310.109C1848.96 308.944 1848.02 308 1846.85 308C1845.69 308 1844.75 308.944 1844.75 310.109C1844.75 311.274 1845.69 312.218 1846.85 312.218Z" fill="#4181E0" fill-opacity="0.34"/>
<path id="Vector_162" d="M1874.36 312.218C1875.53 312.218 1876.47 311.274 1876.47 310.109C1876.47 308.944 1875.53 308 1874.36 308C1873.2 308 1872.25 308.944 1872.25 310.109C1872.25 311.274 1873.2 312.218 1874.36 312.218Z" fill="#4181E0" fill-opacity="0.34"/>
<path id="Vector_163" d="M1901.87 312.218C1903.04 312.218 1903.98 311.274 1903.98 310.109C1903.98 308.944 1903.04 308 1901.87 308C1900.71 308 1899.76 308.944 1899.76 310.109C1899.76 311.274 1900.71 312.218 1901.87 312.218Z" fill="#4181E0" fill-opacity="0.34"/>
<path id="Vector_164" d="M1846.85 339.487C1848.02 339.487 1848.96 338.543 1848.96 337.378C1848.96 336.213 1848.02 335.269 1846.85 335.269C1845.69 335.269 1844.75 336.213 1844.75 337.378C1844.75 338.543 1845.69 339.487 1846.85 339.487Z" fill="#4181E0" fill-opacity="0.34"/>
<path id="Vector_165" d="M1874.36 339.487C1875.53 339.487 1876.47 338.543 1876.47 337.378C1876.47 336.213 1875.53 335.269 1874.36 335.269C1873.2 335.269 1872.25 336.213 1872.25 337.378C1872.25 338.543 1873.2 339.487 1874.36 339.487Z" fill="#4181E0" fill-opacity="0.34"/>
<path id="Vector_166" d="M1901.87 339.487C1903.04 339.487 1903.98 338.543 1903.98 337.378C1903.98 336.213 1903.04 335.269 1901.87 335.269C1900.71 335.269 1899.76 336.213 1899.76 337.378C1899.76 338.543 1900.71 339.487 1901.87 339.487Z" fill="#4181E0" fill-opacity="0.34"/>
<path id="Vector_167" d="M1848.96 364.647C1848.96 365.064 1848.84 365.472 1848.61 365.819C1848.38 366.166 1848.05 366.436 1847.66 366.595C1847.28 366.755 1846.85 366.797 1846.44 366.715C1846.03 366.634 1845.66 366.433 1845.36 366.138C1845.07 365.843 1844.87 365.468 1844.79 365.058C1844.7 364.649 1844.75 364.225 1844.91 363.84C1845.07 363.455 1845.34 363.125 1845.68 362.893C1846.03 362.662 1846.44 362.538 1846.85 362.538C1847.41 362.538 1847.95 362.76 1848.35 363.156C1848.74 363.551 1848.96 364.088 1848.96 364.647Z" fill="#4181E0" fill-opacity="0.34"/>
<path id="Vector_168" d="M1876.47 364.647C1876.47 365.064 1876.35 365.472 1876.12 365.819C1875.88 366.166 1875.56 366.436 1875.17 366.595C1874.78 366.755 1874.36 366.797 1873.95 366.715C1873.54 366.634 1873.17 366.433 1872.87 366.138C1872.58 365.843 1872.38 365.468 1872.29 365.058C1872.21 364.649 1872.25 364.225 1872.41 363.84C1872.57 363.455 1872.84 363.125 1873.19 362.893C1873.54 362.662 1873.95 362.538 1874.36 362.538C1874.92 362.538 1875.46 362.76 1875.85 363.156C1876.25 363.551 1876.47 364.088 1876.47 364.647Z" fill="#4181E0" fill-opacity="0.34"/>
<path id="Vector_169" d="M1903.98 364.647C1903.98 365.064 1903.86 365.472 1903.63 365.819C1903.39 366.166 1903.06 366.436 1902.68 366.595C1902.29 366.755 1901.87 366.797 1901.46 366.715C1901.05 366.634 1900.68 366.433 1900.38 366.138C1900.09 365.843 1899.88 365.468 1899.8 365.058C1899.72 364.649 1899.76 364.225 1899.92 363.84C1900.08 363.455 1900.35 363.125 1900.7 362.893C1901.05 362.662 1901.45 362.538 1901.87 362.538C1902.43 362.538 1902.97 362.76 1903.36 363.156C1903.76 363.551 1903.98 364.088 1903.98 364.647Z" fill="#4181E0" fill-opacity="0.34"/>
<path id="Vector_170" d="M1848.96 391.918C1848.96 392.335 1848.84 392.743 1848.61 393.089C1848.38 393.436 1848.05 393.706 1847.66 393.866C1847.28 394.025 1846.85 394.067 1846.44 393.985C1846.03 393.904 1845.66 393.703 1845.36 393.408C1845.07 393.113 1844.87 392.737 1844.79 392.328C1844.7 391.919 1844.75 391.495 1844.91 391.11C1845.07 390.724 1845.34 390.395 1845.68 390.163C1846.03 389.932 1846.44 389.808 1846.85 389.808C1847.13 389.808 1847.41 389.863 1847.66 389.969C1847.92 390.075 1848.15 390.23 1848.35 390.426C1848.54 390.622 1848.7 390.855 1848.8 391.111C1848.91 391.367 1848.96 391.641 1848.96 391.918Z" fill="#4181E0" fill-opacity="0.34"/>
<path id="Vector_171" d="M1876.47 391.918C1876.47 392.335 1876.35 392.743 1876.12 393.089C1875.88 393.436 1875.55 393.706 1875.17 393.866C1874.78 394.025 1874.36 394.067 1873.95 393.985C1873.54 393.904 1873.17 393.703 1872.87 393.408C1872.58 393.113 1872.38 392.737 1872.29 392.328C1872.21 391.919 1872.25 391.495 1872.41 391.11C1872.57 390.724 1872.84 390.395 1873.19 390.163C1873.54 389.932 1873.95 389.808 1874.36 389.808C1874.64 389.808 1874.91 389.863 1875.17 389.969C1875.43 390.075 1875.66 390.23 1875.85 390.426C1876.05 390.622 1876.21 390.855 1876.31 391.111C1876.42 391.367 1876.47 391.641 1876.47 391.918Z" fill="#4181E0" fill-opacity="0.34"/>
<path id="Vector_172" d="M1903.98 391.918C1903.98 392.335 1903.86 392.743 1903.63 393.089C1903.39 393.436 1903.06 393.706 1902.68 393.866C1902.29 394.025 1901.87 394.067 1901.46 393.985C1901.05 393.904 1900.68 393.703 1900.38 393.408C1900.09 393.113 1899.88 392.737 1899.8 392.328C1899.72 391.919 1899.76 391.495 1899.92 391.11C1900.08 390.724 1900.35 390.395 1900.7 390.163C1901.05 389.932 1901.45 389.808 1901.87 389.808C1902.43 389.808 1902.97 390.031 1903.36 390.426C1903.76 390.822 1903.98 391.359 1903.98 391.918Z" fill="#4181E0" fill-opacity="0.34"/>
<path id="Vector_173" d="M1740.11 312.218C1741.27 312.218 1742.22 311.274 1742.22 310.109C1742.22 308.944 1741.27 308 1740.11 308C1738.94 308 1738 308.944 1738 310.109C1738 311.274 1738.94 312.218 1740.11 312.218Z" fill="#4181E0" fill-opacity="0.34"/>
<path id="Vector_174" d="M1767.62 312.218C1768.78 312.218 1769.73 311.274 1769.73 310.109C1769.73 308.944 1768.78 308 1767.62 308C1766.45 308 1765.51 308.944 1765.51 310.109C1765.51 311.274 1766.45 312.218 1767.62 312.218Z" fill="#4181E0" fill-opacity="0.34"/>
<path id="Vector_175" d="M1795.13 312.218C1796.29 312.218 1797.24 311.274 1797.24 310.109C1797.24 308.944 1796.29 308 1795.13 308C1793.96 308 1793.02 308.944 1793.02 310.109C1793.02 311.274 1793.96 312.218 1795.13 312.218Z" fill="#4181E0" fill-opacity="0.34"/>
<path id="Vector_176" d="M1822.64 312.218C1823.8 312.218 1824.75 311.274 1824.75 310.109C1824.75 308.944 1823.8 308 1822.64 308C1821.47 308 1820.53 308.944 1820.53 310.109C1820.53 311.274 1821.47 312.218 1822.64 312.218Z" fill="#4181E0" fill-opacity="0.34"/>
<path id="Vector_177" d="M1740.11 339.487C1741.27 339.487 1742.22 338.543 1742.22 337.378C1742.22 336.213 1741.27 335.269 1740.11 335.269C1738.94 335.269 1738 336.213 1738 337.378C1738 338.543 1738.94 339.487 1740.11 339.487Z" fill="#4181E0" fill-opacity="0.34"/>
<path id="Vector_178" d="M1767.62 339.487C1768.78 339.487 1769.73 338.543 1769.73 337.378C1769.73 336.213 1768.78 335.269 1767.62 335.269C1766.45 335.269 1765.51 336.213 1765.51 337.378C1765.51 338.543 1766.45 339.487 1767.62 339.487Z" fill="#4181E0" fill-opacity="0.34"/>
<path id="Vector_179" d="M1795.13 339.487C1796.29 339.487 1797.24 338.543 1797.24 337.378C1797.24 336.213 1796.29 335.269 1795.13 335.269C1793.96 335.269 1793.02 336.213 1793.02 337.378C1793.02 338.543 1793.96 339.487 1795.13 339.487Z" fill="#4181E0" fill-opacity="0.34"/>
<path id="Vector_180" d="M1822.64 339.487C1823.8 339.487 1824.75 338.543 1824.75 337.378C1824.75 336.213 1823.8 335.269 1822.64 335.269C1821.47 335.269 1820.53 336.213 1820.53 337.378C1820.53 338.543 1821.47 339.487 1822.64 339.487Z" fill="#4181E0" fill-opacity="0.34"/>
<path id="Vector_181" d="M1742.22 364.647C1742.22 365.064 1742.09 365.472 1741.86 365.819C1741.63 366.166 1741.3 366.436 1740.92 366.595C1740.53 366.755 1740.11 366.797 1739.7 366.715C1739.29 366.634 1738.91 366.433 1738.62 366.138C1738.32 365.843 1738.12 365.468 1738.04 365.058C1737.96 364.649 1738 364.225 1738.16 363.84C1738.32 363.455 1738.59 363.125 1738.94 362.893C1739.28 362.662 1739.69 362.538 1740.11 362.538C1740.67 362.538 1741.2 362.76 1741.6 363.156C1742 363.551 1742.22 364.088 1742.22 364.647Z" fill="#4181E0" fill-opacity="0.34"/>
<path id="Vector_182" d="M1769.73 364.647C1769.73 365.064 1769.6 365.472 1769.37 365.819C1769.14 366.166 1768.81 366.436 1768.43 366.595C1768.04 366.755 1767.62 366.797 1767.21 366.715C1766.8 366.634 1766.42 366.433 1766.13 366.138C1765.83 365.843 1765.63 365.468 1765.55 365.058C1765.47 364.649 1765.51 364.225 1765.67 363.84C1765.83 363.455 1766.1 363.125 1766.45 362.893C1766.79 362.662 1767.2 362.538 1767.62 362.538C1768.18 362.538 1768.71 362.76 1769.11 363.156C1769.5 363.551 1769.73 364.088 1769.73 364.647Z" fill="#4181E0" fill-opacity="0.34"/>
<path id="Vector_183" d="M1797.24 364.647C1797.24 365.064 1797.11 365.472 1796.88 365.819C1796.65 366.166 1796.32 366.436 1795.93 366.595C1795.55 366.755 1795.12 366.797 1794.72 366.715C1794.31 366.634 1793.93 366.433 1793.64 366.138C1793.34 365.843 1793.14 365.468 1793.06 365.058C1792.98 364.649 1793.02 364.225 1793.18 363.84C1793.34 363.455 1793.61 363.125 1793.96 362.893C1794.3 362.662 1794.71 362.538 1795.13 362.538C1795.69 362.538 1796.22 362.76 1796.62 363.156C1797.01 363.551 1797.24 364.088 1797.24 364.647Z" fill="#4181E0" fill-opacity="0.34"/>
<path id="Vector_184" d="M1824.74 364.647C1824.74 365.064 1824.62 365.472 1824.39 365.819C1824.16 366.166 1823.83 366.436 1823.44 366.595C1823.06 366.755 1822.63 366.797 1822.22 366.715C1821.81 366.634 1821.44 366.433 1821.14 366.138C1820.85 365.843 1820.65 365.468 1820.57 365.058C1820.49 364.649 1820.53 364.225 1820.69 363.84C1820.85 363.455 1821.12 363.125 1821.46 362.893C1821.81 362.662 1822.22 362.538 1822.63 362.538C1822.91 362.538 1823.19 362.593 1823.44 362.699C1823.7 362.805 1823.93 362.96 1824.13 363.156C1824.32 363.352 1824.48 363.584 1824.58 363.84C1824.69 364.096 1824.74 364.37 1824.74 364.647Z" fill="#4181E0" fill-opacity="0.34"/>
<path id="Vector_185" d="M1742.22 391.918C1742.22 392.335 1742.09 392.743 1741.86 393.089C1741.63 393.436 1741.3 393.706 1740.92 393.866C1740.53 394.025 1740.11 394.067 1739.7 393.985C1739.29 393.904 1738.91 393.703 1738.62 393.408C1738.32 393.113 1738.12 392.737 1738.04 392.328C1737.96 391.919 1738 391.495 1738.16 391.11C1738.32 390.724 1738.59 390.395 1738.94 390.163C1739.28 389.932 1739.69 389.808 1740.11 389.808C1740.39 389.808 1740.66 389.863 1740.92 389.969C1741.17 390.075 1741.4 390.23 1741.6 390.426C1741.8 390.622 1741.95 390.855 1742.06 391.111C1742.16 391.367 1742.22 391.641 1742.22 391.918Z" fill="#4181E0" fill-opacity="0.34"/>
<path id="Vector_186" d="M1769.73 391.918C1769.73 392.335 1769.6 392.743 1769.37 393.089C1769.14 393.436 1768.81 393.706 1768.42 393.866C1768.04 394.025 1767.61 394.067 1767.21 393.985C1766.8 393.904 1766.42 393.703 1766.13 393.408C1765.83 393.113 1765.63 392.737 1765.55 392.328C1765.47 391.919 1765.51 391.495 1765.67 391.11C1765.83 390.724 1766.1 390.395 1766.45 390.163C1766.79 389.932 1767.2 389.808 1767.62 389.808C1767.9 389.808 1768.17 389.863 1768.43 389.969C1768.68 390.075 1768.91 390.23 1769.11 390.426C1769.31 390.622 1769.46 390.855 1769.57 391.111C1769.67 391.367 1769.73 391.641 1769.73 391.918Z" fill="#4181E0" fill-opacity="0.34"/>
<path id="Vector_187" d="M1797.24 391.918C1797.24 392.335 1797.11 392.743 1796.88 393.089C1796.65 393.436 1796.32 393.706 1795.93 393.866C1795.55 394.025 1795.12 394.067 1794.71 393.985C1794.31 393.904 1793.93 393.703 1793.64 393.408C1793.34 393.113 1793.14 392.737 1793.06 392.328C1792.98 391.919 1793.02 391.495 1793.18 391.11C1793.34 390.724 1793.61 390.395 1793.96 390.163C1794.3 389.932 1794.71 389.808 1795.13 389.808C1795.69 389.808 1796.22 390.031 1796.62 390.426C1797.01 390.822 1797.24 391.359 1797.24 391.918Z" fill="#4181E0" fill-opacity="0.34"/>
<path id="Vector_188" d="M1824.74 391.918C1824.74 392.335 1824.62 392.743 1824.39 393.089C1824.16 393.436 1823.83 393.706 1823.44 393.866C1823.06 394.025 1822.63 394.067 1822.22 393.985C1821.81 393.904 1821.44 393.703 1821.14 393.408C1820.85 393.113 1820.65 392.737 1820.57 392.328C1820.49 391.919 1820.53 391.495 1820.69 391.11C1820.85 390.724 1821.12 390.395 1821.46 390.163C1821.81 389.932 1822.22 389.808 1822.64 389.808C1822.91 389.808 1823.19 389.863 1823.44 389.969C1823.7 390.075 1823.93 390.23 1824.13 390.426C1824.32 390.622 1824.48 390.855 1824.58 391.111C1824.69 391.367 1824.74 391.641 1824.74 391.918Z" fill="#4181E0" fill-opacity="0.34"/>
<path id="Vector_189" d="M1740.11 419.244C1741.27 419.244 1742.22 418.3 1742.22 417.135C1742.22 415.97 1741.27 415.026 1740.11 415.026C1738.94 415.026 1738 415.97 1738 417.135C1738 418.3 1738.94 419.244 1740.11 419.244Z" fill="#4181E0" fill-opacity="0.34"/>
<path id="Vector_190" d="M1767.62 419.244C1768.78 419.244 1769.73 418.3 1769.73 417.135C1769.73 415.97 1768.78 415.026 1767.62 415.026C1766.45 415.026 1765.51 415.97 1765.51 417.135C1765.51 418.3 1766.45 419.244 1767.62 419.244Z" fill="#4181E0" fill-opacity="0.34"/>
<path id="Vector_191" d="M1795.13 419.244C1796.29 419.244 1797.24 418.3 1797.24 417.135C1797.24 415.97 1796.29 415.026 1795.13 415.026C1793.96 415.026 1793.02 415.97 1793.02 417.135C1793.02 418.3 1793.96 419.244 1795.13 419.244Z" fill="#4181E0" fill-opacity="0.34"/>
<path id="Vector_192" d="M1822.64 419.244C1823.8 419.244 1824.75 418.3 1824.75 417.135C1824.75 415.97 1823.8 415.026 1822.64 415.026C1821.47 415.026 1820.53 415.97 1820.53 417.135C1820.53 418.3 1821.47 419.244 1822.64 419.244Z" fill="#4181E0" fill-opacity="0.34"/>
<path id="Vector_193" d="M1740.11 446.513C1741.27 446.513 1742.22 445.569 1742.22 444.404C1742.22 443.239 1741.27 442.295 1740.11 442.295C1738.94 442.295 1738 443.239 1738 444.404C1738 445.569 1738.94 446.513 1740.11 446.513Z" fill="#4181E0" fill-opacity="0.34"/>
<path id="Vector_194" d="M1767.62 446.513C1768.78 446.513 1769.73 445.569 1769.73 444.404C1769.73 443.239 1768.78 442.295 1767.62 442.295C1766.45 442.295 1765.51 443.239 1765.51 444.404C1765.51 445.569 1766.45 446.513 1767.62 446.513Z" fill="#4181E0" fill-opacity="0.34"/>
<path id="Vector_195" d="M1795.13 446.513C1796.29 446.513 1797.24 445.569 1797.24 444.404C1797.24 443.239 1796.29 442.295 1795.13 442.295C1793.96 442.295 1793.02 443.239 1793.02 444.404C1793.02 445.569 1793.96 446.513 1795.13 446.513Z" fill="#4181E0" fill-opacity="0.34"/>
<path id="Vector_196" d="M1822.64 446.513C1823.8 446.513 1824.75 445.569 1824.75 444.404C1824.75 443.239 1823.8 442.295 1822.64 442.295C1821.47 442.295 1820.53 443.239 1820.53 444.404C1820.53 445.569 1821.47 446.513 1822.64 446.513Z" fill="#4181E0" fill-opacity="0.34"/>
<path id="Vector_197" d="M1742.22 471.673C1742.22 472.09 1742.09 472.498 1741.86 472.845C1741.63 473.192 1741.3 473.462 1740.92 473.621C1740.53 473.781 1740.11 473.823 1739.7 473.741C1739.29 473.66 1738.91 473.459 1738.62 473.164C1738.32 472.869 1738.12 472.494 1738.04 472.084C1737.96 471.675 1738 471.251 1738.16 470.866C1738.32 470.481 1738.59 470.151 1738.94 469.919C1739.28 469.688 1739.69 469.564 1740.11 469.564C1740.67 469.564 1741.2 469.786 1741.6 470.182C1742 470.577 1742.22 471.114 1742.22 471.673Z" fill="#4181E0" fill-opacity="0.34"/>
<path id="Vector_198" d="M1769.73 471.673C1769.73 472.09 1769.6 472.498 1769.37 472.845C1769.14 473.192 1768.81 473.462 1768.43 473.621C1768.04 473.781 1767.62 473.823 1767.21 473.741C1766.8 473.66 1766.42 473.459 1766.13 473.164C1765.83 472.869 1765.63 472.494 1765.55 472.084C1765.47 471.675 1765.51 471.251 1765.67 470.866C1765.83 470.481 1766.1 470.151 1766.45 469.919C1766.79 469.688 1767.2 469.564 1767.62 469.564C1768.18 469.564 1768.71 469.786 1769.11 470.182C1769.5 470.577 1769.73 471.114 1769.73 471.673Z" fill="#4181E0" fill-opacity="0.34"/>
<path id="Vector_199" d="M1797.24 471.673C1797.24 472.09 1797.11 472.498 1796.88 472.845C1796.65 473.192 1796.32 473.462 1795.93 473.621C1795.55 473.781 1795.12 473.823 1794.72 473.741C1794.31 473.66 1793.93 473.459 1793.64 473.164C1793.34 472.869 1793.14 472.494 1793.06 472.084C1792.98 471.675 1793.02 471.251 1793.18 470.866C1793.34 470.481 1793.61 470.151 1793.96 469.919C1794.3 469.688 1794.71 469.564 1795.13 469.564C1795.69 469.564 1796.22 469.786 1796.62 470.182C1797.01 470.577 1797.24 471.114 1797.24 471.673Z" fill="#4181E0" fill-opacity="0.34"/>
<path id="Vector_200" d="M1824.74 471.673C1824.74 472.09 1824.62 472.498 1824.39 472.845C1824.16 473.192 1823.83 473.462 1823.44 473.621C1823.06 473.781 1822.63 473.823 1822.22 473.741C1821.81 473.66 1821.44 473.459 1821.14 473.164C1820.85 472.869 1820.65 472.494 1820.57 472.084C1820.49 471.675 1820.53 471.251 1820.69 470.866C1820.85 470.481 1821.12 470.151 1821.46 469.919C1821.81 469.688 1822.22 469.564 1822.63 469.564C1822.91 469.564 1823.19 469.619 1823.44 469.725C1823.7 469.831 1823.93 469.986 1824.13 470.182C1824.32 470.378 1824.48 470.61 1824.58 470.866C1824.69 471.122 1824.74 471.396 1824.74 471.673Z" fill="#4181E0" fill-opacity="0.34"/>
<path id="Vector_201" d="M1742.22 498.944C1742.22 499.361 1742.09 499.769 1741.86 500.115C1741.63 500.462 1741.3 500.732 1740.92 500.892C1740.53 501.051 1740.11 501.093 1739.7 501.011C1739.29 500.93 1738.91 500.729 1738.62 500.434C1738.32 500.139 1738.12 499.763 1738.04 499.354C1737.96 498.945 1738 498.521 1738.16 498.136C1738.32 497.75 1738.59 497.421 1738.94 497.189C1739.28 496.958 1739.69 496.834 1740.11 496.834C1740.39 496.834 1740.66 496.889 1740.92 496.995C1741.17 497.101 1741.4 497.256 1741.6 497.452C1741.8 497.648 1741.95 497.881 1742.06 498.137C1742.16 498.393 1742.22 498.667 1742.22 498.944Z" fill="#4181E0" fill-opacity="0.34"/>
<path id="Vector_202" d="M1769.73 498.944C1769.73 499.361 1769.6 499.769 1769.37 500.115C1769.14 500.462 1768.81 500.732 1768.42 500.892C1768.04 501.051 1767.61 501.093 1767.21 501.011C1766.8 500.93 1766.42 500.729 1766.13 500.434C1765.83 500.139 1765.63 499.763 1765.55 499.354C1765.47 498.945 1765.51 498.521 1765.67 498.136C1765.83 497.75 1766.1 497.421 1766.45 497.189C1766.79 496.958 1767.2 496.834 1767.62 496.834C1767.9 496.834 1768.17 496.889 1768.43 496.995C1768.68 497.101 1768.91 497.256 1769.11 497.452C1769.31 497.648 1769.46 497.881 1769.57 498.137C1769.67 498.393 1769.73 498.667 1769.73 498.944Z" fill="#4181E0" fill-opacity="0.34"/>
<path id="Vector_203" d="M1797.24 498.944C1797.24 499.361 1797.11 499.769 1796.88 500.115C1796.65 500.462 1796.32 500.732 1795.93 500.892C1795.55 501.051 1795.12 501.093 1794.71 501.011C1794.31 500.93 1793.93 500.729 1793.64 500.434C1793.34 500.139 1793.14 499.763 1793.06 499.354C1792.98 498.945 1793.02 498.521 1793.18 498.136C1793.34 497.75 1793.61 497.421 1793.96 497.189C1794.3 496.958 1794.71 496.834 1795.13 496.834C1795.69 496.834 1796.22 497.057 1796.62 497.452C1797.01 497.848 1797.24 498.385 1797.24 498.944Z" fill="#4181E0" fill-opacity="0.34"/>
<path id="Vector_204" d="M1824.74 498.944C1824.74 499.361 1824.62 499.769 1824.39 500.115C1824.16 500.462 1823.83 500.732 1823.44 500.892C1823.06 501.051 1822.63 501.093 1822.22 501.011C1821.81 500.93 1821.44 500.729 1821.14 500.434C1820.85 500.139 1820.65 499.763 1820.57 499.354C1820.49 498.945 1820.53 498.521 1820.69 498.136C1820.85 497.75 1821.12 497.421 1821.46 497.189C1821.81 496.958 1822.22 496.834 1822.64 496.834C1822.91 496.834 1823.19 496.889 1823.44 496.995C1823.7 497.101 1823.93 497.256 1824.13 497.452C1824.32 497.648 1824.48 497.881 1824.58 498.137C1824.69 498.393 1824.74 498.667 1824.74 498.944Z" fill="#4181E0" fill-opacity="0.34"/>
<path id="Vector_205" d="M1846.85 419.244C1848.02 419.244 1848.96 418.3 1848.96 417.135C1848.96 415.97 1848.02 415.026 1846.85 415.026C1845.69 415.026 1844.75 415.97 1844.75 417.135C1844.75 418.3 1845.69 419.244 1846.85 419.244Z" fill="#4181E0" fill-opacity="0.34"/>
<path id="Vector_206" d="M1874.36 419.244C1875.53 419.244 1876.47 418.3 1876.47 417.135C1876.47 415.97 1875.53 415.026 1874.36 415.026C1873.2 415.026 1872.25 415.97 1872.25 417.135C1872.25 418.3 1873.2 419.244 1874.36 419.244Z" fill="#4181E0" fill-opacity="0.34"/>
<path id="Vector_207" d="M1901.87 419.244C1903.04 419.244 1903.98 418.3 1903.98 417.135C1903.98 415.97 1903.04 415.026 1901.87 415.026C1900.71 415.026 1899.76 415.97 1899.76 417.135C1899.76 418.3 1900.71 419.244 1901.87 419.244Z" fill="#4181E0" fill-opacity="0.34"/>
<path id="Vector_208" d="M1846.85 446.513C1848.02 446.513 1848.96 445.569 1848.96 444.404C1848.96 443.239 1848.02 442.295 1846.85 442.295C1845.69 442.295 1844.75 443.239 1844.75 444.404C1844.75 445.569 1845.69 446.513 1846.85 446.513Z" fill="#4181E0" fill-opacity="0.34"/>
<path id="Vector_209" d="M1874.36 446.513C1875.53 446.513 1876.47 445.569 1876.47 444.404C1876.47 443.239 1875.53 442.295 1874.36 442.295C1873.2 442.295 1872.25 443.239 1872.25 444.404C1872.25 445.569 1873.2 446.513 1874.36 446.513Z" fill="#4181E0" fill-opacity="0.34"/>
<path id="Vector_210" d="M1901.87 446.513C1903.04 446.513 1903.98 445.569 1903.98 444.404C1903.98 443.239 1903.04 442.295 1901.87 442.295C1900.71 442.295 1899.76 443.239 1899.76 444.404C1899.76 445.569 1900.71 446.513 1901.87 446.513Z" fill="#4181E0" fill-opacity="0.34"/>
<path id="Vector_211" d="M1848.96 471.673C1848.96 472.09 1848.84 472.498 1848.61 472.845C1848.38 473.192 1848.05 473.462 1847.66 473.621C1847.28 473.781 1846.85 473.823 1846.44 473.741C1846.03 473.66 1845.66 473.459 1845.36 473.164C1845.07 472.869 1844.87 472.494 1844.79 472.084C1844.7 471.675 1844.75 471.251 1844.91 470.866C1845.07 470.481 1845.34 470.151 1845.68 469.919C1846.03 469.688 1846.44 469.564 1846.85 469.564C1847.41 469.564 1847.95 469.786 1848.35 470.182C1848.74 470.577 1848.96 471.114 1848.96 471.673Z" fill="#4181E0" fill-opacity="0.34"/>
<path id="Vector_212" d="M1876.47 471.673C1876.47 472.09 1876.35 472.498 1876.12 472.845C1875.88 473.192 1875.56 473.462 1875.17 473.621C1874.78 473.781 1874.36 473.823 1873.95 473.741C1873.54 473.66 1873.17 473.459 1872.87 473.164C1872.58 472.869 1872.38 472.494 1872.29 472.084C1872.21 471.675 1872.25 471.251 1872.41 470.866C1872.57 470.481 1872.84 470.151 1873.19 469.919C1873.54 469.688 1873.95 469.564 1874.36 469.564C1874.92 469.564 1875.46 469.786 1875.85 470.182C1876.25 470.577 1876.47 471.114 1876.47 471.673Z" fill="#4181E0" fill-opacity="0.34"/>
<path id="Vector_213" d="M1903.98 471.673C1903.98 472.09 1903.86 472.498 1903.63 472.845C1903.39 473.192 1903.06 473.462 1902.68 473.621C1902.29 473.781 1901.87 473.823 1901.46 473.741C1901.05 473.66 1900.68 473.459 1900.38 473.164C1900.09 472.869 1899.88 472.494 1899.8 472.084C1899.72 471.675 1899.76 471.251 1899.92 470.866C1900.08 470.481 1900.35 470.151 1900.7 469.919C1901.05 469.688 1901.45 469.564 1901.87 469.564C1902.43 469.564 1902.97 469.786 1903.36 470.182C1903.76 470.577 1903.98 471.114 1903.98 471.673Z" fill="#4181E0" fill-opacity="0.34"/>
<path id="Vector_214" d="M1848.96 498.944C1848.96 499.361 1848.84 499.769 1848.61 500.115C1848.38 500.462 1848.05 500.732 1847.66 500.892C1847.28 501.051 1846.85 501.093 1846.44 501.011C1846.03 500.93 1845.66 500.729 1845.36 500.434C1845.07 500.139 1844.87 499.763 1844.79 499.354C1844.7 498.945 1844.75 498.521 1844.91 498.136C1845.07 497.75 1845.34 497.421 1845.68 497.189C1846.03 496.958 1846.44 496.834 1846.85 496.834C1847.13 496.834 1847.41 496.889 1847.66 496.995C1847.92 497.101 1848.15 497.256 1848.35 497.452C1848.54 497.648 1848.7 497.881 1848.8 498.137C1848.91 498.393 1848.96 498.667 1848.96 498.944Z" fill="#4181E0" fill-opacity="0.34"/>
<path id="Vector_215" d="M1876.47 498.944C1876.47 499.361 1876.35 499.769 1876.12 500.115C1875.88 500.462 1875.55 500.732 1875.17 500.892C1874.78 501.051 1874.36 501.093 1873.95 501.011C1873.54 500.93 1873.17 500.729 1872.87 500.434C1872.58 500.139 1872.38 499.763 1872.29 499.354C1872.21 498.945 1872.25 498.521 1872.41 498.136C1872.57 497.75 1872.84 497.421 1873.19 497.189C1873.54 496.958 1873.95 496.834 1874.36 496.834C1874.64 496.834 1874.91 496.889 1875.17 496.995C1875.43 497.101 1875.66 497.256 1875.85 497.452C1876.05 497.648 1876.21 497.881 1876.31 498.137C1876.42 498.393 1876.47 498.667 1876.47 498.944Z" fill="#4181E0" fill-opacity="0.34"/>
<path id="Vector_216" d="M1903.98 498.944C1903.98 499.361 1903.86 499.769 1903.63 500.115C1903.39 500.462 1903.06 500.732 1902.68 500.892C1902.29 501.051 1901.87 501.093 1901.46 501.011C1901.05 500.93 1900.68 500.729 1900.38 500.434C1900.09 500.139 1899.88 499.763 1899.8 499.354C1899.72 498.945 1899.76 498.521 1899.92 498.136C1900.08 497.75 1900.35 497.421 1900.7 497.189C1901.05 496.958 1901.45 496.834 1901.87 496.834C1902.43 496.834 1902.97 497.057 1903.36 497.452C1903.76 497.848 1903.98 498.385 1903.98 498.944Z" fill="#4181E0" fill-opacity="0.34"/>
<path id="Vector_217" d="M1740.11 526.27C1741.27 526.27 1742.22 525.326 1742.22 524.161C1742.22 522.996 1741.27 522.052 1740.11 522.052C1738.94 522.052 1738 522.996 1738 524.161C1738 525.326 1738.94 526.27 1740.11 526.27Z" fill="#4181E0" fill-opacity="0.34"/>
<path id="Vector_218" d="M1767.62 526.27C1768.78 526.27 1769.73 525.326 1769.73 524.161C1769.73 522.996 1768.78 522.052 1767.62 522.052C1766.45 522.052 1765.51 522.996 1765.51 524.161C1765.51 525.326 1766.45 526.27 1767.62 526.27Z" fill="#4181E0" fill-opacity="0.34"/>
<path id="Vector_219" d="M1795.13 526.27C1796.29 526.27 1797.24 525.326 1797.24 524.161C1797.24 522.996 1796.29 522.052 1795.13 522.052C1793.96 522.052 1793.02 522.996 1793.02 524.161C1793.02 525.326 1793.96 526.27 1795.13 526.27Z" fill="#4181E0" fill-opacity="0.34"/>
<path id="Vector_220" d="M1822.64 526.27C1823.8 526.27 1824.75 525.326 1824.75 524.161C1824.75 522.996 1823.8 522.052 1822.64 522.052C1821.47 522.052 1820.53 522.996 1820.53 524.161C1820.53 525.326 1821.47 526.27 1822.64 526.27Z" fill="#4181E0" fill-opacity="0.34"/>
<path id="Vector_221" d="M1740.11 553.539C1741.27 553.539 1742.22 552.595 1742.22 551.43C1742.22 550.265 1741.27 549.321 1740.11 549.321C1738.94 549.321 1738 550.265 1738 551.43C1738 552.595 1738.94 553.539 1740.11 553.539Z" fill="#4181E0" fill-opacity="0.34"/>
<path id="Vector_222" d="M1767.62 553.539C1768.78 553.539 1769.73 552.595 1769.73 551.43C1769.73 550.265 1768.78 549.321 1767.62 549.321C1766.45 549.321 1765.51 550.265 1765.51 551.43C1765.51 552.595 1766.45 553.539 1767.62 553.539Z" fill="#4181E0" fill-opacity="0.34"/>
<path id="Vector_223" d="M1795.13 553.539C1796.29 553.539 1797.24 552.595 1797.24 551.43C1797.24 550.265 1796.29 549.321 1795.13 549.321C1793.96 549.321 1793.02 550.265 1793.02 551.43C1793.02 552.595 1793.96 553.539 1795.13 553.539Z" fill="#4181E0" fill-opacity="0.34"/>
<path id="Vector_224" d="M1822.64 553.539C1823.8 553.539 1824.75 552.595 1824.75 551.43C1824.75 550.265 1823.8 549.321 1822.64 549.321C1821.47 549.321 1820.53 550.265 1820.53 551.43C1820.53 552.595 1821.47 553.539 1822.64 553.539Z" fill="#4181E0" fill-opacity="0.34"/>
<path id="Vector_225" d="M1742.22 578.699C1742.22 579.116 1742.09 579.524 1741.86 579.871C1741.63 580.218 1741.3 580.488 1740.92 580.647C1740.53 580.807 1740.11 580.849 1739.7 580.767C1739.29 580.686 1738.91 580.485 1738.62 580.19C1738.32 579.895 1738.12 579.52 1738.04 579.11C1737.96 578.701 1738 578.277 1738.16 577.892C1738.32 577.507 1738.59 577.177 1738.94 576.945C1739.28 576.714 1739.69 576.59 1740.11 576.59C1740.67 576.59 1741.2 576.812 1741.6 577.208C1742 577.603 1742.22 578.14 1742.22 578.699Z" fill="#4181E0" fill-opacity="0.34"/>
<path id="Vector_226" d="M1769.73 578.699C1769.73 579.116 1769.6 579.524 1769.37 579.871C1769.14 580.218 1768.81 580.488 1768.43 580.647C1768.04 580.807 1767.62 580.849 1767.21 580.767C1766.8 580.686 1766.42 580.485 1766.13 580.19C1765.83 579.895 1765.63 579.52 1765.55 579.11C1765.47 578.701 1765.51 578.277 1765.67 577.892C1765.83 577.507 1766.1 577.177 1766.45 576.945C1766.79 576.714 1767.2 576.59 1767.62 576.59C1768.18 576.59 1768.71 576.812 1769.11 577.208C1769.5 577.603 1769.73 578.14 1769.73 578.699Z" fill="#4181E0" fill-opacity="0.34"/>
<path id="Vector_227" d="M1797.24 578.699C1797.24 579.116 1797.11 579.524 1796.88 579.871C1796.65 580.218 1796.32 580.488 1795.93 580.647C1795.55 580.807 1795.12 580.849 1794.72 580.767C1794.31 580.686 1793.93 580.485 1793.64 580.19C1793.34 579.895 1793.14 579.52 1793.06 579.11C1792.98 578.701 1793.02 578.277 1793.18 577.892C1793.34 577.507 1793.61 577.177 1793.96 576.945C1794.3 576.714 1794.71 576.59 1795.13 576.59C1795.69 576.59 1796.22 576.812 1796.62 577.208C1797.01 577.603 1797.24 578.14 1797.24 578.699Z" fill="#4181E0" fill-opacity="0.34"/>
<path id="Vector_228" d="M1824.74 578.699C1824.74 579.116 1824.62 579.524 1824.39 579.871C1824.16 580.218 1823.83 580.488 1823.44 580.647C1823.06 580.807 1822.63 580.849 1822.22 580.767C1821.81 580.686 1821.44 580.485 1821.14 580.19C1820.85 579.895 1820.65 579.52 1820.57 579.11C1820.49 578.701 1820.53 578.277 1820.69 577.892C1820.85 577.507 1821.12 577.177 1821.46 576.945C1821.81 576.714 1822.22 576.59 1822.63 576.59C1822.91 576.59 1823.19 576.645 1823.44 576.751C1823.7 576.857 1823.93 577.012 1824.13 577.208C1824.32 577.404 1824.48 577.636 1824.58 577.892C1824.69 578.148 1824.74 578.422 1824.74 578.699Z" fill="#4181E0" fill-opacity="0.34"/>
<path id="Vector_229" d="M1742.22 605.97C1742.22 606.387 1742.09 606.795 1741.86 607.141C1741.63 607.488 1741.3 607.758 1740.92 607.918C1740.53 608.077 1740.11 608.119 1739.7 608.037C1739.29 607.956 1738.91 607.755 1738.62 607.46C1738.32 607.165 1738.12 606.789 1738.04 606.38C1737.96 605.971 1738 605.547 1738.16 605.162C1738.32 604.776 1738.59 604.447 1738.94 604.215C1739.28 603.984 1739.69 603.86 1740.11 603.86C1740.39 603.86 1740.66 603.915 1740.92 604.021C1741.17 604.127 1741.4 604.282 1741.6 604.478C1741.8 604.674 1741.95 604.907 1742.06 605.163C1742.16 605.419 1742.22 605.693 1742.22 605.97Z" fill="#4181E0" fill-opacity="0.34"/>
<path id="Vector_230" d="M1769.73 605.97C1769.73 606.387 1769.6 606.795 1769.37 607.141C1769.14 607.488 1768.81 607.758 1768.42 607.918C1768.04 608.077 1767.61 608.119 1767.21 608.037C1766.8 607.956 1766.42 607.755 1766.13 607.46C1765.83 607.165 1765.63 606.789 1765.55 606.38C1765.47 605.971 1765.51 605.547 1765.67 605.162C1765.83 604.776 1766.1 604.447 1766.45 604.215C1766.79 603.984 1767.2 603.86 1767.62 603.86C1767.9 603.86 1768.17 603.915 1768.43 604.021C1768.68 604.127 1768.91 604.282 1769.11 604.478C1769.31 604.674 1769.46 604.907 1769.57 605.163C1769.67 605.419 1769.73 605.693 1769.73 605.97Z" fill="#4181E0" fill-opacity="0.34"/>
<path id="Vector_231" d="M1797.24 605.97C1797.24 606.387 1797.11 606.795 1796.88 607.141C1796.65 607.488 1796.32 607.758 1795.93 607.918C1795.55 608.077 1795.12 608.119 1794.71 608.037C1794.31 607.956 1793.93 607.755 1793.64 607.46C1793.34 607.165 1793.14 606.789 1793.06 606.38C1792.98 605.971 1793.02 605.547 1793.18 605.162C1793.34 604.776 1793.61 604.447 1793.96 604.215C1794.3 603.984 1794.71 603.86 1795.13 603.86C1795.69 603.86 1796.22 604.083 1796.62 604.478C1797.01 604.874 1797.24 605.411 1797.24 605.97Z" fill="#4181E0" fill-opacity="0.34"/>
<path id="Vector_232" d="M1824.74 605.97C1824.74 606.387 1824.62 606.795 1824.39 607.141C1824.16 607.488 1823.83 607.758 1823.44 607.918C1823.06 608.077 1822.63 608.119 1822.22 608.037C1821.81 607.956 1821.44 607.755 1821.14 607.46C1820.85 607.165 1820.65 606.789 1820.57 606.38C1820.49 605.971 1820.53 605.547 1820.69 605.162C1820.85 604.776 1821.12 604.447 1821.46 604.215C1821.81 603.984 1822.22 603.86 1822.64 603.86C1822.91 603.86 1823.19 603.915 1823.44 604.021C1823.7 604.127 1823.93 604.282 1824.13 604.478C1824.32 604.674 1824.48 604.907 1824.58 605.163C1824.69 605.419 1824.74 605.693 1824.74 605.97Z" fill="#4181E0" fill-opacity="0.34"/>
<path id="Vector_233" d="M1846.85 526.27C1848.02 526.27 1848.96 525.326 1848.96 524.161C1848.96 522.996 1848.02 522.052 1846.85 522.052C1845.69 522.052 1844.75 522.996 1844.75 524.161C1844.75 525.326 1845.69 526.27 1846.85 526.27Z" fill="#4181E0" fill-opacity="0.34"/>
<path id="Vector_234" d="M1874.36 526.27C1875.53 526.27 1876.47 525.326 1876.47 524.161C1876.47 522.996 1875.53 522.052 1874.36 522.052C1873.2 522.052 1872.25 522.996 1872.25 524.161C1872.25 525.326 1873.2 526.27 1874.36 526.27Z" fill="#4181E0" fill-opacity="0.34"/>
<path id="Vector_235" d="M1901.87 526.27C1903.04 526.27 1903.98 525.326 1903.98 524.161C1903.98 522.996 1903.04 522.052 1901.87 522.052C1900.71 522.052 1899.76 522.996 1899.76 524.161C1899.76 525.326 1900.71 526.27 1901.87 526.27Z" fill="#4181E0" fill-opacity="0.34"/>
<path id="Vector_236" d="M1846.85 553.539C1848.02 553.539 1848.96 552.595 1848.96 551.43C1848.96 550.265 1848.02 549.321 1846.85 549.321C1845.69 549.321 1844.75 550.265 1844.75 551.43C1844.75 552.595 1845.69 553.539 1846.85 553.539Z" fill="#4181E0" fill-opacity="0.34"/>
<path id="Vector_237" d="M1874.36 553.539C1875.53 553.539 1876.47 552.595 1876.47 551.43C1876.47 550.265 1875.53 549.321 1874.36 549.321C1873.2 549.321 1872.25 550.265 1872.25 551.43C1872.25 552.595 1873.2 553.539 1874.36 553.539Z" fill="#4181E0" fill-opacity="0.34"/>
<path id="Vector_238" d="M1901.87 553.539C1903.04 553.539 1903.98 552.595 1903.98 551.43C1903.98 550.265 1903.04 549.321 1901.87 549.321C1900.71 549.321 1899.76 550.265 1899.76 551.43C1899.76 552.595 1900.71 553.539 1901.87 553.539Z" fill="#4181E0" fill-opacity="0.34"/>
<path id="Vector_239" d="M1848.96 578.699C1848.96 579.116 1848.84 579.524 1848.61 579.871C1848.38 580.218 1848.05 580.488 1847.66 580.647C1847.28 580.807 1846.85 580.849 1846.44 580.767C1846.03 580.686 1845.66 580.485 1845.36 580.19C1845.07 579.895 1844.87 579.52 1844.79 579.11C1844.7 578.701 1844.75 578.277 1844.91 577.892C1845.07 577.507 1845.34 577.177 1845.68 576.945C1846.03 576.714 1846.44 576.59 1846.85 576.59C1847.41 576.59 1847.95 576.812 1848.35 577.208C1848.74 577.603 1848.96 578.14 1848.96 578.699Z" fill="#4181E0" fill-opacity="0.34"/>
<path id="Vector_240" d="M1876.47 578.699C1876.47 579.116 1876.35 579.524 1876.12 579.871C1875.88 580.218 1875.56 580.488 1875.17 580.647C1874.78 580.807 1874.36 580.849 1873.95 580.767C1873.54 580.686 1873.17 580.485 1872.87 580.19C1872.58 579.895 1872.38 579.52 1872.29 579.11C1872.21 578.701 1872.25 578.277 1872.41 577.892C1872.57 577.507 1872.84 577.177 1873.19 576.945C1873.54 576.714 1873.95 576.59 1874.36 576.59C1874.92 576.59 1875.46 576.812 1875.85 577.208C1876.25 577.603 1876.47 578.14 1876.47 578.699Z" fill="#4181E0" fill-opacity="0.34"/>
<path id="Vector_241" d="M1903.98 578.699C1903.98 579.116 1903.86 579.524 1903.63 579.871C1903.39 580.218 1903.06 580.488 1902.68 580.647C1902.29 580.807 1901.87 580.849 1901.46 580.767C1901.05 580.686 1900.68 580.485 1900.38 580.19C1900.09 579.895 1899.88 579.52 1899.8 579.11C1899.72 578.701 1899.76 578.277 1899.92 577.892C1900.08 577.507 1900.35 577.177 1900.7 576.945C1901.05 576.714 1901.45 576.59 1901.87 576.59C1902.43 576.59 1902.97 576.812 1903.36 577.208C1903.76 577.603 1903.98 578.14 1903.98 578.699Z" fill="#4181E0" fill-opacity="0.34"/>
<path id="Vector_242" d="M1848.96 605.97C1848.96 606.387 1848.84 606.795 1848.61 607.141C1848.38 607.488 1848.05 607.758 1847.66 607.918C1847.28 608.077 1846.85 608.119 1846.44 608.037C1846.03 607.956 1845.66 607.755 1845.36 607.46C1845.07 607.165 1844.87 606.789 1844.79 606.38C1844.7 605.971 1844.75 605.547 1844.91 605.162C1845.07 604.776 1845.34 604.447 1845.68 604.215C1846.03 603.984 1846.44 603.86 1846.85 603.86C1847.13 603.86 1847.41 603.915 1847.66 604.021C1847.92 604.127 1848.15 604.282 1848.35 604.478C1848.54 604.674 1848.7 604.907 1848.8 605.163C1848.91 605.419 1848.96 605.693 1848.96 605.97Z" fill="#4181E0" fill-opacity="0.34"/>
<path id="Vector_243" d="M1876.47 605.97C1876.47 606.387 1876.35 606.795 1876.12 607.141C1875.88 607.488 1875.55 607.758 1875.17 607.918C1874.78 608.077 1874.36 608.119 1873.95 608.037C1873.54 607.956 1873.17 607.755 1872.87 607.46C1872.58 607.165 1872.38 606.789 1872.29 606.38C1872.21 605.971 1872.25 605.547 1872.41 605.162C1872.57 604.776 1872.84 604.447 1873.19 604.215C1873.54 603.984 1873.95 603.86 1874.36 603.86C1874.64 603.86 1874.91 603.915 1875.17 604.021C1875.43 604.127 1875.66 604.282 1875.85 604.478C1876.05 604.674 1876.21 604.907 1876.31 605.163C1876.42 605.419 1876.47 605.693 1876.47 605.97Z" fill="#4181E0" fill-opacity="0.34"/>
<path id="Vector_244" d="M1903.98 605.97C1903.98 606.387 1903.86 606.795 1903.63 607.141C1903.39 607.488 1903.06 607.758 1902.68 607.918C1902.29 608.077 1901.87 608.119 1901.46 608.037C1901.05 607.956 1900.68 607.755 1900.38 607.46C1900.09 607.165 1899.88 606.789 1899.8 606.38C1899.72 605.971 1899.76 605.547 1899.92 605.162C1900.08 604.776 1900.35 604.447 1900.7 604.215C1901.05 603.984 1901.45 603.86 1901.87 603.86C1902.43 603.86 1902.97 604.083 1903.36 604.478C1903.76 604.874 1903.98 605.411 1903.98 605.97Z" fill="#4181E0" fill-opacity="0.34"/>
</g>
</g>
<defs>
<clipPath id="clip0">
<rect width="1920" height="938" fill="white"/>
</clipPath>
</defs>
</svg>
