<svg xmlns="http://www.w3.org/2000/svg" width="143.969" height="37.528" viewBox="0 0 143.969 37.528">
    <g id="prefix__logo-5" transform="translate(-453.195 -38.259)">
        <path id="prefix__Union_2" d="M-386.8-1228.213v-8.915l-5.107-3.659v-18.753a6.2 6.2 0 0 1 1.815-4.385 6.2 6.2 0 0 1 4.387-1.816 6.2 6.2 0 0 1 4.385 1.816 6.2 6.2 0 0 1 1.816 4.385v18.753l-5.108 3.659v8.915zm2.189-14.865v3.271l2.918-2.1V-1246zm-5.107 1.185l2.918 2.074v-3.26l-2.918-2.919zm5.107-6.977v2.736l2.918-2.919v-2.735zm-5.062-.183l2.919 2.919v-2.736l-2.919-2.918zm-.045-5.927l4.013 4.1 4.011-4.013v-2.827l-4.011 4.012-4.013-4.012zm1.561-7.766a4.034 4.034 0 0 0-1.425 2.168l3.876 3.866 3.875-3.866a4.035 4.035 0 0 0-1.436-2.14 4.035 4.035 0 0 0-2.439-.835v-.045a4.035 4.035 0 0 0-2.451.852zm64.274 24.148v-2.28h9.12v2.28zm-6.111-.046v-1.63a8.767 8.767 0 0 1-5.017 1.584 9.117 9.117 0 0 1-4.386-1.09 9.12 9.12 0 0 1-3.324-3.064 9.122 9.122 0 0 1-1.445-4.282 9.109 9.109 0 0 1 .789-4.451 9.109 9.109 0 0 1 2.828-3.525 9.124 9.124 0 0 1 4.174-1.734 9.119 9.119 0 0 1 4.494.482 9.115 9.115 0 0 1 3.71 2.581l-1.675 1.494a6.84 6.84 0 0 0-2.8-1.882 6.846 6.846 0 0 0-3.357-.316 6.844 6.844 0 0 0-3.1 1.326 6.841 6.841 0 0 0-2.09 2.646 6.84 6.84 0 0 0-.572 3.323 6.851 6.851 0 0 0 1.085 3.192 6.836 6.836 0 0 0 2.479 2.286 6.847 6.847 0 0 0 3.269.825 6.577 6.577 0 0 0 2.747-.595 6.577 6.577 0 0 0 2.246-1.686h-6.156v-2.28h8.4l-.023 6.794zm-26.9 0v-2.28h9.121v2.28zm52.281-.011v-18.161h2.281a1.774 1.774 0 0 1 .353 0 6.845 6.845 0 0 1 2.835.29 6.84 6.84 0 0 1 2.471 1.42 6.828 6.828 0 0 1 1.678 2.3 6.826 6.826 0 0 1 .594 2.787 6.823 6.823 0 0 1-.594 2.787 6.832 6.832 0 0 1-1.678 2.3 6.85 6.85 0 0 1-2.471 1.419 6.845 6.845 0 0 1-2.835.29h-.353v4.56zm2.281-6.863h.353a4.558 4.558 0 0 0 1.921-.155 4.571 4.571 0 0 0 1.686-.934 4.554 4.554 0 0 0 1.148-1.547 4.566 4.566 0 0 0 .408-1.884 4.562 4.562 0 0 0-.408-1.884 4.554 4.554 0 0 0-1.148-1.547 4.547 4.547 0 0 0-1.686-.934 4.559 4.559 0 0 0-1.921-.156 1.758 1.758 0 0 0-.353.076zm-66.223 6.852v-18.149h2.28v15.869h6.84v2.281zm105.553-.023v-18.126l7.524 9.907 7.524-9.907.022 18.092h-2.28v-11.286l-5.255 6.841-5.255-6.841v11.32zm-47.048 0v-18.126h2.281v18.126zm20-.211a6.737 6.737 0 0 1-3.263-1.921l1.743-1.345a4.1 4.1 0 0 0 1.453 1 4.09 4.09 0 0 0 1.739.3 4.26 4.26 0 0 0 3.009-1.029 4.262 4.262 0 0 0 1.461-2.824v-.16c0-3.043-2.987-3.6-5.575-3.853-2.394-.228-4.116-1.722-4.116-3.875v-.092a4.387 4.387 0 0 1 1.43-2.923 4.389 4.389 0 0 1 3.05-1.135 4.255 4.255 0 0 1 1.741.316 4.266 4.266 0 0 1 1.437.967l-1.649 1.3a2.22 2.22 0 0 0-1.073-.619 2.217 2.217 0 0 0-1.237.054 2.227 2.227 0 0 0-1.014.71 2.215 2.215 0 0 0-.473 1.143v.183c0 1 .695 1.676 2.052 1.767 5.221.32 7.615 2.77 7.615 6.008v.205a6.728 6.728 0 0 1-1.441 3.5 6.724 6.724 0 0 1-3.1 2.17 6.739 6.739 0 0 1-2.145.351 6.733 6.733 0 0 1-1.651-.198zm9.984-8.943v-9.12h2.28v9.12c-.091 3.83 2.155 6.9 4.982 6.9l.012-.057c2.839 0 5.085-3.066 5.085-6.84v-9.12h2.28v9.12c0 5.016-3.284 9.063-7.319 9.063s-7.327-4.051-7.327-9.067zm-41.868 4.234a6.855 6.855 0 0 1-3.071-2.519 6.849 6.849 0 0 1-1.151-3.8 6.846 6.846 0 0 1 .509-2.637 6.859 6.859 0 0 1 1.486-2.237 6.854 6.854 0 0 1 2.232-1.493 6.867 6.867 0 0 1 2.636-.518l-.023.046a6.841 6.841 0 0 1 3.8 1.153 6.842 6.842 0 0 1 2.519 3.07 6.843 6.843 0 0 1 .389 3.952 6.838 6.838 0 0 1-1.872 3.5 6.834 6.834 0 0 1-3.5 1.872 6.856 6.856 0 0 1-1.335.131 6.835 6.835 0 0 1-2.626-.521zm2.617-1.76a4.557 4.557 0 0 0 2.534-.769 4.573 4.573 0 0 0 1.68-2.047 4.558 4.558 0 0 0 .258-2.634 4.55 4.55 0 0 0-1.247-2.335 4.553 4.553 0 0 0-2.336-1.248 4.554 4.554 0 0 0-2.633.259 4.562 4.562 0 0 0-2.047 1.679 4.566 4.566 0 0 0-.768 2.533 4.559 4.559 0 0 0 1.367 3.189 4.562 4.562 0 0 0 3.216 1.3zm-35.632 1.714a6.842 6.842 0 0 1-3.07-2.519 6.84 6.84 0 0 1-1.153-3.8 6.838 6.838 0 0 1 .521-2.618 6.842 6.842 0 0 1 1.483-2.219 6.84 6.84 0 0 1 2.219-1.482 6.839 6.839 0 0 1 2.617-.521 6.839 6.839 0 0 1 3.8 1.153 6.839 6.839 0 0 1 2.52 3.07 6.844 6.844 0 0 1 .39 3.952 6.841 6.841 0 0 1-1.872 3.5 6.84 6.84 0 0 1-3.5 1.872 6.821 6.821 0 0 1-1.335.132 6.842 6.842 0 0 1-2.627-.521zm.872-10.533a4.563 4.563 0 0 0-2.046 1.68 4.557 4.557 0 0 0-.77 2.533 4.561 4.561 0 0 0 1.345 3.209 4.561 4.561 0 0 0 3.216 1.328v.022a4.564 4.564 0 0 0 2.534-.769 4.553 4.553 0 0 0 1.678-2.047 4.551 4.551 0 0 0 .26-2.634 4.558 4.558 0 0 0-1.248-2.335 4.561 4.561 0 0 0-2.335-1.248 4.565 4.565 0 0 0-.889-.087 4.569 4.569 0 0 0-1.751.347zm68.136-1.286l.037-.029-.011.057z" data-name="Union 2" transform="translate(845.102 1304)" style="fill:#394149"/>
    </g>
</svg>
