<svg xmlns="http://www.w3.org/2000/svg" width="504.952" height="902.056" viewBox="0 0 504.952 902.056">
    <path id="prefix__Subtraction_1" d="M677.556 961.042c-22.95 0-46.645-.678-70.426-2.016V58.986c33.86 15.935 68.828 36 103.935 59.639a1047.166 1047.166 0 0 1 102.051 78.62A1161.684 1161.684 0 0 1 908.053 290a1081.735 1081.735 0 0 1 82.592 102.054 852.618 852.618 0 0 1 65.017 106.508c9.144 17.978 17.314 35.948 24.283 53.411a518.558 518.558 0 0 1 17.927 52.708 405.491 405.491 0 0 1 10.918 51.4 315.882 315.882 0 0 1 3.255 49.488 252.4 252.4 0 0 1-5.062 46.969 222.078 222.078 0 0 1-5.854 22.351 210.294 210.294 0 0 1-8.179 21.495 185.062 185.062 0 0 1-11.446 21.688 192.875 192.875 0 0 1-14.132 19.95 209.6 209.6 0 0 1-16.657 18.26 235.473 235.473 0 0 1-19.021 16.616c-6.629 5.2-13.77 10.254-21.225 15.018-7.327 4.682-15.155 9.214-23.268 13.468a399.173 399.173 0 0 1-52.02 22.47 543.491 543.491 0 0 1-58.261 16.827c-19.895 4.612-41.164 8.5-63.215 11.557-42.116 5.843-87.922 8.803-136.149 8.804z" data-name="Subtraction 1" transform="translate(-607.13 -58.986)" style="fill:rgba(30,93,233,.07)"/>
</svg>
