<svg xmlns="http://www.w3.org/2000/svg" xmlns:xlink="http://www.w3.org/1999/xlink" id="LOGOS" x="0" y="0" version="1.1" viewBox="0 0 374.4 374.4" xml:space="preserve" style="enable-background:new 0 0 374.4 374.4"><style type="text/css">.st0{fill:#28ce73}.st0,.st1,.st2{clip-path:url(#SVGID_2_)}.st1{fill:none}.st2{fill:#b2f7cf}</style><title>STARLING PORTRAIT LOGO FOR WHITE BACKGROUND</title><g><defs><rect id="SVGID_1_" width="374.4" height="374.4" y="-1.1"/></defs><clipPath id="SVGID_2_"><use xlink:href="#SVGID_1_" style="overflow:visible"/></clipPath><rect width="374.4" height="374.4" y="-1.1" class="st0"/><rect width="374.4" height="374.4" y="-1.1" class="st1"/><path d="M267.2,152.4L267.2,152.4c-8.4-5.9-10.5-17.4-4.6-25.9L374.7-34c5.9-8.4,17.4-10.5,25.9-4.6l0,0 c8.4,5.9,10.5,17.4,4.6,25.9L293.1,147.8C287.2,156.2,275.6,158.3,267.2,152.4z" class="st2"/><path d="M164,74.7L164,74.7c-8.4-5.9-10.5-17.4-4.6-25.9l112.1-160.6c5.9-8.4,17.4-10.5,25.9-4.6l0,0 c8.4,5.9,10.5,17.4,4.6,25.9L189.8,70.1C184,78.5,172.4,80.6,164,74.7z" class="st2"/><path d="M299.2,331.9L299.2,331.9c-8.4-5.9-10.5-17.4-4.6-25.9l112.1-160.6c5.9-8.4,17.4-10.5,25.9-4.6l0,0 c8.4,5.9,10.5,17.4,4.6,25.9L325,327.3C319.2,335.7,307.6,337.8,299.2,331.9z" class="st2"/><path d="M192.6,149.3L192.6,149.3c-8.4-5.9-10.5-17.4-4.6-25.9L300.1-37.1c5.9-8.4,17.4-10.5,25.9-4.6l0,0 c8.4,5.9,10.5,17.4,4.6,25.9L218.4,144.7C212.6,153.1,201,155.2,192.6,149.3z" class="st2"/><path d="M282.8,240.1L282.8,240.1c-8.4-5.9-10.5-17.4-4.6-25.9L390.4,53.6c5.9-8.4,17.4-10.5,25.9-4.6l0,0 c8.4,5.9,10.5,17.4,4.6,25.9L308.7,235.5C302.8,243.9,291.3,245.9,282.8,240.1z" class="st2"/></g></svg>