<svg xmlns="http://www.w3.org/2000/svg" xmlns:xlink="http://www.w3.org/1999/xlink" id="Layer_1" x="0" y="0" version="1.1" viewBox="0 0 2500 2500" xml:space="preserve" style="enable-background:new 0 0 2500 2500"><style type="text/css">.st0{fill:none}.st1{fill:#fff}.st2{fill:#671cc9}</style><path d="M0,0h2500v2500H0V0z" class="st0"/><g><polygon points="1889.6 1337.6 2017.4 1337.6 1971.3 1113.9" class="st1"/><path d="M2141.5,419h-1783C179.8,419,35,563.9,35,742.5v1014.9c0,178.7,144.9,323.5,323.5,323.5h1782.9 c178.7,0,323.5-144.9,323.5-323.5V742.5C2465,563.9,2320.2,419,2141.5,419z M594.3,1549.1l-135.2-519.4 c-87.8-52.7-162.8-68.3-162.8-68.3l2.9-10.1h245.3c67.5,0,73.8,53.8,73.8,53.8l52.4,268.9l0,0l17.6,88.5l148.4-411.2l0,0h167.5 l-247.6,597.9L594.3,1549.1L594.3,1549.1z M967.5,1549.1l97.3-597.8h155.7l-97.3,597.8H967.5z M1394.8,1559.4 c-106.2,0-175.7-33.8-175.7-33.8l23.1-134.2c63.7,51.2,256.8,65.7,256.8-15.4s-215.3-83-215.3-237.5 c0-164.2,183.4-197.9,260.7-197.9c71.5,0,140,26.1,140,26.1l-22.2,128.4l0,0l0,0l0,0c-66.6-36.7-218.2-45.4-218.2,22.2 s217.2,82.1,217.2,237.5C1661.2,1504.4,1501,1559.4,1394.8,1559.4z M2060.8,1549.1L2060.8,1549.1l-18.2-88.8h-197.9l-32.4,88.8 H1650l232.1-553.3c0,0,14.1-44.6,71.9-44.6h125.1l124.6,597.9L2060.8,1549.1L2060.8,1549.1z" class="st2"/></g></svg>