<svg xmlns="http://www.w3.org/2000/svg" xmlns:svg="http://www.w3.org/2000/svg" xmlns:xlink="http://www.w3.org/1999/xlink" id="Layer_1" x="0" y="0" version="1.1" viewBox="0 0 1000 323.7" xml:space="preserve" style="enable-background:new 0 0 1000 323.7"><style type="text/css">.st0{fill:#fff}</style><g><polygon points="403 5.7 352.3 319 433.4 319 484 5.7" class="st0"/><path d="M647.4,131.3c-28.3-14.3-45.7-24-45.7-38.7c0.3-13.3,14.7-27,46.7-27c26.3-0.7,45.7,5.7,60.3,12L716,81 l11-67.7C711,7,685.7,0,654.4,0c-80,0-136.3,42.7-136.7,103.7c-0.7,45,40.3,70,71,85c31.3,15.3,42,25.3,42,39 c-0.3,21-25.3,30.7-48.6,30.7c-32.3,0-49.7-5-76-16.7l-10.7-5L484,307c19,8.7,54,16.3,90.3,16.7c85,0,140.3-42,141-107 C715.7,181,694,153.7,647.4,131.3z" class="st0"/><path d="M934.7,5.7L934.7,5.7H872c-19.3,0-34,5.7-42.3,26L709.4,319h85c0,0,14-38.7,17-47c9.3,0,92,0,104,0 c2.3,11,9.7,47,9.7,47h75L934.7,5.7z M834.7,208c6.7-18,32.3-87.7,32.3-87.7c-0.3,0.7,6.7-18.3,10.7-30l5.7,27 c0,0,15.3,75,18.7,90.7C889.4,208,850.7,208,834.7,208z" class="st0"/><path d="M284.7,5.7L284.7,5.7l-79.3,213.6l-8.7-43.3c0,0,0,0,0,0L168.3,32c-4.7-20-19-25.7-36.7-26.3H1.3L0,12 c31.8,8.1,60.2,19.8,85.1,34.4l72.2,272.2H243l127.3-313H284.7z" class="st0"/></g></svg>