<?xml version="1.0" encoding="utf-8"?>
<!-- Generator: Adobe Illustrator 22.1.0, SVG Export Plug-In . SVG Version: 6.00 Build 0)  -->
<svg version="1.1" id="Слой_1" xmlns="http://www.w3.org/2000/svg" xmlns:xlink="http://www.w3.org/1999/xlink" x="0px" y="0px"
	 width="264px" height="88px" viewBox="-173 353 264 88" style="enable-background:new -173 353 264 88;" xml:space="preserve">
<style type="text/css">
	.st0{fill:#FFFFFF;}
</style>
<title>default-skin 2</title>
<path d="M-145.8,422.1c0.4,0.4,0.4,1,0,1.4l-0.7,0.7c-0.4,0.4-1,0.4-1.4,0l-3.1-3.1l-3.1,3.1c-0.4,0.4-1,0.4-1.4,0l-0.7-0.7
	c-0.4-0.4-0.4-1,0-1.4l3.1-3.1l-3.1-3.1c-0.4-0.4-0.4-1,0-1.4l0.7-0.7c0.4-0.4,1-0.4,1.4,0l3.1,3.1l3.1-3.1c0.4-0.4,1-0.4,1.4,0
	l0.7,0.7c0.4,0.4,0.4,1,0,1.4l-3.1,3.1L-145.8,422.1z"/>
<path class="st0" d="M-157.9,368.7c0-0.4,0.3-0.8,0.8-0.8h3.9c0.2,0,0.4,0.2,0.4,0.4v1.3c0,0.2-0.2,0.4-0.4,0.4h-2.6v2.6
	c0,0.2-0.2,0.4-0.4,0.4h-1.3c-0.2,0-0.4-0.2-0.4-0.4V368.7z M-153.3,381.9h-3.9c-0.4,0-0.8-0.3-0.8-0.8v-3.9c0-0.2,0.2-0.4,0.4-0.4
	h1.3c0.2,0,0.4,0.2,0.4,0.4v2.6h2.6c0.2,0,0.4,0.2,0.4,0.4v1.3C-152.9,381.8-153.1,381.9-153.3,381.9z M-148.6,367.9h3.9
	c0.4,0,0.8,0.3,0.8,0.8v3.9c0,0.2-0.2,0.4-0.4,0.4h-1.3c-0.2,0-0.4-0.2-0.4-0.4v-2.6h-2.6c-0.2,0-0.4-0.2-0.4-0.4v-1.3
	C-148.9,368.1-148.8,367.9-148.6,367.9z M-143.9,377.3v3.9c0,0.4-0.3,0.8-0.8,0.8h-3.9c-0.2,0-0.4-0.2-0.4-0.4v-1.3
	c0-0.2,0.2-0.4,0.4-0.4h2.6v-2.6c0-0.2,0.2-0.4,0.4-0.4h1.3C-144.1,376.9-143.9,377.1-143.9,377.3z"/>
<path class="st0" d="M-56.1,382.8c-0.3,0.3-0.8,0.3-1.1,0l-3.1-3.1c-0.1-0.1-0.2-0.3-0.2-0.5v-0.5c-1.1,0.9-2.5,1.4-4,1.4
	c-3.6,0-6.5-2.9-6.5-6.5s2.9-6.5,6.5-6.5s6.5,2.9,6.5,6.5c0,1.5-0.5,2.9-1.4,4h0.5c0.2,0,0.4,0.1,0.5,0.2l3.1,3.1
	c0.3,0.3,0.3,0.8,0,1.1L-56.1,382.8z M-64.5,369.2c-2.4,0-4.3,1.9-4.3,4.3s1.9,4.3,4.3,4.3s4.3-1.9,4.3-4.3S-62.1,369.2-64.5,369.2z
	 M-61.5,374c0,0.2-0.2,0.4-0.4,0.4h-1.8v1.8c0,0.2-0.2,0.4-0.4,0.4h-1c-0.2,0-0.4-0.2-0.4-0.4v-1.8h-1.8c-0.2,0-0.4-0.2-0.4-0.4v-1
	c0-0.2,0.2-0.4,0.4-0.4h1.8v-1.8c0-0.2,0.2-0.4,0.4-0.4h1c0.2,0,0.4,0.2,0.4,0.4v1.8h1.8c0.2,0,0.4,0.2,0.4,0.4V374z"/>
<path class="st0" d="M-12.1,382.8c-0.3,0.3-0.8,0.3-1.1,0l-3.1-3.1c-0.1-0.1-0.2-0.3-0.2-0.5v-0.5c-1.1,0.9-2.5,1.4-4,1.4
	c-3.6,0-6.5-2.9-6.5-6.5s2.9-6.5,6.5-6.5s6.5,2.9,6.5,6.5c0,1.5-0.5,2.9-1.4,4h0.5c0.2,0,0.4,0.1,0.5,0.2l3.1,3.1
	c0.3,0.3,0.3,0.8,0,1.1L-12.1,382.8z M-20.5,369.2c-2.3,0-4.3,1.9-4.3,4.3s1.9,4.3,4.3,4.3c2.4,0,4.3-1.9,4.3-4.3
	S-18.1,369.2-20.5,369.2z M-17.5,374c0,0.2-0.2,0.4-0.4,0.4h-5.3c-0.2,0-0.4-0.2-0.4-0.4v-1c0-0.2,0.2-0.4,0.4-0.4h5.3
	c0.2,0,0.4,0.2,0.4,0.4V374z"/>
<path class="st0" d="M-109.8,373h-3.9c-0.2,0-0.4-0.2-0.4-0.4v-1.3c0-0.2,0.2-0.4,0.4-0.4h2.6v-2.6c0-0.2,0.2-0.4,0.4-0.4h1.3
	c0.2,0,0.4,0.2,0.4,0.4v3.9C-109,372.7-109.3,373-109.8,373z M-109.4,382h-1.3c-0.2,0-0.4-0.2-0.4-0.4V379h-2.6
	c-0.2,0-0.4-0.2-0.4-0.4v-1.3c0-0.2,0.2-0.4,0.4-0.4h3.9c0.4,0,0.8,0.3,0.8,0.8v3.9C-109,381.8-109.2,382-109.4,382z M-104.3,373
	c-0.4,0-0.8-0.3-0.8-0.8v-3.9c0-0.2,0.2-0.4,0.4-0.4h1.3c0.2,0,0.4,0.2,0.4,0.4v2.6h2.6c0.2,0,0.4,0.2,0.4,0.4v1.3
	c0,0.2-0.2,0.4-0.4,0.4H-104.3z M-103.4,382h-1.3c-0.2,0-0.4-0.2-0.4-0.4v-3.9c0-0.4,0.3-0.8,0.8-0.8h3.9c0.2,0,0.4,0.2,0.4,0.4v1.3
	c0,0.2-0.2,0.4-0.4,0.4h-2.6v2.6C-103,381.8-103.2,382-103.4,382z"/>
<path class="st0" d="M-63.4,412.4c0.3-0.3,0.8-0.3,1.1,0l6.1,6.1c0.3,0.3,0.3,0.8,0,1.1l-6.1,6.1c-0.3,0.3-0.8,0.3-1.1,0l-0.7-0.7
	c-0.3-0.3-0.3-0.8,0-1.1l3.8-3.6h-9c-0.4,0-0.8-0.3-0.8-0.8v-1c0-0.4,0.3-0.8,0.8-0.8h9l-3.8-3.6c-0.3-0.3-0.3-0.8,0-1.1
	L-63.4,412.4z"/>
<path class="st0" d="M-18.6,425.6c-0.3,0.3-0.8,0.3-1.1,0l-6.1-6.1c-0.3-0.3-0.3-0.8,0-1.1l6.1-6.1c0.3-0.3,0.8-0.3,1.1,0l0.7,0.7
	c0.3,0.3,0.3,0.8,0,1.1l-3.8,3.6h9c0.4,0,0.8,0.3,0.8,0.8v1c0,0.4-0.3,0.8-0.8,0.8h-9l3.8,3.6c0.3,0.3,0.3,0.8,0,1.1L-18.6,425.6z"
	/>
<path class="st0" d="M-100,424c0,1.7-1.3,3-3,3s-3-1.3-3-3v0c0-0.2,0-0.5,0.1-0.7l-3.2-2c-0.5,0.4-1.2,0.7-1.9,0.7c-1.7,0-3-1.3-3-3
	s1.3-3,3-3c0.7,0,1.4,0.2,1.9,0.7l3.2-2c0-0.2-0.1-0.4-0.1-0.7c0-1.7,1.3-3,3-3s3,1.3,3,3s-1.3,3-3,3c-0.7,0-1.4-0.2-1.9-0.7l-3.2,2
	c0,0.2,0.1,0.5,0.1,0.7s0,0.5-0.1,0.7l3.2,2c0.5-0.4,1.2-0.7,1.9-0.7C-101.3,421-100,422.3-100,424z"/>
</svg>
