<?xml version="1.0" encoding="utf-8"?>
<!-- Generator: Adobe Illustrator 22.1.0, SVG Export Plug-In . SVG Version: 6.00 Build 0)  -->
<svg version="1.1" id="Layer_1" xmlns="http://www.w3.org/2000/svg" xmlns:xlink="http://www.w3.org/1999/xlink" x="0px" y="0px"
	 width="100px" height="100px" viewBox="0 0 100 100" style="enable-background:new 0 0 100 100;" xml:space="preserve">
<style type="text/css">
	.st0{fill:#FFFFFF;}
</style>
<path class="st0" d="M40.2,65.4c0.1,0.4-0.2,0.7-0.5,0.7c-1,0.1-3.2-1.2-3.4-3.2c-0.2-2,3.4-11,6.9-18.4
	C37.2,53.2,28.9,64.7,26.3,65c-2,0.2-3.7-0.9-3.9-2.8C22,58.5,31.3,43.6,31,40.7c0-0.3-0.1-0.5-0.6-0.5c-3.1,0.4-19,9.4-18.6,13
	c0.1,0.6-0.1,0.8-0.5,0.8c-0.7,0.1-2.1-1-2.3-2.6c-0.5-4.6,15.1-12.7,19.8-13.2c2.3-0.3,4.6,1.6,4.8,3.6c0.3,2.9-7.8,18.2-7.5,20.5
	c0,0.2,0.1,0.3,0.3,0.3c1.5-0.2,17.2-22.2,22-28.3c0.2-0.2,0.5-0.4,0.8-0.4c1-0.1,2.4,0.9,2.5,1.4c0,0.1,0,0.1,0,0.2
	C47,41.4,39.7,60.4,40.2,65.4z M72,42.2c0.3,0,0.6-0.2,0.6-0.5c-0.1-0.9,2.3-4.3,3.4-4.4c0.4,0,0.5-0.3,0.5-0.6
	c-0.1-1-1.9-2.9-3.4-2.7c-0.4,0-0.8,0.2-1.1,0.6c-0.9,1.1-2,4.7-1.9,6.4C70.2,41.8,71.3,42.3,72,42.2z M91,49.7c0.1,1.2-4,3-7.5,3.8
	c-1.5,3-4,6.2-6.8,6.5c-2.9,0.3-4.2-1.2-4.3-3c-0.1-0.6,0.3-1.8,0.7-3c-2.2,2.4-5.4,5.5-7,5.7c-1.4,0.1-2.8-1.1-3-2.7
	c0-0.3,0-0.8,0.2-1.4c-2.1,2.2-4.7,4.6-6.2,4.8c-1.5,0.1-2.8-1.1-3-2.7c-0.1-1.3,0.6-4.4,1.4-6.7c-3.2,3.1-8.1,9.6-8,11
	c0,0.5-0.2,0.7-0.5,0.8c-0.8,0.1-2.4-1.1-2.5-3c-0.1-1.3,2.8-10.4,4.9-10.6c1-0.1,2.2,1,2.3,1.5c0,0,0,0.1-0.1,0.2
	c-1.2,1.5-2.7,4-3.5,6.6c2.8-4.2,8.1-9.5,9.2-9.6c1-0.1,2.3,1,2.3,1.5c0,0,0,0.1-0.1,0.2c-0.9,1.1-2.2,6.1-2,7.9
	c0,0.4,0.2,0.7,0.4,0.7c0.9-0.1,4.7-4,6.5-6c1.1-2.7,2.5-5.4,3.3-6.3c0.2-0.2,0.5-0.4,0.8-0.4c1.1-0.1,2.6,1,2.6,1.4
	c0,0.1,0,0.1,0,0.2c-1,1.2-4.6,8.6-4.4,10.1c0,0.2,0.1,0.3,0.3,0.3c0.9-0.1,4.9-4.3,6.6-6.2c0,0,0,0,0-0.1c-0.2-2.5,3.9-6.2,6.6-6.4
	c2.7-0.3,4.6,2.1,4.8,4c0.1,0.6-0.2,1.6-0.6,2.8c2.4-0.5,4.5-1.4,5.4-2.5c0.1-0.1,0.1-0.1,0.2-0.1C90.5,48.8,91,49.3,91,49.7z
	 M79.7,54.1c-1.3,0.1-2.4,0-3.4-0.3c-0.5,1.1-0.8,2.7-0.7,3.7c0,0.5,0.2,0.8,0.5,0.7C76.9,58.2,78.4,56.3,79.7,54.1z M82.4,47
	c0-0.5-0.3-0.8-0.7-0.7c-2.9,0.3-5.9,3.4-5.8,4.4c0.1,1,2.3,1.4,5,1.3C81.8,49.9,82.5,48,82.4,47z"/>
</svg>
